<svg id="settings_icon" xmlns="http://www.w3.org/2000/svg" width="24" height="24" viewBox="0 0 24 24">
  <path id="Path_26876" data-name="Path 26876" d="M0,0H24V24H0Z" fill="none"/>
  <g id="fi-rr-settings-sliders" transform="translate(3 3)">
    <path id="Path_26886" data-name="Path 26886" d="M.75,3.562H2.8a2.8,2.8,0,0,0,5.4,0H17.25a.75.75,0,0,0,0-1.5H8.2a2.8,2.8,0,0,0-5.4,0H.75a.75.75,0,0,0,0,1.5ZM5.5,1.5A1.313,1.313,0,1,1,4.187,2.812,1.312,1.312,0,0,1,5.5,1.5Z" fill="#e27e28"/>
    <path id="Path_26887" data-name="Path 26887" d="M17.25,10.312H15.2a2.8,2.8,0,0,0-5.4,0H.75a.75.75,0,0,0,0,1.5H9.8a2.8,2.8,0,0,0,5.4,0H17.25a.75.75,0,0,0,0-1.5ZM12.5,12.375a1.312,1.312,0,1,1,1.313-1.312A1.312,1.312,0,0,1,12.5,12.375Z" transform="translate(0 -2.062)" fill="#e27e28"/>
    <path id="Path_26888" data-name="Path 26888" d="M17.25,18.562H8.2a2.8,2.8,0,0,0-5.4,0H.75a.75.75,0,0,0,0,1.5H2.8a2.8,2.8,0,0,0,5.4,0H17.25a.75.75,0,0,0,0-1.5ZM5.5,20.625a1.312,1.312,0,1,1,1.313-1.312A1.312,1.312,0,0,1,5.5,20.625Z" transform="translate(0 -4.125)" fill="#e27e28"/>
  </g>
</svg>
