<svg width="64" height="64" viewBox="0 0 64 64" fill="none" xmlns="http://www.w3.org/2000/svg">
<path d="M54.6667 29.3333C54.0853 29.3333 53.552 28.952 53.3867 28.3653L50.264 17.4347C49.1227 13.4507 45.4293 10.6667 41.2853 10.6667H22.7147C18.5707 10.6667 14.8773 13.4507 13.736 17.4373L10.6133 28.3653C10.4107 29.072 9.67467 29.4747 8.96534 29.2827C8.25601 29.08 7.84801 28.3413 8.05067 27.6347L11.1733 16.704C12.64 11.5787 17.3867 8 22.7147 8H41.288C46.616 8 51.36 11.5787 52.8267 16.7013L55.9493 27.6347C56.152 28.344 55.744 29.08 55.0347 29.2827C54.912 29.3173 54.7867 29.3333 54.6667 29.3333Z" fill="#E27E28"/>
<path d="M57.3333 45.3334C56.5973 45.3334 56 44.7361 56 44.0001V35.5174C56 31.3894 53.2266 27.6934 49.2586 26.5307C37.8106 23.1734 26.1973 23.1734 14.744 26.5307C10.7733 27.6934 7.99998 31.3894 7.99998 35.5174V44.0001C7.99998 44.7361 7.40265 45.3334 6.66665 45.3334C5.93065 45.3334 5.33331 44.7361 5.33331 44.0001V35.5174C5.33331 30.2134 8.89331 25.4641 13.992 23.9707C25.9386 20.4694 38.0586 20.4694 50.008 23.9707C55.1066 25.4641 58.6666 30.2134 58.6666 35.5174V44.0001C58.6666 44.7361 58.0693 45.3334 57.3333 45.3334Z" fill="#E27E28"/>
<path d="M38.6667 39.9999H25.3333C24.5973 39.9999 24 39.4026 24 38.6666C24 37.9306 24.5973 37.3333 25.3333 37.3333H38.6667C39.4027 37.3333 40 37.9306 40 38.6666C40 39.4026 39.4027 39.9999 38.6667 39.9999Z" fill="#E27E28"/>
<path d="M38.6667 34.6667H25.3333C24.5973 34.6667 24 34.0693 24 33.3333C24 32.5973 24.5973 32 25.3333 32H38.6667C39.4027 32 40 32.5973 40 33.3333C40 34.0693 39.4027 34.6667 38.6667 34.6667Z" fill="#E27E28"/>
<path d="M56.9167 45H7.08333C6.48533 45 6 44.552 6 44C6 43.448 6.48533 43 7.08333 43H56.9167C57.5147 43 58 43.448 58 44C58 44.552 57.5147 45 56.9167 45Z" fill="#E27E28"/>
<path d="M53.3333 56.0002C50.392 56.0002 48 53.6082 48 50.6669V44.0002C48 43.2642 48.4307 43.5 49.1667 43.5C49.9027 43.5 50.6667 43.2642 50.6667 44.0002V50.6669C50.6667 52.1362 51.8613 53.3335 53.3333 53.3335C54.8053 53.3335 56 52.1362 56 50.6669V44.0002C56 43.2642 56.4307 43.5 57.1667 43.5C57.9027 43.5 58.6667 43.2642 58.6667 44.0002V50.6669C58.6667 53.6082 56.2747 56.0002 53.3333 56.0002Z" fill="#E27E28"/>
<path d="M10.6666 56.0002C7.72531 56.0002 5.33331 53.6082 5.33331 50.6669V44.0002C5.33331 43.2642 5.764 43.5 6.5 43.5C7.236 43.5 7.99998 43.2642 7.99998 44.0002V50.6669C7.99998 52.1362 9.19464 53.3335 10.6666 53.3335C12.1386 53.3335 13.3333 52.1362 13.3333 50.6669V44.0002C13.3333 43.2642 13.764 43.5 14.5 43.5C15.236 43.5 16 43.2642 16 44.0002V50.6669C16 53.6082 13.608 56.0002 10.6666 56.0002Z" fill="#E27E28"/>
<path d="M14.6667 40C12.4614 40 10.6667 38.2053 10.6667 36C10.6667 33.7947 12.4614 32 14.6667 32C16.872 32 18.6667 33.7947 18.6667 36C18.6667 38.2053 16.872 40 14.6667 40ZM14.6667 34.6667C13.9334 34.6667 13.3334 35.264 13.3334 36C13.3334 36.736 13.9334 37.3333 14.6667 37.3333C15.4 37.3333 16 36.736 16 36C16 35.264 15.4 34.6667 14.6667 34.6667Z" fill="#E27E28"/>
<path d="M49.3334 40C47.128 40 45.3334 38.2053 45.3334 36C45.3334 33.7947 47.128 32 49.3334 32C51.5387 32 53.3334 33.7947 53.3334 36C53.3334 38.2053 51.5387 40 49.3334 40ZM49.3334 34.6667C48.6 34.6667 48 35.264 48 36C48 36.736 48.6 37.3333 49.3334 37.3333C50.0667 37.3333 50.6667 36.736 50.6667 36C50.6667 35.264 50.0667 34.6667 49.3334 34.6667Z" fill="#E27E28"/>
</svg>
