<svg width="64" height="64" viewBox="0 0 64 64" fill="none" xmlns="http://www.w3.org/2000/svg">
<g clip-path="url(#clip0_20_1254)">
<path d="M4.00002 48C3.26402 48 2.66669 47.4027 2.66669 46.6667V6.66667C2.66669 2.98933 5.65869 0 9.33335 0H25.3334C26.0694 0 26.6667 0.597333 26.6667 1.33333C26.6667 2.06933 26.0694 2.66667 25.3334 2.66667H9.33335C7.12802 2.66667 5.33335 4.46133 5.33335 6.66667V46.6667C5.33335 47.4027 4.73602 48 4.00002 48Z" fill="#E27E28"/>
<path d="M49.3889 48C50.2782 48 50.6045 47.4027 50.6045 46.6667L51 6.66667C51 2.98933 47.3847 0 42.9444 0H23.6111C22.7218 0 22 0.597333 22 1.33333C22 2.06933 22.7218 2.66667 23.6111 2.66667H42.9444C45.6092 2.66667 47.7778 4.46133 47.7778 6.66667L48 46.6667C48 47.4027 48.4996 48 49.3889 48Z" fill="#E27E28"/>
<path d="M19.6807 53.3333H9.01402C5.33935 53.3333 2.34735 50.344 2.34735 46.6667C2.34735 42.9893 5.33935 40 9.01402 40H48.1597V33.3333C48.1597 32.5973 48.278 32 49.014 32C49.75 32 50.1115 32.5973 50.1115 33.3333L50.3474 41.3333C50.3474 42.0693 49.75 42.6667 49.014 42.6667H9.01402C6.80868 42.6667 5.01402 44.4613 5.01402 46.6667C5.01402 48.872 6.80868 50.6667 9.01402 50.6667H19.6807C20.4167 50.6667 21.014 51.264 21.014 52C21.014 52.736 20.4167 53.3333 19.6807 53.3333Z" fill="#E27E28"/>
<path d="M49.3333 53.3333H33.3333C32.5973 53.3333 32 52.736 32 52C32 51.264 32.5973 50.6667 33.3333 50.6667H48V41.3333C48 40.5973 48.5973 40 49.3333 40C50.0693 40 50.6667 40.5973 50.6667 41.3333V52C50.6667 52.736 50.0693 53.3333 49.3333 53.3333Z" fill="#E27E28"/>
<path d="M33.3334 63.9999C33.0374 63.9999 32.7414 63.9012 32.4987 63.7092L26.6667 59.0426L20.832 63.7092C20.432 64.0292 19.8854 64.0906 19.4214 63.8692C18.96 63.6452 18.6667 63.1786 18.6667 62.6666V46.6666C18.6667 45.9306 19.264 45.3333 20 45.3333C20.736 45.3333 21.3334 45.9306 21.3334 46.6666V59.8932L25.8347 56.2906C26.3227 55.9012 27.0134 55.9012 27.5014 56.2906L32 59.8932V46.6666C32 45.9306 32.5974 45.3333 33.3334 45.3333C34.0694 45.3333 34.6667 45.9306 34.6667 46.6666V62.6666C34.6667 63.1786 34.3734 63.6452 33.912 63.8666C33.728 63.9546 33.5307 63.9999 33.3334 63.9999Z" fill="#E27E28"/>
<path d="M38.6666 47.9999H14.6666C13.9306 47.9999 13.3333 47.4026 13.3333 46.6666C13.3333 45.9306 13.9306 45.3333 14.6666 45.3333H38.6666C39.4026 45.3333 40 45.9306 40 46.6666C40 47.4026 39.4026 47.9999 38.6666 47.9999Z" fill="#E27E28"/>
</g>
<defs>
<clipPath id="clip0_20_1254">
<rect width="64" height="64" fill="white"/>
</clipPath>
</defs>
</svg>
