<svg width="64" height="64" viewBox="0 0 64 64" fill="none" xmlns="http://www.w3.org/2000/svg">
<g clip-path="url(#clip0_22_1263)">
<path d="M52 63.9999H41.3333C40.5973 63.9999 40 63.4025 40 62.6665V43.9999C40 43.2639 39.4027 42.6665 38.6667 42.6665H25.3333C24.5973 42.6665 24 43.2639 24 43.9999V62.6665C24 63.4025 23.4027 63.9999 22.6667 63.9999H12C9.79467 63.9999 8 62.2052 8 59.9999V34.6665H2.66667C1.19733 34.6665 0 33.4692 0 31.9999C0 31.2932 0.288 30.5999 0.789333 30.0985L31.0667 0.381221C31.584 -0.125446 32.4133 -0.125446 32.936 0.381221L42.6667 9.94122V3.99989C42.6667 3.26389 43.264 2.66655 44 2.66655H54.6667C55.4027 2.66655 56 3.26389 56 3.99989V23.0132L63.2027 30.0879C63.712 30.5999 64 31.2932 64 31.9999C64 33.4692 62.8027 34.6665 61.3333 34.6665H56V59.9999C56 62.2052 54.2053 63.9999 52 63.9999ZM42.6667 61.3332H52C52.736 61.3332 53.3333 60.7359 53.3333 59.9999V33.3332C53.3333 32.5972 53.9307 31.9999 54.6667 31.9999H61.3333L53.7307 24.5225C53.4773 24.2745 53.3333 23.9305 53.3333 23.5732V5.33322H45.3333V13.1199C45.3333 13.6585 45.0107 14.1412 44.5147 14.3492C44.0213 14.5599 43.4507 14.4479 43.064 14.0719L32 3.20255L2.66667 31.9919L9.33333 31.9999C10.0693 31.9999 10.6667 32.5972 10.6667 33.3332V59.9999C10.6667 60.7359 11.264 61.3332 12 61.3332H21.3333V43.9999C21.3333 41.7945 23.128 39.9999 25.3333 39.9999H38.6667C40.872 39.9999 42.6667 41.7945 42.6667 43.9999V61.3332Z" fill="#E27E28"/>
</g>
<defs>
<clipPath id="clip0_22_1263">
<rect width="64" height="64" fill="white"/>
</clipPath>
</defs>
</svg>
