<svg width="64" height="64" viewBox="0 0 64 64" fill="none" xmlns="http://www.w3.org/2000/svg">
<g clip-path="url(#clip0_24_1535)">
<path d="M40.016 16C35.6053 16 32.016 12.4107 32.016 8C32.016 3.58933 35.6053 0 40.016 0C44.4267 0 48.016 3.58933 48.016 8C48.016 12.4107 44.4267 16 40.016 16ZM40.016 2.66667C37.0747 2.66667 34.6827 5.05867 34.6827 8C34.6827 10.9413 37.0747 13.3333 40.016 13.3333C42.9573 13.3333 45.3493 10.9413 45.3493 8C45.3493 5.05867 42.9573 2.66667 40.016 2.66667Z" fill="#E27E28"/>
<path d="M49.3253 64.0001C48.5893 64.0001 47.992 63.4027 47.992 62.6667V58.7041C47.992 55.8001 48.8427 52.9867 50.456 50.5681L51.3093 49.2881C52.6773 47.2347 53.376 44.8747 53.3307 42.4587C53.1413 32.3254 51.3067 25.9521 47.5547 22.4027C46.8293 21.7121 45.8507 21.3334 44.8027 21.3334H41.6987C38.5733 21.3334 35.6693 22.8881 33.9333 25.4907L32.552 27.5627C31.9093 28.5254 31.024 29.3094 29.9893 29.8267L22.2747 33.6934C21.704 33.9787 21.3467 34.5547 21.3467 35.1947C21.3467 35.6907 21.552 36.1387 21.9253 36.4641C22.2987 36.7894 22.768 36.9307 23.2613 36.8561L27.5467 36.2427C28.3253 36.1307 29.048 35.7974 29.6347 35.2774L35.576 30.0081C36.064 29.5734 36.6933 29.3334 37.3493 29.3334C38.8187 29.3334 40.016 30.5307 40.016 32.0001V62.6667C40.016 63.4027 39.4187 64.0001 38.6827 64.0001C37.9467 64.0001 37.3493 63.4027 37.3493 62.6667V32.0001L31.408 37.2694C30.4293 38.1361 29.2267 38.6934 27.9307 38.8801L23.6427 39.4934C22.4027 39.6614 21.1333 39.3041 20.1813 38.4748C19.2293 37.6481 18.68 36.4507 18.68 35.1921C18.68 33.5361 19.6 32.0481 21.08 31.3067L28.7947 27.4401C29.416 27.1281 29.9467 26.6614 30.3333 26.0827L31.7147 24.0107C33.9467 20.6641 37.68 18.6667 41.7013 18.6667H44.8053C46.5387 18.6667 48.1653 19.3041 49.3893 20.4641C53.6933 24.5387 55.7947 31.5121 56 42.4054C56.056 45.3681 55.2027 48.2561 53.5307 50.7654L52.6773 52.0454C51.3573 54.0241 50.6613 56.3254 50.6613 58.7014V62.6667C50.6587 63.4027 50.0613 64.0001 49.3253 64.0001Z" fill="#E27E28"/>
<path d="M30.6667 64.0001C29.9893 64.0001 29.4107 63.4881 29.3413 62.8001L27.608 45.4134C27.384 43.2028 26.3493 41.1521 24.704 39.6508C24.48 39.4508 24.2453 39.2614 23.9893 39.0774C23.3947 38.6428 23.264 37.8081 23.696 37.2134C24.1307 36.6214 24.9627 36.4908 25.56 36.9228C25.8907 37.1654 26.192 37.4054 26.4933 37.6748C28.6347 39.6268 29.9707 42.2801 30.264 45.1468L31.9973 62.5361C32.0693 63.2694 31.536 63.9228 30.8027 63.9948C30.7547 63.9974 30.7093 64.0001 30.6667 64.0001Z" fill="#E27E28"/>
<path d="M6.66667 64.0001C6.62133 64.0001 6.57867 63.9974 6.53333 63.9921C5.80267 63.9201 5.26667 63.2694 5.33867 62.5334L7.072 45.1467C7.68 39.1707 12.664 34.6667 18.6667 34.6667C19.3973 34.6667 19.9707 34.7201 20.4773 34.8321C21.1973 34.9947 21.648 35.7041 21.488 36.4241C21.328 37.1467 20.6213 37.5974 19.896 37.4374C19.4907 37.3441 19 37.3334 18.6667 37.3334C14.0373 37.3334 10.1947 40.8081 9.72534 45.4161L7.992 62.8001C7.92533 63.4881 7.344 64.0001 6.66667 64.0001Z" fill="#E27E28"/>
<path d="M29.3333 55.9999H8.00001C7.26401 55.9999 6.66667 55.4026 6.66667 54.6666C6.66667 53.9306 7.26401 53.3333 8.00001 53.3333H29.3333C30.0693 53.3333 30.6667 53.9306 30.6667 54.6666C30.6667 55.4026 30.0693 55.9999 29.3333 55.9999Z" fill="#E27E28"/>
</g>
<defs>
<clipPath id="clip0_24_1535">
<rect width="64" height="64" fill="white"/>
</clipPath>
</defs>
</svg>
