<svg width="191" height="60" viewBox="0 0 191 60" fill="none" xmlns="http://www.w3.org/2000/svg">
<path d="M19.8225 0H39.6338V19.8113H19.8225V0Z" fill="white"/>
<path d="M-4.95911e-05 39.6911H19.8113V59.5024H-4.95911e-05V39.6911Z" fill="white"/>
<path d="M39.6338 39.7265H19.8225L0.0105057 19.9152H19.8225L39.6338 39.7265Z" fill="white"/>
<path fill-rule="evenodd" clip-rule="evenodd" d="M58.8247 39.973H67.215C69.8575 39.973 70.069 41.1885 70.069 43.302V51.7572C70.069 52.6025 70.0953 55.5638 70.0163 56.4071C69.9365 57.2556 69.5933 57.5699 69.0116 57.5699H68.0082C67.6913 57.5699 67.4792 57.6753 67.4792 57.9922V59.1023C67.4792 59.4192 67.6907 59.5246 67.9021 59.5246C68.4305 59.5246 70.3331 59.3665 73.1865 59.3665C76.2513 59.3665 78.1539 59.5246 78.5762 59.5246C78.9992 59.5246 79.1046 59.4192 79.1046 58.9962V58.0456C79.1046 57.6753 78.9992 57.5699 78.5762 57.5699H76.6742C75.9344 57.5699 75.6175 57.1527 75.6175 56.1956V45.9445C75.6175 41.6108 75.6175 38.2291 75.8283 37.3838C75.9344 36.9609 75.7229 36.6967 75.406 36.6967C74.9831 36.6967 74.2361 36.8034 73.2925 36.9609C71.6978 37.2264 70.0163 37.3311 68.219 37.3311H58.8247V36.221C58.8247 31.6238 58.2449 27.5717 60.271 25.1561C60.9928 24.2954 63.0163 22.9404 65.7957 23.6276C66.8216 23.8815 67.6354 24.3353 68.3322 25.3187C69.4332 26.8736 70.3402 27.7498 72.0314 27.7498C73.6165 27.7498 75.0962 26.4815 75.0962 24.7904C75.0962 22.6769 72.6652 20.9857 69.072 20.9857C64.3591 20.9857 60.2517 21.9705 57.5256 24.53C55.0734 26.8325 53.2762 30.5671 53.2762 36.3798V37.3311H50.4755C50.0526 37.3311 49.8411 37.4365 49.7884 37.7007L49.5242 39.55C49.5242 39.8676 49.6303 39.973 49.8411 39.973H53.2762L53.3289 55.7727C53.3289 56.9355 53.012 57.5699 52.1667 57.5699H49.8411C49.4188 57.5699 49.3127 57.6753 49.3127 57.8868V59.1023C49.3127 59.4192 49.4188 59.5246 49.7357 59.5246C50.1587 59.5246 52.589 59.3665 55.9714 59.3665C59.5645 59.3665 61.2557 59.5246 61.5726 59.5246C61.8895 59.5246 61.9956 59.3131 61.9956 58.9962V58.0456C61.9956 57.6753 61.8895 57.5699 61.3611 57.5699H60.0929C59.3531 57.5699 58.9301 57.0409 58.8774 56.0902C58.772 54.6105 58.8247 50.6998 58.8247 44.5702V39.973ZM80.6209 39.8676C80.3041 39.973 80.0926 40.1845 80.0926 40.3959V40.8182C80.0926 41.0297 80.1986 41.2412 80.5155 41.3466L80.9385 41.5581C82.2067 42.1925 83.1574 43.0378 83.1574 44.6229V56.5125C83.1574 57.3584 82.4175 57.5699 81.7837 57.5699H80.727C80.3041 57.5699 80.1986 57.6753 80.1986 57.9922V58.9962C80.1986 59.3131 80.3041 59.5246 80.5155 59.5246C80.8324 59.5246 82.5236 59.3665 85.7999 59.3665C88.9701 59.3665 90.4498 59.5246 90.7667 59.5246C91.0842 59.5246 91.1896 59.3131 91.1896 58.9962V58.0456C91.1896 57.6753 91.0842 57.5699 90.6613 57.5699H89.7099C88.9701 57.5699 88.7059 56.9355 88.7059 55.7727V44.8871C88.7059 43.4607 88.9701 41.981 89.816 41.1358C91.0842 39.973 92.3524 39.7615 93.1977 39.7615C94.3605 39.7615 95.3112 39.7615 96.3686 40.7128C97.6362 41.7696 97.7422 43.1438 97.7422 45.2573V51.3342C97.7422 53.4477 97.6895 54.9274 97.5307 56.3017C97.4253 57.2524 97.0024 57.5699 96.5794 57.5699H95.5227C94.9943 57.5699 94.8889 57.6753 94.8889 57.9922V58.8908C94.8889 59.3131 94.9943 59.5246 95.3112 59.5246C95.6287 59.5246 97.3192 59.3665 100.49 59.3665C104.189 59.3665 105.774 59.5246 106.197 59.5246C106.514 59.5246 106.62 59.4192 106.62 59.155V57.9395C106.62 57.6753 106.461 57.5699 105.986 57.5699H104.506C103.872 57.5699 103.238 57.2524 103.238 56.0902C103.238 55.0335 103.291 52.7079 103.291 51.0173V43.408C103.291 41.2412 102.71 39.6561 100.384 37.9649C99.2219 37.0136 97.5307 36.6967 95.7341 36.6967C94.149 36.6967 92.7747 37.2251 91.5065 37.9649C90.4498 38.4933 89.4985 39.3386 88.8647 40.0784H88.5478L88.1248 37.3311C88.0194 36.9082 87.8079 36.6967 87.4904 36.6967C87.1735 36.6967 86.8566 36.9082 86.4337 37.1197L80.6209 39.8676ZM116.332 30.4417C116.859 31.5364 116.62 33.3529 114.716 34.2702C112.812 35.1874 110.907 34.5215 110.242 33.1408C109.462 31.5216 110.386 29.7867 111.862 29.0758C114.004 28.0435 115.667 29.061 116.332 30.4417ZM111.344 51.7572C111.344 53.2362 111.292 54.9274 111.239 56.5125C111.185 57.3584 110.921 57.5699 110.393 57.5699H108.068C107.751 57.5699 107.54 57.6753 107.54 57.9922V58.9962C107.54 59.4192 107.698 59.5246 107.963 59.5246C108.596 59.5246 110.604 59.3665 113.669 59.3665C117.21 59.3665 119.641 59.5246 120.063 59.5246C120.381 59.5246 120.486 59.3131 120.486 58.9962V57.9395C120.486 57.6753 120.381 57.5699 119.958 57.5699H117.844C117.316 57.5699 117.104 57.1469 116.998 56.1956C116.893 55.5618 116.893 53.6592 116.893 51.6511V45.9445C116.893 41.5581 116.893 38.1764 116.998 37.3311C117.052 36.9082 116.893 36.6967 116.576 36.6967C116.258 36.6967 115.836 36.8021 115.308 37.0136C114.409 37.3838 109.177 39.2331 108.438 39.55C108.173 39.6561 108.068 39.7615 108.068 39.973V40.5541C108.068 40.7655 108.121 40.9243 108.596 41.0297C111.027 41.6642 111.344 42.7209 111.344 44.306V51.7572ZM128.461 59.3665H121.698C121.169 59.3665 120.958 59.049 121.486 58.2037L134.274 39.0217L130.392 38.9548C127.328 38.9015 126.372 39.3739 122.149 44.7675C121.986 44.9751 121.786 45.0201 121.62 44.9256L120.881 44.5033C120.651 44.3722 120.645 44.2295 120.775 43.9216L123.945 36.4184C124.897 36.6299 125.848 36.8407 126.799 36.9467C128.701 37.1576 128.884 37.3311 133.217 37.3311H140.932C141.461 37.3311 141.778 37.7534 141.461 38.1764L128.25 57.5699L133.504 57.4664C134.847 57.4401 137.302 56.5569 140.964 52.1242C140.579 50.8695 140.458 49.5531 140.458 48.0052C140.458 45.4688 141.726 41.7696 144.896 39.2331C147.486 37.1197 150.233 36.6967 152.4 36.6967C155.941 36.6967 158.583 38.0703 160.379 39.8142C162.863 42.2979 164.026 45.0459 164.026 48.1634C164.026 51.1228 162.757 53.9761 160.749 56.1956C158.583 58.6266 155.412 60.0003 151.872 60.0003C148.542 60.0003 145.689 59.049 143.311 56.1956C142.707 55.4815 142.224 54.8027 141.84 54.1329L138.789 59.8974C137.837 59.5799 135.724 59.4745 133.293 59.3684C130.862 59.263 129.201 59.3665 128.461 59.3665ZM152.294 57.7807C150.181 57.7807 149.018 56.9355 148.12 55.5085C146.693 53.2362 146.481 51.2282 146.481 48.1634C146.481 44.306 147.116 42.0865 148.754 40.2372C149.652 39.2331 150.709 38.8102 152.083 38.8102C154.514 38.8102 157.579 42.1925 157.579 48.0052C157.579 53.395 155.782 57.7807 152.294 57.7807ZM164.55 39.8676C164.233 39.973 164.022 40.1845 164.022 40.3959V40.8182C164.022 41.0297 164.127 41.2412 164.444 41.3466L164.867 41.5581C166.135 42.1925 167.087 43.0378 167.087 44.6229V56.5125C167.087 57.3584 166.347 57.5699 165.712 57.5699H164.656C164.233 57.5699 164.127 57.6753 164.127 57.9922V58.9962C164.127 59.3131 164.233 59.5246 164.444 59.5246C164.762 59.5246 166.452 59.3665 169.729 59.3665C172.899 59.3665 174.379 59.5246 174.696 59.5246C175.013 59.5246 175.119 59.3131 175.119 58.9962V58.0456C175.119 57.6753 175.013 57.5699 174.59 57.5699H173.639C172.899 57.5699 172.635 56.9355 172.635 55.7727V44.8871C172.635 43.4607 172.899 41.981 173.745 41.1358C175.013 39.973 176.281 39.7615 177.127 39.7615C178.289 39.7615 179.24 39.7615 180.297 40.7128C181.565 41.7696 181.671 43.1438 181.671 45.2573V51.3342C181.671 53.4477 181.618 54.9274 181.46 56.3017C181.354 57.2524 180.932 57.5699 180.509 57.5699H179.452C178.924 57.5699 178.818 57.6753 178.818 57.9922V58.8908C178.818 59.3131 178.924 59.5246 179.24 59.5246C179.557 59.5246 181.249 59.3665 184.419 59.3665C188.118 59.3665 189.703 59.5246 190.126 59.5246C190.443 59.5246 190.549 59.4192 190.549 59.155V57.9395C190.549 57.6753 190.39 57.5699 189.915 57.5699H188.435C187.801 57.5699 187.167 57.2524 187.167 56.0902C187.167 55.0335 187.219 52.7079 187.219 51.0173V43.408C187.219 41.2412 186.638 39.6561 184.313 37.9649C183.151 37.0136 181.46 36.6967 179.663 36.6967C178.078 36.6967 176.704 37.2251 175.436 37.9649C174.379 38.4933 173.428 39.3386 172.793 40.0784H172.476L172.053 37.3311C171.948 36.9082 171.737 36.6967 171.42 36.6967C171.103 36.6967 170.785 36.9082 170.363 37.1197L164.55 39.8676Z" fill="white"/>
</svg>
