<svg xmlns="http://www.w3.org/2000/svg" width="576" height="576" viewBox="0 0 576 576">
  <g id="Group_19006" data-name="Group 19006" transform="translate(4379 14665)">
    <g id="Rectangle_9686" data-name="Rectangle 9686" transform="translate(-4379 -14665)" fill="#fff" stroke="#707070" stroke-width="1" opacity="0">
      <rect width="576" height="576" stroke="none"/>
      <rect x="0.5" y="0.5" width="575" height="575" fill="none"/>
    </g>
    <g id="Add_tasks-cuate" data-name="Add tasks-cuate" transform="translate(-4420.237 -14720.008)">
      <g id="freepik--Plant--inject-6" transform="translate(47.44 398.437)">
        <path id="Path_34654" data-name="Path 34654" d="M109.16,413.6s25.245-5.721,39.09-18.474S169.82,359.53,169.82,359.53a217.087,217.087,0,0,0-28.312,7.434c-2.266,2.418-6.563,7.393-8.567,12.118a58.033,58.033,0,0,1-.069-8.664,38.69,38.69,0,0,0-9,5.458C112.407,385.922,109.16,413.6,109.16,413.6Z" transform="translate(-23.877 -287.139)" fill="#e27e28"/>
        <path id="Path_34655" data-name="Path 34655" d="M158.188,369.613c3.441-2.377,6.909-4.67,10.377-7.075a.207.207,0,0,0-.207-.345c-6.508,3.9-12.92,8.042-19.124,12.436-2.169,1.52-4.3,3.1-6.4,4.7l.442-.746c.76-1.271,1.561-2.515,2.349-3.758a56.36,56.36,0,0,1,5.361-7.144.088.088,0,0,0-.124-.124c-1.962,2.266-3.924,4.518-5.721,6.909-.857,1.133-1.644,2.321-2.39,3.537-.4.622-.774,1.257-1.147,1.907-.111.207-.249.428-.373.649-3.261,2.556-6.439,5.237-9.479,8.056q-2.764,2.625-5.417,5.43c.967-3.054,1.824-6.149,2.957-9.161,0-.1-.124-.138-.166,0-1.105,3.15-2.308,6.328-3.15,9.576-1.934,2.086-3.786,4.256-5.527,6.508l.083-.414q.428-1.783.912-3.565.912-3.413,2.045-6.785a39.658,39.658,0,0,1,6.785-12.809c0-.083,0-.207-.124-.124a49.15,49.15,0,0,0-9.672,20.188c-.276,1.078-.525,2.156-.774,3.247-.138.567-.29,1.147-.387,1.741-.76,1.036-1.506,2.073-2.225,3.137a109.161,109.161,0,0,0-10.681,20.948,241.456,241.456,0,0,0-8.083,25.217c0,.166.207.221.262.069,4.933-14.771,9.976-29.763,18.433-42.973a95.847,95.847,0,0,1,5.762-8.07,47.161,47.161,0,0,0,12.284-2.446,53.891,53.891,0,0,0,12.312-5.942,77.518,77.518,0,0,0,6.3-4.753.088.088,0,0,0-.111-.138,50.366,50.366,0,0,1-11.565,7.006,63.64,63.64,0,0,1-12.74,4.27c-1.865.4-3.758.7-5.651.967a105.289,105.289,0,0,1,7.448-8.291c.857-.857,1.741-1.672,2.612-2.487a57.9,57.9,0,0,1,9.341-5.347c4.145-2,8.208-4.145,12.3-6.2,2.308-1.175,4.6-2.377,6.909-3.51.1,0,0-.193-.1-.152-4.145,2-8.36,3.883-12.546,5.8-3.952,1.8-7.931,3.606-11.717,5.734l-.484.29c3.427-2.985,6.909-5.817,10.584-8.553C151.349,374.477,154.734,372,158.188,369.613Z" transform="translate(-28.011 -286.126)" fill="#263238"/>
        <path id="Path_34656" data-name="Path 34656" d="M144,377c-2.045.912-4.145,1.7-6.177,2.653s-4.062,2.114-6.052,3.289a.083.083,0,0,0,.083.138c2.017-.967,4.049-1.865,6.038-2.874s4.062-2.114,6.163-3.04C144.147,377.1,144.092,377,144,377Z" transform="translate(-15.255 -280.47)" fill="#263238"/>
        <path id="Path_34657" data-name="Path 34657" d="M49.8,307.14a36.106,36.106,0,0,1,7.544,20.975c.083,2.266-.276,5.417-.539,9.133a59.65,59.65,0,0,1,16.485,14.08,29.818,29.818,0,0,0-16.581-3.993,48.776,48.776,0,0,0,.953,7.544,28.436,28.436,0,0,1,10.723,2.128,23.961,23.961,0,0,0-9.672,1.921c4.491,14.315,17.88,29.017,54.815,35.277a77.545,77.545,0,0,0-6.536-52C95.868,320.433,49.8,307.14,49.8,307.14Z" transform="translate(-46.539 -307.14)" fill="#e27e28"/>
        <path id="Path_34658" data-name="Path 34658" d="M123.542,452.187q-.967-9.189-2.39-18.295a365.831,365.831,0,0,0-7.475-36.175,144,144,0,0,0-5.334-16.471,23.66,23.66,0,0,0,.138-2.957v-3.551c0-2.363-.138-4.726-.345-7.089a85.1,85.1,0,0,0-2.266-13.818c-.677-2.639-1.465-5.223-2.238-7.835,0-.111-.193,0-.166,0a102.252,102.252,0,0,1,2.764,13.818,133.328,133.328,0,0,1,1.244,13.818c0,1.271,0,2.529,0,3.8v1.63a121.3,121.3,0,0,0-6.232-12.8A156.015,156.015,0,0,0,88.6,347.352a8.083,8.083,0,0,0-.3-2.073l-.539-2.473c-.373-1.686-.8-3.358-1.257-5.03-.926-3.344-2.128-6.577-3.178-9.88a.083.083,0,1,0-.166,0c.981,3.275,1.63,6.66,2.377,9.99.373,1.644.732,3.3,1.092,4.947.18.829.359,1.658.525,2.473v.193c-1.506-1.893-3.026-3.745-4.587-5.527-7.047-8.291-14.785-15.9-22.564-23.49l-2.916-2.763c-.083-.083-.193,0-.111.124,7.434,7.752,14.757,15.614,21.694,23.822,1.658,1.962,3.275,3.938,4.878,5.928l-2.529-1.658c-2.142-1.382-4.325-2.764-6.563-4.035s-4.5-2.487-6.812-3.62-4.891-2.142-7.185-3.468c-.1,0-.18.111-.083.152a54.326,54.326,0,0,1,6.743,3.731c2.252,1.382,4.491,2.681,6.7,4.145s4.353,2.763,6.508,4.145c1.8,1.161,3.565,2.446,5.43,3.523a174.361,174.361,0,0,1,11.842,17.217,124,124,0,0,1,6.107,11.607l-1.382-.58-3.385-1.492c-2.169-.967-4.353-1.907-6.536-2.86-4.145-1.8-8.291-3.454-12.436-5.43a55.506,55.506,0,0,1-6.633-3.689c-.083,0-.166.1-.083.152,7.586,5.223,16.07,8.9,24.457,12.616l3.634,1.6c.995.442,2,.94,3.026,1.382a129.889,129.889,0,0,1,6.246,17.12,347.59,347.59,0,0,1,8.042,35.733c2.114,12.077,3.551,24.222,4.657,36.423.138,1.52.276,3.04.456,4.56a.484.484,0,0,0,.953,0A157.5,157.5,0,0,0,123.542,452.187Z" transform="translate(-43.813 -304.641)" fill="#263238"/>
        <path id="Path_34659" data-name="Path 34659" d="M89.676,343.146a99.416,99.416,0,0,0-2.764-11.054c0-.1-.18,0-.152,0,.926,3.606,1.6,7.282,2.28,10.957s1.3,7.475,1.824,11.234c0,.069.111.069.1,0a97.224,97.224,0,0,0-1.285-11.137Z" transform="translate(-32.429 -297.631)" fill="#263238"/>
        <path id="Path_34660" data-name="Path 34660" d="M81.909,349.794a67.377,67.377,0,0,0-8.042-4.518c-1.382-.691-2.764-1.382-4.062-2.017S66.93,342,65.535,341.31c-.1,0-.18.1-.083.152,1.382.677,2.639,1.492,3.966,2.211l4.145,2.252a91.541,91.541,0,0,0,8.18,4.228.207.207,0,0,0,.166-.359Z" transform="translate(-40.58 -294.095)" fill="#263238"/>
        <path id="Path_34661" data-name="Path 34661" d="M109.49,384.68s23.366-5.527,34.1-21.265c10.239-14.965,13.555-40.486,13.818-42.724-.428,2.059-5.251,24.361-21.155,34.752C124.082,363.414,112.309,369.95,109.49,384.68Z" transform="translate(-23.751 -301.967)" fill="#263238" opacity="0.1"/>
        <path id="Path_34662" data-name="Path 34662" d="M127.478,337.8a29.777,29.777,0,0,0-8.608,14.191h0a34.958,34.958,0,0,1,8.65-14.094C127.672,337.852,127.561,337.714,127.478,337.8Z" transform="translate(-20.17 -295.446)" fill="#263238"/>
        <path id="Path_34663" data-name="Path 34663" d="M109.613,385.3s23.366-5.527,34.1-21.265c10.239-14.965,13.555-40.472,13.818-42.724v-.152s-11.206,15.932-22.993,19.994S106.241,359.269,109.613,385.3Z" transform="translate(-23.874 -301.788)" fill="#e27e28"/>
        <path id="Path_34664" data-name="Path 34664" d="M156.065,326.951a94.294,94.294,0,0,1-7.227,12.353,49.371,49.371,0,0,1-9.672,9.894c-3.178,2.515-6.536,4.809-9.672,7.282a.567.567,0,0,1,.069-.124q.912-1.382,1.907-2.612c1.382-1.713,2.764-3.33,4.27-4.919,2.916-3.15,5.873-6.246,8.47-9.672a35.843,35.843,0,0,0,3.758-6.038c0-.1-.124-.152-.166,0-3.786,7.89-11.358,12.947-16.761,19.621a32.135,32.135,0,0,0-2.156,2.943,12.588,12.588,0,0,0-1.382,2.377,49.413,49.413,0,0,0-7.973,8.056,35.634,35.634,0,0,1,.94-4.532,22.481,22.481,0,0,1,2.487-5.914c0-.1-.1-.193-.152-.1a27.98,27.98,0,0,0-2.764,5.873,21.182,21.182,0,0,0-.857,5.057h0a43.618,43.618,0,0,0-3.164,4.905l.29-1.492c.47-2.335.981-4.657,1.589-6.909a41.453,41.453,0,0,1,5.61-13.168c0-.083-.083-.18-.138-.1a50.433,50.433,0,0,0-6.232,12.878,64.965,64.965,0,0,0-1.865,6.978c-.249,1.147-.484,2.308-.7,3.468-.111.594-.249,1.2-.345,1.824a84.911,84.911,0,0,0-5.389,15.835,232.515,232.515,0,0,0-4.974,29.542,245.253,245.253,0,0,0-1.617,31.366c0,1.313.1,2.625.18,3.938a.269.269,0,1,0,.539,0c.221-5.182.359-10.363.663-15.545s.76-10.363,1.313-15.531a276.028,276.028,0,0,1,4.878-30.206c1.893-8.539,4.353-17.134,9.009-24.623a46.83,46.83,0,0,1,8.429-10.018c3.289-2.943,6.909-5.527,10.322-8.291a56.653,56.653,0,0,0,9.52-9.12,73.4,73.4,0,0,0,7.434-12.049l1.672-3.178C156.259,326.951,156.121,326.855,156.065,326.951Z" transform="translate(-26.524 -299.592)" fill="#263238"/>
        <path id="Path_34665" data-name="Path 34665" d="M139.709,329.434a77.093,77.093,0,0,1-5.209,9.092c0,.069.069.138.111.069a62.98,62.98,0,0,0,5.265-9.12C139.917,329.393,139.765,329.337,139.709,329.434Z" transform="translate(-14.203 -298.648)" fill="#263238"/>
        <path id="Path_34666" data-name="Path 34666" d="M47.44,360.1s-.373,33.162,19.483,42.835,30.5,1.589,44,4.809h0c-.525-.8-10.2-14.619-25.494-18.5C69.673,385.317,52.221,373.932,47.44,360.1Z" transform="translate(-47.44 -286.921)" fill="#e27e28"/>
        <path id="Path_34667" data-name="Path 34667" d="M47.44,360.1s-.373,33.162,19.483,42.835,30.5,1.589,44,4.809h0a74.725,74.725,0,0,0-22.633-6.716C75.849,399.522,51.889,391.356,47.44,360.1Z" transform="translate(-47.44 -286.921)" opacity="0.2"/>
        <path id="Path_34668" data-name="Path 34668" d="M109.788,402.1a33.644,33.644,0,0,0-7.89-5.347l-1.3-.553c-.207-.263-.428-.511-.663-.76a22.744,22.744,0,0,0-1.879-1.769,26.446,26.446,0,0,0-3.993-2.888c-3.289-1.934-6.909-3.289-10.253-5.085-.1,0-.18.11-.083.152,1.658.87,3.275,1.824,4.891,2.764s3.178,1.8,4.712,2.763a34.2,34.2,0,0,1,3.924,2.943c.359.318.691.649,1.023.981a53.186,53.186,0,0,0-6.7-1.783c-3.634-.732-7.31-1.257-10.944-2.031a49.325,49.325,0,0,1-5.265-1.382c-1.644-1.382-3.289-2.639-4.85-4.076a39.377,39.377,0,0,1-5.14-5.693c0-.083-.207,0-.138.1a61.048,61.048,0,0,0,8.18,8.954c-.857-.332-1.7-.677-2.542-1.064a40.956,40.956,0,0,1-16.913-14.066c0-.1-.207,0-.152.083a46.332,46.332,0,0,0,13.693,13.141,40.169,40.169,0,0,0,8.636,4.145,79.91,79.91,0,0,0,10.75,2.542,76.229,76.229,0,0,1,10.529,2.5,31.88,31.88,0,0,1,8.816,4.643,41.219,41.219,0,0,1,11.9,14.757,73.9,73.9,0,0,1,6.508,24.167c0,.359.594.359.567,0C124.283,426.326,120.552,411.8,109.788,402.1Z" transform="translate(-45.01 -281.53)" fill="#263238"/>
        <path id="Path_34669" data-name="Path 34669" d="M80.163,388.706a11.331,11.331,0,0,0-4.145-3.7,14.978,14.978,0,0,1-4.795-3.993c-.069-.083-.207,0-.138.1a16.265,16.265,0,0,0,4.284,3.841,14.826,14.826,0,0,1,4.67,3.855C80.094,388.858,80.219,388.789,80.163,388.706Z" transform="translate(-38.42 -278.952)" fill="#263238"/>
        <path id="Path_34670" data-name="Path 34670" d="M85.27,412.14l.9,18.253,2.777,55.782h41.647l2.764-55.782.912-18.253Z" transform="translate(-32.997 -267.054)" fill="#455a64"/>
        <path id="Path_34671" data-name="Path 34671" d="M85.27,412.14l.9,18.253h47.187l.912-18.253Z" transform="translate(-32.997 -267.054)" fill="#263238"/>
        <rect id="Rectangle_9661" data-name="Rectangle 9661" width="54.829" height="17.424" transform="translate(104.186 154.883) rotate(180)" fill="#455a64"/>
      </g>
      <g id="freepik--Floor--inject-6" transform="translate(47.44 616.926)">
        <path id="Path_34672" data-name="Path 34672" d="M47.44,465.895c179.312-.843,380.471-.843,559.783,0C427.911,466.751,226.752,466.751,47.44,465.895Z" transform="translate(-47.44 -465.263)" fill="#263238"/>
      </g>
      <g id="freepik--Window--inject-6" transform="translate(88.133 68)">
        <rect id="Rectangle_9662" data-name="Rectangle 9662" width="477.706" height="329.013" transform="translate(0.345 0.359)" fill="#fff"/>
        <path id="Path_34673" data-name="Path 34673" d="M554.941,397.373c-.083.083-477.816.138-477.913.207s0-329.152-.138-329.221V68h.345s477.775.235,477.844.193-.221,329.055-.138,329.165Zm0,0c0,.069-.345-329.635,0-328.861l-477.706.207.345-.345c0-.111.152,329.939-.345,328.861l477.706.207Z" transform="translate(-76.89 -68)" fill="#263238"/>
        <rect id="Rectangle_9663" data-name="Rectangle 9663" width="477.706" height="12.657" transform="translate(0.345 0.359)" fill="#263238"/>
        <path id="Path_34674" data-name="Path 34674" d="M87.413,73.543a2.542,2.542,0,1,1-.759-1.813,2.556,2.556,0,0,1,.759,1.813Z" transform="translate(-74.825 -66.855)" fill="#00a3b1"/>
        <path id="Path_34675" data-name="Path 34675" d="M94.923,73.542A2.556,2.556,0,1,1,92.38,71a2.556,2.556,0,0,1,2.542,2.542Z" transform="translate(-71.958 -66.855)" fill="#fff"/>
        <path id="Path_34676" data-name="Path 34676" d="M102.463,73.542a2.542,2.542,0,1,1-.75-1.8,2.556,2.556,0,0,1,.75,1.8Z" transform="translate(-69.079 -66.855)" fill="#455a64"/>
        <rect id="Rectangle_9664" data-name="Rectangle 9664" width="10.294" height="1.658" transform="translate(49.813 41.425)" fill="#ebebeb"/>
        <rect id="Rectangle_9665" data-name="Rectangle 9665" width="10.294" height="1.658" transform="translate(49.813 48.859)" fill="#ebebeb"/>
        <rect id="Rectangle_9666" data-name="Rectangle 9666" width="10.294" height="1.658" transform="translate(49.813 45.184)" fill="#ebebeb"/>
        <rect id="Rectangle_9667" data-name="Rectangle 9667" width="54.76" height="3.662" transform="translate(86.001 44.134)" fill="#ebebeb"/>
        <rect id="Rectangle_9668" data-name="Rectangle 9668" width="54.76" height="3.662" transform="translate(161.101 44.134)" fill="#e27e28"/>
        <rect id="Rectangle_9669" data-name="Rectangle 9669" width="54.76" height="3.662" transform="translate(236.214 44.134)" fill="#ebebeb"/>
        <rect id="Rectangle_9670" data-name="Rectangle 9670" width="114.355" height="12.795" transform="translate(314.104 39.574)" fill="#fff"/>
        <path id="Path_34677" data-name="Path 34677" d="M418.816,109.707c-.345-.332-115.281.94-114.936,0V96.29l86.305.166,28.713.124s-.069,13.072,0,13.127Zm0,0s-.124-13.32,0-13.016c-14.3.083-43.015.18-57.316.193l-57.3.1.345-.345v13.072c-2-.912,114.687.29,114.3,0Z" transform="translate(9.768 -57.2)" fill="#c7c7c7"/>
        <path id="Path_34678" data-name="Path 34678" d="M386.423,105l-1.188.9-2.183-2.9-.8-1.05a2.171,2.171,0,0,0,.456-.263,1.962,1.962,0,0,0,.608-.788l.857,1.119Z" transform="translate(39.688 -55.44)" fill="#dbdbdb"/>
        <path id="Path_34679" data-name="Path 34679" d="M385.174,99.286a3.22,3.22,0,1,0-1.036,4.809,3.04,3.04,0,0,0,.442-.29,3.192,3.192,0,0,0,.594-4.518Zm-1.382,3.5a2.17,2.17,0,0,1-.456.263,1.962,1.962,0,1,1,.456-.263Z" transform="translate(38.601 -56.534)" fill="#dbdbdb"/>
        <rect id="Rectangle_9671" data-name="Rectangle 9671" width="0.691" height="7.766" transform="translate(316.771 42.089)" fill="#c7c7c7"/>
        <rect id="Rectangle_9672" data-name="Rectangle 9672" width="9.244" height="316.356" transform="translate(468.807 13.016)" fill="#dbdbdb"/>
        <path id="Path_34680" data-name="Path 34680" d="M420.181,187.027h0a2.377,2.377,0,0,1-2.391-2.377V81.418A2.377,2.377,0,0,1,420.181,79h0a2.377,2.377,0,0,1,2.377,2.39V184.623a2.377,2.377,0,0,1-2.377,2.4Z" transform="translate(53.256 -63.801)" fill="#a6a6a6"/>
        <rect id="Rectangle_9673" data-name="Rectangle 9673" width="92.758" height="29.376" transform="translate(335.148 73.856)" fill="#e27e28"/>
        <g id="Group_19005" data-name="Group 19005" transform="translate(362.783 83.639)">
          <path id="Path_34681" data-name="Path 34681" d="M329.764,134.187h-1.99a.774.774,0,0,1-.774-.774.788.788,0,0,1,.774-.774h1.99v-1.948a.8.8,0,1,1,1.6,0v1.948h1.99a.788.788,0,0,1,.774.774.76.76,0,0,1-.774.774h-1.99v1.948a.8.8,0,1,1-1.6,0Z" transform="translate(-327 -128.011)" fill="#fff"/>
          <path id="Path_34682" data-name="Path 34682" d="M341.888,136.069h-3.413l-.691,1.824a.774.774,0,0,1-.719.484.829.829,0,0,1-.276,0,.788.788,0,0,1-.456-1.009l3.1-8.291a.788.788,0,0,1,.746-.5.774.774,0,0,1,.746.5l3.109,8.291a.8.8,0,0,1-.47,1.009.788.788,0,0,1-.981-.442Zm-.58-1.548-1.133-3.026-1.133,3.026Z" transform="translate(-323.456 -128.511)" fill="#fff"/>
          <path id="Path_34683" data-name="Path 34683" d="M349.423,137.594a.76.76,0,0,1-.76.76.774.774,0,0,1-.746-.594,3.427,3.427,0,0,1-1.907.594,3.51,3.51,0,1,1,0-7.019,3.233,3.233,0,0,1,1.879.594V129.29a.774.774,0,0,1,.774-.76.76.76,0,0,1,.76.76v5.527h0Zm-3.468-4.726a1.783,1.783,0,0,0-1.382.58,2.017,2.017,0,0,0,0,2.764,1.824,1.824,0,0,0,2.639,0,2.059,2.059,0,0,0,0-2.764,1.782,1.782,0,0,0-1.257-.58Z" transform="translate(-321.083 -128.53)" fill="#fff"/>
          <path id="Path_34684" data-name="Path 34684" d="M356.112,137.57a.76.76,0,0,1-.76.76.746.746,0,0,1-.746-.594,3.482,3.482,0,1,1-1.907-6.425,3.261,3.261,0,0,1,1.879.594v-2.639a.774.774,0,0,1,1.534,0v5.527h0Zm-3.413-4.726a1.81,1.81,0,0,0-1.382.58,2.017,2.017,0,0,0,0,2.764,1.852,1.852,0,0,0,1.382.567,1.8,1.8,0,0,0,1.313-.567,2.017,2.017,0,0,0,0-2.764,1.755,1.755,0,0,0-1.313-.58Z" transform="translate(-318.5 -128.505)" fill="#fff"/>
        </g>
        <path id="Path_34694" data-name="Path 34694" d="M491.8,189.4c-.318-.318-379.42.926-379.089,0V154c.345,0,378.826.263,379.144.345V189.4Zm0,0V154.345c.166.1-378.771.318-378.743.345l.345-.345V189.4c-2.2-.871,379.047.276,378.453,0Z" transform="translate(-63.215 -35.168)" fill="#c7c7c7"/>
        <path id="Path_34695" data-name="Path 34695" d="M126.79,164.02c43.319-.677,91.929-.677,135.248,0C218.719,164.7,170.109,164.7,126.79,164.02Z" transform="translate(-57.84 -31.536)" fill="#c7c7c7"/>
        <path id="Path_34696" data-name="Path 34696" d="M126.79,170.143c28.174-.691,59.181-.691,87.356,0C185.971,170.82,154.964,170.82,126.79,170.143Z" transform="translate(-57.84 -29.203)" fill="#c7c7c7"/>
        <rect id="Rectangle_9674" data-name="Rectangle 9674" width="77.642" height="10.723" transform="translate(255.296 131.351)" fill="#ebebeb"/>
        <rect id="Rectangle_9675" data-name="Rectangle 9675" width="72.557" height="5.969" transform="translate(257.59 133.673)" fill="#e27e28"/>
        <rect id="Rectangle_9676" data-name="Rectangle 9676" width="40.002" height="14.951" transform="translate(371.531 129.168)" fill="#00a3b1"/>
        <path id="Path_34697" data-name="Path 34697" d="M354.232,164.545a3.247,3.247,0,0,1,1.921.649.235.235,0,0,1,0,.3.207.207,0,0,1-.29,0,2.681,2.681,0,0,0-1.658-.58,2.6,2.6,0,1,0,0,5.182,2.529,2.529,0,0,0,1.644-.567.193.193,0,0,1,.29,0,.221.221,0,0,1,0,.3,3.15,3.15,0,0,1-1.921.636,3.012,3.012,0,1,1,0-6.011Z" transform="translate(27.758 -31.176)" fill="#fff"/>
        <path id="Path_34698" data-name="Path 34698" d="M358.98,168a1.382,1.382,0,0,0-2.639,0v2.321h0a.249.249,0,0,1-.124.111h0a.235.235,0,0,1-.166-.069h0a.152.152,0,0,1,0-.069v-5.527a.207.207,0,1,1,.414,0v2.183a1.713,1.713,0,0,1,1.313-.608,1.658,1.658,0,0,1,1.741,1.63v2.321a.207.207,0,0,1-.221.193.193.193,0,0,1-.194-.193Z" transform="translate(29.684 -31.136)" fill="#fff"/>
        <path id="Path_34699" data-name="Path 34699" d="M359.5,167.917a2.017,2.017,0,0,1,4.021-.152h0a.207.207,0,0,1-.207.193h-3.4a1.631,1.631,0,0,0,1.6,1.589,1.548,1.548,0,0,0,1.382-.76.221.221,0,0,1,.276-.069.235.235,0,0,1,.069.29,2,2,0,0,1-1.686.94,2.031,2.031,0,0,1-2.059-2.031Zm.442-.332h3.137a1.589,1.589,0,0,0-3.137,0Z" transform="translate(31.002 -30.597)" fill="#fff"/>
        <path id="Path_34700" data-name="Path 34700" d="M363.24,167.943a2.087,2.087,0,0,1,2.128-2.073,2.114,2.114,0,0,1,1.382.456.2.2,0,1,1-.276.276,1.755,1.755,0,0,0-1.078-.373,1.672,1.672,0,1,0,0,3.344,1.838,1.838,0,0,0,1.078-.359.193.193,0,0,1,.276,0,.207.207,0,0,1,0,.29,2.114,2.114,0,0,1-1.382.442A2.086,2.086,0,0,1,363.24,167.943Z" transform="translate(32.43 -30.636)" fill="#fff"/>
        <path id="Path_34701" data-name="Path 34701" d="M367,164.787a.207.207,0,0,1,.415,0v3.993l2.46-2.446a.2.2,0,1,1,.29.276l-1.6,1.6,1.617,1.962a.207.207,0,0,1,0,.29.152.152,0,0,1-.124,0,.166.166,0,0,1-.166-.069l-1.589-1.921-.857.843v.953a.193.193,0,0,1-.207.193.207.207,0,0,1-.207-.193Z" transform="translate(33.866 -31.129)" fill="#fff"/>
        <path id="Path_34702" data-name="Path 34702" d="M491.8,224.781c-.318-.318-379.42.912-379.089,0v-35.4c.345,0,378.826.263,379.144.345v35.056Zm0,0V189.725c.166.083-378.771.318-378.743.345l.345-.345v35.056c-2.2-.871,379.047.276,378.453,0Z" transform="translate(-63.215 -21.661)" fill="#c7c7c7"/>
        <path id="Path_34703" data-name="Path 34703" d="M126.79,199.38c43.319-.677,91.929-.677,135.248,0C218.719,200.057,170.109,200.057,126.79,199.38Z" transform="translate(-57.84 -18.037)" fill="#c7c7c7"/>
        <path id="Path_34704" data-name="Path 34704" d="M126.79,205.5c28.174-.677,59.181-.691,87.356,0C185.971,206.193,154.964,206.179,126.79,205.5Z" transform="translate(-57.84 -15.702)" fill="#c7c7c7"/>
        <rect id="Rectangle_9677" data-name="Rectangle 9677" width="77.642" height="10.723" transform="translate(255.296 180.211)" fill="#ebebeb"/>
        <rect id="Rectangle_9678" data-name="Rectangle 9678" width="50.518" height="5.969" transform="translate(257.59 182.532)" fill="#e27e28"/>
        <rect id="Rectangle_9679" data-name="Rectangle 9679" width="40.002" height="14.951" transform="translate(371.531 178.041)" fill="#e27e28"/>
        <path id="Path_34705" data-name="Path 34705" d="M354.232,199.919a3.15,3.15,0,0,1,1.921.649.221.221,0,0,1,0,.29.193.193,0,0,1-.29,0,2.667,2.667,0,0,0-1.658-.567,2.6,2.6,0,1,0,0,5.182,2.543,2.543,0,0,0,1.644-.58.193.193,0,0,1,.29,0,.207.207,0,0,1,0,.29,3.15,3.15,0,0,1-1.921.649,3.012,3.012,0,1,1,0-6.011Z" transform="translate(27.758 -17.677)" fill="#fff"/>
        <path id="Path_34706" data-name="Path 34706" d="M358.979,203.363a1.382,1.382,0,0,0-2.639,0v2.363h0a.221.221,0,0,1-.124.1h0a.235.235,0,0,1-.166-.069s0,0,0-.069v-5.527a.207.207,0,1,1,.414,0v2.183a1.769,1.769,0,0,1,1.313-.608,1.658,1.658,0,0,1,1.741,1.644v2.308a.221.221,0,0,1-.221.207.207.207,0,0,1-.193-.207Z" transform="translate(29.685 -17.625)" fill="#fff"/>
        <path id="Path_34707" data-name="Path 34707" d="M359.5,203.277a2.017,2.017,0,0,1,4.021-.152h0a.193.193,0,0,1-.207.18h-3.4a1.617,1.617,0,0,0,1.6,1.589,1.575,1.575,0,0,0,1.382-.746.193.193,0,0,1,.276-.069.235.235,0,0,1,.069.29,2,2,0,0,1-1.686.94,2.045,2.045,0,0,1-2.059-2.031Zm.442-.332h3.137a1.589,1.589,0,0,0-3.137,0Z" transform="translate(31.002 -17.098)" fill="#fff"/>
        <path id="Path_34708" data-name="Path 34708" d="M363.24,203.3a2.1,2.1,0,0,1,2.128-2.073,2.2,2.2,0,0,1,1.382.456.207.207,0,0,1-.249.318,1.755,1.755,0,0,0-1.078-.373,1.672,1.672,0,0,0,0,3.344,1.838,1.838,0,0,0,1.078-.359.207.207,0,0,1,.276,0,.221.221,0,0,1,0,.3,2.211,2.211,0,0,1-1.382.442,2.1,2.1,0,0,1-2.156-2.059Z" transform="translate(32.43 -17.137)" fill="#fff"/>
        <path id="Path_34709" data-name="Path 34709" d="M367,200.144a.207.207,0,0,1,.207-.193.194.194,0,0,1,.207.193v4.021l2.46-2.446a.207.207,0,0,1,.29.29l-1.6,1.6,1.617,1.948a.164.164,0,1,1-.124.3.18.18,0,0,1-.166-.083l-1.589-1.921-.857.843v.953a.207.207,0,0,1-.415,0Z" transform="translate(33.866 -17.625)" fill="#fff"/>
        <path id="Path_34710" data-name="Path 34710" d="M491.8,260.131c-.318-.318-379.42.926-379.089,0v-35.4c.345,0,378.826.263,379.144.345v35.056Zm0,0-.083-35.028c.166.083-378.771.318-378.743.345l.345-.345v35.055c-2.2-.87,379.047.276,378.453,0Z" transform="translate(-63.215 -8.165)" fill="#c7c7c7"/>
        <path id="Path_34711" data-name="Path 34711" d="M126.79,234.752c43.319-.677,91.929-.691,135.248,0C218.719,235.429,170.109,235.415,126.79,234.752Z" transform="translate(-57.84 -4.535)" fill="#c7c7c7"/>
        <path id="Path_34712" data-name="Path 34712" d="M126.79,240.86c28.174-.677,59.181-.677,87.356,0C185.971,241.551,154.964,241.551,126.79,240.86Z" transform="translate(-57.84 -2.201)" fill="#c7c7c7"/>
        <rect id="Rectangle_9680" data-name="Rectangle 9680" width="77.642" height="10.723" transform="translate(255.296 229.07)" fill="#ebebeb"/>
        <rect id="Rectangle_9681" data-name="Rectangle 9681" width="9.686" height="5.969" transform="translate(257.59 231.391)" fill="#e27e28"/>
        <rect id="Rectangle_9682" data-name="Rectangle 9682" width="40.002" height="14.951" transform="translate(371.531 226.901)" fill="#e27e28"/>
        <path id="Path_34713" data-name="Path 34713" d="M354.232,235.279a3.15,3.15,0,0,1,1.921.649.235.235,0,0,1,0,.3.207.207,0,0,1-.29,0,2.681,2.681,0,0,0-1.658-.58,2.6,2.6,0,1,0,0,5.182,2.543,2.543,0,0,0,1.644-.58.207.207,0,0,1,.29,0,.221.221,0,0,1,0,.3,3.233,3.233,0,0,1-1.921.636,3.012,3.012,0,1,1,0-6.011Z" transform="translate(27.758 -4.177)" fill="#fff"/>
        <path id="Path_34714" data-name="Path 34714" d="M358.981,238.712a1.382,1.382,0,0,0-2.639,0v2.4a.179.179,0,0,1-.124.1h0a.235.235,0,0,1-.166,0v-.069a.124.124,0,0,1,0-.069v-5.527a.207.207,0,1,1,.414,0v2.086a1.713,1.713,0,0,1,1.313-.608,1.658,1.658,0,0,1,1.741,1.63v2.308a.221.221,0,0,1-.221.207.207.207,0,0,1-.193-.207Z" transform="translate(29.684 -4.114)" fill="#fff"/>
        <path id="Path_34715" data-name="Path 34715" d="M359.5,238.637a2.017,2.017,0,0,1,4.021-.152h0a.193.193,0,0,1-.207.18h-3.4a1.631,1.631,0,0,0,1.6,1.6,1.548,1.548,0,0,0,1.382-.76.221.221,0,0,1,.276,0,.235.235,0,0,1,.069.29,2,2,0,0,1-1.686.94,2.045,2.045,0,0,1-2.059-2.1Zm.442-.318h3.137a1.589,1.589,0,0,0-3.137,0Z" transform="translate(31.002 -3.598)" fill="#fff"/>
        <path id="Path_34716" data-name="Path 34716" d="M363.24,238.659a2.086,2.086,0,0,1,2.128-2.059,2.114,2.114,0,0,1,1.382.456.193.193,0,0,1,0,.276.207.207,0,0,1-.276,0,1.727,1.727,0,0,0-2.764,1.285,1.7,1.7,0,0,0,1.727,1.686,1.755,1.755,0,0,0,1.078-.373.194.194,0,0,1,.276,0,.207.207,0,0,1,0,.29,2.229,2.229,0,0,1-3.551-1.561Z" transform="translate(32.43 -3.634)" fill="#fff"/>
        <path id="Path_34717" data-name="Path 34717" d="M367,235.517a.207.207,0,0,1,.415,0V239.5l2.46-2.446a.207.207,0,0,1,.29.29l-1.6,1.6,1.617,1.962a.207.207,0,0,1,0,.29.221.221,0,0,1-.124,0,.166.166,0,0,1-.166,0l-1.589-1.934-.857.857v.94a.207.207,0,1,1-.415,0Z" transform="translate(33.866 -4.126)" fill="#fff"/>
        <path id="Path_34718" data-name="Path 34718" d="M491.8,295.487c-.318-.318-379.42.926-379.089,0V260.1c.345,0,378.826.249,379.144.345v35.042Zm0,0V260.445c.166.083-378.771.3-378.743.332l.345-.332v35.042c-2.2-.871,379.047.276,378.453,0Z" transform="translate(-63.215 5.338)" fill="#c7c7c7"/>
        <path id="Path_34719" data-name="Path 34719" d="M126.79,270.14c43.319-.677,91.929-.677,135.248,0C218.719,270.817,170.109,270.817,126.79,270.14Z" transform="translate(-57.84 8.977)" fill="#c7c7c7"/>
        <path id="Path_34720" data-name="Path 34720" d="M126.79,276.232c28.174-.677,59.181-.691,87.356,0C185.971,276.909,154.964,276.909,126.79,276.232Z" transform="translate(-57.84 11.301)" fill="#c7c7c7"/>
        <rect id="Rectangle_9683" data-name="Rectangle 9683" width="77.642" height="10.723" transform="translate(255.296 277.943)" fill="#ebebeb"/>
        <rect id="Rectangle_9684" data-name="Rectangle 9684" width="14.799" height="5.969" transform="translate(257.59 280.265)" fill="#e27e28"/>
        <rect id="Rectangle_9685" data-name="Rectangle 9685" width="40.002" height="14.951" transform="translate(371.531 275.774)" fill="#e27e28"/>
        <path id="Path_34721" data-name="Path 34721" d="M354.232,270.635a3.247,3.247,0,0,1,1.921.649.235.235,0,0,1,0,.3.207.207,0,0,1-.29,0,2.681,2.681,0,0,0-1.658-.58,2.6,2.6,0,1,0,0,5.182,2.529,2.529,0,0,0,1.644-.567.193.193,0,0,1,.29,0,.221.221,0,0,1,0,.3,3.151,3.151,0,0,1-1.921.636,3.012,3.012,0,1,1,0-6.011Z" transform="translate(27.758 9.326)" fill="#fff"/>
        <path id="Path_34722" data-name="Path 34722" d="M358.981,274.083a1.382,1.382,0,0,0-2.639,0v2.349h0a.193.193,0,0,1-.124.111h0a.221.221,0,0,1-.166,0v-.069a.124.124,0,0,1,0-.069v-5.527a.207.207,0,1,1,.414,0v2.183a1.713,1.713,0,0,1,1.313-.608,1.658,1.658,0,0,1,1.741,1.63V276.4a.207.207,0,0,1-.221.194.193.193,0,0,1-.194-.194Z" transform="translate(29.684 9.374)" fill="#fff"/>
        <path id="Path_34723" data-name="Path 34723" d="M359.5,274.007a2.017,2.017,0,0,1,4.021-.152h0a.207.207,0,0,1-.207.193h-3.4a1.631,1.631,0,0,0,1.6,1.589,1.548,1.548,0,0,0,1.382-.76.207.207,0,0,1,.276,0,.221.221,0,0,1,.069.276,2,2,0,0,1-1.672.967,2.031,2.031,0,0,1-2.073-2.114Zm.442-.332h3.137a1.589,1.589,0,0,0-3.137,0Z" transform="translate(31.002 9.905)" fill="#fff"/>
        <path id="Path_34724" data-name="Path 34724" d="M363.24,274.033a2.087,2.087,0,0,1,2.128-2.073,2.114,2.114,0,0,1,1.382.456.2.2,0,1,1-.276.276,1.755,1.755,0,0,0-1.078-.373,1.672,1.672,0,1,0,0,3.344,1.838,1.838,0,0,0,1.078-.359.207.207,0,0,1,.276,0,.221.221,0,0,1,0,.3,2.2,2.2,0,0,1-1.382.428A2.086,2.086,0,0,1,363.24,274.033Z" transform="translate(32.43 9.866)" fill="#fff"/>
        <path id="Path_34725" data-name="Path 34725" d="M367,270.877a.207.207,0,0,1,.415,0v3.993l2.46-2.446a.207.207,0,1,1,.29.29l-1.6,1.589,1.617,1.962a.207.207,0,0,1,0,.29.152.152,0,0,1-.124,0,.166.166,0,0,1-.166,0l-1.589-1.921-.857.843v.953a.193.193,0,0,1-.207.193.207.207,0,0,1-.207-.193Z" transform="translate(33.866 9.374)" fill="#fff"/>
        <text id="Add_Insurance" data-name="Add Insurance" transform="translate(50.104 78.008)" fill="#222" stroke="rgba(0,0,0,0)" stroke-width="1" font-size="20" font-family="DaxPro-Medium, Dax Pro" font-weight="500"><tspan x="0" y="20">Add Insurance</tspan></text>
      </g>
      <g id="freepik--Character--inject-6" transform="translate(426.548 101.958)">
        <path id="Path_34726" data-name="Path 34726" d="M480.132,395.85s-.152,63.216-.152,63.258c-.359,11.676-.87,21.9-1.644,27.179a.18.18,0,0,1,0,.083,8.29,8.29,0,0,1-.967,3.579v.069c-3.551,2.252-96.945,2.086-100.206.995s-.373-10.474,3.261-13.362,39.436-18.82,39.436-18.82l.719-63.161Z" transform="translate(-301.212 23.137)" fill="#ad6359"/>
        <path id="Path_34727" data-name="Path 34727" d="M480.436,432.636s-.456,12.436-.456,12.533c-.359,11.676-.87,21.9-1.644,27.179a.18.18,0,0,1,0,.083,16.278,16.278,0,0,1-.967,3.579v.069c-3.551,2.252-96.945,2.086-100.206.995s-.373-10.474,3.261-13.362,39.436-18.82,39.436-18.82l.276-12.712Z" transform="translate(-301.212 37.076)" fill="#fff"/>
        <path id="Path_34728" data-name="Path 34728" d="M403.557,441.356c6.246-.843,13.818.47,18.267,5.113.18.18-.083.428-.276.359a86.96,86.96,0,0,0-17.963-4.684.4.4,0,0,1-.028-.788Z" transform="translate(-290.713 40.488)" fill="#263238"/>
        <path id="Path_34729" data-name="Path 34729" d="M400.227,443.146c6.246-.843,13.818.47,18.281,5.113.166.18-.083.428-.29.359a86.958,86.958,0,0,0-17.963-4.684.4.4,0,0,1-.028-.788Z" transform="translate(-291.985 41.171)" fill="#263238"/>
        <path id="Path_34730" data-name="Path 34730" d="M396.9,444.936c6.246-.843,13.818.47,18.281,5.113.18.18-.083.428-.276.359a87.055,87.055,0,0,0-17.963-4.684.4.4,0,0,1-.042-.788Z" transform="translate(-293.254 41.854)" fill="#263238"/>
        <path id="Path_34731" data-name="Path 34731" d="M377.1,473.84c3.261,1.105,96.724,1.257,100.206-.995,1.382-.829,2.183-14.44,2.694-30.91v-.511l-60.245-.774v1.022s-35.746,15.932-39.394,18.806S373.842,472.749,377.1,473.84Z" transform="translate(-301.236 40.309)" fill="#37474f"/>
        <path id="Path_34732" data-name="Path 34732" d="M480.022,441.41v.539c-.525,16.457-1.382,30.067-2.694,30.9-1.617,1.023-21.873,1.548-43.747,1.727-26.185.193-54.677-.124-56.459-.732-3.261-1.092-.345-10.474,3.261-13.362S419.8,441.673,419.8,441.673V440.65l20.1.263Z" transform="translate(-301.226 40.309)" fill="#00a3b1"/>
        <path id="Path_34733" data-name="Path 34733" d="M377.549,462.11c15.738-.359,79.272-.332,94.859.511.138,0,.138.1,0,.1-15.586.7-79.12.152-94.859-.345C377.217,462.359,377.217,462.11,377.549,462.11Z" transform="translate(-300.617 48.419)" fill="#263238"/>
        <path id="Path_34734" data-name="Path 34734" d="M439.861,440.913c-1.755,10.045-4.408,24.872-6.3,33.66-26.185.193-54.677-.124-56.459-.732-3.261-1.092-.345-10.474,3.261-13.362s39.422-18.806,39.422-18.806V440.65Z" transform="translate(-301.234 40.309)" opacity="0.1"/>
        <path id="Path_34735" data-name="Path 34735" d="M473.715,531.119l-67.541-1.23s-.539-116.566.18-153.238c.829-41.9,6.674-167.471,6.674-167.471l50.49,1.382s10.045,29.4,9.009,47.491c-.3,5.237-3.814,12.823-5.361,18.391l-8.083,103.826Z" transform="translate(-289.668 -48.059)" fill="#37474f"/>
        <path id="Path_34736" data-name="Path 34736" d="M468.063,434.08a49.912,49.912,0,0,0-5.375-.58c-1.99-.193-3.979-.4-5.969-.539-3.841-.263-7.683-.442-11.524-.567-7.752-.235-15.517-.4-23.269-.373-4.408,0-8.83.083-13.237.207a.138.138,0,1,0,0,.276c7.683.5,15.365.829,23.048,1.188s15.379.719,23.048.788H461.4a58.619,58.619,0,0,0,6.619-.124C468.146,434.315,468.215,434.107,468.063,434.08Z" transform="translate(-288.687 37.014)" fill="#263238"/>
        <path id="Path_34737" data-name="Path 34737" d="M411.765,450.264c-.276-18.2-.249-40.748-.235-58.946q0-54.635,2.225-109.16c.829-20.409,1.934-40.8,3.109-61.2a.18.18,0,0,0-.359,0c-2.943,36.479-4.7,73.082-5.748,109.657s-1.382,77.172-.622,113.582c.442,20.423.981,43.042,2.349,63.437a.138.138,0,0,0,.276,0C412.442,489.147,412.055,468.655,411.765,450.264Z" transform="translate(-288.24 -43.63)" fill="#263238"/>
        <path id="Path_34738" data-name="Path 34738" d="M428.315,397.19s-2.2,61.047-2.2,61.088c-.359,11.676-.884,21.9-1.644,27.166a.179.179,0,0,1,0,.083,8.167,8.167,0,0,1-.981,3.593l-.069.069c-3.551,2.238-96.945,2.086-100.192.981s-.373-10.46,3.261-13.348S365.914,458,365.914,458l2.764-60.991Z" transform="translate(-321.799 23.649)" fill="#ad6359"/>
        <path id="Path_34739" data-name="Path 34739" d="M426.574,432.41s-.456,12.436-.456,12.533c-.359,11.676-.884,21.9-1.644,27.166a.179.179,0,0,1,0,.083,16.182,16.182,0,0,1-.981,3.593l-.069.069c-3.551,2.238-96.945,2.086-100.192.981s-.373-10.46,3.261-13.348,39.422-18.82,39.422-18.82l.29-12.726Z" transform="translate(-321.799 36.984)" fill="#fff"/>
        <path id="Path_34740" data-name="Path 34740" d="M349.667,441.126c6.246-.843,13.818.47,18.281,5.113.166.18-.083.428-.29.345a86.915,86.915,0,0,0-17.963-4.67.4.4,0,0,1-.028-.788Z" transform="translate(-311.287 40.4)" fill="#263238"/>
        <path id="Path_34741" data-name="Path 34741" d="M346.335,442.917c6.246-.857,13.818.47,18.281,5.113.18.18-.083.428-.276.345a86.816,86.816,0,0,0-17.963-4.67.4.4,0,0,1-.041-.788Z" transform="translate(-312.557 41.082)" fill="#263238"/>
        <path id="Path_34742" data-name="Path 34742" d="M343.017,444.708c6.232-.857,13.818.47,18.267,5.113.18.18-.083.428-.276.345a86.913,86.913,0,0,0-17.963-4.67.4.4,0,0,1-.028-.788Z" transform="translate(-313.826 41.765)" fill="#263238"/>
        <path id="Path_34743" data-name="Path 34743" d="M323.222,473.589c3.261,1.105,96.641,1.271,100.192-.981,1.382-.843,2.183-14.44,2.764-30.91v-.484l-60.245-.774v1.022s-35.774,15.932-39.422,18.82S319.961,472.511,323.222,473.589Z" transform="translate(-321.804 40.229)" fill="#00a3b1"/>
        <path id="Path_34744" data-name="Path 34744" d="M323.672,461.88c15.738-.359,79.272-.332,94.859.511.124,0,.124.083,0,.1-15.6.691-79.12.152-94.872-.359C323.327,462.129,323.327,461.88,323.672,461.88Z" transform="translate(-321.19 48.331)" fill="#263238"/>
        <path id="Path_34745" data-name="Path 34745" d="M452.759,274.594s-30.123,86.554-31.062,102.6c-.8,13.666-2.929,154.123-2.929,154.123l-66.007-1.52s10.488-145.086,11.98-159.3c2.335-22.412,14.467-73.331,30.5-128.353,3-10.294,12.74-33.466,12.74-33.466l74.3,2.059s-1.6,34.13-17.825,58.394C464.449,269.122,457.332,272.19,452.759,274.594Z" transform="translate(-309.986 -48.254)" fill="#37474f"/>
        <path id="Path_34746" data-name="Path 34746" d="M413.88,433.253c-7.392-.387-15.061-.8-22.468-.843s-14.716-.138-22.108,0c-4.145.1-8.291.11-12.436.359a.1.1,0,0,0,0,.207c7.379.58,14.813.719,22.219.857s14.688.276,22.108.18c4.145,0,8.291-.124,12.436-.276C414.074,433.778,414.323,433.253,413.88,433.253Z" transform="translate(-308.457 37.136)" fill="#263238"/>
        <path id="Path_34747" data-name="Path 34747" d="M404.811,238.5c-2.763,8.291-5.071,16.692-7.544,25.038s-4.974,16.858-7.448,25.286c-4.767,16.3-12.091,43.664-15.794,60.259S359.7,497.349,359.71,499.519c0,.207.3.207.332,0,2.045-15.282,13.458-143.276,15.117-149.231,4.546-16.374,9.3-39.228,14.039-55.547q4.049-13.942,8.111-27.912c2.764-9.368,5.527-18.723,8-28.174a.263.263,0,0,0-.5-.152Z" transform="translate(-307.333 -36.923)" fill="#263238"/>
        <path id="Path_34748" data-name="Path 34748" d="M412.453,252.736a62.383,62.383,0,0,0,10.391,1.105,101.828,101.828,0,0,0,10.46-.774,78.388,78.388,0,0,1,10.018.332,34.792,34.792,0,0,0,10.073-.94c.152,0,.235.193.083.235a60.87,60.87,0,0,1-9.907,2.142c-3.468.387-6.909-.152-10.377,0a83.166,83.166,0,0,1-10.653.318,37.058,37.058,0,0,1-10.17-2.2C412.231,252.916,412.314,252.723,412.453,252.736Z" transform="translate(-287.256 -31.536)" fill="#263238"/>
        <path id="Path_34749" data-name="Path 34749" d="M408.7,327.572c.788-2.667,1.534-5.334,2.349-8,1.672-5.361,3.358-10.736,5.182-16.042,3.648-10.571,7.089-21.21,10.916-31.712,2.183-5.955,4.145-11.994,6.66-17.825a.125.125,0,1,1,.235.083c-1.382,5.527-3.15,10.792-4.809,16.167s-3.4,10.723-5.154,16.07c-3.482,10.612-6.909,21.252-10.695,31.781q-1.575,4.435-3.275,8.816c-1.175,2.985-2.1,6.08-3.482,8.982a.138.138,0,0,1-.263-.083C406.941,333,407.895,330.294,408.7,327.572Z" transform="translate(-289.524 -30.983)" fill="#263238"/>
        <path id="Path_34750" data-name="Path 34750" d="M434.376,251.482c.484-4.587,2.017-19.082,2.28-21.749.124-1.382.663-9.037.152-9.106a66.769,66.769,0,0,0-8.291-.152q-4.062,0-8.139-.29-8.291-.456-16.4-1.561a.58.58,0,1,0-.152,1.147q8.291,1.216,16.581,1.8c2.694.193,13.168.732,15.6.47,0,1.092-.732,5.126-.843,6.038a32.491,32.491,0,0,0-3.468.235q-1.921.124-3.855.166-3.993.111-8.028-.083a125.82,125.82,0,0,1-15.421-1.658c-.166,0-.18.193,0,.235a90.244,90.244,0,0,0,15.738,2.169q3.758.166,7.462,0c1.382,0,2.764-.111,4.049-.207a24.381,24.381,0,0,0,3.482-.373,1.45,1.45,0,0,1-.069.539c-.318,2.529-1.99,17.438-2.57,22.357-2.764,1.257-16.208,7.448-17.8,6.591-3-1.63-13.293-8.512-16.3-10.211.428-4.422.995-8.816,1.741-13.182.387-2.252.815-4.491,1.285-6.729a43.374,43.374,0,0,0,1.271-6.909c0-.193-.29-.345-.428-.166l-.207.276a.152.152,0,0,0,0,.152,31.783,31.783,0,0,0-2.017,6.163c-.58,2.28-1.092,4.574-1.561,6.909q-1.382,6.909-2.142,13.818a.829.829,0,0,0,.373.815c4.518,2.653,16.94,10.653,18.073,10.861,2.2.387,18.612-6.715,19.041-7.019A1.644,1.644,0,0,0,434.376,251.482Z" transform="translate(-293.358 -44.459)" fill="#263238"/>
        <path id="Path_34751" data-name="Path 34751" d="M438.261,247.183c-.373-3.952-1.548-16.429-1.741-18.723-.1-1.133-.567-7.752-.263-7.779a26.25,26.25,0,0,1,4.74.387c1.534.138,3.081.221,4.629.263a80.615,80.615,0,0,0,9.327-.3c.47,0,.58.94.11.995a85.568,85.568,0,0,1-9.451.484,71.854,71.854,0,0,1-8.885-.58c0,.94.511,4.422.594,5.209a14.564,14.564,0,0,1,1.99.415c.732.152,1.465.276,2.2.387,1.534.221,3.054.359,4.574.428a46.482,46.482,0,0,0,8.774-.456c.1,0,.111.18,0,.193a33.48,33.48,0,0,1-8.94.884,40.732,40.732,0,0,1-4.256-.428c-.76-.124-1.534-.276-2.308-.442a9.409,9.409,0,0,1-1.99-.525v.456c.235,2.183,1.492,15.02,1.921,19.248,1.589,1.257,9.4,7.379,10.28,6.743,1.686-1.2,7.42-6.439,9.106-7.7-.332-3.8-.746-7.6-1.257-11.372-.263-1.948-.553-3.883-.87-5.817a54.673,54.673,0,0,1-.857-5.955c0-.166.152-.276.235-.111l.124.249a.193.193,0,0,1,0,.124,40.185,40.185,0,0,1,1.23,5.32c.373,1.976.719,3.952,1.022,5.955q.926,5.969,1.506,11.994a.816.816,0,0,1-.193.663c-2.529,1.976-9.451,8.028-10.1,8.139-1.244.207-10.75-6.909-11.054-7.171A1.783,1.783,0,0,1,438.261,247.183Z" transform="translate(-278.147 -43.669)" fill="#263238"/>
        <path id="Path_34752" data-name="Path 34752" d="M433.075,242.28c-.111-6.84-.276-13.693-.7-20.533-.249-3.924-.539-7.862-.926-11.786,0-.138-.235-.152-.235,0,.332,6.909.649,13.818.9,20.727s.263,13.68.332,20.519c0,3.938,0,7.876.1,11.814a.111.111,0,1,0,.221,0C433.145,256.084,433.186,249.189,433.075,242.28Z" transform="translate(-280.036 -47.803)" fill="#263238"/>
        <path id="Path_34753" data-name="Path 34753" d="M425.269,157.356c-.069,1.479-5.043,11.952-11.565,12.906-2.114.3-4.3-11.22-4.3-11.22l-.345-.815L404.1,146.841l12.256-11.676,1.782-1.575s1.161,3.206,2.542,7.213l.207.567c.083.221.166.442.235.649.221.594.428,1.2.636,1.824s.318.912.456,1.382.318.967.47,1.465A81.248,81.248,0,0,1,425.269,157.356Z" transform="translate(-290.386 -76.917)" fill="#ad6359"/>
        <path id="Path_34754" data-name="Path 34754" d="M420.681,140.8a24.872,24.872,0,0,1-11.621,17.424L404.1,146.841l12.256-11.676,1.783-1.575S419.3,136.8,420.681,140.8Z" transform="translate(-290.386 -76.917)" fill="#263238"/>
        <path id="Path_34755" data-name="Path 34755" d="M417.4,126.007a2.045,2.045,0,0,1-3.454,1.948,2.531,2.531,0,0,1-.553.663,2.266,2.266,0,0,1-3.026-.207,2,2,0,0,1-.47.553,2.073,2.073,0,0,1-2.888-.318,2.155,2.155,0,0,1-.442-1.285,2.045,2.045,0,0,1-2.764-.428,2.114,2.114,0,0,1-.373-.774l-.138.124a2.045,2.045,0,0,1-3.247-2.156,2.036,2.036,0,0,1-2.791-2.6,2.293,2.293,0,0,1-1.2-.732,2.211,2.211,0,0,1-.456-1.672,2.252,2.252,0,0,1-1.589-3.537,1.935,1.935,0,0,1-.608-.511,2.045,2.045,0,0,1,.124-2.764,2.2,2.2,0,0,1-.774-.608,2.252,2.252,0,0,1,.346-3.178,1.963,1.963,0,0,1,.649-.345,1.12,1.12,0,0,1-.249-.263,2.045,2.045,0,0,1,.318-2.874,2.17,2.17,0,0,1,1.023-.428,2.239,2.239,0,0,1,.47-2.985,2.2,2.2,0,0,1,1.147-.47,2.239,2.239,0,0,1,2.667-2.888,2,2,0,0,1,.76-1.465A2.045,2.045,0,0,1,401.5,96.4a2.183,2.183,0,0,1,.843-1.81,2.225,2.225,0,0,1,2.653-.111,2.031,2.031,0,0,1,3.275-.649,2.142,2.142,0,0,1,.608-.76,2.252,2.252,0,0,1,3.164.359,1.631,1.631,0,0,1,.263.442,2.492,2.492,0,0,1,.276-.249,2.238,2.238,0,0,1,3.15.359,1.727,1.727,0,0,1,.29.484,1.976,1.976,0,0,1,.428-.47,2.266,2.266,0,0,1,3.178.359,2.211,2.211,0,0,1,.47,1.713,2.239,2.239,0,0,1,2.059.815,2.294,2.294,0,0,1,.484,1.6,2.031,2.031,0,0,1,2.764,2.57,2.045,2.045,0,0,1,1.672,3.15,2.169,2.169,0,0,1,1.617.829,2.252,2.252,0,0,1,0,2.846,2.336,2.336,0,0,1,.567.484,2.045,2.045,0,0,1-.332,2.874,1.74,1.74,0,0,1-.649.345l.1.1a2.28,2.28,0,0,1-.359,3.178,2.113,2.113,0,0,1-.567.318,2.117,2.117,0,0,1,.4.387,2.045,2.045,0,0,1-.332,2.86,1.976,1.976,0,0,1-1.52.428,2,2,0,0,1-.732,1.948,2.086,2.086,0,0,1-1.479.442A2.252,2.252,0,0,1,420.509,124a2.045,2.045,0,0,1-3.012,2.031Z" transform="translate(-294.911 -92.575)" fill="#263238"/>
        <path id="Path_34756" data-name="Path 34756" d="M438.123,145.641a2,2,0,0,1-.677,2.156,2.045,2.045,0,0,1-2.764-.207,2.086,2.086,0,0,1-.553.663,2.252,2.252,0,0,1-3.026-.207,1.644,1.644,0,0,1-.47.553,2.031,2.031,0,0,1-3.316-1.6,2.031,2.031,0,0,1-2.764-.428,1.921,1.921,0,0,1-.373-.774l-.152.124a2.031,2.031,0,0,1-2.86-.332,2,2,0,0,1-.373-1.824,2.017,2.017,0,0,1-2.5-.553,2.045,2.045,0,0,1-.3-2.045,2.307,2.307,0,0,1-1.257-.8,2.142,2.142,0,0,1-.47-1.672,2.28,2.28,0,0,1-1.506-.829,2.238,2.238,0,0,1-.069-2.764,1.99,1.99,0,0,1-.622-.511,2.045,2.045,0,0,1,.124-2.764,2.321,2.321,0,0,1-.774-.608,2.252,2.252,0,0,1,.345-3.164,2.032,2.032,0,0,1,.649-.359,1.532,1.532,0,0,1-.249-.263,2.031,2.031,0,0,1,.318-2.86,1.962,1.962,0,0,1,1.023-.428,2.252,2.252,0,0,1,.484-3,2.211,2.211,0,0,1,1.133-.47,2.252,2.252,0,0,1,.732-2.46,2.211,2.211,0,0,1,1.934-.428,2.031,2.031,0,0,1,2.377-1.879,2.252,2.252,0,0,1,3.5-1.921,2.155,2.155,0,0,1,.594-.774,2.045,2.045,0,0,1,2.694.124,2.141,2.141,0,0,1,.608-.76,2.238,2.238,0,0,1,3.15.359,2.142,2.142,0,0,1,.276.442l.263-.249a2.252,2.252,0,0,1,3.164.359,2.146,2.146,0,0,1,.29.484,1.713,1.713,0,0,1,.428-.47,2.252,2.252,0,0,1,3.634,2.073,2.225,2.225,0,0,1,2.059.815,2.17,2.17,0,0,1,.484,1.6,2.045,2.045,0,0,1,2.764,2.57,2.045,2.045,0,0,1,1.672,3.15,2.225,2.225,0,0,1,1.617.829,2.252,2.252,0,0,1,0,2.846,2.338,2.338,0,0,1,.566.484,2.045,2.045,0,0,1-.332,2.874,1.8,1.8,0,0,1-.636.345l.083.1a2.266,2.266,0,0,1-.359,3.178,2.1,2.1,0,0,1-.567.332,1.464,1.464,0,0,1,.4.373,2.031,2.031,0,0,1-.318,2.86,2.059,2.059,0,0,1-1.52.442,2.045,2.045,0,0,1-2.225,2.377,2.238,2.238,0,0,1-3.275,2.764,1.976,1.976,0,0,1-.746,1.838,2.059,2.059,0,0,1-2.308.29Z" transform="translate(-287.018 -85.127)" fill="#263238"/>
        <path id="Path_34757" data-name="Path 34757" d="M390.912,134.493c-4.767,21.984,7.89,27.29,12.643,28.3,4.325.926,19.138,3.51,26.157-17.866S428,114.4,418.243,111.763,395.679,112.467,390.912,134.493Z" transform="translate(-295.824 -85.544)" fill="#ad6359"/>
        <path id="Path_34758" data-name="Path 34758" d="M393.317,127.038a14.559,14.559,0,0,0,1.548-.111,2.529,2.529,0,0,0,1.575-.4.815.815,0,0,0,.138-.967,2,2,0,0,0-1.879-.732,2.9,2.9,0,0,0-1.962.76.857.857,0,0,0,.58,1.451Z" transform="translate(-294.816 -80.272)" fill="#263238"/>
        <path id="Path_34759" data-name="Path 34759" d="M404.664,128.743a13.173,13.173,0,0,1-1.465-.525,2.5,2.5,0,0,1-1.382-.829.8.8,0,0,1,.152-.967,1.99,1.99,0,0,1,2-.18,2.971,2.971,0,0,1,1.672,1.271.857.857,0,0,1-.981,1.23Z" transform="translate(-291.295 -79.795)" fill="#263238"/>
        <path id="Path_34760" data-name="Path 34760" d="M401.209,130.32s.111.083.1.152c-.3,1.492-.4,3.275.884,3.993v.083C400.532,134.023,400.684,131.688,401.209,130.32Z" transform="translate(-291.626 -78.166)" fill="#263238"/>
        <path id="Path_34761" data-name="Path 34761" d="M402.8,129.342c2.473.221,1.838,5.113-.442,4.919S400.739,129.148,402.8,129.342Z" transform="translate(-291.598 -78.541)" fill="#263238"/>
        <path id="Path_34762" data-name="Path 34762" d="M403.1,129.62c.387.332.746.884,1.257.995s1.119-.318,1.561-.76H406c-.111.953-.594,1.865-1.617,1.879s-1.492-.9-1.617-1.879C402.7,129.73,402.875,129.5,403.1,129.62Z" transform="translate(-290.902 -78.446)" fill="#263238"/>
        <path id="Path_34763" data-name="Path 34763" d="M395.634,129a.122.122,0,0,0-.124.124c-.138,1.52-.553,3.247-1.99,3.593v.083C395.233,132.786,395.758,130.492,395.634,129Z" transform="translate(-294.425 -78.67)" fill="#263238"/>
        <path id="Path_34764" data-name="Path 34764" d="M394.846,127.759c-2.432-.47-3.22,4.408-.967,4.85S396.877,128.1,394.846,127.759Z" transform="translate(-294.797 -79.156)" fill="#263238"/>
        <path id="Path_34765" data-name="Path 34765" d="M394.158,128.046c-.428.193-.884.608-1.382.567s-.843-.636-1.105-1.2h-.083c-.18.926,0,1.948.843,2.266s1.52-.415,1.893-1.3C394.42,128.225,394.337,127.963,394.158,128.046Z" transform="translate(-295.187 -79.277)" fill="#263238"/>
        <path id="Path_34766" data-name="Path 34766" d="M400.848,139.6c-.387.332-.8.8-1.382.8a3.98,3.98,0,0,1-1.617-.525l-.069.083a2.059,2.059,0,0,0,1.865.981,1.658,1.658,0,0,0,1.382-1.257C400.958,139.6,400.848,139.563,400.848,139.6Z" transform="translate(-292.799 -74.627)" fill="#263238"/>
        <path id="Path_34767" data-name="Path 34767" d="M396.641,139.072s-.636,2.225-.788,3.289c0,.1.249.193.608.263h0a5.154,5.154,0,0,0,5.209-1.216c.083-.083,0-.221-.138-.166a7.724,7.724,0,0,1-4.836.691c0-.3,1.216-3.772,1.036-3.814a9.492,9.492,0,0,0-2.5.221c1.174-4.67,3.1-9.106,4.214-13.818,0-.166-.207-.263-.276-.111A77.139,77.139,0,0,0,394,139.072C393.863,139.693,396.185,139.2,396.641,139.072Z" transform="translate(-294.243 -80.45)" fill="#263238"/>
        <path id="Path_34768" data-name="Path 34768" d="M395.9,137.538a6.2,6.2,0,0,0,2.059,2.377,2.764,2.764,0,0,0,1.644.442c1.271-.083,1.52-1.174,1.492-2.169a6.908,6.908,0,0,0-.249-1.548,8.1,8.1,0,0,1-4.947.9Z" transform="translate(-293.516 -75.753)" fill="#263238"/>
        <path id="Path_34769" data-name="Path 34769" d="M397.39,139.488a2.763,2.763,0,0,0,1.644.442c1.271-.083,1.52-1.175,1.492-2.169a2.9,2.9,0,0,0-3.137,1.727Z" transform="translate(-292.948 -75.34)" fill="#ff9abb"/>
        <path id="Path_34770" data-name="Path 34770" d="M407.133,114.713a9.921,9.921,0,0,0-.553,5.79c1.63,5.292,7.779,4.836,9.52,7.088s.428,5.831,1.893,7.918c2.017,2.888,5.4,2.363,5.527,4.145s.484,7.379,2.57,8.387,17.286-33.853-11.3-36.8c0,0-3.662-2.156-10.156,0-7.171,2.418-11.662,13.03-11.662,13.03l1.257-.843c1.548-1.023,2.238-2.073,3.358-2.764,1.755-1.009,2.556-.415,4.38-1.382a19,19,0,0,0,5.168-4.574Z" transform="translate(-294.635 -85.814)" fill="#263238"/>
        <path id="Path_34771" data-name="Path 34771" d="M404.305,112.39a19.527,19.527,0,0,0-1.465,4.242,8.111,8.111,0,0,0,0,4.339,5.942,5.942,0,0,0,2.888,3.012c1.285.691,2.764,1.05,4.145,1.852a4.464,4.464,0,0,1,1.7,1.7,6.149,6.149,0,0,1,.525,2.321,7.918,7.918,0,0,0,.995,4.145,4.919,4.919,0,0,0,3.579,2.156c1.382.207,3.081,0,4.38.871-1.382-.719-2.9-.415-4.408-.525a5.361,5.361,0,0,1-3.993-2.183,8.139,8.139,0,0,1-1.2-4.435,5.761,5.761,0,0,0-.47-2.059,3.884,3.884,0,0,0-1.465-1.382c-1.23-.746-2.763-1.133-4.062-1.893a7.655,7.655,0,0,1-1.865-1.382,4.7,4.7,0,0,1-1.244-2.017,8.471,8.471,0,0,1,.193-4.587,19.206,19.206,0,0,1,1.769-4.173Z" transform="translate(-291.144 -85.011)" fill="#263238"/>
        <path id="Path_34772" data-name="Path 34772" d="M406.61,113.27a15.835,15.835,0,0,1-1.948,3.745,7.448,7.448,0,0,1-3.3,2.764,11.165,11.165,0,0,1-2.073.484,3.33,3.33,0,0,0-1.686.815,10.836,10.836,0,0,1-1.479,1.506,4.768,4.768,0,0,1-1.962.8,5.348,5.348,0,0,0,1.741-1.078,9.464,9.464,0,0,0,1.285-1.6,3.634,3.634,0,0,1,1.948-1.092,11.055,11.055,0,0,0,1.962-.5,7.821,7.821,0,0,0,3.123-2.432,30.293,30.293,0,0,0,2.39-3.413Z" transform="translate(-294.181 -84.675)" fill="#263238"/>
        <path id="Path_34773" data-name="Path 34773" d="M414.454,135.489s5.776-6.356,8.719-4.228-2,11.773-5.9,12.685a3.827,3.827,0,0,1-4.822-2.667Z" transform="translate(-287.198 -77.973)" fill="#ad6359"/>
        <path id="Path_34774" data-name="Path 34774" d="M421.122,133.121v.1c-2.764.732-4.422,2.971-5.707,5.347a2.1,2.1,0,0,1,3.192-.18c.069,0,0,.152-.083.138a2.335,2.335,0,0,0-2.667.484,11.8,11.8,0,0,0-1.492,1.907c-.152.221-.553,0-.428-.207v-.069C414.337,137.322,417.515,132.955,421.122,133.121Z" transform="translate(-286.64 -77.098)" fill="#263238"/>
        <path id="Path_34775" data-name="Path 34775" d="M396.656,211.226l-3.275,20.3,75.887,1.976s-9.534-58.034-27.829-77.794c-9.852-10.64-21.086-8.291-30.081,3.22-3.192,4.145-20.989,25.107-20.354,36.534a27.511,27.511,0,0,0,5.651,15.766Z" transform="translate(-295.392 -71.08)" fill="#00a3b1"/>
        <path id="Path_34776" data-name="Path 34776" d="M412.728,177.637a13.334,13.334,0,0,0-.912,3.772A14.12,14.12,0,0,0,413.667,178a13.718,13.718,0,0,0,.912-3.758,13.584,13.584,0,0,0-1.852,3.4Zm-7.835,51.858c-.152.4-.29.8-.4,1.2h.953c.138-.29.263-.594.373-.884a13.224,13.224,0,0,0,.912-3.772A13.69,13.69,0,0,0,404.893,229.495Zm29.39-5.375a13.943,13.943,0,0,0-.912,3.772,13.153,13.153,0,0,0,1.852-3.4,13.7,13.7,0,0,0,.912-3.772,13.818,13.818,0,0,0-1.852,3.4Zm15.2-39.09a13.252,13.252,0,0,0-3.758-.912,13.155,13.155,0,0,0,3.4,1.852,13.707,13.707,0,0,0,3.772.912,13.239,13.239,0,0,0-3.468-1.852Zm-46.041,13.293a13.6,13.6,0,0,0-3.772-.926,13.82,13.82,0,0,0,3.427,1.865,14.123,14.123,0,0,0,3.758.912,13.017,13.017,0,0,0-3.468-1.852Zm10.211-46.3v-.069l-.8.649a13.319,13.319,0,0,0,1.948,3.137,13.818,13.818,0,0,0-1.147-3.717Zm18.53,41.108a14.2,14.2,0,0,0-2.017-3.316,14.951,14.951,0,0,0,3.123,7.033,14.1,14.1,0,0,0-1.106-3.675Zm20.45,15.794a13.679,13.679,0,0,0-3.3,2.017,15.116,15.116,0,0,0,7.033-3.123,13.555,13.555,0,0,0-3.731,1.105Zm-34.461,3.51a13.293,13.293,0,0,0-3.316,2.031,14.951,14.951,0,0,0,7.033-3.137,13.32,13.32,0,0,0-3.731,1.105Zm12.933-49.868a14.206,14.206,0,0,0-3.316,2.017,14.951,14.951,0,0,0,7.033-3.123,13.942,13.942,0,0,0-3.731,1.105Z" transform="translate(-292.077 -69.908)" fill="#fff"/>
        <path id="Path_34777" data-name="Path 34777" d="M440.893,167.98c-7.006,12.436-37.114,48.79-50.559,50.891-9.811,1.534-25.024-18.571-35.664-27.193-3.33-2.694,27.055-26.35,29.528-22.993,5.721,7.724,8.443,10.861,9,10.515,3.247-2.045,19.345-13.2,36-24.568C442.993,145.167,449.722,152.2,440.893,167.98Z" transform="translate(-309.354 -70.517)" fill="#ad6359"/>
        <path id="Path_34778" data-name="Path 34778" d="M347.526,135.313c-2.874,3.51,6.4,9.852,6.4,9.852a8.4,8.4,0,0,0-5.527,1.382c-2.764,2.073-.719,7.31-.719,7.31a10.322,10.322,0,0,0-5.527,2.418C339.705,158.527,341,164.1,341,164.1a9.521,9.521,0,0,0-3.579,5.223c-2.142,9.424,17.3,25.259,23.794,28.6l29.915-21.846s-7.779-23.739-15.434-30.4C371.444,141.9,351.906,129.883,347.526,135.313Z" transform="translate(-315.903 -76.789)" fill="#ad6359"/>
        <path id="Path_34779" data-name="Path 34779" d="M349.5,142a75.789,75.789,0,0,1,15.711,9.811.111.111,0,0,1-.124.166c-4.822-3.7-10.764-6.2-15.738-9.672a.17.17,0,0,1,.152-.3Z" transform="translate(-311.325 -73.711)" fill="#263238"/>
        <path id="Path_34780" data-name="Path 34780" d="M345.02,148.326a16.582,16.582,0,0,1,3.427,2.46c1.147.953,2.28,1.921,3.385,2.916,2.238,1.99,4.435,4.021,6.563,6.121a.108.108,0,1,1-.138.166q-3.33-2.957-6.8-5.79c-1.161-.94-2.321-1.879-3.5-2.764a19.028,19.028,0,0,1-3.192-2.764C344.647,148.492,344.827,148.229,345.02,148.326Z" transform="translate(-313.051 -71.299)" fill="#263238"/>
        <path id="Path_34781" data-name="Path 34781" d="M340.027,155.84a11.054,11.054,0,0,1,2.957,2.377L346,160.981c2.031,1.824,4.049,3.662,6.121,5.417a.1.1,0,0,1-.124.166c-2.128-1.769-4.27-3.524-6.384-5.306l-3.081-2.667a10.3,10.3,0,0,1-2.6-2.653S340.027,155.827,340.027,155.84Z" transform="translate(-314.884 -68.423)" fill="#263238"/>
        <path id="Path_34782" data-name="Path 34782" d="M382.09,171.05a34.019,34.019,0,0,1,6.688,10.322C386.263,178.1,384.273,174.546,382.09,171.05Z" transform="translate(-298.789 -62.616)" fill="#263238"/>
        <path id="Path_34783" data-name="Path 34783" d="M383.5,177.162l17.175,33.425s20.519-24.955,30.4-41.757,2.764-23.96-13.4-15.421S383.5,177.162,383.5,177.162Z" transform="translate(-298.25 -70.732)" fill="#00a3b1"/>
        <path id="Path_34784" data-name="Path 34784" d="M392.916,180.176a13.93,13.93,0,0,0-3.316,2.017,13.457,13.457,0,0,0,3.717-1.105,13.818,13.818,0,0,0,3.316-2.017A13.818,13.818,0,0,0,392.916,180.176Zm24.582-28.05c-.069-.152-.138-.3-.221-.456-.29.124-.58.263-.884.428l.18.428a13.555,13.555,0,0,0,2.031,3.316A13.818,13.818,0,0,0,417.5,152.126Zm-10.267,46.262a13.6,13.6,0,0,0-3.772-.926,13.389,13.389,0,0,0,3.275,1.81h0l.622-.829Zm9.341-20.727a13.336,13.336,0,0,0-.912,3.772,14.123,14.123,0,0,0,1.852-3.413,13.718,13.718,0,0,0,.912-3.758,13.584,13.584,0,0,0-1.852,3.482Z" transform="translate(-295.922 -70.015)" fill="#fff"/>
        <path id="Path_34785" data-name="Path 34785" d="M389.052,167.742c.553,1.147,1.3,2.225,1.948,3.316s1.257,2.238,1.879,3.358c1.174,2.183,2.377,4.353,3.579,6.522,2.432,4.394,4.974,8.733,7.171,13.279,0,.069,0,.152-.11.1a121.089,121.089,0,0,1-7.807-12.8q-1.824-3.316-3.551-6.688c-.594-1.133-1.161-2.294-1.7-3.468s-.981-2.418-1.575-3.537C388.8,167.728,388.956,167.645,389.052,167.742Z" transform="translate(-296.203 -63.895)" fill="#263238"/>
        <path id="Path_34786" data-name="Path 34786" d="M423.559,167.32c-1.99,3.247-4.145,6.4-6.246,9.534s-4.38,6.218-6.577,9.313-4.546,6.08-6.909,9.106-4.74,5.942-7.337,8.733l-.18.193-.1-.221c-.525-1.119-1.036-2.238-1.534-3.372.622,1.064,1.23,2.128,1.838,3.206h-.276q3.482-4.5,6.909-9.092l6.743-9.161c2.294-3.026,4.491-6.121,6.8-9.134S421.238,170.332,423.559,167.32Z" transform="translate(-293.982 -64.04)" fill="#263238"/>
        <path id="Path_34787" data-name="Path 34787" d="M416.217,169.56a6.729,6.729,0,0,1-1.644,2.142,10.6,10.6,0,0,1-1.078.829,7.54,7.54,0,0,1-1.175.663,46.271,46.271,0,0,0,3.9-3.634Z" transform="translate(-287.248 -63.185)" fill="#263238"/>
      </g>
    </g>
  </g>
</svg>
