<svg xmlns="http://www.w3.org/2000/svg" xmlns:xlink="http://www.w3.org/1999/xlink" width="360" height="360" viewBox="0 0 360 360">
  <defs>
    <clipPath id="clip-path">
      <rect id="Rectangle_10566" data-name="Rectangle 10566" width="218.753" height="64.221" fill="#fff" stroke="#707070" stroke-width="1"/>
    </clipPath>
  </defs>
  <g id="add_bank_illustration" transform="translate(15725 -4786)">
    <rect id="Rectangle_10577" data-name="Rectangle 10577" width="360" height="360" transform="translate(-15725 4786)" fill="none"/>
    <g id="Wall_post-cuate" data-name="Wall post-cuate" transform="translate(-15871.674 4564.883)">
      <g id="freepik--Floor--inject-70" transform="translate(153.675 579.183)">
        <path id="Path_50647" data-name="Path 50647" d="M47.44,405.337l43.361-.469,43.361-.176,86.722-.313,86.722.313,43.361.176,43.361.469-43.361.488L307.606,406l-86.722.313L134.162,406,90.8,405.826Z" transform="translate(-47.44 -404.38)" fill="#263238"/>
      </g>
      <g id="freepik--Character--inject-70" transform="translate(153.674 275.402)">
        <g id="Mask_Group_88" data-name="Mask Group 88" transform="translate(0 239.56)" clip-path="url(#clip-path)">
          <g id="Group_20131" data-name="Group 20131" transform="translate(0.972 -41.768)">
            <path id="Path_50930" data-name="Path 50930" d="M452.862,542.965c-4.917,1.586-144.838-.241-150.117-3.693-2.007-1.264-2.95-21.674-3.352-46.359v-.783c-.1-5.077-.181-10.315-.181-15.634v-2.187L306,401.72l93.6.943-9.232,71.907-.12,2.85-.562,14.871v1.545s53.183,24.645,58.582,29.06S457.779,541.4,452.862,542.965Z" transform="translate(-184.398 1.345)" fill="#eb9481"/>
            <path id="Path_50931" data-name="Path 50931" d="M452.862,506.546c-4.917,1.585-144.838-.241-150.117-3.693-2.007-1.264-2.95-21.674-3.352-46.359v-.783c-.1-5.077-.181-10.315-.181-15.634V437.89l91.154.261-.12,2.85-.562,14.871v1.545s53.183,24.645,58.582,29.06S457.779,504.981,452.862,506.546Z" transform="translate(-184.398 37.764)" fill="#ebebeb"/>
            <path id="Path_50932" data-name="Path 50932" d="M452.759,497.585c-2.529.823-40.539.743-77.707,0-7.466-.141-14.891-.321-22.076-.5-26.511-.722-48.407-1.826-50.434-3.151s-2.93-21.112-3.331-45.336V446.77h.121l90.17.181V448.5s53.243,24.625,58.642,29.04S457.656,496.039,452.759,497.585Z" transform="translate(-184.275 46.705)" fill="#465a65"/>
            <path id="Path_50933" data-name="Path 50933" d="M443.174,470.21c-23.581-.9-118.769-2.248-142.149-1.325-.181,0-.2.141,0,.161,23.36,1.385,118.548,2.007,142.129,1.545C443.655,470.571,443.655,470.21,443.174,470.21Z" transform="translate(-176.215 68.661)" fill="#263238"/>
            <path id="Path_50934" data-name="Path 50934" d="M354.424,447.441c-9.272-1.866-20.631-.582-27.816,6.021-.281.261,0,.642.381.562a131.074,131.074,0,0,1,27.374-5.338.623.623,0,0,0,.06-1.244Z" transform="translate(-139.103 46.596)" fill="#263238"/>
            <path id="Path_50935" data-name="Path 50935" d="M351.114,449.485c-9.252-1.846-20.631-.562-27.816,6.021-.281.241,0,.642.4.542a129.331,129.331,0,0,1,27.354-5.318.623.623,0,0,0,.06-1.244Z" transform="translate(-129.15 48.666)" fill="#263238"/>
            <path id="Path_50936" data-name="Path 50936" d="M347.78,451.551c-9.252-1.866-20.631-.582-27.8,6.021-.281.261,0,.642.381.562a130.576,130.576,0,0,1,27.374-5.338.622.622,0,1,0,.04-1.244Z" transform="translate(-119.173 50.734)" fill="#263238"/>
            <path id="Path_50937" data-name="Path 50937" d="M414.841,497.575c-7.466-.141-14.891-.321-22.076-.5-26.511-.722-48.407-1.826-50.434-3.151S339.4,472.81,339,448.586V446.76h.12C351.463,455.43,394.993,484.409,414.841,497.575Z" transform="translate(-224.024 46.695)" opacity="0.2"/>
            <path id="Path_50938" data-name="Path 50938" d="M468.994,694.817H368.126s20.29-235.369,19.507-239.463c-1.024-5.278-6.964-29.1-14.891-60.207-2.468-9.733-5.158-20.169-8.028-31.006C357.189,334.86,348.9,302.85,341.7,275.015c-10.837-41.723-19.286-74.135-19.286-74.135h85.615s10.034,31.569,22.5,72.609c20.43,66.729,47.744,158.545,50.434,180.861C485.33,490.395,468.994,694.817,468.994,694.817Z" transform="translate(-257.586 -200.88)" fill="#263238"/>
            <path id="Path_50939" data-name="Path 50939" d="M421.45,438.786c-15.393-.321-10.978-.442-26.371-.582-7.526,0-57.036-.5-64.06.662a.161.161,0,0,0,0,.3c7.044,1.164,56.535.742,64.06.662,15.393-.14,10.978-.261,26.371-.582a.241.241,0,0,0,0-.462Z" transform="translate(-214.578 37.972)" fill="#37474f"/>
            <path id="Path_50940" data-name="Path 50940" d="M425.2,430.245c-3.291-14.57-8.228-28.839-12.523-43.148q-13.125-43.59-26.371-87.119-6.623-21.775-13.286-43.509c-2.268-7.325-4.515-14.65-6.8-21.955s-4.8-14.249-6.824-21.454c-.823-2.93-1.264-1.325-.221,2.408,2.127,7.506,4.235,15.032,6.422,22.537q6.5,22.256,13.105,44.513Q391.783,326.85,405.129,371q6.663,22.2,13.346,44.352a180.235,180.235,0,0,1,5.439,21.434,98.8,98.8,0,0,1,.9,22.959c-.963,15.413-2.749,30.806-4.174,46.159s-2.87,30.826-4.295,46.158q-4.255,46-8.429,92.036-.542,5.8-1,11.66c-.1,1.3.823,1.465.963.221,3.312-30.344,6.924-61.03,9.754-91.414s5.68-60.448,8.509-90.692c.7-7.586,1.505-15.192,1.525-22.818a94.313,94.313,0,0,0-2.468-20.812Z" transform="translate(-276.105 -190.141)" fill="#37474f"/>
            <path id="Path_50941" data-name="Path 50941" d="M439.64,200.88c-6.021,45.878-17.219,131.873-25.468,194.267C394.906,319.548,364,200.88,364,200.88Z" transform="translate(-298.996 -200.88)" fill="#37474f"/>
            <path id="Path_50942" data-name="Path 50942" d="M506.3,543.353c-4.917,1.606-144.838.3-150.137-3.131-2.007-1.284-3.03-21.674-3.512-46.359v-.783c-.12-5.077-.2-10.315-.221-15.634v-2.188c-.321-35.622,2.248-72.589,2.248-72.589l91.455.6-2.549,71.907-.1,2.85-.5,14.891v1.525s53.344,24.464,58.762,28.859S511.2,541.808,506.3,543.353Z" transform="translate(-344.582 2.301)" fill="#eb9481"/>
            <path id="Path_50943" data-name="Path 50943" d="M506.271,506.934c-4.917,1.605-144.839.3-150.137-3.131-2.007-1.285-3.03-21.675-3.512-46.359v-.783c-.12-5.078-.2-10.315-.221-15.634V438.84h91.154l-.1,2.85-.5,14.891v1.525s53.344,24.464,58.762,28.859S511.168,505.389,506.271,506.934Z" transform="translate(-344.554 38.72)" fill="#ebebeb"/>
            <path id="Path_50944" data-name="Path 50944" d="M506.052,498.073c-4.917,1.606-144.838.3-150.137-3.131-2.007-1.285-3.03-21.674-3.512-46.359V447.8l90.311-.16v1.525s53.344,24.464,58.762,28.859S510.949,496.528,506.052,498.073Z" transform="translate(-344.336 47.581)" fill="#465a65"/>
            <path id="Path_50945" data-name="Path 50945" d="M496.347,470.67c-23.581-.8-118.769-1.786-142.129-.8-.2,0-.2.141,0,.161,23.34,1.3,118.548,1.525,142.129,1.023C496.889,471.051,496.889,470.689,496.347,470.67Z" transform="translate(-336.176 69.546)" fill="#263238"/>
            <path id="Path_50946" data-name="Path 50946" d="M407.742,448.2c-9.252-1.826-20.631-.5-27.776,6.021-.281.261,0,.642.381.542A130.782,130.782,0,0,1,407.7,449.34a.582.582,0,0,0,.04-1.144Z" transform="translate(-299.369 47.386)" fill="#263238"/>
            <path id="Path_50947" data-name="Path 50947" d="M404.422,450.236c-9.252-1.826-20.631-.5-27.775,6.021-.281.261,0,.642.381.562a130.814,130.814,0,0,1,27.354-5.439.582.582,0,0,0,.04-1.144Z" transform="translate(-289.386 49.44)" fill="#263238"/>
            <path id="Path_50948" data-name="Path 50948" d="M401.133,452.272c-9.252-1.806-20.631-.5-27.776,6.021-.281.241,0,.642.381.542a129.512,129.512,0,0,1,27.354-5.419.6.6,0,0,0,.04-1.144Z" transform="translate(-279.434 51.499)" fill="#263238"/>
            <path id="Path_50949" data-name="Path 50949" d="M508.168,200.88s-2.007,40.86-11.319,73.232c-.743,2.669-1.565,5.318-2.448,7.827A151.464,151.464,0,0,0,469.8,294.6s-.983,32.873-2.007,69.539c-1.1,40.981-2.228,86.7-2.007,96.331.863,36.265-4.536,235.77-4.536,235.77l-100.747.4s18.223-222.765,18.062-236.071c-.181-21.353,4.9-115.778,8.81-184.634a542.992,542.992,0,0,1,9.412-75.058Z" transform="translate(-360.5 -200.88)" fill="#263238"/>
            <path id="Path_50950" data-name="Path 50950" d="M476.007,439.074c-15.393-.261-10.958-.4-26.351-.482-7.546,0-57.036-.261-64.081.923-.14,0-.14.281,0,.321,7.044,1.124,56.555.482,64.081.381,15.393-.221,10.978-.321,26.351-.7a.221.221,0,1,0,0-.441Z" transform="translate(-378.671 38.446)" fill="#37474f"/>
            <path id="Path_50951" data-name="Path 50951" d="M439.378,208.354c-1.846,56.193-3.813,112.386-6.322,168.579S417.282,635.12,413.89,666.468c0,.2.3.281.341,0,7.325-55.772,11.419-138.3,15.032-194.408s6.021-112.386,8.028-168.579c1.064-31.789,1.907-63.578,2.85-95.368C440.1,207.873,439.4,207.913,439.378,208.354Z" transform="translate(-399.621 -193.744)" fill="#37474f"/>
            <path id="Path_50952" data-name="Path 50952" d="M393.777,240.095a187.265,187.265,0,0,0-28.8,15.092.328.328,0,1,0,.3.582c9.714-4.716,19.648-9.252,29.08-14.51a.651.651,0,1,0-.582-1.164Z" transform="translate(-255.682 -161.464)" fill="#37474f"/>
            <path id="Path_50953" data-name="Path 50953" d="M383.138,222.86c-.662,3.572-1.525,7.124-2.308,10.677s-1.264,6.743-2.147,10.035a16.858,16.858,0,0,1-4.676,8.409c-1.3,1.224-2.749,2.308-4.154,3.412-.743.6-1.565,1.184-2.348,1.806a7.348,7.348,0,0,1,.281-1.445c.241-1.365.462-2.729.682-4.014.522-3.03,1-6.021,1.465-9.071.9-6.021,1.746-11.941,2.97-17.821a.181.181,0,1,0-.361,0c-1.485,5.84-3.111,11.6-4.4,17.48-.642,2.89-2.89,17.119-2.99,18.062s-.2,2.007-.241,3.131a13.06,13.06,0,0,0,0,3.191.261.261,0,0,0,.482,0h0a12.467,12.467,0,0,0,.9-3.091c.261-1.024.5-2.007.682-3.091,0-.361.12-.743.161-1.124,1.4-.863,2.709-2.007,4.014-2.93s2.87-2.007,4.194-3.151a16.056,16.056,0,0,0,5.118-8.028,58.541,58.541,0,0,0,1.666-10.235c.462-4.014.783-8.028,1.365-12.041C383.559,222.7,383.138,222.619,383.138,222.86Z" transform="translate(-244.5 -178.889)" fill="#37474f"/>
          </g>
        </g>
        <path id="Path_50874" data-name="Path 50874" d="M441.531,135.6l-20.3,57.23c-.8,1.659,0,3.14,1.614,3.295L453.1,199a4.909,4.909,0,0,0,4.423-2.72l20.322-57.23a2.211,2.211,0,0,0-1.636-3.295L445.976,132.9A4.865,4.865,0,0,0,441.531,135.6Z" transform="translate(-208.407 -107.931)" fill="#263238"/>
        <path id="Path_50875" data-name="Path 50875" d="M443.163,135.787l-20.322,57.208a2.211,2.211,0,0,0,1.636,3.295l30.252,2.875a4.953,4.953,0,0,0,4.423-2.72l20.322-57.23c.774-1.659,0-3.14-1.636-3.295L447.653,133A4.865,4.865,0,0,0,443.163,135.787Z" transform="translate(-206.435 -107.81)" fill="#455a64"/>
        <path id="Path_50876" data-name="Path 50876" d="M438.308,137.392a2.571,2.571,0,1,1-2.256-2.853A2.571,2.571,0,0,1,438.308,137.392Z" transform="translate(-193.552 -105.966)" fill="#263238"/>
        <path id="Path_50877" data-name="Path 50877" d="M384.5,191.09c17.691,36.311,57.186,83.214,73.152,83.169,7.607,0,21.207,1.548,30.959-7.342,21.45-19.416,40.468-54.687,45.09-74.258,1.725-7.342-37.859-25.718-43.1-19.593-12.251,14.352-26.293,42.348-28.5,42.215-8.182-.487-40.579-26.536-63.2-44.935C371.493,148.035,377.353,176.605,384.5,191.09Z" transform="translate(-259.751 -72.536)" fill="#ad6359"/>
        <path id="Path_50878" data-name="Path 50878" d="M462.043,184.508c-2.211-15.48-5.175-19-.177-32.971,3.273-9.177-1.172-15.214-8.646-8.359-12.185,11.234-13.467,31.689-11.853,38.9Z" transform="translate(-184.316 -99.058)" fill="#ad6359"/>
        <path id="Path_50879" data-name="Path 50879" d="M473.95,230.507s8.845-20.19,8.071-36.819c-.531-11.5-4.423-36.377-34.851-52.431-7.209-3.826-20.168-4.135-10.659,6.347,6.745,7.452,13.268,10.15,16.431,15.192,0,0-16.541,1.548-20.079,8.845a147.45,147.45,0,0,0-7.872,19.9,31.076,31.076,0,0,0,3.6,1.791s-3.1,7.01,1.194,17.824Z" transform="translate(-203.476 -100.764)" fill="#ad6359"/>
        <path id="Path_50880" data-name="Path 50880" d="M486.806,173.266c-4.18-4.423-13.268-13.423-23.131-18.288-11.057-5.418-33.79-12.848-37.593-4.666-2.875,6.015,5.551,9.619,5.551,9.619s-10.04-1.084-11.433,4.909c-1.283,5.462,5.418,7.85,5.418,7.85s-6.214.4-6.435,5.882c-.265,6.634,12.8,4.732,18.332,11.654C438.686,191.8,486.806,173.266,486.806,173.266Z" transform="translate(-210.516 -91.243)" fill="#ad6359"/>
        <path id="Path_50881" data-name="Path 50881" d="M453.164,160.441a49.07,49.07,0,0,0-28.151-7.828c-.243,0-.376.221-.133.265a120.761,120.761,0,0,1,28.239,7.651S453.208,160.463,453.164,160.441Z" transform="translate(-203.764 -84.08)" fill="#263238"/>
        <path id="Path_50882" data-name="Path 50882" d="M450.8,164.513a55.285,55.285,0,0,0-28.571-6.126c-.265,0-.376.243-.133.265a129.236,129.236,0,0,1,28.748,5.971A.57.57,0,0,1,450.8,164.513Z" transform="translate(-207.147 -77.162)" fill="#263238"/>
        <path id="Path_50883" data-name="Path 50883" d="M400.009,221.923l45.267-17.978s-40.623-34.917-55.461-41.817c-16.7-7.762-17.005,2.477-11.057,18.974S400.009,221.923,400.009,221.923Z" transform="translate(-263.743 -75.727)" fill="#00a0ad"/>
        <path id="Path_50884" data-name="Path 50884" d="M400.009,221.923l45.267-17.978s-40.623-34.917-55.461-41.817c-16.7-7.762-17.005,2.477-11.057,18.974S400.009,221.923,400.009,221.923Z" transform="translate(-263.743 -75.727)" opacity="0.2"/>
        <path id="Path_50885" data-name="Path 50885" d="M423.244,177.1c-1.681.376-15.856,5.75-18.929,6.988s-15.612,6.17-18.664,7.718a.111.111,0,0,0,0,.221c3.273-.929,15.944-5.86,19.084-7.054s17.072-6.833,18.509-7.673C423.465,177.234,423.354,177.079,423.244,177.1Z" transform="translate(-251.264 -54.39)" fill="#263238"/>
        <path id="Path_50886" data-name="Path 50886" d="M417.492,214.949l-17.448,6.944s-15.479-24.325-21.362-40.822c-4.29-12.052-5.263-20.787,1.017-21.561Z" transform="translate(-263.756 -75.696)" fill="#263238"/>
        <path id="Path_50887" data-name="Path 50887" d="M338.754,320.6c.288.332,128.259,1.15,129.431-.155,1.636-1.836-26.78-140.577-39.8-157.759-2.808-3.671-20.455-8.669-30.694-.332-21.76,17.691-40.645,78.526-45,96.88C345.388,289.49,337.693,319.387,338.754,320.6Z" transform="translate(-308.059 -77.748)" fill="#00a0ad"/>
        <path id="Path_50888" data-name="Path 50888" d="M439.361,269.723a3.317,3.317,0,1,0,3.295,3.317,3.317,3.317,0,0,0-3.295-3.317Zm0,6.059a2.742,2.742,0,1,1,2.742-2.742,2.742,2.742,0,0,1-2.742,2.742Zm-93.784,28.748a3.317,3.317,0,1,0,3.317,3.317,3.317,3.317,0,0,0-3.317-3.317Zm0,6.037a1.129,1.129,0,1,1,0,.022Zm33.7-16.806a3.295,3.295,0,1,0,2.338.973,3.317,3.317,0,0,0-2.338-.973Zm0,6.037a2.68,2.68,0,1,0,0-.088Zm-16.143-64.373a1.9,1.9,0,1,0-.044-.088Zm0,6.015a2.022,2.022,0,1,0-.044-.088Zm27.2-74.9a3.295,3.295,0,1,0,2.344.957,3.317,3.317,0,0,0-2.344-.957Zm0,6.059a2.742,2.742,0,1,1,2.742-2.742,2.742,2.742,0,0,1-2.742,2.742Zm3.317,51.3a3.361,3.361,0,1,1-.044,0Zm0,6.059a2.742,2.742,0,1,1,2.579-1.29,2.742,2.742,0,0,1-2.579,1.29Zm30.959-68.088a2.5,2.5,0,0,1,0,.553,2.742,2.742,0,1,1-2.742-2.742,1.683,1.683,0,0,1,.464,0,9.943,9.943,0,0,0-1-.575,3.328,3.328,0,1,0,.531,6.634,3.273,3.273,0,0,0,3.251-2.919h0c-.243-.354-.42-.663-.619-.951ZM436.155,301.19a1.841,1.841,0,1,1-.111.044Zm0,6.059a133.21,133.21,0,1,1-.111.044Zm-30.34-27.576a3.295,3.295,0,1,0,3.295,3.295,3.295,3.295,0,0,0-3.295-3.295Zm0,6.015a2.742,2.742,0,0,1-2.742-2.72,2.786,2.786,0,0,1,2.742-2.742,2.742,2.742,0,0,1,2.72,2.742,2.7,2.7,0,0,1-2.72,2.72Zm-1.437,27.6a3.3,3.3,0,0,0-3.295,3.295,3.229,3.229,0,0,0,1.946,2.985h2.72a3.229,3.229,0,0,0,1.924-2.985,3.3,3.3,0,0,0-3.3-3.3Zm0,6.037a2.742,2.742,0,1,1,2.72-2.742,2.742,2.742,0,0,1-2.72,2.742Zm37.129-79.432a3.295,3.295,0,1,0,2.338.973A3.317,3.317,0,0,0,441.506,239.891Zm0,6.059a2.742,2.742,0,1,1,2.72-2.742,2.742,2.742,0,0,1-2.72,2.742Zm-16.917-28.084a3.317,3.317,0,1,0,3.295,3.317,3.317,3.317,0,0,0-3.295-3.317Zm0,6.037a2.742,2.742,0,1,1,2.72-2.72,2.742,2.742,0,0,1-2.72,2.72Zm-44.227,34.475a3.436,3.436,0,1,1-.066,0Zm0,6.015a2.742,2.742,0,1,1,2.579-1.289,2.742,2.742,0,0,1-2.579,1.289ZM382,197.72a3.457,3.457,0,1,1-.066,0Zm0,6.037a2.922,2.922,0,1,0-.066,0Zm-22.622,72.577a3.317,3.317,0,1,0,3.295,3.3,3.317,3.317,0,0,0-3.295-3.3Zm0,6.037a2.742,2.742,0,1,1,2.742-2.742A2.742,2.742,0,0,1,359.376,282.372Zm52.608-31.888a3.367,3.367,0,1,1-.111,0Zm0,6.037a2.864,2.864,0,1,0-.111,0Zm1.636-72.179a3.323,3.323,0,1,1-.111,0Zm0,6.059a2.908,2.908,0,1,0-.111,0Z" transform="translate(-303.692 -76.181)" opacity="0.2"/>
        <path id="Path_50889" data-name="Path 50889" d="M388.885,193.429c-4.423.663-17.337-7.386-22.246-16.1-.332-.6,1.88-24.635,1.835-29.455,0-.973,30.252,6.988,30.252,6.988a76.288,76.288,0,0,0-2.7,18.509,11.064,11.064,0,0,0,.221,1.968,1.349,1.349,0,0,1,0,.332C396.956,179.409,395.342,192.478,388.885,193.429Z" transform="translate(-274.202 -89.89)" fill="#ad6359"/>
        <path id="Path_50890" data-name="Path 50890" d="M368.33,147.89c1.216,7.3,6.1,27.664,22.8,27.863a18.956,18.956,0,0,0,3.074-.221,1.31,1.31,0,0,0,0-.31,13.681,13.681,0,0,1-.221-1.99,76.539,76.539,0,0,1,2.7-18.509S375.03,149.062,368.33,147.89Z" transform="translate(-272.112 -89.772)" fill="#263238"/>
        <path id="Path_50891" data-name="Path 50891" d="M366.709,140.15c-3.56,10.592,1.216,41.64,8.624,48.65,10.769,10.3,28.748,11.764,37.593-1.26,8.58-12.627,1.636-53.073-6.634-59.464C394.019,118.5,371.972,124.383,366.709,140.15Z" transform="translate(-275.533 -119.383)" fill="#ad6359"/>
        <path id="Path_50892" data-name="Path 50892" d="M380.279,140s-.133.133-.133.221c.376,2.079.464,4.423-1.327,5.506h0C381.12,145.152,380.987,141.9,380.279,140Z" transform="translate(-259.404 -99.33)" fill="#263238"/>
        <path id="Path_50893" data-name="Path 50893" d="M379.713,139.135c-3.405.243-2.654,7.032.487,6.811S382.566,138.847,379.713,139.135Z" transform="translate(-261.028 -100.389)" fill="#263238"/>
        <path id="Path_50894" data-name="Path 50894" d="M384.733,139.35a.173.173,0,0,1,.177.177c.177,2.1.708,4.423,2.7,4.976v.133C385.352,144.569,384.556,141.384,384.733,139.35Z" transform="translate(-252.27 -100.118)" fill="#263238"/>
        <path id="Path_50895" data-name="Path 50895" d="M386.381,138.293c3.361-.641,4.423,6.126,1.26,6.634S383.573,138.8,386.381,138.293Z" transform="translate(-252.282 -101.449)" fill="#263238"/>
        <path id="Path_50896" data-name="Path 50896" d="M378.132,141.184a24.082,24.082,0,0,0,2.521-1.216A4.423,4.423,0,0,0,383,138.243a1.438,1.438,0,0,0-.42-1.725,3.6,3.6,0,0,0-3.627,0,5.308,5.308,0,0,0-2.764,2.609,1.548,1.548,0,0,0,1.946,2.057Z" transform="translate(-262.741 -104.141)" fill="#263238"/>
        <path id="Path_50897" data-name="Path 50897" d="M389.584,138.259a24.14,24.14,0,0,1-2.786-.4,4.621,4.621,0,0,1-2.742-.951,1.459,1.459,0,0,1-.111-1.769,3.649,3.649,0,0,1,3.472-1.062,5.263,5.263,0,0,1,3.406,1.659,1.526,1.526,0,0,1-1.238,2.521Z" transform="translate(-253.495 -106.612)" fill="#263238"/>
        <path id="Path_50898" data-name="Path 50898" d="M379.393,148.73c.553.442,1.128,1.061,1.9,1.061a5.661,5.661,0,0,0,2.211-.8h.111a2.9,2.9,0,0,1-2.565,1.437,2.211,2.211,0,0,1-1.858-1.681C379.15,148.73,379.3,148.686,379.393,148.73Z" transform="translate(-258.961 -88.777)" fill="#263238"/>
        <path id="Path_50899" data-name="Path 50899" d="M380.05,158.8a7.209,7.209,0,0,0,5.13,2.654,8.516,8.516,0,0,0,2.587-.155l.487-.111.442-.133a.509.509,0,0,0,.376-.509h0a.64.64,0,0,0,0-.2h0v-.2c-.133-1.614-.553-4.069-.553-4.069.619.243,3.781,1.26,3.649.42a108.951,108.951,0,0,0-5.152-21.362.2.2,0,0,0-.376,0c.862,6.634,2.919,13.268,3.914,19.9a13.273,13.273,0,0,0-3.494-.641c-.221,0,.907,4.71.907,5.44h0a9.973,9.973,0,0,1-7.673-1.5C380.05,158.473,379.829,158.65,380.05,158.8Z" transform="translate(-258.025 -105.375)" fill="#263238"/>
        <path id="Path_50900" data-name="Path 50900" d="M386.924,147.575a8.625,8.625,0,0,1-3.118,3.007,3.715,3.715,0,0,1-2.211.4c-1.747-.243-1.946-1.791-1.791-3.14a9.448,9.448,0,0,1,.531-2.1,11.057,11.057,0,0,0,6.59,1.835Z" transform="translate(-258.265 -92.377)" fill="#263238"/>
        <path id="Path_50901" data-name="Path 50901" d="M383.8,149.435a3.716,3.716,0,0,1-2.211.4c-1.747-.243-1.946-1.791-1.791-3.14a4,4,0,0,1,4,2.742Z" transform="translate(-258.277 -91.229)" fill="#ff9cbd"/>
        <path id="Path_50902" data-name="Path 50902" d="M368.732,169.235c5.551-1.769,7.784-20.61,7.784-20.61s.2,7.939,1.681,7.7,7.253-11.234,7.7-19a61.344,61.344,0,0,0,14.374,6.457c7.165,1.88,14.993,1.15,14.949,0-.111-3.582-3.693-12.848-8.669-16.01a25.276,25.276,0,0,0-25.276-2.211,24.48,24.48,0,0,0-15.745,18.155C364,149.332,366.7,169.876,368.732,169.235Z" transform="translate(-276.052 -119.719)" fill="#263238"/>
        <path id="Path_50903" data-name="Path 50903" d="M375.968,146.808s-6.922-10.062-11.477-7.607.6,16.983,5.9,19.018a5.418,5.418,0,0,0,7.275-2.853Z" transform="translate(-278.888 -100.765)" fill="#ad6359"/>
        <path id="Path_50904" data-name="Path 50904" d="M364.277,140.86s-.111,0,0,.133a13.666,13.666,0,0,1,7.01,8.624,2.985,2.985,0,0,0-4.423-.862s0,.221.111.221a3.317,3.317,0,0,1,3.649,1.172,16.1,16.1,0,0,1,1.725,2.985c.177.332.8.155.663-.221h0C373.012,148.069,369.385,141.369,364.277,140.86Z" transform="translate(-277.081 -98.288)" fill="#263238"/>
        <path id="Path_50905" data-name="Path 50905" d="M400.9,124.929a43.628,43.628,0,0,0-12.494-3.251c-4.8-.442-19.9,1.26-23.4,4.423s-3.958,17.4-3.98,19.5,1.349,14.639,6.015,17.514,4.423-18.531,11.3-25.873S400.9,124.929,400.9,124.929Z" transform="translate(-280.955 -121.609)" fill="#465a65"/>
        <path id="Path_50906" data-name="Path 50906" d="M399.845,124.564s-15.634,4.976-22.578,12.317-6.634,28.748-11.322,25.873a10.018,10.018,0,0,1-4.025-6.634c.73-6.28,2.919-16.055,7.895-22.954,4.644-6.457,12.937-9.929,21.87-11.256a50.685,50.685,0,0,1,8.16,2.654Z" transform="translate(-279.877 -121.244)" opacity="0.1"/>
        <path id="Path_50907" data-name="Path 50907" d="M367.953,174.789c.2-5.727,5.462-21.163,11.234-30.119s23.462-14.706,25.961-14.639c6.081.133,8.2,1.9,9.133,1.327s-5.462-4.931-7.187-5.882-6.435-3.206-9.067-3.052-18.819,2.344-24.5,9.487-13.268,26.846-11.632,31.777c.42,1.172,2.035,1.88,2.587,3.56.752,2.211,1.3,4.754,2.034,6.28S367.931,175.276,367.953,174.789Z" transform="translate(-280.182 -120.63)" fill="#465a65"/>
        <path id="Path_50908" data-name="Path 50908" d="M374.382,134.1a29.086,29.086,0,0,1-4.047-2.764,21.6,21.6,0,0,1-3.494-3.472h-.155a15.744,15.744,0,0,0,3.206,3.936,13.269,13.269,0,0,0,4.423,2.5C374.449,134.45,374.537,134.185,374.382,134.1Z" transform="translate(-274.117 -114.036)" fill="#263238"/>
        <path id="Path_50909" data-name="Path 50909" d="M367.029,148.7a9.863,9.863,0,0,0-.685-1.15,9.7,9.7,0,0,1-.575-1.393,12.846,12.846,0,0,0-.73-2.742,10.565,10.565,0,0,0-1.415-1.857,3.826,3.826,0,0,1-1.194-2.211c0-.111-.2-.111-.2,0a9.708,9.708,0,0,0,2.079,4.423,18.555,18.555,0,0,1,.884,2.919,4.422,4.422,0,0,0,1.57,2.322C366.9,148.943,367.073,148.832,367.029,148.7Z" transform="translate(-279.501 -100.224)" fill="#263238"/>
        <path id="Path_50910" data-name="Path 50910" d="M368.258,145.5c-.575-.641-1.172-1.194-1.681-1.88a20.409,20.409,0,0,1-1.3-2.079c-.376-.73-.708-1.46-1.061-2.211s-1-1.659-1.393-2.521c0-.111-.2,0-.155,0,.42.907.663,1.88,1.039,2.786a22.447,22.447,0,0,0,1.172,2.211,14.088,14.088,0,0,0,1.415,1.99,5.928,5.928,0,0,0,1.9,1.57Z" transform="translate(-278.984 -103.258)" fill="#263238"/>
        <path id="Path_50911" data-name="Path 50911" d="M369.2,142.145a16.738,16.738,0,0,1-3.207-3.406c-.884-1.238-1.681-2.565-2.454-3.87h-.177a20.145,20.145,0,0,0,2.1,4.268,11.523,11.523,0,0,0,1.526,1.747,10.592,10.592,0,0,0,2.211,1.349S369.378,142.212,369.2,142.145Z" transform="translate(-278.135 -105.544)" fill="#263238"/>
        <path id="Path_50912" data-name="Path 50912" d="M370.15,139.708a5.55,5.55,0,0,1-1.57-1.482c-.509-.619-1.017-1.238-1.482-1.9s-.951-1.216-1.415-1.858a5.263,5.263,0,0,1-1.084-2.057h-.2a5.819,5.819,0,0,0,.73,2.211,18.267,18.267,0,0,0,1.371,2.211,19.88,19.88,0,0,0,1.659,1.924,3.781,3.781,0,0,0,1.9,1.194.133.133,0,0,0,.089-.243Z" transform="translate(-276.872 -108.524)" fill="#263238"/>
        <path id="Path_50913" data-name="Path 50913" d="M370.156,135.392c-.553-.509-1.084-1.017-1.592-1.548s-1-1.106-1.46-1.681-1-1.172-1.437-1.813l-.177.111a20.524,20.524,0,0,0,1.128,2.034,22.133,22.133,0,0,0,1.438,1.791,18.292,18.292,0,0,0,1.636,1.57,6.014,6.014,0,0,0,1.9,1.238s.2-.111.133-.2a10.108,10.108,0,0,0-1.57-1.5Z" transform="translate(-275.552 -111.02)" fill="#263238"/>
        <path id="Path_50914" data-name="Path 50914" d="M376.705,132.748c-.6-.686-1.172-1.349-1.813-1.968a23.033,23.033,0,0,0-2.1-1.791,24.32,24.32,0,0,0-4.423-2.808s-.2,0,0,.133c2.764,2.211,5.639,4.423,8.4,6.634Z" transform="translate(-272.172 -116.071)" fill="#263238"/>
        <path id="Path_50915" data-name="Path 50915" d="M377.463,129.252a12.666,12.666,0,0,0-2.012-1.769,24.544,24.544,0,0,0-4.976-2.543c-.111,0-.2,0,0,.155,1.5.929,3.03,1.835,4.423,2.853a24.94,24.94,0,0,1,2.211,1.592c.663.575,1.172,1.283,1.813,1.9h.111a6.324,6.324,0,0,0-1.57-2.189Z" transform="translate(-269.657 -117.573)" fill="#263238"/>
        <path id="Path_50916" data-name="Path 50916" d="M379.083,127.98a12.755,12.755,0,0,0-1.858-1.769A14.4,14.4,0,0,0,372.98,124c-.111,0-.177.133,0,.177A29.2,29.2,0,0,1,377,126.9l1.835,1.57c.619.531,1.15,1.216,1.791,1.681h0A13.83,13.83,0,0,0,379.083,127.98Z" transform="translate(-266.611 -118.712)" fill="#263238"/>
        <path id="Path_50917" data-name="Path 50917" d="M379.379,125.756c-.619-.464-1.26-.885-1.9-1.327a6.634,6.634,0,0,0-2.012-1.039c-.111,0-.155,0,0,.177,1.194.885,2.388,1.791,3.56,2.72a18.9,18.9,0,0,1,2.764,3.03h.11a7.3,7.3,0,0,0-2.521-3.56Z" transform="translate(-263.59 -119.451)" fill="#263238"/>
        <path id="Path_50918" data-name="Path 50918" d="M381.27,125.211A11.986,11.986,0,0,0,377.378,123s-.155.133,0,.177a14.087,14.087,0,0,1,3.56,2.477,19.9,19.9,0,0,1,2.831,3.273h.133a9.862,9.862,0,0,0-2.631-3.715Z" transform="translate(-261.235 -119.923)" fill="#263238"/>
        <path id="Path_50919" data-name="Path 50919" d="M384.492,127.592a6.62,6.62,0,0,0-.509-.84,9.5,9.5,0,0,0-1.327-1.5,20.67,20.67,0,0,0-3.317-2.388v.177a17.519,17.519,0,0,1,3.118,2.455,15.67,15.67,0,0,1,1.261,1.459,8.276,8.276,0,0,1,.531.8,7.019,7.019,0,0,0,.509.8h.155a2.7,2.7,0,0,0-.42-.951Z" transform="translate(-258.775 -120.093)" fill="#263238"/>
        <path id="Path_50920" data-name="Path 50920" d="M385.369,127.067a14.97,14.97,0,0,0-1.084-1.238,11.65,11.65,0,0,0-1.238-1.106c-.442-.354-.907-.685-1.327-1.039s-.221,0-.111.133a8.847,8.847,0,0,1,1.238,1.172l1.128,1.15,1.106,1.15a9.442,9.442,0,0,0,1.106,1.194h0a6.807,6.807,0,0,0-.818-1.415Z" transform="translate(-256.201 -119.28)" fill="#263238"/>
        <path id="Path_50921" data-name="Path 50921" d="M380.663,171.991c-17.05,28.925-47.257,100.794-35.669,115.809,15.634,20.345,65.678,45.6,81.821,48.075,6.966,1.084,24.325-51.635,17.337-54.753-8.226-3.737-54-24.17-54-26.912s6.236-36.045,7.651-64.572C399.371,156.578,390.15,156.113,380.663,171.991Z" transform="translate(-303.507 -72.897)" fill="#ad6359"/>
        <path id="Path_50926" data-name="Path 50926" d="M393.06,226.194H344.41s24.767-47.478,36-59.4c12.627-13.4,16.718-4,17.381,13.489S393.06,226.194,393.06,226.194Z" transform="translate(-301.088 -74.558)" fill="#00a0ad"/>
        <path id="Path_50927" data-name="Path 50927" d="M393.06,226.194H344.41s24.767-47.478,36-59.4c12.627-13.4,16.718-4,17.381,13.489S393.06,226.194,393.06,226.194Z" transform="translate(-301.088 -74.558)" opacity="0.2"/>
        <g id="freepik--piggy-bank--inject-82" transform="translate(199.891 192.78)">
          <path id="Path_51034" data-name="Path 51034" d="M141.846,317.3c-.23-1.186-.37-2.246-.488-3.377a30.653,30.653,0,0,1-.167-3.4,19.38,19.38,0,0,1,.307-3.53,8.559,8.559,0,0,1,1.577-3.725,4.96,4.96,0,0,1,1.9-1.423,4.735,4.735,0,0,1,1.151-.321,5.461,5.461,0,0,1,1.116-.049A6.711,6.711,0,0,1,151,302.98a10.345,10.345,0,0,1,2.407,2.756,9.4,9.4,0,0,1,1.319,3.4,4.081,4.081,0,0,1-.167,2.163,2.365,2.365,0,0,1-.872,1.1,2.539,2.539,0,0,1-1.263.419,2.4,2.4,0,0,1-1.325-.321,2.791,2.791,0,0,1-.858-.851,4.945,4.945,0,0,1-.7-1.807,10.019,10.019,0,0,1,0-3.446,8.141,8.141,0,0,1,1.221-3.2,3.844,3.844,0,0,1,1.326-1.242,2.791,2.791,0,0,1,1.814-.3,5.483,5.483,0,0,1,2.881,1.688,18.249,18.249,0,0,1,3.4,5.421,18.1,18.1,0,0,0-3.753-5.044,4.736,4.736,0,0,0-2.623-1.291,2.24,2.24,0,0,0-2.093,1.347,7.011,7.011,0,0,0-.76,2.791,8.616,8.616,0,0,0,.244,2.888,3.236,3.236,0,0,0,.53,1.123.767.767,0,0,0,.293.23.286.286,0,0,0,.2,0,.307.307,0,0,0,.223-.112.565.565,0,0,0,.063-.161,2.273,2.273,0,0,0-.07-.977,7.994,7.994,0,0,0-3.167-4.242,3.67,3.67,0,0,0-2.093-.7,2.6,2.6,0,0,0-.474.07,1.581,1.581,0,0,0-.363.147,1.513,1.513,0,0,0-.53.523,5.2,5.2,0,0,0-.635,2.184,15.837,15.837,0,0,0,0,2.791,28.9,28.9,0,0,0,.4,2.944,24.126,24.126,0,0,0,.7,2.881Z" transform="translate(-34.323 -279.074)" fill="#e27e2b"/>
          <path id="Path_51035" data-name="Path 51035" d="M141.846,317.3c-.23-1.186-.37-2.246-.488-3.377a30.653,30.653,0,0,1-.167-3.4,19.38,19.38,0,0,1,.307-3.53,8.559,8.559,0,0,1,1.577-3.725,4.96,4.96,0,0,1,1.9-1.423,4.735,4.735,0,0,1,1.151-.321,5.461,5.461,0,0,1,1.116-.049A6.711,6.711,0,0,1,151,302.98a10.345,10.345,0,0,1,2.407,2.756,9.4,9.4,0,0,1,1.319,3.4,4.081,4.081,0,0,1-.167,2.163,2.365,2.365,0,0,1-.872,1.1,2.539,2.539,0,0,1-1.263.419,2.4,2.4,0,0,1-1.325-.321,2.791,2.791,0,0,1-.858-.851,4.945,4.945,0,0,1-.7-1.807,10.019,10.019,0,0,1,0-3.446,8.141,8.141,0,0,1,1.221-3.2,3.844,3.844,0,0,1,1.326-1.242,2.791,2.791,0,0,1,1.814-.3,5.483,5.483,0,0,1,2.881,1.688,18.249,18.249,0,0,1,3.4,5.421,18.1,18.1,0,0,0-3.753-5.044,4.736,4.736,0,0,0-2.623-1.291,2.24,2.24,0,0,0-2.093,1.347,7.011,7.011,0,0,0-.76,2.791,8.616,8.616,0,0,0,.244,2.888,3.236,3.236,0,0,0,.53,1.123.767.767,0,0,0,.293.23.286.286,0,0,0,.2,0,.307.307,0,0,0,.223-.112.565.565,0,0,0,.063-.161,2.273,2.273,0,0,0-.07-.977,7.994,7.994,0,0,0-3.167-4.242,3.67,3.67,0,0,0-2.093-.7,2.6,2.6,0,0,0-.474.07,1.581,1.581,0,0,0-.363.147,1.513,1.513,0,0,0-.53.523,5.2,5.2,0,0,0-.635,2.184,15.837,15.837,0,0,0,0,2.791,28.9,28.9,0,0,0,.4,2.944,24.126,24.126,0,0,0,.7,2.881Z" transform="translate(-34.323 -279.074)" opacity="0.1"/>
          <path id="Path_51036" data-name="Path 51036" d="M201.2,398.46c-3.076,4.346-2.449,17.622-4.311,19.485s-20.929,1.66-22.24.565-.7-5.783-2.093-6.551C171.966,411.652,201.2,398.46,201.2,398.46Z" transform="translate(-97.216 -308.405)" fill="#e27e2b"/>
          <path id="Path_51037" data-name="Path 51037" d="M201.2,398.46c-3.076,4.346-2.449,17.622-4.311,19.485s-20.929,1.66-22.24.565-.7-5.783-2.093-6.551C171.966,411.652,201.2,398.46,201.2,398.46Z" transform="translate(-97.216 -308.405)" opacity="0.1"/>
          <path id="Path_51038" data-name="Path 51038" d="M250.214,398.77c3.844,5.581,1.765,17.441,3.628,19.268s20.929,1.66,22.24.565.7-6.034,1.458-6.976C277.937,411.132,250.214,398.77,250.214,398.77Z" transform="translate(-227.737 -308.499)" fill="#e27e2b"/>
          <path id="Path_51039" data-name="Path 51039" d="M250.214,398.77c3.844,5.581,1.765,17.441,3.628,19.268s20.929,1.66,22.24.565.7-6.034,1.458-6.976C277.937,411.132,250.214,398.77,250.214,398.77Z" transform="translate(-227.737 -308.499)" opacity="0.1"/>
          <path id="Path_51040" data-name="Path 51040" d="M172.558,411.968a2.093,2.093,0,0,1,.823,1.4,90.815,90.815,0,0,0,25.561-6.844c.446-3.237,1.081-6.321,2.288-8.03C201.23,398.476,171.993,411.668,172.558,411.968Z" transform="translate(-97.243 -308.414)" opacity="0.3"/>
          <path id="Path_51041" data-name="Path 51041" d="M250.224,398.77c1.43,2.093,2.044,5.016,2.344,7.995a86.757,86.757,0,0,0,24.556,6.788,4.289,4.289,0,0,1,.419-1.925C277.954,411.132,250.224,398.77,250.224,398.77Z" transform="translate(-227.747 -308.499)" opacity="0.3"/>
          <path id="Path_51042" data-name="Path 51042" d="M208.864,283.44c38.369,0,53.1,30.061,53.1,47.655,0,17.357-11.162,46.853-53.1,46.853S153.02,352.959,153.02,330.7,170.07,283.44,208.864,283.44Z" transform="translate(-144.356 -273.626)" fill="#e27e2b"/>
          <path id="Path_51043" data-name="Path 51043" d="M208.864,283.44c38.369,0,53.1,30.061,53.1,47.655,0,17.357-11.162,46.853-53.1,46.853S153.02,352.959,153.02,330.7,170.07,283.44,208.864,283.44Z" transform="translate(-144.356 -273.626)" opacity="0.1"/>
          <path id="Path_51044" data-name="Path 51044" d="M283.3,281.363s-17.538-13.45-36.534-11.86c-6.537.551,4.318,14.727,4.521,25.812Z" transform="translate(-229.621 -269.373)" fill="#e27e2b"/>
          <path id="Path_51045" data-name="Path 51045" d="M283.3,281.363s-17.538-13.45-36.534-11.86c-6.537.551,4.318,14.727,4.521,25.812Z" transform="translate(-229.621 -269.373)" opacity="0.1"/>
          <path id="Path_51046" data-name="Path 51046" d="M292.855,292c.112.7-5.944,3.293-6.572,2.9s-1.256-9.118-6.195-18.41C279.363,275.115,291.683,284.477,292.855,292Z" transform="translate(-263.869 -271.482)" opacity="0.3"/>
          <path id="Path_51047" data-name="Path 51047" d="M281.833,343.592a3.118,3.118,0,0,1-2.518-2.2,4.646,4.646,0,0,0,2.044,3.488c.084.056.042.216-.07.181-3.356-1.263-2.993-6-1.814-9.02.063-.167.126-.335.2-.5.753-1.751,2.093-3.021,3.711-2.791C288.809,333.54,286.856,344.318,281.833,343.592Z" transform="translate(-256.656 -288.531)" opacity="0.3"/>
          <path id="Path_51048" data-name="Path 51048" d="M311.326,326.3c-.837,2.518-8.455.474-10.374,2.093-3.021,2.511-2.184,33.619.579,36.123,1.549,1.4,10.185-.077,12.613,1.632S311.326,326.3,311.326,326.3Z" transform="translate(-299.041 -286.586)" fill="#e27e2b"/>
          <path id="Path_51049" data-name="Path 51049" d="M311.326,326.3c-.837,2.518-8.455.474-10.374,2.093-3.021,2.511-2.184,33.619.579,36.123,1.549,1.4,10.185-.077,12.613,1.632S311.326,326.3,311.326,326.3Z" transform="translate(-299.041 -286.586)" opacity="0.1"/>
          <path id="Path_51050" data-name="Path 51050" d="M315.49,348.122c0,7.576.635,13.722,1.4,13.722s1.4-6.146,1.4-13.722-.628-13.722-1.4-13.722S315.49,340.546,315.49,348.122Z" transform="translate(-314.011 -289.035)" opacity="0.3"/>
          <path id="Path_51051" data-name="Path 51051" d="M232.044,294.792c-.126-.042-13.073-4.249-25.114-.956l-1.2-4.388c13.408-3.67,27.207.837,27.758,1.026l-1.437,4.318.7-2.156Z" transform="translate(-152.648 -275.009)" opacity="0.3"/>
          <path id="Path_51052" data-name="Path 51052" d="M160.856,371.63c17.294-19.875,6.711-42.953,6.23-43.951a2.846,2.846,0,0,1,5.107-2.5,48.137,48.137,0,0,1,4.081,16.569c.83,12.641-3.349,24.25-13.255,32.154C160.026,376.283,158.609,374.19,160.856,371.63Z" transform="translate(-63.462 -285.796)" fill="#fff"/>
          <path id="Path_51053" data-name="Path 51053" d="M177.435,315.43a3.1,3.1,0,1,1-3.1-3.09A3.1,3.1,0,0,1,177.435,315.43Z" transform="translate(-72.534 -282.365)" fill="#fff"/>
        </g>
        <path id="Path_50928" data-name="Path 50928" d="M388.031,186.625c-1.681-.243-16.873-.354-20.168-.31s-16.784.133-20.19.464a.122.122,0,0,0,0,.243c3.383.31,16.983.265,20.345.288s18.376-.221,20.035-.464C388.186,186.824,388.142,186.625,388.031,186.625Z" transform="translate(-297.275 -43.237)" fill="#263238"/>
        <path id="Path_50922" data-name="Path 50922" d="M387.053,219.282s21.163-3.538,35.117-5.219c7.784-.929,21.273-1.327,27.288.6,9.022,2.9,44.891,20.743,40.755,29.522C486.476,252.143,457.6,232.9,457.6,232.9s30.849,16.851,24.59,25.586-36.045-17.315-36.045-17.315,31.313,18,23.418,26.006c-5.971,6.059-34.232-16.054-34.232-16.054s26.824,15.679,20.942,22.114c-6.479,7.165-33.834-11.61-33.834-11.61-17.691,13.976-31.844,13.4-41.861,11.787C378.185,273.063,387.053,219.282,387.053,219.282Z" transform="translate(-257.775 -10.548)" fill="#ad6359"/>
        <path id="Path_50923" data-name="Path 50923" d="M410.569,219.226c3.715,1.835,7.452,3.693,11.057,5.86a113.1,113.1,0,0,1,10.283,6.944,70.764,70.764,0,0,1,11.919,10.9c-6.833-6.767-19.305-14.728-22.821-16.917s-6.922-4.423-10.416-6.634C410.414,219.292,410.48,219.181,410.569,219.226Z" transform="translate(-221.053 -3.371)" fill="#263238"/>
        <path id="Path_50924" data-name="Path 50924" d="M406.937,224.906c4.622,2.565,9.288,4.931,13.8,7.7s8.492,5.772,12.782,8.846c.332.243,0,.332-.265,0-4.423-2.875-8.691-5.219-13.113-8.049s-8.845-5.816-13.268-8.47C406.782,224.972,406.87,224.862,406.937,224.906Z" transform="translate(-225.47 3.509)" fill="#263238"/>
        <path id="Path_50925" data-name="Path 50925" d="M402.957,229.216a119.131,119.131,0,0,1,20.212,13.4c.31.243,0,.332-.354,0-6.634-4.578-11.787-8.226-19.9-13.268C402.714,229.393,402.8,229.15,402.957,229.216Z" transform="translate(-230.358 8.73)" fill="#263238"/>
      </g>
      <g id="freepik--speech-bubble--inject-156" transform="translate(302.864 221.117)">
        <path id="Path_48718" data-name="Path 48718" d="M136.157,85.186A35.264,35.264,0,0,1,77.214,107.5l-17.653,2.59,8.827-15.26a35.293,35.293,0,1,1,67.77-9.643Z" transform="translate(-58.364 -45.941)" fill="#fff"/>
        <path id="Path_48719" data-name="Path 48719" d="M126.767,56.117a35.6,35.6,0,0,0-55.635,7.658,35.659,35.659,0,0,0-2.182,31.45v-.605l-8.77,15.288-.648,1.126,1.267-.2,17.653-2.759-.422-.127a35.687,35.687,0,0,0,17.456,8.616,31.758,31.758,0,0,0,4.885.507,33.49,33.49,0,0,0,4.9-.1,34.434,34.434,0,0,0,9.5-2.267,34.813,34.813,0,0,0,8.447-4.73,39.624,39.624,0,0,0,3.829-3.153,38.012,38.012,0,0,0,3.2-3.688,35.476,35.476,0,0,0-3.435-47.02Zm3.336,46.949a31.97,31.97,0,0,1-6.94,6.743,32.49,32.49,0,0,1-8.447,4.589,35.039,35.039,0,0,1-9.432,2.084,34.546,34.546,0,0,1-4.829,0,30.435,30.435,0,0,1-4.786-.577,34.912,34.912,0,0,1-16.893-8.7l-.169-.169h-.239L60.7,109.514l.619.929,8.827-15.176.169-.3-.127-.31A34.843,34.843,0,0,1,72.146,64.3,36.18,36.18,0,0,1,82.7,52.794a34.363,34.363,0,0,1,14.57-5.758,35.306,35.306,0,0,1,15.7,1.211A34.885,34.885,0,0,1,130.1,103.066Z" transform="translate(-59.532 -46.013)" fill="#263238"/>
        <ellipse id="Ellipse_1023" data-name="Ellipse 1023" cx="19.399" cy="19.399" rx="19.399" ry="19.399" transform="translate(23.974 16.214)" fill="#e27e2b"/>
        <rect id="Rectangle_10441" data-name="Rectangle 10441" width="3.604" height="20.103" transform="translate(41.571 25.561)" fill="#fff"/>
        <rect id="Rectangle_10442" data-name="Rectangle 10442" width="3.604" height="20.103" transform="translate(33.322 37.415) rotate(-90)" fill="#fff"/>
      </g>
    </g>
  </g>
</svg>
