<svg id="alternate_investing_funds" xmlns="http://www.w3.org/2000/svg" width="96" height="96" viewBox="0 0 96 96">
  <g id="ICONS">
    <g id="alternate_investments">
      <rect id="Rectangle_8282" data-name="Rectangle 8282" width="96" height="96" fill="none"/>
      <path id="Path_28184" data-name="Path 28184" d="M39.86,84.5h-28a10,10,0,0,1-10-10v-64a10,10,0,0,1,10-10h44a10,10,0,0,1,10,10v24a2,2,0,0,1-4,0v-24a6,6,0,0,0-6-6h-44a6,6,0,0,0-6,6v64a6,6,0,0,0,6,6h28a2,2,0,0,1,0,4Z" fill="#e27e28"/>
      <path id="Path_28185" data-name="Path 28185" d="M15.86,52.5a2,2,0,0,1-1.41-3.41l10-10a2,2,0,0,1,2.3-.38l6.72,3.36,13-13a2,2,0,0,1,2.82,2.83l-14,14a2,2,0,0,1-2.3.37l-6.72-3.35-9,9a2,2,0,0,1-1.41.58Z" fill="#e27e28"/>
      <path id="Path_28186" data-name="Path 28186" d="M47.86,44.5a2,2,0,0,1-2-2v-10h-10a2,2,0,0,1,0-4h12a2,2,0,0,1,2,2v12A2,2,0,0,1,47.86,44.5Z" fill="#e27e28"/>
      <path id="Path_28187" data-name="Path 28187" d="M72.14,69.5a12,12,0,1,1,12-12A12,12,0,0,1,72.14,69.5Zm0-20a8,8,0,1,0,8,8A8,8,0,0,0,72.14,49.5Z" fill="#e27e28"/>
      <path id="Path_28188" data-name="Path 28188" d="M92.14,95.5a2,2,0,0,1-2-2v-8a6,6,0,0,0-6-6h-24a6,6,0,0,0-6,6v8a2,2,0,0,1-4,0v-8a10,10,0,0,1,10-10h24a10,10,0,0,1,10,10v8A2,2,0,0,1,92.14,95.5Z" fill="#e27e28"/>
    </g>
  </g>
</svg>
