<svg xmlns="http://www.w3.org/2000/svg" width="96" height="96" viewBox="0 0 96 96">
  <g id="arogaya_sanjeevni" transform="translate(0 0.01)">
    <g id="ICONS" transform="translate(0 -0.01)">
      <g id="arogya_sanjeevani">
        <rect id="Rectangle_8184" data-name="Rectangle 8184" width="96" height="95.99" transform="translate(0 0.01)" fill="none"/>
        <path id="Path_26872" data-name="Path 26872" d="M14,88H2a2,2,0,0,1-2-2V50a2,2,0,0,1,2-2c13.6,0,20.79,4.58,21.09,4.78A2,2,0,0,1,23.94,55l-8,31.54A2,2,0,0,1,14,88ZM4,84h8.44l7.24-28.52A40.09,40.09,0,0,0,4,52Z" transform="translate(0 0)" fill="#e27e28"/>
        <path id="Path_26873" data-name="Path 26873" d="M52,96c-9.43,0-27.69-7.94-37.73-12.67A2.006,2.006,0,0,1,16,79.71C32.55,87.52,45.68,92,52,92c9.73,0,32.66-11.43,39.25-14.83C90.21,75.82,88.07,74,84,74c-3.69,0-8.37,1.48-12.9,2.91C66.29,78.43,61.31,80,57,80c-8.26,0-19.23-4-19.69-4.12a2,2,0,0,1,1.37-3.76C38.79,72.16,49.45,76,57,76c3.69,0,8.37-1.48,12.9-2.91C74.71,71.57,79.69,70,84,70c9.33,0,11.79,7.07,11.9,7.37a2,2,0,0,1-1,2.4C93.7,80.43,64.36,96,52,96Z" transform="translate(0 0)" fill="#e27e28"/>
        <path id="Path_26874" data-name="Path 26874" d="M66,78.36a2,2,0,0,1-2-2v-2a5.94,5.94,0,0,0-4.58-5.81L20.81,59.22a2,2,0,0,1,.94-3.88l38.6,9.32A9.89,9.89,0,0,1,68,74.36v2A2,2,0,0,1,66,78.36Z" transform="translate(0 0.003)" fill="#e27e28"/>
        <path id="Path_26875" data-name="Path 26875" d="M70,48a2,2,0,0,1-1.2-.4C67.8,46.85,44,28.92,44,14.52a14.52,14.52,0,0,1,26-8.9,14.52,14.52,0,0,1,26,8.9c0,14.4-23.79,32.33-24.8,33.08A2,2,0,0,1,70,48ZM58.52,4A10.53,10.53,0,0,0,48,14.52c0,9.72,14.89,23.4,22,29,7.1-5.57,22-19.25,22-29a10.52,10.52,0,0,0-20.16-4.21,2.09,2.09,0,0,1-3.67,0A10.51,10.51,0,0,0,58.52,4Z" transform="translate(0 0.01)" fill="#e27e28"/>
      </g>
    </g>
  </g>
</svg>
