<svg id="Group_16227" data-name="Group 16227" xmlns="http://www.w3.org/2000/svg" width="11.077" height="20" viewBox="0 0 11.077 20">
  <g id="expand_more_black_24dp">
    <path id="Path_26803" data-name="Path 26803" d="M11.077,0H0V11.077H11.077Z" transform="translate(0 0)" fill="none" opacity="0.87"/>
    <path id="Path_26804" data-name="Path 26804" d="M6.551,4.356,3.865,1.67,1.179,4.356A.69.69,0,1,1,.2,3.38L3.38.2a.689.689,0,0,1,.976,0L7.534,3.38a.689.689,0,0,1,0,.976A.7.7,0,0,1,6.551,4.356Z" transform="translate(1.674 3.058)" fill="#00a3b1"/>
  </g>
  <g id="expand_more_black_24dp-2" data-name="expand_more_black_24dp" transform="translate(0 8.923)">
    <path id="Path_26805" data-name="Path 26805" d="M0,11.077H11.077V0H0Z" transform="translate(0 0)" fill="none" opacity="0.87"/>
    <path id="Path_26806" data-name="Path 26806" d="M1.186.2,3.872,2.889,6.558.2a.69.69,0,1,1,.976.976L4.356,4.356a.689.689,0,0,1-.976,0L.2,1.179A.689.689,0,0,1,.2.2.7.7,0,0,1,1.186.2Z" transform="translate(1.667 3.46)" fill="#00a3b1"/>
  </g>
</svg>
