<svg xmlns="http://www.w3.org/2000/svg" width="20" height="20" viewBox="0 0 20 20">
  <g id="east_black_24dp_1_" data-name="east_black_24dp (1)" transform="translate(0.221 0.221)">
    <rect id="Rectangle_3510" data-name="Rectangle 3510" width="20" height="20" transform="translate(-0.22 -0.22)" fill="none"/>
    <path id="Path_12460" data-name="Path 12460" d="M11.5,5.64h0a.747.747,0,0,0,0,1.071l3,2.947H2.773a.769.769,0,0,0-.773.76H2a.769.769,0,0,0,.773.76H14.513l-3,2.947a.747.747,0,0,0,0,1.071h0a.78.78,0,0,0,1.09,0l4.323-4.246a.747.747,0,0,0,0-1.071L12.595,5.64A.78.78,0,0,0,11.5,5.64Z" fill="#00a3b1"/>
  </g>
</svg>
