<svg id="Layer_2" data-name="Layer 2" xmlns="http://www.w3.org/2000/svg" width="96" height="96" viewBox="0 0 96 96">
  <g id="ICONS">
    <g id="bmi_calculator">
      <rect id="Rectangle_8159" data-name="Rectangle 8159" width="96" height="96" fill="none"/>
      <path id="Path_26838" data-name="Path 26838" d="M58.4,76.42a6,6,0,0,1,1.14,3.8c0,2.72-.77,4.61-2.32,5.69a9.57,9.57,0,0,1-5.55,1.6H43.14a2,2,0,0,1-2.08-2.08V65.64a2.034,2.034,0,0,1,2.08-2.09h8.63q6.51,0,6.51,6.09a5,5,0,0,1-.74,2.72,5.11,5.11,0,0,1-2.1,1.87,7,7,0,0,1,2.96,2.19Zm-5.28-8.13a2.63,2.63,0,0,0-2-.7H45.51v5.34h5.75a2.67,2.67,0,0,0,1.8-.68,2.38,2.38,0,0,0,.77-1.85,2.86,2.86,0,0,0-.71-2.11Zm1.07,14.43a3.28,3.28,0,0,0,.9-2.5c0-1.34-.35-2.22-1.06-2.63a5.11,5.11,0,0,0-2.6-.62H45.51v6.61h6.16a3.55,3.55,0,0,0,2.52-.86Z" fill="#e27e28"/>
      <path id="Path_26839" data-name="Path 26839" d="M85.75,64.11a2,2,0,0,1,.64,1.49V85.43a2,2,0,0,1-2.13,2.08,2.1,2.1,0,0,1-1.55-.58,2,2,0,0,1-.6-1.5V71.63l-5.65,8.63a2.93,2.93,0,0,1-.79.66,1.56,1.56,0,0,1-.92.23,1.52,1.52,0,0,1-.9-.23,3,3,0,0,1-.78-.66l-5.65-8.94V85.43a2.07,2.07,0,0,1-.55,1.5,1.86,1.86,0,0,1-1.44.58,1.79,1.79,0,0,1-1.4-.59,2.11,2.11,0,0,1-.55-1.49V65.6a2,2,0,0,1,.63-1.47,2.13,2.13,0,0,1,1.53-.62,2.27,2.27,0,0,1,1,.26,1.88,1.88,0,0,1,.79.67L74.9,75.91l7.66-11.47a2.08,2.08,0,0,1,.74-.67,1.93,1.93,0,0,1,.94-.26,2.09,2.09,0,0,1,1.51.6Z" fill="#e27e28"/>
      <path id="Path_26840" data-name="Path 26840" d="M95.15,86.92a2.15,2.15,0,0,1-1.51.59,2.06,2.06,0,0,1-1.52-.59,2,2,0,0,1-.6-1.49V65.64a2,2,0,0,1,.62-1.49,2.15,2.15,0,0,1,1.57-.6,2.083,2.083,0,0,1,2.09,2.09V85.43a2,2,0,0,1-.65,1.49Z" fill="#e27e28"/>
      <path id="Path_26841" data-name="Path 26841" d="M32.2,44.49a18,18,0,1,1,18-18A18,18,0,0,1,32.2,44.49Zm0-32a14,14,0,1,0,14,14,14,14,0,0,0-14-14Z" fill="#e27e28"/>
      <path id="Path_26842" data-name="Path 26842" d="M34.2,84.49H2.2a2,2,0,0,1-2-2v-16a14,14,0,0,1,14-14h40a9.7,9.7,0,0,1,6.69,2.62A2,2,0,1,1,58.15,58a5.71,5.71,0,0,0-3.95-1.53h-40a10,10,0,0,0-10,10v14h30a2,2,0,0,1,0,4Z" fill="#e27e28"/>
      <path id="Path_26843" data-name="Path 26843" d="M44.89,26.81c-4.24,0-7.39-2.72-9.21-5.27a25.28,25.28,0,0,1-18.86,4.91,2,2,0,0,1,.75-3.93A21.2,21.2,0,0,0,34.84,17a1.979,1.979,0,0,1,3.16.65c.12.26,3,6.42,8.66,4.9a2,2,0,0,1,1,3.86,10.33,10.33,0,0,1-2.83.4Z" fill="#e27e28"/>
    </g>
  </g>
</svg>
