<svg xmlns="http://www.w3.org/2000/svg" width="96" height="96" viewBox="0 0 96 96">
  <g id="bonds" transform="translate(-742 -2659.999)">
    <g id="Group_15225" data-name="Group 15225" transform="translate(742 2660.001)">
      <g id="Group_14898" data-name="Group 14898" transform="translate(15.923 2.707)">
        <path id="Path_20860" data-name="Path 20860" d="M28.365,8.273A1.273,1.273,0,0,0,27.092,7H9.273a1.273,1.273,0,0,0,0,2.546h6.364a5.1,5.1,0,0,1,5.091,5.091H9.273a1.273,1.273,0,0,0,0,2.546H20.02a5.074,5.074,0,0,1-4.383,2.546H9.273A1.274,1.274,0,0,0,8.476,22L21.2,32.178a1.286,1.286,0,0,0,.8.277,1.274,1.274,0,0,0,.8-2.268L12.9,22.273h2.734a7.626,7.626,0,0,0,7.168-5.091h4.287a1.273,1.273,0,0,0,0-2.546H23.273a7.587,7.587,0,0,0-1.986-5.091h5.8A1.273,1.273,0,0,0,28.365,8.273Z" transform="translate(15.851 3.902)" fill="#e27e28"/>
        <path id="Path_17400" data-name="Path 17400" d="M3.5,10.612A10.061,10.061,0,0,1,13.51.5H61.555a10.061,10.061,0,0,1,10.01,10.112V83.418a10.061,10.061,0,0,1-10.01,10.112H13.51A10.061,10.061,0,0,1,3.5,83.418ZM13.51,4.545A6.037,6.037,0,0,0,7.5,10.612V83.418a6.037,6.037,0,0,0,6.006,6.067H61.555a6.037,6.037,0,0,0,6.006-6.067V10.612a6.037,6.037,0,0,0-6.006-6.067Z" transform="translate(-3.5 -0.5)" fill="#e27e28"/>
        <path id="Path_17402" data-name="Path 17402" d="M7.5,13.5a2,2,0,0,1,2-2H41.533a2,2,0,1,1,0,4H9.5A2,2,0,0,1,7.5,13.5Z" transform="translate(8.516 33.013)" fill="#e27e28"/>
        <path id="Path_17403" data-name="Path 17403" d="M7.5,16a2,2,0,0,1,2-2H41.533a2,2,0,1,1,0,4H9.5A2,2,0,0,1,7.5,16Z" transform="translate(8.516 40.629)" fill="#e27e28"/>
        <path id="Path_17404" data-name="Path 17404" d="M7.5,19a2,2,0,0,1,2-2H41.533a2,2,0,1,1,0,4H9.5A2,2,0,0,1,7.5,19Z" transform="translate(8.516 49.769)" fill="#e27e28"/>
        <path id="Path_17405" data-name="Path 17405" d="M7.5,22a2,2,0,0,1,2-2H25.517a2,2,0,0,1,0,4H9.5A2,2,0,0,1,7.5,22Z" transform="translate(8.516 59.016)" fill="#e27e28"/>
      </g>
      <g id="Rectangle_6960" data-name="Rectangle 6960" transform="translate(0 -0.002)" fill="#e27e28" stroke="#707070" stroke-width="1" opacity="0">
        <rect width="96" height="96" stroke="none"/>
        <rect x="0.5" y="0.5" width="95" height="95" fill="none"/>
      </g>
    </g>
  </g>
</svg>
