<svg id="business_insurance" xmlns="http://www.w3.org/2000/svg" width="96" height="96" viewBox="0 0 96 96">
  <g id="ICONS">
    <g id="business_loan">
      <rect id="Rectangle_8185" data-name="Rectangle 8185" width="96" height="96" fill="none"/>
      <g id="Group_15733" data-name="Group 15733">
        <g id="Group_15731" data-name="Group 15731">
          <path id="Path_23662" data-name="Path 23662" d="M40.89,72h-28a10,10,0,0,1-10-10V22a10,10,0,0,1,10-10h68a10,10,0,0,1,10,10V42a2,2,0,0,1-4,0V22a6,6,0,0,0-6-6h-68a6,6,0,0,0-6,6V62a6,6,0,0,0,6,6h28a2,2,0,0,1,0,4Z" fill="#e27e28"/>
        </g>
        <g id="Group_15732" data-name="Group 15732">
          <path id="Path_23663" data-name="Path 23663" d="M60.89,16a2,2,0,0,1-2-2V6a2,2,0,0,0-2-2h-20a2,2,0,0,0-2,2v8a2,2,0,0,1-4,0V6a6,6,0,0,1,6-6h20a6,6,0,0,1,6,6v8A2,2,0,0,1,60.89,16Z" fill="#e27e28"/>
        </g>
      </g>
      <g id="Group_15734" data-name="Group 15734">
        <path id="Path_23664" data-name="Path 23664" d="M18.89,14.66h4v56h-4Z" fill="#e27e28"/>
      </g>
      <g id="Group_15735" data-name="Group 15735">
        <path id="Path_23665" data-name="Path 23665" d="M72.89,36.66c-1.1,0-2-1.2-2-2.67V15.33c0-1.48.9-2.67,2-2.67s2,1.19,2,2.67V34C74.89,35.46,74,36.66,72.89,36.66Z" fill="#e27e28"/>
      </g>
      <g id="Group_15736" data-name="Group 15736">
        <path id="Path_23666" data-name="Path 23666" d="M32.89,40.66a2,2,0,0,1-2-2A1.93,1.93,0,0,1,31,38l4-12a2,2,0,0,1,3-1l12,8a2,2,0,0,1-.62,3.6l-16,4a1.61,1.61,0,0,1-.49.06ZM38,29.77l-2,6.06,8.08-2Z" fill="#e27e28"/>
      </g>
      <path id="Path_26876" data-name="Path 26876" d="M69.11,96a1.87,1.87,0,0,1-.77-.16c-1-.4-23.23-10-23.23-29.69V49.43a2,2,0,0,1,1.36-1.9l22-7.42a2,2,0,0,1,1.28,0l22,7.42a2,2,0,0,1,1.36,1.9V66.15c0,19.67-22.27,29.29-23.22,29.69a1.91,1.91,0,0,1-.78.16Zm-20-45.13V66.15c0,15.13,16.22,23.83,20,25.65,3.78-1.83,20-10.55,20-25.65V50.87l-20-6.76Z" fill="#e27e28"/>
      <path id="Path_26877" data-name="Path 26877" d="M67.11,76H67a2,2,0,0,1-1.45-.75l-8-10a2,2,0,1,1,3.12-2.5L67.27,71,79.69,58.59a2,2,0,1,1,2.83,2.83l-14,14A2,2,0,0,1,67.11,76Z" fill="#e27e28"/>
    </g>
  </g>
</svg>
