<svg xmlns="http://www.w3.org/2000/svg" width="50" height="50" viewBox="0 0 50 50">
  <g id="Group_18994" data-name="Group 18994" transform="translate(149 -150)">
    <circle id="Ellipse_929" data-name="Ellipse 929" cx="25" cy="25" r="25" transform="translate(-149 150)" fill="#ffc5c5"/>
    <g id="Group_18998" data-name="Group 18998" transform="translate(-10743 -13774)">
      <g id="Rectangle_7776" data-name="Rectangle 7776" transform="translate(10603 13933)" fill="#e27e28" stroke="#707070" stroke-width="1" opacity="0">
        <rect width="32" height="32" stroke="none"/>
        <rect x="0.5" y="0.5" width="31" height="31" fill="none"/>
      </g>
      <g id="suitcase" transform="translate(10603 13933)">
        <g id="Group_15733" data-name="Group 15733">
          <g id="Group_15731" data-name="Group 15731" transform="translate(0 4)">
            <path id="Path_23662" data-name="Path 23662" d="M12.667,23H3.333A3.337,3.337,0,0,1,0,19.667V6.333A3.337,3.337,0,0,1,3.333,3H26a3.337,3.337,0,0,1,3.333,3.333V13A.667.667,0,1,1,28,13V6.333a2,2,0,0,0-2-2H3.333a2,2,0,0,0-2,2V19.667a2,2,0,0,0,2,2h9.333a.667.667,0,1,1,0,1.333Z" transform="translate(0 -3)" fill="#e27e28"/>
          </g>
          <g id="Group_15732" data-name="Group 15732" transform="translate(9.333)">
            <path id="Path_23663" data-name="Path 23663" d="M17,5.333a.667.667,0,0,1-.667-.667V2a.668.668,0,0,0-.667-.667H9A.668.668,0,0,0,8.333,2V4.667A.667.667,0,0,1,7,4.667V2A2,2,0,0,1,9,0h6.667a2,2,0,0,1,2,2V4.667A.667.667,0,0,1,17,5.333Z" transform="translate(-7)" fill="#e27e28"/>
          </g>
        </g>
        <g id="Group_15734" data-name="Group 15734" transform="translate(5.333 4.667)">
          <path id="Path_23664" data-name="Path 23664" d="M4,3.5H5.333V22.167H4Z" transform="translate(-4 -3.5)" fill="#e27e28"/>
        </g>
        <g id="Group_15735" data-name="Group 15735" transform="translate(22.667 4)">
          <path id="Path_23665" data-name="Path 23665" d="M17.667,11C17.3,11,17,10.6,17,10.111V3.889C17,3.4,17.3,3,17.667,3s.667.4.667.889v6.222C18.333,10.6,18.035,11,17.667,11Z" transform="translate(-17 -3)" fill="#e27e28"/>
        </g>
        <g id="Group_15736" data-name="Group 15736" transform="translate(9.333 8)">
          <path id="Path_23666" data-name="Path 23666" d="M7.667,11.333a.667.667,0,0,1-.633-.877l1.333-4a.67.67,0,0,1,.417-.42.661.661,0,0,1,.585.076l4,2.667a.666.666,0,0,1-.208,1.2L7.828,11.312A.61.61,0,0,1,7.667,11.333ZM9.357,7.705l-.673,2.02,2.693-.673Z" transform="translate(-7 -6)" fill="#e27e28"/>
        </g>
        <g id="Group_15737" data-name="Group 15737" transform="translate(14.667 14.667)">
          <path id="Path_23667" data-name="Path 23667" d="M19.667,28.333a8.667,8.667,0,1,1,8.667-8.667A8.677,8.677,0,0,1,19.667,28.333Zm0-16A7.333,7.333,0,1,0,27,19.667,7.342,7.342,0,0,0,19.667,12.333Z" transform="translate(-11 -11)" fill="#e27e28"/>
          <path id="Union_26" data-name="Union 26" d="M4.2,8.152l-4-3.2a.528.528,0,0,1-.174-.59A.534.534,0,0,1,.536,4h2a1.446,1.446,0,0,0,1.124-.535H.536a.533.533,0,1,1,0-1.066H3.995A1.466,1.466,0,0,0,2.534,1.068h-2A.534.534,0,1,1,.536,0h5.6a.534.534,0,1,1,0,1.068H4.588A2.466,2.466,0,0,1,5.061,2.4H6.134a.533.533,0,1,1,0,1.066H4.879a2.536,2.536,0,0,1-2.346,1.6H2.056L4.865,7.318a.533.533,0,0,1,.085.748.526.526,0,0,1-.417.2A.521.521,0,0,1,4.2,8.152Z" transform="translate(5.333 4.531)" fill="#e27e28"/>
        </g>
      </g>
    </g>
  </g>
</svg>
