<svg xmlns="http://www.w3.org/2000/svg" width="96" height="96" viewBox="0 0 96 96">
  <g id="business_loan" transform="translate(-10602.691 -13932.689)">
    <g id="Rectangle_6960" data-name="Rectangle 6960" transform="translate(10602.691 13932.689)" fill="#e27e28" stroke="#707070" stroke-width="1" opacity="0">
      <rect width="96" height="96" stroke="none"/>
      <rect x="0.5" y="0.5" width="95" height="95" fill="none"/>
    </g>
    <g id="suitcase" transform="translate(10603.103 13933.103)">
      <g id="Group_14532" data-name="Group 14532">
        <g id="Group_14530" data-name="Group 14530" transform="translate(0 11.897)">
          <path id="Path_17096" data-name="Path 17096" d="M37.674,62.486H9.914A9.926,9.926,0,0,1,0,52.572V12.914A9.926,9.926,0,0,1,9.914,3H77.332a9.926,9.926,0,0,1,9.914,9.914V32.743a1.983,1.983,0,1,1-3.966,0V12.914a5.956,5.956,0,0,0-5.949-5.949H9.914a5.956,5.956,0,0,0-5.949,5.949V52.572A5.956,5.956,0,0,0,9.914,58.52h27.76a1.983,1.983,0,0,1,0,3.966Z" transform="translate(0 -3)" fill="#e27e28"/>
        </g>
        <g id="Group_14531" data-name="Group 14531" transform="translate(27.76)">
          <path id="Path_17097" data-name="Path 17097" d="M36.743,15.863A1.984,1.984,0,0,1,34.76,13.88V5.949a1.986,1.986,0,0,0-1.983-1.983H12.949a1.986,1.986,0,0,0-1.983,1.983V13.88A1.983,1.983,0,1,1,7,13.88V5.949A5.956,5.956,0,0,1,12.949,0H32.777a5.956,5.956,0,0,1,5.949,5.949V13.88A1.984,1.984,0,0,1,36.743,15.863Z" transform="translate(-7)" fill="#e27e28"/>
        </g>
      </g>
      <g id="Group_14533" data-name="Group 14533" transform="translate(15.863 13.88)">
        <path id="Path_17098" data-name="Path 17098" d="M4,3.5H7.966V59.02H4Z" transform="translate(-4 -3.5)" fill="#e27e28"/>
      </g>
      <g id="Group_14534" data-name="Group 14534" transform="translate(67.417 11.897)">
        <path id="Path_17099" data-name="Path 17099" d="M18.983,26.794C17.888,26.794,17,25.61,17,24.151V5.644C17,4.184,17.888,3,18.983,3s1.983,1.184,1.983,2.644V24.151C20.966,25.61,20.077,26.794,18.983,26.794Z" transform="translate(-17 -3)" fill="#e27e28"/>
      </g>
      <g id="Group_14535" data-name="Group 14535" transform="translate(27.759 23.793)">
        <path id="Path_17100" data-name="Path 17100" d="M8.984,21.864A1.984,1.984,0,0,1,7.1,19.255l3.966-11.9a1.993,1.993,0,0,1,1.241-1.249,1.967,1.967,0,0,1,1.741.226l11.9,7.931a1.98,1.98,0,0,1-.619,3.569L9.463,21.8A1.814,1.814,0,0,1,8.984,21.864Zm5.029-10.791-2,6.008,8.011-2Z" transform="translate(-7 -6)" fill="#e27e28"/>
      </g>
      <g id="Group_14542" data-name="Group 14542" transform="translate(43.623 43.623)">
        <path id="Path_17044" data-name="Path 17044" d="M36.777,62.554A25.777,25.777,0,1,1,62.554,36.777,25.807,25.807,0,0,1,36.777,62.554Zm0-47.589A21.811,21.811,0,1,0,58.589,36.777,21.837,21.837,0,0,0,36.777,14.966Z" transform="translate(-11 -11)" fill="#e27e28"/>
        <path id="Union_18" data-name="Union 18" d="M12.494,24.247.606,14.72a1.57,1.57,0,0,1-.517-1.754,1.589,1.589,0,0,1,1.5-1.057H7.536a4.3,4.3,0,0,0,3.343-1.592H1.593a1.586,1.586,0,1,1,0-3.172H11.881A4.36,4.36,0,0,0,7.536,3.178H1.593A1.589,1.589,0,1,1,1.593,0H18.245a1.589,1.589,0,1,1,0,3.178h-4.6a7.334,7.334,0,0,1,1.406,3.968h3.192a1.586,1.586,0,1,1,0,3.172H14.513a7.544,7.544,0,0,1-6.977,4.752H6.116l8.354,6.7a1.586,1.586,0,0,1,.253,2.225,1.564,1.564,0,0,1-1.24.6A1.548,1.548,0,0,1,12.494,24.247Z" transform="translate(15.861 13.475)" fill="#e27e28"/>
      </g>
    </g>
  </g>
</svg>
