<svg xmlns="http://www.w3.org/2000/svg" width="53.933" height="47.191" viewBox="0 0 53.933 47.191">
  <g id="camera_icon" transform="translate(-6426.393 -537.09)">
    <path id="Icon_awesome-camera" data-name="Icon awesome-camera" d="M53.933,14.048V44.385a5.058,5.058,0,0,1-5.056,5.056H5.056A5.058,5.058,0,0,1,0,44.385V14.048A5.058,5.058,0,0,1,5.056,8.992h9.27l1.3-3.466a5.049,5.049,0,0,1,4.73-3.276h13.22A5.049,5.049,0,0,1,38.3,5.526l1.306,3.466h9.27A5.058,5.058,0,0,1,53.933,14.048ZM39.607,29.217A12.641,12.641,0,1,0,26.967,41.857,12.651,12.651,0,0,0,39.607,29.217Zm-3.371,0a9.27,9.27,0,1,1-9.27-9.27A9.283,9.283,0,0,1,36.236,29.217Z" transform="translate(6426.393 534.84)" fill="#e27e28"/>
  </g>
</svg>
