<svg xmlns="http://www.w3.org/2000/svg" width="96" height="96" viewBox="0 0 96 96">
  <g id="Group_18743" data-name="Group 18743" transform="translate(-1868 14838)">
    <g id="Rectangle_9617" data-name="Rectangle 9617" transform="translate(1868 -14838)" fill="#fff" stroke="#707070" stroke-width="1" opacity="0">
      <rect width="96" height="96" stroke="none"/>
      <rect x="0.5" y="0.5" width="95" height="95" fill="none"/>
    </g>
    <g id="charging-status" transform="translate(1868.001 -14806)">
      <path id="Path_34627" data-name="Path 34627" d="M11,36a8,8,0,1,1,8-8A8.007,8.007,0,0,1,11,36Zm0-12a4,4,0,1,0,4,4A4,4,0,0,0,11,24Z" transform="translate(9.001 -3.888)" fill="#e27e28"/>
      <path id="Path_34628" data-name="Path 34628" d="M25,36a8,8,0,1,1,8-8A8.007,8.007,0,0,1,25,36Zm0-12a4,4,0,1,0,4,4A4,4,0,0,0,25,24Z" transform="translate(50.996 -3.888)" fill="#e27e28"/>
      <path id="Path_34629" data-name="Path 34629" d="M85.646,44.082H82.51a2,2,0,0,1,0-4h3.136a5.989,5.989,0,0,0,5.552-3.72l.648-1.584a1.983,1.983,0,0,0-.952-2.528c-29.977-14.187-58.8-16.079-85.668-5.62a1.989,1.989,0,0,0-1.164,2.332l1.676,6.6a6,6,0,0,0,5.815,4.524H13.96a2,2,0,1,1,0,4h-2.4a9.991,9.991,0,0,1-9.691-7.539l-1.676-6.6A5.969,5.969,0,0,1,3.773,22.9C31.7,12.025,61.592,13.961,92.6,28.636A5.958,5.958,0,0,1,95.545,36.3l-.652,1.584a9.961,9.961,0,0,1-9.247,6.2Z" transform="translate(0.001 -15.972)" fill="#e27e28"/>
      <path id="Path_34630" data-name="Path 34630" d="M52.626,26H7.91a2,2,0,1,1,0-4H52.626a2,2,0,0,1,0,4Z" transform="translate(17.73 2.111)" fill="#e27e28"/>
      <path id="Path_34631" data-name="Path 34631" d="M19.688,30.723A10,10,0,0,1,11.6,26.6L6.381,19.424a2,2,0,0,1,3.232-2.352l5.224,7.179a5.994,5.994,0,0,0,5.592,2.424L46.682,23.4l1.52-3.044a2,2,0,0,1,3.58,1.788l-2,4a2,2,0,0,1-1.544,1.088l-27.31,3.42a10.748,10.748,0,0,1-1.24.076Z" transform="translate(17.999 -15.135)" fill="#e27e28"/>
    </g>
  </g>
</svg>
