<svg id="child_saving_plans" xmlns="http://www.w3.org/2000/svg" width="96" height="96" viewBox="0 0 96 96">
  <g id="ICONS">
    <g id="child_saving__plan" data-name="child_saving _plan">
      <rect id="Rectangle_8186" data-name="Rectangle 8186" width="96" height="96" fill="none"/>
      <path id="Path_26878" data-name="Path 26878" d="M10,58a10,10,0,0,1,0-20v4a6,6,0,0,0,0,12h.71l.51,4A8.31,8.31,0,0,1,10,58Z" fill="#e27e28"/>
      <path id="Path_26879" data-name="Path 26879" d="M28,53.72a8,8,0,1,1,8-8A8,8,0,0,1,28,53.72Zm0-12a4,4,0,1,0,4,4A4,4,0,0,0,28,41.72Z" fill="#e27e28"/>
      <path id="Path_26880" data-name="Path 26880" d="M65.16,44.72a2,2,0,0,1-1.75-1,4.07,4.07,0,0,0-6.49-.48,2,2,0,1,1-3.13-2.49,7.93,7.93,0,0,1,13.12,1,2,2,0,0,1-.77,2.72A2.07,2.07,0,0,1,65.16,44.72Z" fill="#e27e28"/>
      <path id="Path_26881" data-name="Path 26881" d="M36.68,71.52a2.07,2.07,0,0,1-1-.24,20.279,20.279,0,0,1-3-2,2,2,0,0,1,2.54-3.1,15.08,15.08,0,0,0,2.37,1.59,2,2,0,0,1-1,3.76Z" fill="#e27e28"/>
      <path id="Path_26882" data-name="Path 26882" d="M77.8,42a2,2,0,0,1-2-1.78c-1.75-16-15.34-21.44-21.1-23a2,2,0,0,1,1-3.86c13.85,3.78,22.61,13.41,24,26.43A2,2,0,0,1,78,42Z" fill="#e27e28"/>
      <path id="Path_26883" data-name="Path 26883" d="M44.28,89.72C22.46,89.72,8,67.67,8,47.08v-3.4C8,31.26,14.09,21.42,25.15,16a2,2,0,1,1,1.77,3.59C20.12,22.91,12,29.82,12,43.68v3.4c0,18.66,12.86,38.64,32,38.64a2.13,2.13,0,0,1,2.14,2,1.88,1.88,0,0,1-1.86,2Z" fill="#e27e28"/>
      <path id="Path_26884" data-name="Path 26884" d="M36.42,29.72a13.6,13.6,0,0,1-8.34-2.86A10.46,10.46,0,0,1,24,18.6a11,11,0,0,1,3.3-7.82,12,12,0,0,1,8.38-3.55h1.75c7.42,0,10.73,0,19.55-5.24a2,2,0,0,1,3,1.79c-.42,13.36-8,22.7-20.75,25.63a12.72,12.72,0,0,1-2.83.31Zm-.74-18.49a8,8,0,0,0-5.54,2.37,7,7,0,0,0-2.14,5,6.46,6.46,0,0,0,2.57,5.13,9.56,9.56,0,0,0,7.79,1.78C50.76,22.67,54.61,14,55.66,7.34c-7.5,3.95-11.54,3.93-18.25,3.9Z" fill="#e27e28"/>
      <path id="Path_26885" data-name="Path 26885" d="M56,94.28h4a4,4,0,0,0,4-4v-4h8v4a4,4,0,0,0,4,4h4a4,4,0,0,0,4-4V84.12a16,16,0,0,0,5.81-5.84H92a4,4,0,0,0,4-4v-8a4,4,0,0,0-4-4H89.83A16.33,16.33,0,0,0,87.3,59,15.68,15.68,0,0,0,84,56.46V48.28a2,2,0,0,0-2.31-2c-5,.78-8.09,3.46-9.23,8H60a16,16,0,0,0-16,16,15.72,15.72,0,0,0,4.72,11.31A15.94,15.94,0,0,0,52,84.11v6.17A4,4,0,0,0,56,94.28Zm18-12H62a2,2,0,0,0-2,2v6H56v-7.4a2,2,0,0,0-1.19-1.82,11.36,11.36,0,0,1-3.28-2.31A11.79,11.79,0,0,1,48,70.28a12,12,0,0,1,12-12H74.12a2,2,0,0,0,2-1.74c.39-2.94,1.59-4.73,3.9-5.67v6.81a2,2,0,0,0,1.19,1.83,11.36,11.36,0,0,1,3.28,2.31,11.19,11.19,0,0,1,2.3,3.28,2,2,0,0,0,1.83,1.18H92v8H88.6a2,2,0,0,0-1.81,1.15,12,12,0,0,1-5.65,5.69A2,2,0,0,0,80,82.92v7.36H76v-6A2,2,0,0,0,74,82.28Z" fill="#e27e28"/>
    </g>
  </g>
</svg>
