<svg xmlns="http://www.w3.org/2000/svg" width="40" height="40" viewBox="0 0 40 40">
  <g id="co_browsing_icon" transform="translate(-1719 -855.833)">
    <g id="Group_16253" data-name="Group 16253" transform="translate(1719 855.833)">
      <g id="Rectangle_8142" data-name="Rectangle 8142" fill="#00a3b1" stroke="#707070" stroke-width="1" opacity="0">
        <rect width="40" height="40" stroke="none"/>
        <rect x="0.5" y="0.5" width="39" height="39" fill="none"/>
      </g>
      <path id="Path_26811" data-name="Path 26811" d="M28.027,3H3.7A2.711,2.711,0,0,0,1,5.7V9.757H3.7V5.7H28.027V24.621H18.567v2.7h9.459a2.711,2.711,0,0,0,2.7-2.7V5.7A2.711,2.711,0,0,0,28.027,3ZM1,23.27v4.054H5.054A4.049,4.049,0,0,0,1,23.27Zm0-5.405v2.7a6.759,6.759,0,0,1,6.757,6.757h2.7A9.452,9.452,0,0,0,1,17.865Zm0-5.405v2.7A12.163,12.163,0,0,1,13.162,27.324h2.7A14.865,14.865,0,0,0,1,12.459Z" transform="translate(3.955 4.432)" fill="#00a3b1"/>
    </g>
  </g>
</svg>
