<svg xmlns="http://www.w3.org/2000/svg" width="48" height="48" viewBox="0 0 48 48">
  <g id="Group_16542" data-name="Group 16542" transform="translate(13759 20012)">
    <g id="Rectangle_8289" data-name="Rectangle 8289" transform="translate(-13759 -20012)" fill="#e27e28" stroke="#707070" stroke-width="1" opacity="0">
      <rect width="48" height="48" stroke="none"/>
      <rect x="0.5" y="0.5" width="47" height="47" fill="none"/>
    </g>
    <g id="fireworks" transform="translate(-13759.001 -20011.5)">
      <path id="Path_26890" data-name="Path 26890" d="M173.511,20.579a.942.942,0,0,1-.314-.054l-4.7-1.672-4.7,1.672a.938.938,0,0,1-1.251-.909l.137-4.988-3.043-3.954a.937.937,0,0,1,.478-1.471L164.9,7.792l2.821-4.116a.938.938,0,0,1,1.547,0l2.821,4.116L176.876,9.2a.937.937,0,0,1,.478,1.471l-3.043,3.955.137,4.987a.938.938,0,0,1-.938.964Zm-11.552-9.964,2.412,3.134a.937.937,0,0,1,.194.6l-.109,3.953,3.726-1.325a.939.939,0,0,1,.628,0l3.726,1.325-.108-3.953a.935.935,0,0,1,.194-.6l2.412-3.134L171.24,9.5a.936.936,0,0,1-.508-.369L168.5,5.865,166.26,9.127a.936.936,0,0,1-.508.369Zm0,0" transform="translate(-144.495 -2.51)" fill="#e27e28"/>
      <path id="Path_26891" data-name="Path 26891" d="M378.993,9.437a.937.937,0,0,1-.937-.963l.057-2.1-1.282-1.666a.937.937,0,0,1,.478-1.471l2.016-.594L380.515.908a.938.938,0,0,1,1.547,0l1.188,1.734,2.016.594a.937.937,0,0,1,.478,1.471l-1.282,1.666.058,2.1a.937.937,0,0,1-1.251.909l-1.981-.7-1.98.7A.942.942,0,0,1,378.993,9.437Zm2.295-2.691a.932.932,0,0,1,.314.054l1.006.357-.029-1.067a.934.934,0,0,1,.194-.6l.651-.846-1.024-.3a.938.938,0,0,1-.508-.369l-.6-.881-.6.881a.938.938,0,0,1-.508.369l-1.024.3.651.846a.937.937,0,0,1,.194.6l-.029,1.067,1.006-.357A.938.938,0,0,1,381.288,6.747Zm0,0" transform="translate(-341.327)" fill="#e27e28"/>
      <path id="Path_26892" data-name="Path 26892" d="M43.1,9.437a.942.942,0,0,1-.314-.054l-1.98-.7-1.981.7a.937.937,0,0,1-1.251-.909l.058-2.1L36.348,4.707a.938.938,0,0,1,.478-1.471l2.016-.594L40.031.907a.938.938,0,0,1,1.547,0l1.188,1.734,2.016.595a.938.938,0,0,1,.478,1.471L43.978,6.373l.058,2.1a.937.937,0,0,1-.937.964ZM40.8,6.747a.934.934,0,0,1,.314.054l1.006.357-.029-1.067a.936.936,0,0,1,.194-.6l.651-.846-1.024-.3a.936.936,0,0,1-.508-.369L40.8,3.1l-.6.881a.938.938,0,0,1-.508.369l-1.024.3.651.846a.937.937,0,0,1,.194.6l-.029,1.067L40.49,6.8A.932.932,0,0,1,40.8,6.747Zm0,0" transform="translate(-32.764)" fill="#e27e28"/>
      <path id="Path_26893" data-name="Path 26893" d="M246.938,395.884a.93.93,0,0,1-.183-.019.888.888,0,0,1-.175-.053.926.926,0,0,1-.162-.086.906.906,0,0,1-.259-.259.9.9,0,0,1-.086-.162.89.89,0,0,1-.053-.175.9.9,0,0,1,0-.366.912.912,0,0,1,.053-.176.924.924,0,0,1,.086-.162.907.907,0,0,1,.259-.259.906.906,0,0,1,.162-.086.942.942,0,0,1,.175-.053.929.929,0,0,1,.365,0,.942.942,0,0,1,.175.053.958.958,0,0,1,.3.2.891.891,0,0,1,.116.142.95.95,0,0,1,.086.162.885.885,0,0,1,.053.176.886.886,0,0,1,0,.366.941.941,0,0,1-.053.175.929.929,0,0,1-.086.162.9.9,0,0,1-.259.259.922.922,0,0,1-.162.086.888.888,0,0,1-.175.053A.93.93,0,0,1,246.938,395.884Zm0,0" transform="translate(-222.937 -356.618)" fill="#e27e28"/>
      <path id="Path_26894" data-name="Path 26894" d="M246.938,213.344a.937.937,0,0,1-.938-.938V196.938a.938.938,0,0,1,1.875,0v15.469A.938.938,0,0,1,246.938,213.344Zm0,0" transform="translate(-222.937 -177.172)" fill="#e27e28"/>
      <path id="Path_26895" data-name="Path 26895" d="M361.836,175.2a.9.9,0,0,1-.147-.012.937.937,0,0,1-.7-.523l-1.685-3.545-3.544-1.685a.937.937,0,0,1-.242-1.527l2.85-2.7.507-3.892a.937.937,0,0,1,1.378-.7L363.7,162.5l3.858-.72a.938.938,0,0,1,1.094,1.094l-.72,3.858,1.877,3.446a.938.938,0,0,1-.7,1.378l-3.891.507-2.7,2.85A.935.935,0,0,1,361.836,175.2Zm-4.036-6.871,2.61,1.241a.939.939,0,0,1,.444.444l1.241,2.61,1.986-2.1a.938.938,0,0,1,.56-.285l2.866-.374-1.383-2.538a.939.939,0,0,1-.1-.62l.53-2.841-2.841.531a.939.939,0,0,1-.62-.1l-2.538-1.382-.373,2.866a.935.935,0,0,1-.285.56Zm0,0" transform="translate(-321.921 -145.006)" fill="#e27e28"/>
      <path id="Path_26896" data-name="Path 26896" d="M264.572,300.27c-.033,0-.065,0-.1,0a.938.938,0,0,1-.836-1.029,24.734,24.734,0,0,1,5.769-13.2,25.712,25.712,0,0,1,4.916-4.6.937.937,0,1,1,1.039,1.561,23.648,23.648,0,0,0-4.517,4.242,22.869,22.869,0,0,0-5.342,12.192.938.938,0,0,1-.931.841Zm0,0" transform="translate(-238.917 -254.454)" fill="#e27e28"/>
      <path id="Path_26897" data-name="Path 26897" d="M8.087,175.206a.938.938,0,0,1-.681-.293l-2.7-2.85-3.892-.507a.938.938,0,0,1-.7-1.378l1.877-3.446-.72-3.858a.937.937,0,0,1,1.094-1.094l3.858.72,3.446-1.877a.937.937,0,0,1,1.378.7l.507,3.892,2.851,2.7a.938.938,0,0,1-.242,1.528l-3.545,1.685-1.685,3.544a.938.938,0,0,1-.7.523.906.906,0,0,1-.147.012Zm-5.671-5.333,2.866.374a.935.935,0,0,1,.56.285l1.987,2.1,1.241-2.61a.938.938,0,0,1,.444-.444l2.61-1.241-2.1-1.987a.935.935,0,0,1-.285-.56l-.374-2.866-2.538,1.382a.939.939,0,0,1-.62.1l-2.841-.53.53,2.841a.934.934,0,0,1-.1.62Zm0,0" transform="translate(0 -145.007)" fill="#e27e28"/>
      <path id="Path_26898" data-name="Path 26898" d="M130,300.268a.937.937,0,0,1-.931-.841,22.87,22.87,0,0,0-5.342-12.192,23.652,23.652,0,0,0-4.517-4.242.938.938,0,0,1,1.039-1.561,25.725,25.725,0,0,1,4.916,4.6,24.734,24.734,0,0,1,5.769,13.2.937.937,0,0,1-.836,1.029.872.872,0,0,1-.1.005Zm0,0" transform="translate(-107.657 -254.452)" fill="#e27e28"/>
      <path id="Path_26899" data-name="Path 26899" d="M325.5,394.367a.937.937,0,0,1-.851-1.329,14.19,14.19,0,0,1,5.566-6.112,14.534,14.534,0,0,1,3.525-1.593.937.937,0,1,1,.483,1.812,12.992,12.992,0,0,0-3.032,1.383,12.325,12.325,0,0,0-4.837,5.293A.937.937,0,0,1,325.5,394.367Zm0,0" transform="translate(-294.134 -348.725)" fill="#e27e28"/>
      <path id="Path_26900" data-name="Path 26900" d="M95.878,394.367a.938.938,0,0,1-.853-.547,12.32,12.32,0,0,0-4.837-5.293,12.978,12.978,0,0,0-3.032-1.383.938.938,0,0,1,.483-1.812,14.549,14.549,0,0,1,3.525,1.593,14.19,14.19,0,0,1,5.566,6.112.938.938,0,0,1-.851,1.329Zm0,0" transform="translate(-78.353 -348.725)" fill="#e27e28"/>
      <path id="Path_26901" data-name="Path 26901" d="M456.781,329.319a.938.938,0,0,1-.937-.937v-.78a.938.938,0,0,1,1.875,0v.78A.937.937,0,0,1,456.781,329.319Zm0,0" transform="translate(-413.107 -295.586)" fill="#e27e28"/>
      <path id="Path_26902" data-name="Path 26902" d="M456.781,374.469a.938.938,0,0,1-.937-.937v-.781a.938.938,0,1,1,1.875,0v.781A.938.938,0,0,1,456.781,374.469Zm0,0" transform="translate(-413.107 -336.502)" fill="#e27e28"/>
      <path id="Path_26903" data-name="Path 26903" d="M475.976,355.277h-.78a.938.938,0,1,1,0-1.875h.78a.938.938,0,0,1,0,1.875Zm0,0" transform="translate(-429.795 -319.817)" fill="#e27e28"/>
      <path id="Path_26904" data-name="Path 26904" d="M430.828,355.277h-.78a.938.938,0,0,1,0-1.875h.78a.938.938,0,0,1,0,1.875Zm0,0" transform="translate(-388.88 -319.817)" fill="#e27e28"/>
      <path id="Path_26905" data-name="Path 26905" d="M37.09,329.319a.937.937,0,0,1-.938-.937v-.78a.938.938,0,0,1,1.875,0v.78A.937.937,0,0,1,37.09,329.319Zm0,0" transform="translate(-32.762 -295.586)" fill="#e27e28"/>
      <path id="Path_26906" data-name="Path 26906" d="M37.09,374.469a.938.938,0,0,1-.938-.937v-.781a.938.938,0,1,1,1.875,0v.781A.938.938,0,0,1,37.09,374.469Zm0,0" transform="translate(-32.762 -336.502)" fill="#e27e28"/>
      <path id="Path_26907" data-name="Path 26907" d="M56.284,355.277H55.5a.938.938,0,0,1,0-1.875h.78a.938.938,0,0,1,0,1.875Zm0,0" transform="translate(-49.45 -319.817)" fill="#e27e28"/>
      <path id="Path_26908" data-name="Path 26908" d="M11.132,355.277h-.781a.938.938,0,0,1,0-1.875h.781a.938.938,0,0,1,0,1.875Zm0,0" transform="translate(-8.531 -319.817)" fill="#e27e28"/>
    </g>
  </g>
</svg>
