<svg xmlns="http://www.w3.org/2000/svg" width="34" height="34.001" viewBox="0 0 34 34.001">
  <g id="country_code_dropdown" transform="translate(17690 17008)">
    <g id="upload" transform="translate(-17690 -17008)">
      <path id="Path_33328" data-name="Path 33328" d="M13.093,23.841,13.083,1.45A1.45,1.45,0,0,1,14.534,0h0a1.45,1.45,0,0,1,1.45,1.45l.01,22.366,4.223-4.225a1.45,1.45,0,0,1,2.051,0h0a1.45,1.45,0,0,1,0,2.051l-4.657,4.663a4.351,4.351,0,0,1-6.155,0L6.8,21.647a1.45,1.45,0,0,1,0-2.051h0a1.45,1.45,0,0,1,2.051,0Z" transform="translate(2.466 0)" fill="#e27e28"/>
      <path id="Path_33329" data-name="Path 33329" d="M31.167,17.45v5.8A1.434,1.434,0,0,1,29.75,24.7H4.25a1.434,1.434,0,0,1-1.417-1.45v-5.8A1.434,1.434,0,0,0,1.417,16h0A1.434,1.434,0,0,0,0,17.45v5.8A4.3,4.3,0,0,0,4.25,27.6h25.5A4.3,4.3,0,0,0,34,23.252v-5.8A1.434,1.434,0,0,0,32.583,16h0A1.434,1.434,0,0,0,31.167,17.45Z" transform="translate(0 6.397)" fill="#e27e28"/>
    </g>
  </g>
</svg>
