<svg xmlns="http://www.w3.org/2000/svg" width="200" height="173.765" viewBox="0 0 200 173.765">
  <g id="credit_score" transform="translate(-1006 -10973.235)">
    <text id="Free_Credit_Score" data-name="Free Credit Score" transform="translate(1006 11117)" fill="#465a65" font-size="24" font-family="DaxPro, Dax Pro"><tspan x="16" y="24">Free Credit Score</tspan></text>
    <g id="pie-chart" transform="translate(1105.883 11109) rotate(-135)">
      <g id="Group_15022" data-name="Group 15022">
        <g id="Group_15021" data-name="Group 15021">
          <path id="Path_21034" data-name="Path 21034" d="M48,0a2.088,2.088,0,0,0-2.087,2.087v16.7A2.088,2.088,0,0,0,48,20.87,27.13,27.13,0,1,1,20.869,48a2.088,2.088,0,0,0-2.087-2.087H2.087A2.088,2.088,0,0,0,0,48,48,48,0,1,0,48,0Zm0,91.826A43.879,43.879,0,0,1,4.224,50.087H16.767a31.3,31.3,0,1,0,33.32-33.32V4.224A43.826,43.826,0,0,1,48,91.826Z" fill="#e27e28"/>
          <path id="Path_21035" data-name="Path 21035" d="M14.609,29.218A14.609,14.609,0,1,0,0,14.609,14.625,14.625,0,0,0,14.609,29.218Zm0-25.044A10.435,10.435,0,1,1,4.174,14.609,10.447,10.447,0,0,1,14.609,4.174Z" transform="translate(33.391 33.391)" fill="#e27e28"/>
        </g>
      </g>
      <path id="Line_1365" data-name="Line 1365" d="M2,8A2,2,0,0,1,1.515,4.06l16-4a2,2,0,1,1,.97,3.881l-16,4A2.005,2.005,0,0,1,2,8Z" transform="translate(74.003 34)" fill="#e27e28"/>
      <path id="Line_1363" data-name="Line 1363" d="M30,32a1.994,1.994,0,0,1-1.414-.586l-28-28A2,2,0,0,1,3.414.586l28,28A2,2,0,0,1,30,32Z" transform="translate(46.004 46)" fill="#e27e28"/>
      <path id="Line_1365-2" data-name="Line 1365" d="M2,0a2,2,0,0,0-.483,3.941l16,4a2,2,0,1,0,.97-3.88l-16-4A2.005,2.005,0,0,0,2,0Z" transform="translate(41.883 74.125) rotate(90)" fill="#e27e28"/>
    </g>
  </g>
</svg>
