<svg id="critical_illness" xmlns="http://www.w3.org/2000/svg" width="96" height="96" viewBox="0 0 96 96">
  <g id="ICONS">
    <g id="critical_health">
      <rect id="Rectangle_8187" data-name="Rectangle 8187" width="96" height="96" fill="none"/>
      <path id="Path_26886" data-name="Path 26886" d="M50,66h0a2,2,0,0,1-1.82-1.26L40.65,46H30a2,2,0,0,1,0-4H42a2,2,0,0,1,1.86,1.26l6.24,15.6L64.17,27.19A2.005,2.005,0,0,1,67.74,27L83.16,54H94a2,2,0,0,1,0,4H82a2,2,0,0,1-1.74-1l-14-24.57L51.83,64.81A2,2,0,0,1,50,66Z" fill="#e27e28"/>
      <path id="Path_26887" data-name="Path 26887" d="M44,90a2,2,0,0,1-.93-.23C41.31,88.85,0,66.79,0,30.12A24.15,24.15,0,0,1,24.12,6,24,24,0,0,1,44,16.06,24.31,24.31,0,0,1,88,30.12,45.3,45.3,0,0,1,87.33,38a2,2,0,0,1-3.94-.72,40,40,0,0,0,.61-7.2A20.14,20.14,0,0,0,63.88,10,19.76,19.76,0,0,0,45.8,20.88a2.09,2.09,0,0,1-3.6,0A19.76,19.76,0,0,0,24.12,10,20.14,20.14,0,0,0,4,30.12C4,61.48,37.91,82.24,44,85.71A105.6,105.6,0,0,0,65,69.78a2,2,0,1,1,2.81,2.84A106.23,106.23,0,0,1,44.93,89.77,2,2,0,0,1,44,90Z" fill="#e27e28"/>
    </g>
  </g>
</svg>
