<svg xmlns="http://www.w3.org/2000/svg" width="32" height="32" viewBox="0 0 32 32">
  <g id="delete_icon" transform="translate(-7731.312 -1504.313)">
    <rect id="Rectangle_8543" data-name="Rectangle 8543" width="32" height="32" transform="translate(7731.312 1504.313)" fill="none"/>
    <path id="fi-rr-delete" d="M21.523,2H11.278a5.625,5.625,0,0,0-4.47,2.187L.238,12.632a1.133,1.133,0,0,0,0,1.391l6.57,8.445a5.625,5.625,0,0,0,4.47,2.187H21.523a5.671,5.671,0,0,0,5.664-5.664V7.664A5.671,5.671,0,0,0,21.523,2Zm3.4,16.992a3.4,3.4,0,0,1-3.4,3.4H11.278A3.375,3.375,0,0,1,8.6,21.079L2.568,13.328,8.6,5.577a3.375,3.375,0,0,1,2.682-1.312H21.523a3.4,3.4,0,0,1,3.4,3.4Zm-5.43-7.7-2.031,2.031,2.031,2.031a1.133,1.133,0,1,1-1.6,1.6L15.859,14.93l-2.031,2.031a1.133,1.133,0,1,1-1.6-1.6l2.031-2.031L12.226,11.3a1.133,1.133,0,1,1,1.6-1.6l2.031,2.031L17.89,9.7a1.133,1.133,0,1,1,1.6,1.6Z" transform="translate(7733.719 1506.758)" fill="#f54b4b"/>
  </g>
</svg>
