<svg xmlns="http://www.w3.org/2000/svg" width="34" height="34" viewBox="0 0 34 34">
  <g id="delete_icon" transform="translate(-7114.165 -1496.165)">
    <rect id="Rectangle_8824" data-name="Rectangle 8824" width="34" height="34" transform="translate(7114.165 1496.165)" fill="none"/>
    <g id="fi-rr-trash" transform="translate(7119.246 1498.861)">
      <path id="Path_33100" data-name="Path 33100" d="M24.649,4.768h-3.7A5.971,5.971,0,0,0,15.112,0H12.728A5.971,5.971,0,0,0,6.887,4.768h-3.7a1.192,1.192,0,0,0,0,2.384H4.384v15.5a5.967,5.967,0,0,0,5.96,5.96H17.5a5.967,5.967,0,0,0,5.96-5.96V7.152h1.192a1.192,1.192,0,0,0,0-2.384ZM12.728,2.384h2.384a3.583,3.583,0,0,1,3.372,2.384H9.356a3.583,3.583,0,0,1,3.372-2.384Zm8.344,20.265A3.576,3.576,0,0,1,17.5,26.225H10.344a3.576,3.576,0,0,1-3.576-3.576V7.152h14.3Z" transform="translate(-2)" fill="#f54b4b"/>
      <path id="Path_33101" data-name="Path 33101" d="M10.192,19.536a1.192,1.192,0,0,0,1.192-1.192V11.192a1.192,1.192,0,1,0-2.384,0v7.152A1.192,1.192,0,0,0,10.192,19.536Z" transform="translate(-0.656 1.92)" fill="#f54b4b"/>
      <path id="Path_33102" data-name="Path 33102" d="M14.192,19.536a1.192,1.192,0,0,0,1.192-1.192V11.192a1.192,1.192,0,0,0-2.384,0v7.152A1.192,1.192,0,0,0,14.192,19.536Z" transform="translate(0.112 1.92)" fill="#f54b4b"/>
    </g>
  </g>
</svg>
