<svg id="download_icon" xmlns="http://www.w3.org/2000/svg" width="24" height="24" viewBox="0 0 24 24">
  <rect id="Rectangle_8855" data-name="Rectangle 8855" width="24" height="24" fill="none"/>
  <g id="fi-rr-download" transform="translate(2 2)">
    <path id="Path_33120" data-name="Path 33120" d="M19.167,16h0a.833.833,0,0,0-.833.833v3.333A.833.833,0,0,1,17.5,21H2.5a.833.833,0,0,1-.833-.833V16.833A.833.833,0,0,0,.833,16h0A.833.833,0,0,0,0,16.833v3.333a2.5,2.5,0,0,0,2.5,2.5h15a2.5,2.5,0,0,0,2.5-2.5V16.833A.833.833,0,0,0,19.167,16Z" transform="translate(0 -2.667)" fill="#e27e2b"/>
    <path id="Path_33121" data-name="Path 33121" d="M5.244,11.282,9.066,15.1a2.506,2.506,0,0,0,3.535,0l3.822-3.822A.833.833,0,1,0,15.244,10.1L11.667,13.68V.833A.833.833,0,0,0,10,.833V13.681L6.422,10.1a.833.833,0,1,0-1.178,1.178Z" transform="translate(-0.833 0)" fill="#e27e2b"/>
  </g>
</svg>
