<svg xmlns="http://www.w3.org/2000/svg" width="32" height="32" viewBox="0 0 32 32">
  <g id="edit_icon" transform="translate(-7730.729 -1503.728)">
    <rect id="Rectangle_8543" data-name="Rectangle 8543" width="32" height="32" transform="translate(7730.729 1503.728)" fill="none"/>
    <g id="fi-rr-edit" transform="translate(7733.622 1506.621)">
      <path id="Path_32822" data-name="Path 32822" d="M19.916,1.012,6.6,14.328A5.424,5.424,0,0,0,5,18.189v1.467a1.092,1.092,0,0,0,1.092,1.092H7.559a5.424,5.424,0,0,0,3.861-1.6L24.737,5.833a3.413,3.413,0,0,0,0-4.821,3.489,3.489,0,0,0-4.821,0Zm3.277,3.277L9.876,17.605a3.3,3.3,0,0,1-2.317.959H7.184v-.375a3.3,3.3,0,0,1,.959-2.317L21.46,2.556a1.254,1.254,0,0,1,1.732,0,1.227,1.227,0,0,1,0,1.732Z" transform="translate(0.461 0.004)" fill="#0074db"/>
      <path id="Path_32823" data-name="Path 32823" d="M25.122,9.807A1.092,1.092,0,0,0,24.029,10.9v5.484H19.66a3.277,3.277,0,0,0-3.277,3.277v4.369H5.461a3.277,3.277,0,0,1-3.277-3.277V5.461A3.277,3.277,0,0,1,5.461,2.184h9.876a1.092,1.092,0,0,0,0-2.184H5.461A5.468,5.468,0,0,0,0,5.461V20.753a5.468,5.468,0,0,0,5.461,5.461H17.851a5.426,5.426,0,0,0,3.862-1.6l2.9-2.9a5.426,5.426,0,0,0,1.6-3.861V10.9A1.092,1.092,0,0,0,25.122,9.807ZM20.168,23.07a3.249,3.249,0,0,1-1.6.874V19.66a1.092,1.092,0,0,1,1.092-1.092h4.287a3.294,3.294,0,0,1-.874,1.6Z" fill="#0074db"/>
    </g>
  </g>
</svg>
