<svg xmlns="http://www.w3.org/2000/svg" width="96" height="96.002" viewBox="0 0 96 96.002">
  <g id="education_loan" transform="translate(0 0.002)">
    <path id="Path_23669" data-name="Path 23669" d="M16.026,37.451a1.77,1.77,0,0,1-.21.87l-.18.3a1.95,1.95,0,0,1-1.56.78,2.79,2.79,0,0,1-.72,0l-.39-.21a37.8,37.8,0,0,1-3.24-2.04,8.4,8.4,0,0,1-4.08-7.26V10.781a1.98,1.98,0,0,1,1.92-2.16,2.01,2.01,0,0,1,2.1,1.95v19.29a4.47,4.47,0,0,0,1.89,3.9,36.452,36.452,0,0,0,3.27,1.98A1.92,1.92,0,0,1,16.026,37.451Z" transform="translate(11.274 17.239)" fill="#e27e28"/>
    <path id="Path_23670" data-name="Path 23670" d="M33.23,10.542v19.29a8.49,8.49,0,0,1-4.08,7.29,30.6,30.6,0,0,1-3.21,1.83h-.15a1.8,1.8,0,0,1-.81.18,2.79,2.79,0,0,1-.72,0l-.39-.21a1.95,1.95,0,0,1-.87-1.65,1.98,1.98,0,0,1,.87-1.65l.33-.18a34.051,34.051,0,0,0,3-1.8,4.38,4.38,0,0,0,2.04-3.78V10.752a2.013,2.013,0,0,1,4.02-.21Z" transform="translate(46 17.268)" fill="#e27e28"/>
    <path id="Path_23671" data-name="Path 23671" d="M33.422,8.412v17.07a2.01,2.01,0,1,1-4.02,0V8.622a2.013,2.013,0,0,1,4.02-.21Z" transform="translate(58.798 13.008)" fill="#e27e28"/>
    <path id="Path_23672" data-name="Path 23672" d="M89.585,20.79a1.86,1.86,0,0,0-1.02-1.11L46.325.21a2.16,2.16,0,0,0-.84-.21,1.92,1.92,0,0,0-.84.21L2.435,19.68a1.92,1.92,0,0,0-.99.96,2.04,2.04,0,0,0,.99,2.7l11.82,5.46,4.02,1.83,26.34,12.18a2.16,2.16,0,0,0,.87.18,2.01,2.01,0,0,0,.84-.18l26.37-12,4.02-1.86,11.85-5.46a2.04,2.04,0,0,0,.96-.99A2.01,2.01,0,0,0,89.585,20.79Zm-44.1,18L8.075,21.51,45.485,4.23l37.44,17.28Z" transform="translate(2.515)" fill="#e27e28"/>
    <path id="Path_23673" data-name="Path 23673" d="M34.6,15.14a2.7,2.7,0,1,1-2.7-2.7A2.7,2.7,0,0,1,34.6,15.14Z" transform="translate(58.4 24.88)" fill="#e27e28"/>
    <g id="Group_15461" data-name="Group 15461" transform="translate(25.38 50.76)">
      <path id="Path_17044" data-name="Path 17044" d="M31.08,62.16A22.62,22.62,0,1,1,53.7,39.54h0A22.68,22.68,0,0,1,31.08,62.16Zm0-41.73A19.14,19.14,0,1,0,50.22,39.54h0A19.14,19.14,0,0,0,31.08,20.43Z" transform="translate(-8.46 -16.92)" fill="#e27e28"/>
      <path id="Union_18" data-name="Union 18" d="M24.1,42.18l-10.44-8.37a1.41,1.41,0,0,1-.45-1.53,1.44,1.44,0,0,1,1.32-.93h5.22a3.81,3.81,0,0,0,3-1.38h-8.22a1.41,1.41,0,0,1,0-2.79h9a3.81,3.81,0,0,0-3.81-3.48h-5.19a1.38,1.38,0,0,1-1.44-1.35,1.35,1.35,0,0,1,1.32-1.44h14.73a1.41,1.41,0,0,1,0,2.79h-4.05a6.39,6.39,0,0,1,1.26,3.48h2.79a1.38,1.38,0,0,1,0,2.76h-3.27a6.6,6.6,0,0,1-6.15,4.17h-1.23l7.35,6a1.38,1.38,0,0,1,.21,1.95,1.41,1.41,0,0,1-1.08.54A1.44,1.44,0,0,1,24.1,42.18Z" transform="translate(0.798 -8.94)" fill="#e27e28"/>
    </g>
    <rect id="Rectangle_7777" data-name="Rectangle 7777" width="96" height="96" transform="translate(0 -0.002)" fill="none"/>
  </g>
</svg>
