<svg xmlns="http://www.w3.org/2000/svg" width="50" height="50" viewBox="0 0 50 50">
  <g id="Group_18994" data-name="Group 18994" transform="translate(149 -150)">
    <circle id="Ellipse_929" data-name="Ellipse 929" cx="25" cy="25" r="25" transform="translate(-149 150)" fill="#ffe3af"/>
    <g id="Layer_1" data-name="Layer 1" transform="translate(-140 159)">
      <path id="Path_23669" data-name="Path 23669" d="M9.1,18.23a.59.59,0,0,1-.07.29l-.06.1a.65.65,0,0,1-.52.26.93.93,0,0,1-.24,0l-.13-.07A12.6,12.6,0,0,1,7,18.13a2.8,2.8,0,0,1-1.36-2.42V9.34a.66.66,0,0,1,.64-.72.67.67,0,0,1,.7.65V15.7A1.49,1.49,0,0,0,7.61,17a12.15,12.15,0,0,0,1.09.66A.64.64,0,0,1,9.1,18.23Z" transform="translate(0 0)" fill="#e27e2b"/>
      <path id="Path_23670" data-name="Path 23670" d="M26.41,9.27V15.7a2.83,2.83,0,0,1-1.36,2.43,10.2,10.2,0,0,1-1.07.61h-.05a.6.6,0,0,1-.27.06.93.93,0,0,1-.24,0l-.13-.07a.65.65,0,0,1-.29-.55.66.66,0,0,1,.29-.55l.11-.06a11.35,11.35,0,0,0,1-.6,1.46,1.46,0,0,0,.68-1.26V9.34a.671.671,0,1,1,1.34-.07Z" transform="translate(0)" fill="#e27e2b"/>
      <path id="Path_23671" data-name="Path 23671" d="M30.74,7.14v5.69a.67.67,0,0,1-1.34,0V7.21a.671.671,0,0,1,1.34-.07Z" transform="translate(0 0)" fill="#e27e2b"/>
      <path id="Path_23672" data-name="Path 23672" d="M30.7,6.93a.62.62,0,0,0-.34-.37L16.28.07A.72.72,0,0,0,16,0a.64.64,0,0,0-.28.07L1.65,6.56a.64.64,0,0,0-.33.32.68.68,0,0,0,.33.9L5.59,9.6l1.34.61,8.78,4.06a.72.72,0,0,0,.29.06.67.67,0,0,0,.28-.06l8.79-4,1.34-.62,3.95-1.82a.68.68,0,0,0,.32-.33A.67.67,0,0,0,30.7,6.93Zm-14.7,6L3.53,7.17,16,1.41,28.48,7.17Z" fill="#e27e2b"/>
      <path id="Path_23673" data-name="Path 23673" d="M31,13.34a.9.9,0,1,1-.9-.9A.9.9,0,0,1,31,13.34Z" transform="translate(0 0)" fill="#e27e2b"/>
      <g id="Group_15461" data-name="Group 15461" transform="translate(8.46 16.92)">
        <path id="Path_17044" data-name="Path 17044" d="M16,32a7.54,7.54,0,1,1,7.54-7.54h0A7.56,7.56,0,0,1,16,32Zm0-13.91a6.38,6.38,0,1,0,6.38,6.37h0A6.38,6.38,0,0,0,16,18.09Z" transform="translate(-8.46 -16.92)" fill="#e27e2b"/>
        <path id="Union_18" data-name="Union 18" d="M16.76,28l-3.48-2.79a.47.47,0,0,1-.15-.51.48.48,0,0,1,.44-.31h1.74a1.27,1.27,0,0,0,1-.46H13.57a.47.47,0,0,1,0-.93h3a1.27,1.27,0,0,0-1.27-1.16H13.57a.46.46,0,0,1-.48-.45.45.45,0,0,1,.44-.48h4.91a.47.47,0,0,1,0,.93H17.09A2.13,2.13,0,0,1,17.51,23h.93a.46.46,0,0,1,0,.92H17.35a2.2,2.2,0,0,1-2.05,1.39h-.41l2.45,2a.46.46,0,0,1,.07.65.47.47,0,0,1-.36.18A.48.48,0,0,1,16.76,28Z" transform="translate(-8.46 -16.92)" fill="#e27e2b"/>
      </g>
      <rect id="Rectangle_7777" data-name="Rectangle 7777" width="32" height="32" fill="none"/>
    </g>
  </g>
</svg>
