<svg xmlns="http://www.w3.org/2000/svg" width="576" height="576" viewBox="0 0 576 576">
  <g id="Get_in_touch-cuate" data-name="Get in touch-cuate" transform="translate(-148 -237)">
    <g id="illustration" transform="translate(148 237)" fill="#fff" stroke="#707070" stroke-width="1" opacity="0">
      <rect width="576" height="576" stroke="none"/>
      <rect x="0.5" y="0.5" width="575" height="575" fill="none"/>
    </g>
    <g id="Get_in_touch-cuate-2" data-name="Get in touch-cuate" transform="translate(115.03 227.57)">
      <g id="freepik--Shadow--inject-135" transform="translate(124.189 537.651)">
        <ellipse id="Ellipse_524" data-name="Ellipse 524" cx="218.735" cy="23.889" rx="218.735" ry="23.889" fill="#ebebeb"/>
      </g>
      <g id="freepik--Plant--inject-135" transform="translate(40.08 319.85)" opacity="0">
        <path id="Path_26910" data-name="Path 26910" d="M98.079,283.375a54.847,54.847,0,0,1-1.074,21.1,58.514,58.514,0,0,1-3.234,9.344c-1.687,3.835-3.438,7.669-3.017,11.849.409.281-.984.23-1.035-.179-11.3-6.391-25.781-7.605-34.511-18.125-4.116-4.972-6.186-11.286-7.171-17.6-1.074-6.864-1.368-14.482.4-21.256,1.5-5.726,4.844-11.248,10.225-14.06s12.782-2.646,18.687-.831C90.027,257.543,96.3,271.156,98.079,283.375Z" transform="translate(-38.077 -252.29)" fill="#00a3b1"/>
        <path id="Path_26911" data-name="Path 26911" d="M101.791,364.237c-1.547-5.113-3.08-10.225-4.665-15.338-3.093-10.034-6.314-20.042-9.88-29.922q-3.2-8.871-6.762-17.588a105.144,105.144,0,0,1,1.278-10.916c.946-4.384,2.313-8.615,3.592-12.9.089-.268-.345-.409-.447-.153-2.556,5.905-5.854,13.459-5.931,20.451-2.761-6.57-5.7-13.05-8.883-19.428a83.656,83.656,0,0,1,.5-16.182.192.192,0,0,0-.371-.077,56.687,56.687,0,0,0-1.074,14.239q-3.643-7.19-7.669-14.188c-.243-.422-.818,0-.614.422,4.244,8.18,8.18,16.527,11.874,24.976a54.169,54.169,0,0,0-17.7-10.225c-.281-.1-.5.307-.2.422A64.663,64.663,0,0,1,74,290.511q3.988,9.292,7.592,18.725c-7.068-6.928-16.731-11.5-26.088-13.932-.32-.077-.409.409-.1.5,10.826,3.259,19.173,9.395,27.468,16.77q1.444,3.835,2.825,7.669,5.241,14.507,9.957,29.206,2.288,7.03,4.486,14.06c1.585,5.113,2.812,10.417,4.87,15.338.2.46,1.035.358.933-.2A148.92,148.92,0,0,0,101.791,364.237Z" transform="translate(-35.985 -249.572)" fill="#263238"/>
        <path id="Path_26912" data-name="Path 26912" d="M77.765,268.9A28.12,28.12,0,0,0,73.7,279.037c0,.1.128.153.166.064a85.405,85.405,0,0,1,4.41-9.957C78.442,268.811,77.918,268.607,77.765,268.9Z" transform="translate(-30.697 -247.709)" fill="#263238"/>
        <path id="Path_26913" data-name="Path 26913" d="M63.346,288.023A29.718,29.718,0,0,0,53.21,284.61c-.089,0-.153.128,0,.166,1.623.677,3.336,1.15,4.985,1.777s3.272,1.419,4.947,1.994a.294.294,0,0,0,.2-.524Z" transform="translate(-36.423 -243.3)" fill="#263238"/>
        <path id="Path_26914" data-name="Path 26914" d="M57.439,265.568a19.955,19.955,0,0,0-3.259-2.007.179.179,0,0,0-.192.281,19.285,19.285,0,0,0,3.221,2.083C57.414,266.054,57.644,265.709,57.439,265.568Z" transform="translate(-36.191 -249.157)" fill="#263238"/>
        <path id="Path_26915" data-name="Path 26915" d="M124.408,320.047c-8.129,2.416-16.31,4.64-24.439,7.03-.7.217-14.456-26.139-9.484-39.713,4.589-12.565,15.108-21.972,27.647-26.241,5.8-1.968,12.948-3.63,19.083-2.275,5.458,1.214,9.305,5.675,11.082,10.813,2.416,6.966,1.611,15.338.294,22.407a39.087,39.087,0,0,1-8,18.24C136.27,315.5,130.761,318.168,124.408,320.047Z" transform="translate(-26.329 -250.604)" fill="#00a3b1"/>
        <path id="Path_26916" data-name="Path 26916" d="M136.479,291.458a109.072,109.072,0,0,1-15.952,6.276,67.674,67.674,0,0,0-10.647,3.835c3.438-7.669,7.209-15.159,11.21-22.585,5.253-1.521,10.788-3.835,14.75-7.605a.231.231,0,0,0-.307-.345c-4.333,3.055-9.113,4.9-13.907,6.966,1.086-1.994,2.173-3.988,3.285-5.982.32-.562-.447-1.112-.818-.562a171.517,171.517,0,0,0-11.5,19.4,88.8,88.8,0,0,1-.831-17.78.121.121,0,0,0-.243,0,59.691,59.691,0,0,0,.2,19.543q-4.276,8.551-7.784,17.434c-.933-3.541-2.135-7.043-2.94-10.622a48.877,48.877,0,0,1-1.2-15.645c0-.153-.217-.153-.243,0a55.269,55.269,0,0,0,3.413,28.746c-1.355,3.553-2.659,7.119-3.835,10.7a213.007,213.007,0,0,0-10.8,56.419.345.345,0,0,0,.69,0,279.118,279.118,0,0,1,12.117-55.78c2.365-7.094,5.113-13.983,8.053-20.732,4.806-1.419,9.586-3.349,14.316-4.985a44.865,44.865,0,0,0,13.178-6.468C136.837,291.65,136.671,291.458,136.479,291.458Z" transform="translate(-26.628 -247.093)" fill="#263238"/>
        <path id="Path_26917" data-name="Path 26917" d="M135.218,281c-4.985,1.764-9.7,4.244-14.661,6.033-.243.089-.1.46.128.409,5.266-1.086,10.481-2.71,14.712-6.161C135.512,281.2,135.333,281,135.218,281Z" transform="translate(-17.698 -244.304)" fill="#263238"/>
        <path id="Path_26918" data-name="Path 26918" d="M100.61,272.7c0-.268-.32-.422-.4-.141-1.368,4.576-2.314,9.446-.984,14.137,0,.179.345.192.358,0C99.817,281.957,99.562,277.356,100.61,272.7Z" transform="translate(-23.774 -246.693)" fill="#263238"/>
        <path id="Path_26919" data-name="Path 26919" d="M116.737,264.378a12.079,12.079,0,0,0-2.16,7.8c0,.179.281.281.332.077.6-2.633,1.623-5.023,2.429-7.567a.345.345,0,0,0-.6-.307Z" transform="translate(-19.335 -248.963)" fill="#263238"/>
        <path id="Path_26920" data-name="Path 26920" d="M41.378,319.255c2.39,7.567,8.053,18.035,17.025,18.112,5.829.064,11.683-.626,17.511-.716,6.25-.089,12.5-.077,18.738.294.511,0-.754-18.7-15.76-27.826-4.205-2.556-9.344-3.362-14.06-4.4a66.029,66.029,0,0,0-16.616-1.738c-3.451.141-6.314.869-7.541,4.4S40.24,315.663,41.378,319.255Z" transform="translate(-40.056 -238.193)" fill="#00a3b1"/>
        <path id="Path_26921" data-name="Path 26921" d="M46.252,309.078c3.643.933,7.324,2.02,10.98,3.183a36.54,36.54,0,0,0-3.017-2.953c-1.572-1.278-3.31-2.352-5-3.5-.141-.089,0-.358.128-.294a20.642,20.642,0,0,1,8.858,7.017c4.563,1.47,9.075,3.106,13.421,4.883a51.318,51.318,0,0,1,8.6,4.525,35.456,35.456,0,0,0-3.106-5.407c-1.994-2.556-4.691-4.026-7.3-5.854a.23.23,0,0,1,.23-.4,21.358,21.358,0,0,1,11.708,12.692,49.847,49.847,0,0,1,8.513,7.733c9.931,11.274,17.754,26.279,17.779,41.592,0,.371-.588.473-.652.089A84.91,84.91,0,0,0,88.457,331.7c-.716-.831-1.444-1.623-2.186-2.39a67.381,67.381,0,0,0-8.206-.6c-3.2,0-6.391.46-9.535.729-5.241.422-11.043.486-15.76-2.16a.209.209,0,1,1,.166-.383c10.532,3.835,21.576-1.035,32.146,1.278A49.389,49.389,0,0,0,69.5,318.128l-.971-.383c-6.762.805-13.894,2.556-20.451.371a.158.158,0,0,1,.077-.307c6.391,1.585,12.475-.409,18.751-.729-6.838-2.659-13.8-4.78-20.668-7.426C45.638,309.449,45.625,308.925,46.252,309.078Z" transform="translate(-38.463 -237.488)" fill="#263238"/>
        <path id="Path_26922" data-name="Path 26922" d="M43.846,313.51a91.056,91.056,0,0,0,9.842.741.07.07,0,0,1,0,.141,20.31,20.31,0,0,1-9.931-.639C43.615,313.715,43.692,313.485,43.846,313.51Z" transform="translate(-39.048 -235.261)" fill="#263238"/>
        <path id="Path_26923" data-name="Path 26923" d="M61.277,308.433a16.055,16.055,0,0,1,4.857,3.387.2.2,0,0,1-.243.32c-.831-.6-1.674-1.163-2.556-1.726a23.983,23.983,0,0,1-2.313-1.5C60.779,308.74,61.022,308.343,61.277,308.433Z" transform="translate(-34.252 -236.676)" fill="#263238"/>
        <path id="Path_26924" data-name="Path 26924" d="M102.664,332.738c-.1.243.256.473.4.217h0a.345.345,0,0,0,.23.153,151.646,151.646,0,0,0,18.342,3.2c4.959.435,10.673.716,15.019-2.173,5.892-3.9,9.765-14.328,6.583-20.962-3.771-7.874-15.108-3.592-20.809-.792a41.745,41.745,0,0,0-19.761,20.361Z" transform="translate(-22.645 -236.607)" fill="#00a3b1"/>
        <path id="Path_26925" data-name="Path 26925" d="M103.211,335.367a58.8,58.8,0,0,1,10.954-8.334,37.6,37.6,0,0,1,11.095-11.312c.217-.153.4.192.2.345a50.141,50.141,0,0,0-9.356,9.842,103.3,103.3,0,0,1,13.74-6.25,18.163,18.163,0,0,1,7.375-7.388s.141,0,.077.1a30.038,30.038,0,0,0-6.659,6.992c2.786-1.048,5.6-2.02,8.423-2.953.256-.077.345.307.1.4-5.01,1.956-10.136,4.026-15.108,6.391a57.85,57.85,0,0,0,18.3,0,.141.141,0,0,1,.064.268,36.032,36.032,0,0,1-19.416.281,89.829,89.829,0,0,0-9.2,5.113,23.008,23.008,0,0,1,7.439.614,57.9,57.9,0,0,0,13.089,1.483.153.153,0,0,1,0,.294c-7.592,1.278-14.763-2.147-22.291-1.278a57.871,57.871,0,0,0-7.835,6.391,59.064,59.064,0,0,0-11.414,16.118c-3.17,6.391-4.883,13.268-7.439,19.927a.245.245,0,0,1-.473-.128C87.119,359.218,93.65,344.723,103.211,335.367Z" transform="translate(-27.589 -235.605)" fill="#263238"/>
        <path id="Path_26926" data-name="Path 26926" d="M117.132,317.139a8.614,8.614,0,0,1,1.943-2.365,7.772,7.772,0,0,1,2.237-1.674.083.083,0,0,1,.077.128c-.626.7-1.5,1.278-2.16,1.9s-1.278,1.47-1.93,2.147a.115.115,0,0,1-.166-.141Z" transform="translate(-18.618 -235.374)" fill="#263238"/>
        <path id="Path_26927" data-name="Path 26927" d="M126.948,319.779c1.125-.281,2.313-.268,3.451-.5a33.913,33.913,0,0,0,3.362-1.01.141.141,0,0,1,.1.256,11.222,11.222,0,0,1-6.915,1.6C126.769,320.1,126.782,319.817,126.948,319.779Z" transform="translate(-15.921 -233.937)" fill="#263238"/>
        <path id="Path_26928" data-name="Path 26928" d="M74.76,346.6l1,11.312L79.131,396.1h29.909l4.231-38.192,1.24-11.312Z" transform="translate(-30.402 -226.055)" fill="#455a64"/>
        <path id="Path_26929" data-name="Path 26929" d="M74.76,346.6l1,11.312h37.515l1.24-11.312Z" transform="translate(-30.402 -226.055)" fill="#263238"/>
        <rect id="Rectangle_8290" data-name="Rectangle 8290" width="45.682" height="9.177" transform="translate(87.074 126.642) rotate(180)" fill="#455a64"/>
      </g>
      <g id="freepik--Floor--inject-135" transform="translate(39.97 489.106)">
        <path id="Path_26930" data-name="Path 26930" d="M39.97,385.349l67.117-.32,67.117-.1,134.222-.217,134.222.217,67.117.1,67.117.32-67.117.307-67.117.115-134.222.217L174.2,385.771l-67.117-.115Z" transform="translate(-39.97 -384.71)" fill="#263238"/>
      </g>
      <g id="freepik--Device--inject-135" transform="translate(150.276 93.649)">
        <path id="Path_26931" data-name="Path 26931" d="M353.787,75.32H147.169a21.1,21.1,0,0,0-20.9,21.32v425.3a21.1,21.1,0,0,0,20.9,21.282H353.787a21.115,21.115,0,0,0,20.924-21.282V96.64A21.116,21.116,0,0,0,353.787,75.32Zm7.848,433.47c0,11.2-8.385,20.246-18.725,20.246H158.071c-10.366,0-18.751-9.049-18.751-20.246V112.732c0-22.8,8.385-23.915,18.751-23.915h37.067c2.16,0,3.911,2.441,3.911,5.471v1.278c0,7.094,3.835,7.119,8.653,7.119h85.638c4.819,0,8.679,0,8.679-7.119V94.288c0-3.029,1.738-5.471,3.924-5.471h37.067c10.34,0,18.725,3.029,18.725,23.915Z" transform="translate(-126.269 -75.32)" fill="#263238"/>
        <path id="Path_26932" data-name="Path 26932" d="M358.794,109.795V505.852c0,11.2-8.385,20.246-18.725,20.246H155.231c-10.366,0-18.751-9.049-18.751-20.246V109.795c0-22.8,8.385-23.915,18.751-23.915H192.3c2.16,0,3.911,2.441,3.911,5.471v1.278c0,7.094,3.835,7.119,8.653,7.119H290.5c4.819,0,8.679,0,8.679-7.119V91.351c0-3.029,1.738-5.471,3.924-5.471h37.067C350.409,85.88,358.794,88.909,358.794,109.795Z" transform="translate(-123.429 -72.382)" fill="#fff"/>
        <g id="freepik--u5Zjqx--inject-135" transform="translate(54.452 20.758)">
          <path id="Path_26933" data-name="Path 26933" d="M176.859,93.2c-.115.115-.243.23-.358.358l-.2.192a4.819,4.819,0,0,0-3.426-1.419,4.755,4.755,0,0,0-3.451,1.432l-.192-.2c-.128-.115-.243-.243-.358-.358h0c.153-.128.294-.268.46-.4a4.922,4.922,0,0,1,.984-.677,5.432,5.432,0,0,1,1.393-.473l.69-.089h1.086a5.381,5.381,0,0,1,1.278.307,6.53,6.53,0,0,1,.856.4,6.389,6.389,0,0,1,.831.575l.371.345Z" transform="translate(-168.87 -91.56)" fill="#fff"/>
          <path id="Path_26934" data-name="Path 26934" d="M170.292,94.531l-.562-.55a4.065,4.065,0,0,1,5.765,0l-.575.562a3.234,3.234,0,0,0-2.3-.959A3.3,3.3,0,0,0,170.292,94.531Z" transform="translate(-168.631 -91.22)" fill="#fff"/>
          <path id="Path_26935" data-name="Path 26935" d="M174.109,94.758l-.562.562a1.649,1.649,0,0,0-2.365,0l-.562-.562a2.454,2.454,0,0,1,3.489,0Z" transform="translate(-168.383 -90.873)" fill="#fff"/>
          <path id="Path_26936" data-name="Path 26936" d="M172.617,95.553a.5.5,0,0,1-.5.5.511.511,0,1,1,0-1.01.5.5,0,0,1,.5.511Z" transform="translate(-168.131 -90.593)" fill="#fff"/>
        </g>
        <path id="Path_26937" data-name="Path 26937" d="M147.83,94a1.47,1.47,0,1,1,.435,1.057A1.47,1.47,0,0,1,147.83,94Z" transform="translate(-120.271 -70.53)" fill="#fff"/>
        <path id="Path_26938" data-name="Path 26938" d="M151.46,94a1.47,1.47,0,1,1,1.47,1.483A1.47,1.47,0,0,1,151.46,94Z" transform="translate(-119.261 -70.53)" fill="#fff"/>
        <path id="Path_26939" data-name="Path 26939" d="M155.09,94a1.483,1.483,0,1,1,1.47,1.483A1.483,1.483,0,0,1,155.09,94Z" transform="translate(-118.252 -70.535)" fill="#fff"/>
        <path id="Path_26940" data-name="Path 26940" d="M158.72,94a1.483,1.483,0,1,1,1.47,1.483A1.483,1.483,0,0,1,158.72,94Z" transform="translate(-117.242 -70.535)" fill="#fff"/>
        <path id="Path_26941" data-name="Path 26941" d="M162.35,94a1.483,1.483,0,1,1,1.47,1.483A1.483,1.483,0,0,1,162.35,94Z" transform="translate(-116.232 -70.535)" fill="#fff"/>
        <path id="Path_26942" data-name="Path 26942" d="M299.977,97.41H288V91.85h12ZM288.588,96.8h10.775V92.464H288.588Z" transform="translate(-81.279 -70.722)" fill="#fff"/>
        <rect id="Rectangle_8291" data-name="Rectangle 8291" width="7.733" height="3.668" transform="translate(207.693 22.074)" fill="#fff"/>
        <rect id="Rectangle_8292" data-name="Rectangle 8292" width="1.061" height="2.978" transform="translate(218.698 22.419)" fill="#fff"/>
        <path id="Path_26943" data-name="Path 26943" d="M237.987,90.449H214.634A1.432,1.432,0,0,1,213.19,89h0a1.444,1.444,0,0,1,1.444-1.444h23.352A1.457,1.457,0,0,1,239.431,89h0a1.444,1.444,0,0,1-1.444,1.444Z" transform="translate(-102.089 -71.915)" fill="#fff"/>
        <rect id="Rectangle_8293" data-name="Rectangle 8293" width="177.118" height="176.197" transform="translate(35.65 172.516)" fill="#fff"/>
        <path id="Path_26954" data-name="Path 26954" d="M331.322,386.524,154.2,386.6h-.077v-.077L154,210.326v-.166h.153l177.118.077h.089v.089Zm0,0-.077-176.2.077.077L154.2,210.48l.166-.153-.077,176.2-.089-.077Z" transform="translate(-118.555 -37.81)" fill="#dbdbdb"/>
        <path id="Path_26955" data-name="Path 26955" d="M167.354,228.58a.422.422,0,1,1-.844,0v-4.486h0a.422.422,0,0,1,.179-.345.4.4,0,0,1,.575.09l2.429,3.451v-3.2a.422.422,0,1,1,.844,0v4.461a.422.422,0,0,1-.741.268h0l-2.441-3.451Z" transform="translate(-115.075 -34.054)" fill="#a6a6a6"/>
        <path id="Path_26956" data-name="Path 26956" d="M174.407,226.77v1.5a.409.409,0,0,1-.409.409.4.4,0,0,1-.4-.332,1.687,1.687,0,0,1-1.023.332,1.815,1.815,0,0,1-1.278-.562,2.032,2.032,0,0,1,0-2.7,1.777,1.777,0,0,1,2.339-.243.4.4,0,0,1,.4-.332.409.409,0,0,1,.409.409Zm-.818,0a1.138,1.138,0,0,0-.294-.792.933.933,0,0,0-.716-.32.9.9,0,0,0-.716.32,1.2,1.2,0,0,0,0,1.572.933.933,0,0,0,.716.307.971.971,0,0,0,.716-.307,1.15,1.15,0,0,0,.32-.78Z" transform="translate(-113.884 -33.726)" fill="#a6a6a6"/>
        <path id="Path_26957" data-name="Path 26957" d="M178,226.423v1.841a.409.409,0,0,1-.409.409.422.422,0,0,1-.422-.409v-1.841a.78.78,0,1,0-1.559,0v1.815h0a.435.435,0,0,1-.383.243h-.077a.435.435,0,0,1-.332-.409v-1.623h0V225.26a.409.409,0,0,1,.409-.409.383.383,0,0,1,.371.23,1.546,1.546,0,0,1,.818-.23,1.6,1.6,0,0,1,1.278.524,1.559,1.559,0,0,1,1.2-.524,1.6,1.6,0,0,1,1.6,1.611v1.815a.409.409,0,0,1-.818,0v-1.828a.792.792,0,0,0-1.572,0Z" transform="translate(-112.763 -33.724)" fill="#a6a6a6"/>
        <path id="Path_26958" data-name="Path 26958" d="M180.3,226.757a1.892,1.892,0,0,1,1.866-1.917,1.828,1.828,0,0,1,1.853,1.777v.115a.384.384,0,0,1-.409.307h-2.416a1.01,1.01,0,0,0,.268.5,1.061,1.061,0,0,0,.729.345,1.2,1.2,0,0,0,.805-.192.435.435,0,0,1,.575,0,.345.345,0,0,1,0,.5,1.93,1.93,0,0,1-1.38.5,1.892,1.892,0,0,1-1.892-1.93Zm.831-.371H183.3a1.278,1.278,0,0,0-1.138-.818,1.074,1.074,0,0,0-.971.818Z" transform="translate(-111.239 -33.726)" fill="#a6a6a6"/>
        <rect id="Rectangle_8294" data-name="Rectangle 8294" width="147.157" height="12.386" transform="translate(50.63 199.614)" fill="#d4dee3" opacity="0.5"/>
        <path id="Path_26959" data-name="Path 26959" d="M166.51,254.829v-4.538a.409.409,0,0,1,.422-.422h2.556a.428.428,0,1,1,0,.856h-2.071v1.406h1.789a.422.422,0,0,1,0,.844h-1.789v1.419h2.071a.435.435,0,1,1,0,.856h-2.48a.422.422,0,0,1-.5-.422Z" transform="translate(-115.075 -26.764)" fill="#a6a6a6"/>
        <path id="Path_26960" data-name="Path 26960" d="M173.213,252.7h0v1.828a.422.422,0,0,1-.409.409.435.435,0,0,1-.422-.409V252.7h0a.78.78,0,1,0-1.559,0v1.828h0a.447.447,0,0,1-.383.243h-.077a.409.409,0,0,1-.332-.4v-1.828h0v-1.189a.409.409,0,0,1,.409-.422.4.4,0,0,1,.371.23,1.687,1.687,0,0,1,.831-.23,1.6,1.6,0,0,1,1.2.537,1.559,1.559,0,0,1,1.2-.537,1.611,1.611,0,0,1,1.6,1.611v1.828a.409.409,0,0,1-.409.409.422.422,0,0,1-.409-.409v-1.828a.792.792,0,0,0-1.572,0Z" transform="translate(-114.096 -26.466)" fill="#a6a6a6"/>
        <path id="Path_26961" data-name="Path 26961" d="M179.056,253v1.508a.409.409,0,0,1-.409.409.435.435,0,0,1-.4-.332,1.764,1.764,0,0,1-2.326-.23A1.969,1.969,0,0,1,175.4,253a1.943,1.943,0,0,1,.524-1.355,1.79,1.79,0,0,1,1.278-.575,1.7,1.7,0,0,1,1.023.345.435.435,0,0,1,.4-.345.409.409,0,0,1,.409.422Zm-.818,0a1.163,1.163,0,0,0-.294-.792.959.959,0,0,0-.716-.32.933.933,0,0,0-.716.32,1.163,1.163,0,0,0-.294.792,1.189,1.189,0,0,0,.294.793.959.959,0,0,0,.716.294.984.984,0,0,0,.716-.294,1.189,1.189,0,0,0,.294-.792Z" transform="translate(-112.602 -26.43)" fill="#a6a6a6"/>
        <path id="Path_26962" data-name="Path 26962" d="M180.271,250.445a.409.409,0,0,1-.409.422.422.422,0,0,1-.422-.422v-.166a.415.415,0,0,1,.831,0Zm0,1.393v2.991a.409.409,0,0,1-.409.422.422.422,0,0,1-.422-.422v-2.991a.422.422,0,0,1,.422-.422.409.409,0,0,1,.409.422Z" transform="translate(-111.478 -26.763)" fill="#a6a6a6"/>
        <path id="Path_26963" data-name="Path 26963" d="M181.462,249.87a.435.435,0,0,1,.435.422v4.538a.435.435,0,0,1-.856,0v-4.538a.422.422,0,0,1,.422-.422Z" transform="translate(-111.033 -26.763)" fill="#a6a6a6"/>
        <path id="Path_26964" data-name="Path 26964" d="M187.636,253v1.508a.409.409,0,0,1-.409.409.435.435,0,0,1-.4-.332,1.764,1.764,0,0,1-2.326-.23A1.969,1.969,0,0,1,183.98,253a1.943,1.943,0,0,1,.524-1.355,1.789,1.789,0,0,1,1.278-.575,1.7,1.7,0,0,1,1.023.345.435.435,0,0,1,.4-.345.409.409,0,0,1,.409.422Zm-.818,0a1.163,1.163,0,0,0-.256-.741.984.984,0,0,0-.716-.32.933.933,0,0,0-.716.32,1.163,1.163,0,0,0-.294.792,1.189,1.189,0,0,0,.294.793.959.959,0,0,0,.716.294,1.01,1.01,0,0,0,.716-.294,1.189,1.189,0,0,0,.256-.844Z" transform="translate(-110.215 -26.43)" fill="#a6a6a6"/>
        <path id="Path_26965" data-name="Path 26965" d="M191.518,254.813a.411.411,0,0,1-.818.09,1.955,1.955,0,0,1-1.048.332,1.917,1.917,0,1,1,1.035-3.515v-1.444a.422.422,0,0,1,.831,0v3.042h0Zm-1.866-2.556a1.023,1.023,0,0,0-.729.307,1.1,1.1,0,0,0-.307.78,1.112,1.112,0,0,0,.307.767,1.023,1.023,0,0,0,.729.307,1,1,0,0,0,.716-.307,1.125,1.125,0,0,0,.32-.767,1.112,1.112,0,0,0-.32-.78,1,1,0,0,0-.716-.332Z" transform="translate(-109.112 -26.748)" fill="#a6a6a6"/>
        <path id="Path_26966" data-name="Path 26966" d="M194.345,251.487a.4.4,0,0,1-.4.409.7.7,0,0,0-.46.141,1.1,1.1,0,0,0-.358.371,2.1,2.1,0,0,0-.32.652v1.457a.422.422,0,0,1-.831,0v-3.029a.422.422,0,0,1,.831,0h0l.166-.153a1.687,1.687,0,0,1,.971-.294.4.4,0,0,1,.4.447Z" transform="translate(-107.99 -26.438)" fill="#a6a6a6"/>
        <path id="Path_26967" data-name="Path 26967" d="M194.11,252.987a1.9,1.9,0,0,1,1.879-1.917,1.815,1.815,0,0,1,1.841,1.789v.1a.383.383,0,0,1-.4.307h-2.454a1.048,1.048,0,0,0,.268.511,1.278,1.278,0,0,0,1.534.153.435.435,0,0,1,.575,0,.345.345,0,0,1,0,.5,1.93,1.93,0,0,1-1.368.511,1.9,1.9,0,0,1-1.879-1.956Zm.831-.371h2.186a1.278,1.278,0,0,0-1.138-.818,1.086,1.086,0,0,0-1.048.818Z" transform="translate(-107.397 -26.43)" fill="#a6a6a6"/>
        <path id="Path_26968" data-name="Path 26968" d="M197.86,253.818a.4.4,0,0,1,.575-.064,1.355,1.355,0,0,0,.844.332,1.061,1.061,0,0,0,.524-.141.307.307,0,0,0,.128-.23.14.14,0,0,0,0-.077.243.243,0,0,0-.1-.089,1.842,1.842,0,0,0-.614-.217h0a3.117,3.117,0,0,1-.665-.2,1.278,1.278,0,0,1-.537-.447.984.984,0,0,1-.128-.486,1.086,1.086,0,0,1,.46-.844,1.674,1.674,0,0,1,.933-.281,2.045,2.045,0,0,1,1.163.422.435.435,0,0,1,.115.575.409.409,0,0,1-.562.1,1.278,1.278,0,0,0-.716-.281.793.793,0,0,0-.46.141.23.23,0,0,0-.115.166.09.09,0,0,0,0,.064.179.179,0,0,0,.089.077,1.469,1.469,0,0,0,.562.192h0a2.761,2.761,0,0,1,.716.23,1.138,1.138,0,0,1,.537.447.92.92,0,0,1,.153.511,1.125,1.125,0,0,1-.486.895,1.764,1.764,0,0,1-1,.307,2.275,2.275,0,0,1-1.368-.537.4.4,0,0,1-.051-.562Z" transform="translate(-106.38 -26.43)" fill="#a6a6a6"/>
        <path id="Path_26969" data-name="Path 26969" d="M200.751,253.818a.4.4,0,0,1,.575-.064,1.406,1.406,0,0,0,.844.332.984.984,0,0,0,.524-.141.294.294,0,0,0,.141-.23.141.141,0,0,0,0-.077l-.1-.089a1.649,1.649,0,0,0-.614-.217h0a3.5,3.5,0,0,1-.677-.2,1.278,1.278,0,0,1-.524-.447.857.857,0,0,1-.128-.486,1.074,1.074,0,0,1,.447-.844,1.688,1.688,0,0,1,.946-.281,1.955,1.955,0,0,1,1.15.422.406.406,0,1,1-.447.677,1.278,1.278,0,0,0-.7-.281.793.793,0,0,0-.46.141c-.1.064-.128.128-.128.166v.064a.14.14,0,0,0,.077.077,1.56,1.56,0,0,0,.562.192h0a2.556,2.556,0,0,1,.716.23,1.163,1.163,0,0,1,.55.447,1.023,1.023,0,0,1,.141.511,1.125,1.125,0,0,1-.486.895,1.713,1.713,0,0,1-1,.307,2.275,2.275,0,0,1-1.368-.537.409.409,0,0,1-.038-.562Z" transform="translate(-105.576 -26.43)" fill="#a6a6a6"/>
        <rect id="Rectangle_8295" data-name="Rectangle 8295" width="147.157" height="12.386" transform="translate(50.63 233.14)" fill="#d4dee3" opacity="0.5"/>
        <path id="Path_26970" data-name="Path 26970" d="M170.327,276.811l-1.585,2.16v2.1a.409.409,0,0,1-.422.422.422.422,0,0,1-.422-.422V279l-1.559-2.16a.409.409,0,0,1,.089-.588.4.4,0,0,1,.575.089l1.278,1.8,1.278-1.8a.409.409,0,0,1,.588-.089.422.422,0,0,1,.179.562Z" transform="translate(-115.147 -19.449)" fill="#a6a6a6"/>
        <path id="Path_26971" data-name="Path 26971" d="M169.807,280.582a1.917,1.917,0,0,1-.537-1.355,1.994,1.994,0,0,1,.537-1.342,1.8,1.8,0,0,1,1.278-.575,1.674,1.674,0,0,1,1.278.575,1.956,1.956,0,0,1,.55,1.342,1.866,1.866,0,0,1-.55,1.355,1.687,1.687,0,0,1-1.278.588A1.8,1.8,0,0,1,169.807,280.582Zm.307-1.355a1.278,1.278,0,0,0,.268.818,1.01,1.01,0,0,0,.741.281.958.958,0,0,0,.7-.281,1.2,1.2,0,0,0,.307-.818,1.15,1.15,0,0,0-.307-.792,1.087,1.087,0,0,0-.7-.294,1.137,1.137,0,0,0-.741.294,1.278,1.278,0,0,0-.268.792Z" transform="translate(-114.307 -19.13)" fill="#a6a6a6"/>
        <path id="Path_26972" data-name="Path 26972" d="M174.608,281.147a1.6,1.6,0,0,1-1.6-1.6v-1.841a.409.409,0,1,1,.818,0v1.841a.78.78,0,0,0,.78.78.792.792,0,0,0,.805-.78v-1.841a.4.4,0,0,1,.4-.4.435.435,0,0,1,.422.4v1.841a1.623,1.623,0,0,1-1.623,1.6Z" transform="translate(-113.267 -19.133)" fill="#a6a6a6"/>
        <path id="Path_26973" data-name="Path 26973" d="M179.115,277.7a.409.409,0,0,1-.409.409.767.767,0,0,0-.46.153,1.151,1.151,0,0,0-.345.358,2.4,2.4,0,0,0-.32.652v1.47a.422.422,0,0,1-.831,0v-3.029a.422.422,0,0,1,.831,0v.064a.906.906,0,0,1,.166-.153,1.649,1.649,0,0,1,.959-.307.4.4,0,0,1,.409.384Z" transform="translate(-112.226 -19.127)" fill="#a6a6a6"/>
        <path id="Path_26974" data-name="Path 26974" d="M184.4,278.909v1.853a.409.409,0,0,1-.409.409.422.422,0,0,1-.422-.409v-1.841a.78.78,0,0,0-1.559.026v1.892h0a.435.435,0,0,1-.383.243h-.077a.435.435,0,0,1-.332-.409v-1.815h0v-1.189a.409.409,0,0,1,.409-.409.384.384,0,0,1,.371.23,1.521,1.521,0,0,1,.818-.23,1.6,1.6,0,0,1,1.214.524,1.559,1.559,0,0,1,1.2-.524,1.6,1.6,0,0,1,1.6,1.611v1.892a.409.409,0,1,1-.818,0v-1.815a.792.792,0,0,0-1.572,0Z" transform="translate(-110.983 -19.144)" fill="#a6a6a6"/>
        <path id="Path_26975" data-name="Path 26975" d="M186.7,279.227a1.892,1.892,0,0,1,1.866-1.917,1.841,1.841,0,0,1,1.853,1.777v.1a.371.371,0,0,1-.409.307h-2.441a1,1,0,0,0,.268.511,1.125,1.125,0,0,0,.729.345,1.2,1.2,0,0,0,.805-.192.447.447,0,0,1,.575,0,.345.345,0,0,1,0,.5,1.968,1.968,0,0,1-1.38.511,1.892,1.892,0,0,1-1.866-1.943Zm.831-.383H189.7a1.278,1.278,0,0,0-1.138-.805,1.074,1.074,0,0,0-1.035.805Z" transform="translate(-109.458 -19.13)" fill="#a6a6a6"/>
        <path id="Path_26976" data-name="Path 26976" d="M190.439,280.045a.409.409,0,0,1,.575-.064,1.432,1.432,0,0,0,.844.345.984.984,0,0,0,.524-.153.294.294,0,0,0,.141-.23.141.141,0,0,0,0-.077l-.1-.089a1.649,1.649,0,0,0-.614-.217h0a2.784,2.784,0,0,1-.677-.192,1.354,1.354,0,0,1-.524-.447.9.9,0,0,1-.128-.486,1.061,1.061,0,0,1,.447-.844,1.585,1.585,0,0,1,.946-.281,1.879,1.879,0,0,1,1.15.422.4.4,0,1,1-.447.665,1.368,1.368,0,0,0-.7-.281.793.793,0,0,0-.46.141.23.23,0,0,0-.128.179.077.077,0,0,0,0,.064l.077.077a1.6,1.6,0,0,0,.562.179h0a2.557,2.557,0,0,1,.716.217,1.189,1.189,0,0,1,.55.46.984.984,0,0,1,.141.5,1.1,1.1,0,0,1-.486.895,1.713,1.713,0,0,1-1,.307,2.2,2.2,0,0,1-1.368-.524.422.422,0,0,1-.038-.562Z" transform="translate(-108.443 -19.13)" fill="#a6a6a6"/>
        <path id="Path_26977" data-name="Path 26977" d="M193.337,280.045a.409.409,0,0,1,.575-.064,1.367,1.367,0,0,0,.844.345,1.061,1.061,0,0,0,.524-.153.332.332,0,0,0,.141-.23.141.141,0,0,0,0-.077.4.4,0,0,0-.1-.089,1.65,1.65,0,0,0-.613-.217h0a2.851,2.851,0,0,1-.665-.192,1.38,1.38,0,0,1-.537-.447,1.022,1.022,0,0,1-.128-.486,1.074,1.074,0,0,1,.46-.844,1.585,1.585,0,0,1,.946-.281,1.918,1.918,0,0,1,1.15.422.409.409,0,0,1,.115.562.4.4,0,0,1-.562.1,1.368,1.368,0,0,0-.7-.281.754.754,0,0,0-.46.141.23.23,0,0,0-.128.179.115.115,0,0,0,0,.064l.089.077a1.508,1.508,0,0,0,.562.179h0a2.736,2.736,0,0,1,.716.217,1.163,1.163,0,0,1,.537.46.882.882,0,0,1,.153.5,1.1,1.1,0,0,1-.486.895,1.764,1.764,0,0,1-1,.307,2.2,2.2,0,0,1-1.368-.524.422.422,0,0,1-.064-.562Z" transform="translate(-107.634 -19.13)" fill="#a6a6a6"/>
        <path id="Path_26978" data-name="Path 26978" d="M199.79,279.224v1.521a.409.409,0,0,1-.409.409.4.4,0,0,1-.4-.332,1.687,1.687,0,0,1-1.023.332,1.79,1.79,0,0,1-1.278-.562,1.943,1.943,0,0,1-.524-1.355,1.917,1.917,0,0,1,.524-1.342,1.751,1.751,0,0,1,1.278-.575,1.777,1.777,0,0,1,1.023.332.4.4,0,0,1,.4-.332.409.409,0,0,1,.409.409Zm-.818,0a1.163,1.163,0,0,0-.294-.792.971.971,0,0,0-.716-.307.933.933,0,0,0-.716.307,1.278,1.278,0,0,0,0,1.585.971.971,0,0,0,.716.307,1.023,1.023,0,0,0,.716-.307,1.163,1.163,0,0,0,.243-.793Z" transform="translate(-106.827 -19.127)" fill="#a6a6a6"/>
        <path id="Path_26979" data-name="Path 26979" d="M203.8,279.253v1.419a1.853,1.853,0,0,1-1.841,1.853,1.917,1.917,0,0,1-.805-.192.42.42,0,0,1,.371-.754.856.856,0,0,0,.435.115,1.035,1.035,0,0,0,1.01-.831,1.7,1.7,0,0,1-1.01.32,1.777,1.777,0,0,1-1.278-.588,1.93,1.93,0,0,1-.537-1.355,2.019,2.019,0,0,1,.537-1.368,1.8,1.8,0,0,1,1.278-.562,1.751,1.751,0,0,1,1.035.32.407.407,0,0,1,.805.077v1.534Zm-.818,0a1.188,1.188,0,0,0-.294-.78.933.933,0,0,0-.729-.332.908.908,0,0,0-.7.332,1.163,1.163,0,0,0,0,1.572.933.933,0,0,0,.7.32.971.971,0,0,0,.729-.32,1.2,1.2,0,0,0,.332-.805Z" transform="translate(-105.72 -19.13)" fill="#a6a6a6"/>
        <path id="Path_26980" data-name="Path 26980" d="M204.1,279.227a1.9,1.9,0,0,1,1.879-1.917,1.841,1.841,0,0,1,1.828,1.777h0a.358.358,0,0,1-.4.307h-2.441a.971.971,0,0,0,.256.511,1.278,1.278,0,0,0,1.534.153.447.447,0,0,1,.575,0,.345.345,0,0,1,0,.5,1.93,1.93,0,0,1-1.368.511,1.9,1.9,0,0,1-1.866-1.841Zm.844-.383h2.173a1.278,1.278,0,0,0-1.138-.805A1.061,1.061,0,0,0,204.944,278.844Z" transform="translate(-104.618 -19.13)" fill="#a6a6a6"/>
        <rect id="Rectangle_8296" data-name="Rectangle 8296" width="147.157" height="63.206" transform="translate(50.63 266.68)" fill="#d4dee3" opacity="0.5"/>
        <path id="Path_26981" data-name="Path 26981" d="M225.634,169.625a12.782,12.782,0,0,1-2.173-7.03c0-8.947,9.778-16.105,21.819-16.105s21.806,7.209,21.806,16.105S257.32,178.7,245.28,178.7a26.216,26.216,0,0,1-15.044-4.448l-7.516,1.9Z" transform="translate(-99.438 -55.522)" fill="#e89300"/>
        <path id="Path_26982" data-name="Path 26982" d="M241.134,151.746a15.823,15.823,0,0,0,2.71-8.756c0-11.082-12.181-20.08-27.187-20.08s-27.187,8.947-27.187,20.08,12.168,20.08,27.187,20.08a32.7,32.7,0,0,0,18.751-5.535l9.369,2.377Z" transform="translate(-108.688 -62.081)" fill="#fff"/>
        <path id="Path_26983" data-name="Path 26983" d="M241.234,151.838a15.977,15.977,0,0,0,2.556-8.283,15.453,15.453,0,0,0-2.288-8.308,24.72,24.72,0,0,0-13.74-10.149,36.326,36.326,0,0,0-17.243-1.125,28.542,28.542,0,0,0-15.338,7.541,17.792,17.792,0,0,0-4.486,7.222,14.545,14.545,0,0,0-.115,8.423,17.894,17.894,0,0,0,4.371,7.311,25.564,25.564,0,0,0,7.017,5.01,31.711,31.711,0,0,0,8.257,2.684,36.684,36.684,0,0,0,8.692.588,32.018,32.018,0,0,0,16.425-5.317h.179l9.344,2.556-.128.141Zm0,0,3.732,8.116.089.192h-.2l-9.395-2.275h.179a32.44,32.44,0,0,1-16.616,5.65,34.92,34.92,0,0,1-17.383-3.336,26.126,26.126,0,0,1-7.273-5.113,18.623,18.623,0,0,1-4.627-7.669,15.338,15.338,0,0,1,.09-8.947,18.726,18.726,0,0,1,4.742-7.592,26.356,26.356,0,0,1,7.337-5.113,32.107,32.107,0,0,1,8.513-2.646,37.579,37.579,0,0,1,8.883-.435,36.659,36.659,0,0,1,8.7,1.751,28.6,28.6,0,0,1,7.912,4.052A21.18,21.18,0,0,1,241.9,135a15.53,15.53,0,0,1-.665,16.8Z" transform="translate(-108.787 -62.174)" fill="#dbdbdb"/>
        <rect id="Rectangle_8297" data-name="Rectangle 8297" width="75.771" height="22.969" transform="translate(86.33 367.196)" fill="#e27e28"/>
        <path id="Path_26984" data-name="Path 26984" d="M209.547,375.212a.792.792,0,0,1,1.112-.1,4.96,4.96,0,0,0,2.927,1.176,3.336,3.336,0,0,0,1.917-.562,1.368,1.368,0,0,0,.665-1.1.907.907,0,0,0-.141-.5,1.419,1.419,0,0,0-.46-.46,6.11,6.11,0,0,0-2.1-.716h0a8.067,8.067,0,0,1-1.968-.6,3.2,3.2,0,0,1-1.432-1.189,2.39,2.39,0,0,1-.358-1.278,2.838,2.838,0,0,1,1.278-2.237,4.55,4.55,0,0,1,2.659-.805,5.943,5.943,0,0,1,3.336,1.278.792.792,0,0,1-.869,1.278,4.423,4.423,0,0,0-2.467-.984,2.9,2.9,0,0,0-1.713.524,1.2,1.2,0,0,0-.588.959.754.754,0,0,0,.1.435,1.6,1.6,0,0,0,.422.4,5.112,5.112,0,0,0,1.917.677h0a8.949,8.949,0,0,1,2.122.639,3.579,3.579,0,0,1,1.534,1.278,2.429,2.429,0,0,1,.358,1.278,2.991,2.991,0,0,1-1.278,2.377,4.793,4.793,0,0,1-2.838.869,6.633,6.633,0,0,1-3.924-1.534.818.818,0,0,1-.217-1.1Z" transform="translate(-103.137 5.775)" fill="#fff"/>
        <path id="Path_26985" data-name="Path 26985" d="M217.23,373.315a3.835,3.835,0,0,1,3.745-3.835,3.681,3.681,0,0,1,3.694,3.566v.077a.576.576,0,0,1,0,.141.741.741,0,0,1-.805.6h-4.883a2.019,2.019,0,0,0,.524,1.023,2.441,2.441,0,0,0,1.47.69,2.633,2.633,0,0,0,1.6-.383.869.869,0,0,1,1.15,0,.716.716,0,0,1,0,1,3.88,3.88,0,0,1-6.493-2.876Zm1.674-.741h4.346a2.556,2.556,0,0,0-2.275-1.636,2.147,2.147,0,0,0-2.071,1.636Z" transform="translate(-100.966 6.51)" fill="#fff"/>
        <path id="Path_26986" data-name="Path 26986" d="M231.383,372.7v3.668a.805.805,0,0,1-.793.805.831.831,0,0,1-.818-.805V372.7a1.572,1.572,0,0,0-1.585-1.547,1.521,1.521,0,0,0-1.534,1.547v3.668a.269.269,0,0,1,0,.153.831.831,0,0,1-.805.652.818.818,0,0,1-.818-.805v-6.046a.818.818,0,0,1,1.559-.332,3.08,3.08,0,0,1,1.636-.486,3.208,3.208,0,0,1,3.157,3.2Z" transform="translate(-98.796 6.515)" fill="#fff"/>
        <path id="Path_26987" data-name="Path 26987" d="M239.166,376.966a.844.844,0,0,1-.831.831.831.831,0,0,1-.805-.652,3.835,3.835,0,1,1-2.083-7.017,3.63,3.63,0,0,1,2.045.652v-2.889a.844.844,0,0,1,1.674,0v6.071h0Zm-3.72-5.113a1.981,1.981,0,0,0-1.444.626,2.2,2.2,0,0,0-.614,1.547,2.16,2.16,0,0,0,.614,1.521,1.981,1.981,0,0,0,1.444.626,1.956,1.956,0,0,0,1.432-.626,2.16,2.16,0,0,0,.613-1.521,2.2,2.2,0,0,0-.614-1.547,1.956,1.956,0,0,0-1.432-.677Z" transform="translate(-96.98 5.862)" fill="#fff"/>
        <text id="Check_Eligibility" data-name="Check Eligibility" transform="translate(41.694 157.781)" fill="#222" font-size="22" font-family="Quicksand-Bold, Quicksand" font-weight="700"><tspan x="0" y="0">Check Eligibility</tspan></text>
      </g>
      <g id="freepik--Character--inject-135" transform="translate(364.615 97.695)">
        <path id="Path_26988" data-name="Path 26988" d="M344.539,459.489c-2.441-1.751-50.181-67.744-50.4-71.438-.1-1.393,9.113-8.947,20.451-17.664,2.454-1.892,36.147-40.557,36.147-40.557l31.239,42.934-36.479,40.1s6.966,33.45,6.787,37.5S346.98,461.227,344.539,459.489Z" transform="translate(-293.909 -8.566)" fill="#ad6359"/>
        <path id="Path_26989" data-name="Path 26989" d="M344.539,453.338c-2.441-1.751-50.181-67.744-50.4-71.438-.1-1.393,9.113-8.947,20.451-17.664.856-.665,5.547-5.854,11.3-12.3l30.894,42.372L345.5,406.71s6.953,33.45,6.787,37.489S346.98,455.076,344.539,453.338Z" transform="translate(-293.909 -2.415)" fill="#ebebeb"/>
        <path id="Path_26990" data-name="Path 26990" d="M344.653,452.566c-2.454-1.764-50.463-68.14-50.693-71.834-.089-1.368,8.947-8.41,19.518-17.754,2.556-2.25,4.819-5.113,7.669-7.3l31.354,43.1-6.864,6.889s7,33.642,6.825,37.719S347.107,454.317,344.653,452.566Z" transform="translate(-293.959 -1.375)" fill="#00a3b1"/>
        <path id="Path_26991" data-name="Path 26991" d="M345.791,443.793c-7.784-11.325-40.212-56.24-48.75-66.874-.077-.089-.128,0-.077,0,7.465,11.389,40.25,56.074,48.635,66.951C345.778,444.151,345.944,444.036,345.791,443.793Z" transform="translate(-293.129 4.522)" fill="#263238"/>
        <path id="Path_26992" data-name="Path 26992" d="M339.972,397c-2.352-4.972-6.9-9.842-12.437-10.928a.207.207,0,0,0-.128.371,76.69,76.69,0,0,1,12,10.941.345.345,0,0,0,.562-.384Z" transform="translate(-284.677 7.079)" fill="#263238"/>
        <path id="Path_26993" data-name="Path 26993" d="M340.272,400.548c-2.352-4.972-6.9-9.829-12.437-10.928a.208.208,0,0,0-.128.371A76.039,76.039,0,0,1,339.7,400.932a.346.346,0,1,0,.575-.383Z" transform="translate(-284.593 8.067)" fill="#263238"/>
        <path id="Path_26994" data-name="Path 26994" d="M340.573,404.1c-2.352-4.959-6.9-9.829-12.437-10.928a.213.213,0,0,0-.128.383A75.409,75.409,0,0,1,340,404.482a.346.346,0,0,0,.575-.383Z" transform="translate(-284.511 9.054)" fill="#263238"/>
        <path id="Path_26995" data-name="Path 26995" d="M340.86,407.661c-2.339-4.972-6.889-9.842-12.437-10.941a.213.213,0,0,0-.115.383A76.532,76.532,0,0,1,340.3,408.032a.345.345,0,0,0,.562-.371Z" transform="translate(-284.428 10.042)" fill="#263238"/>
        <path id="Path_26996" data-name="Path 26996" d="M354.155,396.815c1.125-3.438-2.262-5.867-5.113-6.583a28.8,28.8,0,0,0-14.916.511c-.115,0-.115.128-.077.217a.665.665,0,0,0,0,1.074c3.95,2.659,7.848,5.969,12.5,7.324C349.209,400.151,353.094,400.061,354.155,396.815Zm-13.344-1.981c-1.981-1.278-3.835-2.556-5.905-3.835,2.914-.089,5.8-.307,8.717-.115a32.457,32.457,0,0,1,4.18.511c2.135.447,8.385,3.835,3.029,6.48C347.867,399.422,343.163,396.329,340.811,394.833Z" transform="translate(-282.883 8.03)" fill="#263238"/>
        <path id="Path_26997" data-name="Path 26997" d="M328.707,382.773c1.074,4.729,4.154,8.819,6.557,12.922a.652.652,0,0,0,1.074,0,.153.153,0,0,0,.23-.064,28.8,28.8,0,0,0,1.406-14.852c-.537-2.889-2.761-6.391-6.263-5.509C328.4,376.152,328.08,380.076,328.707,382.773Zm1.726-4.231c3.029-5.189,5.982,1.278,6.289,3.4a30.894,30.894,0,0,1,.256,4.218c0,2.914-.371,5.79-.626,8.692-1.061-2.1-2.288-4.077-3.426-6.123C331.544,386.288,328.732,381.354,330.432,378.542Z" transform="translate(-284.366 4.036)" fill="#263238"/>
        <path id="Path_26998" data-name="Path 26998" d="M369.188,329.858c-2.953,14.61-51.408,60.522-51.408,60.522l42.257,48.775s73.892-73.521,69.405-105.8C425.531,305.241,383.5,192.39,383.5,192.39H335.035S372.128,315.492,369.188,329.858Z" transform="translate(-287.333 -46.799)" fill="#263238"/>
        <path id="Path_26999" data-name="Path 26999" d="M369.188,329.858c-2.953,14.61-51.408,60.522-51.408,60.522l42.257,48.775s73.892-73.521,69.405-105.8C425.531,305.241,383.5,192.39,383.5,192.39H335.035S372.128,315.492,369.188,329.858Z" transform="translate(-287.333 -46.799)" fill="#37474f"/>
        <path id="Path_27000" data-name="Path 27000" d="M362.028,385.152c-5.611-6.979-3.911-5.113-9.6-11.977-2.786-3.4-21.116-25.653-24.285-28.35-.077-.064-.192,0-.141.115,2.109,3.579,20.822,25.564,23.672,28.836,5.828,6.826,4.231,4.806,10.123,11.5C361.938,385.459,362.13,385.293,362.028,385.152Z" transform="translate(-284.493 -4.401)" fill="#263238"/>
        <path id="Path_27001" data-name="Path 27001" d="M371.9,321.646c-.69-3.643-1.47-7.286-2.25-10.916q-2.365-11.12-5-22.176-5.253-21.959-11.4-43.637c-4.129-14.52-8.5-29-13.536-43.228-.614-1.764-1.278-3.515-1.9-5.266a.1.1,0,0,0-.2,0c4.359,14.252,8.845,28.465,12.935,42.806s7.835,28.631,11.389,43.036c1.777,7.247,3.438,14.507,5.113,21.729q1.189,5.368,2.326,10.737A74.265,74.265,0,0,1,371.4,325.8a16.77,16.77,0,0,1-2.85,9.957c-1.815,2.978-3.95,5.777-6.02,8.577-4.141,5.624-31.456,37.233-32.734,38.422-.089.089.064.23.153.141,5.228-4.64,26.586-28.491,30.791-34.115q3.144-4.154,6.161-8.436a32.849,32.849,0,0,0,4.819-8.487,19.9,19.9,0,0,0,.179-10.213Z" transform="translate(-283.998 -45.706)" fill="#263238"/>
        <path id="Path_27002" data-name="Path 27002" d="M371.387,192.39,362.58,307.912c-8.4-39.534-31.29-115.522-31.29-115.522Z" transform="translate(-283.575 -46.799)" fill="#263238"/>
        <path id="Path_27003" data-name="Path 27003" d="M451.477,458.526c-2.85.946-84.36.614-87.428-1.368-1.176-.729-1.815-12.616-2.186-26.97-.089-3.106-11.5-53.108-11.5-53.108l53.083.064,10.9,53.1s31.137,14.06,34.306,16.616S454.315,457.58,451.477,458.526Z" transform="translate(-278.27 4.578)" fill="#ad6359"/>
        <path id="Path_27004" data-name="Path 27004" d="M449.675,450.531c-2.838.946-84.36.614-87.4-1.368-1.189-.741-1.828-12.6-2.2-26.97,0-1.086-1.457-7.937-3.285-16.374H409.2l3.374,16.425s31.124,14.06,34.294,16.616S452.526,449.585,449.675,450.531Z" transform="translate(-276.481 12.573)" fill="#ebebeb"/>
        <path id="Path_27005" data-name="Path 27005" d="M449.709,449.183c-2.863.946-84.795.614-87.9-1.368-1.163-.741-1.534-12.194-2.838-26.228-.32-3.387-1.278-6.928-1.38-10.507h53.3l1.521,9.612s31.315,14.162,34.511,16.706S452.572,448.237,449.709,449.183Z" transform="translate(-276.259 14.036)" fill="#00a3b1"/>
        <path id="Path_27006" data-name="Path 27006" d="M449.709,449.183c-2.863.946-84.795.614-87.9-1.368-1.163-.741-1.534-12.194-2.838-26.228-.32-3.387-1.278-6.928-1.38-10.507h53.3l1.521,9.612s31.315,14.162,34.511,16.706S452.572,448.237,449.709,449.183Z" transform="translate(-276.259 14.036)" fill="#00a3b1"/>
        <path id="Path_27007" data-name="Path 27007" d="M446.778,438.409c-13.728-.4-69.15-.677-82.749,0-.115,0-.115.077,0,.077,13.6.69,69.022.524,82.749.166C447.1,438.626,447.1,438.422,446.778,438.409Z" transform="translate(-274.491 21.525)" fill="#263238"/>
        <path id="Path_27008" data-name="Path 27008" d="M405.531,416.349c-5.407-1.023-12.015-.23-16.156,3.6-.166.153,0,.383.217.32a76.6,76.6,0,0,1,15.939-3.234.345.345,0,0,0,0-.69Z" transform="translate(-267.436 15.389)" fill="#263238"/>
        <path id="Path_27009" data-name="Path 27009" d="M408.581,418.2c-5.394-1.023-12.015-.217-16.156,3.6-.166.153,0,.383.23.332a75.525,75.525,0,0,1,15.862-3.247.347.347,0,1,0,.064-.69Z" transform="translate(-266.587 15.904)" fill="#263238"/>
        <path id="Path_27010" data-name="Path 27010" d="M411.63,420.088c-5.407-1.023-12.015-.217-16.169,3.617-.153.141.064.371.23.32a75.8,75.8,0,0,1,15.913-3.247.345.345,0,1,0,.026-.69Z" transform="translate(-265.738 16.43)" fill="#263238"/>
        <path id="Path_27011" data-name="Path 27011" d="M414.671,421.91c-5.394-1.035-12.015-.23-16.156,3.6-.166.141,0,.371.23.32a75.528,75.528,0,0,1,15.9-3.247.345.345,0,0,0,.026-.677Z" transform="translate(-264.893 16.934)" fill="#263238"/>
        <path id="Path_27012" data-name="Path 27012" d="M413.488,406.884c-2.109-2.927-6.071-1.623-8.334.256a29.041,29.041,0,0,0-8.372,12.347.141.141,0,0,0,.128.192.67.67,0,0,0,.844.69c4.474-1.636,9.459-2.838,13.293-5.79C413.283,412.853,415.495,409.671,413.488,406.884Zm-9.459,9.612c-2.186.856-4.384,1.611-6.531,2.556a86.143,86.143,0,0,1,5.113-7.107,31.192,31.192,0,0,1,2.876-3.08c1.611-1.457,7.989-4.537,7.017,1.38-.614,3.259-5.88,5.228-8.474,6.212Z" transform="translate(-265.359 12.391)" fill="#263238"/>
        <path id="Path_27013" data-name="Path 27013" d="M387,417.308c4.448,1.9,9.574,1.841,14.3,2.313a.665.665,0,0,0,.652-.869.141.141,0,0,0,.077-.217,28.875,28.875,0,0,0-11.171-9.893c-2.659-1.278-6.813-1.547-8.142,1.815S384.446,416.183,387,417.308Zm-2.429-3.835c-2.4-5.5,4.538-4.077,6.455-3.068a30.472,30.472,0,0,1,3.553,2.275,84.836,84.836,0,0,1,6.647,5.624c-2.3-.371-4.627-.55-6.953-.844-2.71-.383-8.308-.984-9.65-4.026Z" transform="translate(-269.358 13.113)" fill="#263238"/>
        <path id="Path_27014" data-name="Path 27014" d="M385.354,192.4a199.994,199.994,0,0,0-4.167,24.2c-1.01,10.149-2.275,19.173-3.63,20.246s-9.19,6.174-11.772,7.759c0,0,23.889,72.422,30.063,96.567,8.947,35,27.264,120.149,27.264,120.149H366.066S351.8,381.2,344.222,347.838c-6.506-28.567-31.4-114.269-31.4-114.269a49.734,49.734,0,0,1,2.02-41.209S385.367,192.36,385.354,192.4Z" transform="translate(-289.694 -46.807)" fill="#37474f"/>
        <path id="Path_27015" data-name="Path 27015" d="M404.615,394.2c-8.359,0-5.956-.166-14.316-.115-4.09,0-30.958.179-34.767.92-.077,0-.077.166,0,.179,3.835.626,30.676,0,34.779-.153,8.359-.217,5.956-.243,14.3-.562C404.717,394.453,404.717,394.2,404.615,394.2Z" transform="translate(-276.847 9.305)" fill="#263238"/>
        <path id="Path_27016" data-name="Path 27016" d="M369.3,224.927a108.949,108.949,0,0,0-15.734,10.532.193.193,0,0,0,.217.32c5.33-3.336,10.788-6.6,15.939-10.225a.383.383,0,0,0-.422-.626Z" transform="translate(-277.401 -37.757)" fill="#263238"/>
        <path id="Path_27017" data-name="Path 27017" d="M364.416,194.121c0-.192-.409-.192-.371,0a191.714,191.714,0,0,1,2.007,19.173c.192,2.991.345,19.62-4.934,19.173-.895,0-1.457-.831-1.789-2.1a20.591,20.591,0,0,1-.1-5.113c0-3.489,0-6.979-.281-10.468a94.113,94.113,0,0,0-3.2-19.173.166.166,0,0,0-.32.077,179.518,179.518,0,0,1,2.556,26.842c0,4.333-1.125,11.031,3.4,10.992s5.867-11.159,5.969-14.162A98.921,98.921,0,0,0,364.416,194.121Z" transform="translate(-276.86 -46.357)" fill="#263238"/>
        <path id="Path_27018" data-name="Path 27018" d="M360.163,224.639a27.9,27.9,0,0,0-.614,3.553,7.58,7.58,0,0,0,0,2.838.2.2,0,0,0,.371,0,10.507,10.507,0,0,0,.767-2.876c.217-1.112.473-2.211.665-3.31a.6.6,0,1,0-1.189-.2Z" transform="translate(-275.751 -37.967)" fill="#263238"/>
        <path id="Path_27019" data-name="Path 27019" d="M352.643,392.954c-.166-1.6-.371-3.208-.575-4.806-.409-3.068-5.113-28.018-7.529-40.16-1.38-6.877-3-13.664-4.7-20.451-.115-.473-.741-.243-.665.217,1.035,6.212,2.032,12.424,3.221,18.61s7.784,37.949,8.41,41.388c.307,1.726.626,3.438.971,5.113s.831,3.387,1.1,5.113c0,.166.256.089.23-.077C352.848,396.3,352.822,394.667,352.643,392.954Z" transform="translate(-281.384 -9.276)" fill="#263238"/>
        <path id="Path_27020" data-name="Path 27020" d="M389.449,351.448c-1.892-9.471-4.461-18.8-7.03-28.12-5.189-18.713-11.286-37.157-17.37-55.6q-2.646-7.976-5.266-15.939c-.882-2.659-5.177-16.974-5.713-18.342a.115.115,0,0,0-.217.077c1.278,4.87,2.914,11.989,4.346,16.821s2.94,9.51,4.423,14.265c2.914,9.331,5.88,18.661,8.7,28.018,5.6,18.508,11.146,37.067,15.683,55.818,1.278,5.266,2.556,10.519,3.707,15.811s2.147,10.609,3.247,15.9a.141.141,0,0,0,.268,0C393.271,370.481,391.353,360.945,389.449,351.448Z" transform="translate(-277.301 -35.399)" fill="#263238"/>
        <path id="Path_27021" data-name="Path 27021" d="M365.422,411.821c-3.144-18.048-6.9-36.006-11.069-53.85s-8.845-35.789-13.983-53.441-10.877-35.2-17-52.584a221.9,221.9,0,0,1-7.8-25.014c-1.879-8.436-2.838-17.549-.869-26.062a42.727,42.727,0,0,1,1.956-6.391c0-.141-.153-.256-.217-.115-6.864,15.99-2.4,33.476,2.812,49.223,2.863,8.641,5.918,17.2,8.743,25.858q4.333,13.306,8.321,26.74c5.266,17.741,10.225,35.585,14.533,53.569S359.134,385.81,362.559,404s3.259,16.744,6.186,35.073c.383,2.39.69,4.78,1,7.183,0,.128.23.128.217,0C367.813,428.131,368.5,429.856,365.422,411.821Z" transform="translate(-288.68 -46.268)" fill="#263238"/>
        <path id="Path_27022" data-name="Path 27022" d="M397.807,87.892l-5.343,35.137c-.268,1.048.307,1.815,1.278,1.726l17.7-1.713a2.85,2.85,0,0,0,2.3-2.02L419.1,85.885c.268-1.048-.32-1.815-1.278-1.713l-17.7,1.7a2.85,2.85,0,0,0-2.313,2.02Z" transform="translate(-266.576 -76.906)" fill="#455a64"/>
        <path id="Path_27023" data-name="Path 27023" d="M399.46,87.732,394.1,122.869c-.268,1.048.32,1.815,1.278,1.713l17.779-1.7a2.876,2.876,0,0,0,2.288-2.058l5.343-35.137c.268-1.048-.32-1.815-1.278-1.726l-17.7,1.7a2.889,2.889,0,0,0-2.352,2.071Z" transform="translate(-266.119 -76.964)" fill="#37474f"/>
        <path id="Path_27024" data-name="Path 27024" d="M402.847,88.084a1.5,1.5,0,0,1-1.393,1.572,1.509,1.509,0,1,1,1.393-1.61Z" transform="translate(-264.509 -76.216)" fill="#263238"/>
        <path id="Path_27025" data-name="Path 27025" d="M358.749,134.521c11.887,20.451,40.084,48.072,49.414,47.382,4.435-.332,12.437,0,17.818-5.56,11.721-12.219,20.451-34.4,21.576-46.756.383-4.4-21.486-11.938-24.285-8.142-6.557,8.947-13.613,25.819-14.9,25.832-4.806,0-26.919-13.817-41.055-22.33C349.572,114.249,354.007,126.366,358.749,134.521Z" transform="translate(-277.111 -66.822)" fill="#ad6359"/>
        <path id="Path_27026" data-name="Path 27026" d="M429.179,115.534c-2.991-8.589-5.113-10.34-3.758-18.93.869-5.637-2.365-8.615-5.892-3.835-5.765,7.81-4.231,19.71-2.556,23.672Z" transform="translate(-260.164 -75.176)" fill="#ad6359"/>
        <path id="Path_27027" data-name="Path 27027" d="M434.008,141.247s2.85-12.59.575-22.061c-1.547-6.544-6.659-20.413-25.832-26.279-4.563-1.393-12.053-.141-5.419,4.832,4.7,3.541,8.756,4.371,11.12,6.928,0,0-9.343,2.71-10.558,7.337a87.458,87.458,0,0,0-2.313,12.309,17.478,17.478,0,0,0,2.262.652s-.729,4.423,2.94,10.225Z" transform="translate(-264.264 -74.622)" fill="#ad6359"/>
        <path id="Path_27028" data-name="Path 27028" d="M433.8,110.793c-2.889-2.032-9.062-6.263-15.338-7.963-6.953-1.879-20.847-3.643-22.176,1.508-.984,3.835,4.256,4.908,4.256,4.908s-5.892.486-6.033,4.077c-.128,3.285,3.975,3.924,3.975,3.924s-3.528.908-3.042,4.09c.588,3.835,7.886,1.278,11.823,4.665C408.162,126.77,433.8,110.793,433.8,110.793Z" transform="translate(-265.989 -72.237)" fill="#ad6359"/>
        <path id="Path_27029" data-name="Path 27029" d="M416.4,108.884a28.657,28.657,0,0,0-17.051-1.38c-.141,0-.192.166,0,.166a70.134,70.134,0,0,1,17.089,1.278Z" transform="translate(-264.677 -70.609)" fill="#263238"/>
        <path id="Path_27030" data-name="Path 27030" d="M414.748,114.161a32.2,32.2,0,0,0-17.1-.345c-.141,0-.179.166,0,.153a76.169,76.169,0,0,1,17.128.256A.325.325,0,0,1,414.748,114.161Z" transform="translate(-265.149 -68.932)" fill="#263238"/>
        <path id="Path_27031" data-name="Path 27031" d="M391.454,137.233l-13.089,28.35s-20.937-27.225-24.835-36.965c-4.384-10.967,2.186-10.813,12.539-6.468S391.454,137.233,391.454,137.233Z" transform="translate(-277.772 -67.106)" fill="#00a3b1"/>
        <path id="Path_27032" data-name="Path 27032" d="M391.454,137.233l-13.089,28.35s-20.937-27.225-24.835-36.965c-4.384-10.967,2.186-10.813,12.539-6.468S391.454,137.233,391.454,137.233Z" transform="translate(-277.772 -67.106)" opacity="0.1"/>
        <path id="Path_27033" data-name="Path 27033" d="M380.836,132.287c-2.147,3.387-7.183,14.443-8.04,16.271-.447.959-2.071,4.857-2.556,5.816,0,.115.141.192.192.064.869-1.815,1.93-3.553,2.812-5.368s6.391-12.884,7.669-16.706C381,132.275,380.887,132.211,380.836,132.287Z" transform="translate(-272.74 -63.528)" fill="#263238"/>
        <path id="Path_27034" data-name="Path 27034" d="M309.23,226.537l84.833,2.9C394,231.1,391.6,162.833,370.941,122.071c-1.406-2.786-14.635-6.174-20.707-.959C323.673,143.864,309.192,227.547,309.23,226.537Z" transform="translate(-289.712 -67.385)" fill="#00a3b1"/>
        <path id="Path_27035" data-name="Path 27035" d="M348.674,121.47l22.816.984a2.033,2.033,0,0,1,.192.371l-23.365-1Zm-6.314,7.465L375,130.315a2.279,2.279,0,0,0-.153-.371l-32.236-1.406Zm-4.55,7.158,40.045,1.7a1.068,1.068,0,0,0-.128-.371l-39.7-1.687Zm-3.835,7.2,46.3,1.968-.115-.383-46.015-1.943Zm-3.31,7.209,51.754,2.2a1.34,1.34,0,0,0-.1-.371l-51.5-2.173Zm-2.953,7.247,56.6,2.39a1.954,1.954,0,0,0-.089-.371l-56.368-2.39a2.009,2.009,0,0,1-.1.371Zm-2.671,7.235,60.931,2.556-.077-.371-60.726-2.556a1.045,1.045,0,0,1-.09.371Zm-2.454,7.247,64.868,2.748-.064-.371-64.676-2.735a2.946,2.946,0,0,1-.09.358Zm-2.25,7.26,68.434,2.9a3.734,3.734,0,0,0-.064-.371l-68.268-2.9A.734.734,0,0,1,320.337,179.487Zm-2.122,7.247,71.732,3.042a.712.712,0,0,0-.064-.358L318.3,186.389q-.017.174-.051.345Zm-1.956,7.273,74.7,3.17a3.381,3.381,0,0,0,0-.358l-74.569-3.093c-.026,0-.064.166-.089.281Zm-1.841,7.286,77.5,3.285a1.909,1.909,0,0,0,0-.371l-77.3-3.272a.981.981,0,0,0-.153.358Zm-1.713,7.286,79.925,3.374v-.345l-79.81-3.387Zm-1.611,7.286,82.225,3.426v-.371l-82.11-3.464Zm-1.5,7.286,84.194,3.566v-.371l-84.1-3.553q-.033.165-.051.332Z" transform="translate(-289.609 -66.528)" opacity="0.1"/>
        <path id="Path_27036" data-name="Path 27036" d="M359.418,135.215c-4.014,1.086-12.59-3.387-15.658-9.062-.217-.4.4-4.486.907-9.484.307-3.042.562-6.391.575-9.548,0-.626,19.492,4.832,19.492,4.832a49.35,49.35,0,0,0-1.943,11.938,6.886,6.886,0,0,0,.128,1.278.885.885,0,0,1,0,.2C363.354,127.8,363.725,134.039,359.418,135.215Z" transform="translate(-280.118 -70.533)" fill="#ad6359"/>
        <path id="Path_27037" data-name="Path 27037" d="M362.473,125.155v.2a13.941,13.941,0,0,1-1.994.1c-11.5-.307-14.443-14.7-15.019-18.342,3.464.511,18.8,4.819,18.8,4.819a49.35,49.35,0,0,0-1.943,11.938,6.752,6.752,0,0,0,.153,1.278Z" transform="translate(-279.633 -70.519)" fill="#263238"/>
        <path id="Path_27038" data-name="Path 27038" d="M342.283,90.7c-1.917,6.966,2.275,26.842,7.324,31.162,7.3,6.263,18.994,6.557,24.285-2.16,5.113-8.449-.844-34.255-6.391-38.154C359.155,75.805,345.121,80.394,342.283,90.7Z" transform="translate(-280.649 -78.33)" fill="#ad6359"/>
        <path id="Path_27039" data-name="Path 27039" d="M357.841,97.1s-.089.077-.077.141c.32,1.278.46,2.9-.665,3.6h0C358.57,100.4,358.365,98.25,357.841,97.1Z" transform="translate(-276.395 -73.307)" fill="#263238"/>
        <path id="Path_27040" data-name="Path 27040" d="M356.811,96.192c-2.186.281-1.47,4.64.562,4.384S358.7,95.949,356.811,96.192Z" transform="translate(-276.847 -73.562)" fill="#263238"/>
        <path id="Path_27041" data-name="Path 27041" d="M363.831,96.266c0-.064.115,0,.115.1.179,1.355.614,2.876,1.917,3.119v.077C364.342,99.6,363.78,97.569,363.831,96.266Z" transform="translate(-274.523 -73.546)" fill="#263238"/>
        <path id="Path_27042" data-name="Path 27042" d="M364.8,95.01c2.135-.524,3.029,3.835,1.048,4.282S363,95.444,364.8,95.01Z" transform="translate(-274.525 -73.901)" fill="#263238"/>
        <path id="Path_27043" data-name="Path 27043" d="M355.222,95.6c.562-.243,1.048-.575,1.585-.869a3,3,0,0,0,1.457-1.2.959.959,0,0,0-.332-1.1,2.326,2.326,0,0,0-2.352.153,3.349,3.349,0,0,0-1.687,1.764,1,1,0,0,0,1.329,1.253Z" transform="translate(-277.303 -74.674)" fill="#263238"/>
        <path id="Path_27044" data-name="Path 27044" d="M366.464,93.638c-.626,0-1.189-.1-1.8-.153a2.991,2.991,0,0,1-1.815-.524.946.946,0,0,1-.128-1.138,2.313,2.313,0,0,1,2.2-.805,3.451,3.451,0,0,1,2.262.946,1,1,0,0,1-.716,1.674Z" transform="translate(-274.869 -75.009)" fill="#263238"/>
        <path id="Path_27045" data-name="Path 27045" d="M358.359,107.067a2.032,2.032,0,0,0,1.278.6,3.515,3.515,0,0,0,1.393-.575h.077a1.828,1.828,0,0,1-1.6,1.01,1.444,1.444,0,0,1-1.278-1.023C358.205,107.08,358.308,106.99,358.359,107.067Z" transform="translate(-276.081 -70.543)" fill="#263238"/>
        <path id="Path_27046" data-name="Path 27046" d="M358.929,107.093a4.666,4.666,0,0,0,3.4,1.547,6.2,6.2,0,0,0,1.674-.2,1.393,1.393,0,0,0,.307-.089l.281-.089a.358.358,0,0,0,.23-.345h0a.548.548,0,0,0,0-.141h0v-.115c-.141-1.035-.511-2.556-.511-2.556.409.128,2.492.677,2.377.141a71.245,71.245,0,0,0-4.09-13.613.128.128,0,0,0-.243.077c.805,4.32,2.365,8.462,3.234,12.782a8.18,8.18,0,0,0-2.275-.294c-.141.064.754,3,.78,3.477a6.391,6.391,0,0,1-5-.69C358.917,106.9,358.827,107,358.929,107.093Z" transform="translate(-275.898 -74.851)" fill="#263238"/>
        <path id="Path_27047" data-name="Path 27047" d="M363.355,104.639a5.573,5.573,0,0,1-1.9,2.058,2.556,2.556,0,0,1-1.483.332c-1.125-.1-1.278-1.086-1.278-1.968a6.543,6.543,0,0,1,.268-1.38A7.183,7.183,0,0,0,363.355,104.639Z" transform="translate(-275.953 -71.476)" fill="#263238"/>
        <path id="Path_27048" data-name="Path 27048" d="M361.451,106.362a2.556,2.556,0,0,1-1.483.332c-1.125-.1-1.278-1.086-1.278-1.968A2.556,2.556,0,0,1,361.451,106.362Z" transform="translate(-275.953 -71.193)" fill="#ff99ba"/>
        <path id="Path_27049" data-name="Path 27049" d="M371.551,87.848c-1.01-1.6-2.147-3.183-3.234-3.349s-1.355,2.454-3.681,2.991c-3.132.741-5.113-1.917-9.625-1.508-6.391.614-8.359,6.391-7.03,15.428,1.189,8.091-3.553,9.65-3.553,9.65s-5.88-17.294-1.828-24,15.108-11.2,23.761-6.851C369.506,81.789,371.551,87.848,371.551,87.848Z" transform="translate(-280.825 -78.485)" fill="#263238"/>
        <path id="Path_27050" data-name="Path 27050" d="M348.376,102.044s-4.819-6.238-7.669-4.486.984,10.941,4.474,12.053a3.5,3.5,0,0,0,4.6-2.1Z" transform="translate(-281.232 -73.266)" fill="#ad6359"/>
        <path id="Path_27051" data-name="Path 27051" d="M341.4,99.49v.089c2.454.869,3.835,3.042,4.832,5.317a1.943,1.943,0,0,0-2.914-.4c-.064,0,0,.141.064.128a2.16,2.16,0,0,1,2.4.639,10.227,10.227,0,0,1,1.278,1.866c.128.2.511.077.409-.166h0C347.28,103.836,344.723,99.643,341.4,99.49Z" transform="translate(-280.762 -72.642)" fill="#263238"/>
        <path id="Path_27052" data-name="Path 27052" d="M339.753,130.914c-12.309,16.3-38.422,48.3-35.968,63.257,2.71,16.616,13.446,42.832,20.451,50.4,1.662,1.815,11.069,1,18.291-2.556,5.892-2.953,10.008-8.4,9.983-10.558-.064-4.78-15.824-34.588-16.949-37.988s13.689-37.655,18.828-54.22C360.83,118.286,350.183,117.11,339.753,130.914Z" transform="translate(-291.271 -66.436)" fill="#ad6359"/>
        <path id="Path_27053" data-name="Path 27053" d="M344.766,162.375,314,156.9s21.026-27.149,29.462-33.386c9.5-7.017,11.018-.626,9.446,10.494S344.766,162.375,344.766,162.375Z" transform="translate(-288.385 -66.774)" fill="#00a3b1"/>
        <path id="Path_27054" data-name="Path 27054" d="M344.766,162.375,314,156.9s21.026-27.149,29.462-33.386c9.5-7.017,11.018-.626,9.446,10.494S344.766,162.375,344.766,162.375Z" transform="translate(-288.385 -66.774)" opacity="0.1"/>
        <path id="Path_27055" data-name="Path 27055" d="M343.257,149.787c-3.835-1.278-15.8-3.3-17.78-3.656-1.035-.192-5.228-.767-6.263-.971-.141,0-.153.192,0,.217,1.981.371,3.924.959,5.905,1.355s14.06,2.94,18.112,3.208C343.257,149.953,343.333,149.813,343.257,149.787Z" transform="translate(-286.965 -59.937)" fill="#263238"/>
        <path id="Path_27056" data-name="Path 27056" d="M343.388,145.3c.69-1.508,1.38-3,2.007-4.525h0c-.55,1.074-1.074,2.173-1.585,3.272.665-2.326,1.278-4.665,1.8-7.017h-.064c-1.278,3.413-2.4,6.915-3.617,10.366s-2.339,6.787-3.477,10.225a17.233,17.233,0,0,1-2.147-.09.115.115,0,0,0,0,.217c.767.166,1.534.345,2.288.55a.358.358,0,0,0,.46-.192C340.614,153.889,342.1,149.62,343.388,145.3Z" transform="translate(-282.201 -62.199)" fill="#263238"/>
        <path id="Path_27057" data-name="Path 27057" d="M318.58,221.542a35.789,35.789,0,0,0,9.229-.55,45.937,45.937,0,0,0,8.73-2.556c5.6-2.032,9.88-6.634,12.5-12.386a17.293,17.293,0,0,1-3.63,8.947,18.048,18.048,0,0,1-7.925,5.854,30.816,30.816,0,0,1-9.433,2.186A20.54,20.54,0,0,1,318.58,221.542Z" transform="translate(-287.111 -42.999)" fill="#263238"/>
      </g>
    </g>
  </g>
</svg>
