<svg id="EMI_calc." xmlns="http://www.w3.org/2000/svg" width="96" height="96" viewBox="0 0 96 96">
  <g id="ICONS">
    <g id="emi_calculator">
      <rect id="Rectangle_8163" data-name="Rectangle 8163" width="96" height="96" fill="none"/>
      <path id="Path_26862" data-name="Path 26862" d="M38,64H10A10,10,0,0,1,0,54V10A10,10,0,0,1,10,0H86A10,10,0,0,1,96,10V46a2,2,0,0,1-4,0V10a6,6,0,0,0-6-6H10a6,6,0,0,0-6,6V54a6,6,0,0,0,6,6H38a2,2,0,0,1,0,4Z" fill="#e27e28"/>
      <path id="Path_26863" data-name="Path 26863" d="M48,44A12,12,0,1,1,60,32,12,12,0,0,1,48,44Zm0-20a8,8,0,1,0,8,8A8,8,0,0,0,48,24Z" fill="#e27e28"/>
      <path id="Path_26864" data-name="Path 26864" d="M22,16H14a2,2,0,0,1,0-4h8a2,2,0,0,1,0,4Z" fill="#e27e28"/>
      <path id="Path_26865" data-name="Path 26865" d="M57,88a2,2,0,0,1-2-2V84a6,6,0,0,1,6-6,2,2,0,0,0,0-4H57a2,2,0,0,1,0-4h4a6,6,0,0,1,0,12,2,2,0,0,0-2,2h6a2,2,0,0,1,0,4Z" fill="#e27e28"/>
      <path id="Path_26866" data-name="Path 26866" d="M71,88a2,2,0,0,1,0-4h4a2,2,0,0,0,0-4H71a2,2,0,0,1-2-2V72a2,2,0,0,1,2-2h8a2,2,0,0,1,0,4H73v2h2a6,6,0,0,1,0,12Z" fill="#e27e28"/>
      <path id="Path_26867" data-name="Path 26867" d="M49,96a6,6,0,0,1-6-6V56a6,6,0,0,1,6-6H87a6,6,0,0,1,6,6V90a6,6,0,0,1-6,6Zm0-42a2,2,0,0,0-2,2V90a2,2,0,0,0,2,2H87a2,2,0,0,0,2-2V56a2,2,0,0,0-2-2Z" fill="#e27e28"/>
      <path id="Path_26868" data-name="Path 26868" d="M45,66a2,2,0,0,1,0-4H91a2,2,0,0,1,0,4Z" fill="#e27e28"/>
      <path id="Path_26869" data-name="Path 26869" d="M55,58a2,2,0,0,1-2-2V48a2,2,0,0,1,4,0v8A2,2,0,0,1,55,58Z" fill="#e27e28"/>
      <path id="Path_26870" data-name="Path 26870" d="M81,58a2,2,0,0,1-2-2V48a2,2,0,0,1,4,0v8A2,2,0,0,1,81,58Z" fill="#e27e28"/>
    </g>
  </g>
</svg>
