<svg xmlns="http://www.w3.org/2000/svg" width="36.02" height="35" viewBox="0 0 36.02 35">
  <g id="feature_icon" transform="translate(-239.99 -1785.99)">
    <g id="Rectangle_8266" data-name="Rectangle 8266" transform="translate(241.01 1787.01)" fill="#fff" stroke="#707070" stroke-width="1" opacity="0">
      <rect width="33.98" height="33.981" stroke="none"/>
      <rect x="0.5" y="0.5" width="32.98" height="32.981" fill="none"/>
    </g>
    <g id="Group_16588" data-name="Group 16588" transform="translate(239.99 1787)">
      <g id="gift" transform="translate(0 -1.009)">
        <g id="Group_16616" data-name="Group 16616" transform="translate(0 7.451)">
          <g id="Group_16615" data-name="Group 16615" transform="translate(0 0)">
            <path id="Path_26990" data-name="Path 26990" d="M33.67,115.522H2.349A2.4,2.4,0,0,0,0,117.964v4.884a2.4,2.4,0,0,0,2.349,2.442H33.67a2.4,2.4,0,0,0,2.349-2.442v-4.884A2.4,2.4,0,0,0,33.67,115.522Zm.783,7.326a.8.8,0,0,1-.783.814H2.349a.8.8,0,0,1-.783-.814v-4.884a.8.8,0,0,1,.783-.814H33.67a.8.8,0,0,1,.783.814v4.884Z" transform="translate(0 -115.522)" fill="#00a0ae"/>
          </g>
        </g>
        <g id="Group_16618" data-name="Group 16618" transform="translate(1.628 14.653)">
          <g id="Group_16617" data-name="Group 16617">
            <path id="Path_26991" data-name="Path 26991" d="M53.317,222.188h-31.2a.8.8,0,0,0-.78.814v14.651a3.993,3.993,0,0,0,3.9,4.07H50.2a3.993,3.993,0,0,0,3.9-4.07V223A.8.8,0,0,0,53.317,222.188Zm-.78,15.465a2.4,2.4,0,0,1-2.34,2.442H25.233a2.4,2.4,0,0,1-2.34-2.442V223.816H52.537Z" transform="translate(-21.333 -222.188)" fill="#00a0ae"/>
          </g>
        </g>
        <g id="Group_16620" data-name="Group 16620" transform="translate(9.529 0)">
          <g id="Group_16619" data-name="Group 16619">
            <path id="Path_26992" data-name="Path 26992" d="M134.664,12.573a2.437,2.437,0,0,0-2.616.894,2.366,2.366,0,0,0-.383,2.1,9,9,0,0,0,8.582,6.4.814.814,0,0,0,.814-.814A9.006,9.006,0,0,0,134.664,12.573Zm-1.439,2.535a.748.748,0,0,1,.129-.667.812.812,0,0,1,.638-.339.7.7,0,0,1,.208.033,7.371,7.371,0,0,1,5.182,6.155A7.377,7.377,0,0,1,133.225,15.107Z" transform="translate(-131.567 -12.478)" fill="#00a0ae"/>
          </g>
        </g>
        <g id="Group_16622" data-name="Group 16622" transform="translate(16.996 0.001)">
          <g id="Group_16621" data-name="Group 16621" transform="translate(0 0)">
            <path id="Path_26993" data-name="Path 26993" d="M243.68,13.478a2.442,2.442,0,0,0-2.616-.9,9,9,0,0,0-6.4,8.582.814.814,0,0,0,.814.814,9,9,0,0,0,8.582-6.4A2.36,2.36,0,0,0,243.68,13.478ZM242.5,15.118a7.37,7.37,0,0,1-6.155,5.182,7.377,7.377,0,0,1,5.181-6.157.779.779,0,0,1,.208-.031.807.807,0,0,1,.637.339A.744.744,0,0,1,242.5,15.118Z" transform="translate(-234.666 -12.489)" fill="#00a0ae"/>
          </g>
        </g>
        <g id="Group_16624" data-name="Group 16624" transform="translate(12.426 6.513)">
          <g id="Group_16623" data-name="Group 16623" transform="translate(0 0)">
            <path id="Path_26994" data-name="Path 26994" d="M176.691,115.583a.807.807,0,0,0-.887.176l-4.884,4.884a.814.814,0,0,0,1.151,1.151l3.493-3.5V142.38a.814.814,0,0,0,1.628,0V116.334A.811.811,0,0,0,176.691,115.583Z" transform="translate(-170.682 -115.52)" fill="#00a0ae"/>
          </g>
        </g>
        <g id="Group_16626" data-name="Group 16626" transform="translate(17.083 7.499)">
          <g id="Group_16625" data-name="Group 16625" transform="translate(0 0)">
            <path id="Path_26995" data-name="Path 26995" d="M240.934,120.66l-4.884-4.884a.814.814,0,1,0-1.151,1.151l4.884,4.884a.814.814,0,0,0,1.151-1.151Z" transform="translate(-234.661 -115.538)" fill="#00a0ae"/>
          </g>
        </g>
      </g>
    </g>
  </g>
</svg>
