<svg xmlns="http://www.w3.org/2000/svg" width="34" height="34" viewBox="0 0 34 34">
  <g id="feature_icon" transform="translate(-241.5 -1787.5)">
    <g id="Rectangle_8266" data-name="Rectangle 8266" transform="translate(241.5 1787.5)" fill="#fff" stroke="#707070" stroke-width="1" opacity="0">
      <rect width="34" height="34" stroke="none"/>
      <rect x="0.5" y="0.5" width="33" height="33" fill="none"/>
    </g>
    <g id="safe" transform="translate(241.5 1787.472)">
      <path id="Path_26957" data-name="Path 26957" d="M20.737,30.386a.706.706,0,0,1-.282-.058C20.108,30.183,12,26.678,12,19.517V13.432a.73.73,0,0,1,.5-.69l8.009-2.7a.729.729,0,0,1,.466,0l8.009,2.7a.727.727,0,0,1,.5.69v6.085c0,7.161-8.108,10.666-8.454,10.812a.73.73,0,0,1-.282.057ZM13.456,13.955v5.562c0,5.511,5.9,8.676,7.281,9.34,1.375-.665,7.281-3.841,7.281-9.34V13.955L20.737,11.5Z" transform="translate(4.527 3.603)" fill="#00a0ae"/>
      <path id="Path_26958" data-name="Path 26958" d="M18.64,21.053a.343.343,0,0,1-.039,0,.728.728,0,0,1-.529-.272l-2.912-3.64a.728.728,0,1,1,1.137-.91l2.4,3.005,4.521-4.521a.728.728,0,1,1,1.029,1.029l-5.1,5.1a.719.719,0,0,1-.514.214Z" transform="translate(5.895 5.898)" fill="#00a0ae"/>
      <path id="Path_26959" data-name="Path 26959" d="M15.216,29.605H15.19a2.256,2.256,0,0,1-1.688-.852l-1.149-1.541a.754.754,0,0,0-.913-.251l-1.781.777a2.285,2.285,0,0,1-2.033-.111,2.116,2.116,0,0,1-1.085-1.634l-.191-1.864a.745.745,0,0,0-.676-.665l-1.932-.183a2.2,2.2,0,0,1-1.692-1.058,2.1,2.1,0,0,1-.111-1.947l.8-1.737a.7.7,0,0,0-.249-.883L.913,16.549a2.122,2.122,0,0,1,0-3.485l1.577-1.1a.706.706,0,0,0,.259-.886l-.8-1.723a2.087,2.087,0,0,1,.111-1.96A2.2,2.2,0,0,1,3.741,6.341l1.934-.2a.755.755,0,0,0,.679-.656l.188-1.871A2.11,2.11,0,0,1,7.636,1.978a2.259,2.259,0,0,1,2.027-.093l1.759.761a.764.764,0,0,0,.917-.233L13.491.872a2.339,2.339,0,0,1,3.6,0l1.14,1.544a.753.753,0,0,0,.912.234l1.781-.777a2.276,2.276,0,0,1,2.033.111,2.116,2.116,0,0,1,1.085,1.634l.191,1.878a.75.75,0,0,0,.676.65l1.938.2a2.193,2.193,0,0,1,1.685,1.05,2.082,2.082,0,0,1,.114,1.953l-.759,1.63a.74.74,0,0,1-.964.353.7.7,0,0,1-.364-.934l.757-1.623A.715.715,0,0,0,27.27,8.1a.751.751,0,0,0-.578-.358l-1.94-.2a2.192,2.192,0,0,1-1.972-1.91L22.59,3.753a.718.718,0,0,0-.371-.555.8.8,0,0,0-.708-.04l-1.771.773a2.248,2.248,0,0,1-2.7-.7L15.91,1.7A.817.817,0,0,0,14.67,1.7L13.52,3.238a2.249,2.249,0,0,1-2.7.694L9.066,3.172a.79.79,0,0,0-.7.03.72.72,0,0,0-.373.555L7.8,5.631A2.2,2.2,0,0,1,5.827,7.547l-1.935.2a.759.759,0,0,0-.581.358.715.715,0,0,0-.038.674l.8,1.714a2.087,2.087,0,0,1-.741,2.619L1.766,14.2a.735.735,0,0,0,0,1.2l1.568,1.1a2.084,2.084,0,0,1,.731,2.615l-.8,1.731a.705.705,0,0,0,.041.665.744.744,0,0,0,.577.363l1.934.183A2.17,2.17,0,0,1,7.8,23.988l.191,1.867a.718.718,0,0,0,.371.555.8.8,0,0,0,.708.04l1.771-.773a2.23,2.23,0,0,1,2.7.72l1.128,1.514a.779.779,0,0,0,.572.288.7.7,0,1,1-.023,1.408Z" transform="translate(0 0)" fill="#00a0ae"/>
      <path id="Path_26960" data-name="Path 26960" d="M10.1,17.824a.728.728,0,0,1-.728-.728,3.644,3.644,0,0,0-3.64-3.64.728.728,0,0,1,0-1.456,5.1,5.1,0,0,1,5.1,5.1A.728.728,0,0,1,10.1,17.824Z" transform="translate(2.044 4.894)" fill="#00a0ae"/>
      <path id="Path_26961" data-name="Path 26961" d="M7.184,11.368A2.184,2.184,0,1,1,9.368,9.184,2.187,2.187,0,0,1,7.184,11.368Zm0-2.912a.728.728,0,1,0,.728.728A.729.729,0,0,0,7.184,8.456Z" transform="translate(2.055 2.866)" fill="#00a0ae"/>
      <path id="Path_26962" data-name="Path 26962" d="M12.412,7.688a4.22,4.22,0,0,1-2.64-.894.727.727,0,1,1,.912-1.133,2.921,2.921,0,0,0,3.455,0A.728.728,0,0,1,15.052,6.8a4.219,4.219,0,0,1-2.64.893Z" transform="translate(3.884 2.266)" fill="#00a0ae"/>
    </g>
  </g>
</svg>
