<svg xmlns="http://www.w3.org/2000/svg" width="360" height="359.999" viewBox="0 0 360 359.999">
  <g id="feature_illustration_1" transform="translate(-8195 -15192)">
    <g id="Rectangle_6875" data-name="Rectangle 6875" transform="translate(8195 15192)" fill="#fff" stroke="#707070" stroke-width="1" opacity="0">
      <rect width="359.999" height="359.999" stroke="none"/>
      <rect x="0.5" y="0.5" width="358.999" height="358.999" fill="none"/>
    </g>
    <g id="Group_14416" data-name="Group 14416" transform="translate(8195 15196.498)">
      <g id="Group_14415" data-name="Group 14415" transform="translate(88.31 0)">
        <g id="freepik--Clipboard--inject-17" transform="translate(31.816 7.481)">
          <rect id="Rectangle_6473" data-name="Rectangle 6473" width="233.527" height="313.037" transform="translate(0 22.545)" fill="#00a3b1"/>
          <g id="Group_14209" data-name="Group 14209" transform="translate(0 22.545)" opacity="0.1">
            <rect id="Rectangle_6474" data-name="Rectangle 6474" width="233.527" height="313.037"/>
          </g>
          <rect id="Rectangle_6475" data-name="Rectangle 6475" width="233.527" height="313.037" transform="translate(6.347 22.545)" fill="#00a3b1"/>
          <rect id="Rectangle_6476" data-name="Rectangle 6476" width="206.125" height="282.261" transform="translate(18.262 37.573) rotate(-0.73)" fill="#ebebeb"/>
          <rect id="Rectangle_6477" data-name="Rectangle 6477" width="282.224" height="206.101" transform="translate(13.87 316.247) rotate(-88.76)" fill="#dbdbdb"/>
          <rect id="Rectangle_6478" data-name="Rectangle 6478" width="206.161" height="282.314" transform="translate(16.861 36.224)" fill="#fff"/>
          <rect id="Rectangle_6479" data-name="Rectangle 6479" width="17.506" height="17.506" transform="translate(40.4 198.981)" fill="#ebebeb"/>
          <rect id="Rectangle_6480" data-name="Rectangle 6480" width="56.712" height="2.563" transform="translate(67.357 198.901)" fill="#455a64"/>
          <rect id="Rectangle_6481" data-name="Rectangle 6481" width="132.125" height="2.563" transform="translate(67.357 203.931)" fill="#ebebeb"/>
          <rect id="Rectangle_6482" data-name="Rectangle 6482" width="132.125" height="2.563" transform="translate(67.357 208.952)" fill="#ebebeb"/>
          <rect id="Rectangle_6483" data-name="Rectangle 6483" width="132.125" height="2.563" transform="translate(67.357 213.973)" fill="#ebebeb"/>
          <path id="Path_14057" data-name="Path 14057" d="M160.25,291.487c.645.541,1.255,1.1,1.866,1.674s1.194,1.151,1.8,1.744c1.177,1.16,2.31,2.363,3.435,3.575l-2.005.131a78.4,78.4,0,0,1,5.449-9.59c1.011-1.526,2.084-3.025,3.235-4.473a41.864,41.864,0,0,1,3.731-4.167,40.52,40.52,0,0,1-1.944,5.231q-1.125,2.537-2.45,4.943a79.6,79.6,0,0,1-5.928,9.276l-1.1,1.473-.872-1.343c-.933-1.369-1.84-2.746-2.7-4.159-.427-.715-.872-1.412-1.282-2.136S160.625,292.254,160.25,291.487Z" transform="translate(-118.559 -84.669)" fill="#e27e28"/>
          <rect id="Rectangle_6484" data-name="Rectangle 6484" width="17.506" height="17.506" transform="translate(40.4 228.214)" fill="#ebebeb"/>
          <rect id="Rectangle_6485" data-name="Rectangle 6485" width="56.712" height="2.563" transform="translate(67.357 228.122)" fill="#455a64"/>
          <rect id="Rectangle_6486" data-name="Rectangle 6486" width="132.125" height="2.563" transform="translate(67.357 233.143)" fill="#ebebeb"/>
          <rect id="Rectangle_6487" data-name="Rectangle 6487" width="132.125" height="2.563" transform="translate(67.357 238.164)" fill="#ebebeb"/>
          <rect id="Rectangle_6488" data-name="Rectangle 6488" width="132.125" height="2.563" transform="translate(67.357 243.185)" fill="#ebebeb"/>
          <rect id="Rectangle_6489" data-name="Rectangle 6489" width="17.506" height="17.506" transform="translate(40.4 257.438)" fill="#ebebeb"/>
          <rect id="Rectangle_6490" data-name="Rectangle 6490" width="56.712" height="2.563" transform="translate(67.357 257.334)" fill="#455a64"/>
          <rect id="Rectangle_6491" data-name="Rectangle 6491" width="132.125" height="2.563" transform="translate(67.357 262.355)" fill="#ebebeb"/>
          <rect id="Rectangle_6492" data-name="Rectangle 6492" width="132.125" height="2.563" transform="translate(67.357 267.376)" fill="#ebebeb"/>
          <rect id="Rectangle_6493" data-name="Rectangle 6493" width="132.125" height="2.563" transform="translate(67.357 272.916)" fill="#ebebeb"/>
          <rect id="Rectangle_6494" data-name="Rectangle 6494" width="88.534" height="2.563" transform="translate(110.949 292.436)" fill="#ebebeb"/>
          <rect id="Rectangle_6495" data-name="Rectangle 6495" width="47.994" height="2.563" transform="translate(95.256 107.325)" fill="#455a64"/>
          <rect id="Rectangle_6496" data-name="Rectangle 6496" width="104.227" height="2.563" transform="translate(95.256 112.346)" fill="#ebebeb"/>
          <rect id="Rectangle_6497" data-name="Rectangle 6497" width="104.227" height="2.563" transform="translate(95.256 117.376)" fill="#ebebeb"/>
          <rect id="Rectangle_6498" data-name="Rectangle 6498" width="104.227" height="2.563" transform="translate(95.256 127.418)" fill="#ebebeb"/>
          <rect id="Rectangle_6499" data-name="Rectangle 6499" width="45.326" height="2.563" transform="translate(95.256 132.439)" fill="#ebebeb"/>
          <rect id="Rectangle_6500" data-name="Rectangle 6500" width="159.082" height="24.368" transform="translate(40.4 63.554)" fill="#e27e28"/>
          <path id="Path_14058" data-name="Path 14058" d="M171.34,150.7V136.46H174.1V150.7Z" transform="translate(-119.981 -67.383)" fill="#fff"/>
          <path id="Path_14059" data-name="Path 14059" d="M184.134,141.569V150.7H181.37V136.46h2.145l7.419,9.346v-9.329H193.7V150.7h-2.241Z" transform="translate(-121.266 -67.383)" fill="#fff"/>
          <path id="Path_14060" data-name="Path 14060" d="M210.7,140.176a3.352,3.352,0,0,0-.514-.384,6.647,6.647,0,0,0-.872-.471,6.859,6.859,0,0,0-1.151-.392,5.134,5.134,0,0,0-1.264-.157,2.842,2.842,0,0,0-1.7.418,1.386,1.386,0,0,0-.567,1.186,1.2,1.2,0,0,0,.218.732,1.8,1.8,0,0,0,.61.506,4.963,4.963,0,0,0,1.011.4c.41.122.872.253,1.412.384a18,18,0,0,1,1.857.619,5,5,0,0,1,1.447.8,3.434,3.434,0,0,1,.915,1.151,3.922,3.922,0,0,1,.314,1.657,4.114,4.114,0,0,1-.427,1.953,3.7,3.7,0,0,1-1.168,1.316,5.085,5.085,0,0,1-1.683.732,8.722,8.722,0,0,1-2.014.235,10.68,10.68,0,0,1-3.165-.48,9.874,9.874,0,0,1-2.807-1.36l1.221-2.389a3.779,3.779,0,0,0,.654.471,11.745,11.745,0,0,0,1.116.584,8.483,8.483,0,0,0,1.421.488,6.578,6.578,0,0,0,1.6.2c1.526,0,2.284-.488,2.284-1.465a1.22,1.22,0,0,0-.262-.785,2.2,2.2,0,0,0-.741-.558,8.119,8.119,0,0,0-1.159-.445l-1.526-.436a13.8,13.8,0,0,1-1.744-.61,4.835,4.835,0,0,1-1.255-.785,2.834,2.834,0,0,1-.75-1.046,3.49,3.49,0,0,1-.253-1.412,4.4,4.4,0,0,1,.4-1.927,3.886,3.886,0,0,1,1.107-1.4,5.229,5.229,0,0,1,1.656-.872,6.634,6.634,0,0,1,2.023-.3,7.909,7.909,0,0,1,2.772.471,10.464,10.464,0,0,1,2.206,1.116Z" transform="translate(-123.802 -67.368)" fill="#fff"/>
          <path id="Path_14061" data-name="Path 14061" d="M225.9,148.348a3.052,3.052,0,0,0,2.738-1.447,4.175,4.175,0,0,0,.584-1.473,8.555,8.555,0,0,0,.174-1.744V136.43h2.772v7.254a10.791,10.791,0,0,1-.349,2.755,6.276,6.276,0,0,1-1.107,2.241,5.231,5.231,0,0,1-1.936,1.526,6.5,6.5,0,0,1-2.825.558,6.347,6.347,0,0,1-2.895-.593,5.3,5.3,0,0,1-1.935-1.561,6.314,6.314,0,0,1-1.081-2.258,10.754,10.754,0,0,1-.323-2.668V136.43h2.764v7.254a8.013,8.013,0,0,0,.174,1.744,4.361,4.361,0,0,0,.575,1.473,3.208,3.208,0,0,0,1.072,1.037A3.147,3.147,0,0,0,225.9,148.348Z" transform="translate(-126.182 -67.379)" fill="#fff"/>
          <path id="Path_14062" data-name="Path 14062" d="M240.62,150.7V136.46h6.295a4.1,4.1,0,0,1,1.813.41,4.627,4.627,0,0,1,1.43,1.081,5.4,5.4,0,0,1,.95,1.526,4.6,4.6,0,0,1,.34,1.744,4.717,4.717,0,0,1-.7,2.511,3.975,3.975,0,0,1-1.874,1.639l3.252,5.353h-3.112l-2.9-4.778h-2.729v4.778Zm2.764-7.2h3.487a1.481,1.481,0,0,0,.715-.183,1.682,1.682,0,0,0,.567-.488,2.618,2.618,0,0,0,.384-.732,3.03,3.03,0,0,0,.139-.872,2.423,2.423,0,0,0-.166-.924,2.346,2.346,0,0,0-.427-.732,1.92,1.92,0,0,0-.619-.48,1.633,1.633,0,0,0-.715-.174H243.4Z" transform="translate(-128.86 -67.383)" fill="#fff"/>
          <path id="Path_14063" data-name="Path 14063" d="M262.953,136.46h2.45l5.414,14.237h-2.851l-1.308-3.548H261.68l-1.3,3.548H257.53Zm3.191,8.718-1.962-5.6-2.049,5.6Z" transform="translate(-131.028 -67.383)" fill="#fff"/>
          <path id="Path_14064" data-name="Path 14064" d="M280.781,141.569V150.7H278V136.46h2.153l7.437,9.346v-9.329h2.764V150.7H288.1Z" transform="translate(-133.652 -67.383)" fill="#fff"/>
          <path id="Path_14065" data-name="Path 14065" d="M298,143.461a7.413,7.413,0,0,1,.471-2.616,7.069,7.069,0,0,1,1.378-2.275,6.974,6.974,0,0,1,2.206-1.622,6.756,6.756,0,0,1,2.964-.619,6.522,6.522,0,0,1,3.4.872,5.51,5.51,0,0,1,2.136,2.249l-2.092,1.482a3.427,3.427,0,0,0-.68-1.011,3.372,3.372,0,0,0-.872-.654,3.843,3.843,0,0,0-.959-.349,4.365,4.365,0,0,0-.985-.113,3.645,3.645,0,0,0-1.813.427,3.992,3.992,0,0,0-1.282,1.09,4.757,4.757,0,0,0-.776,1.526,5.732,5.732,0,0,0-.262,1.691,5.533,5.533,0,0,0,.305,1.814,4.622,4.622,0,0,0,.872,1.534,4.22,4.22,0,0,0,1.316,1.064,3.593,3.593,0,0,0,1.7.4,4.561,4.561,0,0,0,1-.122,3.734,3.734,0,0,0,.994-.384,3.486,3.486,0,0,0,.872-.671,3.094,3.094,0,0,0,.637-.985l2.267,1.3a4.255,4.255,0,0,1-.967,1.412,6.253,6.253,0,0,1-1.43,1.037,7.279,7.279,0,0,1-1.691.636,7.387,7.387,0,0,1-1.744.227,6.1,6.1,0,0,1-2.79-.645,7.247,7.247,0,0,1-2.18-1.674,7.755,7.755,0,0,1-1.421-2.345,7.368,7.368,0,0,1-.575-2.677Z" transform="translate(-136.215 -67.367)" fill="#fff"/>
          <path id="Path_14066" data-name="Path 14066" d="M328.127,148.265V150.7H318.24V136.46h9.7v2.424h-6.975v3.426h6v2.249h-6v3.705Z" transform="translate(-138.809 -67.383)" fill="#fff"/>
          <path id="Path_14067" data-name="Path 14067" d="M318.215,264.47H158.27V230.26H318.215ZM159.142,263.6h158.2V231.132h-158.2Z" transform="translate(-118.305 -78.584)" fill="#ebebeb"/>
          <rect id="Rectangle_6501" data-name="Rectangle 6501" width="159.082" height="0.872" transform="translate(40.4 171.871)" fill="#ebebeb"/>
          <rect id="Rectangle_6502" data-name="Rectangle 6502" width="159.082" height="0.872" transform="translate(40.4 158.602)" fill="#ebebeb"/>
          <rect id="Rectangle_6503" data-name="Rectangle 6503" width="0.872" height="33.347" transform="translate(91.891 152.112)" fill="#ebebeb"/>
          <rect id="Rectangle_6504" data-name="Rectangle 6504" width="0.872" height="33.347" transform="translate(147.112 152.112)" fill="#ebebeb"/>
          <path id="Path_14068" data-name="Path 14068" d="M169.19,234.785c2.807-.174,5.623-.262,8.439-.331s5.623-.087,8.439-.1,5.623,0,8.439.1l4.22.122c1.4.07,2.807.113,4.22.209-1.412.1-2.816.148-4.22.218l-4.22.122c-2.816.078-5.632.087-8.439.1s-5.632,0-8.439-.1S172,234.968,169.19,234.785Z" transform="translate(-119.705 -79.221)" fill="#455a64"/>
          <path id="Path_14069" data-name="Path 14069" d="M230.64,234.785c2.816-.174,5.623-.262,8.439-.331s5.623-.087,8.439-.1,5.623,0,8.439.1l4.22.122c1.4.07,2.816.113,4.22.209-1.4.1-2.816.148-4.22.218l-4.22.122c-2.816.078-5.623.087-8.439.1s-5.623,0-8.439-.1S233.456,234.968,230.64,234.785Z" transform="translate(-127.581 -79.221)" fill="#455a64"/>
          <path id="Path_14070" data-name="Path 14070" d="M292.47,234.785c2.816-.174,5.632-.262,8.439-.331s5.632-.087,8.439-.1,5.632,0,8.439.1l4.22.122c1.412.07,2.816.113,4.22.209-1.4.1-2.807.148-4.22.218l-4.22.122c-2.808.078-5.623.087-8.439.1s-5.623,0-8.439-.1S295.286,234.968,292.47,234.785Z" transform="translate(-135.506 -79.221)" fill="#455a64"/>
          <path id="Path_14071" data-name="Path 14071" d="M169.19,244.435c2.807-.174,5.623-.262,8.439-.331s5.623-.087,8.439-.1,5.623,0,8.439.1l4.22.122c1.4.07,2.807.113,4.22.209-1.412.1-2.816.139-4.22.218l-4.22.122c-2.816.078-5.632.087-8.439.1s-5.632,0-8.439-.1S172,244.618,169.19,244.435Z" transform="translate(-119.705 -80.385)" fill="#ebebeb"/>
          <path id="Path_14072" data-name="Path 14072" d="M230.64,244.435c2.816-.174,5.623-.262,8.439-.331s5.623-.087,8.439-.1,5.623,0,8.439.1l4.22.122c1.4.07,2.816.113,4.22.209-1.4.1-2.816.139-4.22.218l-4.22.122c-2.816.078-5.623.087-8.439.1s-5.623,0-8.439-.1S233.456,244.618,230.64,244.435Z" transform="translate(-127.581 -80.385)" fill="#ebebeb"/>
          <path id="Path_14073" data-name="Path 14073" d="M292.47,244.435c2.816-.174,5.632-.262,8.439-.331s5.632-.087,8.439-.1,5.632,0,8.439.1l4.22.122c1.412.07,2.816.113,4.22.209-1.4.1-2.807.139-4.22.218l-4.22.122c-2.808.078-5.623.087-8.439.1s-5.623,0-8.439-.1S295.286,244.618,292.47,244.435Z" transform="translate(-135.506 -80.385)" fill="#ebebeb"/>
          <path id="Path_14074" data-name="Path 14074" d="M169.19,248.315c2.807-.174,5.623-.262,8.439-.331s5.623-.1,8.439-.1,5.623,0,8.439.1l4.22.122c1.4.07,2.807.113,4.22.209-1.412.1-2.816.139-4.22.218l-4.22.122c-2.816.078-5.632.087-8.439.1s-5.632,0-8.439-.1S172,248.5,169.19,248.315Z" transform="translate(-119.705 -80.854)" fill="#ebebeb"/>
          <path id="Path_14075" data-name="Path 14075" d="M230.64,248.315c2.816-.174,5.623-.262,8.439-.331s5.623-.1,8.439-.1,5.623,0,8.439.1l4.22.122c1.4.07,2.816.113,4.22.209-1.4.1-2.816.139-4.22.218l-4.22.122c-2.816.078-5.623.087-8.439.1s-5.623,0-8.439-.1S233.456,248.5,230.64,248.315Z" transform="translate(-127.581 -80.854)" fill="#ebebeb"/>
          <path id="Path_14076" data-name="Path 14076" d="M292.47,248.315c2.816-.174,5.632-.262,8.439-.331s5.632-.1,8.439-.1,5.632,0,8.439.1l4.22.122c1.412.07,2.816.113,4.22.209-1.4.1-2.807.139-4.22.218l-4.22.122c-2.808.078-5.623.087-8.439.1s-5.623,0-8.439-.1S295.286,248.5,292.47,248.315Z" transform="translate(-135.506 -80.854)" fill="#ebebeb"/>
          <path id="Path_14077" data-name="Path 14077" d="M169.19,258.675c2.807-.174,5.623-.262,8.439-.331s5.623-.087,8.439-.1,5.623,0,8.439.1l4.22.122c1.4.07,2.807.113,4.22.209-1.412.1-2.816.139-4.22.218l-4.22.122c-2.816.078-5.632.087-8.439.1s-5.632,0-8.439-.1S172,258.9,169.19,258.675Z" transform="translate(-119.705 -82.104)" fill="#ebebeb"/>
          <path id="Path_14078" data-name="Path 14078" d="M230.64,258.675c2.816-.174,5.623-.262,8.439-.331s5.623-.087,8.439-.1,5.623,0,8.439.1l4.22.122c1.4.07,2.816.113,4.22.209-1.4.1-2.816.139-4.22.218l-4.22.122c-2.816.078-5.623.087-8.439.1s-5.623,0-8.439-.1S233.456,258.9,230.64,258.675Z" transform="translate(-127.581 -82.104)" fill="#ebebeb"/>
          <path id="Path_14079" data-name="Path 14079" d="M292.47,258.675c2.816-.174,5.632-.262,8.439-.331s5.632-.087,8.439-.1,5.632,0,8.439.1l4.22.122c1.412.07,2.816.113,4.22.209-1.4.1-2.807.139-4.22.218l-4.22.122c-2.808.078-5.623.087-8.439.1s-5.623,0-8.439-.1S295.286,258.9,292.47,258.675Z" transform="translate(-135.506 -82.104)" fill="#ebebeb"/>
          <path id="Path_14080" data-name="Path 14080" d="M169.19,262.555c2.807-.174,5.623-.262,8.439-.331s5.623-.1,8.439-.1,5.623,0,8.439.1l4.22.122c1.4.07,2.807.113,4.22.209-1.412.1-2.816.14-4.22.218l-4.22.122c-2.816.079-5.632.087-8.439.1s-5.632,0-8.439-.1S172,262.739,169.19,262.555Z" transform="translate(-119.705 -82.572)" fill="#ebebeb"/>
          <path id="Path_14081" data-name="Path 14081" d="M230.64,262.555c2.816-.174,5.623-.262,8.439-.331s5.623-.1,8.439-.1,5.623,0,8.439.1l4.22.122c1.4.07,2.816.113,4.22.209-1.4.1-2.816.14-4.22.218l-4.22.122c-2.816.079-5.623.087-8.439.1s-5.623,0-8.439-.1S233.456,262.739,230.64,262.555Z" transform="translate(-127.581 -82.572)" fill="#ebebeb"/>
          <path id="Path_14082" data-name="Path 14082" d="M292.47,262.555c2.816-.174,5.632-.262,8.439-.331s5.632-.1,8.439-.1,5.632,0,8.439.1l4.22.122c1.412.07,2.816.113,4.22.209-1.4.1-2.807.14-4.22.218l-4.22.122c-2.808.079-5.623.087-8.439.1s-5.623,0-8.439-.1S295.286,262.739,292.47,262.555Z" transform="translate(-135.506 -82.572)" fill="#ebebeb"/>
          <path id="Path_14083" data-name="Path 14083" d="M196.963,197.255a52.772,52.772,0,0,1-16.9,14.673,52.767,52.767,0,0,1-16.9-14.673c-5.946-7.847-5.649-20.2,2.86-22.868,9.416-2.947,14.045,11.22,14.045,11.22s4.69-14.263,14.045-11.22C202.6,177.142,202.909,189.383,196.963,197.255Z" transform="translate(-118.411 -71.824)" fill="#e27e28"/>
          <path id="Path_14084" data-name="Path 14084" d="M173.373,206.936l-2.563-10.689-1.674,3.766H158.77v-1.2h9.581l2.8-6.3,2,8.335,2.833-17.262,2.493,13.653,1.979-5.7,3.112,9.337.689-2.066H201.28v1.212H185.117l-1.552,4.664-3.139-9.4-2.31,6.687-2.075-11.325Z" transform="translate(-118.37 -73.026)" fill="#fff"/>
          <rect id="Rectangle_6505" data-name="Rectangle 6505" width="101.263" height="30.871" transform="translate(69.31 16.879)" fill="#c7c7c7"/>
          <path id="Path_14085" data-name="Path 14085" d="M275.862,57.93H213.021L210.24,74.809h69.336ZM244.9,70.075a3.705,3.705,0,1,1,3.705-3.705A3.705,3.705,0,0,1,244.9,70.075Z" transform="translate(-124.967 -57.93)" fill="#c7c7c7"/>
          <path id="Path_14086" data-name="Path 14086" d="M279.576,76.735H210.24l.619-3.775h67.88Z" transform="translate(-124.967 -59.856)" fill="#a6a6a6"/>
        </g>
        <g id="freepik--Shield--inject-17" transform="translate(11.856 263.31)">
          <path id="Path_14099" data-name="Path 14099" d="M161.338,371.4s-5.231,41.848-13.81,51.228c-10.3,11.29-17.785,9.634-21.944,15.458h0c-4.159-5.833-11.639-4.167-21.953-15.466-8.579-9.407-13.792-51.229-13.792-51.229,22.615-10.976,35.745-23.286,35.745-23.286h0C125.995,348.5,139.072,360.593,161.338,371.4Z" transform="translate(-89.84 -348.1)" fill="#37474f"/>
          <path id="Path_14100" data-name="Path 14100" d="M125.585,348.117v89.964h0c-4.159-5.833-11.639-4.167-21.953-15.466-8.579-9.407-13.792-51.229-13.792-51.229,22.615-10.976,35.745-23.286,35.745-23.286Z" transform="translate(-89.84 -348.1)" fill="#263238"/>
          <path id="Path_14101" data-name="Path 14101" d="M156.6,375.8s-4.411,35.318-11.656,43.269c-8.718,9.59-15.039,8.152-18.553,13.077-3.487-4.917-9.834-3.487-18.544-13.077C100.593,411.115,96.19,375.8,96.19,375.8c19.11-9.285,30.2-19.677,30.2-19.677S137.5,366.477,156.6,375.8Z" transform="translate(-90.654 -349.128)" fill="#455a64"/>
          <path id="Path_14102" data-name="Path 14102" d="M96.2,375.8s4.411,35.318,11.665,43.277c8.718,9.538,15.022,8.143,18.535,13.077V356.13C126.06,356.453,115.014,366.662,96.2,375.8Z" transform="translate(-90.655 -349.129)" fill="#37474f"/>
          <circle id="Ellipse_303" data-name="Ellipse 303" cx="14.01" cy="14.01" r="14.01" transform="translate(21.735 30.993)" fill="#e27e28"/>
          <path id="Path_14103" data-name="Path 14103" d="M128.092,407.724l-6.242-6.487,2.319-2.223,3.435,3.575,7.41-11.369,2.694,1.752Z" transform="translate(-93.943 -353.627)" fill="#fff"/>
        </g>
        <g id="freepik--Icon--inject-17">
          <path id="Path_14104" data-name="Path 14104" d="M113.678,119.015a32.258,32.258,0,1,1,32.258-32.258,32.258,32.258,0,0,1-32.258,32.258Zm0-63.016A30.793,30.793,0,1,0,144.47,86.792,30.793,30.793,0,0,0,113.678,56Z" transform="translate(-76.904 -50.01)" fill="#37474f"/>
          <path id="Path_14105" data-name="Path 14105" d="M111.392,122.915c-.488,0-.976-.052-1.465-.1l.1-1.412c.462.044.933.07,1.4.1Zm5.135-.131-.14-1.43c.471-.044.942-.1,1.4-.157l.192,1.421C117.5,122.679,117.007,122.74,116.527,122.784Zm-11.674-.741c-.48-.1-.95-.227-1.421-.357l.375-1.377c.445.122.872.235,1.369.331Zm18.16-.471-.392-1.377c.453-.131.872-.262,1.351-.41l.445,1.36C123.981,121.3,123.484,121.406,123.013,121.572ZM98.6,120.012c-.453-.192-.872-.392-1.343-.61l.61-1.29c.427.2.872.392,1.29.575Zm30.6-.793-.628-1.29c.418-.2.872-.419,1.247-.636l.68,1.255c-.418.244-.889.462-1.29.671Zm-36.416-2.337c-.41-.27-.811-.549-1.212-.872l.872-1.168c.384.27.767.541,1.159.8Zm42.048-1.081-.872-1.151c.375-.279.75-.567,1.116-.872l.872,1.125c-.357.314-.741.61-1.142.9ZM87.6,112.775c-.357-.34-.706-.689-1.046-1.037l1.038-1c.323.34.654.671.994,1Zm52.153-1.343-1.037-.985c.323-.34.636-.689.95-1.037l1.081.942C140.424,110.718,140.093,111.084,139.753,111.433Zm-56.5-3.618-.872-1.2,1.186-.8c.262.392.532.776.811,1.16Zm60.6-1.552-1.2-.793c.253-.392.506-.785.75-1.194l1.229.741c-.253.418-.514.837-.776,1.247Zm-63.992-4.106c-.218-.436-.418-.872-.61-1.325l1.308-.575c.192.427.384.872.593,1.273Zm67.131-1.744-1.317-.558c.183-.427.357-.872.523-1.308l1.343.5c-.218.479-.4.942-.593,1.386ZM77.574,95.975c-.131-.471-.253-.95-.366-1.43l1.395-.323c.1.453.227.872.349,1.369ZM149,94.118l-1.4-.305c.1-.462.2-.924.279-1.386l1.412.253q-.174.75-.331,1.456ZM76.345,89.5q-.07-.732-.1-1.465l1.439-.07c0,.471.052.942.1,1.4Zm73.46-1.9-1.412-.052V85.984h1.438v.139C149.831,86.621,149.822,87.109,149.8,87.6Zm-72.03-4.551-1.421-.131c.044-.488.087-.968.157-1.456l1.421.183A8.041,8.041,0,0,0,77.774,83.046Zm70.278-1.962c-.061-.471-.139-.933-.227-1.395l1.412-.262c.087.479.166.968.235,1.447Zm-69.179-4.3-1.386-.375q.192-.724.418-1.412l1.369.436C79.134,75.88,78.995,76.333,78.873,76.786Zm67.706-1.892c-.148-.445-.305-.872-.48-1.325l1.343-.514q.262.689.5,1.386ZM81.087,70.841l-1.29-.619c.209-.445.436-.872.663-1.316l1.264.68A11.281,11.281,0,0,0,81.087,70.841ZM144.033,69.1c-.227-.418-.462-.82-.706-1.221l1.229-.741c.253.418.5.872.732,1.264ZM84.339,65.392l-1.16-.872c.288-.4.575-.793.872-1.177l1.125.872C84.9,64.633,84.61,65.008,84.339,65.392Zm56.154-1.526c-.3-.366-.6-.724-.915-1.081l1.081-.942c.323.366.636.732.95,1.116Zm-52-3.261-.985-1.029q.523-.514,1.072-.994l.95,1.072C89.187,59.96,88.838,60.283,88.5,60.605Zm47.576-1.316c-.357-.305-.724-.6-1.09-.872l.872-1.125c.384.305.767.619,1.133.933Zm-42.606-2.65-.793-1.194c.4-.27.82-.532,1.238-.785l.741,1.229C94.234,56.133,93.842,56.377,93.467,56.638ZM130.956,55.6c-.4-.235-.811-.471-1.229-.689l.68-1.264c.427.227.872.471,1.282.715ZM99.064,53.622l-.575-1.316,1.36-.558.514,1.343a10.239,10.239,0,0,0-1.343.532Zm26.155-.732-1.334-.462.436-1.36c.471.148.933.305,1.395.479ZM105.036,51.66l-.323-1.395c.48-.1.959-.209,1.439-.3l.262,1.4A12.458,12.458,0,0,0,105.036,51.66Zm14.01-.384c-.462-.078-.924-.148-1.395-.209l.192-1.43c.48.07.968.14,1.447.227Zm-7.733-.488-.061-1.439h1.465v1.439Z" transform="translate(-76.24 -49.35)" fill="#37474f"/>
          <path id="Path_14106" data-name="Path 14106" d="M110.548,108.526h9.93V93.548h14.978v-9.93H120.478V68.64h-9.93V83.618H95.57v9.93h14.978Z" transform="translate(-78.718 -51.822)" fill="#37474f"/>
        </g>
      </g>
      <g id="freepik--character-1--inject-18" transform="translate(0 105.36)">
        <path id="Path_16280" data-name="Path 16280" d="M246.756,432.351c-1.725.557-50.979.122-52.849-1.076-.71-.458-1.061-7.633-1.244-16.319-.038-1.87-.069-3.816-.092-5.778L188.9,382.86l32.928.2,2.786,26.31-.2,5.778s18.784,8.6,20.692,10.136S248.511,431.816,246.756,432.351Z" transform="translate(-107.067 -186.718)" fill="#eb9481"/>
        <path id="Path_16281" data-name="Path 16281" d="M247.895,440.5c-1.725.557-50.979.122-52.849-1.076-.863-.557-1.206-11.037-1.336-22.135l32.057.191-.2,5.778s18.784,8.6,20.692,10.136S249.65,439.967,247.895,440.5Z" transform="translate(-108.206 -194.868)" fill="#fff"/>
        <path id="Path_16282" data-name="Path 16282" d="M247.923,442.3c-1.725.557-50.979.122-52.849-1.076-.71-.458-1.061-7.633-1.244-16.319l31.752.191s18.784,8.6,20.692,10.136S249.678,441.771,247.923,442.3Z" transform="translate(-108.234 -196.672)" fill="#e27e28"/>
        <path id="Path_16283" data-name="Path 16283" d="M248.353,444.983c-8.259-.275-41.575-.61-49.758-.252-.061,0-.061.046,0,.046,8.175.458,41.5.519,49.758.336C248.506,445.113,248.506,444.983,248.353,444.983Z" transform="translate(-109.351 -201.327)" fill="#263238"/>
        <path id="Path_16284" data-name="Path 16284" d="M256.289,436.089a6.618,6.618,0,0,0-4.961,1.969,6.435,6.435,0,0,0-1.878,4.389c0,.053.092.053.1,0a7.633,7.633,0,0,1,6.74-6.259.053.053,0,0,0,0-.1Z" transform="translate(-121.401 -199.317)" fill="#263238"/>
        <path id="Path_16285" data-name="Path 16285" d="M236.751,426.269c-3.3-.076-7.144,1.061-9.228,3.74-.076.107.069.221.168.168a46.254,46.254,0,0,1,9.114-3.5.206.206,0,0,0-.053-.4Z" transform="translate(-116.205 -196.993)" fill="#263238"/>
        <path id="Path_16286" data-name="Path 16286" d="M240.132,427.6c-3.3-.076-7.144,1.061-9.22,3.748-.084.1.061.214.16.168a45.321,45.321,0,0,1,9.06-3.5.214.214,0,0,0,0-.412Z" transform="translate(-117.007 -197.307)" fill="#263238"/>
        <path id="Path_16287" data-name="Path 16287" d="M243.413,428.939c-3.3-.076-7.144,1.053-9.22,3.74-.084.1.069.214.16.168a45.332,45.332,0,0,1,9.113-3.5.206.206,0,0,0-.053-.4Z" transform="translate(-117.783 -197.625)" fill="#263238"/>
        <path id="Path_16288" data-name="Path 16288" d="M246.743,430.269c-3.3-.076-7.144,1.053-9.22,3.74-.084.107.069.221.168.168a45.991,45.991,0,0,1,9.106-3.5.206.206,0,0,0-.053-.4Z" transform="translate(-118.572 -197.94)" fill="#263238"/>
        <path id="Path_16289" data-name="Path 16289" d="M200.591,434.53c-3.709,0-3.748,5.74-.038,5.763S204.3,434.553,200.591,434.53Z" transform="translate(-109.171 -198.949)" fill="#263238"/>
        <path id="Path_16290" data-name="Path 16290" d="M241.957,414.575c-1.664-1.4-3.816-.069-4.824,1.366a17.289,17.289,0,0,0-3.053,8.4.084.084,0,0,0,.1.092.4.4,0,0,0,.6.275c2.366-1.61,5.091-3.053,6.869-5.343C242.7,418.079,243.529,415.9,241.957,414.575Zm-4.122,6.984c-1.145.824-2.29,1.58-3.442,2.443a51.376,51.376,0,0,1,1.908-4.885,17.91,17.91,0,0,1,1.229-2.214c.725-1.091,3.992-3.816,4.29-.221C241.987,418.666,239.2,420.59,237.835,421.559Z" transform="translate(-117.762 -194.084)" fill="#263238"/>
        <path id="Path_16291" data-name="Path 16291" d="M222.186,427.317c2.87.466,5.847-.328,8.678-.763a.412.412,0,0,0,.252-.6.085.085,0,0,0,.036-.069.083.083,0,0,0-.036-.069,17.279,17.279,0,0,0-7.953-4.137c-1.74-.351-4.206.1-4.48,2.252S220.507,427.042,222.186,427.317Zm-1.985-1.9c-2.206-2.855,2.046-3.053,3.32-2.74a19.388,19.388,0,0,1,2.4.809c1.633.649,3.145,1.527,4.694,2.29-1.4.122-2.778.359-4.175.527C224.773,426.523,221.423,426.989,220.2,425.417Z" transform="translate(-114.112 -195.881)" fill="#263238"/>
        <path id="Path_16292" data-name="Path 16292" d="M127.48,223s37.4,65.519,38.4,70.1c1.526,7.037,8.968,76.442,8.968,76.442l36.843-.229s-6.106-61.184-12.35-81.4c-3.4-11.029-21.372-40.942-29.768-55.719-.763-1.321-.534-7.358-.534-7.358Z" transform="translate(-92.527 -148.874)" fill="#455a64"/>
        <path id="Path_16293" data-name="Path 16293" d="M223.661,406.541c-5.709-.107-23.005-.588-30.615,0-.061,0-.061.1,0,.107,2.61.412,24.905.137,30.615,0a.076.076,0,1,0,0-.107Z" transform="translate(-108.038 -192.256)" fill="#263238"/>
        <path id="Path_16294" data-name="Path 16294" d="M135.885,230.91c2.458,3.961,5.053,7.839,7.564,11.77s5.022,7.862,7.5,11.815q7.411,11.861,14.5,23.929a72.023,72.023,0,0,1,5.816,11.67,70.983,70.983,0,0,1,3.206,12.525c.725,4.274,1.191,8.595,1.618,12.907q.687,6.869,1.366,13.785,1.4,14.105,2.8,28.241c.115,1.152.229,2.29.328,3.465a.154.154,0,0,1-.305,0c-1.061-9.35-1.916-18.715-2.862-28.073L176,318.969c-.435-4.328-.855-8.663-1.473-12.976a85.107,85.107,0,0,0-2.71-12.564,60.1,60.1,0,0,0-5.343-12.212c-4.511-8.007-9.289-15.884-14.075-23.745s-9.694-15.823-14.746-23.608c-.626-.962-1.252-1.916-1.9-2.862C135.71,230.9,135.839,230.834,135.885,230.91Z" transform="translate(-94.483 -150.739)" fill="#263238"/>
        <path id="Path_16295" data-name="Path 16295" d="M131.454,431.372c-1.817-.153-48.414-19.685-49.7-21.524a.61.61,0,0,1-.069-.344c0-1.611,3.343-7.213,6.106-14.571.176-.473,1.412-2.648,3.122-5.595,4.709-8.068,13.044-21.9,13.044-21.9l30.462,12.541L119.5,401.734l-2.343,5.282s14.182,15.021,15.365,17.166S133.256,431.494,131.454,431.372Z" transform="translate(-81.687 -183.067)" fill="#eb9481"/>
        <path id="Path_16296" data-name="Path 16296" d="M131.454,438.163c-1.817-.153-48.414-19.685-49.7-21.524a.61.61,0,0,1-.069-.343c0-1.611,3.343-7.213,6.106-14.571.176-.473,1.412-2.649,3.122-5.595l28.585,12.4-2.343,5.282s14.182,15.021,15.365,17.166S133.256,438.285,131.454,438.163Z" transform="translate(-81.687 -189.859)" fill="#fff"/>
        <path id="Path_16297" data-name="Path 16297" d="M131.448,439.906c-1.809-.13-48.414-19.685-49.689-21.5-.489-.687,1.679-7.06,6.106-14.914l29.363,12.082s14.189,15.021,15.38,17.166S133.257,440.028,131.448,439.906Z" transform="translate(-81.688 -191.601)" fill="#e27e28"/>
        <path id="Path_16298" data-name="Path 16298" d="M132.707,442.6c-7.549-3.351-38.316-16.158-46.025-18.9-.069,0-.084,0,0,.046,7.411,3.488,38.27,16.029,45.995,18.975C132.83,442.782,132.875,442.667,132.707,442.6Z" transform="translate(-82.856 -196.385)" fill="#263238"/>
        <path id="Path_16299" data-name="Path 16299" d="M142.692,437.9a6.647,6.647,0,0,0-5.343,0,6.434,6.434,0,0,0-3.389,3.366c0,.046.061.084.092.038a7.633,7.633,0,0,1,8.594-3.274.069.069,0,1,0,.046-.13Z" transform="translate(-94.061 -199.613)" fill="#263238"/>
        <path id="Path_16300" data-name="Path 16300" d="M128.578,421.578c-3.053-1.313-7.022-1.7-9.923,0-.115.069,0,.229.092.214a45.8,45.8,0,0,1,9.755.176.206.206,0,0,0,.076-.389Z" transform="translate(-90.427 -195.614)" fill="#263238"/>
        <path id="Path_16301" data-name="Path 16301" d="M131.168,424.059c-3.053-1.305-7.022-1.7-9.923,0-.115.069,0,.229.092.221a45.338,45.338,0,0,1,9.755.168.206.206,0,0,0,.076-.389Z" transform="translate(-91.04 -196.202)" fill="#263238"/>
        <path id="Path_16302" data-name="Path 16302" d="M133.748,426.548c-3.053-1.313-7.014-1.7-9.923,0-.114.061,0,.221.092.214a45.9,45.9,0,0,1,9.762.175.206.206,0,0,0,.069-.389Z" transform="translate(-91.651 -196.791)" fill="#263238"/>
        <path id="Path_16303" data-name="Path 16303" d="M136.338,429.029c-3.053-1.305-7.022-1.7-9.922,0-.114.069,0,.229.092.221a45.4,45.4,0,0,1,9.762.168.206.206,0,0,0,.069-.389Z" transform="translate(-92.264 -197.379)" fill="#263238"/>
        <path id="Path_16304" data-name="Path 16304" d="M91.985,415.187c-3.427-1.4-5.625,3.916-2.2,5.343S95.42,416.607,91.985,415.187Z" transform="translate(-83.197 -194.315)" fill="#263238"/>
        <path id="Path_16305" data-name="Path 16305" d="M137.006,412.633c-1.015-1.923-3.481-1.481-4.984-.542a17.288,17.288,0,0,0-6.015,6.656.084.084,0,0,0,.061.122.4.4,0,0,0,.443.473c2.8-.6,5.862-.893,8.4-2.336C136.38,416.167,137.96,414.449,137.006,412.633Zm-6.427,4.931c-1.366.328-2.74.588-4.1.969,1.175-1.29,2.29-2.633,3.6-3.816a19.69,19.69,0,0,1,1.969-1.6c1.084-.764,5.137-2.038,4.068,1.4C135.5,416.411,132.2,417.174,130.579,417.564Z" transform="translate(-92.176 -193.447)" fill="#263238"/>
        <path id="Path_16306" data-name="Path 16306" d="M114.74,416.648c2.488,1.526,5.541,1.885,8.32,2.564.29.077.481-.214.466-.458a.091.091,0,0,0,.061-.13,17.365,17.365,0,0,0-5.831-6.816c-1.473-.977-3.931-1.488-4.992.4S113.289,415.763,114.74,416.648Zm-1.114-2.5c-.977-3.48,3.053-2.061,4.1-1.3a19.914,19.914,0,0,1,1.923,1.649c1.275,1.214,2.351,2.587,3.488,3.908-1.343-.412-2.71-.71-4.068-1.076C117.442,416.885,114.16,416.06,113.625,414.144Z" transform="translate(-88.961 -193.363)" fill="#263238"/>
        <path id="Path_16307" data-name="Path 16307" d="M123.815,362.208,89.72,347.95S132.975,286,133.349,281.363c.328-4.114-17.891-40.186-18.494-50.643-.656-11.281,4.877-19.937,10.907-25.279l34.347,15.265a24.184,24.184,0,0,1-8.915,9.388s17.616,41.644,16.426,54.375S123.815,362.208,123.815,362.208Z" transform="translate(-83.588 -144.717)" fill="#455a64"/>
        <path id="Path_16308" data-name="Path 16308" d="M127.409,398.52c-4.923-2.19-3.481-1.633-8.434-3.771-2.427-1.046-18.319-7.9-20.792-8.48-.053,0-.092.076,0,.107,2.114,1.328,18.166,7.907,20.608,8.9,4.992,2.045,3.58,1.4,8.594,3.389a.076.076,0,0,0,.023-.145Z" transform="translate(-85.579 -187.525)" fill="#263238"/>
        <path id="Path_16309" data-name="Path 16309" d="M174.54,236.818a65.639,65.639,0,0,0-10.808,3.358.115.115,0,0,0,.069.214c3.626-1.015,7.32-1.954,10.877-3.152a.221.221,0,0,0-.137-.42Z" transform="translate(-101.095 -152.144)" fill="#263238"/>
        <path id="Path_16310" data-name="Path 16310" d="M172,234.786a17.274,17.274,0,0,0-.931,1.885,4.312,4.312,0,0,0-.481,1.58.122.122,0,0,0,.206.069,5.763,5.763,0,0,0,.908-1.481c.305-.58.626-1.16.916-1.748C172.819,234.7,172.223,234.412,172,234.786Z" transform="translate(-102.732 -151.623)" fill="#263238"/>
        <path id="Path_16311" data-name="Path 16311" d="M172.715,229.465c.221-.542.443-1.084.679-1.618s.527-1.107.763-1.679c0-.092.176,0,.137.069-.221.542-.366,1.114-.55,1.679s-.374,1.114-.565,1.672a26.441,26.441,0,0,1-1.252,3.053,3.937,3.937,0,0,0,1.7-.275,3.052,3.052,0,0,0,1.214-1.42c.321-.611.611-1.229.939-1.824a12.972,12.972,0,0,0,1.007-2.038c0-.092.168,0,.137.061a23.443,23.443,0,0,1-1.939,4.335c-.328.534-.6,1.091-1.206,1.3a4.847,4.847,0,0,1-2.015.107c-.084,0-.191,0-.16-.13A33.694,33.694,0,0,1,172.715,229.465Z" transform="translate(-102.972 -149.615)" fill="#263238"/>
        <path id="Path_16312" data-name="Path 16312" d="M170.96,239.483c1.221,2.679,2.29,5.343,3.435,8.014s2.16,5.244,3.168,7.892q3.053,8.037,5.457,16.3,1.175,4.084,2.152,8.228a60.48,60.48,0,0,1,1.526,8.4,21.928,21.928,0,0,1-.817,8.4,48.2,48.2,0,0,1-3.213,7.8c-.763,1.58-1.046,1.366-.664.565,1.084-2.29,3.931-9.159,3.816-14.975a43.841,43.841,0,0,0-1.206-8.32c-.611-2.794-1.313-5.564-2.076-8.32-1.527-5.427-3.3-10.754-5.152-16.067-1.038-2.977-2.16-5.931-3.213-8.9s-2.16-5.694-3.343-8.961a.076.076,0,0,1,.13-.053Z" transform="translate(-102.789 -152.771)" fill="#263238"/>
        <path id="Path_16313" data-name="Path 16313" d="M136.949,225.326c.618-.221,1.465.16,2.091.275a18.441,18.441,0,0,0,2.42.275,18.145,18.145,0,0,0,2.412-.053,5.137,5.137,0,0,0,2.29-.58,11.594,11.594,0,0,0,2.984-3.053,18.128,18.128,0,0,0,2.343-4c0-.084.153,0,.122.061-.267.817-.466,1.641-.809,2.443a15,15,0,0,1-1.153,2.16,9.365,9.365,0,0,1-3.1,3.427,9.171,9.171,0,0,1-4.847.611,19.4,19.4,0,0,1-2.725-.4c-.649-.145-1.733-.267-2.145-.84a.2.2,0,0,1,.114-.328Z" transform="translate(-94.73 -147.727)" fill="#263238"/>
        <path id="Path_16314" data-name="Path 16314" d="M102.634,342.495q8.61-12.678,16.906-25.562t16.38-26.012a36.872,36.872,0,0,0,3.6-6.48c.916-2.526.443-4.976-.321-7.465a126.693,126.693,0,0,0-5.1-13.365c-1.923-4.381-4-8.686-6.037-12.976a124.4,124.4,0,0,1-5.7-13.1,22.305,22.305,0,0,1-.763-13.166c1.206-4.419,3.732-8.32,6.366-11.976.695-.969,1.4-1.923,2.091-2.885a.071.071,0,1,1,.114.084,51.26,51.26,0,0,0-7.457,12.357,21.529,21.529,0,0,0-1.527,6.946,22.463,22.463,0,0,0,1.03,7.144,92.148,92.148,0,0,0,5.45,12.976c1.984,4.206,4.122,8.633,6.106,12.976a138.746,138.746,0,0,1,5.3,13.418,18.613,18.613,0,0,1,1.343,6.343c-.076,2.381-1.244,4.511-2.443,6.5-5.236,8.678-10.686,17.242-16.151,25.76s-11.129,17.021-16.792,25.44l-2.206,3.229C102.74,342.785,102.55,342.625,102.634,342.495Z" transform="translate(-86.64 -145.673)" fill="#263238"/>
        <path id="Path_16315" data-name="Path 16315" d="M192.718,130.377c-2.29-3.549-6.808-4.847-11.35-4.412s-10.083,2.175-11.4,9.808c-1.061,6.2.16,12.487-.611,19.448s-10.136,23.089,1.145,32.706c10.129,8.648,33,4.274,35.3-10.953,1.824-12.075-10.854-24.829-11.808-29.768S195.275,134.269,192.718,130.377Z" transform="translate(-101.405 -125.884)" fill="#263238"/>
        <path id="Path_16316" data-name="Path 16316" d="M202.951,141a28.022,28.022,0,0,0,.87,10.48,10.1,10.1,0,0,0,1.114,2.5c.466.763.969,1.481,1.465,2.2,1.015,1.427,2.015,2.847,2.946,4.3a36.361,36.361,0,0,1,4.419,9.32,28.449,28.449,0,0,1,1.053,10.289,24.086,24.086,0,0,0,.4-5.244,26.4,26.4,0,0,0-.763-5.236,32.281,32.281,0,0,0-4.312-9.648c-.954-1.481-1.985-2.908-3.007-4.32a18.077,18.077,0,0,1-2.633-4.374,22.672,22.672,0,0,1-1.16-5.022A43.753,43.753,0,0,1,202.951,141Z" transform="translate(-110.356 -129.462)" fill="#263238"/>
        <path id="Path_16317" data-name="Path 16317" d="M169.3,145.75c-.3,3.557-.458,7.114-.924,10.617a45.424,45.424,0,0,1-.977,5.19c-.435,1.672-1.107,3.328-1.7,5.007s-1.145,3.389-1.61,5.129a32.228,32.228,0,0,0-.893,5.343,19.708,19.708,0,0,0,.4,5.4,13.457,13.457,0,0,0,2.366,4.8,14.328,14.328,0,0,1-1.9-4.9,19.081,19.081,0,0,1-.122-5.228,46.4,46.4,0,0,1,2.679-10.2c.572-1.679,1.244-3.335,1.672-5.114a36.292,36.292,0,0,0,.832-5.343A91.08,91.08,0,0,0,169.3,145.75Z" transform="translate(-100.973 -130.587)" fill="#263238"/>
        <path id="Path_16318" data-name="Path 16318" d="M178.274,167.76c-1.046,5.969-.412,31.8,2.6,40.041,3.511,9.61,11.365,26.531,14.105,26.516,2.61,0,16.838-8.32,15.265-10.632s-12.441-19.532-13.968-22.707c-.916-1.885-6.534-20.86-10.06-30.355C183.007,162.028,179.717,159.548,178.274,167.76Z" transform="translate(-104.441 -134.607)" fill="#eb9481"/>
        <path id="Path_16319" data-name="Path 16319" d="M177.019,184.2l16.616,1.694s-6.8-17.051-10.251-21.5c-3.816-5.007-5.572-1.946-6.4,4.007S177.019,184.2,177.019,184.2Z" transform="translate(-104.162 -134.404)" fill="#00a3b1"/>
        <path id="Path_16320" data-name="Path 16320" d="M181.359,168.452a.84.84,0,1,1-.84-.832A.84.84,0,0,1,181.359,168.452Zm-.84,9.739a.832.832,0,1,0,.6.244A.84.84,0,0,0,180.52,178.191Zm7.3,0a.84.84,0,1,0,.84.84A.84.84,0,0,0,187.824,178.191Zm-10.953-5.274h-.16c0,.534-.046,1.084-.061,1.633a.7.7,0,0,0,.221,0,.84.84,0,1,0,0-1.679Zm7.3,0a.84.84,0,1,0,.832.84.839.839,0,0,0-.832-.84ZM176.917,183.5c.046.763.084,1.313.115,1.664a.84.84,0,0,0-.115-1.664Zm7.3,0a.882.882,0,1,1-.038,0Zm7.3,0a.9.9,0,1,1-.038,0Z" transform="translate(-104.167 -135.764)" fill="#fff"/>
        <path id="Path_16321" data-name="Path 16321" d="M191.967,188.7c-.565-.145-5.732-.763-6.869-.863s-5.725-.6-6.869-.611a.038.038,0,0,0,0,.076c1.137.237,5.778.763,6.923.878s6.274.618,6.869.6C192.02,188.779,192.013,188.711,191.967,188.7Z" transform="translate(-104.532 -140.406)" fill="#263238"/>
        <path id="Path_16322" data-name="Path 16322" d="M190.845,185.642l-13.823-1.4s-.855-9.854,0-15.807c.6-4.343,1.679-7.144,3.725-6.389Z" transform="translate(-104.165 -134.414)" fill="#263238"/>
        <path id="Path_16323" data-name="Path 16323" d="M170.26,212.963l1.992-16.662s6.312-4.679,5.58-10.686c-.366-3.053-4.465-18.631-7.908-23.348-3.236-4.427-9.663-3.389-12.51-1.389-9.06,6.373-16.479,13.289-27.714,37.294Z" transform="translate(-93.053 -133.761)" fill="#00a3b1"/>
        <path id="Path_16324" data-name="Path 16324" d="M156.394,166.811a.84.84,0,1,1-.84-.832.84.84,0,0,1,.84.832Zm6.465-.832a.84.84,0,1,0,.832.832A.84.84,0,0,0,162.859,165.979Zm7.3,0a.832.832,0,1,0,.593.241A.839.839,0,0,0,170.156,165.979ZM159.2,160.705a.383.383,0,0,0-.13,0h0a4.875,4.875,0,0,0-.481.267.8.8,0,0,0-.214.557.84.84,0,1,0,.832-.84Zm7.3,0a.84.84,0,1,0,.84.84A.84.84,0,0,0,166.507,160.705Zm-18.273,15.846a.832.832,0,1,0,.6.244A.84.84,0,0,0,148.235,176.551Zm7.3,0a.83.83,0,1,0,.015,0Zm7.3,0a.823.823,0,1,0,.015,0Zm7.3,0a.832.832,0,1,0,.015,0Zm-18.25-5.274a.824.824,0,1,0,.015,0Zm7.3,0a.832.832,0,1,0,.015,0Zm7.3,0a.832.832,0,1,0,.015,0Zm7.3,0a.825.825,0,1,0,.015,0Zm-32.821,15.845a.849.849,0,1,1-.023,0Zm7.3,0a.9.9,0,1,1-.038,0Zm7.3,0a.869.869,0,1,1-.023,0Zm7.3,0a.849.849,0,1,1-.023,0Zm7.3,0a.881.881,0,1,1-.023,0Zm7.3,0a.869.869,0,1,1-.023,0Zm-32.821-5.267a.94.94,0,1,1-.061,0Zm7.3,0a.914.914,0,1,1-.061,0Zm7.3,0a.941.941,0,1,1-.061,0Zm7.3,0a.925.925,0,1,1-.061,0Zm7.3,0a.917.917,0,1,1-.061,0ZM133.71,197.693a.925.925,0,1,1-.061,0Zm7.3,0a.9.9,0,1,1-.061,0Zm7.3,0a.967.967,0,1,1-.076,0Zm7.3,0a.925.925,0,1,1-.061,0Zm7.3,0a.9.9,0,1,1-.061,0Zm7.3,0a.94.94,0,1,1-.061,0Zm-32.859-5.267a.941.941,0,1,1-.061,0Zm7.3,0a.941.941,0,1,1-.061,0Zm7.3,0a.917.917,0,1,1-.061,0Zm7.3,0a.941.941,0,1,1-.061,0Zm7.3,0a.925.925,0,1,1-.061,0Zm7.3,0a.917.917,0,1,1-.061,0Zm-11.014,15.823a.84.84,0,1,0,.832.84A.84.84,0,0,0,162.859,208.249Zm7.3,0a.84.84,0,1,0,.84.84A.84.84,0,0,0,170.156,208.249ZM144.6,202.983a.824.824,0,0,0-.763.435l1.527.572a1.247,1.247,0,0,0,0-.175A.84.84,0,0,0,144.6,203Zm7.3,0a.824.824,0,1,1,0,.015Zm7.3,0a.824.824,0,1,1,0,.015Zm7.3,0a.82.82,0,1,1,0,.015Z" transform="translate(-93.803 -134.124)" fill="#fff"/>
        <rect id="Rectangle_6865" data-name="Rectangle 6865" width="8.442" height="49.262" transform="translate(67.989 100.535) rotate(-112.36)" fill="#c7c7c7"/>
        <path id="Path_16325" data-name="Path 16325" d="M135.14,253.17l4.854,11.808h0l31.821-13.09h0l-4.862-11.808h0Z" transform="translate(-94.34 -152.918)" fill="#263238"/>
        <path id="Path_16326" data-name="Path 16326" d="M227.06,178.345A38.469,38.469,0,1,1,240.4,231.08,38.469,38.469,0,0,1,227.06,178.345Zm3.816,2.29a26.48,26.48,0,1,0-.031-.038Z" transform="translate(-114.819 -133.857)" fill="#37474f"/>
        <path id="Path_16334" data-name="Path 16334" d="M153.324,162.871c-4.793,3.3-25.608,20.158-28.081,29.852-1.527,5.946,9.068,26.829,11.93,31.828,1.252,2.175,16.219-5.274,16.792-7.9s-10.228-21.524-10.426-23.493c0,0,9.64-15.533,14.762-23.806C163.14,161.542,162.278,156.7,153.324,162.871Z" transform="translate(-91.962 -133.976)" fill="#eb9481"/>
        <path id="Path_16335" data-name="Path 16335" d="M163.735,247.515c1.7,2.641,6.106,4.709,4.58,6.5-1.336,1.6-4.267-.137-4.267-.137s2.671,3.015.763,4.32-4.748-1.252-4.748-1.252,2.336,2.412.313,3.572-4.8-.572-4.8-.572.191,1.152-1.6,1.328c-2.565.26-6.434-3.763-7.953-6.335s-5.175-13.136-5.709-14.762l16.456-9.923s4.816,3.335,7.053,5.343,7.785,10.587,5.747,12.105-5.854-4.618-7.121-5.915-1.778-1.229-1.664-.2A35.16,35.16,0,0,0,163.735,247.515Z" transform="translate(-95.564 -150.59)" fill="#eb9481"/>
        <path id="Path_16336" data-name="Path 16336" d="M169.093,258.241c-3.9-2.694-5.145-4.58-6.976-8.846,0-.084-.168-.053-.137.038,1.412,4.374,2.626,6.923,6.992,9.007C169.184,258.546,169.276,258.371,169.093,258.241Z" transform="translate(-100.693 -155.111)" fill="#263238"/>
        <path id="Path_16337" data-name="Path 16337" d="M164.083,262.36c-3.816-3.16-5.167-5.16-7.419-9.518,0-.061-.137,0-.114.053,1.847,4.458,3.129,6.976,7.35,9.633C164.09,262.65,164.258,262.505,164.083,262.36Z" transform="translate(-99.408 -155.933)" fill="#263238"/>
        <path id="Path_16338" data-name="Path 16338" d="M158.139,265.966c-3.473-3.32-5.06-5.45-6.7-9.968a.092.092,0,0,0-.168.053,15.917,15.917,0,0,0,6.755,10.007C158.269,266.233,158.353,266.172,158.139,265.966Z" transform="translate(-98.159 -156.676)" fill="#263238"/>
        <path id="Path_16339" data-name="Path 16339" d="M156.38,180.946,141,174.367s14.25-11.594,19.4-13.823c5.8-2.511,5.809,1,3.649,6.6S156.38,180.946,156.38,180.946Z" transform="translate(-95.728 -133.894)" fill="#00a3b1"/>
        <path id="Path_16340" data-name="Path 16340" d="M152.455,166.87a.824.824,0,0,1-.832.763.762.762,0,0,1-.191,0Zm6.473-.885a.832.832,0,1,0,.593.241A.84.84,0,0,0,158.928,165.984Zm6.465.832a.763.763,0,0,0,.16.489c.168-.443.328-.878.458-1.29a.832.832,0,0,0-.618.8Zm-2.816-6.106a.832.832,0,1,0,.6.244A.84.84,0,0,0,162.576,160.71Zm-10.968,15.846a.832.832,0,1,0,.6.244A.84.84,0,0,0,151.608,176.556Zm7.3,0a.832.832,0,1,0,.015,0Zm-10.953-5.274a.826.826,0,1,0,.015,0Zm7.3,0a.819.819,0,1,0,.015,0Zm7.3,0a.84.84,0,1,0,0,1.679.762.762,0,0,0,.29-.053l.527-.977a.839.839,0,0,0-.8-.649Z" transform="translate(-97.177 -134.128)" fill="#fff"/>
        <path id="Path_16341" data-name="Path 16341" d="M145.376,176.55c.572.145,5.389,2.122,6.427,2.572s5.3,2.29,6.327,2.816c.046,0,0,.1,0,.076-1.114-.343-5.412-2.16-6.48-2.6s-5.786-2.5-6.274-2.8C145.3,176.6,145.338,176.542,145.376,176.55Z" transform="translate(-96.753 -137.878)" fill="#263238"/>
        <path id="Path_16342" data-name="Path 16342" d="M159.535,183.192c.473.168,1.206.45,1.206.45,1.1-1.6,5.923-10.174,7.121-12.212h.053q-.9,1.809-1.832,3.6l.305-.4c.366-.481.763-.954,1.1-1.45,0,0,.1,0,.069.046a14.247,14.247,0,0,1-1.007,1.526c-.259.336-.55.656-.84.969-.359.687-.71,1.366-1.091,2.038-1.153,2.069-2.29,4.251-3.6,6.228a8.91,8.91,0,0,1-1.527-.7C159.413,183.253,159.466,183.169,159.535,183.192Z" transform="translate(-100.096 -136.666)" fill="#263238"/>
        <path id="Path_16343" data-name="Path 16343" d="M212.72,243.935a3.053,3.053,0,0,1-3.564.443s.427,2.878-1.611,4.168c-1.046.664-3.053-.427-3.053-.427a3.6,3.6,0,0,1-1.649,3.351c-1.527.832-3.259-.389-3.259-.389s-.809,2.328-2.6,2.679c-3.648.717-12.052-11.342-8.915-16.3,1.465-2.29,3.358.763,3.358.763s-1.656-5.053.763-6.87,4.656,2.29,4.656,2.29-1.565-4.908,1.152-6.518c2.832-1.672,4.351,2.824,4.351,2.824s-.054-3.946,2.29-4.7c3.908-1.244,3.61,7.579,6.106,9.793l5.694-2.366S214.674,242.188,212.72,243.935Z" transform="translate(-106.707 -149.377)" fill="#eb9481"/>
        <path id="Path_16344" data-name="Path 16344" d="M200.526,254.874c0,.038,0,.092-.053.061A25.524,25.524,0,0,1,192.55,242c0-.16.214-.29.282-.122A52.2,52.2,0,0,0,200.526,254.874Z" transform="translate(-107.931 -153.324)" fill="#263238"/>
        <path id="Path_16345" data-name="Path 16345" d="M207.417,250.742c.038.046,0,.107-.084.069a23.971,23.971,0,0,1-7.762-14.655c0-.2.16-.4.2-.168C200.463,239.789,204.379,247.094,207.417,250.742Z" transform="translate(-109.593 -151.924)" fill="#263238"/>
        <path id="Path_16346" data-name="Path 16346" d="M207.081,230.9c.763,5.518,3.274,10.228,6.518,14.7.038.061-.046.114-.092.076-2.183-1.755-3.954-4.824-5.129-7.32a14.655,14.655,0,0,1-1.526-7.427C206.9,230.831,207.066,230.785,207.081,230.9Z" transform="translate(-111.311 -150.728)" fill="#263238"/>
        <path id="Path_16347" data-name="Path 16347" d="M192.433,237.913a10.6,10.6,0,0,1-.618-3.13,4.58,4.58,0,0,1,.87-3.106,2.8,2.8,0,0,1,1.42-.939,2.29,2.29,0,0,1,1.694.305,6.435,6.435,0,0,1,2.168,2.473l-.488.191a9.792,9.792,0,0,1-.351-3.259,4.741,4.741,0,0,1,1.282-3.053,3.351,3.351,0,0,1,1.488-.855,2.221,2.221,0,0,1,1.717.313,5.5,5.5,0,0,1,1.893,2.687l-.359.053a7.736,7.736,0,0,1,.282-1.527,5.423,5.423,0,0,1,.626-1.45,3.137,3.137,0,0,1,1.122-1.114,2.6,2.6,0,0,1,1.527-.259,2.641,2.641,0,0,0-1.465.366,2.969,2.969,0,0,0-.992,1.114,7.189,7.189,0,0,0-.763,2.923l-.046.763-.313-.763a5.19,5.19,0,0,0-1.8-2.4,1.664,1.664,0,0,0-1.336-.229,2.748,2.748,0,0,0-1.237.763,4.16,4.16,0,0,0-1.084,2.725,9.4,9.4,0,0,0,.29,3.053l.542,2.137-1.038-1.939a5.993,5.993,0,0,0-1.946-2.29,1.862,1.862,0,0,0-1.351-.29,2.289,2.289,0,0,0-1.221.763,4.458,4.458,0,0,0-.924,2.862A11.454,11.454,0,0,0,192.433,237.913Z" transform="translate(-107.753 -149.4)" fill="#263238"/>
        <path id="Path_16348" data-name="Path 16348" d="M174.409,159.543c-.061.763,1.664,5.915,5.206,6.564,1.84.336,2.992-4.656,2.992-4.656l.237-.4,3.335-5.641-5.663-6.908-.832-.939s-.809,1.6-1.8,3.61l-.137.29a3.254,3.254,0,0,0-.168.321c-.153.3-.305.6-.45.908s-.229.466-.336.71l-.336.763a43.652,43.652,0,0,0-2.045,5.381Z" transform="translate(-103.636 -131.015)" fill="#eb9481"/>
        <path id="Path_16349" data-name="Path 16349" d="M179,151.17a13.128,13.128,0,0,0,4.961,9.877l3.336-5.641-5.664-6.908-.832-.939S179.962,149.163,179,151.17Z" transform="translate(-104.723 -131.015)" fill="#263238"/>
        <path id="Path_16350" data-name="Path 16350" d="M199.119,144.849c-2.855,11.144-9.846,10.686-12.212,10.075-2.183-.557-9.541-2.748-7.854-14.128s7.77-13.579,12.823-12.556S201.974,133.706,199.119,144.849Z" transform="translate(-104.677 -126.389)" fill="#eb9481"/>
        <path id="Path_16351" data-name="Path 16351" d="M179.433,139.649c2.58.931,3.984-3.16,3.984-3.16s3.053.763,4.9-3.9a7.633,7.633,0,0,0,4.19,5.343c.763.42-1.259-2.748-1.259-2.748s2.29,4.244,8.991,5.282c.473.069,1.847-6.869-2.29-10.861a11.064,11.064,0,0,0-13.151-2.221,6.312,6.312,0,0,0-4.793,3.557C178.4,134.2,178.433,139.29,179.433,139.649Z" transform="translate(-104.66 -125.943)" fill="#263238"/>
        <path id="Path_16352" data-name="Path 16352" d="M180.141,144.3s-1.175-4.213-3.053-3.908-1.771,5.839-.2,7.144a1.939,1.939,0,0,0,2.8-.122Z" transform="translate(-103.941 -129.315)" fill="#eb9481"/>
        <path id="Path_16353" data-name="Path 16353" d="M177.633,142.48v.046a4.877,4.877,0,0,1,1.382,3.74,1.069,1.069,0,0,0-1.42-.809c-.038,0,0,.076,0,.084a1.183,1.183,0,0,1,1.1.824,5.523,5.523,0,0,1,.244,1.214c0,.137.244.145.252,0h0C179.77,145.93,179.3,143.243,177.633,142.48Z" transform="translate(-104.387 -129.813)" fill="#263238"/>
        <path id="Path_16354" data-name="Path 16354" d="M202.476,147.811a7.62,7.62,0,0,1-.687-.4c-.26-.16-.488-.252-.626-.542a.412.412,0,0,1,.16-.473,1.008,1.008,0,0,1,1.023.084,1.527,1.527,0,0,1,.725.763.435.435,0,0,1-.6.565Z" transform="translate(-109.965 -130.716)" fill="#263238"/>
        <path id="Path_16355" data-name="Path 16355" d="M193.992,143.242a6.76,6.76,0,0,0,.763.13,1.221,1.221,0,0,0,.824,0,.412.412,0,0,0,.183-.466,1.031,1.031,0,0,0-.847-.588,1.474,1.474,0,0,0-1.061.153.435.435,0,0,0,.137.771Z" transform="translate(-108.197 -129.765)" fill="#263238"/>
        <path id="Path_16356" data-name="Path 16356" d="M194.569,147.89s-.069,0-.076.046c-.2.763-.557,1.6-1.313,1.633v.046C194.019,149.752,194.485,148.638,194.569,147.89Z" transform="translate(-108.08 -131.093)" fill="#263238"/>
        <path id="Path_16357" data-name="Path 16357" d="M193.977,146.582c-1.183-.458-2.007,1.931-.916,2.358S194.962,146.964,193.977,146.582Z" transform="translate(-107.931 -130.77)" fill="#263238"/>
        <path id="Path_16358" data-name="Path 16358" d="M193.273,146.384c-.252.061-.542.229-.8.168s-.435-.4-.542-.7h-.046a.916.916,0,0,0,.313,1.221.931.931,0,0,0,1.16-.5C193.411,146.514,193.38,146.361,193.273,146.384Z" transform="translate(-107.746 -130.61)" fill="#263238"/>
        <path id="Path_16359" data-name="Path 16359" d="M192.282,155.72c.107.244.183.542.443.672a2.163,2.163,0,0,0,.855.13v.046a1.046,1.046,0,0,1-1.076,0,.824.824,0,0,1-.321-.87A.083.083,0,0,1,192.282,155.72Z" transform="translate(-107.838 -132.94)" fill="#263238"/>
        <path id="Path_16360" data-name="Path 16360" d="M196.683,151.29s-.214,1.16-.389,1.687c0,.053-.153,0-.328,0h0a2.6,2.6,0,0,1-2.107-1.733.055.055,0,1,1,.1-.046,4,4,0,0,0,2.053,1.4c.092-.13.305-2,.389-1.977a4.578,4.578,0,0,1,1.1.664c.519-2.412.649-4.877,1.206-7.266a.076.076,0,0,1,.145,0,39.986,39.986,0,0,1-.962,7.885C197.782,152.206,196.866,151.45,196.683,151.29Z" transform="translate(-108.24 -130.166)" fill="#263238"/>
        <path id="Path_16361" data-name="Path 16361" d="M202.841,150.159a2.207,2.207,0,0,0-1.214-.45,1.954,1.954,0,0,0-.687.084,1.711,1.711,0,0,0-.6.389l-.305.313.427.076a4.8,4.8,0,0,1,.9.252,1.824,1.824,0,0,1,.763.55,1.4,1.4,0,0,0-.611-.847,2.711,2.711,0,0,0-.992-.412l.13.389a1.526,1.526,0,0,1,.962-.4A4.656,4.656,0,0,1,202.841,150.159Z" transform="translate(-109.704 -131.523)" fill="#263238"/>
        <path id="Path_16362" data-name="Path 16362" d="M201.159,151.574a4.085,4.085,0,0,1-.809-.6c-.053-.061-.26-.321-.229-.374a1.989,1.989,0,0,1,.29-.4,1.336,1.336,0,0,0-.382.366.634.634,0,0,0,.214.511A1.976,1.976,0,0,0,201.159,151.574Z" transform="translate(-109.701 -131.64)" fill="#263238"/>
      </g>
    </g>
  </g>
</svg>
