<svg xmlns="http://www.w3.org/2000/svg" width="360" height="360" viewBox="0 0 360 360">
  <g id="feature_illustration_4" transform="translate(-6613 -15500)">
    <g id="Rectangle_6877" data-name="Rectangle 6877" transform="translate(6613 15500)" fill="#fff" stroke="#707070" stroke-width="1" opacity="0">
      <rect width="360" height="360" stroke="none"/>
      <rect x="0.5" y="0.5" width="359" height="359" fill="none"/>
    </g>
    <g id="Calculator-cuate" transform="translate(6613 15508.998)">
      <g id="freepik--Shadow--inject-6" transform="translate(4.176 305.995)">
        <path id="Path_15991" data-name="Path 15991" d="M403.347,436.915c0,10-78.715,18.105-175.828,18.105S51.69,446.916,51.69,436.915s78.715-18.1,175.828-18.1S403.347,426.958,403.347,436.915Z" transform="translate(-51.69 -418.81)" fill="#ebebeb"/>
      </g>
      <g id="freepik--Floor--inject-6" transform="translate(0 294.593)">
        <path id="Path_15992" data-name="Path 15992" d="M46.98,406.384l45.006-.213,45-.08,90-.142,90,.142,45,.08,45,.213-45,.221-45,.08-90,.142-90-.142-45-.08Z" transform="translate(-46.98 -405.95)" fill="#263238"/>
      </g>
      <g id="freepik--Calculator--inject-6" transform="translate(142.908 45.6)">
        <rect id="Rectangle_6805" data-name="Rectangle 6805" width="179.144" height="278.509" transform="translate(12.98 0)" fill="#00a3b1"/>
        <rect id="Rectangle_6806" data-name="Rectangle 6806" width="179.144" height="278.509" transform="translate(0 0)" fill="#465a65"/>
        <rect id="Rectangle_6807" data-name="Rectangle 6807" width="179.144" height="278.509" transform="translate(0 0)" fill="#465a65" opacity="0.1"/>
        <rect id="Rectangle_6808" data-name="Rectangle 6808" width="34.446" height="34.446" transform="translate(13.796 71.055)" fill="#fff"/>
        <rect id="Rectangle_6809" data-name="Rectangle 6809" width="34.446" height="34.446" transform="translate(52.826 71.055)" fill="#fff"/>
        <rect id="Rectangle_6810" data-name="Rectangle 6810" width="34.446" height="34.446" transform="translate(91.864 71.055)" fill="#00a3b1"/>
        <rect id="Rectangle_6811" data-name="Rectangle 6811" width="34.446" height="34.446" transform="translate(130.894 71.055)" fill="#00a3b1"/>
        <rect id="Rectangle_6812" data-name="Rectangle 6812" width="34.446" height="34.446" transform="translate(13.796 110.563)" fill="#37474f"/>
        <rect id="Rectangle_6813" data-name="Rectangle 6813" width="34.446" height="34.446" transform="translate(52.826 110.563)" fill="#37474f"/>
        <rect id="Rectangle_6814" data-name="Rectangle 6814" width="34.446" height="34.446" transform="translate(91.864 110.563)" fill="#37474f"/>
        <rect id="Rectangle_6815" data-name="Rectangle 6815" width="34.446" height="34.446" transform="translate(130.894 110.811)" fill="#fff"/>
        <rect id="Rectangle_6816" data-name="Rectangle 6816" width="34.446" height="34.446" transform="translate(13.796 150.072)" fill="#37474f"/>
        <rect id="Rectangle_6817" data-name="Rectangle 6817" width="34.446" height="34.446" transform="translate(52.826 150.072)" fill="#37474f"/>
        <rect id="Rectangle_6818" data-name="Rectangle 6818" width="34.446" height="34.446" transform="translate(91.864 150.072)" fill="#37474f"/>
        <rect id="Rectangle_6819" data-name="Rectangle 6819" width="34.446" height="34.446" transform="translate(130.894 150.072)" fill="#fff"/>
        <rect id="Rectangle_6820" data-name="Rectangle 6820" width="34.446" height="34.446" transform="translate(13.796 189.58)" fill="#37474f"/>
        <rect id="Rectangle_6821" data-name="Rectangle 6821" width="34.446" height="34.446" transform="translate(52.826 189.58)" fill="#37474f"/>
        <rect id="Rectangle_6822" data-name="Rectangle 6822" width="34.446" height="34.446" transform="translate(91.864 189.58)" fill="#37474f"/>
        <rect id="Rectangle_6823" data-name="Rectangle 6823" width="34.446" height="34.446" transform="translate(130.894 189.58)" fill="#fff"/>
        <rect id="Rectangle_6824" data-name="Rectangle 6824" width="34.446" height="34.446" transform="translate(13.796 229.088)" fill="#37474f"/>
        <rect id="Rectangle_6825" data-name="Rectangle 6825" width="34.446" height="34.446" transform="translate(52.826 229.088)" fill="#37474f"/>
        <rect id="Rectangle_6826" data-name="Rectangle 6826" width="34.446" height="34.446" transform="translate(91.864 229.088)" fill="#fff"/>
        <rect id="Rectangle_6827" data-name="Rectangle 6827" width="34.446" height="34.446" transform="translate(130.894 229.088)" fill="#fff"/>
        <path id="Path_15993" data-name="Path 15993" d="M237.369,220.582h0a2.421,2.421,0,0,1,2.385-2.562,2.385,2.385,0,0,1,2.35,2.536h0a2.429,2.429,0,0,1-2.385,2.571,2.394,2.394,0,0,1-2.35-2.545Zm3.458,0h0c0-.8-.461-1.463-1.108-1.463s-1.073.665-1.073,1.436h0c0,.824.461,1.463,1.108,1.463S240.827,221.354,240.827,220.582Zm-1.773,6.694,6.588-8.99a.532.532,0,0,1,.488-.257.559.559,0,0,1,.567.559.663.663,0,0,1-.124.372l-6.588,8.991a.594.594,0,0,1-.5.257.55.55,0,0,1-.559-.559.649.649,0,0,1,.089-.372Zm4.433-1.56h0a2.42,2.42,0,0,1,2.385-2.562,2.394,2.394,0,0,1,2.35,2.536h0a2.429,2.429,0,0,1-2.376,2.571,2.4,2.4,0,0,1-2.412-2.545Zm3.458,0h0c0-.8-.461-1.463-1.1-1.463s-1.082.665-1.082,1.436h0c0,.824.461,1.463,1.108,1.463s1.02-.665,1.02-1.436Z" transform="translate(-211.471 -135.652)" fill="#37474f"/>
        <path id="Path_15994" data-name="Path 15994" d="M321.35,222.949a5.267,5.267,0,0,1,5.258-5.169,5.32,5.32,0,0,1,3.316,1.126.825.825,0,0,1-1,1.3,3.6,3.6,0,0,0-2.314-.789,3.8,3.8,0,0,0-2.58,1.029,3.546,3.546,0,0,0-1.046,2.5,3.467,3.467,0,0,0,1.046,2.491,3.812,3.812,0,0,0,2.58,1.037,3.617,3.617,0,0,0,2.314-.789.822.822,0,0,1,1,1.3,5.374,5.374,0,0,1-3.316,1.117A5.24,5.24,0,0,1,321.35,222.949Z" transform="translate(-220.992 -135.624)" fill="#37474f"/>
        <path id="Path_15995" data-name="Path 15995" d="M334.32,227.358V218.9a.771.771,0,0,1,.789-.789h4.681a.8.8,0,0,1,0,1.587h-3.883v2.66h3.343a.8.8,0,1,1,0,1.6h-3.343v2.66h3.883a.816.816,0,0,1,.789.807.807.807,0,0,1-.789.789h-4.646a.78.78,0,0,1-.825-.851Z" transform="translate(-222.462 -135.662)" fill="#37474f"/>
        <path id="Path_15996" data-name="Path 15996" d="M370.17,222.949a5.307,5.307,0,0,1,8.574-4.043.825.825,0,0,1-1,1.3,3.618,3.618,0,0,0-2.314-.789,3.8,3.8,0,0,0-2.58,1.029,3.547,3.547,0,0,0-1.046,2.5,3.468,3.468,0,0,0,1.046,2.491,3.813,3.813,0,0,0,2.58,1.037,3.635,3.635,0,0,0,2.314-.789.822.822,0,0,1,1,1.3,5.4,5.4,0,0,1-3.316,1.117,5.24,5.24,0,0,1-5.258-5.16Z" transform="translate(-226.526 -135.624)" fill="#37474f"/>
        <path id="Path_15997" data-name="Path 15997" d="M245.871,264.64l-3.547,8.476a.754.754,0,0,1-.727.479.763.763,0,0,1-.3-.062.807.807,0,0,1-.435-1.029l3.1-7.359h-3.706a.816.816,0,0,1-.789-.807.789.789,0,0,1,.789-.789h4.921a.415.415,0,0,1,.142,0,1.251,1.251,0,0,1,.3.115v.045a.057.057,0,0,1,.053.053c.009.053.044.044.062.062s0,.044,0,.053v.071l.053.08v.071a.168.168,0,0,1,0,.071.889.889,0,0,1,0,.31A.444.444,0,0,1,245.871,264.64Z" transform="translate(-211.709 -140.812)" fill="#fff"/>
        <path id="Path_15998" data-name="Path 15998" d="M289.822,270.151a3.431,3.431,0,1,1-5.32-2.855,2.367,2.367,0,1,1,4.265-1.419,2.323,2.323,0,0,1-.479,1.419A3.44,3.44,0,0,1,289.822,270.151Zm-1.569,0A1.862,1.862,0,1,0,286.409,272a1.844,1.844,0,0,0,1.844-1.844Zm-2.66-4.274a.807.807,0,1,0,1.614,0,.8.8,0,0,0-.789-.789.807.807,0,0,0-.833.816Z" transform="translate(-216.64 -140.809)" fill="#fff"/>
        <path id="Path_15999" data-name="Path 15999" d="M327.07,267.033a3.484,3.484,0,0,1,6.942-.355h0v.816a8.247,8.247,0,0,1-.505,2.935,5,5,0,0,1-1.853,2.456,4.068,4.068,0,0,1-2.146.674.8.8,0,0,1-.833-.763.816.816,0,0,1,.771-.825,2.657,2.657,0,0,0,1.348-.408,2.764,2.764,0,0,0,.887-1,2.407,2.407,0,0,0,.186-.372,3.371,3.371,0,0,1-1.374.284A3.467,3.467,0,0,1,327.07,267.033Zm1.6,0a1.888,1.888,0,1,0,1.884-1.759,1.888,1.888,0,0,0-1.884,1.759Z" transform="translate(-221.64 -140.821)" fill="#fff"/>
        <path id="Path_16000" data-name="Path 16000" d="M371.74,269.417a.887.887,0,0,1,.887-.887h4.433a.887.887,0,0,1,0,1.711h-4.433A.887.887,0,0,1,371.74,269.417Z" transform="translate(-226.704 -141.378)" fill="#37474f"/>
        <path id="Path_16001" data-name="Path 16001" d="M246.478,315.215a.789.789,0,0,1-.807.789h-.142v1.091a.789.789,0,0,1-1.578,0v-1.126h-4.513a.682.682,0,0,1-.488-.177.762.762,0,0,1-.133-1.1l5.32-6.6h0v-.062a.159.159,0,0,0,.142-.044l.053-.044c.053-.044,0,0,.089,0s0-.044.053-.044h.089a.088.088,0,0,0,.062,0h.239a.106.106,0,0,0,.071,0h.142l.08.053.071.044h.044l.062.062v.053a.266.266,0,0,1,.062.071.1.1,0,0,0,0,.062.168.168,0,0,1,0,.08v.062a.115.115,0,0,1,0,.08v5.914h.142a.8.8,0,0,1,.94.833Zm-2.527-4.336-2.855,3.547h2.855Z" transform="translate(-211.616 -145.841)" fill="#fff"/>
        <path id="Path_16002" data-name="Path 16002" d="M288.629,311.806a3.547,3.547,0,0,1,1.046,2.527,3.608,3.608,0,0,1-1.046,2.527,3.546,3.546,0,0,1-2.509,1.046h0a3.475,3.475,0,0,1-2.492-1.046.8.8,0,0,1,0-1.153.815.815,0,0,1,1.144,0,1.915,1.915,0,0,0,2.74,0,1.937,1.937,0,0,0-2.74-2.74.807.807,0,0,1-1.144,0c-.062-.053-.1-.124-.16-.186s0-.044,0-.044a.106.106,0,0,0,0-.071v-.1h0a.583.583,0,0,1,0-.248l.434-3.715a.825.825,0,0,1,.355-.567h.1a.886.886,0,0,1,.372-.089h4.238a.816.816,0,1,1,0,1.622h-3.547l-.177,1.419a4.008,4.008,0,0,1,.966-.124A3.548,3.548,0,0,1,288.629,311.806Z" transform="translate(-216.688 -145.846)" fill="#fff"/>
        <path id="Path_16003" data-name="Path 16003" d="M334.032,314.407a3.484,3.484,0,0,1-6.942.364h0v-.816a8.44,8.44,0,0,1,.5-2.935,5.045,5.045,0,0,1,1.853-2.456,4.1,4.1,0,0,1,2.155-.674.789.789,0,0,1,.825.762.834.834,0,0,1-.771.833,2.57,2.57,0,0,0-1.348.4,3.015,3.015,0,0,0-.887,1c-.071.115-.124.248-.186.372a3.367,3.367,0,0,1,1.374-.284A3.485,3.485,0,0,1,334.032,314.407Zm-1.6,0a1.889,1.889,0,1,0-1.884,1.759,1.889,1.889,0,0,0,1.884-1.759Z" transform="translate(-221.643 -145.84)" fill="#fff"/>
        <path id="Path_16004" data-name="Path 16004" d="M371.985,313.7a.745.745,0,0,1,0-1.49h5.8a.745.745,0,0,1,0,1.49Zm3.883-3.768v.071a.993.993,0,0,1-1.977,0v-.071a.993.993,0,0,1,1.977,0Zm0,5.976v.08a.993.993,0,0,1-1.977,0v-.08a.993.993,0,0,1,1.977,0Z" transform="translate(-226.648 -145.97)" fill="#37474f"/>
        <path id="Path_16005" data-name="Path 16005" d="M244.422,353.183v8.467a.8.8,0,0,1-.807.789.771.771,0,0,1-.78-.789v-7.093l-.576.328a.709.709,0,0,1-.4.115.8.8,0,0,1-.417-1.472l1.773-1.055h.053a.088.088,0,0,0,.071-.044h.142a.222.222,0,0,1,.106,0h.151a.089.089,0,0,0,.062,0h.089a.071.071,0,0,1,.053,0,.269.269,0,0,0,.089.044l.053.044.062.044a.107.107,0,0,1,.053.053v.053l.062.062h0v.186a.407.407,0,0,0,0,.071.151.151,0,0,0,0,.106Z" transform="translate(-211.891 -150.888)" fill="#fff"/>
        <path id="Path_16006" data-name="Path 16006" d="M289.9,361.647a.781.781,0,0,1-.789.789h-5.107a.78.78,0,0,1-.585-.257.8.8,0,0,1,.044-1.126l4.247-3.839a1.853,1.853,0,0,0-1.25-3.227,1.923,1.923,0,0,0-1.25.47l-.443.408a.8.8,0,0,1-1.064-1.179l.443-.4a3.413,3.413,0,0,1,2.314-.887,3.458,3.458,0,0,1,2.554,1.135,3.387,3.387,0,0,1,.887,2.314,3.457,3.457,0,0,1-1.135,2.554l-2.7,2.447h3.05a.8.8,0,0,1,.789.8Z" transform="translate(-216.668 -150.886)" fill="#fff"/>
        <path id="Path_16007" data-name="Path 16007" d="M332.767,356.337a3.485,3.485,0,0,1,1.046,2.509,3.547,3.547,0,0,1-6.073,2.527.809.809,0,1,1,1.144-1.144,1.907,1.907,0,0,0,1.365.559,1.977,1.977,0,0,0,1.374-.559,1.924,1.924,0,0,0,.576-1.383,1.852,1.852,0,0,0-.576-1.356,1.923,1.923,0,0,0-1.365-.576.7.7,0,0,1-.585-.257h0a.807.807,0,0,1,0-1.144l1.463-1.489h-2.323a.816.816,0,0,1-.807-.825.8.8,0,0,1,.807-.8h4.229a.807.807,0,0,1,.718,1.188,1.669,1.669,0,0,1-.142.2l-1.773,1.862A3.148,3.148,0,0,1,332.767,356.337Z" transform="translate(-221.689 -150.886)" fill="#fff"/>
        <path id="Path_16008" data-name="Path 16008" d="M377.3,356.9l-1.773,2.358,1.7,2.367a.745.745,0,0,1-.142,1.028.824.824,0,0,1-.461.16.94.94,0,0,1-.63-.319l-1.357-1.959L373.2,362.5a.807.807,0,0,1-.594.319.78.78,0,0,1-.452-.16.718.718,0,0,1-.16-1.028l1.72-2.367-1.738-2.358a.7.7,0,0,1,.159-1.011.745.745,0,0,1,1.046.151l1.436,1.924,1.428-1.924a.807.807,0,0,1,1.09-.151A.727.727,0,0,1,377.3,356.9Z" transform="translate(-226.715 -151.264)" fill="#37474f"/>
        <path id="Path_16009" data-name="Path 16009" d="M243.674,406a1.068,1.068,0,1,1,0,2.137,1.055,1.055,0,0,1-1.064-1.064A1.073,1.073,0,0,1,243.674,406Z" transform="translate(-212.065 -156.962)" fill="#fff"/>
        <path id="Path_16010" data-name="Path 16010" d="M282.48,401.978a6.206,6.206,0,0,1,.975-3.431,3.023,3.023,0,0,1,5.32,0,6.614,6.614,0,0,1,0,6.854,3.014,3.014,0,0,1-5.32,0A6.207,6.207,0,0,1,282.48,401.978Zm5.666,0a4.76,4.76,0,0,0-.691-2.553,1.658,1.658,0,0,0-1.33-.887,1.773,1.773,0,0,0-1.365.887,5.027,5.027,0,0,0,0,5.089,1.773,1.773,0,0,0,1.365.887,1.694,1.694,0,0,0,1.33-.887A4.743,4.743,0,0,0,288.145,401.978Z" transform="translate(-216.585 -155.938)" fill="#fff"/>
        <path id="Path_16011" data-name="Path 16011" d="M327.76,401.313a.887.887,0,0,1,.887-.833h4.433a.825.825,0,0,1,.825.833.807.807,0,0,1-.825.825h-4.433a.833.833,0,0,1-.887-.825Zm0,2.66a.887.887,0,0,1,.887-.887h4.433a.887.887,0,0,1,0,1.711h-4.433a.887.887,0,0,1-.887-.834Z" transform="translate(-221.719 -156.336)" fill="#37474f"/>
        <path id="Path_16012" data-name="Path 16012" d="M374.068,402.909h-2.039a.789.789,0,0,1-.789-.789.807.807,0,0,1,.789-.789h2.039v-1.986a.807.807,0,0,1,.816-.825.825.825,0,0,1,.816.825v1.986h2.039a.806.806,0,0,1,.789.789.789.789,0,0,1-.789.789H375.7v2a.816.816,0,0,1-.816.816.807.807,0,0,1-.816-.816Z" transform="translate(-226.648 -156.114)" fill="#37474f"/>
        <path id="Path_16013" data-name="Path 16013" d="M291.472,219.122a.612.612,0,0,1-.612.612h-1.773c-.754,2.084-2.66,7.536-3.077,9.079a1.286,1.286,0,0,1-.31.488.665.665,0,0,1-.417.16.763.763,0,0,1-.576-.248s-1.915-1.871-2.509-2.536c-.887-.94-.488-1.383-.364-1.463a.728.728,0,0,1,.346-.115,1.118,1.118,0,0,1,.541.2l.621.647c.177.2.346.364.514.523l.488.5.55.55c.452-1.454,2.474-7.164,3.015-8.592h0a.936.936,0,0,1,.168-.2.63.63,0,0,1,.461-.213h2.288a.612.612,0,0,1,.647.612Z" transform="translate(-216.49 -135.707)" fill="#37474f"/>
        <rect id="Rectangle_6828" data-name="Rectangle 6828" width="151.552" height="36.263" transform="translate(13.796 14.736)" fill="#d4dee3"/>
        <path id="Path_16014" data-name="Path 16014" d="M316.765,153.838v14.124a1.33,1.33,0,0,1-1.339,1.312,1.294,1.294,0,0,1-1.312-1.312V156.187l-.958.559a1.232,1.232,0,0,1-.674.186,1.339,1.339,0,0,1-.691-2.465l2.944-1.773a.125.125,0,0,0,.1-.044c.027-.044.071-.053.115-.071h.142a.134.134,0,0,1,.1,0,.375.375,0,0,1,.169,0h.354a.258.258,0,0,1,.151.053h.089c.018,0,.1.071.151.071a.186.186,0,0,0,.089.071.546.546,0,0,1,.1.08.465.465,0,0,0,.1.089.461.461,0,0,1,.071.1l.1.1v.124c0,.027.053.071.053.115v.115a.935.935,0,0,0,0,.124.221.221,0,0,0,.044.168Z" transform="translate(-219.839 -128.232)" fill="#465a65"/>
        <path id="Path_16015" data-name="Path 16015" d="M331.68,167.965a1.295,1.295,0,0,1-1.312,1.312h-8.538a1.277,1.277,0,0,1-.984-.434,1.321,1.321,0,0,1,.071-1.862l7.093-6.419a2.97,2.97,0,0,0,1.011-2.3,3.129,3.129,0,0,0-.789-2.084,3.059,3.059,0,0,0-2.305-1,3.148,3.148,0,0,0-2.075.789l-.745.674a1.312,1.312,0,0,1-1.871-.1,1.33,1.33,0,0,1,.1-1.871l.745-.665a5.621,5.621,0,0,1,3.848-1.49,5.754,5.754,0,0,1,4.265,1.9,5.639,5.639,0,0,1,1.481,3.848,5.772,5.772,0,0,1-1.888,4.265l-4.522,4.087h5.1a1.321,1.321,0,0,1,1.321,1.348Z" transform="translate(-220.895 -128.226)" fill="#465a65"/>
        <path id="Path_16016" data-name="Path 16016" d="M345.949,159.159a5.808,5.808,0,0,1,1.773,4.185,5.94,5.94,0,0,1-10.143,4.212,1.348,1.348,0,0,1,0-1.915,1.366,1.366,0,0,1,1.915,0,3.192,3.192,0,0,0,2.27.94,3.289,3.289,0,0,0,2.3-.94,3.191,3.191,0,0,0,.957-2.3,3.1,3.1,0,0,0-.957-2.27,3.174,3.174,0,0,0-2.27-.958,1.2,1.2,0,0,1-.984-.435h0a1.347,1.347,0,0,1,0-1.906l2.438-2.491H339.37a1.357,1.357,0,0,1,0-2.7h7.093a1.339,1.339,0,0,1,1.2,1.259,1.429,1.429,0,0,1-.168.647,1.778,1.778,0,0,1-.24.337l-3.014,3.112A5.321,5.321,0,0,1,345.949,159.159Z" transform="translate(-222.786 -128.233)" fill="#465a65"/>
        <path id="Path_16017" data-name="Path 16017" d="M366.079,164.827a1.312,1.312,0,0,1-1.339,1.312h-.213v1.826a1.33,1.33,0,0,1-2.66,0v-1.826h-7.536a1.2,1.2,0,0,1-.816-.284,1.286,1.286,0,0,1-.213-1.844L362.169,153l.044-.044a.31.31,0,0,0,.071-.1.23.23,0,0,0,.124-.071.094.094,0,0,0,.089-.071.275.275,0,0,1,.151-.044c0-.053.044-.071.089-.071a.217.217,0,0,0,.151-.053c.08-.053.071,0,.089,0h.408a.212.212,0,0,0,.124,0,.211.211,0,0,1,.142.053h.1c.044.053.1.071.115.1l.124.071h0s.08,0,.08.044l.089.1a.674.674,0,0,1,.071.1.485.485,0,0,1,.1.115.151.151,0,0,0,.053.1.2.2,0,0,0,.044.142c.044.071,0,.071,0,.1a.349.349,0,0,1,0,.142v9.877h.239a1.33,1.33,0,0,1,1.419,1.348Zm-4.211-7.226-4.761,5.9h4.761Z" transform="translate(-224.581 -128.227)" fill="#465a65"/>
        <path id="Path_16018" data-name="Path 16018" d="M380.073,159.154a5.86,5.86,0,0,1,1.773,4.212,5.931,5.931,0,0,1-1.773,4.185,5.861,5.861,0,0,1-4.185,1.773h-.053a5.789,5.789,0,0,1-4.158-1.773,1.3,1.3,0,0,1,0-1.915,1.356,1.356,0,0,1,1.906,0,3.21,3.21,0,0,0,4.575,0,3.262,3.262,0,0,0,.957-2.27,3.287,3.287,0,0,0-5.533-2.35,1.339,1.339,0,0,1-1.906,0c-.1-.089-.169-.213-.266-.31s0-.071,0-.071a.15.15,0,0,0,0-.115V160.3a1.5,1.5,0,0,1,0-.4l.718-6.206a1.489,1.489,0,0,1,.6-.958h.1c.026,0,.044,0,.071-.044a1.287,1.287,0,0,1,.621-.151h7.093a1.357,1.357,0,0,1,0,2.713h-6.038l-.284,2.367a6.206,6.206,0,0,1,1.6-.222A5.834,5.834,0,0,1,380.073,159.154Z" transform="translate(-226.65 -128.229)" fill="#465a65"/>
      </g>
      <g id="freepik--Character--inject-6" transform="translate(15.153 0)">
        <path id="Path_16019" data-name="Path 16019" d="M340.265,129.428l-.355.089a.213.213,0,0,1,.062-.106h0Z" transform="translate(-95.341 -80.007)" fill="#263238"/>
        <path id="Path_16020" data-name="Path 16020" d="M371.34,178h0" transform="translate(-98.904 -85.515)" fill="none" stroke="#ff98b9" stroke-linecap="round" stroke-linejoin="round"/>
        <path id="Path_16021" data-name="Path 16021" d="M371.34,178h0" transform="translate(-98.904 -85.515)" fill="none" stroke="#ff98b9" stroke-linecap="round" stroke-linejoin="round"/>
        <path id="Path_16022" data-name="Path 16022" d="M351.8,418.315h-.16V418.2Z" transform="translate(-96.671 -112.746)" fill="#dd6a57"/>
        <path id="Path_16023" data-name="Path 16023" d="M138.264,133.664c1.543,11.4,10.037,38.471,16.376,40.2,5.9,1.6,31.857-6.136,35.2-11.287,1.773-2.757,8.866-28.08,5.7-26.6-4.008,1.906-33.4,16.766-34.579,16.465-2.554-.638-7.528-10.693-11.837-16.314C139.727,123.911,137.546,128.344,138.264,133.664Z" transform="translate(-72.467 -79.881)" fill="#774442"/>
        <path id="Path_16024" data-name="Path 16024" d="M155.906,144.817l-13.3,12.191s-4.708-17.413-5.24-25.473S143.422,124.38,155.906,144.817Z" transform="translate(-72.376 -79.712)" fill="#263238"/>
        <path id="Path_16025" data-name="Path 16025" d="M96.982,272.275S84.117,294.166,69.9,284.227s2.013-29.507,2.013-29.507Z" transform="translate(-64.07 -94.213)" fill="#ff98b9"/>
        <rect id="Rectangle_6829" data-name="Rectangle 6829" width="30.624" height="178.515" transform="matrix(-0.818, -0.575, 0.575, -0.818, 32.34, 178.885)" fill="#e27e28"/>
        <rect id="Rectangle_6830" data-name="Rectangle 6830" width="30.624" height="178.515" transform="matrix(-0.818, -0.575, 0.575, -0.818, 32.34, 178.885)" opacity="0.1"/>
        <rect id="Rectangle_6831" data-name="Rectangle 6831" width="35.758" height="7.093" transform="matrix(-0.818, -0.575, 0.575, -0.818, 33.883, 181.145)" fill="#455a64"/>
        <rect id="Rectangle_6832" data-name="Rectangle 6832" width="35.758" height="7.093" transform="matrix(-0.818, -0.575, 0.575, -0.818, 38.397, 174.73)" fill="#455a64"/>
        <path id="Path_16026" data-name="Path 16026" d="M188,88.891l22.068-11.376,7.27-3.786L216.3,81.887l-3.236,24.657-5.1,1.862s.1-5.32.08-5.382l-5.1,1.853s.1-5.32.08-5.382l-5.036,1.9V95.976l-5.036,1.9V92.447L188,94.309Z" transform="translate(-78.119 -73.695)" fill="#ebebeb"/>
        <path id="Path_16027" data-name="Path 16027" d="M212.89,77.476l7.27-3.786-1.046,8.157Z" transform="translate(-80.941 -73.69)" fill="#37474f"/>
        <g id="Group_14407" data-name="Group 14407" transform="translate(28.195 32.974)" opacity="0.1">
          <path id="Path_16028" data-name="Path 16028" d="M111.51,231.28q9.5-14.071,19.213-28.018L150.158,175.4l19.612-27.743,9.877-13.823,9.966-13.761-9.567,14.044L170.4,148.1l-19.444,27.867L131.335,203.7Q121.493,217.538,111.51,231.28Z" transform="translate(-97.643 -111.922)"/>
          <path id="Path_16029" data-name="Path 16029" d="M103.69,226.69Q113.2,212.6,122.9,198.673L142.338,170.8l19.621-27.734,9.877-13.823,9.957-13.761-9.558,14.035L162.58,143.5l-19.435,27.876-19.621,27.734Q113.673,212.939,103.69,226.69Z" transform="translate(-96.757 -111.401)"/>
          <path id="Path_16030" data-name="Path 16030" d="M95.87,222.1q9.5-14.08,19.213-28.026l19.435-27.867,19.621-27.734,9.877-13.823,9.992-13.769-9.558,14.044L154.8,138.907,135.37,166.773l-19.621,27.743C109.134,203.737,102.546,212.949,95.87,222.1Z" transform="translate(-95.87 -110.88)"/>
        </g>
        <path id="Path_16031" data-name="Path 16031" d="M198.713,134.856c.479,3.786,3.068,9.141,2.509,11.925a3.254,3.254,0,0,1-2.784,2.7s2.234,2.208,1.312,4.646c-.47,1.259-2.9,1.6-2.9,1.6a3.875,3.875,0,0,1,.763,3.972c-.754,1.685-3.068,1.773-3.068,1.773s.816,2.536-.505,4.016c-2.66,2.988-17.8-1.959-18.318-8.29-.239-2.953,3.387-1.543,3.387-1.543s-4.726-3.289-3.786-6.428,5.541-1.028,5.541-1.028-4.548-3.227-3.245-6.384,5.595-.381,5.595-.381-2.66-3.378-1.064-5.568c2.562-3.617,7.27,3.547,10.852,3.821l3.626-4.877Z" transform="translate(-76.668 -80.62)" fill="#774442"/>
        <path id="Path_16032" data-name="Path 16032" d="M202.713,139.8c-.151-3.626,5.16-6.3,5.524-9.753.488-4.717-5.887-2.022-9.079,4.016l-1.658,5.125Z" transform="translate(-79.196 -79.806)" fill="#774442"/>
        <path id="Path_16033" data-name="Path 16033" d="M194.651,164.2c.053,0,0,.089,0,.08a27.592,27.592,0,0,1-15.268-6.02c-.133-.115,0-.39.169-.293a56.445,56.445,0,0,0,15.1,6.233Z" transform="translate(-77.136 -83.242)" fill="#263238"/>
        <path id="Path_16034" data-name="Path 16034" d="M197.607,157.467c.053,0,0,.115,0,.115a25.863,25.863,0,0,1-16.279-7.625c-.142-.16-.115-.452.062-.284C184.467,152.537,192.6,156.3,197.607,157.467Z" transform="translate(-77.353 -82.298)" fill="#263238"/>
        <path id="Path_16035" data-name="Path 16035" d="M183.981,141.806c4.274,4.256,9.487,6.7,15.2,8.458.08,0,0,.124,0,.124-3.023-.1-6.552-1.6-9.194-2.988a15.961,15.961,0,0,1-6.118-5.444C183.777,141.859,183.9,141.708,183.981,141.806Z" transform="translate(-77.647 -81.408)" fill="#263238"/>
        <path id="Path_16036" data-name="Path 16036" d="M199.79,437.391c-2.03.656-59.99-.1-62.18-1.525-.887-.532-1.224-8.982-1.392-19.2v-.319c0-2.11-.071-4.283-.071-6.481v-.887c-.08-14.762.16-30.074.16-30.074l38.773.39-1.17,29.791-.044,1.179-.231,6.162v.639s22.059,10.205,24.294,12.032S201.821,436.744,199.79,437.391Z" transform="translate(-72.239 -108.291)" fill="#774442"/>
        <path id="Path_16037" data-name="Path 16037" d="M199.793,441.236c-2.03.656-59.99-.1-62.18-1.525-.887-.532-1.223-8.982-1.392-19.2v-.319c0-2.11-.071-4.283-.071-6.481v-.887l37.762.106-.044,1.179-.23,6.162v.638s22.059,10.205,24.294,12.032S201.823,440.589,199.793,441.236Z" transform="translate(-72.241 -112.136)" fill="#ebebeb"/>
        <path id="Path_16038" data-name="Path 16038" d="M199.8,442.178c-1.259.408-23.709.275-41.29-.222-10.977-.3-20.047-.754-20.889-1.3s-1.215-8.742-1.383-18.779v-.754l37.4.071v.638s22.059,10.205,24.294,12.032S201.833,441.53,199.8,442.178Z" transform="translate(-72.252 -113.077)" fill="#e27e28"/>
        <path id="Path_16039" data-name="Path 16039" d="M199.684,442.246c-9.753-.372-49.19-.887-58.881-.55-.071,0-.071.062,0,.062,9.673.576,49.111.816,58.881.647C199.888,442.4,199.888,442.255,199.684,442.246Z" transform="translate(-72.763 -115.397)" fill="#263238"/>
        <path id="Path_16040" data-name="Path 16040" d="M181.62,421.339c-3.839-.762-8.547-.239-11.526,2.465-.115.107,0,.266.16.23a54.087,54.087,0,0,1,11.331-2.208.248.248,0,0,0,.035-.488Z" transform="translate(-76.084 -113.066)" fill="#263238"/>
        <path id="Path_16041" data-name="Path 16041" d="M184.72,423.269c-3.83-.771-8.538-.239-11.526,2.465-.115.1,0,.266.16.231a53.68,53.68,0,0,1,11.34-2.208.248.248,0,0,0,.027-.488Z" transform="translate(-76.436 -113.284)" fill="#263238"/>
        <path id="Path_16042" data-name="Path 16042" d="M187.83,425.2c-3.839-.771-8.547-.239-11.526,2.456-.115.106,0,.266.16.231a54.612,54.612,0,0,1,11.331-2.208.24.24,0,1,0,.035-.479Z" transform="translate(-76.788 -113.503)" fill="#263238"/>
        <path id="Path_16043" data-name="Path 16043" d="M187.329,411.84c-1.481-2.1-4.309-1.206-5.931.124a20.587,20.587,0,0,0-6.038,8.733.1.1,0,0,0,.089.133.475.475,0,0,0,.6.488c3.183-1.126,6.738-1.951,9.487-4.026C187.142,416.078,188.73,413.826,187.329,411.84Zm-6.8,6.774c-1.552.594-3.13,1.108-4.664,1.773a61.342,61.342,0,0,1,3.609-5,21.8,21.8,0,0,1,2.066-2.181c1.153-1.02,5.71-3.174,4.983,1.029C186.149,416.53,182.381,417.9,180.528,418.614Z" transform="translate(-76.686 -111.883)" fill="#263238"/>
        <path id="Path_16044" data-name="Path 16044" d="M163.945,419.85c3.148,1.392,6.792,1.374,10.161,1.773a.491.491,0,0,0,.461-.621.106.106,0,0,0,.062-.151,20.572,20.572,0,0,0-7.882-7.093c-1.889-.887-4.841-1.144-5.807,1.241S162.1,419.043,163.945,419.85Zm-1.7-2.766c-1.685-3.928,3.245-2.873,4.61-2.145a22.638,22.638,0,0,1,2.509,1.649,60.035,60.035,0,0,1,4.7,4.043c-1.64-.284-3.3-.417-4.947-.638C167.172,419.726,163.165,419.22,162.242,417.084Z" transform="translate(-75.024 -112.17)" fill="#263238"/>
        <path id="Path_16045" data-name="Path 16045" d="M158.512,442.052c-10.977-.3-20.047-.754-20.889-1.3s-1.215-8.742-1.383-18.779C140.744,425.986,151.925,435.961,158.512,442.052Z" transform="translate(-72.252 -113.173)" fill="#263238"/>
        <path id="Path_16046" data-name="Path 16046" d="M123.17,190.58s8.716,97.9,10.116,105.412c.328,1.7.532,10.959.665,22.857.3,25.961,0,76.534,0,76.534h40.856s-1.091-84.877-2.9-99.808-13.37-105-13.37-105Z" transform="translate(-70.77 -86.941)" fill="#37474f"/>
        <path id="Path_16047" data-name="Path 16047" d="M174.534,413.5c-6.375-.133-4.548-.177-10.923-.239-3.121,0-23.629-.213-26.537.266a.071.071,0,0,0,0,.133c2.917.488,23.416.3,26.537.275,6.375-.062,4.548-.115,10.923-.248C174.65,413.689,174.65,413.512,174.534,413.5Z" transform="translate(-72.341 -112.181)" fill="#263238"/>
        <path id="Path_16048" data-name="Path 16048" d="M142.5,338.715q-.062-8.866-.133-17.777c-.044-5.745,0-11.526-.31-17.219-.55-11.615-2.908-23.052-4.584-34.508s-3.068-23.052-4.336-34.579c-1.419-12.945-2.66-25.907-4.008-38.861,0-.08-.142-.08-.133,0,1.924,23.123,4.07,46.247,7.27,69.237q1.2,8.583,2.66,17.121c.949,5.772,1.9,11.526,2.35,17.369s.523,11.438.576,17.156q.1,8.866.177,17.733c.133,13.149.133,37.15.257,50.308,0,.248.4.239.4,0C142.548,373.028,142.592,350.454,142.5,338.715Z" transform="translate(-71.431 -87.523)" fill="#263238"/>
        <path id="Path_16049" data-name="Path 16049" d="M113.45,190.575s17.334,97.9,18.735,105.412c.328,1.7.532,10.959.665,22.857h0l19.506-128.3Z" transform="translate(-69.668 -86.937)" fill="#263238"/>
        <path id="Path_16050" data-name="Path 16050" d="M145.717,440.734c-2.075.505-59.83-4.344-61.914-5.931-.8-.585-.585-9.044,0-19.258v-.319c.115-2.1.239-4.273.39-6.463a4.868,4.868,0,0,1,.053-.887c.966-14.727,2.288-29.986,2.288-29.986l38.64,3.139L121.9,410.651l-.124,1.179-.674,6.135-.062.63s21.279,11.748,23.381,13.725S147.756,440.229,145.717,440.734Z" transform="translate(-66.248 -108.176)" fill="#774442"/>
        <path id="Path_16051" data-name="Path 16051" d="M145.717,444.568c-2.075.505-59.83-4.344-61.914-5.931-.8-.585-.585-9.044,0-19.258v-.319c.115-2.1.239-4.274.39-6.464a4.867,4.867,0,0,1,.053-.887l37.655,2.775-.124,1.179L121.1,421.8l-.062.63s21.279,11.748,23.381,13.725S147.756,444.063,145.717,444.568Z" transform="translate(-66.248 -112.01)" fill="#ebebeb"/>
        <path id="Path_16052" data-name="Path 16052" d="M145.717,445.508c-2.075.505-59.83-4.345-61.914-5.932-.8-.585-.585-9.044,0-19.258V420l37.3,2.722-.062.629s21.279,11.748,23.381,13.725S147.756,445,145.717,445.508Z" transform="translate(-66.248 -112.95)" fill="#e27e28"/>
        <path id="Path_16053" data-name="Path 16053" d="M145.667,445.577c-9.753-1.055-49-4.433-58.7-4.717-.08,0-.08.053,0,.062,9.6,1.259,48.924,4.291,58.677,4.815C145.863,445.745,145.871,445.595,145.667,445.577Z" transform="translate(-66.66 -115.315)" fill="#263238"/>
        <path id="Path_16054" data-name="Path 16054" d="M129.1,423.5c-3.768-1.037-8.5-.842-11.668,1.64-.115.1,0,.266.151.239a54.13,54.13,0,0,1,11.464-1.4.248.248,0,0,0,.053-.479Z" transform="translate(-70.114 -113.28)" fill="#263238"/>
        <path id="Path_16055" data-name="Path 16055" d="M132.063,425.643c-3.768-1.037-8.5-.887-11.659,1.64-.124.1,0,.266.142.239a54.087,54.087,0,0,1,11.464-1.392.248.248,0,0,0,.053-.488Z" transform="translate(-70.45 -113.521)" fill="#263238"/>
        <path id="Path_16056" data-name="Path 16056" d="M135.023,427.784c-3.768-1.037-8.5-.842-11.659,1.641-.124.1,0,.275.142.239a54.2,54.2,0,0,1,11.464-1.392.248.248,0,0,0,.053-.488Z" transform="translate(-70.786 -113.765)" fill="#263238"/>
        <path id="Path_16057" data-name="Path 16057" d="M135.392,414.446c-1.33-2.208-4.212-1.507-5.923-.3a20.517,20.517,0,0,0-6.641,8.281.106.106,0,0,0,.08.151.479.479,0,0,0,.559.532c3.263-.887,6.863-1.472,9.753-3.351C134.913,418.658,136.66,416.548,135.392,414.446Zm-7.262,6.277c-1.587.479-3.2.887-4.77,1.427a59.763,59.763,0,0,1,3.981-4.752,21.709,21.709,0,0,1,2.217-2.021c1.224-.94,5.923-2.766,4.894,1.374-.559,2.288-4.38,3.387-6.313,3.972Z" transform="translate(-70.73 -112.157)" fill="#263238"/>
        <path id="Path_16058" data-name="Path 16058" d="M111.62,420.714c3.05,1.614,6.685,1.853,10.01,2.456.346.062.55-.284.514-.576a.1.1,0,0,0,.062-.151,20.516,20.516,0,0,0-7.359-7.652c-1.773-1.046-4.743-1.481-5.87.833S109.847,419.774,111.62,420.714Zm-1.5-2.873c-1.4-4.043,3.449-2.66,4.752-1.773a21.651,21.651,0,0,1,2.385,1.773,58.44,58.44,0,0,1,4.433,4.371c-1.614-.4-3.254-.656-4.885-.993-2.022-.408-5.958-1.153-6.73-3.378Z" transform="translate(-69.124 -112.263)" fill="#263238"/>
        <path id="Path_16059" data-name="Path 16059" d="M122.525,396.195,81.74,394.466s10.48-91.926,10.684-97.432c.541-14.284,10.028-106.494,10.028-106.494h49.855s-3.148,21.279-8.529,34.783a63.224,63.224,0,0,0-10.382,4.761s-2.979,64.441-3.156,72.048C129.849,317.16,122.525,396.195,122.525,396.195Z" transform="translate(-66.073 -86.937)" fill="#37474f"/>
        <path id="Path_16060" data-name="Path 16060" d="M121.718,413.842c-6.357-.4-4.531-.372-10.9-.709-3.112-.159-23.593-1.206-26.528-.842-.062,0-.071.115,0,.124,2.9.612,23.389,1.295,26.51,1.4,6.375.2,4.54.08,10.914.213a.1.1,0,1,0,0-.186Z" transform="translate(-66.357 -112.067)" fill="#263238"/>
        <path id="Path_16061" data-name="Path 16061" d="M106.855,196.691c-1.844,23.221-3.75,46.442-5.87,69.645S90.346,369.593,88.36,382.485c0,.089.115.124.133,0C92.607,359.556,95,328.746,97.581,305.6s4.673-46.353,6.543-69.556c1.064-13.131,2.022-26.271,3.023-39.4C107.165,196.5,106.873,196.5,106.855,196.691Z" transform="translate(-66.824 -87.617)" fill="#263238"/>
        <path id="Path_16062" data-name="Path 16062" d="M152.154,228.726a77.5,77.5,0,0,0-12.165,5.683.137.137,0,0,0,.115.248c4.114-1.773,8.308-3.449,12.315-5.444a.278.278,0,0,0-.266-.488Z" transform="translate(-72.668 -91.262)" fill="#263238"/>
        <path id="Path_16063" data-name="Path 16063" d="M154.127,196.885c0-.142-.266-.177-.266,0a137.505,137.505,0,0,1-.683,13.743c-.2,2.119-1.9,13.831-5.577,12.98-.612-.151-.887-.754-1.02-1.676a14.643,14.643,0,0,1,.488-3.591c.408-2.456.736-4.912.94-7.386a67.031,67.031,0,0,0-.142-13.858.124.124,0,0,0-.239,0,127.475,127.475,0,0,1-1.117,19.116c-.461,3.05-1.995,7.634,1.188,8.1s5.32-7.2,5.737-9.3A70.105,70.105,0,0,0,154.127,196.885Z" transform="translate(-73.328 -87.642)" fill="#263238"/>
        <path id="Path_16064" data-name="Path 16064" d="M147.851,227.324a21.164,21.164,0,0,0-.825,2.429,5.321,5.321,0,0,0-.337,2c0,.124.177.142.248.053a7.208,7.208,0,0,0,.887-1.942c.275-.754.567-1.5.825-2.252a.423.423,0,0,0-.8-.284Z" transform="translate(-73.436 -91.075)" fill="#263238"/>
        <path id="Path_16065" data-name="Path 16065" d="M101.663,200.377c.133.151,58.669-1.3,59.192-1.924.718-.887-15.179-60.974-19.426-69.893-1.773-3.795-11.225-4.735-15.073-1.392-9.753,8.379-17.458,36.494-19.2,44.952C104.243,186.093,101.158,199.881,101.663,200.377Z" transform="translate(-68.326 -79.52)" fill="#00a3b1"/>
        <path id="Path_16066" data-name="Path 16066" d="M133.784,147.406a6.738,6.738,0,0,1,.5,1.889,7.564,7.564,0,0,1-1.463-3.547,6.781,6.781,0,0,1,.966,1.658Zm4.673,22.716a7.089,7.089,0,0,0,.5,1.889,6.728,6.728,0,0,0,.966,1.693,7,7,0,0,0-.5-1.88A7.1,7.1,0,0,0,138.456,170.122Zm5.479,26.546a7,7,0,0,0,.5,1.88,6.784,6.784,0,0,0,.966,1.7,7.483,7.483,0,0,0-1.463-3.547Zm-25.588-33.2a6.454,6.454,0,0,0,.5,1.889,6.7,6.7,0,0,0,.958,1.694,7.59,7.59,0,0,0-1.454-3.547ZM109.1,180.23a7.59,7.59,0,0,0,1.454,3.547,6.728,6.728,0,0,0-.488-1.889,7.013,7.013,0,0,0-.966-1.658Zm22.574,10.524a7.589,7.589,0,0,0,1.454,3.547,6.392,6.392,0,0,0-.5-1.88,6.749,6.749,0,0,0-.958-1.667Zm18.619-30.323a6.819,6.819,0,0,0,.5,1.889,6.7,6.7,0,0,0,.958,1.693,6.732,6.732,0,0,0-.488-1.889,7.014,7.014,0,0,0-.931-1.693Zm-24.95-4.176a7.689,7.689,0,0,0,3.582-1.454,6.455,6.455,0,0,0-1.889.5,6.705,6.705,0,0,0-1.658.958Zm-6.206,21.111a6.971,6.971,0,0,0,1.889-.5,7.094,7.094,0,0,0,1.7-.966,7.561,7.561,0,0,0-3.547,1.463ZM120.91,201.3h1.037l.4-.151a7.093,7.093,0,0,0,1.7-.966,7.981,7.981,0,0,0-3.139,1.144Zm22.68-19.16a7.483,7.483,0,0,0,3.547-1.463,7.483,7.483,0,0,0-3.547,1.463Zm-17.44-44.332a7.483,7.483,0,0,0,3.547-1.463A7.483,7.483,0,0,0,126.15,137.813Zm-5.364,2.873a7.154,7.154,0,0,0-.984,1.685,6.624,6.624,0,0,0-.514,1.88,6.6,6.6,0,0,0,.984-1.685,7.023,7.023,0,0,0,.541-1.871ZM111.778,167.6a6.6,6.6,0,0,0-.984,1.685,6.942,6.942,0,0,0-.523,1.88,6.914,6.914,0,0,0,.984-1.685,7.093,7.093,0,0,0,.55-1.871Zm-.4,24.569a7.342,7.342,0,0,0-.984,1.685,7.093,7.093,0,0,0-.514,1.88,6.6,6.6,0,0,0,.984-1.685,6.933,6.933,0,0,0,.541-1.871Zm29.356-34.854a7.1,7.1,0,0,0-.975,1.693,6.632,6.632,0,0,0-.523,1.88,6.917,6.917,0,0,0,.984-1.685,6.766,6.766,0,0,0,.514-1.888Zm-9.46,21.687a7.475,7.475,0,0,0-1.5,3.547,7.534,7.534,0,0,0,.984-1.685,7.094,7.094,0,0,0,.514-1.862ZM153.99,189a6.6,6.6,0,0,0-.984,1.685,6.94,6.94,0,0,0-.523,1.88,6.594,6.594,0,0,0,.984-1.685A7.092,7.092,0,0,0,153.99,189ZM140.478,138.46a6.836,6.836,0,0,0-.975,1.685,6.631,6.631,0,0,0-.523,1.88,7.475,7.475,0,0,0,1.5-3.547Zm7.093,13.14a7.159,7.159,0,0,0-1.685-.984,6.624,6.624,0,0,0-1.88-.514,6.755,6.755,0,0,0,1.685.984,7.094,7.094,0,0,0,1.906.47ZM122.4,188.972a6.915,6.915,0,0,0-1.685-.984,7.093,7.093,0,0,0-1.88-.523,7.608,7.608,0,0,0,3.547,1.507Zm31.7-15.135a7.475,7.475,0,0,0-3.547-1.5,7.54,7.54,0,0,0,1.685.984A7.094,7.094,0,0,0,154.1,173.837Zm-39.978-21.643a7.375,7.375,0,0,0,1.419.78,6.944,6.944,0,0,0,1.88.523,6.755,6.755,0,0,0-1.685-.984,7.09,7.09,0,0,0-1.561-.47,1.025,1.025,0,0,0-.053.151Zm26.4,37.567a6.914,6.914,0,0,0-1.685-.984,6.8,6.8,0,0,0-1.88-.523,6.594,6.594,0,0,0,1.685.984A6.942,6.942,0,0,0,140.522,189.761Zm-7.749-24.312a6.916,6.916,0,0,0-1.685-.984,6.8,6.8,0,0,0-1.88-.523,6.6,6.6,0,0,0,1.685.984A6.945,6.945,0,0,0,132.773,165.449Z" transform="translate(-69.175 -80.793)" fill="#fff"/>
        <path id="Path_16067" data-name="Path 16067" d="M141.721,135.649c-3.351.532-9.31-5.4-11.234-9.638-.133-.293.523-3.21,1.144-6.783.372-2.172.736-4.6.887-6.845,0-.461,1.534.505,1.534.505l2.837.887,9.407,3.05a35.983,35.983,0,0,0-2,8.494,5.237,5.237,0,0,0,0,.887v.16C144.5,128.2,144.958,135.135,141.721,135.649Z" transform="translate(-71.597 -78.062)" fill="#774442"/>
        <path id="Path_16068" data-name="Path 16068" d="M144.678,126.424v.16a8.965,8.965,0,0,1-1.445,0c-9.443-.887-9.753-13.034-9.753-13.034l3.724.443,9.407,3.05a35.975,35.975,0,0,0-2,8.494A5.24,5.24,0,0,0,144.678,126.424Z" transform="translate(-71.939 -78.209)" fill="#263238"/>
        <path id="Path_16069" data-name="Path 16069" d="M131.341,94.383c-1.64,4.965.665,19.444,4.141,22.742,5.045,4.779,13.459,5.417,17.564-.683,3.972-5.905.638-24.728-3.263-27.743C144.046,84.293,133.762,87.069,131.341,94.383Z" transform="translate(-71.635 -75.152)" fill="#774442"/>
        <path id="Path_16070" data-name="Path 16070" d="M135.68,120.86h0" transform="translate(-72.188 -79.037)" fill="none" stroke="#dc6a57" stroke-linecap="round" stroke-linejoin="round"/>
        <path id="Path_16071" data-name="Path 16071" d="M147.095,106.31s-.071.062-.062.1c.186.975.23,2.119-.6,2.571v.053C147.5,108.7,147.423,107.205,147.095,106.31Z" transform="translate(-73.407 -77.388)" fill="#263238"/>
        <path id="Path_16072" data-name="Path 16072" d="M145.868,105.31c-1.587.124-1.224,3.289.248,3.183S147.215,105.212,145.868,105.31Z" transform="translate(-73.226 -77.274)" fill="#263238"/>
        <path id="Path_16073" data-name="Path 16073" d="M153.439,105.39s.08,0,.08.071c.089.984.346,2.1,1.268,2.323v.062C153.687,107.811,153.359,106.33,153.439,105.39Z" transform="translate(-74.2 -77.284)" fill="#263238"/>
        <path id="Path_16074" data-name="Path 16074" d="M154.192,104.117c1.569-.3,2.057,2.846.6,3.13S152.888,104.366,154.192,104.117Z" transform="translate(-74.199 -77.137)" fill="#263238"/>
        <path id="Path_16075" data-name="Path 16075" d="M144.3,103.531a11.935,11.935,0,0,0,1.17-.576,2.093,2.093,0,0,0,1.091-.807.665.665,0,0,0-.2-.8,1.658,1.658,0,0,0-1.693,0,2.429,2.429,0,0,0-1.286,1.215.718.718,0,0,0,.913.966Z" transform="translate(-73.055 -76.799)" fill="#263238"/>
        <path id="Path_16076" data-name="Path 16076" d="M155.117,101.912a10.589,10.589,0,0,1-1.3-.142,2.066,2.066,0,0,1-1.286-.434.665.665,0,0,1-.053-.825,1.658,1.658,0,0,1,1.614-.5,2.43,2.43,0,0,1,1.6.762.718.718,0,0,1-.567,1.135Z" transform="translate(-74.079 -76.669)" fill="#263238"/>
        <path id="Path_16077" data-name="Path 16077" d="M146.844,116.325c.266.2.532.488.887.479a2.606,2.606,0,0,0,1.02-.364s.071,0,.053.044a1.33,1.33,0,0,1-1.188.674,1.055,1.055,0,0,1-.887-.78.063.063,0,1,1,.115-.053Z" transform="translate(-73.44 -78.519)" fill="#263238"/>
        <path id="Path_16078" data-name="Path 16078" d="M147.646,111.458a3.352,3.352,0,0,0,2.394,1.232,4.229,4.229,0,0,0,1.206-.08.981.981,0,0,0,.231-.053l.213-.062a.239.239,0,0,0,.168-.239h0a.382.382,0,0,0,0-.1h0v-.089c-.062-.754-.266-1.9-.266-1.9.293.106,1.773.585,1.7.186a49.824,49.824,0,0,0-2.456-9.957.089.089,0,0,0-.168,0c.417,3.139,1.392,6.206,1.871,9.327a6.05,6.05,0,0,0-1.631-.293c-.106.044.435,2.2.435,2.536h0a4.655,4.655,0,0,1-3.547-.674C147.646,111.317,147.576,111.388,147.646,111.458Z" transform="translate(-73.542 -76.711)" fill="#263238"/>
        <path id="Path_16079" data-name="Path 16079" d="M150.73,113.692a3.964,3.964,0,0,1-1.445,1.41,1.7,1.7,0,0,1-1.073.2c-.807-.115-.887-.833-.833-1.463a4.058,4.058,0,0,1,.239-.984A5.16,5.16,0,0,0,150.73,113.692Z" transform="translate(-73.513 -78.129)" fill="#263238"/>
        <path id="Path_16080" data-name="Path 16080" d="M149.285,115.227a1.7,1.7,0,0,1-1.073.2c-.807-.115-.887-.833-.833-1.463a1.853,1.853,0,0,1,1.906,1.268Z" transform="translate(-73.513 -78.255)" fill="#ff98b9"/>
        <path id="Path_16081" data-name="Path 16081" d="M152.423,94.523c-4.637,3.467-11.367-1.206-11.367-1.206a5.2,5.2,0,0,1-5.134,3.5s-.6,8.113-2.731,8.193c-3.245.115-4.708-10.861-3.768-13.069a5.8,5.8,0,0,1,3.662-2.873,5.32,5.32,0,0,1,2.075-3.307c2.137-1.773,9.886.177,9.886.177a7.094,7.094,0,0,1,1.844-2.722,2.013,2.013,0,0,1,2.9.142,4.788,4.788,0,0,0-.692,2.022c-.284,2.385,1.64,2.305,1.534.16a3.3,3.3,0,0,0-.842-2.181c.887-1.436,2.429-1.959,3.414-1.25C154.968,83.4,156.28,91.641,152.423,94.523Z" transform="translate(-71.447 -74.609)" fill="#263238"/>
        <path id="Path_16082" data-name="Path 16082" d="M133.791,108.244s-3.245-4.673-5.364-3.547.31,7.927,2.793,8.866a2.527,2.527,0,0,0,3.387-1.348Z" transform="translate(-71.274 -77.185)" fill="#774442"/>
        <path id="Path_16083" data-name="Path 16083" d="M129.366,106.92c-.044,0-.044.053,0,.071,1.773.709,2.66,2.323,3.3,4a1.41,1.41,0,0,0-2.092-.381c-.044,0,0,.1.053.089a1.543,1.543,0,0,1,1.7.55,7.264,7.264,0,0,1,.816,1.383c.08.16.364.08.31-.106h0C133.471,110.263,131.751,107.15,129.366,106.92Z" transform="translate(-71.469 -77.457)" fill="#263238"/>
        <path id="Path_16084" data-name="Path 16084" d="M143.366,255.6,120.65,231.9l41.016-18.078,22.716,23.7Z" transform="translate(-70.484 -89.576)" fill="#ebebeb"/>
        <path id="Path_16085" data-name="Path 16085" d="M145.124,257.428l-22.724-23.7,41.016-18.078,22.724,23.7Z" transform="translate(-70.683 -89.783)" fill="#c7c7c7"/>
        <path id="Path_16086" data-name="Path 16086" d="M171.077,218.232a2.891,2.891,0,0,1-2.208.168c-.337-.106-.1-.452.231-.337a2.145,2.145,0,0,0,1.436-.062l.222-.106a1.6,1.6,0,0,0,.612-.514.558.558,0,0,0,.08-.337h0v-.1a.408.408,0,0,0-.168-.151.984.984,0,0,0-.434-.106,2.23,2.23,0,0,0-.55.071.461.461,0,0,0-.275.062h-.2l-.319-.337a3.5,3.5,0,0,1,.887-.239,1.773,1.773,0,0,1,1.445.355.718.718,0,0,1,0,.993A1.845,1.845,0,0,1,171.077,218.232Z" transform="translate(-75.932 -89.847)" fill="#a6a6a6"/>
        <path id="Path_16087" data-name="Path 16087" d="M173.086,220.327a2.917,2.917,0,0,1-2.217.177c-.337-.115-.1-.461.231-.346a2.173,2.173,0,0,0,1.445-.062.964.964,0,0,0,.213-.106,1.508,1.508,0,0,0,.621-.514.559.559,0,0,0,.08-.337h0v-.044h0a.443.443,0,0,0-.177-.16.886.886,0,0,0-.434-.1,1.772,1.772,0,0,0-.541.062,1.725,1.725,0,0,0-.275.062h-.2l-.328-.337a3.5,3.5,0,0,1,.887-.239,1.774,1.774,0,0,1,1.454.355.727.727,0,0,1,0,.993A1.907,1.907,0,0,1,173.086,220.327Z" transform="translate(-76.159 -90.09)" fill="#a6a6a6"/>
        <path id="Path_16088" data-name="Path 16088" d="M175.087,222.428a2.935,2.935,0,0,1-2.208.169c-.337-.115-.1-.452.23-.346a2.2,2.2,0,0,0,1.436-.053l.222-.106a1.552,1.552,0,0,0,.612-.523.443.443,0,0,0,.08-.328h0l-.044-.053a.311.311,0,0,0-.169-.151.888.888,0,0,0-.434-.106,1.776,1.776,0,0,0-.541.062l-.275.071h-.2l-.319-.337a3.5,3.5,0,0,1,.887-.239,1.774,1.774,0,0,1,1.445.355.718.718,0,0,1,0,1A2.01,2.01,0,0,1,175.087,222.428Z" transform="translate(-76.387 -90.328)" fill="#a6a6a6"/>
        <path id="Path_16089" data-name="Path 16089" d="M177.1,224.511a2.917,2.917,0,0,1-2.217.169c-.337-.106-.1-.452.231-.337a2.172,2.172,0,0,0,1.445-.062l.222-.106a1.551,1.551,0,0,0,.612-.523.55.55,0,0,0,.08-.328h0a.149.149,0,0,1,0-.044v-.053a.4.4,0,0,0-.169-.151,1.018,1.018,0,0,0-.443-.106,2.149,2.149,0,0,0-.541.071,1.77,1.77,0,0,0-.275.062h-.053a.15.15,0,0,0-.089,0h-.053l-.319-.337a3.338,3.338,0,0,1,.887-.248,1.773,1.773,0,0,1,1.454.364.727.727,0,0,1,0,.993,1.994,1.994,0,0,1-.771.638Z" transform="translate(-76.613 -90.558)" fill="#a6a6a6"/>
        <path id="Path_16090" data-name="Path 16090" d="M179.1,226.6a2.89,2.89,0,0,1-2.208.168c-.337-.106-.1-.452.231-.337a2.146,2.146,0,0,0,1.436-.062l.222-.106a1.6,1.6,0,0,0,.612-.514.461.461,0,0,0,.08-.337h0v-.1a.5.5,0,0,0-.177-.151.949.949,0,0,0-.434-.106,2.1,2.1,0,0,0-.541.071,1.379,1.379,0,0,0-.275.062h-.053a.255.255,0,0,0-.089,0h-.053l-.328-.337a3.492,3.492,0,0,1,.887-.239,1.773,1.773,0,0,1,1.454.355.718.718,0,0,1,0,.993A1.774,1.774,0,0,1,179.1,226.6Z" transform="translate(-76.841 -90.796)" fill="#a6a6a6"/>
        <path id="Path_16091" data-name="Path 16091" d="M181.106,228.742a2.89,2.89,0,0,1-2.208.177c-.346-.115-.106-.461.222-.346a2.172,2.172,0,0,0,1.445-.062,1.258,1.258,0,0,0,.222-.106,1.533,1.533,0,0,0,.612-.514.558.558,0,0,0,.08-.337h0v-.089a.372.372,0,0,0-.168-.16.886.886,0,0,0-.443-.1,1.842,1.842,0,0,0-.541.062,1.711,1.711,0,0,0-.275.062h-.2l-.319-.337a3.33,3.33,0,0,1,.887-.239,1.774,1.774,0,0,1,1.454.355.727.727,0,0,1,0,.993A1.907,1.907,0,0,1,181.106,228.742Z" transform="translate(-77.068 -91.039)" fill="#a6a6a6"/>
        <path id="Path_16092" data-name="Path 16092" d="M183.116,230.8a2.961,2.961,0,0,1-2.217.168c-.337-.115-.1-.452.231-.346a2.2,2.2,0,0,0,1.436-.053l.222-.106a1.552,1.552,0,0,0,.612-.523.5.5,0,0,0,.089-.328h0v-.053a.372.372,0,0,0-.177-.151.888.888,0,0,0-.434-.106,1.775,1.775,0,0,0-.541.062l-.275.071h-.2l-.328-.337a3.5,3.5,0,0,1,.887-.239,1.773,1.773,0,0,1,1.454.355.727.727,0,0,1,0,1A1.978,1.978,0,0,1,183.116,230.8Z" transform="translate(-77.296 -91.277)" fill="#a6a6a6"/>
        <path id="Path_16093" data-name="Path 16093" d="M185.117,232.881a2.891,2.891,0,0,1-2.208.168c-.337-.106-.106-.452.231-.337a2.145,2.145,0,0,0,1.436-.062l.222-.106a1.55,1.55,0,0,0,.612-.523.549.549,0,0,0,.08-.328h0v-.1a.355.355,0,0,0-.168-.151.984.984,0,0,0-.434-.106,2.225,2.225,0,0,0-.55.071,1.778,1.778,0,0,0-.275.062h-.053a.152.152,0,0,0-.089,0h-.053l-.319-.337a3.176,3.176,0,0,1,.887-.248,1.773,1.773,0,0,1,1.445.364.718.718,0,0,1,0,.993A2,2,0,0,1,185.117,232.881Z" transform="translate(-77.524 -91.507)" fill="#a6a6a6"/>
        <path id="Path_16094" data-name="Path 16094" d="M187.126,234.972a2.918,2.918,0,0,1-2.217.168c-.337-.106-.1-.452.231-.337a2.145,2.145,0,0,0,1.436-.062,1.3,1.3,0,0,0,.222-.106,1.542,1.542,0,0,0,.612-.514.514.514,0,0,0,.089-.337h0a.371.371,0,0,0,0-.044v-.053a.5.5,0,0,0-.177-.151.949.949,0,0,0-.434-.106,2.1,2.1,0,0,0-.54.071,1.767,1.767,0,0,0-.275.062h-.053a.253.253,0,0,0-.089,0h-.053l-.328-.337a3.5,3.5,0,0,1,.887-.239,1.773,1.773,0,0,1,1.454.355.718.718,0,0,1,0,.993A1.819,1.819,0,0,1,187.126,234.972Z" transform="translate(-77.751 -91.745)" fill="#a6a6a6"/>
        <path id="Path_16095" data-name="Path 16095" d="M189.127,237.068a2.89,2.89,0,0,1-2.208.177c-.337-.115-.1-.461.231-.346a2.146,2.146,0,0,0,1.436-.062,1.254,1.254,0,0,0,.222-.106,1.534,1.534,0,0,0,.612-.514.558.558,0,0,0,.08-.337h0v-.044a.373.373,0,0,0-.169-.16.886.886,0,0,0-.434-.1,1.772,1.772,0,0,0-.541.062,2.529,2.529,0,0,0-.275.062h-.2l-.319-.337a3.5,3.5,0,0,1,.887-.239,1.774,1.774,0,0,1,1.445.355.709.709,0,0,1,0,.993A1.844,1.844,0,0,1,189.127,237.068Z" transform="translate(-77.978 -91.988)" fill="#a6a6a6"/>
        <path id="Path_16096" data-name="Path 16096" d="M191.136,239.167a2.963,2.963,0,0,1-2.217.169c-.337-.115-.1-.452.231-.346a2.225,2.225,0,0,0,1.445-.053l.213-.106a1.526,1.526,0,0,0,.621-.523.549.549,0,0,0,.08-.328h0v-.053a.373.373,0,0,0-.177-.151.888.888,0,0,0-.434-.106,1.775,1.775,0,0,0-.541.062l-.275.071h-.2l-.328-.337a3.5,3.5,0,0,1,.887-.239,1.773,1.773,0,0,1,1.454.355.727.727,0,0,1,0,.993,2.013,2.013,0,0,1-.763.594Z" transform="translate(-78.205 -92.226)" fill="#a6a6a6"/>
        <path id="Path_16097" data-name="Path 16097" d="M193.137,241.258a2.89,2.89,0,0,1-2.208.168c-.337-.106-.1-.452.231-.337a2.146,2.146,0,0,0,1.436-.062l.222-.106a1.552,1.552,0,0,0,.612-.523.443.443,0,0,0,.08-.328h0v-.053a.426.426,0,0,0-.177-.151.986.986,0,0,0-.435-.106,2.1,2.1,0,0,0-.54.071,1.369,1.369,0,0,0-.275.062h-.2l-.319-.328a3.173,3.173,0,0,1,.887-.248,1.773,1.773,0,0,1,1.445.364.709.709,0,0,1,0,.993,1.924,1.924,0,0,1-.754.585Z" transform="translate(-78.433 -92.463)" fill="#a6a6a6"/>
        <path id="Path_16098" data-name="Path 16098" d="M119.462,133.647c-12.652,17.281-20.446,40.705-19.816,45.936.692,5.8,7.9,25.606,15.871,34.579,2.1,2.358,19.657-15.392,17.52-18.008-4.132-5.036-12.1-19.683-12.333-22.955-.213-3.015,5.054-22.166,6.712-33.054C129.011,129.658,125.376,125.615,119.462,133.647Z" transform="translate(-68.099 -80.006)" fill="#774442"/>
        <path id="Path_16099" data-name="Path 16099" d="M134.548,204s8.866,4.433,14.559,7.563c3.165,1.773,8.326,5.267,10.063,7.625,2.6,3.547,11.189,19.94,7.262,22.1-3.547,1.968-9.159-13.069-9.159-13.069s6.987,14.674,2.261,16.252-8.8-16.243-8.8-16.243,6.845,15.241,1.72,16.092c-3.875.647-8.467-15.294-8.467-15.294s5.79,13.14,1.835,13.973c-4.371.887-9.531-13.521-9.531-13.521-10.418.434-15.552-3.617-18.868-6.933C116.638,221.733,134.548,204,134.548,204Z" transform="translate(-70.116 -88.463)" fill="#774442"/>
        <path id="Path_16100" data-name="Path 16100" d="M159.991,225.428c.887,1.693,1.773,3.4,2.518,5.169a54.249,54.249,0,0,1,1.959,5.391,31.759,31.759,0,0,1,1.507,7.315c-.718-4.433-3.227-10.755-3.963-12.519s-1.365-3.547-2.092-5.32C159.911,225.41,159.991,225.392,159.991,225.428Z" transform="translate(-74.936 -90.89)" fill="#263238"/>
        <path id="Path_16101" data-name="Path 16101" d="M152.753,228.268c1.037,2.217,2.146,4.371,3.077,6.632s1.622,4.433,2.394,6.765c.062.177-.053.151-.115,0-.887-2.27-1.844-4.3-2.74-6.57s-1.7-4.557-2.66-6.774C152.682,228.26,152.736,228.242,152.753,228.268Z" transform="translate(-74.118 -91.213)" fill="#263238"/>
        <path id="Path_16102" data-name="Path 16102" d="M146.085,229.587a54.851,54.851,0,0,1,3.937,10.5c.044.177-.1.124-.16-.053-1.241-3.547-2.19-6.277-3.892-10.383C145.943,229.587,146.049,229.525,146.085,229.587Z" transform="translate(-73.354 -91.36)" fill="#263238"/>
        <path id="Path_16103" data-name="Path 16103" d="M108.23,151.365l18.708,4.522s2.873-13.14,2.279-21.226-5.32-6.738-10.081-.461A193.716,193.716,0,0,0,108.23,151.365Z" transform="translate(-69.076 -79.965)" fill="#263238"/>
      </g>
    </g>
  </g>
</svg>
