<svg xmlns="http://www.w3.org/2000/svg" width="34" height="34" viewBox="0 0 34 34">
  <g id="feature_icon" transform="translate(-241.5 -1787)">
    <g id="Rectangle_8266" data-name="Rectangle 8266" transform="translate(241.5 1787)" fill="#fff" stroke="#707070" stroke-width="1" opacity="0">
      <rect width="34" height="34" stroke="none"/>
      <rect x="0.5" y="0.5" width="33" height="33" fill="none"/>
    </g>
    <g id="Group_16692" data-name="Group 16692" transform="translate(222.5 1477)">
      <g id="coronavirus" transform="translate(19 310)">
        <path id="Path_26920" data-name="Path 26920" d="M9.72,14.316a.719.719,0,0,1-.355-1.345l.242-.138a1.3,1.3,0,0,0,.688-1.772.719.719,0,1,1,1.266-.682,2.719,2.719,0,0,1-1.243,3.707l-.242.137a.721.721,0,0,1-.355.094Z" transform="translate(3.732 4.135)" fill="#00a0ae"/>
        <path id="Path_26921" data-name="Path 26921" d="M11.72,15.877a.7.7,0,0,1-.194-.027.721.721,0,0,1-.5-.886,2.655,2.655,0,0,1,1.26-1.63,2.918,2.918,0,0,1,2.244-.2l.269.079a.72.72,0,0,1-.41,1.38l-.268-.079a1.48,1.48,0,0,0-1.139.078,1.215,1.215,0,0,0-.573.76.715.715,0,0,1-.691.525Z" transform="translate(4.549 5.391)" fill="#00a0ae"/>
        <path id="Path_26922" data-name="Path 26922" d="M16.449,24.7a3.071,3.071,0,0,1-1.509-.587,2.493,2.493,0,0,0-.853-.4,2.493,2.493,0,0,0-.853.4,2.339,2.339,0,0,1-1.966.509c-.724-.253-1.043-1.006-1.323-1.67a2.8,2.8,0,0,0-.456-.846,2.385,2.385,0,0,0-.879-.2,2.449,2.449,0,0,1-1.885-.833,2.793,2.793,0,0,1-.148-2.125,2.918,2.918,0,0,0,.089-1.02,2.671,2.671,0,0,0-.6-.714A2.75,2.75,0,0,1,5,15.351,2.744,2.744,0,0,1,6.072,13.49a2.651,2.651,0,0,0,.6-.715,2.916,2.916,0,0,0-.089-1.02A2.806,2.806,0,0,1,6.727,9.63,2.445,2.445,0,0,1,8.613,8.8a2.41,2.41,0,0,0,.879-.2,2.836,2.836,0,0,0,.454-.846c.281-.665.6-1.417,1.323-1.672a2.341,2.341,0,0,1,1.966.509,2.493,2.493,0,0,0,.853.4,2.493,2.493,0,0,0,.853-.4,2.347,2.347,0,0,1,1.966-.509c.724.253,1.043,1.006,1.323,1.67a2.8,2.8,0,0,0,.456.846,2.385,2.385,0,0,0,.879.2,2.447,2.447,0,0,1,1.886.833,2.793,2.793,0,0,1,.148,2.125,2.918,2.918,0,0,0-.089,1.02,2.671,2.671,0,0,0,.6.714,2.754,2.754,0,0,1,1.071,1.863A2.744,2.744,0,0,1,22.1,17.213a2.651,2.651,0,0,0-.6.715,2.908,2.908,0,0,0,.089,1.019,2.806,2.806,0,0,1-.148,2.125,2.445,2.445,0,0,1-1.886.833,2.385,2.385,0,0,0-.879.2,2.836,2.836,0,0,0-.454.846c-.281.665-.6,1.417-1.323,1.672a1.363,1.363,0,0,1-.457.078ZM11.733,7.437h-.018c-.134.047-.372.611-.485.882a3.392,3.392,0,0,1-.891,1.417,3.053,3.053,0,0,1-1.56.488c-.287.035-.819.1-.9.224a2.608,2.608,0,0,0,.077,1.033A3.672,3.672,0,0,1,8,13.2a3.308,3.308,0,0,1-.965,1.328c-.273.266-.642.63-.642.823s.37.557.64.823A3.314,3.314,0,0,1,8,17.5a3.659,3.659,0,0,1-.052,1.719,2.6,2.6,0,0,0-.077,1.032c.084.124.617.19.9.224a3.085,3.085,0,0,1,1.56.488,3.381,3.381,0,0,1,.889,1.418c.116.272.354.833.492.882a2.574,2.574,0,0,0,.805-.387,3.159,3.159,0,0,1,1.563-.6,3.164,3.164,0,0,1,1.564.6c.233.142.663.416.808.386.134-.047.372-.611.487-.882a3.4,3.4,0,0,1,.889-1.417,3.071,3.071,0,0,1,1.56-.488c.287-.035.819-.1.9-.224a2.608,2.608,0,0,0-.077-1.033,3.672,3.672,0,0,1-.052-1.718,3.308,3.308,0,0,1,.965-1.328c.273-.265.642-.629.642-.821s-.37-.557-.64-.823a3.314,3.314,0,0,1-.965-1.326,3.659,3.659,0,0,1,.052-1.719,2.6,2.6,0,0,0,.077-1.032c-.084-.124-.617-.19-.9-.224a3.085,3.085,0,0,1-1.56-.488,3.381,3.381,0,0,1-.889-1.418c-.116-.272-.354-.833-.492-.882a3.141,3.141,0,0,0-.805.387,3.159,3.159,0,0,1-1.563.6,3.164,3.164,0,0,1-1.564-.6,2.779,2.779,0,0,0-.79-.388Z" transform="translate(2.193 2.344)" fill="#00a0ae"/>
        <path id="Path_26923" data-name="Path 26923" d="M0,0H1.439V5.575H0Z" transform="translate(22.598 23.621) rotate(-45)" fill="#00a0ae"/>
        <path id="Path_26924" data-name="Path 26924" d="M0,0H1.439V10.66H0Z" transform="translate(4.037 5.055) rotate(-45)" fill="#00a0ae"/>
        <path id="Path_26925" data-name="Path 26925" d="M0,0H5.575V1.439H0Z" transform="translate(21.54 11.441) rotate(-45)" fill="#00a0ae"/>
        <path id="Path_26926" data-name="Path 26926" d="M0,0H7.1V1.439H0Z" transform="translate(5.112 27.865) rotate(-45)" fill="#00a0ae"/>
        <path id="Path_26927" data-name="Path 26927" d="M20.6,9.193a3.6,3.6,0,1,1,3.6-3.6A3.6,3.6,0,0,1,20.6,9.193Zm0-5.755A2.158,2.158,0,1,0,22.755,5.6,2.161,2.161,0,0,0,20.6,3.439Z" transform="translate(6.93 0.877)" fill="#00a0ae"/>
        <path id="Path_26928" data-name="Path 26928" d="M22.316,26.632a4.316,4.316,0,1,1,4.316-4.316A4.321,4.321,0,0,1,22.316,26.632Zm0-7.193a2.877,2.877,0,1,0,2.877,2.877A2.88,2.88,0,0,0,22.316,19.439Z" transform="translate(7.368 7.368)" fill="#00a0ae"/>
        <path id="Path_26929" data-name="Path 26929" d="M3.6,26.193a3.6,3.6,0,1,1,3.6-3.6A3.6,3.6,0,0,1,3.6,26.193Zm0-5.755A2.158,2.158,0,1,0,5.755,22.6,2.161,2.161,0,0,0,3.6,20.439Z" transform="translate(0 7.807)" fill="#00a0ae"/>
        <path id="Path_26930" data-name="Path 26930" d="M2.877,5.755A2.877,2.877,0,1,1,5.755,2.877,2.88,2.88,0,0,1,2.877,5.755Zm0-4.316A1.439,1.439,0,1,0,4.316,2.877,1.441,1.441,0,0,0,2.877,1.439Z" fill="#00a0ae"/>
        <path id="Path_26931" data-name="Path 26931" d="M12.158,5.316a2.158,2.158,0,1,1,2.158-2.158A2.161,2.161,0,0,1,12.158,5.316Zm0-2.877a.719.719,0,1,0,.719.719A.72.72,0,0,0,12.158,2.439Z" transform="translate(4.135 0.439)" fill="#00a0ae"/>
        <path id="Path_26932" data-name="Path 26932" d="M2.158,15.316a2.158,2.158,0,1,1,2.158-2.158A2.161,2.161,0,0,1,2.158,15.316Zm0-2.877a.719.719,0,1,0,.719.719A.72.72,0,0,0,2.158,12.439Z" transform="translate(0 4.549)" fill="#00a0ae"/>
        <path id="Path_26933" data-name="Path 26933" d="M23.158,15.316a2.158,2.158,0,1,1,2.158-2.158A2.161,2.161,0,0,1,23.158,15.316Zm0-2.877a.719.719,0,1,0,.719.719A.72.72,0,0,0,23.158,12.439Z" transform="translate(8.684 4.549)" fill="#00a0ae"/>
        <path id="Path_26934" data-name="Path 26934" d="M2.5,12H6.816v1.439H2.5Z" transform="translate(1.097 4.989)" fill="#00a0ae"/>
        <path id="Path_26935" data-name="Path 26935" d="M23.474,13.439H17.719a.719.719,0,1,1,0-1.439h5.755a.719.719,0,1,1,0,1.439Z" transform="translate(6.93 4.989)" fill="#00a0ae"/>
        <path id="Path_26936" data-name="Path 26936" d="M11.719,9.743A.72.72,0,0,1,11,9.024v-5.3a.719.719,0,1,1,1.439,0v5.3A.72.72,0,0,1,11.719,9.743Z" transform="translate(4.573 1.316)" fill="#00a0ae"/>
      </g>
    </g>
  </g>
</svg>
