<svg xmlns="http://www.w3.org/2000/svg" width="360" height="360" viewBox="0 0 360 360">
  <g id="feature_illustration_3" transform="translate(-6515 -15527.998)">
    <g id="Rectangle_6876" data-name="Rectangle 6876" transform="translate(6515 15527.998)" fill="#fff" stroke="#707070" stroke-width="1" opacity="0">
      <rect width="360" height="360" stroke="none"/>
      <rect x="0.5" y="0.5" width="359" height="359" fill="none"/>
    </g>
    <g id="Call_center-cuate" data-name="Call center-cuate" transform="translate(6515.001 15537)">
      <g id="freepik--Desk--inject-5" transform="translate(0 330.962)">
        <path id="Path_15868" data-name="Path 15868" d="M30.76,437.672l45-.2,45-.074,90-.131,90,.131,45,.074,45,.2-45,.205-45,.074-90,.131-90-.131-45-.074Z" transform="translate(-30.76 -437.27)" fill="#263238"/>
      </g>
      <g id="freepik--character-2--inject-5" transform="translate(169.584 30.836)">
        <path id="Path_15869" data-name="Path 15869" d="M364.1,78.661c4.54-5.328,12.315-6.609,19.836-5.09s16.527,5.312,17.348,17.89c.673,10.213-2.463,20.172-2.463,31.568s12.9,39.154-7.742,52.7c-18.547,12.167-56.124.993-57.282-24.056-.911-19.852,22.635-38.21,25.115-46.067S359.123,84.49,364.1,78.661Z" transform="translate(-254.579 -71.941)" fill="#263238"/>
        <path id="Path_15870" data-name="Path 15870" d="M360.687,93.55a44.661,44.661,0,0,1-3.284,16.79,16.14,16.14,0,0,1-2.34,3.768c-.911,1.149-1.88,2.233-2.849,3.284-1.954,2.126-3.884,4.236-5.747,6.429a58.6,58.6,0,0,0-9.081,14.277,44.9,44.9,0,0,0-3.6,16.42,38.743,38.743,0,0,1,.255-8.555,42.2,42.2,0,0,1,2.192-8.341,51.98,51.98,0,0,1,8.965-14.819c1.864-2.225,3.842-4.351,5.813-6.453s3.966-4.105,5.189-6.568a36.121,36.121,0,0,0,2.849-7.915A67.779,67.779,0,0,0,360.687,93.55Z" transform="translate(-254.559 -75.623)" fill="#263238"/>
        <path id="Path_15871" data-name="Path 15871" d="M414.977,105.94c-.14,5.8-.509,11.584-.353,17.34a70.865,70.865,0,0,0,.723,8.563c.427,2.791,1.264,5.583,1.962,8.407s1.322,5.69,1.781,8.58a49.827,49.827,0,0,1,.559,8.777,31.143,31.143,0,0,1-1.642,8.662,22.011,22.011,0,0,1-4.836,7.34,23.212,23.212,0,0,0,4.105-7.586,30.9,30.9,0,0,0,1.133-8.44,74.273,74.273,0,0,0-2.676-16.97c-.657-2.816-1.494-5.608-1.9-8.571a55.905,55.905,0,0,1-.443-8.76A142.15,142.15,0,0,1,414.977,105.94Z" transform="translate(-268.791 -77.841)" fill="#263238"/>
        <path id="Path_15872" data-name="Path 15872" d="M357.82,158.279c-18.883,20.788-34.294,30.771-49.483,30.771-14.441,0-45.3-35.065-47.561-39.688-1.954-3.99,23.374-25.821,27.266-23.1,6.568,4.548,27.635,30.878,29.868,31s10.46-5.312,30.271-14.589C360.218,137.047,370.957,143.87,357.82,158.279Z" transform="translate(-241.495 -81.436)" fill="#eb9481"/>
        <path id="Path_15873" data-name="Path 15873" d="M259.536,146.641c-2.775-3-14.425-18-16.732-22.9s-7.9-19.458-4.327-21.6,5.542,1.987,5.542,1.987-1.388-6.519,2.406-8.35,6.65,4.7,6.65,4.7-.936-6.8,2.972-8.358,5.7,5.5,5.7,5.5-1.149-6.182,2.611-6.108c4.524.09,5.353,11.724,8.3,16.937.665,1.182,15.263,22.988,15.263,22.988Z" transform="translate(-237.315 -75.258)" fill="#eb9481"/>
        <path id="Path_15874" data-name="Path 15874" d="M266.76,98.152c.632,8.547,2.389,12.184,7.389,18.974.1.131-.074.3-.189.181-5.525-6.207-8.382-10.443-7.635-19.146C266.382,97.734,266.727,97.742,266.76,98.152Z" transform="translate(-242.486 -76.392)" fill="#263238"/>
        <path id="Path_15875" data-name="Path 15875" d="M256.385,101.556c1.429,8.826,3.284,12.783,8.038,20.279.066.107-.107.23-.18.131-5.263-6.97-8.021-11.264-8.292-20.271C255.933,101.285,256.319,101.146,256.385,101.556Z" transform="translate(-240.65 -77.012)" fill="#263238"/>
        <path id="Path_15876" data-name="Path 15876" d="M245.744,107.261c2,8.448,3.867,12.874,9.4,19.557.131.164-.09.369-.23.222-6.305-6.273-8.67-11.781-9.417-19.7C245.449,106.809,245.621,106.727,245.744,107.261Z" transform="translate(-238.778 -78.012)" fill="#263238"/>
        <path id="Path_15877" data-name="Path 15877" d="M301.746,135.22s-.189-10.747-1.314-15.451-11.724-20.681-15.345-18.58c-4.623,2.709-.3,13.136,2.463,17.98,0,0-10.673,6.273-9.22,14.433S301.746,135.22,301.746,135.22Z" transform="translate(-244.632 -76.957)" fill="#eb9481"/>
        <path id="Path_15878" data-name="Path 15878" d="M283.963,102.629c-2.463,5.517,1.642,11.634,3.982,16.519a.5.5,0,0,1-.361.731c-4.319,2.931-9.548,8.309-9.614,13.809a.123.123,0,0,1-.246,0c-.731-5.911,3.974-11.626,8.9-14.524-2.463-4.984-6.3-11.289-2.709-16.584Z" transform="translate(-244.534 -77.239)" fill="#263238"/>
        <path id="Path_15879" data-name="Path 15879" d="M339.34,154.217l15.172,28.308s20.575-19.975,23.859-28.308-.254-14.384-14.893-9.926a128.137,128.137,0,0,0-24.138,9.926Z" transform="translate(-255.576 -84.435)" fill="#e27e28"/>
        <path id="Path_15880" data-name="Path 15880" d="M359.312,178.949c-.747-1.535-1.4-3.12-2.184-4.647s-1.56-3.038-2.373-4.532c-1.642-3.021-3.284-6.051-4.992-9.031-.969-1.642-1.987-3.333-3.046-4.926-.041-.074-.181,0-.14.057,2.783,6.232,6.158,12.2,9.524,18.128.977,1.716,2.086,3.35,3.1,5.041C359.238,179.081,359.353,179.007,359.312,178.949Z" transform="translate(-256.87 -86.762)" fill="#263238"/>
        <path id="Path_15881" data-name="Path 15881" d="M379.45,154.666c-3.284,8.333-23.859,28.309-23.859,28.309L345.37,163.935l33.719-18.645C381.026,147.31,381,150.733,379.45,154.666Z" transform="translate(-256.656 -84.884)" fill="#263238"/>
        <path id="Path_15882" data-name="Path 15882" d="M342.237,201.624s-8.341,19.967-5.394,35.156h91.97c-2.988-41.289-23.571-76.773-35.73-88.259-9.8-9.261-20.123-8.432-27.307-3.695-1.691,1.125-20.353,26.913-22.373,30.993C335.389,191.919,342.237,201.624,342.237,201.624Z" transform="translate(-255.016 -84.182)" fill="#e27e28"/>
        <path id="Path_15883" data-name="Path 15883" d="M372.247,139.606s-5.747,16.527-2.414,17.389c8.292,2.135,19.417-11.4,20.082-12.783.164-.353.9-9.606,1.453-16.806.353-4.631.624-8.415.624-8.415l-20.46,7.02.657,12.685Z" transform="translate(-260.848 -80.177)" fill="#eb9481"/>
        <path id="Path_15884" data-name="Path 15884" d="M372.09,126.01l.657,12.685c4.163-.583,13.317-2.841,19.179-11.289.353-4.631.624-8.415.624-8.415l-2.561.821Z" transform="translate(-261.438 -80.177)" fill="#263238"/>
        <path id="Path_15885" data-name="Path 15885" d="M353.519,99.9c-.246,6.445.394,11.658,1.962,15.123a17.578,17.578,0,0,0,15.263,10.3c2.463.09,9.556-.558,14.688-4.466,3.99-3.038,6.4-8.514,7.758-18.144,3.12-22.02-6.954-29.425-16.88-30.312S354.34,77.68,353.519,99.9Z" transform="translate(-258.105 -71.822)" fill="#eb9481"/>
        <path id="Path_15886" data-name="Path 15886" d="M360.251,99.393c.517-.074.993-.222,1.494-.337a2.569,2.569,0,0,0,1.469-.632.821.821,0,0,0,0-.969,1.97,1.97,0,0,0-1.937-.435,2.89,2.89,0,0,0-1.8,1.043.821.821,0,0,0,.772,1.33Z" transform="translate(-259.148 -76.228)" fill="#263238"/>
        <path id="Path_15887" data-name="Path 15887" d="M377.451,100.061a14.663,14.663,0,0,1-1.494-.345,2.463,2.463,0,0,1-1.461-.64.821.821,0,0,1,0-.969,1.962,1.962,0,0,1,1.946-.419,2.882,2.882,0,0,1,1.806,1.059.821.821,0,0,1-.8,1.314Z" transform="translate(-261.84 -76.346)" fill="#263238"/>
        <path id="Path_15888" data-name="Path 15888" d="M373.675,107.357c0-.057.115.074.115.14-.123,1.5,0,3.284,1.339,3.826v.082C373.454,111.093,373.322,108.761,373.675,107.357Z" transform="translate(-261.693 -78.092)" fill="#263238"/>
        <path id="Path_15889" data-name="Path 15889" d="M375.115,105.51c2.463-.066,2.4,4.819.131,4.885S373.1,105.567,375.115,105.51Z" transform="translate(-261.704 -77.764)" fill="#263238"/>
        <path id="Path_15890" data-name="Path 15890" d="M376.556,105.811c.419.279.821.772,1.346.821s1.051-.443,1.445-.936c.041-.049.082,0,.082.057,0,.936-.361,1.9-1.371,2.028s-1.56-.722-1.79-1.642C376.228,105.942,376.384,105.7,376.556,105.811Z" transform="translate(-262.185 -77.793)" fill="#263238"/>
        <path id="Path_15891" data-name="Path 15891" d="M363.5,106.577c0-.057-.115.074-.115.131,0,1.519-.156,3.284-1.527,3.76-.041,0-.041.09,0,.082C363.536,110.321,363.783,108.006,363.5,106.577Z" transform="translate(-259.6 -77.952)" fill="#263238"/>
        <path id="Path_15892" data-name="Path 15892" d="M361.792,104.649c-2.463-.189-2.635,4.7-.378,4.869S363.828,104.813,361.792,104.649Z" transform="translate(-259.243 -77.609)" fill="#263238"/>
        <path id="Path_15893" data-name="Path 15893" d="M360.438,104.921c-.394.246-.821.7-1.256.714s-.911-.534-1.231-1.051c0-.057-.074,0-.082.049-.057.936.205,1.913,1.1,2.135s1.445-.583,1.7-1.5C360.684,105.086,360.561,104.823,360.438,104.921Z" transform="translate(-258.891 -77.594)" fill="#263238"/>
        <path id="Path_15894" data-name="Path 15894" d="M372.884,121.672c-.353.369-.7.87-1.24.936a4.21,4.21,0,0,1-1.642-.32.049.049,0,1,0-.066.074,2.052,2.052,0,0,0,1.954.755,1.642,1.642,0,0,0,1.141-1.379.082.082,0,0,0-.148-.066Z" transform="translate(-261.05 -80.65)" fill="#263238"/>
        <path id="Path_15895" data-name="Path 15895" d="M365.431,111.64s-.361,2.258-.378,3.325c0,.1.254.148.616.181h.041a5.066,5.066,0,0,0,4.926-1.79c.074-.1-.058-.213-.156-.148a7.685,7.685,0,0,1-4.655,1.232c-.066-.3.747-3.842.575-3.859a9.094,9.094,0,0,0-2.463.5c.616-4.721,1.978-9.3,2.512-14.006,0-.164-.222-.222-.271-.074-1.774,4.7-2.595,10.115-3.358,14.967C362.754,112.584,364.971,111.821,365.431,111.64Z" transform="translate(-259.779 -76.226)" fill="#263238"/>
        <path id="Path_15896" data-name="Path 15896" d="M367.12,118.148a5.6,5.6,0,0,0,2.1,1.9,2.545,2.545,0,0,0,1.511.214c1.125-.205,1.231-1.215,1.1-2.094a6.352,6.352,0,0,0-.394-1.363A7.243,7.243,0,0,1,367.12,118.148Z" transform="translate(-260.549 -79.786)" fill="#263238"/>
        <path id="Path_15897" data-name="Path 15897" d="M369.68,120.349a2.545,2.545,0,0,0,1.511.214c1.125-.205,1.232-1.215,1.1-2.094A2.594,2.594,0,0,0,369.68,120.349Z" transform="translate(-261.007 -80.083)" fill="#ff98b9"/>
        <path id="Path_15898" data-name="Path 15898" d="M392.952,100.619c-2.422.074-9.294-5.969-10.542-17.578,0,0,1.847,10.345,2.767,11.8s-3.842-3.407-4.984-12.75c0,0-4.844,4.22-9.162,5.862s-7.019,1.856-7.389,1.56,5.977-2.939,7.553-5.123c0,0-11.272,6.568-16.658,7.455-.624.1.427-9.6,8.317-15.837s18.735-4.68,22.627-1.56c0,0,4.253.222,9.376,6.01S395.555,100.537,392.952,100.619Z" transform="translate(-258.27 -71.715)" fill="#263238"/>
        <path id="Path_15899" data-name="Path 15899" d="M397.266,109.972s4.507-7.167,7.734-5.591.082,11.8-3.538,13.35a3.752,3.752,0,0,1-5.131-1.765Z" transform="translate(-265.777 -77.521)" fill="#eb9481"/>
        <path id="Path_15900" data-name="Path 15900" d="M404.469,108c.066,0,.074.074,0,.1-2.537,1.174-3.777,3.645-4.614,6.182a2.078,2.078,0,0,1,3.079-.722c.066.041,0,.156-.066.14a2.323,2.323,0,0,0-2.463.936,11.791,11.791,0,0,0-1.116,2.11c-.107.238-.534.14-.452-.131a.187.187,0,0,1,0-.066C398.607,113.23,400.947,108.484,404.469,108Z" transform="translate(-266.223 -78.21)" fill="#263238"/>
        <path id="Path_15901" data-name="Path 15901" d="M411.087,154.484c9.1,10.5,34.6,48.514,28.686,58.785-5.673,9.852-18.538,12.627-25.944-.608-5.328-9.466-14.285-37.709-16.511-51.256C395.512,150.437,402.68,144.772,411.087,154.484Z" transform="translate(-265.903 -85.638)" fill="#eb9481"/>
        <path id="Path_15902" data-name="Path 15902" d="M402.283,187.716,432.43,176.64s-16.921-23.161-24.712-27.57-14.277-1.749-11.9,13.366a127.206,127.206,0,0,0,6.462,25.279Z" transform="translate(-265.596 -85.217)" fill="#e27e28"/>
        <path id="Path_15903" data-name="Path 15903" d="M428.6,177.829c-1.642.534-3.284.961-4.926,1.519s-3.218,1.125-4.811,1.724c-3.227,1.2-6.445,2.4-9.639,3.686-1.79.722-3.58,1.5-5.329,2.323-.082,0-.049.172,0,.148,6.568-1.888,12.939-4.4,19.277-6.9,1.839-.731,3.6-1.642,5.419-2.373C428.718,177.92,428.661,177.8,428.6,177.829Z" transform="translate(-267.123 -90.707)" fill="#263238"/>
        <path id="Path_15904" data-name="Path 15904" d="M404.129,190.638a11.034,11.034,0,0,0-1.749.542c-.821-1.782-2.767-9.614-3.218-11.626-.9-4.007-1.642-8.054-2.586-12.061,0-.115-.222-.082-.205,0,.279,2.225.624,4.442,1.01,6.642-.41-1.051-.821-2.11-1.141-3.186a.049.049,0,1,0-.09,0,32.594,32.594,0,0,0,1.371,3.924c.32,4.105,4.056,17.151,4.163,17.1a24.68,24.68,0,0,0,2.463-1.289C404.236,190.712,404.236,190.63,404.129,190.638Z" transform="translate(-265.743 -88.845)" fill="#263238"/>
        <path id="Path_15905" data-name="Path 15905" d="M385.815,101.137l-8.58,36.625c-.37,1.076.181,1.938,1.231,1.921l16.379,3.333a3.038,3.038,0,0,0,2.578-1.987L406,104.4c.369-1.075-.18-1.938-1.231-1.913L388.392,99.15A3.037,3.037,0,0,0,385.815,101.137Z" transform="translate(-262.338 -76.626)" fill="#a6a6a6"/>
        <path id="Path_15906" data-name="Path 15906" d="M387.53,101.387l-8.555,36.625c-.37,1.075.18,1.938,1.231,1.921l16.379,3.333a3.037,3.037,0,0,0,2.578-1.979l8.547-36.625c.369-1.084-.181-1.938-1.232-1.921L390.108,99.4A3.063,3.063,0,0,0,387.53,101.387Z" transform="translate(-262.65 -76.67)" fill="#dbdbdb"/>
        <path id="Path_15907" data-name="Path 15907" d="M395.024,103.391a1.642,1.642,0,1,1-1.593-1.6A1.6,1.6,0,0,1,395.024,103.391Z" transform="translate(-264.955 -77.098)" fill="#263238"/>
        <path id="Path_15908" data-name="Path 15908" d="M419.91,216.684c5.328,9.852,19.433,4.237,21.568-2.709,5.008-16.3,1.9-43.391-1.084-58.522-.961-4.868-34.031,0-33.834,5.263C406.79,167.078,409.466,197.308,419.91,216.684Z" transform="translate(-267.608 -86.344)" fill="#eb9481"/>
        <path id="Path_15909" data-name="Path 15909" d="M438.675,152.8a51.351,51.351,0,0,0,.3-21.855c-1.741-7.873-7.43-24.573-30.3-32.019-5.427-1.773-14.417-.451-6.568,5.657,5.55,4.343,10.378,5.419,13.136,8.539,0,0-11.232,3.038-12.792,8.539a106.1,106.1,0,0,0-3.062,14.68,22.478,22.478,0,0,0,2.693.821,21.832,21.832,0,0,0,3.169,13.694Z" transform="translate(-266.258 -76.455)" fill="#eb9481"/>
        <path id="Path_15910" data-name="Path 15910" d="M433.933,126.537c-3.4-2.463-10.673-7.7-18.136-9.852-8.276-2.463-24.852-4.844-26.576,1.273-1.264,4.491,4.984,5.977,4.984,5.977s-7.06.443-7.315,4.746c-.23,3.924,4.672,4.786,4.672,4.786s-4.236,1-3.736,4.828c.608,4.589,9.4,1.732,14.039,5.854C402.906,145.05,433.933,126.537,433.933,126.537Z" transform="translate(-264.085 -79.3)" fill="#eb9481"/>
        <path id="Path_15911" data-name="Path 15911" d="M416.286,127.775c-3.58-1.839-12.791-3.916-20.361-2.036-.172,0-.23.189-.066.189a85.036,85.036,0,0,1,20.41,1.921C416.31,127.865,416.327,127.791,416.286,127.775Z" transform="translate(-265.675 -81.252)" fill="#263238"/>
        <path id="Path_15912" data-name="Path 15912" d="M413.007,138.056c-3.284-1.264-12.849-2.989-20.451-.821-.173.049-.222.205-.058.2a90.193,90.193,0,0,1,20.526.706.042.042,0,1,0-.016-.082Z" transform="translate(-265.073 -83.257)" fill="#263238"/>
        <path id="Path_15913" data-name="Path 15913" d="M416.169,209.348c-.246-.821-.484-1.642-.747-2.389-.542-1.642-1.01-3.284-1.486-4.926-.969-3.284-1.9-6.617-2.709-9.967A176.5,176.5,0,0,1,407.54,171.8c-.23-1.888-.427-3.777-.632-5.665s-.271-3.851-.632-5.747c0-.1-.96-1.544-1.338-2.258a19.21,19.21,0,0,1-1.026-2.3,21.267,21.267,0,0,1-1.24-4.992.057.057,0,0,0-.107,0,16.188,16.188,0,0,0,.723,5.747,10.156,10.156,0,0,0,2.545,4.105c0,.246.057,3.284.156,4.983s.255,3.4.444,5.09c.386,3.4.862,6.79,1.461,10.164A154.436,154.436,0,0,0,412.77,201.1a1.228,1.228,0,0,0,.107.32v.739a14.979,14.979,0,0,0,.148,1.814,17.139,17.139,0,0,0,.878,3.506.066.066,0,1,0,.123,0,23.376,23.376,0,0,1-.591-3.612l-.148-1.248c.452,1.33.928,2.66,1.4,3.982.328.92.665,1.815,1.043,2.709s.673,1.765,1.117,2.594c0,.066.131,0,.115-.049C416.752,210.981,416.424,210.177,416.169,209.348Z" transform="translate(-266.888 -85.871)" fill="#263238"/>
      </g>
      <g id="freepik--character-1--inject-5" transform="translate(11.324 142.218)">
        <path id="Path_15915" data-name="Path 15915" d="M137.242,311.325c7.225,31.437,22.167,69.121,28.547,75.238,8.07,7.734,61.461,21.921,64.121,22.208,6.568.665,19.811-46.8,12.783-47.824-10.673-1.544-49.556-3.654-51.88-6.043s-18.826-23.194-35.689-46.568C143.482,292.188,132.751,291.818,137.242,311.325Z" transform="translate(-60.956 -223.32)" fill="#ad6359"/>
        <path id="Path_15916" data-name="Path 15916" d="M243.9,420.109c.78.394,11.937,6.01,18.834,8,5.148,1.494,20.074,5.394,22.282-.115,1.511-3.744-7-7.069-12.964-9.557-3.144-1.313-7.02-4.6-6.092-6.617,1.642-3.53,9.712,0,15.033,3.1,10.287,5.977,23.99,16.74,30.271,11.494,2.373-1.971-.386-5.567-4.417-9.089,6.568,4.105,13.53,7.471,16.248,5.386,1.568-1.19,1.642-2.824.772-4.68,2.02.657,3.8.526,5.049-.821,2.126-2.233,1.092-5.517-1.24-8.892a2.529,2.529,0,0,0,1.938-1.264c4.507-6.872-18.062-26.6-25.854-28.448-22.947-5.46-47.134-4.442-47.134-4.442C247.611,381.407,243.875,420.093,243.9,420.109Z" transform="translate(-80.233 -237.22)" fill="#ad6359"/>
        <path id="Path_15917" data-name="Path 15917" d="M284.989,404.41A38.969,38.969,0,0,1,300.3,410.3c5.821,3.842,9.68,8.341,14.556,12.865a.14.14,0,0,1-.181.205c-2.323-2.151-11.962-10.246-14.45-12.085a37.162,37.162,0,0,0-15.238-6.782C284.915,404.492,284.932,404.393,284.989,404.41Z" transform="translate(-87.579 -242.645)" fill="#263238"/>
        <path id="Path_15918" data-name="Path 15918" d="M290.2,392.54c6.034,1.642,12.217,3.284,17.816,6.174,6.125,3.12,10.919,8.21,15.6,13.136q4.253,4.408,8.3,9.031c.107.131-.066.336-.181.205q-7.176-7.586-14.778-14.778A49.116,49.116,0,0,0,300.7,396.062c-3.448-1.322-6.995-2.365-10.542-3.415C290.105,392.63,290.13,392.523,290.2,392.54Z" transform="translate(-88.508 -240.52)" fill="#263238"/>
        <path id="Path_15919" data-name="Path 15919" d="M298.055,382.17c5.862,1.207,10.977,2.233,16.166,5.369,6.872,4.163,13.506,11.166,15.829,13.654,2.57,2.742,5.049,5.567,7.479,8.432.1.115-.1.3-.205.181A194.561,194.561,0,0,0,319.45,392.1a38.931,38.931,0,0,0-10-6.5,69.463,69.463,0,0,0-11.4-3.383S298.005,382.162,298.055,382.17Z" transform="translate(-89.922 -238.665)" fill="#263238"/>
        <path id="Path_15920" data-name="Path 15920" d="M233.647,358.229l-16.42,52.019s-44.458-12.693-52.545-21.453-23.12-54-27.529-75.927,6.675-21.346,16.864-7.562,35.558,47.331,36.946,48.062S233.647,358.229,233.647,358.229Z" transform="translate(-60.949 -223.163)" fill="#00a3b1"/>
        <path id="Path_15921" data-name="Path 15921" d="M233.647,358.229l-16.42,52.019s-44.458-12.693-52.545-21.453-23.12-54-27.529-75.927,6.675-21.346,16.864-7.562,35.558,47.331,36.946,48.062S233.647,358.229,233.647,358.229Z" transform="translate(-60.949 -223.163)" opacity="0.1"/>
        <path id="Path_15922" data-name="Path 15922" d="M228.265,400.737c2-6.133,4.031-12.25,5.788-18.456,1-3.522,2.02-7.052,2.988-10.583.041-.139-.181-.213-.23-.082-2.241,6.076-4.474,12.176-6.437,18.35s-3.957,12.315-5.829,18.448c-1.059,3.514-2.02,7.044-2.865,10.616,0,.066.1.107.123.041C224.25,413.068,226.261,406.911,228.265,400.737Z" transform="translate(-76.256 -236.763)" fill="#263238"/>
        <path id="Path_15923" data-name="Path 15923" d="M194.812,403.1l-1.97-.69c-3.7-1.322-7.479-2.742-11.034-4.2-.46-.181-.911-.369-1.355-.558-.714-.3-1.429-.6-2.118-.9L177.3,396.3l-.369-.164-1.067-.493c-1.412-.649-2.75-1.3-4-1.954l-.821-.46a30.914,30.914,0,0,1-5.484-3.6c-.156-.14-.312-.279-.452-.419s-.287-.279-.41-.41c-8.128-8.76-23.12-54-27.529-75.927l-.148-.755v-.164c-.3-1.642-.558-3.727-.772-5.96h0c-.616-10.911,4.549-12.693,10.928-7.9C163.08,332.222,187.439,388.618,194.812,403.1Z" transform="translate(-60.956 -223.167)" fill="#263238"/>
        <path id="Path_15924" data-name="Path 15924" d="M158.38,411.243l-96.88.509c.082-2.085,13.875-63.087,24.844-85.6,14.064-28.867,21.346-31.2,25.64-32.742,5.542-1.987,15.41-1,17.75.107,2.66,1.24,11.116,16,14.146,26.831C149.94,342.13,159.742,409.913,158.38,411.243Z" transform="translate(-47.586 -222.574)" fill="#ebebeb"/>
        <path id="Path_15925" data-name="Path 15925" d="M106.578,296.44s12.315,45.607,12.931,48.637c.928,4.4,7.069,67.192,7.069,67.192l-67.528.23s14.737-58.128,25.706-83.579C96.726,301,106.578,296.44,106.578,296.44Z" transform="translate(-47.148 -223.32)" fill="#00a3b1"/>
        <g id="Group_14406" data-name="Group 14406" transform="translate(11.902 73.12)" opacity="0.1">
          <path id="Path_15926" data-name="Path 15926" d="M106.578,296.44s12.315,45.607,12.931,48.637c.928,4.4,7.069,67.192,7.069,67.192l-67.528.23s14.737-58.128,25.706-83.579C96.726,301,106.578,296.44,106.578,296.44Z" transform="translate(-59.05 -296.44)"/>
        </g>
        <path id="Path_15927" data-name="Path 15927" d="M145.69,294.65c.361,1.453,11.716,38.506,12.5,47.742.878,10.246,8.645,69.786,8.645,69.786h9.852S162.43,326.636,158.514,317.6C150.5,299.149,145.69,294.65,145.69,294.65Z" transform="translate(-62.655 -222.999)" fill="#00a3b1"/>
        <path id="Path_15928" data-name="Path 15928" d="M145.69,294.65c.361,1.453,11.716,38.506,12.5,47.742.878,10.246,8.645,69.786,8.645,69.786h9.852S162.43,326.636,158.514,317.6C150.5,299.149,145.69,294.65,145.69,294.65Z" transform="translate(-62.655 -222.999)" opacity="0.1"/>
        <path id="Path_15929" data-name="Path 15929" d="M91.477,307.724C75.253,325.1,35.812,391.049,48.324,403.076s81.978-4.163,101.485-13.464c5.8-2.759-16.248-38.949-23.071-39.794-5.681-.7-34.712,12.578-35.558,10.911-.944-1.888,3.67-15.821,10.673-41.051C109.892,290.6,98.652,300.039,91.477,307.724Z" transform="translate(-44.796 -223.939)" fill="#ad6359"/>
        <path id="Path_15930" data-name="Path 15930" d="M179.48,344.069c14.105-1.97,18.062-.3,29.056-8.284,7.233-5.238,13.686-2.865,9.557,5.452-6.749,13.612-24.417,19.967-31.2,20.41Z" transform="translate(-68.703 -229.865)" fill="#ad6359"/>
        <path id="Path_15931" data-name="Path 15931" d="M133.84,359.941s15.854-8.8,30.681-12.381c10.246-2.463,33.152-5.378,55.074,17.241,5.2,5.361,8.8,16.691-2.865,11.018-8.292-4.031-12.315-9.089-17.578-10.558,0,0,2.874,14.951-2.7,19.951a137.809,137.809,0,0,1-15.493,12.02,28.315,28.315,0,0,1-2.512-2.693s-5.649,4.179-16.273,3.161Z" transform="translate(-60.534 -232.174)" fill="#ad6359"/>
        <path id="Path_15932" data-name="Path 15932" d="M183.009,347c4.926,2.553,15.2,8.145,22.028,15.649,7.594,8.341,19.967,26.436,13.752,32.019-4.548,4.064-9.852-2.463-9.852-2.463s3.539,8.563-1.379,11.33c-4.475,2.529-8.3-2.742-8.3-2.742s1.256,5.558-3.53,7.159c-5.747,1.921-7.438-10.049-14.951-13.136C179.06,394.077,183.009,347,183.009,347Z" transform="translate(-68.858 -232.369)" fill="#ad6359"/>
        <path id="Path_15933" data-name="Path 15933" d="M198.052,374c4.212,3.161,11.946,12.791,14.08,22.767.049.23-.09.386-.181.189a110.73,110.73,0,0,0-13.957-22.881C197.928,374,197.994,374,198.052,374Z" transform="translate(-72.012 -237.202)" fill="#263238"/>
        <path id="Path_15934" data-name="Path 15934" d="M188.07,383.627c3.358,3.1,10.887,13.383,12.7,23.571.041.23-.115.377-.189.172A118.708,118.708,0,0,0,188,383.693C187.947,383.643,188,383.586,188.07,383.627Z" transform="translate(-70.224 -238.923)" fill="#263238"/>
        <path id="Path_15935" data-name="Path 15935" d="M213.371,369.36c4.6,1.355,7.586,3.612,11.494,6.305a63.223,63.223,0,0,0,5.92,3.752c1.872,1.01,4.639,2.537,6.626.952,1.117-.878,1.1-2.463.821-3.752a18.448,18.448,0,0,0-2.529-5.23c0-.066.057-.14.107-.082a26.683,26.683,0,0,1,2.759,4.663,6.125,6.125,0,0,1,.419,3.588c-.681,2.529-3.67,2.865-5.747,2.167a20.359,20.359,0,0,1-3.613-1.749c-1.117-.64-2.2-1.33-3.284-2.052-2.184-1.478-4.277-3.079-6.445-4.581a59.665,59.665,0,0,0-6.568-3.826.082.082,0,0,1,.041-.156Z" transform="translate(-74.753 -236.372)" fill="#263238"/>
        <path id="Path_15936" data-name="Path 15936" d="M223,385.535c-1.191-2.619-7.635-13.538-9.721-16.067a.066.066,0,0,1,.09-.09c3.588,3.4,9.343,12.422,10.673,15.312s2.857,6.511,2.857,9.688c0,4.8-3.186,5.747-4.359,5.952a6.206,6.206,0,0,1-4.105-.673,12.5,12.5,0,0,1-3.711-3.481c-.049-.066.041-.156.1-.09,1.642,1.9,4.433,3.76,7.036,3.416a4.335,4.335,0,0,0,2.972-1.6,5.673,5.673,0,0,0,.772-3.867A26.553,26.553,0,0,0,223,385.535Z" transform="translate(-74.751 -236.373)" fill="#263238"/>
        <path id="Path_15937" data-name="Path 15937" d="M117.859,351.521l22.233,46.8S53.13,417.843,45.626,402.7,71.9,328.319,87.112,311.062c17.644-20,19.893-13.193,16.01,4.532-4.105,18.555-11.929,45.386-11.929,45.386Z" transform="translate(-44.553 -223.755)" fill="#00a3b1"/>
        <path id="Path_15938" data-name="Path 15938" d="M117.859,351.521l22.233,46.8S53.13,417.843,45.626,402.7,71.9,328.319,87.112,311.062c17.644-20,19.893-13.193,16.01,4.532-4.105,18.555-11.929,45.386-11.929,45.386Z" transform="translate(-44.553 -223.755)" opacity="0.1"/>
        <path id="Path_15939" data-name="Path 15939" d="M69.166,386.366A98.092,98.092,0,0,1,95.3,373.485c2.635-.821,5.3-1.6,7.956-2.365.082,0,.115.107,0,.131a125.3,125.3,0,0,0-13.621,5.3Q82.991,379.511,76.5,382.7c-2.463,1.207-4.86,2.529-7.274,3.818a.1.1,0,0,1-.058-.156Z" transform="translate(-48.955 -236.687)" fill="#263238"/>
        <path id="Path_15940" data-name="Path 15940" d="M127.764,358.818c-.435.115-24.22,7.972-25,8.333.1-.361,4.368-13,5.008-14.861.057-.181.115-.369.181-.55.427-.821.87-1.642,1.273-2.463.509-1.076,1.018-2.168,1.519-3.284H110.7l-1.642,3.177c-.255.484-.493.985-.731,1.486.419-1.305.821-2.619,1.223-3.941.64-2.094,1.215-4.212,1.782-6.33,0-.074-.082-.09-.107,0-1.264,3.687-2.644,7.332-3.916,11.018s-6.166,17.241-6.125,17.241,26.19-9.245,26.7-9.45a.2.2,0,1,0-.115-.378Z" transform="translate(-54.688 -231.175)" fill="#263238"/>
        <path id="Path_15941" data-name="Path 15941" d="M132.847,394.685c-2.463-5.213-4.852-10.46-7.488-15.6-1.5-2.914-2.989-5.837-4.516-8.736-.057-.107-.254,0-.205.09,2.25,5.337,4.516,10.673,7.011,15.92s4.926,10.427,7.463,15.6q2.167,4.409,4.606,8.678c0,.058.131,0,.107,0C137.756,405.2,135.318,399.956,132.847,394.685Z" transform="translate(-58.17 -236.541)" fill="#263238"/>
        <path id="Path_15942" data-name="Path 15942" d="M143.142,419.754c-.87-1.445-1.97-3.514-2.9-4.926-.246-.369-.534-.3-.337.09.665,1.314,1.215,2.783,1.864,4.105-1.215.246-2.463.46-3.662.714-1.412.3-2.816.6-4.228.887l-8.309,1.642q-8.424,1.568-16.913,2.759a331.686,331.686,0,0,1-34.2,3.21c-3.2.115-6.412.172-9.614.131a92.74,92.74,0,0,1-9.458-.46.078.078,0,0,0,0,.156,52.445,52.445,0,0,0,8.21,1.067c2.9.14,5.8.206,8.711.173,5.747-.066,11.552-.444,17.307-.969,11.412-1.051,22.791-2.594,34.072-4.59q4.745-.821,9.466-1.781c1.593-.32,3.177-.641,4.762-.994S143.29,420,143.142,419.754Z" transform="translate(-46.478 -244.466)" fill="#263238"/>
        <path id="Path_15943" data-name="Path 15943" d="M141.281,307.04c-5.747,1.585-16.034-6.913-20.238-13.957-.287-.484.279-5.706.665-12.085.222-3.867.369-8.21.222-12.135,0-.821,24.983,5.107,24.983,5.107s-2.135,8.358-1.839,15.238a9.022,9.022,0,0,0,.23,1.642,1.893,1.893,0,0,1,.049.263C145.969,294.158,146.839,305.5,141.281,307.04Z" transform="translate(-58.23 -218.37)" fill="#ad6359"/>
        <path id="Path_15944" data-name="Path 15944" d="M124,269c1.4,6.634,6.141,22.6,19.359,22.414a15.748,15.748,0,0,0,2.529-.23,1.176,1.176,0,0,0,0-.271,10.677,10.677,0,0,1-.238-1.642c-.287-6.888,1.839-15.255,1.839-15.255S129.41,269.747,124,269Z" transform="translate(-58.773 -218.409)" fill="#263238"/>
        <path id="Path_15945" data-name="Path 15945" d="M156.2,252.152c-.279,6.059,3.81,11.166,9.13,11.412s9.852-4.483,10.123-10.542-3.818-11.166-9.13-11.4S156.468,246.093,156.2,252.152Z" transform="translate(-64.533 -213.506)" fill="#455a64"/>
        <ellipse id="Ellipse_353" data-name="Ellipse 353" cx="12.217" cy="10.722" rx="12.217" ry="10.722" transform="translate(87.966 51.086) rotate(-87.41)" fill="#c7c7c7"/>
        <path id="Path_15946" data-name="Path 15946" d="M125.4,228.324c-4.3,8.112-4.573,33.9.484,40.648,7.332,9.77,21.74,13.358,30.624,4.023,8.645-9.08,8.4-42.693,2.529-49.072C150.406,214.506,131.752,216.346,125.4,228.324Z" transform="translate(-58.438 -209.268)" fill="#ad6359"/>
        <path id="Path_15947" data-name="Path 15947" d="M151.836,254.867c0-.066-.14.09-.131.164.09,1.732-.09,3.736-1.642,4.343-.049,0-.041.107,0,.1C151.984,259.16,152.2,256.5,151.836,254.867Z" transform="translate(-63.432 -215.876)" fill="#263238"/>
        <path id="Path_15948" data-name="Path 15948" d="M149.816,252.709c-2.8-.148-2.89,5.46-.3,5.591S152.164,252.833,149.816,252.709Z" transform="translate(-63.004 -215.492)" fill="#263238"/>
        <path id="Path_15949" data-name="Path 15949" d="M164.039,255.127c0-.066.131.09.131.156-.082,1.74.115,3.744,1.642,4.343.049,0,0,.107,0,.1C163.916,259.42,163.678,256.76,164.039,255.127Z" transform="translate(-65.914 -215.923)" fill="#263238"/>
        <path id="Path_15950" data-name="Path 15950" d="M165.631,253c2.791-.173,2.923,5.435.328,5.591S163.283,253.1,165.631,253Z" transform="translate(-65.921 -215.544)" fill="#263238"/>
        <path id="Path_15951" data-name="Path 15951" d="M146.945,246.486a22.461,22.461,0,0,0,2.282-.328,3.711,3.711,0,0,0,2.258-.821,1.183,1.183,0,0,0,.082-1.445,2.931,2.931,0,0,0-2.849-.821,4.287,4.287,0,0,0-2.8,1.355,1.264,1.264,0,0,0,1.026,2.061Z" transform="translate(-62.645 -213.751)" fill="#263238"/>
        <path id="Path_15952" data-name="Path 15952" d="M168.215,247.177a21.175,21.175,0,0,1-2.217-.616,3.7,3.7,0,0,1-2.143-1.026,1.182,1.182,0,0,1,.09-1.445,2.955,2.955,0,0,1,2.939-.5,4.326,4.326,0,0,1,2.611,1.691,1.264,1.264,0,0,1-1.281,1.9Z" transform="translate(-65.87 -213.827)" fill="#263238"/>
        <path id="Path_15953" data-name="Path 15953" d="M148.332,274.473c.41.411.821.977,1.445,1.043a4.658,4.658,0,0,0,1.872-.411.066.066,0,0,1,.074.09,2.323,2.323,0,0,1-2.217.911,1.863,1.863,0,0,1-1.346-1.56C148.135,274.449,148.266,274.407,148.332,274.473Z" transform="translate(-63.096 -219.383)" fill="#263238"/>
        <path id="Path_15954" data-name="Path 15954" d="M150.692,264.1a5.9,5.9,0,0,0,3.9,2.693,7.389,7.389,0,0,0,2.126.139,3.272,3.272,0,0,0,.41-.041l.378-.057a.435.435,0,0,0,.361-.378h0a1.33,1.33,0,0,0,0-.181h0v-.156c.058-1.338,0-3.374,0-3.374.484.254,2.964,1.42,2.931.723-.246-5.8-.525-12.233-2-17.939a.164.164,0,0,0-.32,0c0,5.575,1.018,11.108,1.125,16.708a10.561,10.561,0,0,0-2.775-.895c-.189.058.254,3.933.181,4.532a.394.394,0,0,1,0,.066c-2.258.246-3.941-.46-6.092-2C150.725,263.849,150.585,263.956,150.692,264.1Z" transform="translate(-63.544 -214.185)" fill="#263238"/>
        <path id="Path_15955" data-name="Path 15955" d="M155.777,270.308a6.973,6.973,0,0,1-2.841,2.135,3.178,3.178,0,0,1-1.921.09c-1.379-.394-1.4-1.642-1.125-2.75a7.561,7.561,0,0,1,.648-1.642A9.1,9.1,0,0,0,155.777,270.308Z" transform="translate(-63.382 -218.255)" fill="#263238"/>
        <path id="Path_15956" data-name="Path 15956" d="M152.936,272.8a3.179,3.179,0,0,1-1.921.09c-1.379-.394-1.4-1.642-1.125-2.75A3.277,3.277,0,0,1,152.936,272.8Z" transform="translate(-63.382 -218.613)" fill="#ff98b9"/>
        <path id="Path_15957" data-name="Path 15957" d="M122.18,247.209c1.691-.271,5.747-5.993,7.463-8.268s2.709-14.466,2.865-17.241a18.265,18.265,0,0,0-7.11,7.274C123.477,232.62,122.369,239.787,122.18,247.209Z" transform="translate(-58.447 -209.942)" fill="#263238" opacity="0.2"/>
        <path id="Path_15958" data-name="Path 15958" d="M157.066,233.374a8.736,8.736,0,0,1-8.062,2.7,8.9,8.9,0,0,1-6.683-5.525c0-.09-.164-.041-.131.041a8.8,8.8,0,0,0,6.675,6.182,8.982,8.982,0,0,0,8.366-3.284.107.107,0,0,0-.164-.115Z" transform="translate(-62.028 -211.518)" fill="#263238"/>
        <path id="Path_15959" data-name="Path 15959" d="M147.31,207.38c-5.066-.049-9.795,2.6-11.757,5.985a9.8,9.8,0,0,0-1.15,6.355c0,.09.189.074.181,0a10.747,10.747,0,0,1,5.378-9.548,13.867,13.867,0,0,1,12.315-1.084,8.7,8.7,0,0,1,4.581,3.924c.1.189.476.082.4-.107C155.98,209.687,151.883,207.421,147.31,207.38Z" transform="translate(-60.614 -207.379)" fill="#263238"/>
        <path id="Path_15960" data-name="Path 15960" d="M182.3,220.149A11.191,11.191,0,0,0,177.733,214c-3.046-2.02-6.568-1.847-10.049-1.6a.074.074,0,0,0,0,.148c2.972-.2,6-.23,8.678,1.256a10.952,10.952,0,0,1,4.926,5.493,10.673,10.673,0,0,1-4.844,13.136,10.87,10.87,0,0,1-8.588.6c-.115-.041-.2.115-.09.164a10.928,10.928,0,0,0,14.548-13.046Z" transform="translate(-66.579 -208.252)" fill="#263238"/>
        <path id="Path_15961" data-name="Path 15961" d="M123.427,231.8s-4.483-9.22-.279-14.31c2.381-2.882,9.918-2.225,9.918-2.225a13.624,13.624,0,0,1,8.892-5.452c6.305-1.207,13.744,2.742,13.744,2.742s6.125-3.21,11.626.205c7.676,4.762,6.264,16.658-1.765,20.205-5.632,2.463-12.972-2.676-12.972-2.676-.731.074-8.3,4.261-13.653-2.545,0,0-4.7,3.875-8.678.895A6.568,6.568,0,0,1,123.427,231.8Z" transform="translate(-58.298 -207.773)" fill="#263238"/>
        <path id="Path_15962" data-name="Path 15962" d="M125.544,254.865s-4.261-9.031-8.276-7.685-1.79,13.842,2.233,16.191a4.45,4.45,0,0,0,6.281-1.338Z" transform="translate(-57.189 -214.478)" fill="#ad6359"/>
        <path id="Path_15963" data-name="Path 15963" d="M118.6,251.54c-.066,0-.1.082,0,.115,2.808,1.741,3.916,4.819,4.524,7.915-.7-1.273-1.823-2.093-3.5-1.289a.1.1,0,0,0,.049.181,2.75,2.75,0,0,1,2.808,1.453,13.482,13.482,0,0,1,1,2.644c.1.3.608.23.558-.1a.236.236,0,0,0,0-.074C124.729,258.552,122.669,252.648,118.6,251.54Z" transform="translate(-57.795 -215.283)" fill="#263238"/>
        <path id="Path_15964" data-name="Path 15964" d="M135.94,275.974l-8.087-3.489-6.5-8.1,1.248-1.01,6.256,7.792,7.726,3.333Z" transform="translate(-58.299 -217.403)" fill="#c7c7c7"/>
        <path id="Path_15965" data-name="Path 15965" d="M138.054,276.863c.821-2.356,7.389-1.486,6.2,2.077S137.257,279.2,138.054,276.863Z" transform="translate(-61.275 -219.58)" fill="#37474f"/>
        <path id="Path_15966" data-name="Path 15966" d="M117.561,240.039s-.878-13.243,3-20.525c4.319-8.136,22.217-15.878,34.483-7.134,0,0-19.926-3.563-29.212,7.717-3.908,4.746-3.81,20.312-3.81,20.312Z" transform="translate(-57.605 -207.583)" fill="#c7c7c7"/>
        <ellipse id="Ellipse_354" data-name="Ellipse 354" cx="10.722" cy="12.217" rx="10.722" ry="12.217" transform="matrix(1, -0.01, 0.01, 1, 50.799, 27.15)" fill="#c7c7c7"/>
        <path id="Path_15967" data-name="Path 15967" d="M124.679,252.267c.057,6.067-4.2,11.026-9.524,11.075s-9.688-4.819-9.745-10.887,4.2-11.026,9.524-11.076S124.622,246.2,124.679,252.267Z" transform="translate(-55.445 -213.465)" fill="#455a64"/>
        <path id="Path_15968" data-name="Path 15968" d="M144.2,294.66l-5.788,14.614L120.207,290.9l-5.107,5.944s17.857,29.236,17.964,27.914l5.952-12.6,8.719,8.711-.821-21.954Z" transform="translate(-57.18 -222.328)" fill="#ebebeb"/>
        <path id="Path_15969" data-name="Path 15969" d="M147.859,311.283c-.254-3.621-.4-7.274-.821-10.878a.124.124,0,0,0-.246,0c-.706,3.506.337,17.34.337,20.665h-.041c-.361-.378-8.079-7.66-8.153-7.545-1.289,2-5.665,11.174-5.961,12.011-2.824-4.647-14.778-22.947-18.144-27.34a.123.123,0,0,0-.213.123c2.463,4.926,17.98,29.072,18.194,29.006a143.345,143.345,0,0,0,6.232-13.317c1.305,1.585,9.089,9.811,9.113,9.269A113.288,113.288,0,0,0,147.859,311.283Z" transform="translate(-57.09 -223.623)" fill="#263238"/>
      </g>
      <g id="freepik--call-button--inject-5" transform="translate(262.593 157.555)">
        <path id="Path_15970" data-name="Path 15970" d="M385.28,244.631H359.886a9.294,9.294,0,0,1-9.286-9.286h0a9.286,9.286,0,0,1,9.286-9.286H385.28a9.286,9.286,0,0,1,9.286,9.286h0A9.286,9.286,0,0,1,385.28,244.631Z" transform="translate(-350.6 -226.06)" fill="#455a64"/>
        <g id="freepik--IaQ7Yo--inject-5" transform="translate(14.829 5.761)">
          <path id="Path_15971" data-name="Path 15971" d="M368.67,236.438a1.644,1.644,0,0,1,.279-.821l.23-.337.484-.484.567-.41a7.028,7.028,0,0,1,2.562-.993,16.271,16.271,0,0,1,6.363,0,6.847,6.847,0,0,1,2.529.977c.2.131.394.279.583.419l.476.476a6.279,6.279,0,0,1,.345.558,4.366,4.366,0,0,1,.2.607h-4.163a.147.147,0,0,1-.156-.09,1.413,1.413,0,0,0-1.191-.764,28.279,28.279,0,0,0-3.637,0,1.4,1.4,0,0,0-1.182.755c0,.058-.057.1-.14.1H368.67Z" transform="translate(-368.663 -233.078)" fill="#fff"/>
          <path id="Path_15972" data-name="Path 15972" d="M368.669,239.669V238.15h4.1v1.519a.46.46,0,0,1-.525.525h-3.062a.452.452,0,0,1-.517-.525Z" transform="translate(-368.662 -233.985)" fill="#fff"/>
          <path id="Path_15973" data-name="Path 15973" d="M381.44,239.723V238.18H385.5v1.527a.46.46,0,0,1-.509.509H381.9a.443.443,0,0,1-.46-.493Z" transform="translate(-370.948 -233.991)" fill="#fff"/>
        </g>
      </g>
      <g id="freepik--Device--inject-5" transform="translate(126.582 238.376)">
        <rect id="Rectangle_6796" data-name="Rectangle 6796" width="5.632" height="3.678" transform="translate(60.872 94.006)" fill="#455a64"/>
        <rect id="Rectangle_6797" data-name="Rectangle 6797" width="5.632" height="3.678" transform="translate(68.171 93.76)" fill="#455a64"/>
        <rect id="Rectangle_6798" data-name="Rectangle 6798" width="5.632" height="3.678" transform="translate(75.478 93.513)" fill="#455a64"/>
        <rect id="Rectangle_6799" data-name="Rectangle 6799" width="5.632" height="3.678" transform="translate(82.785 93.275)" fill="#455a64"/>
        <rect id="Rectangle_6800" data-name="Rectangle 6800" width="5.632" height="3.678" transform="translate(90.092 93.029)" fill="#455a64"/>
        <rect id="Rectangle_6801" data-name="Rectangle 6801" width="5.632" height="3.678" transform="translate(97.399 92.791)" fill="#455a64"/>
        <rect id="Rectangle_6802" data-name="Rectangle 6802" width="5.632" height="3.678" transform="translate(104.706 92.545)" fill="#455a64"/>
        <rect id="Rectangle_6803" data-name="Rectangle 6803" width="5.632" height="3.678" transform="translate(112.013 92.298)" fill="#455a64"/>
        <rect id="Rectangle_6804" data-name="Rectangle 6804" width="5.632" height="3.678" transform="translate(119.312 92.06)" fill="#455a64"/>
        <path id="Path_15974" data-name="Path 15974" d="M324.237,444.668H257.39v-4.474l66.847-1.864Z" transform="translate(-197.906 -344.874)" fill="#37474f"/>
        <path id="Path_15975" data-name="Path 15975" d="M394.214,406.65H283.87l17.545-82.15H411.759Z" transform="translate(-202.645 -324.5)" fill="#455a64"/>
        <path id="Path_15976" data-name="Path 15976" d="M399.184,406.65H288.84l17.545-82.15H416.729Z" transform="translate(-203.535 -324.5)" fill="#37474f"/>
        <ellipse id="Ellipse_355" data-name="Ellipse 355" cx="7.381" cy="6.305" rx="7.381" ry="6.305" transform="matrix(0.734, -0.679, 0.679, 0.734, 142.264, 36.677)" fill="#263238"/>
        <path id="Path_15977" data-name="Path 15977" d="M373.4,449.389H319.13v-4.22L373.4,443.42Z" transform="translate(-208.956 -345.785)" fill="#455a64"/>
        <path id="Path_15978" data-name="Path 15978" d="M393.021,440.644H363.883L346.33,394.61h29.137Z" transform="translate(-213.825 -337.049)" fill="#455a64"/>
        <path id="Path_15979" data-name="Path 15979" d="M398.863,440.644H369.725L352.18,394.61h29.138Z" transform="translate(-214.872 -337.049)" fill="#263238"/>
        <path id="Path_15980" data-name="Path 15980" d="M242.361,447.753H186.409c-4.77,0,2.135-13.6,19.565-18.809S247.862,442.655,242.361,447.753Z" transform="translate(-184.938 -343.033)" fill="#37474f"/>
        <path id="Path_15981" data-name="Path 15981" d="M228.14,448.8a16.977,16.977,0,0,1,.764-4.565,19.132,19.132,0,0,1,1.88-4.261,15.5,15.5,0,0,1,2.972-3.6,13.137,13.137,0,0,1,3.933-2.463c-.6.493-1.281.821-1.831,1.371l-.821.731-.821.821a19.5,19.5,0,0,0-2.709,3.571,26.821,26.821,0,0,0-1.987,4.047A33.881,33.881,0,0,0,228.14,448.8Z" transform="translate(-192.67 -344.083)" fill="#263238"/>
        <path id="Path_15982" data-name="Path 15982" d="M236.21,436.29a35.945,35.945,0,0,1,9.335,4.688,20.122,20.122,0,0,1,3.9,3.53,11.989,11.989,0,0,1,1.437,2.225,6.452,6.452,0,0,1,.657,2.537,7.3,7.3,0,0,0-1.01-2.348,11.774,11.774,0,0,0-1.56-1.995,27.712,27.712,0,0,0-3.9-3.284c-1.388-1-2.857-1.9-4.327-2.783-.739-.443-1.494-.87-2.25-1.281S236.974,436.709,236.21,436.29Z" transform="translate(-194.115 -344.509)" fill="#263238"/>
      </g>
      <g id="freepik--speech-bubbles--inject-5" transform="translate(133.201)">
        <path id="Path_15983" data-name="Path 15983" d="M247.99,218.906A24.852,24.852,0,0,1,206.455,234.6L194,236.451l6.223-10.747a24.859,24.859,0,1,1,47.742-6.8Z" transform="translate(-193.179 -62.311)" fill="#fff"/>
        <path id="Path_15984" data-name="Path 15984" d="M247.811,218.856a24.982,24.982,0,0,1-5.016,12.6,28.123,28.123,0,0,1-2.25,2.594,29.3,29.3,0,0,1-2.627,2.217,24.248,24.248,0,0,1-5.993,3.341,24.713,24.713,0,0,1-6.691,1.593,23.162,23.162,0,0,1-3.456.066,21.929,21.929,0,0,1-3.44-.353,25.123,25.123,0,0,1-12.315-6.075l.3.09L193.9,236.844l-.895.164.452-.821,6.19-10.78v.427a25.107,25.107,0,1,1,48.193-6.979Zm0,0a24.635,24.635,0,0,0-38.456-22.849,25.74,25.74,0,0,0-7.438,8.112,24.633,24.633,0,0,0-3.169,10.525,24.929,24.929,0,0,0,1.765,10.87l.09.222-.123.2-6.256,10.731-.443-.657,12.447-1.741h.172l.123.115a24.508,24.508,0,0,0,11.9,6.133,22.044,22.044,0,0,0,3.374.411,24.725,24.725,0,0,0,3.4,0,24.3,24.3,0,0,0,6.642-1.461,23.238,23.238,0,0,0,5.993-3.226,30.482,30.482,0,0,0,2.627-2.192,27.933,27.933,0,0,0,2.258-2.57,24.95,24.95,0,0,0,5.09-12.619Z" transform="translate(-193 -62.261)" fill="#263238"/>
        <path id="Path_15985" data-name="Path 15985" d="M245.216,222a3,3,0,1,1-.883-2.128A3.013,3.013,0,0,1,245.216,222Z" transform="translate(-201.267 -67.241)" fill="#263238"/>
        <path id="Path_15986" data-name="Path 15986" d="M232.076,222a3.013,3.013,0,1,1-3-3A3.013,3.013,0,0,1,232.076,222Z" transform="translate(-198.916 -67.241)" fill="#263238"/>
        <path id="Path_15987" data-name="Path 15987" d="M218.946,222.005A3.013,3.013,0,1,1,215.933,219,3.013,3.013,0,0,1,218.946,222.005Z" transform="translate(-196.565 -67.241)" fill="#263238"/>
        <path id="Path_15988" data-name="Path 15988" d="M272.561,61.884A24.86,24.86,0,0,0,314.1,77.59l12.43,1.823-6.215-10.747a24.86,24.86,0,1,0-47.75-6.8Z" transform="translate(-207.216 -34.205)" fill="#fff"/>
        <path id="Path_15989" data-name="Path 15989" d="M280,41.3a24.811,24.811,0,0,1,20.813-6.913,25.1,25.1,0,0,1,19.926,34.425v-.427l6.174,10.8.452.821-.895-.14-12.43-1.9.3-.09a25.125,25.125,0,0,1-12.315,6.076,21.913,21.913,0,0,1-3.44.353,24.172,24.172,0,0,1-3.448-.066,25.056,25.056,0,0,1-12.693-4.926,29.273,29.273,0,0,1-2.627-2.217,29.247,29.247,0,0,1-2.25-2.594,25.017,25.017,0,0,1,2.422-33.136Zm-2.348,33.079a22.374,22.374,0,0,0,4.885,4.754,22.933,22.933,0,0,0,6,3.235,24.549,24.549,0,0,0,6.634,1.461,24.847,24.847,0,0,0,3.407,0,22.043,22.043,0,0,0,3.366-.411,24.507,24.507,0,0,0,11.9-6.133l.123-.115h.172l12.447,1.741-.443.657-6.256-10.731-.123-.205.09-.222a24.524,24.524,0,0,0-1.4-21.346,25.649,25.649,0,0,0-7.438-8.112,24.6,24.6,0,0,0-33.366,35.394Z" transform="translate(-207.213 -34.156)" fill="#263238"/>
        <path id="Path_15990" data-name="Path 15990" d="M302.925,64.1v3.1a2.291,2.291,0,0,1-2.34,2.34,2.348,2.348,0,0,1-2.34-2.34V62.28c0-.049.049-.049.049-.1s-.049-.049-.049-.09a2.4,2.4,0,0,1,2.34-2.34,5.353,5.353,0,1,0,0-10.673A5.27,5.27,0,0,0,296,51.706a2.373,2.373,0,0,1-3.284.821,2.331,2.331,0,0,1-.821-3.2A10.033,10.033,0,1,1,302.876,64.1Zm0,10.451v.821a2.283,2.283,0,0,1-2.34,2.34,2.34,2.34,0,0,1-2.34-2.34v-.821a2.373,2.373,0,0,1,2.34-2.34,2.315,2.315,0,0,1,2.34,2.34Z" transform="translate(-210.643 -35.972)" fill="#00a3b1"/>
      </g>
    </g>
  </g>
</svg>
