<svg xmlns="http://www.w3.org/2000/svg" width="34" height="36" viewBox="0 0 34 36">
  <g id="feature_icon" transform="translate(-241.5 -1785.5)">
    <g id="Rectangle_8266" data-name="Rectangle 8266" transform="translate(241.5 1787.5)" fill="#fff" stroke="#707070" stroke-width="1" opacity="0">
      <rect width="34" height="34" stroke="none"/>
      <rect x="0.5" y="0.5" width="33" height="33" fill="none"/>
    </g>
    <g id="stethoscope" transform="translate(241.5 1785.5)">
      <g id="Group_16591" data-name="Group 16591" transform="translate(2 1.494)">
        <path id="Path_26963" data-name="Path 26963" d="M10.216,18.926A8.225,8.225,0,0,1,2,10.71V3.241A2.244,2.244,0,0,1,4.241,1H5.735a.747.747,0,1,1,0,1.494H4.241a.747.747,0,0,0-.747.747V10.71a6.722,6.722,0,0,0,13.445,0V3.241a.747.747,0,0,0-.747-.747H14.7A.747.747,0,0,1,14.7,1h1.494a2.244,2.244,0,0,1,2.241,2.241V10.71A8.225,8.225,0,0,1,10.216,18.926Z" transform="translate(-2 -1)" fill="#00a0ae"/>
      </g>
      <g id="Group_16592" data-name="Group 16592" transform="translate(4.988)">
        <path id="Path_26964" data-name="Path 26964" d="M4.747,4.482A.747.747,0,0,1,4,3.735V.747a.747.747,0,0,1,1.494,0V3.735A.747.747,0,0,1,4.747,4.482Z" transform="translate(-4)" fill="#00a0ae"/>
      </g>
      <g id="Group_16593" data-name="Group 16593" transform="translate(13.301)">
        <path id="Path_26965" data-name="Path 26965" d="M10.747,4.482A.747.747,0,0,1,10,3.735V.747a.747.747,0,1,1,1.494,0V3.735A.747.747,0,0,1,10.747,4.482Z" transform="translate(-10)" fill="#00a0ae"/>
      </g>
      <g id="Group_16594" data-name="Group 16594" transform="translate(9.925 18.074)">
        <path id="Path_26966" data-name="Path 26966" d="M16.71,29.926A9.721,9.721,0,0,1,7,20.216V12.747a.747.747,0,1,1,1.494,0v7.469a8.216,8.216,0,1,0,16.433,0V17.229a.747.747,0,1,1,1.494,0v2.988A9.721,9.721,0,0,1,16.71,29.926Z" transform="translate(-7 -12)" fill="#00a0ae"/>
      </g>
      <g id="Group_16595" data-name="Group 16595" transform="translate(24.864 17.36)">
        <path id="Path_26967" data-name="Path 26967" d="M20.735,18.469a3.735,3.735,0,1,1,3.735-3.735A3.74,3.74,0,0,1,20.735,18.469Zm0-5.975a2.241,2.241,0,1,0,2.241,2.241A2.244,2.244,0,0,0,20.735,12.494Z" transform="translate(-17 -11)" fill="#00a0ae"/>
      </g>
    </g>
  </g>
</svg>
