<svg id="fi-rr-calendar" xmlns="http://www.w3.org/2000/svg" width="32" height="32" viewBox="0 0 32 32">
  <path id="Path_26889" data-name="Path 26889" d="M25.333,2.667H24V1.333a1.333,1.333,0,1,0-2.667,0V2.667H10.667V1.333A1.333,1.333,0,0,0,8,1.333V2.667H6.667A6.675,6.675,0,0,0,0,9.333v16A6.675,6.675,0,0,0,6.667,32H25.333A6.675,6.675,0,0,0,32,25.333v-16A6.675,6.675,0,0,0,25.333,2.667ZM2.667,9.333a4,4,0,0,1,4-4H25.333a4,4,0,0,1,4,4v1.333H2.667Zm22.667,20H6.667a4,4,0,0,1-4-4v-12H29.333v12A4,4,0,0,1,25.333,29.333Z" fill="#00a3b1"/>
  <circle id="Ellipse_519" data-name="Ellipse 519" cx="2" cy="2" r="2" transform="translate(14 18)" fill="#00a3b1"/>
  <circle id="Ellipse_520" data-name="Ellipse 520" cx="2" cy="2" r="2" transform="translate(7.333 18)" fill="#00a3b1"/>
  <circle id="Ellipse_521" data-name="Ellipse 521" cx="2" cy="2" r="2" transform="translate(20.667 18)" fill="#00a3b1"/>
</svg>
