<svg id="filter_icon" xmlns="http://www.w3.org/2000/svg" width="24" height="24" viewBox="0 0 24 24">
  <path id="Path_26876" data-name="Path 26876" d="M0,0H24V24H0Z" fill="none"/>
  <path id="filter" d="M11.834,20a.833.833,0,0,1-.5-.167L8,17.333a.833.833,0,0,1-.333-.667V11.983L1.82,5.406A3.25,3.25,0,0,1,4.25,0H16.084a3.25,3.25,0,0,1,2.427,5.407l-5.844,6.577v7.183A.833.833,0,0,1,11.834,20Zm-2.5-3.75L11,17.5V11.667a.833.833,0,0,1,.211-.553L17.268,4.3a1.583,1.583,0,0,0-1.184-2.632H4.25A1.583,1.583,0,0,0,3.066,4.3l6.057,6.815a.833.833,0,0,1,.21.553Z" transform="translate(1.998 2)" fill="#e27e2b"/>
</svg>
