<svg xmlns="http://www.w3.org/2000/svg" width="400" height="400" viewBox="0 0 400 400" fill="none"><path opacity="0.9" d="M371.888 221.912C360.104 253.456 336.04 287.6 302.176 297.712C250.976 312.992 244.896 354.232 153.248 350.408C139.861 349.915 126.566 347.968 113.6 344.6C107.27 342.927 101.053 340.856 94.984 338.4C41.44 316.712 13.512 268.984 11.2 219.048C8.14403 153.36 53.968 122.056 83.752 103.728C113.536 85.4 149.432 14.4 239.552 17.416C253.314 17.8289 266.983 19.8261 280.288 23.368C310.616 31.576 341.44 49.728 359.36 76.264C360.704 78.264 361.989 80.3013 363.216 82.376C387.2 123.056 387.944 178.904 371.888 221.912Z" fill="url(#paint0_linear_601:7527)"></path><path d="M362.656 254.832C362.656 254.832 364.256 247.112 361.464 243.288C358.672 239.464 353.584 243.288 354.264 248.088C354.944 252.888 362.656 254.832 362.656 254.832Z" fill="#00A0AD"></path><path d="M350.176 288.68C350.176 288.68 352.624 276.68 348.312 270.688C344 264.696 336.04 270.688 337.112 278.144C338.184 285.6 350.176 288.68 350.176 288.68Z" fill="#00A0AD"></path><path d="M345.544 308.112C345.544 308.112 345.44 295.832 339.984 290.896C334.528 285.96 327.984 293.432 330.584 300.496C333.184 307.56 345.544 308.112 345.544 308.112Z" fill="#00A0AD"></path><path d="M356.888 319.536C349.56 320.184 342.08 329.936 342.08 329.936C342.08 329.936 352.232 336.976 358.592 332.896C364.952 328.816 364.216 318.88 356.888 319.536Z" fill="#00A0AD"></path><path d="M357.408 338.072C346.928 339.008 336.224 352.936 336.224 352.936C336.224 352.936 350.752 363 359.848 357.16C368.944 351.32 367.896 337.136 357.408 338.072Z" fill="#00A0AD"></path><path d="M341.264 330.008H341.776C341.776 330.008 341.776 329.424 341.704 328.456C342.992 323.936 344.408 318.224 346.096 311.408C346.328 310.48 346.56 309.528 346.8 308.568C349.472 310.168 357.2 314.248 362.36 310.912C368.72 306.832 367.96 296.912 360.664 297.568C355.36 298.048 349.984 303.264 347.408 306.12C348.488 301.792 349.664 297.144 350.944 292.272C351.16 291.472 351.4 290.6 351.656 289.712C354.216 292.032 360.544 296.992 366.056 294.92C373.128 292.248 374.472 282.392 367.168 281.512C361.904 280.872 355.592 284.832 352.464 287.112C354.064 282.016 356.12 276.144 358.28 270.368C359.832 271.8 364.008 275.168 367.624 273.816C372.152 272.096 373.016 265.816 368.328 265.208C364.92 264.8 360.832 267.384 358.848 268.832C360.584 264.232 362.344 259.736 363.928 255.776C365.72 257.336 369.528 260.104 372.856 258.848C377.392 257.136 378.256 250.848 373.568 250.248C370.592 249.888 367.088 251.848 364.928 253.272C367.248 247.528 369.032 243.296 369.496 242.192C371.36 241.216 376.992 238.136 378.088 236.056C378.403 235.462 378.598 234.813 378.662 234.144C378.726 233.475 378.658 232.8 378.461 232.157C378.264 231.514 377.943 230.917 377.515 230.399C377.087 229.88 376.561 229.451 375.968 229.136C375.374 228.821 374.724 228.626 374.055 228.562C373.386 228.498 372.711 228.566 372.069 228.763C371.426 228.96 370.829 229.281 370.31 229.709C369.792 230.137 369.363 230.662 369.048 231.256C367.992 233.256 368.52 239.216 368.784 241.544L368.48 241.416C368.424 241.552 366.08 247.016 363.04 254.648L362.888 254.776L362.96 254.856C361.312 258.968 359.464 263.656 357.648 268.52C357.96 266.168 358.328 261.104 356.248 258.232C353.488 254.408 348.376 258.232 349.048 263.032C349.664 267.32 355.872 269.344 357.176 269.72C354.776 276.224 352.376 282.848 350.776 288.4L350.504 288.616C350.504 288.616 350.56 288.68 350.664 288.776C350.328 289.896 350.032 290.968 349.76 291.976C347.936 298.904 346.328 305.4 344.912 311.128C343.576 316.496 342.416 321.176 341.36 325.128C340.784 321.128 339.424 315.712 336.224 312.808C330.768 307.872 324.224 315.344 326.824 322.408C328.824 327.832 336.52 329.4 340.024 329.84L339.424 331.776C338.624 334.232 337.096 341.04 335.496 348.576C334.904 342.88 333.136 333.264 327.84 328.48C320.04 321.416 310.656 332.104 314.4 342.248C317.536 350.76 330.488 352.648 334.56 353.016C332.368 363.472 330.312 373.864 330.16 374.664L331.368 374.904C331.44 374.536 338.568 338.424 340.592 332.2C340.8 331.504 341.032 330.776 341.264 330.008Z" fill="#00A0AD"></path><path d="M154.616 132.592C154.616 132.592 150.968 124.68 146.2 123.648C141.432 122.616 139.6 130.048 143.264 133.624C146.928 137.2 154.616 132.592 154.616 132.592Z" fill="#00A0AD"></path><path d="M165.928 171.848C165.928 171.848 160.24 159.52 152.8 157.912C145.36 156.304 142.512 167.912 148.224 173.448C153.936 178.984 165.928 171.848 165.928 171.848Z" fill="#00A0AD"></path><path d="M174.544 192.32C174.544 192.32 166.544 181.856 158.832 182.064C151.12 182.272 150.408 194.064 157.152 198C163.896 201.936 174.544 192.32 174.544 192.32Z" fill="#00A0AD"></path><path d="M191.376 192.88C185.672 199.416 185.664 213.88 185.664 213.88C185.664 213.88 198.68 211.648 201.376 202.952C204.072 194.256 197.088 186.336 191.376 192.88Z" fill="#00A0AD"></path><path d="M203.728 208.376C195.568 217.736 195.56 238.424 195.56 238.424C195.56 238.424 214.184 235.224 218.04 222.792C221.896 210.36 211.896 199.024 203.728 208.376Z" fill="#00A0AD"></path><path d="M185.032 214.624L185.488 214.232C185.488 214.232 185.104 213.736 184.432 212.96C182.6 208.016 180.12 201.96 177.144 194.728L175.912 191.712C179.184 190.912 188.24 188.128 190.44 181.04C193.136 172.344 186.144 164.424 180.44 170.96C176.312 175.688 175.168 184.56 174.84 189.112C172.96 184.512 170.952 179.56 168.896 174.336C168.552 173.456 168.2 172.528 167.848 171.56C171.472 171.464 179.96 170.56 183.216 164.296C187.416 156.24 182.208 146.696 175.528 151.88C170.728 155.624 167.976 164.168 166.816 168.68C164.864 163.008 162.816 156.28 160.912 149.552C163.128 149.552 168.8 149.008 170.944 144.896C173.64 139.72 170.296 133.584 166.016 136.896C162.896 139.296 161.136 144.896 160.416 147.744C158.904 142.376 157.488 137.08 156.272 132.384C158.776 132.264 163.744 131.536 165.72 127.744C168.408 122.568 165.064 116.44 160.784 119.744C158.064 121.864 156.376 126.376 155.504 129.384C153.744 122.56 152.52 117.472 152.2 116.144C153.128 113.784 155.864 106.544 155.448 103.864C154.944 100.664 152.16 98.76 149.216 99.656C147.716 100.202 146.454 101.254 145.648 102.632C144.842 104.009 144.542 105.625 144.8 107.2C145.2 109.776 149.48 114.464 151.2 116.256L150.864 116.392C150.904 116.552 152.464 123.16 154.864 132.192C154.864 132.336 154.816 132.432 154.816 132.432H154.928C156.192 137.312 157.68 142.88 159.264 148.512C158.016 146.24 155.064 141.584 151.48 140.808C146.68 139.776 144.888 147.208 148.552 150.776C151.832 153.976 158.32 150.632 159.656 149.896C161.8 157.456 164.112 165.048 166.296 171.16C166.24 171.424 166.216 171.576 166.216 171.576H166.4C166.84 172.808 167.28 173.976 167.704 175.064C170.632 182.496 173.456 189.392 175.952 195.472C178.296 201.176 180.328 206.136 181.984 210.392C178.936 207.44 174.312 203.88 169.768 203.992C162.032 204.2 161.344 215.992 168.088 219.928C173.256 222.96 180.696 218.024 183.912 215.544C184.176 216.296 184.424 217.016 184.648 217.704C185.568 220.456 188.648 227.56 192.144 235.304C187.984 230.896 180.32 224.104 172.816 224.28C161.752 224.576 160.768 241.416 170.416 247.08C178.52 251.832 190.56 242.872 194.208 239.88C199.104 250.656 204.064 261.256 204.44 262.072L205.608 261.272C205.432 260.904 188.2 224.056 185.88 217.064C185.6 216.28 185.336 215.472 185.032 214.624Z" fill="#00A0AD"></path><path d="M150.92 272.728C150.92 272.728 146.92 266.616 142.872 266.328C138.824 266.04 138.184 272.432 141.648 274.936C145.112 277.44 150.92 272.728 150.92 272.728Z" fill="#00A0AD"></path><path d="M165.024 303.84C165.024 303.84 158.832 294.328 152.48 293.896C146.128 293.464 145.176 303.416 150.576 307.304C155.976 311.192 165.024 303.84 165.024 303.84Z" fill="#00A0AD"></path><path d="M174.632 319.736C174.632 319.736 166.76 312.048 160.384 313.152C154.008 314.256 154.864 324.088 160.928 326.544C166.992 329 174.632 319.736 174.632 319.736Z" fill="#00A0AD"></path><path d="M188.632 318.168C184.696 324.272 186.44 336.24 186.44 336.24C186.44 336.24 196.944 332.816 198.12 325.296C199.296 317.776 192.56 312.064 188.632 318.168Z" fill="#00A0AD"></path><path d="M200.728 329.496C195.128 338.232 197.6 355.352 197.6 355.352C197.6 355.352 212.624 350.456 214.312 339.696C216 328.936 206.352 320.8 200.728 329.496Z" fill="#00A0AD"></path><path d="M186.008 336.928L186.336 336.552C186.336 336.552 185.96 336.184 185.304 335.624C183.2 331.76 180.408 327.048 177.08 321.416L175.688 319.072C178.296 318.024 185.456 314.616 186.416 308.48C187.6 300.96 180.816 295.256 176.928 301.352C174.08 305.768 174.208 313.248 174.528 317.048C172.416 313.472 170.152 309.616 167.824 305.544C167.432 304.856 167.024 304.128 166.616 303.368C169.608 302.856 176.52 301.08 178.456 295.504C180.96 288.304 175.488 281.048 170.592 286.152C167.064 289.832 165.832 297.24 165.416 301.096C163.112 296.64 160.616 291.32 158.216 285.984C160.048 285.688 164.68 284.584 165.952 280.912C167.552 276.312 164.048 271.64 160.904 274.912C158.624 277.312 157.84 282.112 157.576 284.568C155.68 280.312 153.872 276.096 152.288 272.36C154.352 271.96 158.376 270.76 159.552 267.376C161.152 262.768 157.64 258.096 154.504 261.376C152.504 263.456 151.656 267.4 151.304 270C149.032 264.56 147.392 260.496 146.976 259.44C147.456 257.376 148.84 251.048 148.176 248.88C147.376 246.272 144.832 245.056 142.512 246.16C141.348 246.788 140.438 247.8 139.936 249.024C139.434 250.248 139.372 251.608 139.76 252.872C140.4 254.952 144.512 258.32 146.16 259.592L145.896 259.744C145.952 259.872 148.056 265.152 151.088 272.344C151.088 272.464 151.088 272.544 151.088 272.544H151.184C152.824 276.424 154.72 280.848 156.712 285.344C155.408 283.616 152.408 280.12 149.344 279.912C145.272 279.64 144.664 286.024 148.128 288.52C151.224 290.752 156.192 287.216 157.208 286.44C159.896 292.448 162.728 298.44 165.272 303.24C165.272 303.464 165.272 303.592 165.272 303.592H165.464C165.984 304.552 166.48 305.464 166.968 306.312C170.288 312.112 173.464 317.512 176.264 322.208C178.888 326.64 181.176 330.504 183.056 333.824C180.176 331.752 175.92 329.368 172.176 330.016C165.776 331.12 166.656 340.944 172.72 343.408C177.352 345.288 182.92 340.304 185.272 337.864C185.584 338.448 185.88 339.016 186.152 339.56C187.24 341.728 190.664 347.232 194.48 353.216C190.48 350.064 183.344 345.352 177.152 346.432C168.032 348.032 169.256 362.064 177.952 365.584C185.232 368.536 194.104 359.672 196.768 356.784C202.12 365.104 207.504 373.28 207.92 373.904L208.784 373.104C208.6 372.816 189.88 344.408 187.112 338.904C186.696 338.232 186.4 337.6 186.008 336.928Z" fill="#00A0AD"></path><path d="M363 120.952C363 120.952 364.56 113.84 361.896 110.744C359.232 107.648 354.256 111.696 354.912 115.912C355.568 120.128 363 120.952 363 120.952Z" fill="#00A0AD"></path><path d="M350.76 152.848C350.76 152.848 353.16 141.752 349.032 136.928C344.904 132.104 337.128 138.416 338.144 145C339.16 151.584 350.76 152.848 350.76 152.848Z" fill="#00A0AD"></path><path d="M346.184 170.848C346.184 170.848 346.136 159.848 340.872 156.088C335.608 152.328 329.208 159.832 331.712 165.872C334.216 171.912 346.184 170.848 346.184 170.848Z" fill="#00A0AD"></path><path d="M357.136 179.712C350.024 181.2 342.736 190.848 342.736 190.848C342.736 190.848 352.552 195.92 358.736 191.48C364.92 187.04 364.24 178.232 357.136 179.712Z" fill="#00A0AD"></path><path d="M357.6 196.288C347.432 198.408 337 212.216 337 212.216C337 212.216 351.04 219.472 359.88 213.12C368.72 206.768 367.728 194.16 357.6 196.288Z" fill="#00A0AD"></path><path d="M341.936 191.024H342.432C342.432 191.024 342.432 190.496 342.376 189.64C343.64 185.424 345.04 180.128 346.704 173.808C346.939 172.944 347.171 172.064 347.4 171.168C349.984 172.288 357.44 174.992 362.48 171.368C368.656 166.928 367.992 158.12 360.88 159.608C355.736 160.68 350.48 166.008 347.992 168.896C349.056 164.896 350.216 160.568 351.48 156.04C351.696 155.28 351.928 154.48 352.184 153.64C354.648 155.408 360.768 159.088 366.096 156.552C372.96 153.288 374.304 144.28 367.232 144.384C362.136 144.456 355.992 148.776 352.952 151.192C354.504 146.392 356.544 140.904 358.656 135.448C360.16 136.544 364.192 139.072 367.704 137.4C372.104 135.312 372.968 129.536 368.432 129.6C365.128 129.648 361.152 132.464 359.224 134.008C360.92 129.664 362.648 125.416 364.2 121.664C365.936 122.856 369.616 124.864 372.84 123.336C377.248 121.24 378.112 115.464 373.568 115.528C370.688 115.568 367.288 117.728 365.184 119.304C367.456 113.864 369.184 109.848 369.656 108.8C371.464 107.696 376.944 104.24 378.016 102.24C379.312 99.84 378.4 97.176 375.984 96.296C374.717 95.9112 373.357 95.9758 372.132 96.4787C370.908 96.9816 369.895 97.8921 369.264 99.056C368.24 100.976 368.728 106.256 368.968 108.32L368.672 108.24C368.616 108.368 366.336 113.576 363.344 120.784L363.2 120.912L363.264 120.976C361.664 124.864 359.84 129.328 358.056 133.888C358.368 131.744 358.744 127.152 356.744 124.824C354.088 121.728 349.112 125.776 349.76 130C350.352 133.776 356.352 134.8 357.616 135.008C355.216 141.136 352.952 147.368 351.32 152.544L351.064 152.784L351.208 152.904C350.888 153.944 350.592 154.944 350.328 155.888C348.528 162.288 346.944 168.352 345.528 173.672C344.216 178.648 343.072 182.992 342.024 186.664C341.488 183.152 340.192 178.448 337.104 176.264C331.84 172.504 325.44 180.008 327.944 186.048C329.864 190.672 337.32 191.136 340.744 191.104C340.544 191.736 340.344 192.336 340.152 192.912C339.352 195.216 337.856 201.512 336.28 208.432C335.728 203.392 334.048 194.984 328.944 191.336C321.408 185.952 312.264 196.688 315.848 205.336C318.856 212.592 331.4 212.68 335.352 212.536C333.184 222.192 331.144 231.736 330.992 232.496L332.16 232.568C332.232 232.232 339.312 198.968 341.288 193.12C341.488 192.424 341.712 191.744 341.936 191.024Z" fill="#00A0AD"></path><path d="M27.0181 147.312L18.9062 155.727L35.8394 172.05L43.9512 163.635L27.0181 147.312Z" fill="#00A0AD" stroke="#333333" stroke-linecap="round" stroke-linejoin="round"></path><path d="M27.07 149.829L21.4233 155.686L35.7819 169.528L41.4286 163.67L27.07 149.829Z" fill="white" stroke="#333333" stroke-linecap="round" stroke-linejoin="round"></path><path d="M32.7202 158.336C33.8402 159.416 34.1682 160.888 33.4642 161.624C32.7602 162.36 31.2722 162.08 30.1522 161C29.0322 159.92 28.7042 158.456 29.4162 157.72C30.1282 156.984 31.6002 157.264 32.7202 158.336Z" fill="white" stroke="#333333" stroke-linecap="round" stroke-linejoin="round"></path><path d="M33.3127 144.703L23.3184 150.763L35.5129 170.875L45.5072 164.815L33.3127 144.703Z" fill="#00A0AD" stroke="#333333" stroke-linecap="round" stroke-linejoin="round"></path><path d="M33.1332 147.816L26.1362 152.047L36.5071 169.199L43.5041 164.968L33.1332 147.816Z" fill="white" stroke="#333333" stroke-width="1.00499" stroke-linecap="round" stroke-linejoin="round"></path><path d="M36 156.8C36.8 158.128 36.752 159.632 35.872 160.168C34.992 160.704 33.6 160.08 32.8 158.752C32 157.424 32.048 155.92 32.92 155.392C33.792 154.864 35.2 155.504 36 156.8Z" fill="#00A0AD" stroke="#333333" stroke-linecap="round" stroke-linejoin="round"></path><path d="M43.2146 143.956L31.6387 145.57L34.8876 168.865L46.4636 167.25L43.2146 143.956Z" fill="#00A0AD" stroke="#333333" stroke-linecap="round" stroke-linejoin="round"></path><path d="M41.702 145.968L33.644 147.092L36.4001 166.852L44.4581 165.728L41.702 145.968Z" fill="white" stroke="#333333" stroke-linecap="round" stroke-linejoin="round"></path><path d="M40.8798 156.152C41.0958 157.688 40.4478 159.048 39.4398 159.192C38.4318 159.336 37.4318 158.2 37.2158 156.664C36.9998 155.128 37.6478 153.768 38.6638 153.624C39.6798 153.48 40.6638 154.616 40.8798 156.152Z" fill="#00A0AD" stroke="#333333" stroke-linecap="round" stroke-linejoin="round"></path><path d="M51.1109 148.614L39.7388 145.915L34.308 168.8L45.6802 171.498L51.1109 148.614Z" fill="#00A0AD" stroke="#333333" stroke-linecap="round" stroke-linejoin="round"></path><path d="M48.9694 149.947L41.0532 148.069L36.4463 167.482L44.3625 169.36L48.9694 149.947Z" fill="white" stroke="#333333" stroke-linecap="round" stroke-linejoin="round"></path><path d="M44.4962 159.136C44.1442 160.64 43.0482 161.68 42.0482 161.44C41.0482 161.2 40.5442 159.792 40.9042 158.24C41.2642 156.688 42.3522 155.696 43.3522 155.928C44.3522 156.16 44.8562 157.6 44.4962 159.136Z" fill="#00A0AD" stroke="#333333" stroke-linecap="round" stroke-linejoin="round"></path><path d="M66.9121 223.936C66.9121 223.936 64.3281 227.224 63.6161 242.752C62.9041 258.28 73.2641 280.616 73.7361 287.2C74.2081 293.784 74.9121 299.904 74.9121 299.904C73.6691 306.284 73.7481 312.852 75.1441 319.2C77.4961 329.312 84.7441 356.36 84.7441 356.36C84.7441 356.36 79.1441 368.12 79.1441 368.824C79.1441 369.528 76.3201 370.944 76.0881 372.824C75.9286 373.759 75.9286 374.713 76.0881 375.648H94.6641C94.6641 375.648 95.8401 374 95.8401 370.232C95.8401 366.464 93.2561 349.536 93.2561 349.536L93.4881 291.68V253.808L117.488 315.896C122.873 331.627 129.074 347.066 136.064 362.152C136.552 363.216 139.824 371.792 143.584 374.616C147.344 377.44 150.88 378.144 151.112 373.912C151.344 369.68 148.288 360.504 145.232 357.912C142.176 355.32 138.176 349.68 138.176 348.736C138.176 347.792 126.848 276.8 126.848 276.8L118.656 236.184C118.656 236.184 119.24 232.064 117.776 225.656C116.312 219.248 107.376 219.952 107.376 219.952L69.9761 218.304L66.9121 223.936Z" fill="white" stroke="#333333" stroke-linecap="round" stroke-linejoin="round"></path><path d="M126.848 276.8L118.656 236.184C118.656 236.184 119.24 232.064 117.776 225.656C116.312 219.248 107.376 219.952 107.376 219.952L69.976 218.304L66.92 223.952C66.92 223.952 64.336 227.24 63.624 242.768C62.912 258.296 73.264 280.616 73.736 287.2C74.208 293.784 74.912 299.904 74.912 299.904C73.669 306.284 73.7479 312.852 75.144 319.2C75.944 322.528 77.232 327.696 78.64 333.128C83.5104 333.731 88.4306 333.823 93.32 333.4L93.488 291.68V253.808L117.488 315.896C117.488 315.896 120.688 325.088 124.288 333.848C128.128 333.912 131.8 333.496 135.16 331.728C131.392 311.048 126.848 276.8 126.848 276.8Z" fill="#333333" stroke="#333333" stroke-linecap="round" stroke-linejoin="round"></path><path d="M95.8399 370.224C95.8399 368.624 95.3839 364.744 94.8559 360.744C92.9519 363.104 89.1599 367.408 85.9599 368.584C82.4719 369.864 80.1359 368.856 79.2799 368.352C79.2163 368.501 79.1707 368.657 79.1439 368.816C79.1439 369.52 76.3199 370.936 76.0879 372.816C75.9284 373.751 75.9284 374.705 76.0879 375.64H94.6639C94.6639 375.64 95.8399 373.992 95.8399 370.224Z" fill="#333333" stroke="#333333" stroke-linecap="round" stroke-linejoin="round"></path><path d="M145.224 357.92L145.008 357.72C146.12 360.992 146.944 365.72 143.816 367.56C141.944 368.68 139.816 367.792 138.016 366.328C139.408 369.272 141.368 372.96 143.576 374.616C147.344 377.44 150.872 378.144 151.104 373.912C151.336 369.68 148.28 360.504 145.224 357.92Z" fill="#333333" stroke="#333333" stroke-linecap="round" stroke-linejoin="round"></path><path d="M82.1439 146.792C82.6919 149.414 83.1031 152.063 83.3759 154.728C83.5519 157.552 79.3199 158.432 79.3199 158.432C79.3199 158.432 67.1439 161.784 66.6159 164.256C66.0879 166.728 55.5039 200.256 55.5039 200.256C52.8559 194.96 47.2319 192.328 44.3919 187.904C42.8555 185.58 41.4429 183.177 40.1599 180.704C40.6927 179.406 41.048 178.041 41.2159 176.648C41.1693 175.702 40.865 174.786 40.3359 174C40.3359 174 42.7999 173.12 42.7999 171.888C42.7999 170.656 41.1999 168.008 40.6879 167.472C38.8399 165.496 35.7439 168.184 35.7439 168.184C36.4965 166.911 37.4501 165.768 38.5679 164.8C40.1679 163.56 41.7679 161.8 41.3919 161.096C41.0159 160.392 39.6319 160.744 37.3359 162.856C35.0399 164.968 32.0399 167.8 32.0399 167.8C32.0399 167.8 33.2799 164.976 34.1599 162.856C35.0399 160.736 36.9839 160.568 36.8079 159.328C36.6319 158.088 34.3359 158.8 32.3999 161.272C30.6565 163.772 29.6201 166.696 29.3999 169.736C29.3999 171.504 32.9279 173.792 34.3359 176.616C35.9108 180.095 37.2082 183.693 38.2159 187.376C38.9199 190.024 43.6879 202.192 45.0959 206.576C46.5039 210.96 54.4479 217.16 56.9119 215.568C59.3759 213.976 71.3839 194.4 71.3839 194.4L73.8399 204.616L65.3839 226.168C75.2568 230.514 86.039 232.392 96.7999 231.64C114.792 230.4 117.792 225.64 117.792 225.64C117.179 221.691 116.199 217.807 114.864 214.04C113.36 209.624 109.496 201.296 109.496 200.24C109.496 199.184 112.144 189.128 112.144 189.128C112.144 189.128 126.432 207.472 129.256 208.528C132.08 209.584 163.832 206.928 163.832 206.928C165.366 207.696 166.958 208.343 168.592 208.864C170.536 209.392 178.824 209.744 180.056 209.392C181.288 209.04 180.584 207.792 180.584 207.792C180.584 207.792 184.112 207.968 184.112 206.736C184.124 206.393 184.028 206.054 183.839 205.768C183.65 205.481 183.376 205.26 183.056 205.136C183.215 205.159 183.377 205.148 183.531 205.102C183.685 205.057 183.827 204.978 183.948 204.873C184.069 204.767 184.165 204.637 184.231 204.49C184.296 204.343 184.33 204.185 184.328 204.024C184.328 202.784 182.968 202.52 182.968 202.52C182.968 202.52 183.496 201.816 182.44 201.112C181.384 200.408 174.944 197.728 174.944 197.728C174.944 197.728 178.144 197.376 178.144 196.32C178.144 195.264 168.792 195.608 167.744 196.32C166.696 197.032 162.448 201.12 162.448 201.12C162.448 201.12 140.224 198.648 138.28 197.92C136.336 197.192 131.76 195.984 131.76 195.984C131.76 195.984 119.936 166.384 116.56 162.992C113.621 160.029 109.75 158.17 105.6 157.728C103.154 157.426 100.743 156.89 98.3999 156.128L95.7199 139.2C95.7199 139.2 89.3759 146.968 82.1439 146.792Z" fill="white" stroke="#333333" stroke-linecap="round" stroke-linejoin="round"></path><path d="M138.232 197.944C136.296 197.24 131.712 196.008 131.712 196.008C131.712 196.008 119.888 166.408 116.512 163.016C113.589 160.054 109.736 158.187 105.6 157.728C103.155 157.426 100.744 156.89 98.4002 156.128L95.7201 139.2C95.7201 139.2 89.3762 146.96 82.1202 146.784C82.6682 149.406 83.0794 152.055 83.3522 154.72C83.5282 157.544 79.2962 158.424 79.2962 158.424C79.2962 158.424 67.1202 161.776 66.5922 164.248C66.0642 166.72 55.4802 200.248 55.4802 200.248C54.6452 198.636 53.5657 197.162 52.2802 195.88L52.3282 196.192L51.6002 196.88L44.1602 203.872C44.5442 204.936 44.8642 205.872 45.0962 206.6C46.5122 211.008 54.4482 217.184 56.9122 215.592C59.3762 214 71.3842 194.4 71.3842 194.4L73.8402 204.616L65.3842 226.168C75.257 230.514 86.0393 232.392 96.8002 231.64C114.792 230.4 117.792 225.64 117.792 225.64C117.003 221.173 115.776 216.794 114.128 212.568C112.344 208.264 109.496 201.296 109.496 200.24C109.496 199.184 112.144 189.128 112.144 189.128C112.144 189.128 126.432 207.472 129.256 208.528C130.432 208.968 136.656 208.768 143.496 208.376L144.608 198.976C142.465 198.75 140.337 198.405 138.232 197.944Z" fill="#00A0AD" stroke="#333333" stroke-linecap="round" stroke-linejoin="round"></path><path d="M102.256 188.664C97.5602 190.744 90.5842 193.888 85.6802 196.336" stroke="#333333" stroke-linecap="round" stroke-linejoin="round"></path><path d="M107.312 186.448L104.672 187.6" stroke="#333333" stroke-linecap="round" stroke-linejoin="round"></path><path d="M93.0959 195.72L84.4399 199.432" stroke="#333333" stroke-linecap="round" stroke-linejoin="round"></path><path d="M55.5039 200.24C56.4853 201.505 57.3704 202.842 58.1519 204.24" stroke="#333333" stroke-linecap="round" stroke-linejoin="round"></path><path d="M114.408 178.416L115.024 175.528" stroke="#333333" stroke-linecap="round" stroke-linejoin="round"></path><path d="M112.128 189.128L113.864 180.984" stroke="#333333" stroke-linecap="round" stroke-linejoin="round"></path><path d="M67.048 181.768L66.168 179.216" stroke="#333333" stroke-linecap="round" stroke-linejoin="round"></path><path d="M71.3842 194.416L67.7202 183.744" stroke="#333333" stroke-linecap="round" stroke-linejoin="round"></path><path d="M40.3361 173.952L39.8081 172.72L40.8641 171.664" stroke="#333333" stroke-linecap="round" stroke-linejoin="round"></path><path d="M40.2718 167.2L36.3758 170.552C36.2804 170.737 36.2554 170.95 36.3055 171.151C36.3555 171.353 36.4772 171.529 36.6478 171.648" stroke="#333333" stroke-linecap="round" stroke-linejoin="round"></path><path d="M174.928 197.768L172.28 198.824C172.28 198.824 172.808 202.352 168.4 203.064" stroke="#333333" stroke-linecap="round" stroke-linejoin="round"></path><path d="M182.952 202.56L176.16 201.296" stroke="#333333" stroke-linecap="round" stroke-linejoin="round"></path><path d="M183.04 205.176L176.688 203.944" stroke="#333333" stroke-linecap="round" stroke-linejoin="round"></path><path d="M180.568 207.824L175.808 207.12" stroke="#333333" stroke-linecap="round" stroke-linejoin="round"></path><path d="M176.688 200.592C176.688 200.592 176.688 205.704 175.088 208.176" stroke="#333333" stroke-linecap="round" stroke-linejoin="round"></path><path d="M98.3998 156.136L95.7198 139.2C95.7198 139.2 89.3758 146.96 82.1198 146.784C82.6678 149.406 83.0791 152.055 83.3518 154.72C83.4478 156.256 82.2318 157.216 81.1118 157.776C82.7118 161.12 87.2878 169.776 91.9918 168.48C95.9918 167.376 98.2798 160.528 99.2878 156.416C98.7198 156.256 98.3998 156.136 98.3998 156.136Z" fill="white" stroke="#333333" stroke-linecap="round" stroke-linejoin="round"></path><path d="M96.08 144.08L95.2 139.824C93.52 141.656 88.144 146.936 82.168 146.792C82.716 149.414 83.1272 152.063 83.4 154.728C83.4 154.768 83.4 154.808 83.4 154.848C84.5463 155.213 85.7603 155.315 86.9515 155.146C88.1427 154.977 89.2804 154.542 90.28 153.872C94.624 150.744 96.08 144.08 96.08 144.08Z" fill="#333333" stroke="#333333" stroke-linecap="round" stroke-linejoin="round"></path><path d="M73.6001 118.536C73.6001 118.536 64.9601 118 63.5441 125.416C63.0533 127.328 63.328 129.355 64.3097 131.068C65.2913 132.78 66.9024 134.042 68.8001 134.584C68.5896 135.75 68.6903 136.952 69.092 138.067C69.4937 139.182 70.1822 140.172 71.0881 140.936C74.2881 143.76 82.0321 149.224 90.6721 147.288C99.3121 145.352 106.72 136.528 106.4 131.2C106.08 125.872 103.584 124.848 103.584 124.848C103.584 124.848 107.992 119.032 102.872 112.152C97.7521 105.272 75.3601 105.976 71.8321 110.552C68.3041 115.128 73.6001 118.536 73.6001 118.536Z" fill="#333333" stroke="#333333" stroke-linecap="round" stroke-linejoin="round"></path><path d="M80.1038 124.352L72.9038 130.312C72.9038 130.312 74.1358 140.584 77.2158 144.712C80.2958 148.84 85.7198 153.224 89.6238 151.784C93.5278 150.344 97.3518 143.888 97.3518 137.32C97.3518 130.752 96.1198 127.456 96.1198 127.456C96.1198 127.456 83.7998 127.44 80.1038 124.352Z" fill="white" stroke="#333333" stroke-linecap="round" stroke-linejoin="round"></path><path d="M88.7998 132.328C88.7998 132.328 92.0398 131.608 93.3598 132.328" stroke="#333333" stroke-linecap="round" stroke-linejoin="round"></path><path d="M77.9922 135.328C78.3781 134.59 79.0067 134.008 79.7718 133.681C80.537 133.353 81.3919 133.299 82.1922 133.528" stroke="#333333" stroke-linecap="round" stroke-linejoin="round"></path><path d="M75.9521 131.368C76.3038 130.519 76.9372 129.816 77.7458 129.379C78.5545 128.942 79.489 128.797 80.3922 128.968" stroke="#333333" stroke-linecap="round" stroke-linejoin="round"></path><path d="M87.1118 128C88.0441 127.49 89.1128 127.285 90.1676 127.414C91.2224 127.543 92.2102 128 92.9918 128.72" stroke="#333333" stroke-linecap="round" stroke-linejoin="round"></path><path d="M83.1519 142.528C83.1519 142.528 88.4319 145.168 91.3119 140.248" stroke="#333333" stroke-linecap="round" stroke-linejoin="round"></path><path d="M84.4722 137.6C84.4722 137.6 86.3922 139.2 88.1922 136.88" stroke="#333333" stroke-linecap="round" stroke-linejoin="round"></path><path d="M96.7998 130.528C96.7998 130.528 98.3598 127.408 99.7998 129.728C101.24 132.048 97.3998 136.568 97.3998 136.568L96.7998 130.528Z" fill="white" stroke="#333333" stroke-linecap="round" stroke-linejoin="round"></path><path d="M73.4322 133.768C73.4322 133.768 70.3122 132.568 70.5522 136.168C70.7922 139.768 75.2002 140.128 75.2002 140.128L73.4322 133.768Z" stroke="#333333" stroke-linecap="round" stroke-linejoin="round"></path><path d="M65.4001 97.184V76.288C65.4001 74.7858 64.8033 73.3451 63.7411 72.2829C62.6789 71.2207 61.2383 70.624 59.7361 70.624H34.0481C32.5473 70.6261 31.1087 71.2238 30.0482 72.2858C28.9877 73.3477 28.3921 74.7872 28.3921 76.288V97.184C28.3921 98.6841 28.988 100.123 30.0487 101.183C31.1094 102.244 32.548 102.84 34.0481 102.84H54.1921L64.5281 112L60.1281 102.84C61.5606 102.743 62.9025 102.104 63.8815 101.054C64.8605 100.003 65.4034 98.6198 65.4001 97.184Z" fill="#333333"></path><path d="M44.9683 76.68V75.296H47.3683V76.68C49.4483 77.112 50.5123 78.712 50.5123 81.24V81.824H47.7363V81.024C47.7363 79.688 47.2003 79.184 46.2723 79.184C45.3443 79.184 44.8083 79.688 44.8083 81.024C44.8083 84.856 50.5363 85.024 50.5363 90.368C50.5363 92.896 49.4403 94.528 47.3363 94.952V96.312H44.9363V94.952C42.8323 94.528 41.7363 92.896 41.7363 90.368V89.088H44.5123V90.552C44.5123 91.888 45.0963 92.368 46.0323 92.368C46.9683 92.368 47.5443 91.888 47.5443 90.552C47.5443 86.72 41.8163 86.552 41.8163 81.208C41.8723 78.736 42.9123 77.136 44.9683 76.68Z" fill="white"></path><path d="M344.416 55.68H177.936V364.088H344.416V55.68Z" fill="#00A0AD"></path><path d="M344.416 55.68H177.936V74.896H344.416V55.68Z" fill="white"></path><path opacity="0.3" d="M344.416 182L341.664 180.016L241.52 356.912L244.256 364.088H344.416V182Z" fill="white"></path><path d="M349.416 116.36C349.961 116.36 350.484 116.143 350.87 115.758C351.255 115.372 351.472 114.849 351.472 114.304V93.744C351.472 93.1987 351.255 92.6758 350.87 92.2902C350.484 91.9046 349.961 91.688 349.416 91.688C349.288 91.6794 349.16 91.6794 349.032 91.688V53.256C349.032 51.5145 348.689 49.7901 348.022 48.1813C347.355 46.5725 346.378 45.1108 345.146 43.8798C343.915 42.6487 342.452 41.6725 340.843 41.0068C339.234 40.341 337.509 39.9989 335.768 40H189.648C187.906 39.9989 186.182 40.341 184.572 41.0068C182.963 41.6725 181.501 42.6487 180.269 43.8798C179.037 45.1108 178.06 46.5725 177.394 48.1813C176.727 49.7901 176.384 51.5145 176.384 53.256V363.656C176.384 367.174 177.781 370.548 180.269 373.035C182.756 375.523 186.13 376.92 189.648 376.92H335.768C339.286 376.92 342.659 375.523 345.147 373.035C347.634 370.548 349.032 367.174 349.032 363.656V174.856C349.159 174.869 349.288 174.869 349.416 174.856C349.961 174.856 350.484 174.639 350.87 174.254C351.255 173.868 351.472 173.345 351.472 172.8V152.232C351.472 151.687 351.255 151.164 350.87 150.778C350.484 150.393 349.961 150.176 349.416 150.176C349.287 150.177 349.158 150.19 349.032 150.216V145.6C349.159 145.613 349.288 145.613 349.416 145.6C349.961 145.6 350.484 145.383 350.87 144.998C351.255 144.612 351.472 144.089 351.472 143.544V122.984C351.472 122.439 351.255 121.916 350.87 121.53C350.484 121.145 349.961 120.928 349.416 120.928C349.288 120.915 349.159 120.915 349.032 120.928V116.32C349.158 116.346 349.287 116.359 349.416 116.36ZM341.352 356.912H184.064V62.88H341.352V356.912Z" fill="#333333"></path><path d="M329.664 94.416H195.976C193.157 94.416 190.872 96.7011 190.872 99.52V144.976C190.872 147.795 193.157 150.08 195.976 150.08H329.664C332.482 150.08 334.768 147.795 334.768 144.976V99.52C334.768 96.7011 332.482 94.416 329.664 94.416Z" fill="#333333" stroke="#333333" stroke-linecap="round" stroke-linejoin="round"></path><path d="M251.528 100.728V108.8H250.992V100.728H251.528Z" fill="white"></path><path d="M252.936 108.8H252.448V100.728H253.144L255.544 107.552V100.728H256.032V108.8H255.44L252.912 101.6L252.936 108.8Z" fill="white"></path><path d="M260.416 102.704V103.376H259.912V102.672C259.912 101.8 259.576 101.144 258.688 101.144C257.8 101.144 257.464 101.8 257.464 102.672V106.872C257.464 107.744 257.8 108.384 258.688 108.384C259.576 108.384 259.912 107.744 259.912 106.872V105.912H260.416V106.84C260.416 108.008 259.912 108.888 258.672 108.888C257.432 108.888 256.928 108.008 256.928 106.84V102.704C256.928 101.536 257.44 100.656 258.672 100.656C259.904 100.656 260.416 101.536 260.416 102.704Z" fill="white"></path><path d="M261.248 102.704C261.248 101.528 261.792 100.656 263.016 100.656C264.24 100.656 264.808 101.528 264.808 102.704V106.84C264.808 108.016 264.264 108.888 263.016 108.888C261.768 108.888 261.248 108.016 261.248 106.84V102.704ZM261.784 106.872C261.784 107.752 262.128 108.4 263.016 108.4C263.904 108.4 264.272 107.752 264.272 106.872V102.672C264.272 101.792 263.92 101.144 263.016 101.144C262.112 101.144 261.784 101.792 261.784 102.672V106.872Z" fill="white"></path><path d="M268.4 108.8H267.864L266.16 101.648V108.848H265.68V100.728H266.48L268.176 107.88L269.864 100.728H270.624V108.8H270.12V101.6L268.4 108.8Z" fill="white"></path><path d="M274.256 104.472V104.952H272.048V108.328H274.704V108.8H271.504V100.728H274.704V101.216H272.048V104.472H274.256Z" fill="white"></path><path d="M226.752 120.312V119.2H228.736V120.352C230.456 120.704 231.344 122.024 231.344 124.128V124.608H229.048V123.968C229.048 122.864 228.608 122.448 227.832 122.448C227.056 122.448 226.616 122.864 226.616 123.968C226.616 127.168 231.368 127.304 231.368 131.72C231.368 133.816 230.456 135.16 228.736 135.52V136.64H226.752V135.52C225.008 135.16 224.12 133.816 224.12 131.72V130.656H226.4V131.872C226.4 132.976 226.888 133.376 227.664 133.376C228.44 133.376 228.92 132.976 228.92 131.872C228.92 128.672 224.176 128.544 224.176 124.128C224.192 122.008 225.048 120.688 226.752 120.312Z" fill="white"></path><path d="M234.496 122.096C236.376 122.096 236.792 121.192 237.168 120.152H238.808V135.608H236.408V123.824H234.528L234.496 122.096Z" fill="white"></path><path d="M243.928 130.616V132.056C243.928 133.16 244.408 133.552 245.184 133.552C245.96 133.552 246.44 133.16 246.44 132.056V128.656C246.44 127.552 245.96 127.128 245.184 127.128C244.408 127.128 243.928 127.552 243.928 128.656V129.12H241.6L242.04 120.152H248.44V122.4H244.224L244.024 126.088C244.241 125.726 244.554 125.43 244.928 125.233C245.301 125.036 245.722 124.944 246.144 124.968C247.936 124.968 248.84 126.224 248.84 128.496V131.944C248.84 134.416 247.6 135.824 245.216 135.824C242.832 135.824 241.6 134.4 241.6 131.904V130.616H243.928Z" fill="white"></path><path d="M250.48 135.608V133.272H252.8V135.368L251.736 137.816H250.744L251.384 135.608H250.48Z" fill="white"></path><path d="M254.4 124C254.4 121.392 255.592 120 258.112 120C260.512 120 261.728 121.416 261.728 123.888V124.288H259.432V123.736C259.432 122.632 258.952 122.208 258.176 122.208C257.4 122.208 256.832 122.632 256.832 124.112V126.936C257.021 126.505 257.338 126.143 257.74 125.898C258.143 125.653 258.61 125.538 259.08 125.568C260.872 125.568 261.776 126.824 261.776 129.096V131.928C261.776 134.4 260.472 135.808 258.088 135.808C255.704 135.808 254.4 134.4 254.4 131.904V124ZM256.8 129.272V132.056C256.8 133.16 257.28 133.552 258.056 133.552C258.832 133.552 259.312 133.16 259.312 132.056V129.272C259.312 128.168 258.832 127.752 258.056 127.752C257.28 127.752 256.864 128.168 256.864 129.272H256.8Z" fill="white"></path><path d="M270.464 120.152V122.272L266.888 135.608H264.488L268 122.4H263.2V120.192L270.464 120.152Z" fill="white"></path><path d="M275.56 135.784C273.112 135.784 271.76 134.376 271.76 131.904V130.688C271.76 129.208 272.208 128.056 273.264 127.488C272.248 126.936 271.76 125.888 271.76 124.376V123.888C271.76 121.416 273.112 120 275.56 120C278.008 120 279.36 121.416 279.36 123.888V124.376C279.36 125.896 278.848 126.936 277.856 127.488C278.912 128.08 279.36 129.232 279.36 130.688V131.904C279.36 134.4 278.008 135.784 275.56 135.784ZM274.192 124.8C274.192 126.032 274.768 126.4 275.56 126.4C276.352 126.4 276.928 126 276.928 124.8V123.936C276.928 122.544 276.336 122.168 275.56 122.168C274.784 122.168 274.192 122.544 274.192 123.936V124.8ZM275.56 133.6C276.36 133.6 276.904 133.224 276.928 131.856V130.4C276.928 129.184 276.424 128.656 275.56 128.656C274.696 128.656 274.192 129.184 274.192 130.4V131.832C274.192 133.2 274.784 133.6 275.56 133.6Z" fill="white"></path><path d="M283.152 133.272V135.608H280.8V133.272H283.152Z" fill="white"></path><path d="M288.472 122.184C287.672 122.184 287.216 122.608 287.216 123.712V125.368H284.92V123.864C284.92 121.392 286.16 119.976 288.544 119.976C290.928 119.976 292.16 121.392 292.16 123.864C292.16 128.72 287.36 130.528 287.36 133.072C287.348 133.181 287.348 133.291 287.36 133.4H291.952V135.608H284.928V133.712C284.928 129.16 289.728 128.416 289.728 123.952C289.736 122.56 289.248 122.184 288.472 122.184Z" fill="white"></path><path d="M293.504 124C293.504 121.392 294.696 120 297.216 120C299.616 120 300.84 121.416 300.84 123.888V124.288H298.544V123.736C298.544 122.632 298.056 122.208 297.28 122.208C296.504 122.208 295.936 122.632 295.936 124.112V126.936C296.127 126.504 296.445 126.142 296.849 125.897C297.252 125.652 297.721 125.538 298.192 125.568C299.976 125.568 300.88 126.824 300.88 129.096V131.928C300.88 134.4 299.576 135.808 297.192 135.808C294.808 135.808 293.504 134.4 293.504 131.928V124ZM295.904 129.272V132.056C295.904 133.16 296.392 133.552 297.16 133.552C297.928 133.552 298.424 133.16 298.424 132.056V129.272C298.424 128.168 297.936 127.752 297.16 127.752C296.384 127.752 295.936 128.168 295.936 129.272H295.904Z" fill="white"></path><path d="M330.216 164.688H195.424C192.605 164.688 190.32 166.973 190.32 169.792V332.528C190.32 335.347 192.605 337.632 195.424 337.632H330.216C333.035 337.632 335.32 335.347 335.32 332.528V169.792C335.32 166.973 333.035 164.688 330.216 164.688Z" fill="white" stroke="#333333" stroke-linecap="round" stroke-linejoin="round"></path><path d="M333.912 228.752H273.176V186.4H190.32V337.6H333.912C334.285 337.6 334.643 337.452 334.907 337.188C335.171 336.924 335.32 336.565 335.32 336.192V230.16C335.32 229.787 335.171 229.428 334.907 229.164C334.643 228.9 334.285 228.752 333.912 228.752Z" fill="white" stroke="#333333" stroke-linecap="round" stroke-linejoin="round"></path><path d="M211.552 278.248H199.488V307.392H211.552V278.248Z" fill="#00A0AD" stroke="#333333" stroke-linecap="round" stroke-linejoin="round"></path><path d="M230.992 259.552H218.928V307.392H230.992V259.552Z" fill="#E27E28" stroke="#333333" stroke-linecap="round" stroke-linejoin="round"></path><path d="M250.424 274.944H238.36V307.392H250.424V274.944Z" fill="#00A0AD" stroke="#333333" stroke-linecap="round" stroke-linejoin="round"></path><path d="M269.864 269.84H257.8V307.392H269.864V269.84Z" fill="#E27E28" stroke="#333333" stroke-linecap="round" stroke-linejoin="round"></path><path d="M289.296 267.8H277.232V307.392H289.296V267.8Z" fill="#00A0AD" stroke="#333333" stroke-linecap="round" stroke-linejoin="round"></path><path d="M308.736 241.952H296.672V307.392H308.736V241.952Z" fill="#E27E28" stroke="#333333" stroke-linecap="round" stroke-linejoin="round"></path><path d="M328.168 249.648H316.104V307.392H328.168V249.648Z" fill="#00A0AD" stroke="#333333" stroke-linecap="round" stroke-linejoin="round"></path><path d="M203.04 316.256V316.408H202.608V316.232C202.608 315.496 202.328 314.944 201.576 314.944C200.824 314.944 200.544 315.488 200.544 316.216C200.544 317.904 203.048 317.928 203.048 319.84C203.048 320.84 202.616 321.568 201.56 321.568C200.504 321.568 200.064 320.84 200.064 319.84V319.48H200.496V319.872C200.496 320.608 200.784 321.144 201.544 321.144C202.304 321.144 202.592 320.608 202.592 319.872C202.592 318.208 200.096 318.176 200.096 316.248C200.096 315.208 200.544 314.536 201.568 314.528C202.592 314.52 203.04 315.256 203.04 316.256Z" fill="#333333"></path><path d="M204.216 319.84C204.216 320.584 204.496 321.152 205.256 321.152C206.016 321.152 206.296 320.584 206.296 319.84V314.584H206.72V319.816C206.72 320.808 206.304 321.568 205.248 321.568C204.192 321.568 203.768 320.808 203.768 319.816V314.584H204.216V319.84Z" fill="#333333"></path><path d="M207.92 321.512H207.504V314.584H208.096L210.176 320.432V314.584H210.592V321.512H210.088L207.92 315.336V321.512Z" fill="#333333"></path><path d="M221.032 321.504H220.576L219.112 315.376V321.512H218.712V314.584H219.36L220.816 320.712L222.264 314.584H222.912V321.512H222.48V315.36L221.032 321.504Z" fill="#333333"></path><path d="M223.68 316.28C223.68 315.272 224.144 314.528 225.192 314.528C226.24 314.528 226.728 315.272 226.728 316.28V319.816C226.728 320.832 226.264 321.568 225.192 321.568C224.12 321.568 223.68 320.832 223.68 319.816V316.28ZM224.136 319.848C224.136 320.6 224.432 321.152 225.192 321.152C225.952 321.152 226.272 320.6 226.272 319.848V316.248C226.272 315.496 225.968 314.944 225.192 314.944C224.416 314.944 224.136 315.496 224.136 316.248V319.848Z" fill="#333333"></path><path d="M227.896 321.512H227.48V314.584H228.072L230.152 320.432V314.584H230.568V321.512H230.064L227.896 315.336V321.512Z" fill="#333333"></path><path d="M240.672 321.512V315H239.264V314.584H242.536V315H241.128V321.512H240.672Z" fill="#333333"></path><path d="M243.544 319.84C243.544 320.584 243.816 321.152 244.576 321.152C245.336 321.152 245.616 320.584 245.616 319.84V314.584H246.048V319.816C246.048 320.808 245.632 321.568 244.568 321.568C243.504 321.568 243.088 320.808 243.088 319.816V314.584H243.544V319.84Z" fill="#333333"></path><path d="M249.176 317.792V318.208H247.28V321.096H249.6V321.512H246.864V314.584H249.6V315H247.28V317.792H249.176Z" fill="#333333"></path><path d="M259.776 321.512H259.144L258.024 314.584H258.472L259.504 320.896L260.52 314.616H261L261.968 320.88L262.968 314.584H263.376L262.264 321.512H261.672L260.744 315.84L259.776 321.512Z" fill="#333333"></path><path d="M266.4 317.792V318.208H264.512V321.096H266.784V321.512H264.08V314.584H266.808V315H264.536V317.792H266.4Z" fill="#333333"></path><path d="M269.08 314.584C270.144 314.584 270.616 315.288 270.616 316.304V319.792C270.616 320.808 270.144 321.512 269.08 321.512H267.552V314.584H269.08ZM269.08 321.096C269.88 321.096 270.168 320.576 270.168 319.808V316.288C270.168 315.528 269.84 315 269.08 315H268V321.096H269.08Z" fill="#333333"></path><path d="M278.4 321.512V315H276.992V314.584H280.272V315H278.856V321.512H278.4Z" fill="#333333"></path><path d="M281.296 318.256V321.512H280.848V314.584H281.296V317.84H283.456V314.584H283.92V321.512H283.456V318.256H281.296Z" fill="#333333"></path><path d="M285.152 319.84C285.152 320.584 285.424 321.152 286.184 321.152C286.944 321.152 287.224 320.584 287.224 319.84V314.584H287.656V319.816C287.656 320.808 287.24 321.568 286.176 321.568C285.112 321.568 284.696 320.808 284.696 319.816V314.584H285.152V319.84Z" fill="#333333"></path><path d="M300.848 317.96V318.4H299.056V321.536H298.6V314.608H301.232V315.024H299.056V317.984L300.848 317.96Z" fill="#333333"></path><path d="M303.376 314.584C304.432 314.584 304.856 315.168 304.856 316.184V316.784C304.856 317.584 304.544 318.064 303.856 318.216C304.173 318.278 304.453 318.46 304.639 318.724C304.826 318.987 304.903 319.313 304.856 319.632V320.712C304.842 320.989 304.9 321.264 305.024 321.512H304.552C304.433 321.263 304.381 320.987 304.4 320.712V319.624C304.4 318.704 303.896 318.448 303.104 318.448H302.4V321.544H301.944V314.616L303.376 314.584ZM303.12 318C303.92 318 304.4 317.776 304.4 316.84V316.192C304.4 315.448 304.112 315 303.36 315H302.4V318H303.12Z" fill="#333333"></path><path d="M306.208 314.584V321.512H305.752V314.584H306.208Z" fill="#333333"></path><path d="M321.784 316.256V316.408H321.344V316.232C321.344 315.496 321.072 314.944 320.32 314.944C319.568 314.944 319.288 315.488 319.288 316.216C319.288 317.904 321.792 317.928 321.792 319.84C321.792 320.84 321.352 321.568 320.296 321.568C319.24 321.568 318.8 320.84 318.8 319.84V319.48H319.24V319.872C319.24 320.608 319.528 321.144 320.288 321.144C321.048 321.144 321.336 320.608 321.336 319.872C321.336 318.208 318.832 318.176 318.832 316.248C318.832 315.208 319.288 314.536 320.304 314.528C321.32 314.52 321.784 315.256 321.784 316.256Z" fill="#333333"></path><path d="M323.2 320L322.848 321.536H322.4L323.912 314.6H324.576L326.12 321.536H325.664L325.32 320H323.2ZM323.264 319.608H325.28L324.264 315.128L323.264 319.608Z" fill="#333333"></path><path d="M327.632 321.512V315H326.224V314.584H329.504V315H328.088V321.512H327.632Z" fill="#333333"></path><path d="M233.496 172.952V173.12H232.984V172.912C232.984 172.064 232.664 171.416 231.784 171.416C230.904 171.416 230.584 172.048 230.584 172.904C230.584 174.872 233.504 174.904 233.504 177.136C233.504 178.296 233 179.152 231.76 179.152C230.52 179.152 230.016 178.296 230.016 177.136V176.72H230.528V177.168C230.528 178.032 230.864 178.656 231.752 178.656C232.64 178.656 232.976 178.032 232.976 177.168C232.976 175.224 230.048 175.192 230.048 172.936C230.048 171.728 230.584 170.936 231.776 170.928C232.968 170.92 233.496 171.784 233.496 172.952Z" fill="#333333"></path><path d="M236 171C237.248 171 237.736 171.8 237.736 172.96V173.84C237.736 175.12 237.144 175.76 235.864 175.76H234.856V179.088H234.4V171H236ZM235.864 175.272C236.8 175.272 237.2 174.856 237.2 173.872V172.928C237.2 172.048 236.904 171.48 236 171.48H234.856V175.272H235.864Z" fill="#333333"></path><path d="M241.304 174.744V175.224H239.096V178.6H241.752V179.088H238.552V171H241.752V171.48H239.096V174.744H241.304Z" fill="#333333"></path><path d="M243.104 179.088H242.616V171H243.312L245.712 177.824V171H246.2V179.088H245.6L243.072 171.888L243.104 179.088Z" fill="#333333"></path><path d="M248.912 171C250.16 171 250.704 171.8 250.704 173.008V177.072C250.704 178.264 250.16 179.088 248.912 179.088H247.128V171H248.912ZM248.912 178.6C249.816 178.6 250.184 177.984 250.184 177.096V172.984C250.184 172.096 249.808 171.48 248.912 171.48H247.68V178.6H248.912Z" fill="#333333"></path><path d="M252.112 171V179.088H251.576V171H252.112Z" fill="#333333"></path><path d="M253.52 179.088H253.032V171H253.728L256.128 177.824V171H256.616V179.088H256.024L253.496 171.888L253.52 179.088Z" fill="#333333"></path><path d="M261 172.976V173.6H260.496V172.96C260.496 172.096 260.16 171.44 259.272 171.44C258.384 171.44 258.04 172.096 258.04 172.96V177.168C258.04 178.032 258.376 178.68 259.272 178.68C260.168 178.68 260.496 178.032 260.496 177.168V175.424H259.416V174.936H261.016V177.136C261.016 178.304 260.512 179.176 259.272 179.176C258.032 179.176 257.528 178.304 257.528 177.136V173C257.528 171.832 258.04 170.952 259.272 170.952C260.504 170.952 261 171.808 261 172.976Z" fill="#333333"></path><path d="M267.088 172.952V173.12H266.576V172.912C266.576 172.064 266.256 171.416 265.376 171.416C264.496 171.416 264.176 172.048 264.176 172.904C264.176 174.872 267.096 174.904 267.096 177.136C267.096 178.296 266.592 179.152 265.352 179.152C264.112 179.152 263.608 178.296 263.608 177.136V176.72H264.12V177.168C264.12 178.032 264.456 178.656 265.344 178.656C266.232 178.656 266.568 178.032 266.568 177.168C266.568 175.224 263.64 175.192 263.64 172.936C263.64 171.728 264.176 170.936 265.368 170.928C266.56 170.92 267.088 171.784 267.088 172.952Z" fill="#333333"></path><path d="M268.456 177.136C268.456 178 268.784 178.672 269.672 178.672C270.56 178.672 270.888 178 270.888 177.136V171H271.384V177.112C271.384 178.264 270.896 179.152 269.664 179.152C268.432 179.152 267.928 178.264 267.928 177.112V171H268.456V177.136Z" fill="#333333"></path><path d="M275.008 179.072H274.48L272.8 171.92V179.12H272.328V171H273.088L274.784 178.152L276.472 171H277.232V179.088H276.728V171.888L275.008 179.072Z" fill="#333333"></path><path d="M280.84 179.072H280.312L278.6 171.92V179.12H278.128V171H278.888L280.584 178.152L282.272 171H283.072V179.088H282.568V171.888L280.84 179.072Z" fill="#333333"></path><path d="M284.728 177.296L284.328 179.088H283.84L285.6 170.984H286.4L288.2 179.088H287.672L287.264 177.296H284.728ZM284.8 176.8H287.2L286.008 171.568L284.8 176.8Z" fill="#333333"></path><path d="M290.68 171C291.912 171 292.408 171.68 292.408 172.824V173.528C292.467 173.902 292.379 174.285 292.163 174.597C291.947 174.908 291.619 175.124 291.248 175.2C291.617 175.274 291.943 175.487 292.159 175.796C292.376 176.104 292.464 176.484 292.408 176.856V178.112C292.382 178.45 292.451 178.788 292.608 179.088H292.056C291.91 178.784 291.85 178.447 291.88 178.112V176.848C291.88 175.768 291.288 175.472 290.368 175.472H289.52V179.088H288.992V171H290.68ZM290.376 175C291.328 175 291.88 174.736 291.88 173.648V172.888C291.88 172.016 291.544 171.496 290.664 171.496H289.52V175H290.376Z" fill="#333333"></path><path d="M295 176L293.184 171.024H293.736L295.288 175.272L296.832 171.024H297.352L295.528 176V179.112H295V176Z" fill="#333333"></path><path d="M197.728 201.08H196.992L195.688 192.992H196.208L197.416 200.368L198.6 193.032H199.16L200.296 200.344L201.464 192.992H201.936L200.64 201.08H199.952L198.864 194.464L197.728 201.08Z" fill="#333333"></path><path d="M205.488 196.736V197.224H203.288V200.6H205.944V201.08H202.744V192.992H205.944V193.48H203.288V196.736H205.488Z" fill="#333333"></path><path d="M209.544 196.736V197.224H207.336V200.6H209.992V201.08H206.792V192.992H209.992V193.48H207.336V196.736H209.544Z" fill="#333333"></path><path d="M211.944 197.28L211.392 198.16V201.08H210.864V192.992H211.392V197.272L214.024 192.992H214.584L212.272 196.8L214.728 201.12H214.176L211.944 197.28Z" fill="#333333"></path><path d="M215.528 201.08V192.992H216.056V200.6H218.6V201.08H215.528Z" fill="#333333"></path><path d="M220.344 197.976L218.528 192.992H219.08L220.632 197.248L222.176 192.992H222.696L220.872 197.976V201.08H220.344V197.976Z" fill="#333333"></path><path d="M197.76 209.408V208.608H199.2V209.408C200.44 209.656 201.08 210.608 201.08 212.12V212.472H199.424V212C199.424 211.2 199.104 210.904 198.552 210.904C198 210.904 197.68 211.208 197.68 212C197.68 214.288 201.096 214.4 201.096 217.6C201.096 219.112 200.44 220.08 199.2 220.336V221.136H197.76V220.336C196.504 220.08 195.864 219.112 195.864 217.6V216.8H197.52V217.672C197.52 218.472 197.872 218.752 198.424 218.752C198.976 218.752 199.328 218.464 199.328 217.672C199.328 215.384 195.912 215.272 195.912 212.072C195.912 210.624 196.536 209.672 197.76 209.408Z" fill="#333333"></path><path d="M207.384 217.648C207.384 219.52 206.528 220.536 204.712 220.536C202.896 220.536 202.112 219.52 202.112 217.744V217.456H203.76V217.856C203.76 218.656 204.112 218.952 204.664 218.952C205.216 218.952 205.6 218.648 205.6 217.6V215.568C205.464 215.875 205.239 216.133 204.953 216.309C204.667 216.485 204.335 216.569 204 216.552C202.712 216.552 202.064 215.648 202.064 214.008V212C202.064 210.224 203 209.208 204.712 209.208C206.424 209.208 207.368 210.224 207.368 212L207.384 217.648ZM205.6 213.848V211.848C205.6 211.048 205.256 210.768 204.696 210.768C204.136 210.768 203.792 211.056 203.792 211.848V213.848C203.792 214.648 204.144 214.944 204.696 214.944C205.248 214.944 205.6 214.648 205.6 213.848Z" fill="#333333"></path><path d="M208.4 212C208.4 210.224 209.336 209.208 211.048 209.208C212.76 209.208 213.704 210.224 213.704 212V217.784C213.704 219.56 212.768 220.576 211.048 220.576C209.328 220.576 208.4 219.56 208.4 217.784V212ZM210.144 217.896C210.144 218.696 210.496 218.992 211.048 218.992C211.6 218.992 211.96 218.688 211.96 217.896V211.888C211.96 211.088 211.608 210.792 211.048 210.792C210.488 210.792 210.144 211.096 210.144 211.888V217.896Z" fill="#333333"></path><path d="M214.688 212C214.688 210.224 215.624 209.208 217.344 209.208C219.064 209.208 220 210.184 220 212V217.784C220 219.56 219.064 220.576 217.352 220.576C215.64 220.576 214.696 219.56 214.696 217.784L214.688 212ZM216.432 217.896C216.432 218.696 216.784 218.992 217.344 218.992C217.904 218.992 218.248 218.688 218.248 217.896V211.888C218.248 211.088 217.896 210.792 217.344 210.792C216.792 210.792 216.432 211.096 216.432 211.888V217.896Z" fill="#333333"></path><path d="M222.808 218.728V220.408H221.12V218.728H222.808Z" fill="#333333"></path><path d="M226.584 220.536C224.824 220.536 223.856 219.52 223.856 217.744V216.872C223.798 216.423 223.87 215.967 224.061 215.556C224.252 215.146 224.555 214.797 224.936 214.552C224.56 214.321 224.259 213.987 224.067 213.59C223.876 213.193 223.803 212.75 223.856 212.312V212C223.856 210.224 224.824 209.208 226.584 209.208C226.957 209.171 227.334 209.217 227.687 209.345C228.04 209.473 228.359 209.679 228.622 209.947C228.885 210.215 229.084 210.539 229.205 210.894C229.325 211.249 229.365 211.627 229.32 212V212.352C229.368 212.789 229.292 213.231 229.101 213.627C228.91 214.023 228.612 214.358 228.24 214.592C228.616 214.841 228.916 215.19 229.107 215.6C229.298 216.009 229.371 216.463 229.32 216.912V217.784C229.358 218.154 229.314 218.527 229.19 218.877C229.067 219.228 228.867 219.546 228.605 219.809C228.343 220.073 228.026 220.275 227.676 220.4C227.327 220.526 226.953 220.572 226.584 220.536ZM225.6 212.648C225.6 213.536 226.016 213.824 226.584 213.824C227.152 213.824 227.568 213.536 227.568 212.648V212C227.568 211 227.144 210.728 226.584 210.728C226.024 210.728 225.6 211.024 225.6 212V212.648ZM226.584 218.952C227.144 218.952 227.552 218.68 227.568 217.696V216.664C227.568 215.792 227.2 215.408 226.584 215.408C225.968 215.408 225.6 215.792 225.6 216.664V217.696C225.6 218.68 226.032 218.952 226.584 218.952Z" fill="#333333"></path><path d="M235.496 217.648C235.496 219.52 234.64 220.536 232.824 220.536C231.008 220.536 230.224 219.52 230.224 217.744V217.456H231.872V217.856C231.872 218.656 232.224 218.952 232.776 218.952C233.328 218.952 233.744 218.648 233.744 217.584V215.552C233.608 215.859 233.383 216.117 233.097 216.293C232.811 216.469 232.479 216.553 232.144 216.536C230.856 216.536 230.208 215.632 230.208 213.992V212C230.208 210.224 231.144 209.208 232.856 209.208C234.568 209.208 235.512 210.224 235.512 212L235.496 217.648ZM233.744 213.848V211.848C233.744 211.048 233.4 210.768 232.84 210.768C232.28 210.768 231.936 211.056 231.936 211.848V213.848C231.936 214.648 232.288 214.944 232.84 214.944C233.392 214.944 233.744 214.648 233.744 213.848Z" fill="#333333"></path><path d="M282.088 201.072H281.6L279.888 193.92V201.08H279.416V192.992H280.176L281.88 200.144L283.56 192.992H284.36V201.08H283.848V193.88L282.088 201.072Z" fill="#333333"></path><path d="M285.176 194.968C285.176 193.792 285.712 192.928 286.944 192.928C288.176 192.928 288.728 193.792 288.728 194.968V199.104C288.728 200.288 288.192 201.152 286.944 201.152C285.696 201.152 285.176 200.288 285.176 199.104V194.968ZM285.704 199.144C285.704 200.016 286.048 200.664 286.944 200.664C287.84 200.664 288.2 200.016 288.2 199.144V194.936C288.2 194.056 287.84 193.408 286.944 193.408C286.048 193.408 285.704 194.056 285.704 194.936V199.144Z" fill="#333333"></path><path d="M290.088 201.08H289.6V192.992H290.296L292.696 199.824V192.992H293.176V201.08H292.592L290.056 193.88L290.088 201.08Z" fill="#333333"></path><path d="M295.488 201.08V193.48H293.848V192.992H297.672V193.48H296V201.08H295.488Z" fill="#333333"></path><path d="M298.856 197.28V201.08H298.328V192.992H298.856V196.8H301.376V193H301.92V201.088H301.376V197.28H298.856Z" fill="#333333"></path><path d="M302.84 201.08V192.992H303.376V200.6H305.912V201.08H302.84Z" fill="#333333"></path><path d="M307.656 197.976L305.84 192.992H306.4L307.944 197.248L309.496 192.992H310.016L308.192 197.976V201.08H307.656V197.976Z" fill="#333333"></path><path d="M281.344 209.408V208.608H282.776V209.408C284.016 209.656 284.648 210.608 284.648 212.12V212.472H282.992V212C282.992 211.2 282.68 210.904 282.12 210.904C281.56 210.904 281.248 211.208 281.248 212C281.248 214.288 284.664 214.4 284.664 217.6C284.664 219.112 284.016 220.08 282.776 220.336V221.136H281.344V220.336C280.088 220.08 279.456 219.112 279.456 217.6V216.8H281.104V217.672C281.104 218.472 281.456 218.752 282.008 218.752C282.56 218.752 282.912 218.464 282.912 217.672C282.912 215.384 279.504 215.272 279.504 212.072C279.504 210.624 280.12 209.672 281.344 209.408Z" fill="#333333"></path><path d="M286.92 210.688C287.357 210.745 287.799 210.632 288.156 210.373C288.513 210.115 288.758 209.729 288.84 209.296H290.016V220.408H288.272V211.928H286.92V210.688Z" fill="#333333"></path><path d="M292 212C292 210.224 292.936 209.208 294.656 209.208C296.376 209.208 297.304 210.224 297.304 212V217.784C297.304 219.56 296.368 220.576 294.656 220.576C292.944 220.576 292 219.52 292 217.744V212ZM293.744 217.896C293.744 218.696 294.096 218.992 294.656 218.992C295.216 218.992 295.56 218.688 295.56 217.896V211.888C295.56 211.088 295.208 210.792 294.656 210.792C294.104 210.792 293.744 211.096 293.744 211.888V217.896Z" fill="#333333"></path><path d="M298.4 220.408V218.728H300.088V220.24L299.288 222H298.576L299.04 220.4L298.4 220.408Z" fill="#333333"></path><path d="M303.928 210.752C303.376 210.752 303.024 211.056 303.024 211.848V213.04H301.368V212C301.368 210.224 302.264 209.208 303.976 209.208C305.688 209.208 306.584 210.224 306.584 212C306.584 215.496 303.104 216.8 303.104 218.624C303.096 218.704 303.096 218.784 303.104 218.864H306.4V220.464H301.344V219.104C301.344 215.832 304.808 215.288 304.808 212.08C304.8 211.024 304.488 210.752 303.928 210.752Z" fill="#333333"></path><path d="M307.52 212C307.52 210.224 308.456 209.208 310.168 209.208C311.88 209.208 312.8 210.184 312.8 212V217.784C312.8 219.56 311.864 220.576 310.144 220.576C308.424 220.576 307.496 219.56 307.496 217.784L307.52 212ZM309.264 217.896C309.264 218.696 309.616 218.992 310.168 218.992C310.72 218.992 311.072 218.688 311.072 217.896V211.888C311.072 211.088 310.728 210.792 310.168 210.792C309.608 210.792 309.264 211.096 309.264 211.888V217.896Z" fill="#333333"></path><path d="M313.808 212C313.808 210.224 314.744 209.208 316.456 209.208C318.168 209.208 319.112 210.224 319.112 212V217.784C319.112 219.56 318.176 220.576 316.456 220.576C314.736 220.576 313.808 219.56 313.808 217.784V212ZM315.552 217.896C315.552 218.696 315.904 218.992 316.456 218.992C317.008 218.992 317.368 218.688 317.368 217.896V211.888C317.368 211.088 317.016 210.792 316.456 210.792C315.896 210.792 315.552 211.096 315.552 211.888V217.896Z" fill="#333333"></path><path d="M321.92 218.728V220.408H320.24V218.728H321.92Z" fill="#333333"></path><path d="M324.8 216.8V217.832C324.8 218.632 325.144 218.912 325.704 218.912C326.264 218.912 326.608 218.624 326.608 217.832V215.384C326.608 214.584 326.256 214.288 325.704 214.288C325.152 214.288 324.8 214.592 324.8 215.384V215.72H323.144L323.464 209.272H328.072V210.872H325.04L324.896 213.528C325.052 213.268 325.276 213.057 325.544 212.916C325.812 212.774 326.113 212.71 326.416 212.728C327.704 212.728 328.36 213.64 328.36 215.272V217.752C328.36 219.528 327.464 220.544 325.752 220.544C324.04 220.544 323.144 219.528 323.144 217.752V216.8H324.8Z" fill="#333333"></path><path d="M363.2 376.96H388" stroke="#333333" stroke-miterlimit="10"></path><path d="M16.7998 376.96H356" stroke="#333333" stroke-miterlimit="10"></path><defs><linearGradient id="paint0_linear_601:7527" x1="196.915" y1="17.3227" x2="196.915" y2="350.657" gradientUnits="userSpaceOnUse"><stop stop-color="#F7F7F7"></stop><stop offset="0.510417" stop-color="#E5F5F7"></stop><stop offset="1" stop-color="#F7F7F7"></stop></linearGradient></defs></svg>