<svg xmlns="http://www.w3.org/2000/svg" width="37.943" height="41.283" viewBox="0 0 37.943 41.283">
  <g id="g10" transform="translate(0 199.25)">
    <path id="path158" d="M3.661-103.125,0-92.6H2.138l.748-2.351H6.493L7.215-92.6H9.432L5.825-103.125M3.447-96.659,4.7-100.533H4.73l1.229,3.874ZM16.059-99.17a3.219,3.219,0,0,0-.989-.908,3,3,0,0,0-1.416-.347,2.641,2.641,0,0,0-1.2.267,1.942,1.942,0,0,0-.882.909h-.027v-.962H9.726v13.36H11.65v-6.68h.027a2.32,2.32,0,0,0,.909.855,2.664,2.664,0,0,0,1.2.294,2.672,2.672,0,0,0,1.336-.321,3.016,3.016,0,0,0,.962-.882,3.883,3.883,0,0,0,.588-1.256,5.408,5.408,0,0,0,.187-1.47,5.866,5.866,0,0,0-.187-1.55,4.565,4.565,0,0,0-.615-1.309M14.83-95.483a2.212,2.212,0,0,1-.267.775,1.619,1.619,0,0,1-.508.534,1.489,1.489,0,0,1-.8.214,1.461,1.461,0,0,1-.775-.214,1.7,1.7,0,0,1-.534-.534,2.928,2.928,0,0,1-.294-.775,5,5,0,0,1-.08-.908,5,5,0,0,1,.08-.909,2.927,2.927,0,0,1,.267-.775,2.02,2.02,0,0,1,.508-.561,1.489,1.489,0,0,1,.8-.214,1.461,1.461,0,0,1,.775.214,1.8,1.8,0,0,1,.534.561,2.455,2.455,0,0,1,.294.775,5,5,0,0,1,.08.909,5,5,0,0,1-.08.908M23.514-99.3a3.185,3.185,0,0,0-1.149-.8,3.831,3.831,0,0,0-1.5-.294,3.831,3.831,0,0,0-1.5.294,3.185,3.185,0,0,0-1.149.8,3.439,3.439,0,0,0-.721,1.256,5.381,5.381,0,0,0-.267,1.657,4.687,4.687,0,0,0,.267,1.657,3.6,3.6,0,0,0,.721,1.256,3.185,3.185,0,0,0,1.149.8,3.829,3.829,0,0,0,1.5.267,3.829,3.829,0,0,0,1.5-.267,3.185,3.185,0,0,0,1.149-.8,3.439,3.439,0,0,0,.721-1.256,5.25,5.25,0,0,0,.267-1.657,4.587,4.587,0,0,0-.267-1.657,3.233,3.233,0,0,0-.721-1.256M22.5-95.51a2.212,2.212,0,0,1-.267.775,1.543,1.543,0,0,1-.534.561,1.519,1.519,0,0,1-.828.214,1.489,1.489,0,0,1-.8-.214,1.293,1.293,0,0,1-.508-.561,2.419,2.419,0,0,1-.267-.775,4.92,4.92,0,0,1-.08-.882,5.218,5.218,0,0,1,.08-.909,2.212,2.212,0,0,1,.267-.775,2.02,2.02,0,0,1,.508-.561,1.489,1.489,0,0,1,.8-.214,1.659,1.659,0,0,1,.828.214,1.543,1.543,0,0,1,.534.561,2.212,2.212,0,0,1,.267.775,5,5,0,0,1,.08.909,4.705,4.705,0,0,1-.08.882M25.064-92.6h1.924v-10.528H25.064Zm3.153,0h1.924v-10.528H28.217Zm9.459-5.451a3.6,3.6,0,0,0-.721-1.256,3.185,3.185,0,0,0-1.149-.8,3.831,3.831,0,0,0-1.5-.294,3.831,3.831,0,0,0-1.5.294,3.185,3.185,0,0,0-1.149.8,3.439,3.439,0,0,0-.721,1.256,5.38,5.38,0,0,0-.267,1.657,4.687,4.687,0,0,0,.267,1.657,3.865,3.865,0,0,0,.721,1.256,3.185,3.185,0,0,0,1.149.8,3.829,3.829,0,0,0,1.5.267,3.829,3.829,0,0,0,1.5-.267,3.185,3.185,0,0,0,1.149-.8,3.439,3.439,0,0,0,.721-1.256,5.25,5.25,0,0,0,.267-1.657,6.322,6.322,0,0,0-.267-1.657M35.912-95.51a2.928,2.928,0,0,1-.267.775,1.353,1.353,0,0,1-.534.561,1.519,1.519,0,0,1-.828.214,1.489,1.489,0,0,1-.8-.214,1.543,1.543,0,0,1-.534-.561,2.419,2.419,0,0,1-.267-.775,4.919,4.919,0,0,1-.08-.882,5.218,5.218,0,0,1,.08-.909,2.212,2.212,0,0,1,.267-.775,1.771,1.771,0,0,1,.534-.561,1.489,1.489,0,0,1,.8-.214,1.659,1.659,0,0,1,.828.214,1.543,1.543,0,0,1,.534.561,2.212,2.212,0,0,1,.267.775,5,5,0,0,1,.08.909,4.705,4.705,0,0,1-.08.882" transform="translate(0 -75.577)" fill="#2582a1"/>
    <path id="path162" d="M64.344-41.637h-1.47V-42.92H62.5v3.1h.4v-1.443h1.47v1.443h.4v-3.1h-.4M66.882-43a1.22,1.22,0,0,0-1.1.588,1.933,1.933,0,0,0-.294,1.069,1.784,1.784,0,0,0,.347,1.149,1.223,1.223,0,0,0,1.042.481,1.247,1.247,0,0,0,1.069-.534,1.945,1.945,0,0,0,.321-1.149,1.608,1.608,0,0,0-.294-1.042,1.119,1.119,0,0,0-1.1-.561m.775,2.485a.8.8,0,0,1-.748.4.865.865,0,0,1-.775-.347,1.526,1.526,0,0,1-.24-.855,1.426,1.426,0,0,1,.267-.962.915.915,0,0,1,.721-.321.915.915,0,0,1,.721.321,1.29,1.29,0,0,1,.267.882,1.661,1.661,0,0,1-.214.882m3.206-.8a.9.9,0,0,0-.428-.187l-.374-.107c-.267-.08-.428-.134-.508-.16a.381.381,0,0,1-.16-.321.638.638,0,0,1,.134-.374.613.613,0,0,1,.481-.16.624.624,0,0,1,.561.24.692.692,0,0,1,.107.374h.374a.926.926,0,0,0-.294-.748,1.194,1.194,0,0,0-.748-.24.892.892,0,0,0-.721.267.906.906,0,0,0-.267.695.657.657,0,0,0,.267.588,1.906,1.906,0,0,0,.508.214l.374.107a1.22,1.22,0,0,1,.454.187.462.462,0,0,1,.134.347.514.514,0,0,1-.321.481.853.853,0,0,1-.374.08.68.68,0,0,1-.641-.294.91.91,0,0,1-.107-.428h-.4a1.029,1.029,0,0,0,.294.8,1.09,1.09,0,0,0,.8.294,1.461,1.461,0,0,0,.775-.214.879.879,0,0,0,.347-.748.771.771,0,0,0-.267-.695m2.4-1.6H71.986v3.1h.4V-41.13h.882a.726.726,0,0,0,.641-.267,1.087,1.087,0,0,0,.214-.641.889.889,0,0,0-.24-.668.9.9,0,0,0-.615-.214m.294,1.309a.68.68,0,0,1-.428.134h-.748v-1.069h.748a1.186,1.186,0,0,1,.347.053.468.468,0,0,1,.24.454.492.492,0,0,1-.16.428m1.443,1.79h.4v-3.1h-.4v3.1Zm1.069-2.726h.962v2.726h.4v-2.726H78.4v-.374H76.1A1.764,1.764,0,0,0,76.074-42.546Zm3.474-.374-1.069,3.1h.4l.321-.935h1.122l.294.935h.428L80-42.92Zm-.24,1.817.454-1.363.428,1.363Zm2.752-1.817h-.374v3.1H83.5v-.374H82.086C82.059-40.194,82.059-42.92,82.059-42.92Zm3.928,1.6a.9.9,0,0,0-.428-.187l-.374-.107c-.267-.08-.428-.134-.508-.16a.381.381,0,0,1-.16-.321.638.638,0,0,1,.134-.374.613.613,0,0,1,.481-.16.624.624,0,0,1,.561.24,1,1,0,0,1,.134.374h.347a.926.926,0,0,0-.294-.748,1.194,1.194,0,0,0-.748-.24.892.892,0,0,0-.721.267,1.016,1.016,0,0,0-.267.695.657.657,0,0,0,.267.588,1.906,1.906,0,0,0,.508.214l.374.107a1.22,1.22,0,0,1,.454.187.382.382,0,0,1,.134.347.514.514,0,0,1-.321.481.853.853,0,0,1-.374.08.68.68,0,0,1-.641-.294.911.911,0,0,1-.107-.428H84.09a1.029,1.029,0,0,0,.294.8,1.091,1.091,0,0,0,.8.294,1.461,1.461,0,0,0,.775-.214.879.879,0,0,0,.347-.748.949.949,0,0,0-.321-.695" transform="translate(-49.14 -122.849)" fill="#2582a1"/>
    <path id="path166" d="M31.28-152.411l1.149.962,1.149-.962v-2.913H31.307m2.351-3.18H30.933v-.695l-6.226,7.642h3.287l3.26-4.088h2.4V-158.5Zm-2.378-.321h2.271v-2.458l1.2-2.031H29.917l1.336,2.031c.027,0,.027,2.458.027,2.458Zm-6.974-8.551H18v11.944h2.966l6.84-8.177Zm-2.271,4.142h-.989v1.069h-.855v-1.069H19.2v-.935h.989v-1.069h.855v1.069h.989Zm4.863,7.268.481-1.844h.641v-5.1l-6.68,7.963v3.5l3.34-3.981h1.55a.627.627,0,0,0,.668-.534m.347-4.329-.481.534-.481-.534Z" transform="translate(-14.152 -25.061)" fill="#2582a1"/>
    <path id="path170" d="M56.622-195.456l-.08-.027c-3.848-1.069-4.088-3.073-3.981-3.768a7.178,7.178,0,0,0,.027,3.367,6.629,6.629,0,0,0,3.474,1.389l.481.08c3.874.8,4.2,4.249,2.806,5.905.16-.321,1.79-3.9-2.218-4.649-.187-.027-.374-.08-.561-.107-2.832-.561-3.073-1.042-3.206-1.069a3.924,3.924,0,0,0,3.206,3.741H56.6c2.458.321,2.7,1.657,2.726,2.084a3.449,3.449,0,0,0,1.2-2.645v-.294c-.053-1.657-1.149-3.474-3.9-4.008" transform="translate(-41.177 0)" fill="#fdb931"/>
    <path id="path174" d="M0-16.278H.641v1.87H.908v-1.87H1.55v-.267H0M3.794-16.6a.83.83,0,0,0-.748.4,1.324,1.324,0,0,0-.187.721,1.169,1.169,0,0,0,.24.775.827.827,0,0,0,.695.321.9.9,0,0,0,.748-.374,1.577,1.577,0,0,0,.187-.775,1.209,1.209,0,0,0-.187-.721.915.915,0,0,0-.748-.347m.508,1.71a.524.524,0,0,1-.508.267.6.6,0,0,1-.534-.24,1.016,1.016,0,0,1-.16-.588,1,1,0,0,1,.187-.668.58.58,0,0,1,.481-.214.587.587,0,0,1,.481.214,1.026,1.026,0,0,1,.187.588,1.035,1.035,0,0,1-.134.641m3.206-.347a1.393,1.393,0,0,1-.053.374.468.468,0,0,1-.454.24.414.414,0,0,1-.4-.24.853.853,0,0,1-.08-.374v-1.309H6.253v1.2a1.153,1.153,0,0,0,.107.588.641.641,0,0,0,.668.374.678.678,0,0,0,.668-.374,1.65,1.65,0,0,0,.107-.588v-1.2H7.535c-.027,0-.027,1.309-.027,1.309Zm3.1.374a.481.481,0,0,1-.428.24.468.468,0,0,1-.454-.24,1.048,1.048,0,0,1-.16-.615.951.951,0,0,1,.187-.668.571.571,0,0,1,.454-.214.453.453,0,0,1,.347.107.61.61,0,0,1,.16.321h.267a.669.669,0,0,0-.214-.481.765.765,0,0,0-.561-.214.777.777,0,0,0-.668.321,1.162,1.162,0,0,0-.214.775,1.277,1.277,0,0,0,.294.909.743.743,0,0,0,.561.214.739.739,0,0,0,.615-.267,1.248,1.248,0,0,0,.187-.534h-.267a1.067,1.067,0,0,1-.107.347m3.153-.8h-.989v-.882h-.267v2.111h.267v-.989h.989v.989h.267v-2.111h-.267Zm1.924,1.229h.267v-2.111h-.267Zm3.153-.4-.962-1.71h-.321v2.111h.24v-1.71l.989,1.71h.294v-2.111h-.24Zm2.672-.481h.615a.653.653,0,0,1-.187.534.607.607,0,0,1-.428.16.539.539,0,0,1-.481-.24,1.31,1.31,0,0,1-.134-.615,1,1,0,0,1,.187-.668.5.5,0,0,1,.454-.214.614.614,0,0,1,.374.107.5.5,0,0,1,.187.347h.267a.823.823,0,0,0-.347-.588.878.878,0,0,0-.454-.107.813.813,0,0,0-.641.294,1.217,1.217,0,0,0-.267.855,1.147,1.147,0,0,0,.267.828.786.786,0,0,0,.588.24.754.754,0,0,0,.4-.107,1.534,1.534,0,0,0,.24-.214l.053.267h.16v-1.122H21.51v.24Zm4.649-1.229h-.267v2.111h1.229v-.24h-.962Zm2.485,2.111h.267v-2.111h-.267Zm2.592-.294-.561-1.79h-.294l.695,2.111h.267l.721-2.111H31.8C31.8-16.545,31.236-14.728,31.236-14.728ZM33.8-15.4H34.87v-.24H33.8v-.641h1.149v-.267H33.534v2.111h1.416v-.24H33.775V-15.4Zm3.955-.053a.751.751,0,0,0-.294-.134l-.267-.08a2.954,2.954,0,0,1-.347-.107.243.243,0,0,1-.107-.214.26.26,0,0,1,.107-.24c.053-.08.16-.107.321-.107a.469.469,0,0,1,.4.16.4.4,0,0,1,.08.267h.24a.606.606,0,0,0-.214-.508.77.77,0,0,0-.508-.16.665.665,0,0,0-.508.187.7.7,0,0,0-.187.454.422.422,0,0,0,.187.4.855.855,0,0,0,.347.134l.24.053a.6.6,0,0,1,.294.134.339.339,0,0,1,.107.24.322.322,0,0,1-.214.321.791.791,0,0,1-.267.053.535.535,0,0,1-.454-.214.48.48,0,0,1-.08-.294h-.24a.728.728,0,0,0,.187.534.753.753,0,0,0,.561.187.9.9,0,0,0,.534-.16.556.556,0,0,0,.24-.508.544.544,0,0,0-.16-.4" transform="translate(0 -143.586)" fill="#97999c"/>
  </g>
</svg>
