<svg xmlns="http://www.w3.org/2000/svg" width="34" height="47.191" viewBox="0 0 34 47.191">
  <g id="girl_1_" data-name="girl (1)" transform="translate(-71.557 -0.001)">
    <path id="Path_27123" data-name="Path 27123" d="M88.885,203.681a14.042,14.042,0,0,1,4.578-6.807,2.169,2.169,0,0,0,1.866,1.552,10.14,10.14,0,0,0-1.926,6.533,1.02,1.02,0,0,1-1.224,1.062l-2.194-.455A1.467,1.467,0,0,1,88.885,203.681Z" transform="translate(-15.583 -178.944)" fill="#4c4846"/>
    <circle id="Ellipse_540" data-name="Ellipse 540" cx="2.141" cy="2.141" r="2.141" transform="translate(77.348 15.577)" fill="#d83d3d"/>
    <path id="Path_27124" data-name="Path 27124" d="M138.778,170.807a2.141,2.141,0,1,0-1.907,3.307A2.144,2.144,0,0,1,138.778,170.807Z" transform="translate(-57.49 -154.258)" fill="#b72c2c"/>
    <path id="Path_27125" data-name="Path 27125" d="M362.453,203.681a14.042,14.042,0,0,0-4.578-6.807,2.169,2.169,0,0,1-1.866,1.552,10.14,10.14,0,0,1,1.926,6.533,1.02,1.02,0,0,0,1.224,1.062l2.194-.455A1.467,1.467,0,0,0,362.453,203.681Z" transform="translate(-258.644 -178.944)" fill="#4c4846"/>
    <circle id="Ellipse_541" data-name="Ellipse 541" cx="2.141" cy="2.141" r="2.141" transform="translate(95.48 15.577)" fill="#d83d3d"/>
    <path id="Path_27126" data-name="Path 27126" d="M335.221,169.834a2.141,2.141,0,1,0,1.955,2.764A2.143,2.143,0,0,1,335.221,169.834Z" transform="translate(-237.502 -154.256)" fill="#b72c2c"/>
    <path id="Path_27127" data-name="Path 27127" d="M135.447,14.133c-1.351,2.959-1.13,5.191-1.13,8.374h21.839V19.388C156.157,7.139,140.665,2.7,135.447,14.133Z" transform="translate(-56.66 -6.788)" fill="#4c4846"/>
    <path id="Path_27128" data-name="Path 27128" d="M138.476,14.326a11.834,11.834,0,0,1,9.19-6.511,11.826,11.826,0,0,0-13.2,11.247c-.016.364-.011.239-.011,3.638h2.8C137.258,19.5,137.037,17.238,138.476,14.326Z" transform="translate(-57.275 -6.98)" fill="#3f3b39"/>
    <g id="Group_16848" data-name="Group 16848" transform="translate(76.761 12.633)">
      <path id="Path_27129" data-name="Path 27129" d="M134.457,140.165a2.7,2.7,0,0,0,2.9,2.348v-4.7A2.7,2.7,0,0,0,134.457,140.165Z" transform="translate(-134.457 -137.817)" fill="#edae6b"/>
      <path id="Path_27130" data-name="Path 27130" d="M350.985,140.165a2.7,2.7,0,0,1-2.9,2.348v-4.7A2.7,2.7,0,0,1,350.985,140.165Z" transform="translate(-327.358 -137.817)" fill="#edae6b"/>
    </g>
    <g id="Group_16849" data-name="Group 16849" transform="translate(76.758 13.894)">
      <path id="Path_27131" data-name="Path 27131" d="M134.731,151.323c-1,1.594.543,3.386,2.593,3.386v-2.075A3.071,3.071,0,0,1,134.731,151.323Z" transform="translate(-134.419 -151.323)" fill="#dd9a5e"/>
      <path id="Path_27132" data-name="Path 27132" d="M348.084,152.633v2.075c2.066,0,3.583-1.8,2.593-3.386A3.072,3.072,0,0,1,348.084,152.633Z" transform="translate(-327.355 -151.323)" fill="#dd9a5e"/>
    </g>
    <path id="Path_27133" data-name="Path 27133" d="M109.446,301.651a2.006,2.006,0,0,0,2.112-2.565l-2.009-10.352A4.051,4.051,0,0,0,107,285.61l-.517-.161-.279-.073L99.1,283.513a.3.3,0,0,1-.216-.291h0v-3.366l-.025.012h0v-.012a8,8,0,0,1-7.074,0v.012h0l-.025-.012v3.011a.472.472,0,0,1-.331.458l-7.272,2.123h0l-.518.161a4.051,4.051,0,0,0-2.546,3.124l-2.009,10.352a2.006,2.006,0,0,0,2.112,2.565Z" transform="translate(-6.764 -255.187)" fill="#edae6b"/>
    <path id="Path_27134" data-name="Path 27134" d="M81.507,348.527,83.626,337.3a4.031,4.031,0,0,1,1.821-2.693l-1.014.281h0l-.546.161a4.125,4.125,0,0,0-2.686,3.124l-2.119,10.352a2.031,2.031,0,0,0,2.228,2.565h2.424A2.031,2.031,0,0,1,81.507,348.527Z" transform="translate(-6.764 -304.628)" fill="#dd9a5e"/>
    <path id="Path_27135" data-name="Path 27135" d="M116.2,331.891l-1.513-7.812a4.048,4.048,0,0,0-2.541-3.124l-.516-.161-.278-.073-5.859-1.538v1.9a5.042,5.042,0,0,1-4.883,5.16h0a5.3,5.3,0,0,1-5.133-5.425v-1.637h0V319l-2,.584h0l-4.141,1.211h0l-.517.161a4.048,4.048,0,0,0-2.541,3.124l-1.513,7.813h0l5.753.664V337h19.925v-4.441Z" transform="translate(-11.932 -290.533)" fill="#00a3b1"/>
    <path id="Path_27136" data-name="Path 27136" d="M84.769,345.987h0l2.333.255,1.688-8.94a4.031,4.031,0,0,1,1.821-2.693l-1.014.28h0l-.546.161a4.107,4.107,0,0,0-2.686,3.124Z" transform="translate(-11.931 -304.628)" fill="#048c98"/>
    <path id="Path_27137" data-name="Path 27137" d="M187.747,321.085v-1.175l-2.926-.727v1.9a5.176,5.176,0,0,1-5.16,5.161h0a5.441,5.441,0,0,1-5.425-5.425v-1.637h0V319l-2.921.808v.867a8.447,8.447,0,0,0,8.423,8.423h0A8.036,8.036,0,0,0,187.747,321.085Z" transform="translate(-90.972 -289.992)" fill="#00a3b1"/>
    <path id="Path_27138" data-name="Path 27138" d="M174.226,320.675v-.867l.01,0v-.621h0V319l-2.921.808v.867a8.432,8.432,0,0,0,9.854,8.291A8.455,8.455,0,0,1,174.226,320.675Z" transform="translate(-90.745 -289.992)" fill="#048c98"/>
    <path id="Path_27139" data-name="Path 27139" d="M201.353,283.839h0a17.981,17.981,0,0,0,.061,2.439l3.066-1.083a1.213,1.213,0,0,0,.809-1.144v-3.475a8.873,8.873,0,0,1-2.377-.719v.012h0l-.026-.012v3.011a.476.476,0,0,1-.349.458l-1.193.33.007,0Z" transform="translate(-117.905 -254.263)" fill="#dd9a5e"/>
    <path id="Path_27140" data-name="Path 27140" d="M171.327,103.721c-1.927,3.363-6.019,2.846-7.471,2.538a.445.445,0,0,0-.525.452h0c0,6.271-.023,6.269.072,7.057.947,7.651,10.167,10.644,15.034,4.7a9.248,9.248,0,0,0,2.07-5.866v-5.887h0a.445.445,0,0,0-.525-.452c-1.453.308-5.544.825-7.471-2.538A.674.674,0,0,0,171.327,103.721Z" transform="translate(-83.342 -94.133)" fill="#edae6b"/>
    <path id="Path_27141" data-name="Path 27141" d="M165.974,141.387a14.356,14.356,0,0,1-.218-3.3c0-4.981-.027-4.647.062-4.8a11.6,11.6,0,0,1-1.936-.222.461.461,0,0,0-.551.452c0,6.321-.024,6.264.075,7.057a9.011,9.011,0,0,0,10.147,7.757A9.019,9.019,0,0,1,165.974,141.387Z" transform="translate(-83.493 -121.084)" fill="#dd9a5e"/>
    <path id="Path_27142" data-name="Path 27142" d="M105.514,43.966c0-.032-.5-2.446-.5-2.455-1.541-7.175-1.418-7.748-2.043-8.851a4.691,4.691,0,0,0-2.51-2.062c-4.968-1.252,6.328,1.547-7.643-1.923V26.518a9.336,9.336,0,0,0,2.729-2.142h0l.006-.007a9.245,9.245,0,0,0,2.01-3.875,8.866,8.866,0,0,1,1.443,5.385,1.662,1.662,0,0,0,1.651,1.761A1.68,1.68,0,0,0,101,27.6l2.084-.432a2.086,2.086,0,0,0,1.562-2.679,14.109,14.109,0,0,0-4.25-6.531,2.738,2.738,0,0,0-.322-1.619,2.635,2.635,0,0,0,.4-1.163.688.688,0,0,0,.046-.246c-.155-1.762.652-5.3-1.777-9.236a.691.691,0,1,0-1.176.727,10.913,10.913,0,0,1,1.571,6.169,3.619,3.619,0,0,0-1.53-.551,1.122,1.122,0,0,0-1.136-.446c-4.4.888-6.161-1.166-6.717-2.09a1.379,1.379,0,0,0-2.364,0c-.556.924-2.323,2.978-6.717,2.09a1.121,1.121,0,0,0-1.136.446,3.622,3.622,0,0,0-1.53.552,10.89,10.89,0,0,1,1.575-6.176A10.572,10.572,0,0,1,95.6,4.081a.691.691,0,1,0,.9-1.048l-.024-.021A11.956,11.956,0,0,0,76.629,11.97c.017,3.114-.037,2.994.047,3.211a2.63,2.63,0,0,0,.381,1.125,2.741,2.741,0,0,0-.342,1.656,14.109,14.109,0,0,0-4.25,6.531,2.086,2.086,0,0,0,1.563,2.679,18.671,18.671,0,0,0,2.425.467A1.661,1.661,0,0,0,78.1,25.879a8.869,8.869,0,0,1,1.474-5.433,9.289,9.289,0,0,0,4.714,6.05v1.977c-5.328,1.474-7.427,2.043-7.689,2.14a4.564,4.564,0,0,0-2.987,3.477c-2.051,10.021-2.017,9.85-2.02,9.876a2.99,2.99,0,0,0,.563,2.361,2.817,2.817,0,0,0,2.238.864h7.314a.691.691,0,1,0,0-1.382H79.248V38.6a.691.691,0,1,0-1.382,0v2.915L73.6,41.045l1.368-6.681a3.339,3.339,0,0,1,2.582-2.592l2.508-.694A8.65,8.65,0,0,0,92.644,38.71a.691.691,0,1,0-.652-1.219,7.268,7.268,0,0,1-10.551-6.5v-.3l1.4-.386v.822a5.851,5.851,0,0,0,5.845,5.845,5.6,5.6,0,0,0,5.593-5.593v-.922l1.4.347a7.137,7.137,0,0,1-1.439,4.784.691.691,0,0,0,1.094.844,8.208,8.208,0,0,0,1.726-5.052v-.232a18.468,18.468,0,0,1,3.477.992,3.18,3.18,0,0,1,1.608,2.224l1.367,6.678-4.259.465V38.6a.691.691,0,1,0-1.382,0v7.213H84.936a.691.691,0,1,0,0,1.382h17.777A2.592,2.592,0,0,0,105.514,43.966ZM97.8,19.025h0c.042-.547.024-1.008.028-1.231A3.62,3.62,0,0,0,99,17.367,1.372,1.372,0,0,1,97.8,19.025Zm5.532,5.892a.7.7,0,0,1-.528.9l-2.084.432a.272.272,0,0,1-.236-.061.278.278,0,0,1-.1-.231,10.218,10.218,0,0,0-1.44-5.861,2.728,2.728,0,0,0,.908-.77A13.077,13.077,0,0,1,103.331,24.917Zm-5.5-8.542V13.491A1.452,1.452,0,0,1,97.827,16.376Zm-19.709.969a3.605,3.605,0,0,0,1.209.449c.005.285-.015.683.029,1.235C79.319,19.026,77.918,18.179,78.118,17.344Zm1.209-3.853v2.882A1.451,1.451,0,0,1,79.327,13.492Zm-2.6,12.468a.278.278,0,0,1-.332.292c-1.877-.454-2.283-.309-2.55-.768a.69.69,0,0,1-.062-.566,13.078,13.078,0,0,1,3.477-5.588,2.724,2.724,0,0,0,.908.77A10.216,10.216,0,0,0,76.725,25.959Zm3.984-12.952c3.082.533,6.244-.088,7.868-2.785,1.627,2.7,4.793,3.317,7.868,2.785-.017,4.96.028,5.225-.026,5.913a7.938,7.938,0,0,1-4.441,6.471,8.183,8.183,0,0,1-4.689.667,8.308,8.308,0,0,1-2.072-.647C79.856,22.848,80.741,18.058,80.709,13.008ZM77.863,42.9v2.909H74.4c-1.1,0-1.591-.469-1.436-1.63l.363-1.775ZM92.894,31.383a4.216,4.216,0,0,1-4.211,4.211,4.468,4.468,0,0,1-4.463-4.463v-1.2l.617-.171a1.146,1.146,0,0,0,.838-1.1V27.08a9.274,9.274,0,0,0,5.762.014v1.9a.975.975,0,0,0,.741.947l.717.178Zm9.819,14.426H99.251V42.9l4.534-.5.363,1.775C104.3,45.343,103.808,45.809,102.713,45.809Z" transform="translate(0 0)"/>
  </g>
</svg>
