<svg xmlns="http://www.w3.org/2000/svg" width="34" height="47.19" viewBox="0 0 34 47.19">
  <g id="girl" transform="translate(-71.557 -0.001)">
    <g id="Group_16850" data-name="Group 16850" transform="translate(71.556 0.001)">
      <path id="Path_27143" data-name="Path 27143" d="M105.514,43.966c0-.032-.5-2.446-.5-2.455-1.541-7.175-1.418-7.748-2.043-8.851a4.69,4.69,0,0,0-2.51-2.062c-4.968-1.252,6.328,1.547-7.643-1.923V26.518a9.336,9.336,0,0,0,2.729-2.142l.006-.007a9.245,9.245,0,0,0,2.01-3.875,8.866,8.866,0,0,1,1.443,5.385,1.662,1.662,0,0,0,1.651,1.761A1.679,1.679,0,0,0,101,27.6l2.084-.432a2.086,2.086,0,0,0,1.562-2.679,14.109,14.109,0,0,0-4.25-6.531,2.738,2.738,0,0,0-.322-1.619,2.635,2.635,0,0,0,.4-1.163.688.688,0,0,0,.046-.246c-.155-1.762.652-5.3-1.777-9.236a.691.691,0,1,0-1.176.727,10.913,10.913,0,0,1,1.571,6.169,3.619,3.619,0,0,0-1.53-.551,1.122,1.122,0,0,0-1.136-.446c-4.4.888-6.161-1.166-6.717-2.09a1.379,1.379,0,0,0-2.364,0c-.556.924-2.323,2.978-6.717,2.09a1.121,1.121,0,0,0-1.136.446,3.622,3.622,0,0,0-1.53.552,10.891,10.891,0,0,1,1.575-6.176A10.572,10.572,0,0,1,95.6,4.081a.715.715,0,0,0,.974-.074.715.715,0,0,0-.074-.974l-.024-.021A11.956,11.956,0,0,0,76.629,11.97c.017,3.114-.037,2.994.047,3.211a2.631,2.631,0,0,0,.381,1.125,2.741,2.741,0,0,0-.342,1.656,14.109,14.109,0,0,0-4.25,6.531,2.086,2.086,0,0,0,1.563,2.679,18.672,18.672,0,0,0,2.426.467A1.661,1.661,0,0,0,78.1,25.879a8.87,8.87,0,0,1,1.474-5.433,9.29,9.29,0,0,0,4.714,6.05v1.977c-5.328,1.474-7.427,2.043-7.689,2.14a4.564,4.564,0,0,0-2.987,3.477c-2.051,10.021-2.017,9.85-2.02,9.876a2.989,2.989,0,0,0,.563,2.361,2.817,2.817,0,0,0,2.238.864h7.314a.691.691,0,1,0,0-1.382H79.247V38.6a.691.691,0,0,0-1.382,0v2.915L73.6,41.045l1.368-6.681a3.339,3.339,0,0,1,2.582-2.592l2.508-.694A8.65,8.65,0,0,0,92.644,38.71a.691.691,0,0,0-.652-1.219,7.268,7.268,0,0,1-10.551-6.5v-.3l1.4-.386v.822a5.851,5.851,0,0,0,5.845,5.845,5.6,5.6,0,0,0,5.593-5.593v-.922l1.4.347a7.137,7.137,0,0,1-1.439,4.784.691.691,0,1,0,1.094.844,8.208,8.208,0,0,0,1.726-5.052v-.232a18.467,18.467,0,0,1,3.477.992,3.181,3.181,0,0,1,1.608,2.224l1.367,6.678-4.259.465V38.6a.691.691,0,0,0-1.382,0v7.213H84.936a.691.691,0,1,0,0,1.382h17.777A2.592,2.592,0,0,0,105.514,43.966ZM99.853,19.329a13.077,13.077,0,0,1,3.477,5.588.7.7,0,0,1-.528.9l-2.084.432a.272.272,0,0,1-.236-.061.278.278,0,0,1-.1-.231,10.217,10.217,0,0,0-1.44-5.861A2.725,2.725,0,0,0,99.853,19.329Zm-2.027-5.837a1.452,1.452,0,0,1,0,2.884Zm0,4.3A3.622,3.622,0,0,0,99,17.366a1.372,1.372,0,0,1-1.2,1.658C97.841,18.478,97.822,18.017,97.827,17.794Zm-18.5-4.3v2.882A1.451,1.451,0,0,1,79.326,13.492Zm-2.6,12.468a.278.278,0,0,1-.332.292c-1.877-.454-2.283-.309-2.55-.768a.69.69,0,0,1-.062-.566,13.078,13.078,0,0,1,3.477-5.588,2.724,2.724,0,0,0,.908.77A10.217,10.217,0,0,0,76.724,25.959Zm1.393-8.615a3.606,3.606,0,0,0,1.209.449c.005.285-.015.683.029,1.235C79.319,19.026,77.918,18.179,78.118,17.344ZM77.862,42.9v2.909H74.4c-1.1,0-1.591-.469-1.436-1.63l.363-1.775Zm2.846-29.893c3.082.533,6.244-.088,7.868-2.785,1.627,2.7,4.793,3.317,7.868,2.785-.017,4.96.028,5.225-.026,5.913a7.938,7.938,0,0,1-4.441,6.471,8.183,8.183,0,0,1-4.689.667,8.308,8.308,0,0,1-2.072-.647C79.856,22.848,80.741,18.058,80.709,13.008ZM92.894,31.383a4.216,4.216,0,0,1-4.211,4.211,4.468,4.468,0,0,1-4.463-4.463v-1.2l.617-.171a1.146,1.146,0,0,0,.838-1.1V27.08a9.274,9.274,0,0,0,5.762.014v1.9a.975.975,0,0,0,.741.947l.717.178Zm9.819,14.426H99.251V42.9l4.534-.5.363,1.775C104.3,45.343,103.807,45.809,102.713,45.809Z" transform="translate(-71.556 -0.001)" fill="#b4b4b4"/>
    </g>
  </g>
</svg>
