<svg xmlns="http://www.w3.org/2000/svg" width="32" height="32" viewBox="0 0 32 32">
  <g id="goal_planning" transform="translate(21182 15581)">
    <g id="Group_17898" data-name="Group 17898" transform="translate(-21179 -15577.5)">
      <path id="golf" d="M7.5,8.179l-.016-2.1,3.754-1.556a1.5,1.5,0,0,0,.2-2.548.628.628,0,0,0-.075-.049L8.173.158A1.5,1.5,0,0,0,6,1.5V8.179Zm3.053-4.991L7.479,4.462,7.471,1.486Z" transform="translate(13.945 0.002)" fill="#b4b4b4"/>
      <path id="mountains" d="M23.223,27.408H13.628a2.721,2.721,0,0,1-2.4-1.486,3.131,3.131,0,0,1-.031-2.914l4.8-9.387a2.7,2.7,0,0,1,4.872,0L25.656,23a3.137,3.137,0,0,1-.03,2.919,2.725,2.725,0,0,1-2.4,1.488ZM18.428,14.435a.6.6,0,0,0-.541.334l-4.8,9.387a.614.614,0,0,0,.548.894h9.595a.6.6,0,0,0,.541-.324.609.609,0,0,0,0-.577l-4.8-9.378h0A.6.6,0,0,0,18.428,14.435ZM8.66,26.229a1.134,1.134,0,0,0-1.083-1.179H3.626a1.441,1.441,0,0,1-1.255-.779A1.715,1.715,0,0,1,2.345,22.7l7.2-14.506a1.427,1.427,0,0,1,1.28-.833h0a1.423,1.423,0,0,1,1.281.833l1.328,2.674a1.039,1.039,0,0,0,1.468.476,1.236,1.236,0,0,0,.437-1.6L14.012,7.07A3.589,3.589,0,0,0,10.827,5,3.589,3.589,0,0,0,7.642,7.07L.439,21.576a4.261,4.261,0,0,0,.074,3.9,3.579,3.579,0,0,0,3.113,1.93H7.578A1.134,1.134,0,0,0,8.66,26.229Z" transform="translate(-0.002 -2.408)" fill="#b4b4b4"/>
    </g>
    <rect id="icon_container" width="32" height="32" transform="translate(-21182 -15581)" fill="none"/>
  </g>
</svg>
