<svg xmlns="http://www.w3.org/2000/svg" width="96" height="96" viewBox="0 0 96 96">
  <g id="graduated_1_" data-name="graduated (1)" transform="translate(-0.01 0)">
    <g id="Group_18747" data-name="Group 18747" transform="translate(0.01 62.819)">
      <g id="Group_18746" data-name="Group 18746">
        <path id="Path_34647" data-name="Path 34647" d="M78.546,338.742l-10.288-3.58a2.012,2.012,0,0,0-2.132.536c-5.036,5.5-11.472,8.536-18.116,8.536s-13.08-3.028-18.12-8.536a2.013,2.013,0,0,0-2.132-.536l-10.288,3.58A26.019,26.019,0,0,0,.01,363.3v2.936a2,2,0,0,0,2,2h92a2,2,0,0,0,2-2V363.3A26.013,26.013,0,0,0,78.546,338.742ZM92.01,364.234h-88V363.3a22.02,22.02,0,0,1,14.772-20.78l9.076-3.156a28.328,28.328,0,0,0,20.152,8.872,28.329,28.329,0,0,0,20.152-8.872l9.076,3.156A22.02,22.02,0,0,1,92.01,363.3v.936Z" transform="translate(-0.01 -335.052)" fill="#e27e28"/>
      </g>
    </g>
    <g id="Group_18749" data-name="Group 18749" transform="translate(36.01 36.003)">
      <g id="Group_18748" data-name="Group 18748">
        <path id="Path_34648" data-name="Path 34648" d="M198.011,192.021h-4a2,2,0,1,0,0,4h4a2,2,0,1,0,0-4Z" transform="translate(-192.011 -192.021)" fill="#e27e28"/>
      </g>
    </g>
    <g id="Group_18751" data-name="Group 18751" transform="translate(52.01 36.003)">
      <g id="Group_18750" data-name="Group 18750">
        <path id="Path_34649" data-name="Path 34649" d="M283.344,192.021h-4a2,2,0,0,0,0,4h4a2,2,0,0,0,0-4Z" transform="translate(-277.344 -192.021)" fill="#e27e28"/>
      </g>
    </g>
    <g id="Group_18753" data-name="Group 18753" transform="translate(20.01 20.003)">
      <g id="Group_18752" data-name="Group 18752">
        <path id="Path_34650" data-name="Path 34650" d="M158.655,115.324c.012-.212.02-.424.02-.636v-6a2,2,0,0,0-4,0v6a11.09,11.09,0,0,1-.108,1.324l-.056.5a2.02,2.02,0,0,0,.572,1.62,2.05,2.05,0,0,0,1.616.58c.02,0,.04,0,.06-.008.568.216,1.916,2.316,1.916,5.984,0,3.864-1.488,6.056-2.116,5.912a1.984,1.984,0,0,0-1.808-.156,2.015,2.015,0,0,0-1.188,1.372c-2.8,11.288-10.392,18.872-18.888,18.872s-16.084-7.584-18.884-18.872a2.033,2.033,0,0,0-1.248-1.328,2.139,2.139,0,0,0-1.868.2c-.5,0-2-2.128-2-6,0-3.664,1.348-5.768,1.912-5.98a.314.314,0,0,0,.06.008,2.081,2.081,0,0,0,1.616-.58,2,2,0,0,0,.572-1.62l-.056-.5a12.134,12.134,0,0,1-.1-1.328v-6a2,2,0,0,0-4,0v6c0,.176,0,.348.016.52-2.388,1.3-4.016,4.948-4.016,9.48,0,5.564,2.456,9.792,5.752,9.992,3.636,12.048,12.392,20.008,22.248,20.008s18.612-7.96,22.248-20.008c3.3-.2,5.752-4.428,5.752-9.992C162.675,120.264,161.119,116.684,158.655,115.324Z" transform="translate(-106.675 -106.688)" fill="#e27e28"/>
      </g>
    </g>
    <g id="Group_18755" data-name="Group 18755" transform="translate(12.01 0)">
      <g id="Group_18754" data-name="Group 18754">
        <path id="Path_34651" data-name="Path 34651" d="M136,5.868a2,2,0,0,0-1.772-1.852l-36-4a1.755,1.755,0,0,0-.708.048l-32,8a2,2,0,0,0,.26,3.928l36,4a2.084,2.084,0,0,0,.224.012,1.982,1.982,0,0,0,.484-.06l32-8A2,2,0,0,0,136,5.868Zm-34.132,6.108L77.289,9.244,98.145,4.032l24.584,2.732Z" transform="translate(-64.008 0)" fill="#e27e28"/>
      </g>
    </g>
    <g id="Group_18757" data-name="Group 18757" transform="translate(24.01 6.004)">
      <g id="Group_18756" data-name="Group 18756">
        <path id="Path_34652" data-name="Path 34652" d="M174.009,32.021a2,2,0,0,0-2,2V46.789c-2.236,1-8.524,3.232-20,3.232s-17.772-2.236-20-3.232V36.021a2,2,0,0,0-4,0v12a2.012,2.012,0,0,0,.936,1.7c.284.176,7.048,4.3,23.064,4.3s22.78-4.128,23.064-4.308a2,2,0,0,0,.936-1.692v-14A2,2,0,0,0,174.009,32.021Z" transform="translate(-128.009 -32.021)" fill="#e27e28"/>
      </g>
    </g>
    <g id="Group_18759" data-name="Group 18759" transform="translate(76.009 4.004)">
      <g id="Group_18758" data-name="Group 18758">
        <path id="Path_34653" data-name="Path 34653" d="M416.755,41.942l-3.416-3.416V23.354a2,2,0,0,0-4,0V38.526l-3.412,3.416a1.989,1.989,0,0,0-.376,2.308l4,8a2,2,0,0,0,3.58,0l4-8A2,2,0,0,0,416.755,41.942Zm-5.416,4.94-1.568-3.132,1.568-1.568,1.568,1.568Z" transform="translate(-405.338 -21.354)" fill="#e27e28"/>
      </g>
    </g>
  </g>
</svg>
