<svg xmlns="http://www.w3.org/2000/svg" width="34" height="47.168" viewBox="0 0 34 47.168">
  <g id="grandmother_3_" data-name="grandmother (3)" transform="translate(-71.469)">
    <g id="Group_16959" data-name="Group 16959" transform="translate(73.261)">
      <g id="Group_16958" data-name="Group 16958">
        <g id="Group_16957" data-name="Group 16957">
          <path id="Path_27330" data-name="Path 27330" d="M322.931,327.921l-.006.008Z" transform="translate(-301.535 -297.711)" fill="#b4b4b4"/>
          <path id="Path_27331" data-name="Path 27331" d="M322.992,327.89l0,0Z" transform="translate(-301.594 -297.683)" fill="#b4b4b4"/>
          <path id="Path_27332" data-name="Path 27332" d="M209.759,348.66Z" transform="translate(-198.778 -316.54)" fill="#b4b4b4"/>
          <path id="Path_27333" data-name="Path 27333" d="M122.578,44.3c-.024-.456-2.092-10.7-2.123-10.813a4.613,4.613,0,0,0-2.762-3.112c-.658-.27-7.363-2.031-7.575-2.177a.619.619,0,0,1-.251-.557,11.984,11.984,0,0,0,5.289-2.523c3.121-2.658,4.376-6.947,4.223-10.968A13.536,13.536,0,0,0,118.1,7.838a.69.69,0,1,0-1.249.588A12.159,12.159,0,0,1,118,14.118a15.258,15.258,0,0,1-1.127,6.371,9.736,9.736,0,0,1-7,5.729v-.01a9.16,9.16,0,0,0,4.89-7.663v-.01c.009-.124.011-.561.011-.57A3.029,3.029,0,0,0,117.4,15.13a3.029,3.029,0,0,0-2.632-2.835v-.24A2.07,2.07,0,0,0,112.892,10a5.559,5.559,0,0,1-3.559-1.808,1.734,1.734,0,0,0-2.362-.144c-3.019,2.49-7.183,3.1-8.833,3.244a1.811,1.811,0,0,0-1.454.969,3.062,3.062,0,0,0-2.839,2.867,3.029,3.029,0,0,0,2.631,2.835,9.213,9.213,0,0,0,2.46,6.378l.04.043a9.234,9.234,0,0,0,2.173,1.7A9.659,9.659,0,0,1,94.613,20.4a15,15,0,0,1-1.087-6.222s-.011-.37-.011-.547A12.249,12.249,0,0,1,105.744,1.382h.041a12.185,12.185,0,0,1,9.437,4.461.69.69,0,1,0,1.065-.879A13.56,13.56,0,0,0,105.785,0h-.045A13.629,13.629,0,0,0,92.146,14.145c-.152,3.987,1.08,8.191,4.071,10.837a11.8,11.8,0,0,0,5.136,2.584.7.7,0,0,1-.179.568c-.4.383-7.55,1.817-8.847,2.937a4.734,4.734,0,0,0-.369.328h0c-.038.035-.058.056-.111.112l-.011.011c-1.223,1.269-1.188,2.876-1.448,3.8a.69.69,0,1,0,1.353.27c.251-1.259.294-2.306,1.152-3.178a3.532,3.532,0,0,1,1.244-.8l.484-.143,5.056-1.413,1.679,2.062.573.7a4.955,4.955,0,0,0,3.856,1.834c2.962,0,4.168-2.342,4.527-2.658l1.45-1.78v0h0l.023-.029.008-.009-.007.008.012-.015.009-.011,0,0,.006-.007,0,0,0,0,.013-.016c4.7,1.313,5.592,1.431,6.378,2.163h0a2.881,2.881,0,0,1,.289.3l.028.035c.74.917.513.952,2.656,11.513a1.619,1.619,0,0,1-.257,1.267c-.545.591-1.655.285-4.636.369V39.273a.69.69,0,1,0-1.38,0v6.513h-1.718a.691.691,0,0,0,0,1.382h6.558A2.546,2.546,0,0,0,122.578,44.3Zm-7.81-30.583a1.429,1.429,0,0,1,0,2.835ZM96.475,16.547a1.429,1.429,0,0,1,0-2.834Zm2.183,4.994c-1.007-2.035-.775-2.981-.8-8.433a.447.447,0,0,1,.4-.438,17.991,17.991,0,0,0,9.589-3.554.348.348,0,0,1,.48.025,6.917,6.917,0,0,0,4.447,2.237.68.68,0,0,1,.614.677c0,.01,0,.877,0,.868,0,5.526,0,5.144,0,5.253a7.765,7.765,0,0,1-14.728,3.366Zm4.617,10.712h5.019A3.6,3.6,0,0,1,103.275,32.254Zm6.175-1.382h-7.33l-.993-1.219a2.135,2.135,0,0,0,.8-.353,1.967,1.967,0,0,0,.792-1.341c.029-.232.012-.331.017-1.174a9.255,9.255,0,0,0,3,.467,8.626,8.626,0,0,0,2.755-.46c.051.652-.233,1.647.71,2.432a1.943,1.943,0,0,0,.721.38h0l.46.129Zm2.375-.729,0,0Z" transform="translate(-90.374)" fill="#b4b4b4"/>
          <path id="Path_27334" data-name="Path 27334" d="M323.016,327.7l.016-.02h0Z" transform="translate(-301.618 -297.491)" fill="#b4b4b4"/>
          <path id="Path_27335" data-name="Path 27335" d="M323.418,327.329l.006-.007,0,0Z" transform="translate(-301.983 -297.168)" fill="#b4b4b4"/>
        </g>
      </g>
    </g>
    <g id="Group_16961" data-name="Group 16961" transform="translate(87.793 39.466)">
      <g id="Group_16960" data-name="Group 16960">
        <circle id="Ellipse_555" data-name="Ellipse 555" cx="0.853" cy="0.853" r="0.853" fill="#b4b4b4"/>
      </g>
    </g>
    <g id="Group_16963" data-name="Group 16963" transform="translate(87.793 36.545)">
      <g id="Group_16962" data-name="Group 16962" transform="translate(0)">
        <circle id="Ellipse_556" data-name="Ellipse 556" cx="0.853" cy="0.853" r="0.853" fill="#b4b4b4"/>
      </g>
    </g>
    <g id="Group_16965" data-name="Group 16965" transform="translate(87.793 42.657)">
      <g id="Group_16964" data-name="Group 16964">
        <circle id="Ellipse_557" data-name="Ellipse 557" cx="0.853" cy="0.853" r="0.853" fill="#b4b4b4"/>
      </g>
    </g>
    <g id="Group_16967" data-name="Group 16967" transform="translate(71.469 37.661)">
      <g id="Group_16966" data-name="Group 16966">
        <path id="Path_27336" data-name="Path 27336" d="M93.461,419.823H79.408v-6.7a.711.711,0,1,0-1.422,0v6.7H74.394c-.8,0-1.368-.225-1.48-1.006-.08-.545-.023-.493,1.109-6.228a.711.711,0,0,0-1.4-.278c-1.154,5.8-1.111,5.568-1.12,5.641a2.939,2.939,0,0,0,.621,2.446h0a2.928,2.928,0,0,0,2.267.847H93.461a.711.711,0,1,0,0-1.422Zm-20.492-.758h0Z" transform="translate(-71.469 -411.739)" fill="#b4b4b4"/>
      </g>
    </g>
  </g>
</svg>
