<svg xmlns="http://www.w3.org/2000/svg" width="34" height="47.16" viewBox="0 0 34 47.16">
  <g id="grandfather_2_" data-name="grandfather (2)" transform="translate(-71.436 -0.001)">
    <g id="Group_16969" data-name="Group 16969" transform="translate(87.626 39.501)">
      <g id="Group_16968" data-name="Group 16968">
        <circle id="Ellipse_558" data-name="Ellipse 558" cx="0.848" cy="0.848" r="0.848" fill="#b4b4b4"/>
      </g>
    </g>
    <g id="Group_16971" data-name="Group 16971" transform="translate(87.626 42.674)">
      <g id="Group_16970" data-name="Group 16970" transform="translate(0)">
        <circle id="Ellipse_559" data-name="Ellipse 559" cx="0.848" cy="0.848" r="0.848" fill="#b4b4b4"/>
      </g>
    </g>
    <g id="Group_16974" data-name="Group 16974" transform="translate(71.436 0.002)">
      <g id="Group_16973" data-name="Group 16973" transform="translate(0 0)">
        <g id="Group_16972" data-name="Group 16972">
          <path id="Path_27337" data-name="Path 27337" d="M103.353,33.677a4.615,4.615,0,0,0-.478-1.278h0a4.682,4.682,0,0,0-2.487-2.094c-.266-.1-5.638-1.635-5.648-1.638L92.7,27.322V26.2a9.264,9.264,0,0,0,4.9-7.662v-.01c.009-.128.011-.561.011-.57a2.88,2.88,0,0,0,2.44-3.814,18.85,18.85,0,0,0,.483-4.566.691.691,0,0,0-1.381.046A15.968,15.968,0,0,1,98.9,12.8a3.563,3.563,0,0,0-1.293-.51,4.179,4.179,0,0,0-1.794-3.806l0,0c-.084-.061-.173-.119-.192-.131a1.539,1.539,0,0,1-.6-2.323,15.76,15.76,0,0,0,1.062-1.612,3.966,3.966,0,0,1,2.471,2.3.691.691,0,0,0,1.262-.564A5.264,5.264,0,0,0,96.1,3,11.368,11.368,0,0,0,80.717,3a5.128,5.128,0,0,0-3.063,2.026c-1.467,2.005-1.762,5.081-.878,9.14a.688.688,0,0,0,.029.093,2.9,2.9,0,0,0,2.484,3.7,9.229,9.229,0,0,0,4.885,8.23v1.148L82.18,28.654c-5.32,1.538-7.005,1.669-8.16,3.71-.576,1.053-.433.978-2.535,11.533,0,.012,0,.025-.006.037a2.549,2.549,0,0,0,2.308,3.2c.426.047-.562.017,18.751.026a.691.691,0,1,0,0-1.382H79.151V39.265a.691.691,0,0,0-1.382,0v6.513c-3.634-.006-3.548.013-3.829-.018-.8-.09-1.244-.522-1.1-1.613,2.228-11.118,1.978-10.2,2.259-10.869A3.138,3.138,0,0,1,76.356,31.9h0c.778-.449.723-.267,3.782-1.214l1.427,2.361a.691.691,0,1,0,1.183-.715l-1.235-2.043.619-.179,2.578,4.266a1.514,1.514,0,0,0,2.214.42l1.525-1.165,1.525,1.165a1.513,1.513,0,0,0,2.214-.42l2.574-4.26.667.193-2.519,4.12a5.216,5.216,0,0,1-8.5.561.691.691,0,0,0-1.079.864,6.6,6.6,0,0,0,10.76-.7L96.807,30.7c2.908.844,3.066.812,3.725,1.2h0l.011.006h0a3.571,3.571,0,0,1,.488.362l-.011-.009a2.869,2.869,0,0,1,.642.8l.105.207a3.688,3.688,0,0,1,.255.793c2.156,10.86,2.036,10.088,2.032,10.456-.012,1.567-1.09,1.254-4.925,1.26V39.265a.691.691,0,1,0-1.382,0v6.513H95.815a.691.691,0,1,0,0,1.382c7.192-.009,6.858.02,7.274-.026a2.47,2.47,0,0,0,2.347-2.717C105.425,43.942,103.407,33.921,103.353,33.677Zm-5.744-19.97a1.585,1.585,0,0,1,1.254,1.417,1.585,1.585,0,0,1-1.254,1.417ZM79.289,16.542a1.428,1.428,0,0,1,0-2.834Zm0-4.978c0,.071,0,.053,0,.135v.591a3.551,3.551,0,0,0-1.362.557c-.529-3.087-.25-5.486.822-6.977A3.784,3.784,0,0,1,80.8,4.4a15.185,15.185,0,0,0,1.073,1.632,1.542,1.542,0,0,1-.607,2.328A4.186,4.186,0,0,0,79.294,11.564Zm1.853,9.2c-.661-1.8-.475-2.967-.475-9.074,0-.028,0-.025,0,0A2.835,2.835,0,0,1,81.893,9.6c.2-.141.288-.179.365-.242A2.892,2.892,0,0,0,83,5.229a14.366,14.366,0,0,1-.977-1.475,9.887,9.887,0,0,1,12.845,0,10.258,10.258,0,0,1-.629.988l-.008.011c-.11.157-.2.285-.34.476a2.892,2.892,0,0,0,.745,4.133.7.7,0,0,0,.083.058c.123.073.25.16.286.187a2.725,2.725,0,0,1,1.218,2.068h0v0h0c0,.043,0,.816,0,5.657a9.012,9.012,0,0,1-.474,3.43,1.023,1.023,0,0,0-.67-.894,5.838,5.838,0,0,1-2.035-1.221c-1.242-1.242-3.141-2.085-4.6-1.241-1.457-.844-3.356,0-4.6,1.241a5.838,5.838,0,0,1-2.035,1.221A1.023,1.023,0,0,0,81.147,20.765Zm12.723.09a4.583,4.583,0,0,1-4.885-.8.691.691,0,0,0-.535-.254h0a.691.691,0,0,0-.534.254,4.583,4.583,0,0,1-4.885.8,6.551,6.551,0,0,0,1.8-1.229c.761-.761,2.2-1.622,3.086-.913a.691.691,0,0,0,1.069,0c.884-.709,2.325.152,3.087.913A6.548,6.548,0,0,0,93.87,20.855ZM82.353,22.918a7.489,7.489,0,0,1-.819-1.27,6.511,6.511,0,0,0,3.327.959A6.105,6.105,0,0,0,88.449,21.4a6.1,6.1,0,0,0,3.588,1.207,6.671,6.671,0,0,0,3.326-.958A7.786,7.786,0,0,1,82.353,22.918Zm3.628,10.8c-.12-.023.045.112-2.593-4.206l1.323-.872L87.5,32.612C86.048,33.694,86.095,33.74,85.981,33.719Zm-.425-6.279v-.661a9.2,9.2,0,0,0,5.762.008v.688l-2.869,4.081Zm5.45,6.218a.131.131,0,0,1-.192.036L89.4,32.612l2.792-3.972,1.323.872Z" transform="translate(-71.436 -0.002)" fill="#b4b4b4"/>
          <path id="Path_27338" data-name="Path 27338" d="M340.577,126.732v0h0v0Z" transform="translate(-315.787 -115.057)" fill="#b4b4b4"/>
        </g>
      </g>
    </g>
    <g id="Group_16976" data-name="Group 16976" transform="translate(73.899 32.708)">
      <g id="Group_16975" data-name="Group 16975">
        <path id="Path_27339" data-name="Path 27339" d="M97.56,355.09v0h0Z" transform="translate(-97.56 -355.087)" fill="#b4b4b4"/>
      </g>
    </g>
  </g>
</svg>
