<svg xmlns="http://www.w3.org/2000/svg" width="33.998" height="47.157" viewBox="0 0 33.998 47.157">
  <g id="grandfather_1_" data-name="grandfather (1)" transform="translate(-71.436 -0.003)">
    <path id="Path_27340" data-name="Path 27340" d="M109.385,287.738a4,4,0,0,0-2.927-2.809l-5.21-1.568-2.433-1.669v-2l-.025.012h0v-.012a8.1,8.1,0,0,1-7.078,0v.012h0l-.025-.012c0,.01,0,1.962,0,2.022l-2.395,1.643-5.248,1.576-.481.148a4.023,4.023,0,0,0-2.547,3.082c-2.118,11.066-2.035,10.524-2.043,10.915a1.943,1.943,0,0,0,2.146,2.116h0c30.252,0,28.377.013,28.684-.023a1.817,1.817,0,0,0,1.731-2C111.532,298.831,109.52,288.206,109.385,287.738Z" transform="translate(-6.81 -254.749)" fill="#00a3b1"/>
    <path id="Path_27341" data-name="Path 27341" d="M81.335,346.465c-.005-.587,2.173-12.18,2.215-12.334a3.951,3.951,0,0,1,1.5-2.146l-.79.228-.038.011-.5.148a4.066,4.066,0,0,0-2.65,3.082l-2.091,10.5a1.99,1.99,0,0,0,2.2,2.531h2.392C82.076,348.485,81.345,347.73,81.335,346.465Z" transform="translate(-6.786 -302.044)" fill="#048c98"/>
    <path id="Path_27342" data-name="Path 27342" d="M183.9,283.362l-2.531-1.669v-2l-.026.012h0v-.012a8.737,8.737,0,0,1-7.363,0v.012h0l-.026-.012c0,.01,0,1.962,0,2.022l-2.491,1.643-2.088.6,3.068,5.076a6.132,6.132,0,0,0,10.479.027l3.106-5.081Z" transform="translate(-89.225 -254.258)" fill="silver"/>
    <path id="Path_27343" data-name="Path 27343" d="M174.526,322.872l-3.044-5.036-.025.016-2.088.6,3.068,5.076a6.137,6.137,0,0,0,8.125,2.251A6.1,6.1,0,0,1,174.526,322.872Z" transform="translate(-89.075 -288.803)" fill="#afafb2"/>
    <g id="Group_16977" data-name="Group 16977" transform="translate(82.235 27.516)">
      <path id="Path_27344" data-name="Path 27344" d="M262.386,302.317l-2.958,4.9a.854.854,0,0,1-1.25.237l-2.019-1.542,3.7-5.259Z" transform="translate(-249.945 -300.648)" fill="#dadada"/>
      <path id="Path_27345" data-name="Path 27345" d="M191.2,302.473l2.945,4.9a.854.854,0,0,0,1.25.237l2.02-1.542-3.723-5.242Z" transform="translate(-191.197 -300.813)" fill="#dadada"/>
    </g>
    <path id="Path_27346" data-name="Path 27346" d="M224.658,276.688l-.026.012h0v-.012a8.737,8.737,0,0,1-7.363,0v.012h0l-.026-.012c0,3.165,0,2.073,0,2.309l3.723,5.242,3.7-5.259C224.658,278.138,224.658,277.548,224.658,276.688Z" transform="translate(-132.511 -251.381)" fill="#dd9a5e"/>
    <path id="Path_27347" data-name="Path 27347" d="M220.919,277.5a8.755,8.755,0,0,1-3.654-.813v.012h0l-.026-.012c0,3.165,0,2.073,0,2.309l3.683,5.185Z" transform="translate(-132.431 -251.378)" fill="#d38d54"/>
    <path id="Path_27348" data-name="Path 27348" d="M142.734,8.5a9.968,9.968,0,0,0-7.2,2.972s-5.623,1.034-3.52,11.25h21.506c2.1-10.216-3.52-11.314-3.52-11.314a9.913,9.913,0,0,0-7.2-2.909" transform="translate(-54.362 -7.686)" fill="#dadada"/>
    <path id="Path_27349" data-name="Path 27349" d="M135.728,39.67c-.534.118-5.8,1.539-3.681,11.242h3.218C132.619,44.394,134.282,41.136,135.728,39.67Z" transform="translate(-54.604 -35.873)" fill="silver"/>
    <g id="Group_16978" data-name="Group 16978" transform="translate(76.917 12.867)">
      <path id="Path_27350" data-name="Path 27350" d="M135.6,142.525a2.64,2.64,0,0,0,2.833,2.292v-4.584A2.64,2.64,0,0,0,135.6,142.525Z" transform="translate(-135.603 -140.233)" fill="#dd9a5e"/>
      <path id="Path_27351" data-name="Path 27351" d="M349.931,142.525a2.64,2.64,0,0,1-2.833,2.292v-4.584A2.64,2.64,0,0,1,349.931,142.525Z" transform="translate(-326.868 -140.233)" fill="#dd9a5e"/>
    </g>
    <g id="Group_16979" data-name="Group 16979" transform="translate(76.917 14.087)">
      <path id="Path_27352" data-name="Path 27352" d="M135.92,153.351a1.9,1.9,0,0,0-.317,1.037,2.64,2.64,0,0,0,2.833,2.292v-2.074A3.008,3.008,0,0,1,135.92,153.351Z" transform="translate(-135.603 -153.351)" fill="#d38d54"/>
      <path id="Path_27353" data-name="Path 27353" d="M347.1,154.608v2.074a2.64,2.64,0,0,0,2.833-2.292,1.9,1.9,0,0,0-.317-1.037A3.009,3.009,0,0,1,347.1,154.608Z" transform="translate(-326.867 -153.353)" fill="#d38d54"/>
    </g>
    <path id="Path_27354" data-name="Path 27354" d="M182.186,18.57h0c0-.01,0-.022,0-.049s0-.052,0-.08c0-.011,0-.059,0-.049a3.6,3.6,0,0,0-1.558-2.6h0q-.08-.057-.165-.113l-.006,0c-.057-.037-.115-.074-.176-.11h0a2.358,2.358,0,0,1-.643-3.316c.375-.522.109-.134,1.377-2.125a11.17,11.17,0,0,0-15.311.063.105.105,0,0,0,.024.034l.955,1.354h0c.176.255.257.366.478.674a2.358,2.358,0,0,1-.643,3.316h0A3.525,3.525,0,0,0,164.6,18.57h0c0,7.2-.011,6.816.033,7.372a8.794,8.794,0,0,0,17.556-.76V18.57Z" transform="translate(-84.908 -6.434)" fill="#edae6b"/>
    <path id="Path_27355" data-name="Path 27355" d="M170.834,32.469c-4.809-3.281-3.841-8.024-3.845-13.882h0s0-.007,0-.016v-.006s0-.011,0-.018,0-.006,0-.009,0-.017,0-.026,0-.006,0-.01,0-.023,0-.036v-.008c0-.015,0-.03,0-.047v0A3.7,3.7,0,0,1,168.9,15.58h0a2.358,2.358,0,0,0,.643-3.316c-.263-.366-.309-.43-.478-.674h0c-.005-.005-.255-.358-.5-.707a.922.922,0,0,1,.176-1.25A11.449,11.449,0,0,1,174.6,7.2a11.3,11.3,0,0,0-8.9,3c.024.058.971,1.376.979,1.388h0c.168.244.21.3.478.674a2.358,2.358,0,0,1-.643,3.316h0a3.7,3.7,0,0,0-1.907,2.828v0c0,.023,0,.034,0,.055s0,.031,0,.046,0,.021,0,.036,0,.013,0,.023,0,.013,0,.016h0c.01,8.068.027,7.4.073,7.754a8.793,8.793,0,0,0,9.917,7.57A8.747,8.747,0,0,1,170.834,32.469Z" transform="translate(-84.711 -6.451)" fill="#dd9a5e"/>
    <path id="Path_27356" data-name="Path 27356" d="M197.849,195.629a6.8,6.8,0,0,1-2.37-1.433c-1.168-1.167-2.991-2-4.208-.962a.06.06,0,1,1-.119,0c-1.217-1.038-3.041-.205-4.208.962a6.794,6.794,0,0,1-2.37,1.433.357.357,0,0,0-.044.649,5.58,5.58,0,0,0,6.633-.619.048.048,0,1,1,.1,0,5.58,5.58,0,0,0,6.633.619A.357.357,0,0,0,197.849,195.629Z" transform="translate(-102.761 -175.072)" fill="#dadada"/>
    <path id="Path_27357" data-name="Path 27357" d="M199.675,211.469h-.015c-3.676-.319-4.664-.926-6.063-1.775h0a1.457,1.457,0,0,0-1.223,0c-1.4.85-2.386,1.456-6.063,1.775a5.58,5.58,0,0,0,6.633-.619.347.347,0,0,0,.048-.054.353.353,0,0,0,.048.054,5.58,5.58,0,0,0,6.633.619l0,0Z" transform="translate(-104.544 -190.3)" fill="silver"/>
    <circle id="Ellipse_560" data-name="Ellipse 560" cx="0.86" cy="0.86" r="0.86" transform="translate(87.612 39.387)"/>
    <circle id="Ellipse_561" data-name="Ellipse 561" cx="0.86" cy="0.86" r="0.86" transform="translate(87.613 42.607)"/>
    <path id="Path_27358" data-name="Path 27358" d="M98.438,38.573a.691.691,0,0,0-.691.691v6.512H95.813a.691.691,0,1,0,0,1.382c7.191-.009,6.857.02,7.273-.026a2.47,2.47,0,0,0,2.347-2.717c-.01-.474-2.028-10.495-2.083-10.738a4.614,4.614,0,0,0-.478-1.278h0a4.682,4.682,0,0,0-2.487-2.094c-.266-.1-5.638-1.635-5.648-1.638L92.7,27.321V26.2a9.263,9.263,0,0,0,4.9-7.662h0v-.01c.009-.128.011-.561.011-.57a2.88,2.88,0,0,0,2.44-3.814,18.85,18.85,0,0,0,.483-4.565.691.691,0,1,0-1.381.046A15.968,15.968,0,0,1,98.9,12.8a3.563,3.563,0,0,0-1.293-.51,4.179,4.179,0,0,0-1.794-3.806l0,0c-.084-.061-.173-.119-.192-.131a1.539,1.539,0,0,1-.6-2.322,15.754,15.754,0,0,0,1.062-1.612,3.966,3.966,0,0,1,2.471,2.3.691.691,0,0,0,1.262-.564A5.263,5.263,0,0,0,96.1,3,11.368,11.368,0,0,0,80.717,3a5.128,5.128,0,0,0-3.063,2.026c-1.467,2.005-1.762,5.08-.877,9.14a.689.689,0,0,0,.029.093,2.9,2.9,0,0,0,2.483,3.7,9.229,9.229,0,0,0,4.885,8.229v1.148l-1.995,1.316c-5.319,1.538-7,1.669-8.16,3.71-.576,1.053-.433.978-2.534,11.532,0,.012,0,.025-.006.037a2.549,2.549,0,0,0,2.308,3.2c.426.047-.562.017,18.75.026a.691.691,0,0,0,0-1.382H79.151V39.264a.691.691,0,1,0-1.382,0v6.512c-3.634-.006-3.548.013-3.829-.018-.8-.09-1.244-.522-1.1-1.613,2.228-11.117,1.978-10.2,2.259-10.868A3.138,3.138,0,0,1,76.356,31.9h0c.778-.449.723-.267,3.782-1.214l1.427,2.361a.691.691,0,0,0,1.183-.715l-1.235-2.043.619-.179,2.578,4.266a1.514,1.514,0,0,0,2.214.42l1.525-1.165,1.525,1.165a1.513,1.513,0,0,0,2.214-.42l2.574-4.26.667.193-2.519,4.12a5.216,5.216,0,0,1-8.5.561.691.691,0,0,0-1.079.864,6.6,6.6,0,0,0,10.76-.7L96.806,30.7c2.907.843,3.066.812,3.724,1.2h0l.011.006h0a3.574,3.574,0,0,1,.488.362l-.011-.009a2.868,2.868,0,0,1,.642.8l.105.207a3.688,3.688,0,0,1,.255.793c2.156,10.86,2.036,10.088,2.032,10.456-.012,1.567-1.09,1.253-4.924,1.26V39.264A.691.691,0,0,0,98.438,38.573Zm-9.989-7.017-2.893-4.116v-.661a9.2,9.2,0,0,0,5.762.008v.688ZM98.861,15.125a1.585,1.585,0,0,1-1.254,1.417V13.708A1.585,1.585,0,0,1,98.861,15.125ZM78.748,5.872A3.784,3.784,0,0,1,80.8,4.4,15.184,15.184,0,0,0,81.876,6.03a1.542,1.542,0,0,1-.607,2.328,4.186,4.186,0,0,0-1.976,3.207c0,.071,0,.053,0,.135v.591a3.551,3.551,0,0,0-1.362.557C77.4,9.761,77.677,7.362,78.748,5.872Zm.541,7.837v2.834A1.428,1.428,0,0,1,79.289,13.708Zm1.382-2.016h0c0-.028,0-.025,0,0A2.834,2.834,0,0,1,81.892,9.6c.2-.141.288-.179.365-.242A2.892,2.892,0,0,0,83,5.229a14.369,14.369,0,0,1-.977-1.475,9.887,9.887,0,0,1,12.845,0,10.26,10.26,0,0,1-.629.988h0l-.008.011c-.11.157-.2.285-.34.476a2.892,2.892,0,0,0,.744,4.133.7.7,0,0,0,.083.058c.123.073.25.16.286.187a2.724,2.724,0,0,1,1.218,2.07h0c0-.041,0,.494,0,5.657a9.011,9.011,0,0,1-.474,3.43,1.023,1.023,0,0,0-.67-.894,5.84,5.84,0,0,1-2.035-1.221c-1.242-1.242-3.14-2.084-4.6-1.241-1.457-.844-3.356,0-4.6,1.241a5.839,5.839,0,0,1-2.035,1.221,1.023,1.023,0,0,0-.67.9C80.485,18.964,80.671,17.8,80.671,11.692Zm8.313,8.365a.691.691,0,0,0-.535-.254h0a.691.691,0,0,0-.534.254,4.583,4.583,0,0,1-4.884.8,6.551,6.551,0,0,0,1.8-1.229c.761-.761,2.2-1.622,3.086-.913a.691.691,0,0,0,1.069,0c.884-.709,2.325.152,3.086.913a6.549,6.549,0,0,0,1.8,1.229A4.582,4.582,0,0,1,88.984,20.057Zm-6.631,2.861a7.49,7.49,0,0,1-.819-1.27,6.511,6.511,0,0,0,3.327.959A6.1,6.1,0,0,0,88.449,21.4a6.1,6.1,0,0,0,3.588,1.207,6.671,6.671,0,0,0,3.326-.958A7.786,7.786,0,0,1,82.353,22.918Zm3.628,10.8c-.12-.023.045.112-2.593-4.206l1.323-.872L87.5,32.611C86.047,33.693,86.094,33.74,85.98,33.718Zm5.025-.061a.131.131,0,0,1-.192.036L89.4,32.611l2.792-3.972,1.323.872Z" transform="translate(0 0)"/>
    <path id="Path_27359" data-name="Path 27359" d="M97.56,355.09v0h0Z" transform="translate(-23.625 -322.38)"/>
  </g>
</svg>
