<svg xmlns="http://www.w3.org/2000/svg" width="34" height="47.168" viewBox="0 0 34 47.168">
  <g id="grandmother_1_" data-name="grandmother (1)" transform="translate(-71.47)">
    <path id="Path_27314" data-name="Path 27314" d="M111.813,298.356c-2.039-10.452-1.966-10.937-2.716-11.96a4.127,4.127,0,0,0-2.363-1.538l-6.687-1.9a1.307,1.307,0,0,1-.927-1.247h0v-1.986h0l-.025.011h0v-.011h0a8.39,8.39,0,0,1-3.543.8h0a8.3,8.3,0,0,1-3.542-.8h0v.011h0l-.025-.011h0v1.986h0a1.291,1.291,0,0,1-.927,1.247c-7.338,2.169-7.609,1.93-8.685,3.016a3.963,3.963,0,0,0-1.07,2.073c-2.1,10.742-2.433,11.242-1.587,12.19h0a2.34,2.34,0,0,0,1.69.61H109.7c1.292,0,1.7-.617,1.691-.61A2.34,2.34,0,0,0,111.813,298.356Z" transform="translate(-7.078 -254.378)" fill="#00a3b1"/>
    <path id="Path_27315" data-name="Path 27315" d="M81.616,347.986a2.229,2.229,0,0,1-.3-1.24c.011-.537,2.131-11.96,2.133-11.97a3.871,3.871,0,0,1,1.31-2.1,4.383,4.383,0,0,0-3.711,3.345L79,346.334a2.316,2.316,0,0,0,.264,1.652h0c.762,1.212,2.476.713,4.249.833A3.72,3.72,0,0,1,81.616,347.986Z" transform="translate(-6.789 -302.357)" fill="#048c98"/>
    <path id="Path_27316" data-name="Path 27316" d="M129.87,7.5a13.027,13.027,0,0,0-12.855,13.193q0,.133,0,.266c0,.154.006.308,0,.462-.2,8.1,4.677,12.839,10.454,12.892,3.627-.11,5.888.5,8.8-.827,6.194-2.818,6.544-9.8,6.486-12.067,0-.153,0-.307,0-.46A13.031,13.031,0,0,0,129.87,7.5Z" transform="translate(-41.265 -6.796)" fill="#dadada"/>
    <path id="Path_27317" data-name="Path 27317" d="M132.186,34.269c-5.946-.053-10.939-4.816-10.729-12.892.007-.266,0-.459,0-.727a13.2,13.2,0,0,1,11-13.01,13.209,13.209,0,0,0-15.433,13.01q0,.133,0,.266c0,.154.006.308,0,.462-.21,8.093,4.8,12.839,10.729,12.892,4.744.03,4.843.072,5.652.011Z" transform="translate(-41.266 -6.752)" fill="silver"/>
    <g id="Group_16955" data-name="Group 16955" transform="translate(77.156 12.896)">
      <path id="Path_27318" data-name="Path 27318" d="M135.609,142.524a2.5,2.5,0,0,0,2.689,2.251v-4.5A2.5,2.5,0,0,0,135.609,142.524Z" transform="translate(-135.609 -140.273)" fill="#dd9a5e"/>
      <path id="Path_27319" data-name="Path 27319" d="M350.778,142.524a2.5,2.5,0,0,1-2.689,2.251v-4.5A2.5,2.5,0,0,1,350.778,142.524Z" transform="translate(-328.124 -140.273)" fill="#dd9a5e"/>
    </g>
    <g id="Group_16956" data-name="Group 16956" transform="translate(77.154 14.144)">
      <path id="Path_27320" data-name="Path 27320" d="M135.857,153.754c-.863,1.483.424,3.236,2.418,3.236v-1.969A2.772,2.772,0,0,1,135.857,153.754Z" transform="translate(-135.585 -153.754)" fill="#d38d54"/>
      <path id="Path_27321" data-name="Path 27321" d="M348.09,155.02v1.969c2,0,3.277-1.76,2.418-3.236A2.773,2.773,0,0,1,348.09,155.02Z" transform="translate(-328.122 -153.753)" fill="#d38d54"/>
    </g>
    <path id="Path_27322" data-name="Path 27322" d="M204.622,280.233a1.306,1.306,0,0,1-.946-1.247h0v-2.268h0l-.025.011h0v-.011h0a8.717,8.717,0,0,1-3.616.8h0a8.62,8.62,0,0,1-3.616-.8h0v.011h0l-.025-.011h0v2.268h0a1.3,1.3,0,0,1-.946,1.247l-1.217.339,2.592,3.178a4.379,4.379,0,0,0,6.786,0l2.526-3.1Z" transform="translate(-111.564 -251.337)" fill="#edae6b"/>
    <path id="Path_27323" data-name="Path 27323" d="M198.769,277.425a8.6,8.6,0,0,1-2.356-.7h0v.011h0l-.025-.011h0v2.268h0a1.294,1.294,0,0,1-.946,1.246l-1.217.34,2.592,3.178a4.347,4.347,0,0,0,1.954,1.368v-7.7Z" transform="translate(-111.479 -251.335)" fill="#dd9a5e"/>
    <path id="Path_27324" data-name="Path 27324" d="M214.514,342.609l.686.841a4.379,4.379,0,0,0,6.786,0l.686-.841Z" transform="translate(-129.947 -311.08)" fill="#00a3b1"/>
    <path id="Path_27325" data-name="Path 27325" d="M217.125,342.609h-2.61l.686.841a4.382,4.382,0,0,0,5.662.98A4.476,4.476,0,0,1,217.125,342.609Z" transform="translate(-129.926 -311.08)" fill="#048c98"/>
    <path id="Path_27326" data-name="Path 27326" d="M179.942,92.936a1.386,1.386,0,0,1,1.25,1.393c0,5.928,0,6.274-.011,6.581a8.553,8.553,0,0,1-8.476,8.215h0a8.56,8.56,0,0,1-8.487-8.638V95.409a1.151,1.151,0,0,1,1.036-1.155,17.358,17.358,0,0,0,9.245-3.467,1.03,1.03,0,0,1,1.426.086A6.267,6.267,0,0,0,179.942,92.936Z" transform="translate(-84.22 -82.305)" fill="#edae6b"/>
    <path id="Path_27327" data-name="Path 27327" d="M166.287,134.761c.008-6.46-.019-6.159.021-6.392-.5.077-.951.126-1.316.159a1.159,1.159,0,0,0-1.055,1.155c.079,4.8-.916,9.486,4.271,12.531a8.6,8.6,0,0,0,5.542,1.1A8.636,8.636,0,0,1,166.287,134.761Z" transform="translate(-83.99 -116.65)" fill="#dd9a5e"/>
    <path id="Path_27328" data-name="Path 27328" d="M115.61,38.582a.691.691,0,0,0-.69.691v6.513H113.2a.691.691,0,0,0,0,1.382h6.561a2.546,2.546,0,0,0,2.832-2.872c-.024-.456-2.093-10.7-2.124-10.813a4.613,4.613,0,0,0-2.763-3.112c-.658-.27-7.367-2.031-7.579-2.177a.618.618,0,0,1-.251-.557,11.993,11.993,0,0,0,5.292-2.523c3.123-2.658,4.379-6.947,4.225-10.968a13.53,13.53,0,0,0-1.276-6.307.691.691,0,1,0-1.25.588,12.154,12.154,0,0,1,1.145,5.692,15.251,15.251,0,0,1-1.128,6.371,9.74,9.74,0,0,1-7.008,5.729v-.01a9.16,9.16,0,0,0,4.892-7.663h0v-.01c.009-.124.011-.561.011-.57a3.03,3.03,0,0,0,2.633-2.835,3.03,3.03,0,0,0-2.633-2.835v-.24A2.07,2.07,0,0,0,112.9,10a5.563,5.563,0,0,1-3.561-1.808,1.736,1.736,0,0,0-2.363-.144c-3.02,2.49-7.187,3.1-8.838,3.244a1.812,1.812,0,0,0-1.455.969,3.063,3.063,0,0,0-2.84,2.867,3.03,3.03,0,0,0,2.633,2.835,9.211,9.211,0,0,0,2.461,6.378l.04.043a9.238,9.238,0,0,0,2.175,1.7A9.663,9.663,0,0,1,94.615,20.4a15,15,0,0,1-1.087-6.222s-.011-.37-.011-.547A12.252,12.252,0,0,1,105.751,1.382h.041a12.194,12.194,0,0,1,9.442,4.461.691.691,0,1,0,1.065-.879A13.569,13.569,0,0,0,105.792,0h-.045a13.633,13.633,0,0,0-13.6,14.146c-.152,3.987,1.081,8.191,4.074,10.837a11.807,11.807,0,0,0,5.138,2.584.7.7,0,0,1-.179.568c-.4.383-7.554,1.817-8.851,2.937a4.742,4.742,0,0,0-.37.328h0c-.038.035-.058.056-.111.112l-.011.011h0c-1.224,1.269-1.188,2.876-1.449,3.8a.69.69,0,1,0,1.354.27c.251-1.26.294-2.308,1.154-3.181l0,0a3.537,3.537,0,0,1,1.245-.8l.484-.143,5.059-1.413,2.253,2.765a4.958,4.958,0,0,0,3.858,1.834c2.964,0,4.17-2.342,4.53-2.658l1.517-1.861c4.7,1.313,5.6,1.431,6.381,2.163h0a2.884,2.884,0,0,1,.289.3l.028.035c.74.917.513.952,2.657,11.513a1.619,1.619,0,0,1-.257,1.267c-.545.591-1.656.285-4.638.369V39.273A.691.691,0,0,0,115.61,38.582ZM92.167,31.2h0ZM114.78,16.547V13.713A1.429,1.429,0,0,1,114.78,16.547Zm-18.3-2.835v2.834A1.428,1.428,0,0,1,96.478,13.713Zm2.184,7.829c-1.008-2.035-.775-2.981-.8-8.433a.447.447,0,0,1,.4-.438,18.005,18.005,0,0,0,9.594-3.554.348.348,0,0,1,.48.025,6.921,6.921,0,0,0,4.449,2.237.68.68,0,0,1,.614.677c0,.01,0,.877,0,.868,0,5.526,0,5.144,0,5.253a7.769,7.769,0,0,1-14.736,3.366Zm4.619,10.713H108.3A3.6,3.6,0,0,1,103.282,32.254Zm6.178-1.382h-7.334l-.993-1.219a2.137,2.137,0,0,0,.8-.353,1.967,1.967,0,0,0,.792-1.341c.029-.232.012-.331.017-1.174a9.264,9.264,0,0,0,3,.467,8.634,8.634,0,0,0,2.756-.46c.051.652-.233,1.647.71,2.432a1.945,1.945,0,0,0,.721.38h0l.461.129Z" transform="translate(-17.128)"/>
    <circle id="Ellipse_552" data-name="Ellipse 552" cx="0.845" cy="0.845" r="0.845" transform="translate(87.801 39.535)"/>
    <circle id="Ellipse_553" data-name="Ellipse 553" cx="0.845" cy="0.845" r="0.845" transform="translate(87.801 36.558)"/>
    <circle id="Ellipse_554" data-name="Ellipse 554" cx="0.845" cy="0.845" r="0.845" transform="translate(87.801 42.698)"/>
    <path id="Path_27329" data-name="Path 27329" d="M74.368,421.16h18.9a.7.7,0,0,0,0-1.41H79.337v-6.643a.7.7,0,1,0-1.41,0v6.643h-3.56c-.789,0-1.355-.223-1.467-1-.079-.54-.022-.488,1.1-6.172a.7.7,0,1,0-1.382-.275c-1.143,5.744-1.1,5.518-1.11,5.59a2.912,2.912,0,0,0,.615,2.424h0A2.9,2.9,0,0,0,74.368,421.16ZM72.956,419h0Z" transform="translate(0 -373.992)"/>
  </g>
</svg>
