<svg xmlns="http://www.w3.org/2000/svg" width="96" height="96" viewBox="0 0 96 96">
  <g id="Group_16258" data-name="Group 16258" transform="translate(-8234.701 -16822.93)">
    <g id="Rectangle_7303" data-name="Rectangle 7303" transform="translate(8234.701 16822.93)" fill="#e27e28" stroke="#707070" stroke-width="1" opacity="0">
      <rect width="96" height="96" stroke="none"/>
      <rect x="0.5" y="0.5" width="95" height="95" fill="none"/>
    </g>
    <g id="darts" transform="translate(8234.977 16823.973)">
      <g id="Group_15000" data-name="Group 15000" transform="translate(0 15.826)">
        <path id="Path_20936" data-name="Path 20936" d="M39.565,83.131A39.565,39.565,0,1,1,79.131,43.565,39.682,39.682,0,0,1,39.565,83.131Zm0-75.174A35.609,35.609,0,1,0,75.174,43.565,35.461,35.461,0,0,0,39.565,7.957Z" transform="translate(0 -4)" fill="#e27e28"/>
      </g>
      <g id="Group_15001" data-name="Group 15001" transform="translate(13.848 29.674)">
        <path id="Path_20937" data-name="Path 20937" d="M29.218,58.935A25.718,25.718,0,1,1,54.935,33.218,25.666,25.666,0,0,1,29.218,58.935Zm0-47.478A21.954,21.954,0,0,0,7.457,33.218,21.954,21.954,0,0,0,29.218,54.978,21.954,21.954,0,0,0,50.978,33.218,21.954,21.954,0,0,0,29.218,11.457Z" transform="translate(-3.5 -7.5)" fill="#e27e28"/>
      </g>
      <g id="Group_15002" data-name="Group 15002" transform="translate(27.696 43.522)">
        <path id="Path_20938" data-name="Path 20938" d="M18.87,34.739A11.658,11.658,0,0,1,7,22.87,11.658,11.658,0,0,1,18.87,11a11.658,11.658,0,0,1,11.87,11.87A11.658,11.658,0,0,1,18.87,34.739Zm0-19.783a7.913,7.913,0,1,0,7.913,7.913A7.936,7.936,0,0,0,18.87,14.957Z" transform="translate(-7 -11)" fill="#e27e28"/>
      </g>
      <g id="Group_15003" data-name="Group 15003" transform="translate(37.389 23.937)">
        <path id="Path_20939" data-name="Path 20939" d="M11.626,39.483a2.379,2.379,0,0,1-1.583-.4,1.912,1.912,0,0,1,0-2.77L39.718,6.643a1.958,1.958,0,0,1,2.77,2.77L12.813,39.087c0,.4-.791.4-1.187.4Z" transform="translate(-9.45 -6.05)" fill="#e27e28"/>
      </g>
      <g id="Group_15004" data-name="Group 15004" transform="translate(67.261 0)">
        <path id="Path_20940" data-name="Path 20940" d="M28.87,27.7H18.978A1.869,1.869,0,0,1,17,25.718V15.826c0-.4.4-1.187.4-1.583L31.244.4A5.018,5.018,0,0,1,33.617,0,2.176,2.176,0,0,1,34.8,1.978V9.891h7.913A2.176,2.176,0,0,1,44.7,11.078a5.018,5.018,0,0,1-.4,2.374L30.452,27.3C30.057,27.3,29.265,27.7,28.87,27.7Zm-7.913-3.957h7.122l9.891-9.891H32.826a1.869,1.869,0,0,1-1.978-1.978V6.726l-9.891,9.891Z" transform="translate(-17 0)" fill="#e27e28"/>
      </g>
    </g>
  </g>
</svg>
