<svg xmlns="http://www.w3.org/2000/svg" width="96.001" height="96" viewBox="0 0 96.001 96">
  <g id="Group_17525" data-name="Group 17525" transform="translate(20152 13101)">
    <g id="Rectangle_9000" data-name="Rectangle 9000" transform="translate(-20152 -13101)" fill="#fff" stroke="#707070" stroke-width="1" opacity="0">
      <rect width="96" height="96" stroke="none"/>
      <rect x="0.5" y="0.5" width="95" height="95" fill="none"/>
    </g>
    <g id="ICONS" transform="translate(-20151.811 -13100.811)">
      <rect id="Rectangle_8906" data-name="Rectangle 8906" width="96" height="96" transform="translate(-0.188 -0.189)" fill="none"/>
      <g id="Group_16559" data-name="Group 16559" transform="translate(25.9 22.919)">
        <path id="Path_28189" data-name="Path 28189" d="M23.953,31.575A11.953,11.953,0,1,1,35.905,19.623,11.953,11.953,0,0,1,23.953,31.575Zm0-19.931a7.978,7.978,0,1,0,7.978,7.978,7.978,7.978,0,0,0-7.978-7.978Z" transform="translate(-2.049 -7.67)" fill="#e27e28" stroke="#e27e28" stroke-width="0.2"/>
        <path id="Path_28190" data-name="Path 28190" d="M50.5,37.571a2,2,0,0,1-2-1.972V27.621a5.976,5.976,0,0,0-5.976-5.976H18.621a5.976,5.976,0,0,0-5.976,5.976V35.6a2,2,0,0,1-3.974,0V27.621a9.951,9.951,0,0,1,9.951-9.951H42.526a9.951,9.951,0,0,1,9.951,9.951V35.6A2,2,0,0,1,50.5,37.571Z" transform="translate(-8.67 12.212)" fill="#e27e28" stroke="#e27e28" stroke-width="0.2"/>
      </g>
      <g id="Group_16558" data-name="Group 16558" transform="translate(0 29.882)">
        <path id="Path_28191" data-name="Path 28191" d="M10.638,10a7.949,7.949,0,1,0,5.65,2.328A7.978,7.978,0,0,0,10.638,10Zm0,11.953a4,4,0,1,1,4-3.974A4,4,0,0,1,10.638,21.953Z" transform="translate(5.289 -10)" fill="#e27e28"/>
        <path id="Path_33320" data-name="Path 33320" d="M23.905,18.642a2,2,0,0,1-2,2H9.951a5.976,5.976,0,0,0-5.976,5.976v3.974A2,2,0,0,1,2,32.6a2,2,0,0,1-2-2V26.621A9.951,9.951,0,0,1,9.951,16.67H21.9a2,2,0,0,1,2,1.972Z" transform="translate(0 3.261)" fill="#e27e28" stroke="#e27e28" stroke-width="0.2"/>
      </g>
      <g id="Group_16558-2" data-name="Group 16558" transform="translate(71.701 29.882)">
        <path id="Path_28191-2" data-name="Path 28191" d="M31.978,10a7.949,7.949,0,1,1-5.65,2.328A7.978,7.978,0,0,1,31.978,10Zm0,11.953a4,4,0,1,0-4-3.974A4,4,0,0,0,31.978,21.953Z" transform="translate(-24 -10)" fill="#e27e28"/>
        <path id="Path_33321" data-name="Path 33321" d="M24,18.642a2,2,0,0,0,2,2H37.955a5.976,5.976,0,0,1,5.976,5.976v3.974a2,2,0,1,0,3.974,0V26.621a9.951,9.951,0,0,0-9.951-9.951H26a2,2,0,0,0-2,1.972Z" transform="translate(-24 3.261)" fill="#e27e28" stroke="#e27e28" stroke-width="0.2"/>
      </g>
    </g>
  </g>
</svg>
