<svg xmlns="http://www.w3.org/2000/svg" width="34" height="34" viewBox="0 0 34 34">
  <g id="Group_16597" data-name="Group 16597" transform="translate(-263.5 -1517)">
    <g id="Rectangle_8265" data-name="Rectangle 8265" transform="translate(263.5 1517)" fill="#fff" stroke="#707070" stroke-width="1" opacity="0">
      <rect width="34" height="34" stroke="none"/>
      <rect x="0.5" y="0.5" width="33" height="33" fill="none"/>
    </g>
    <g id="feature_icon" transform="translate(263.5 1516)">
      <path id="Path_26914" data-name="Path 26914" d="M4.531,24.945H.647A.647.647,0,0,1,0,24.3V12.647A.647.647,0,0,1,.647,12a13.155,13.155,0,0,1,6.826,1.547.646.646,0,0,1,.273.7L5.157,24.457a.644.644,0,0,1-.627.488ZM1.294,23.65H4.027l2.34-9.23a12.947,12.947,0,0,0-5.073-1.115Z" transform="translate(0 5.215)" fill="#00a0ae"/>
      <path id="Path_26915" data-name="Path 26915" d="M17.238,25.914c-3.383,0-9.94-2.57-13.545-4.1a.621.621,0,0,1-.343-.861.751.751,0,0,1,.955-.309C10.256,23.17,14.97,24.62,17.238,24.62c3.494,0,11.725-3.7,14.093-4.8a3.238,3.238,0,0,0-2.6-1.027,18.939,18.939,0,0,0-4.631.941,19.885,19.885,0,0,1-5.062,1A27.783,27.783,0,0,1,11.966,19.4a.631.631,0,0,1-.429-.83.742.742,0,0,1,.92-.387,26.667,26.667,0,0,0,6.575,1.256,18.939,18.939,0,0,0,4.631-.941,19.885,19.885,0,0,1,5.062-1c3.352,0,4.235,2.287,4.272,2.384a.624.624,0,0,1-.343.777C32.207,20.875,21.675,25.914,17.238,25.914Z" transform="translate(0.966 6.835)" fill="#00a0ae"/>
      <path id="Path_26916" data-name="Path 26916" d="M19.94,21.289a.647.647,0,0,1-.647-.647v-.647a1.919,1.919,0,0,0-1.481-1.881L5.316,15.1a.647.647,0,1,1,.3-1.258l12.491,3.016a3.2,3.2,0,0,1,2.476,3.14v.647a.647.647,0,0,1-.647.647Z" transform="translate(2.615 5.009)" fill="#00a0ae"/>
      <path id="Path_26917" data-name="Path 26917" d="M16.589,5.178a2.589,2.589,0,1,1,2.589-2.589A2.592,2.592,0,0,1,16.589,5.178Zm0-3.883a1.294,1.294,0,1,0,1.294,1.294A1.3,1.3,0,0,0,16.589,1.294Z" transform="translate(1.852 3)" fill="#00a0ae"/>
      <path id="Path_26918" data-name="Path 26918" d="M22.589,11.178a2.589,2.589,0,1,1,2.589-2.589A2.592,2.592,0,0,1,22.589,11.178Zm0-3.883a1.294,1.294,0,1,0,1.294,1.294A1.3,1.3,0,0,0,22.589,7.294Z" transform="translate(4.938 5.672)" fill="#00a0ae"/>
      <path id="Path_26919" data-name="Path 26919" d="M15.647,12.945a.647.647,0,0,1-.511-1.045L24.2.25a.647.647,0,0,1,1.021.8L16.157,12.7a.646.646,0,0,1-.51.249Z" transform="translate(2.732 3)" fill="#00a0ae"/>
    </g>
  </g>
</svg>
