<svg xmlns="http://www.w3.org/2000/svg" width="32" height="32" viewBox="0 0 32 32">
  <g id="Group_5913" data-name="Group 5913" transform="translate(-3489 233)">
    <rect id="Rectangle_3543" data-name="Rectangle 3543" width="32" height="32" transform="translate(3489 -233)" fill="none"/>
    <g id="question-mark" transform="translate(3489 -233)">
      <path id="Path_12679" data-name="Path 12679" d="M14.429,19.417a.894.894,0,0,1-.605-.236l-3.612-3.335H2.833A2.086,2.086,0,0,1,.75,13.763V2.833A2.086,2.086,0,0,1,2.833.75H16.666A2.087,2.087,0,0,1,18.75,2.833V13.761a2.086,2.086,0,0,1-2.084,2.083H15.321v2.679a.892.892,0,0,1-.535.817.842.842,0,0,1-.357.077Z" transform="translate(0.25 0.25)" fill="#d4dee3" opacity="0.5"/>
      <circle id="Ellipse_452" data-name="Ellipse 452" cx="3" cy="3" r="3" transform="translate(21.667 16.333)" fill="#00a3b1" opacity="0.32"/>
      <circle id="Ellipse_453" data-name="Ellipse 453" cx="1.667" cy="1.667" r="1.667" transform="translate(3.667 21)" fill="#e27e28" opacity="0.32"/>
      <path id="Path_12680" data-name="Path 12680" d="M23.75,19.75H16.417a2.666,2.666,0,0,0-2.667,2.667v3H26.417v-3A2.666,2.666,0,0,0,23.75,19.75Z" transform="translate(4.583 6.583)" fill="#00a3b1" opacity="0.32"/>
      <path id="Path_12681" data-name="Path 12681" d="M6.75,20.75H3.417A2.666,2.666,0,0,0,.75,23.417v1.667H9.417V23.417A2.666,2.666,0,0,0,6.75,20.75Z" transform="translate(0.25 6.917)" fill="#e27e28" opacity="0.32"/>
      <path id="Path_12682" data-name="Path 12682" d="M19.5,19.5a4,4,0,1,1,4-4A4,4,0,0,1,19.5,19.5Zm0-6a2,2,0,1,0,2,2A2,2,0,0,0,19.5,13.5Z" transform="translate(5.167 3.833)" fill="#00a3b1"/>
      <path id="Path_12683" data-name="Path 12683" d="M26.667,25.667a1,1,0,0,1-1-1v-2A1.669,1.669,0,0,0,24,21H16.667A1.669,1.669,0,0,0,15,22.667v2a1,1,0,0,1-2,0v-2A3.67,3.67,0,0,1,16.667,19H24a3.67,3.67,0,0,1,3.667,3.667v2A1,1,0,0,1,26.667,25.667Z" transform="translate(4.333 6.333)" fill="#00a3b1"/>
      <path id="Path_12684" data-name="Path 12684" d="M15,21.333a1,1,0,0,1-.679-.265l-4.045-3.735H3.667A3.67,3.67,0,0,1,0,13.667v-10A3.67,3.67,0,0,1,3.667,0H16.333A3.67,3.67,0,0,1,20,3.667v10a3.67,3.67,0,0,1-3.667,3.667H16v3a1,1,0,0,1-.6.917A1.03,1.03,0,0,1,15,21.333ZM3.667,2A1.669,1.669,0,0,0,2,3.667v10a1.669,1.669,0,0,0,1.667,1.667h7a1,1,0,0,1,.679.265L14,18.049V16.333a1,1,0,0,1,1-1h1.333A1.669,1.669,0,0,0,18,13.667v-10A1.669,1.669,0,0,0,16.333,2Z" transform="translate(0)" fill="#221e1f"/>
      <path id="Path_12685" data-name="Path 12685" d="M8.333,11a1,1,0,0,1-1-1V9.695A4.108,4.108,0,0,1,9.12,6.411,1.334,1.334,0,1,0,7,5.333a1,1,0,0,1-2,0,3.333,3.333,0,1,1,5.3,2.691,2.155,2.155,0,0,0-.969,1.671V10A1,1,0,0,1,8.333,11Z" transform="translate(1.667 0.667)"/>
      <path id="Path_12686" data-name="Path 12686" d="M4.667,20.333a2.667,2.667,0,1,1,2.667-2.667A2.669,2.669,0,0,1,4.667,20.333Zm0-3.333a.667.667,0,1,0,.667.667A.669.669,0,0,0,4.667,17Z" transform="translate(0.667 5)" fill="#e27e28"/>
      <path id="Path_12687" data-name="Path 12687" d="M9.667,25.333a1,1,0,0,1-1-1v-.667A1.669,1.669,0,0,0,7,22H3.667A1.669,1.669,0,0,0,2,23.667v.667a1,1,0,0,1-2,0v-.667A3.67,3.67,0,0,1,3.667,20H7a3.67,3.67,0,0,1,3.667,3.667v.667A1,1,0,0,1,9.667,25.333Z" transform="translate(0 6.667)" fill="#e27e28"/>
      <circle id="Ellipse_454" data-name="Ellipse 454" cx="1" cy="1" r="1" transform="translate(9 12.667)"/>
    </g>
  </g>
</svg>
