<svg xmlns="http://www.w3.org/2000/svg" width="96" height="96" viewBox="0 0 96 96">
  <g id="guaranteed_return_plans" transform="translate(0.03)">
    <g id="ICONS" transform="translate(-0.03)">
      <g id="guaranteed_return_plans-2" data-name="guaranteed_return_plans">
        <rect id="Rectangle_8188" data-name="Rectangle 8188" width="95.97" height="96" transform="translate(0.03)" fill="none"/>
        <path id="Path_26888" data-name="Path 26888" d="M2.469,80h-.53A2,2,0,0,1,2,76h.53c6.118,0,68.787-1.44,83.5-58.5a2,2,0,0,1,3.869,1C74.445,78.44,9.067,80,2.469,80Z" transform="translate(0.03)" fill="#e27e28"/>
        <path id="Path_26889" data-name="Path 26889" d="M94,30.39a2,2,0,0,1-1.73-1l-5-8.66-8.66,5a2,2,0,1,1-2-3.46l10.39-6a2,2,0,0,1,2.73.73l6,10.39a2,2,0,0,1-1.73,3Z" transform="translate(0)" fill="#e27e28"/>
        <path id="Path_26890" data-name="Path 26890" d="M86,96a2,2,0,0,1-2-2V42a2,2,0,0,1,4,0V94A2,2,0,0,1,86,96Z" transform="translate(0)" fill="#e27e28"/>
        <path id="Path_26891" data-name="Path 26891" d="M62,96a2,2,0,0,1-2-2V70a2,2,0,0,1,4,0V94A2,2,0,0,1,62,96Z" transform="translate(0.011)" fill="#e27e28"/>
        <path id="Path_26892" data-name="Path 26892" d="M38,96a2,2,0,0,1-2-2V82a2,2,0,0,1,4,0V94A2,2,0,0,1,38,96Z" transform="translate(0.018)" fill="#e27e28"/>
        <path id="Path_26893" data-name="Path 26893" d="M14,96a2,2,0,0,1-2-2V86a2,2,0,0,1,4,0v8A2,2,0,0,1,14,96Z" transform="translate(0.03)" fill="#e27e28"/>
        <path id="Path_26894" data-name="Path 26894" d="M24,56a2,2,0,0,1-.78-.16C22.27,55.44,0,45.82,0,26.15V9.43a2,2,0,0,1,1.36-1.9l22-7.42a2,2,0,0,1,1.28,0l22,7.42A2,2,0,0,1,48,9.43V26.15c0,19.67-22.27,29.29-23.22,29.69A2,2,0,0,1,24,56ZM4,10.87V26.15C4,41.28,20.22,50,24,51.8,27.78,50,44,41.25,44,26.15V10.87L24,4.11Z" transform="translate(0.03)" fill="#e27e28"/>
        <path id="Path_26895" data-name="Path 26895" d="M22,36h-.11a2,2,0,0,1-1.45-.75l-8-10a2,2,0,0,1,3.12-2.5L22.16,31,34.58,18.59a2,2,0,1,1,2.83,2.83l-14,14A2,2,0,0,1,22,36Z" transform="translate(0.03)" fill="#e27e28"/>
      </g>
    </g>
  </g>
</svg>
