<svg id="hand" xmlns="http://www.w3.org/2000/svg" width="23.682" height="23.681" viewBox="0 0 23.682 23.681">
  <path id="Path_33343" data-name="Path 33343" d="M3.453,21.867H.493A.494.494,0,0,1,0,21.374v-8.88A.494.494,0,0,1,.493,12a10.027,10.027,0,0,1,5.2,1.179.493.493,0,0,1,.208.535L3.931,21.5a.491.491,0,0,1-.478.372ZM.987,20.88H3.07l1.784-7.035A9.869,9.869,0,0,0,.987,13Z" transform="translate(0 -0.159)" fill="#00a3b1"/>
  <path id="Path_33344" data-name="Path 33344" d="M12.871,23.914c-2.325,0-6.83-1.959-9.308-3.126a.493.493,0,1,1,.42-.892c4.09,1.926,7.329,3.031,8.887,3.031,2.4,0,8.056-2.819,9.684-3.658a2.13,2.13,0,0,0-1.79-.782,11.9,11.9,0,0,0-3.182.717,12.486,12.486,0,0,1-3.478.763A17.458,17.458,0,0,1,9.249,18.95a.493.493,0,1,1,.337-.928,16.761,16.761,0,0,0,4.518.957,11.9,11.9,0,0,0,3.182-.717,12.486,12.486,0,0,1,3.478-.763A2.938,2.938,0,0,1,23.7,19.318a.5.5,0,0,1-.236.592C23.157,20.072,15.92,23.914,12.871,23.914Z" transform="translate(-0.044 -0.232)" fill="#00a3b1"/>
  <path id="Path_33345" data-name="Path 33345" d="M16.345,19.513a.494.494,0,0,1-.493-.493v-.493a1.462,1.462,0,0,0-1.129-1.434L5.2,14.793a.493.493,0,1,1,.232-.959l9.521,2.3a2.442,2.442,0,0,1,1.888,2.394v.493A.494.494,0,0,1,16.345,19.513Z" transform="translate(-0.064 -0.183)" fill="#00a3b1"/>
  <path id="Path_33346" data-name="Path 33346" d="M15.973,3.947a1.973,1.973,0,1,1,1.973-1.973A1.975,1.975,0,0,1,15.973,3.947Zm0-2.96a.987.987,0,1,0,.987.987A.988.988,0,0,0,15.973.987Z" transform="translate(-0.186 0)" fill="#00a3b1"/>
  <path id="Path_33347" data-name="Path 33347" d="M21.973,9.947a1.973,1.973,0,1,1,1.973-1.973A1.975,1.975,0,0,1,21.973,9.947Zm0-2.96a.987.987,0,1,0,.987.987A.988.988,0,0,0,21.973,6.987Z" transform="translate(-0.266 -0.08)" fill="#00a3b1"/>
  <path id="Path_33348" data-name="Path 33348" d="M15.493,9.867a.493.493,0,0,1-.39-.8L22.011.19A.494.494,0,0,1,22.789.8l-6.907,8.88a.492.492,0,0,1-.389.189Z" transform="translate(-0.199 0)" fill="#00a3b1"/>
</svg>
