<svg id="headset_mic_black_24dp" xmlns="http://www.w3.org/2000/svg" width="40" height="40" viewBox="0 0 40 40">
  <path id="Path_26807" data-name="Path 26807" d="M0,0H40V40H0Z" fill="none" opacity="0.1"/>
  <path id="Path_26808" data-name="Path 26808" d="M19,1C10.164,1,3,7.839,3,16.273V28.152a5.209,5.209,0,0,0,5.333,5.091h5.333V19.667H6.556V16.273A12.163,12.163,0,0,1,19,4.394,12.163,12.163,0,0,1,31.444,16.273v3.394H24.333V33.242h7.111v1.7H19v3.394H29.667A5.209,5.209,0,0,0,35,33.242V16.273C35,7.839,27.836,1,19,1Z" transform="translate(1 0.333)" fill="#fff"/>
</svg>
