<svg xmlns="http://www.w3.org/2000/svg" width="96" height="96" viewBox="0 0 96 96">
  <g id="home_loan" transform="translate(-10522.848 -13932.846)">
    <g id="Rectangle_6958" data-name="Rectangle 6958" transform="translate(10522.848 13932.846)" fill="#e27e28" stroke="#707070" stroke-width="1" opacity="0">
      <rect width="96" height="96" stroke="none"/>
      <rect x="0.5" y="0.5" width="95" height="95" fill="none"/>
    </g>
    <g id="fire" transform="translate(10523.051 13936.039)">
      <g id="Group_14492" data-name="Group 14492" transform="translate(0 0)">
        <path id="Path_17049" data-name="Path 17049" d="M37.839,79.662H19.915A7.974,7.974,0,0,1,11.949,71.7V43.815H3.983A3.939,3.939,0,0,1,0,39.832a4.024,4.024,0,0,1,1.3-2.955L40.467.531a1.99,1.99,0,0,1,2.708,0L55.762,12.205V5.976a1.992,1.992,0,0,1,1.992-1.992H69.7a1.992,1.992,0,0,1,1.992,1.992v21l5.337,4.959a1.991,1.991,0,0,1-2.708,2.92L68.349,29.3a2,2,0,0,1-.637-1.462V7.968H59.745v8.8A1.991,1.991,0,0,1,56.4,18.228L41.822,4.709,3.983,39.82l9.958.012a1.992,1.992,0,0,1,1.992,1.992V71.7a3.987,3.987,0,0,0,3.983,3.983H37.839a1.992,1.992,0,1,1,0,3.983Z" transform="translate(0 0)" fill="#e27e28"/>
      </g>
      <path id="Path_17106" data-name="Path 17106" d="M36.89,62.779a25.89,25.89,0,1,1,25.89-25.89A25.92,25.92,0,0,1,36.89,62.779Zm0-47.8A21.907,21.907,0,1,0,58.8,36.89,21.932,21.932,0,0,0,36.89,14.983Z" transform="translate(32.813 28.828)" fill="#e27e28"/>
      <path id="Union_20" data-name="Union 20" d="M12.549,24.353.608,14.785a1.577,1.577,0,0,1-.519-1.762A1.6,1.6,0,0,1,1.6,11.961H7.569a4.319,4.319,0,0,0,3.358-1.6H1.6a1.593,1.593,0,1,1,0-3.186H11.933A4.379,4.379,0,0,0,7.569,3.191H1.6A1.6,1.6,0,1,1,1.6,0H18.325a1.6,1.6,0,1,1,0,3.191H13.707a7.366,7.366,0,0,1,1.412,3.985h3.206a1.593,1.593,0,1,1,0,3.186H14.576a7.577,7.577,0,0,1-7.007,4.773H6.142l8.39,6.727a1.593,1.593,0,0,1,.254,2.235,1.571,1.571,0,0,1-1.246.6A1.555,1.555,0,0,1,12.549,24.353Z" transform="translate(59.744 53.362)" fill="#e27e28"/>
    </g>
  </g>
</svg>
