<svg xmlns="http://www.w3.org/2000/svg" xmlns:xlink="http://www.w3.org/1999/xlink" width="414" height="286" viewBox="0 0 414 286">
  <defs>
    <clipPath id="clip-path">
      <path id="Rectangle_8872" data-name="Rectangle 8872" d="M0,0H414a0,0,0,0,1,0,0V274a12,12,0,0,1-12,12H12A12,12,0,0,1,0,274V0A0,0,0,0,1,0,0Z" transform="translate(564 580)" fill="#fff" stroke="#707070" stroke-width="1"/>
    </clipPath>
  </defs>
  <g id="Group_18789" data-name="Group 18789" transform="translate(-1072 -341)">
    <g id="Mask_Group_74" data-name="Mask Group 74" transform="translate(508 -239)" clip-path="url(#clip-path)">
      <g id="Path_33139" data-name="Path 33139" transform="translate(672.301 581.933)" fill="rgba(0,160,173,0.32)">
        <path d="M 172.8292388916016 281.7437744140625 L 36.68509674072266 281.7437744140625 L -45.42100524902344 141.1218872070312 L 36.68509674072266 0.5000025629997253 L 164.6965637207031 0.5000025629997253 L 250.8499145507812 191.2994537353516 L 172.8292388916016 281.7437744140625 Z" stroke="none"/>
        <path d="M 36.97216796875 1 L -44.84202575683594 141.1218872070312 L 36.97216796875 281.2437744140625 L 172.6002349853516 281.2437744140625 L 250.2628784179688 191.2144317626953 L 164.3737335205078 1 L 36.97216796875 1 M 36.39805603027344 0 L 165.0194091796875 0 L 251.4368591308594 191.3844604492188 L 173.0582580566406 282.2437744140625 L 36.39805603027344 282.2437744140625 L -46.00001525878906 141.1218872070312 L 36.39805603027344 0 Z" stroke="none" fill="#00a0ad"/>
      </g>
      <g id="Path_33140" data-name="Path 33140" transform="translate(566.01 581.933)" fill="rgba(0,160,173,0.32)">
        <path d="M 59.08012390136719 138.7425384521484 L 0.4999966621398926 113.7272338867188 L 0.4999966621398926 0.5000103712081909 L 140.0735931396484 0.5000103712081909 L 59.08012390136719 138.7425384521484 Z" stroke="none"/>
        <path d="M 1 0.9999847412109375 L 1 113.3970794677734 L 58.87139129638672 138.1097259521484 L 139.201171875 0.9999847412109375 L 1 0.9999847412109375 M 0 -1.52587890625e-05 L 140.9460296630859 -1.52587890625e-05 L 59.28887176513672 139.3753509521484 L 0 114.0574111938477 L 0 -1.52587890625e-05 Z" stroke="none" fill="#00a0ad"/>
      </g>
      <g id="Path_33141" data-name="Path 33141" transform="translate(566.01 750.997)" fill="rgba(0,160,173,0.32)">
        <path d="M 140.3485260009766 112.6803588867188 L 0.5000101327896118 112.6803588867188 L 0.5000101327896118 -0.547162652015686 L 59.08180236816406 -25.61686897277832 L 140.3485260009766 112.6803588867188 Z" stroke="none"/>
        <path d="M 58.87377166748047 -24.98397827148438 L 0.9999847412109375 -0.2172927856445312 L 0.9999847412109375 112.1803588867188 L 139.4747619628906 112.1803588867188 L 58.87377166748047 -24.98397827148438 M 59.28984832763672 -26.249755859375 L 141.2222595214844 113.1803588867188 L -1.52587890625e-05 113.1803588867188 L -1.52587890625e-05 -0.8770599365234375 L 59.28984832763672 -26.249755859375 Z" stroke="none" fill="#00a0ad"/>
      </g>
      <g id="Path_33143" data-name="Path 33143" transform="translate(871.328 581.933)" fill="rgba(0,160,173,0.32)">
        <path d="M 104.1621246337891 188.9512939453125 L 53.43081283569336 188.9512939453125 L -31.62467956542969 0.5000041127204895 L 104.1621246337891 0.5000041127204895 L 104.1621246337891 188.9512939453125 Z" stroke="none"/>
        <path d="M -30.8504638671875 1 L 53.75369262695312 188.4512939453125 L 103.6621246337891 188.4512939453125 L 103.6621246337891 1 L -30.8504638671875 1 M -32.39892578125 0 L 104.6621246337891 0 L 104.6621246337891 189.4512939453125 L 53.10791015625 189.4512939453125 L -32.39892578125 0 Z" stroke="none" fill="#00a0ad"/>
      </g>
      <g id="Path_33142" data-name="Path 33142" transform="translate(871.368 773.318)" fill="rgba(0,160,173,0.32)">
        <path d="M 104.1222991943359 90.35929870605469 L -23.10140609741211 90.35929870605469 L 54.39469528198242 0.4999955296516418 L 104.1222991943359 0.4999955296516418 L 104.1222991943359 90.35929870605469 Z" stroke="none"/>
        <path d="M 54.62374496459961 0.9999923706054688 L -22.00994110107422 89.85929870605469 L 103.6222991943359 89.85929870605469 L 103.6222991943359 0.9999923706054688 L 54.62374496459961 0.9999923706054688 M 54.1656494140625 -7.62939453125e-06 L 104.6222991943359 -7.62939453125e-06 L 104.6222991943359 90.85929870605469 L -24.19287109375 90.85929870605469 L 54.1656494140625 -7.62939453125e-06 Z" stroke="none" fill="#00a0ad"/>
      </g>
      <g id="Polygon_1" data-name="Polygon 1" transform="translate(625.296 697.924) rotate(90)" fill="rgba(0,160,173,0.32)">
        <path d="M 49.50756454467773 58.78641891479492 L 0.7550195455551147 58.78641891479492 L 25.13129234313965 1.281134486198425 L 49.50756454467773 58.78641891479492 Z" stroke="none"/>
        <path d="M 25.13129234313965 2.562271118164062 L 1.510036468505859 58.28641891479492 L 48.75254821777344 58.28641891479492 L 25.13129234313965 2.562271118164062 M 25.13129234313965 -3.814697265625e-06 L 50.26258087158203 59.28641891479492 L 3.814697265625e-06 59.28641891479492 L 25.13129234313965 -3.814697265625e-06 Z" stroke="none" fill="#00a0ad"/>
      </g>
    </g>
    <text id="Mutual_Funds_49.3_" data-name="Mutual Funds (49.3%)" transform="translate(1222 464)" fill="#222" font-size="20" font-family="DaxPro, Dax Pro"><tspan x="0.06" y="20">Mutual Funds </tspan><tspan x="24.07" y="45">(49.3%)</tspan></text>
    <text id="Others_7.9_" data-name="Others 
(7.9%)" transform="translate(1122 391)" fill="#222" font-size="16" font-family="DaxPro, Dax Pro"><tspan x="-24.008" y="0">Others </tspan><tspan x="-21.392" y="20">(7.9%)</tspan></text>
    <text id="Bonds_10.7_" data-name="Bonds
(10.7%)" transform="translate(1122 577)" fill="#222" font-size="16" font-family="DaxPro, Dax Pro"><tspan x="-20.536" y="0">Bonds</tspan><tspan x="-25.112" y="20">(10.7%)</tspan></text>
    <text id="Real_Estate_23.0_" data-name="Real Estate
(23.0%)" transform="translate(1435 420)" fill="#222" font-size="16" font-family="DaxPro, Dax Pro"><tspan x="-36.536" y="0">Real Estate</tspan><tspan x="-26.072" y="20">(23.0%)</tspan></text>
    <text id="Private_Equity_9.3_" data-name="Private Equity
(9.3%)" transform="translate(1438 597)" fill="#222" font-size="12" font-family="DaxPro, Dax Pro"><tspan x="-34.32" y="0">Private Equity</tspan><tspan x="-16.332" y="15">(9.3%)</tspan></text>
  </g>
</svg>
