<svg xmlns="http://www.w3.org/2000/svg" width="96" height="96" viewBox="0 0 96 96">
  <g id="Group_18732" data-name="Group 18732" transform="translate(-7497 -10035)">
    <g id="Rectangle_9615" data-name="Rectangle 9615" transform="translate(7497 10035)" fill="#fff" stroke="#707070" stroke-width="1" opacity="0">
      <rect width="96" height="96" stroke="none"/>
      <rect x="0.5" y="0.5" width="95" height="95" fill="none"/>
    </g>
    <g id="share_2_" data-name="share (2)" transform="translate(7497 10034.992)">
      <g id="Group_18728" data-name="Group 18728" transform="translate(0 48.009)">
        <path id="Path_34613" data-name="Path 34613" d="M14,52H2a2,2,0,0,1-2-2V14a2,2,0,0,1,2-2c13.6,0,20.791,4.584,21.091,4.78a2,2,0,0,1,.844,2.168l-8,31.543A1.991,1.991,0,0,1,14,52ZM4,48h8.444L19.675,19.48A40.006,40.006,0,0,0,4,16.036Z" transform="translate(0 -12)" fill="#e27e28"/>
      </g>
      <g id="Group_18729" data-name="Group 18729" transform="translate(13.12 70.009)">
        <path id="Path_34614" data-name="Path 34614" d="M42.159,43.5c-9.424,0-27.687-7.94-37.731-12.672a2,2,0,1,1,1.7-3.616C22.711,35.02,35.843,39.5,42.159,39.5c9.732,0,32.659-11.428,39.255-14.828-1.04-1.356-3.188-3.172-7.256-3.172-3.692,0-8.372,1.48-12.9,2.908-4.812,1.52-9.792,3.092-14.1,3.092-8.256,0-19.223-3.952-19.683-4.12a2,2,0,0,1,1.368-3.76c.1.04,10.768,3.88,18.315,3.88,3.692,0,8.372-1.48,12.9-2.908,4.812-1.52,9.792-3.092,14.1-3.092,9.336,0,11.8,7.068,11.9,7.368a2.006,2.006,0,0,1-.956,2.4C83.858,27.928,54.519,43.5,42.159,43.5Z" transform="translate(-3.28 -17.5)" fill="#e27e28"/>
      </g>
      <g id="Group_18730" data-name="Group 18730" transform="translate(19.279 55.281)">
        <path id="Path_34615" data-name="Path 34615" d="M51.539,36.9a2,2,0,0,1-2-2v-2a5.928,5.928,0,0,0-4.576-5.812L6.352,17.764a2,2,0,1,1,.94-3.888L45.887,23.2a9.9,9.9,0,0,1,7.652,9.7v2a2,2,0,0,1-2,2Z" transform="translate(-4.82 -13.82)" fill="#e27e28"/>
      </g>
      <g id="Group_18731" data-name="Group 18731" transform="translate(39.999 0.008)">
        <path id="Path_34616" data-name="Path 34616" d="M52,55.975H24a6.007,6.007,0,0,1-6-6v-14H14a3.982,3.982,0,0,1-2.972-6.652L36.5.648a2.067,2.067,0,0,1,2.992,0L46,7.96V5.976a2,2,0,0,1,2-2h8a2,2,0,0,1,2,2V21.492l6.972,7.832A3.982,3.982,0,0,1,62,35.975H58v14a6.007,6.007,0,0,1-6,6Zm-32-24a2,2,0,0,1,2,2v16a2,2,0,0,0,2,2H52a2,2,0,0,0,2-2v-16a2,2,0,0,1,2-2h6l-7.492-8.392A1.987,1.987,0,0,1,54,22.256V7.976H50v5.24a2,2,0,0,1-3.5,1.328L38,4.984l-23.983,27Z" transform="translate(-10 -0.008)" fill="#e27e28"/>
      </g>
    </g>
  </g>
</svg>
