<svg id="instagram" xmlns="http://www.w3.org/2000/svg" width="32" height="32" viewBox="0 0 32 32">
  <path id="Path_16872" data-name="Path 16872" d="M51.7,36.971A14.847,14.847,0,1,0,66.544,51.816,14.866,14.866,0,0,0,51.7,36.971Z" transform="translate(-35.696 -35.776)" fill="#fff"/>
  <path id="Path_591" data-name="Path 591" d="M36.057,23.88H26.52a2.764,2.764,0,0,0-2.761,2.761v9.537A2.764,2.764,0,0,0,26.52,38.94h9.537a2.764,2.764,0,0,0,2.761-2.761V26.641A2.764,2.764,0,0,0,36.057,23.88ZM31.289,36.367a4.958,4.958,0,1,1,4.958-4.958A4.963,4.963,0,0,1,31.289,36.367Zm5.117-8.89A1.173,1.173,0,1,1,37.579,26.3,1.174,1.174,0,0,1,36.406,27.477Z" transform="translate(-15.289 -15.366)" fill="#465a65"/>
  <path id="Path_592" data-name="Path 592" d="M39.712,36.971a2.863,2.863,0,1,0,2.862,2.862A2.866,2.866,0,0,0,39.712,36.971Z" transform="translate(-23.712 -23.79)" fill="#465a65"/>
  <path id="Path_593" data-name="Path 593" d="M16,0A16,16,0,1,0,32,16,16,16,0,0,0,16,0Zm9.624,20.812a4.861,4.861,0,0,1-4.856,4.856H11.231a4.861,4.861,0,0,1-4.856-4.856V11.274a4.861,4.861,0,0,1,4.856-4.856h9.537a4.861,4.861,0,0,1,4.856,4.856Z" fill="#465a65"/>
</svg>
