<svg xmlns="http://www.w3.org/2000/svg" width="48" height="47.999" viewBox="0 0 48 47.999">
  <g id="insurance_icon" transform="translate(0.001)">
    <g id="Group_17464" data-name="Group 17464" transform="translate(-0.001)">
      <path id="Path_14910" data-name="Path 14910" d="M22.04,44H1a1,1,0,0,1-.972-1.242l1.08-4.34a6.4,6.4,0,0,1,4.218-4.548l8.036-2.678c1.192-.5,1.936-2.294,2.012-4.942-.92-.836-2.894-2.876-2.894-4.968,0-.734-.246-.884-.248-.886a.83.83,0,0,1-.582-.564,13.687,13.687,0,0,1-.97-3.992.958.958,0,0,1,.03-.238,2.323,2.323,0,0,1,.888-1.354c.012-.24.026-.506.042-.8.05-.988.12-2.306.12-3.946C11.76,5.748,16.348,0,22,0c5.114,0,7.59,2.724,8,4.484,1.25.692,2.34,1.834,2.34,5.016v4.754a2.631,2.631,0,0,1,.93,1.268,1.007,1.007,0,0,1,.05.318,1.035,1.035,0,0,1-1,1.04.971.971,0,0,1-.988-.81.609.609,0,0,0-.118-.164.874.874,0,0,1-.876-.966V9.5c0-2.61-.838-3.032-1.338-3.282a1.412,1.412,0,0,1-.94-1.238C28.024,4.378,26.34,2,22,2c-4.76,0-8.24,4.932-8.24,7.5,0,1.684-.07,3.036-.126,4.05-.028.578-.054,1.044-.054,1.39a1,1,0,0,1-.9,1,11.437,11.437,0,0,0,.7,2.824,2.924,2.924,0,0,1,1.094,2.52c0,1.128,1.316,2.734,2.54,3.75a1,1,0,0,1,.36.77c0,3.8-1.178,6.376-3.318,7.264L5.956,35.769A4.415,4.415,0,0,0,3.049,38.9L2.281,42H22.04a1,1,0,1,1,0,2Z" transform="translate(0.001)" fill="#e27e2b"/>
    </g>
    <g id="Group_17465" data-name="Group 17465" transform="translate(24 19.999)">
      <path id="Path_14911" data-name="Path 14911" d="M24,38a.97.97,0,0,1-.388-.08C23.136,37.722,12,32.908,12,23.072V14.714a1,1,0,0,1,.68-.948l11-3.714a1,1,0,0,1,.64,0l11,3.714a1,1,0,0,1,.68.948v8.358c0,9.836-11.136,14.65-11.612,14.85A1,1,0,0,1,24,38ZM14,15.432v7.64c0,7.57,8.11,11.916,10,12.828,1.888-.914,10-5.276,10-12.828v-7.64L24,12.056Z" transform="translate(-12 -10)" fill="#e27e2b"/>
    </g>
    <g id="Group_17466" data-name="Group 17466" transform="translate(30.001 28.999)">
      <path id="Path_14912" data-name="Path 14912" d="M20,23.5a.47.47,0,0,1-.054,0,1,1,0,0,1-.726-.374l-4-5a1,1,0,0,1,1.562-1.25L20.081,21l6.21-6.21a1,1,0,0,1,1.414,1.414l-7,7A.988.988,0,0,1,20,23.5Z" transform="translate(-15 -14.5)" fill="#e27e2b"/>
    </g>
  </g>
</svg>
