<svg xmlns="http://www.w3.org/2000/svg" width="576" height="576" viewBox="0 0 576 576">
  <g id="Group_19090" data-name="Group 19090" transform="translate(-724 5532)">
    <g id="Rectangle_9785" data-name="Rectangle 9785" transform="translate(724 -5532)" fill="#fff" stroke="#707070" stroke-width="1" opacity="0">
      <rect width="576" height="576" stroke="none"/>
      <rect x="0.5" y="0.5" width="575" height="575" fill="none"/>
    </g>
    <g id="Insurance-cuate_3_" data-name="Insurance-cuate (3)" transform="translate(688.53 -5574.35)">
      <g id="freepik--Shadow--inject-69" transform="translate(50.647 559.069)">
        <ellipse id="Ellipse_1003" data-name="Ellipse 1003" cx="273.312" cy="26.496" rx="273.312" ry="26.496" fill="#ebebeb"/>
      </g>
      <g id="freepik--Floor--inject-69" transform="translate(36.47 524.118)">
        <path id="Path_34825" data-name="Path 34825" d="M36.47,402.653l71.869-.323,71.869-.121,143.751-.229,143.751.229,71.869.108,71.869.337-71.869.323-71.869.121-143.751.229L180.208,403.1l-71.869-.121Z" transform="translate(-36.47 -401.98)" fill="#263238"/>
      </g>
      <g id="freepik--Clipboard--inject-69" transform="translate(138.74 60.902)">
        <rect id="Rectangle_9723" data-name="Rectangle 9723" width="360.637" height="479.022" transform="translate(0 34.817)" fill="#00a3b1"/>
        <g id="Group_19089" data-name="Group 19089" transform="translate(0 34.817)" opacity="0.1">
          <rect id="Rectangle_9724" data-name="Rectangle 9724" width="360.637" height="479.022"/>
        </g>
        <rect id="Rectangle_9725" data-name="Rectangle 9725" width="360.637" height="479.022" transform="translate(9.802 34.817)" fill="#00a3b1"/>
        <rect id="Rectangle_9726" data-name="Rectangle 9726" width="318.374" height="431.576" transform="translate(28.202 57.984) rotate(-0.73)" fill="#ebebeb"/>
        <rect id="Rectangle_9727" data-name="Rectangle 9727" width="431.576" height="318.374" transform="translate(21.42 484.048) rotate(-88.76)" fill="#dbdbdb"/>
        <rect id="Rectangle_9728" data-name="Rectangle 9728" width="318.374" height="431.576" transform="translate(26.039 55.941)" fill="#fff"/>
        <rect id="Rectangle_9729" data-name="Rectangle 9729" width="27.035" height="27.035" transform="translate(62.39 304.534)" fill="#ebebeb"/>
        <rect id="Rectangle_9730" data-name="Rectangle 9730" width="87.581" height="3.958" transform="translate(104.02 304.534)" fill="#455a64"/>
        <rect id="Rectangle_9731" data-name="Rectangle 9731" width="204.041" height="3.958" transform="translate(104.02 312.235)" fill="#ebebeb"/>
        <rect id="Rectangle_9732" data-name="Rectangle 9732" width="204.041" height="3.958" transform="translate(104.02 319.923)" fill="#ebebeb"/>
        <rect id="Rectangle_9733" data-name="Rectangle 9733" width="204.041" height="3.958" transform="translate(104.02 327.61)" fill="#ebebeb"/>
        <path id="Path_34826" data-name="Path 34826" d="M160.25,297.533c1,.835,1.939,1.7,2.881,2.585s1.845,1.777,2.773,2.693c1.818,1.791,3.568,3.649,5.3,5.52l-3.1.2a121.071,121.071,0,0,1,8.415-14.81c1.562-2.356,3.218-4.672,5-6.907a64.629,64.629,0,0,1,5.762-6.436,62.577,62.577,0,0,1-3,8.078q-1.737,3.918-3.783,7.634a122.917,122.917,0,0,1-9.155,14.325l-1.7,2.275-1.346-2.073c-1.441-2.114-2.841-4.241-4.174-6.422-.66-1.1-1.346-2.181-1.979-3.3S160.829,298.717,160.25,297.533Z" transform="translate(-95.867 19.118)" fill="#e27e28"/>
        <rect id="Rectangle_9734" data-name="Rectangle 9734" width="27.035" height="27.035" transform="translate(62.39 349.273)" fill="#ebebeb"/>
        <rect id="Rectangle_9735" data-name="Rectangle 9735" width="87.581" height="3.958" transform="translate(104.02 349.273)" fill="#455a64"/>
        <rect id="Rectangle_9736" data-name="Rectangle 9736" width="204.041" height="3.958" transform="translate(104.02 356.961)" fill="#ebebeb"/>
        <rect id="Rectangle_9737" data-name="Rectangle 9737" width="204.041" height="3.958" transform="translate(104.02 364.649)" fill="#ebebeb"/>
        <rect id="Rectangle_9738" data-name="Rectangle 9738" width="204.041" height="3.958" transform="translate(104.02 372.337)" fill="#ebebeb"/>
        <rect id="Rectangle_9739" data-name="Rectangle 9739" width="27.035" height="27.035" transform="translate(62.39 394)" fill="#ebebeb"/>
        <rect id="Rectangle_9740" data-name="Rectangle 9740" width="87.581" height="3.958" transform="translate(104.02 394)" fill="#455a64"/>
        <rect id="Rectangle_9741" data-name="Rectangle 9741" width="204.041" height="3.958" transform="translate(104.02 401.687)" fill="#ebebeb"/>
        <rect id="Rectangle_9742" data-name="Rectangle 9742" width="204.041" height="3.958" transform="translate(104.02 409.375)" fill="#ebebeb"/>
        <rect id="Rectangle_9743" data-name="Rectangle 9743" width="204.041" height="3.958" transform="translate(104.02 417.063)" fill="#ebebeb"/>
        <rect id="Rectangle_9744" data-name="Rectangle 9744" width="136.723" height="3.958" transform="translate(171.338 447.208)" fill="#ebebeb"/>
        <rect id="Rectangle_9745" data-name="Rectangle 9745" width="74.117" height="3.958" transform="translate(147.104 164.324)" fill="#455a64"/>
        <rect id="Rectangle_9746" data-name="Rectangle 9746" width="160.958" height="3.958" transform="translate(147.104 172.011)" fill="#ebebeb"/>
        <rect id="Rectangle_9747" data-name="Rectangle 9747" width="160.958" height="3.958" transform="translate(147.104 179.712)" fill="#ebebeb"/>
        <rect id="Rectangle_9748" data-name="Rectangle 9748" width="160.958" height="3.958" transform="translate(147.104 195.088)" fill="#ebebeb"/>
        <rect id="Rectangle_9749" data-name="Rectangle 9749" width="69.997" height="3.958" transform="translate(147.104 202.776)" fill="#ebebeb"/>
        <rect id="Rectangle_9750" data-name="Rectangle 9750" width="245.671" height="37.631" transform="translate(62.39 97.248)" fill="#e27e28"/>
        <path id="Path_34827" data-name="Path 34827" d="M171.34,158.446V136.46h4.268v21.986Z" transform="translate(-92.026 -30.73)" fill="#fff"/>
        <path id="Path_34828" data-name="Path 34828" d="M185.638,144.35v14.1H181.37V136.46h3.312l11.458,14.433V136.487h4.268v21.959h-3.46Z" transform="translate(-88.552 -30.73)" fill="#fff"/>
        <path id="Path_34829" data-name="Path 34829" d="M215.893,142.264a5.183,5.183,0,0,0-.794-.592,10.251,10.251,0,0,0-1.346-.727,10.583,10.583,0,0,0-1.777-.606,7.918,7.918,0,0,0-1.952-.242,4.389,4.389,0,0,0-2.625.646,2.141,2.141,0,0,0-.875,1.831,1.845,1.845,0,0,0,.337,1.131,2.787,2.787,0,0,0,.942.781,7.674,7.674,0,0,0,1.562.619c.633.188,1.346.39,2.181.592a27.821,27.821,0,0,1,2.868.956,7.714,7.714,0,0,1,2.235,1.239,5.3,5.3,0,0,1,1.414,1.777,6.059,6.059,0,0,1,.485,2.558,6.355,6.355,0,0,1-.66,3.016,5.708,5.708,0,0,1-1.8,2.033,7.849,7.849,0,0,1-2.6,1.131,13.462,13.462,0,0,1-3.11.364,16.494,16.494,0,0,1-4.888-.741,15.254,15.254,0,0,1-4.335-2.1l1.885-3.689a5.844,5.844,0,0,0,1.01.727,18.162,18.162,0,0,0,1.723.9,13.087,13.087,0,0,0,2.195.754,10.152,10.152,0,0,0,2.477.31c2.356,0,3.527-.754,3.527-2.262a1.885,1.885,0,0,0-.4-1.212,3.406,3.406,0,0,0-1.144-.862,12.537,12.537,0,0,0-1.791-.687l-2.356-.673a21.3,21.3,0,0,1-2.693-.942,7.459,7.459,0,0,1-1.939-1.212,4.376,4.376,0,0,1-1.158-1.616,5.385,5.385,0,0,1-.39-2.181,6.8,6.8,0,0,1,.619-2.975,6,6,0,0,1,1.71-2.168,8.078,8.078,0,0,1,2.558-1.346,10.246,10.246,0,0,1,3.124-.458,12.211,12.211,0,0,1,4.281.727,16.157,16.157,0,0,1,3.406,1.723Z" transform="translate(-81.701 -30.772)" fill="#fff"/>
        <path id="Path_34830" data-name="Path 34830" d="M229.266,154.835a4.712,4.712,0,0,0,4.228-2.235,6.449,6.449,0,0,0,.9-2.275,13.221,13.221,0,0,0,.269-2.693v-11.2h4.281v11.2a16.668,16.668,0,0,1-.539,4.255,9.693,9.693,0,0,1-1.71,3.46,8.078,8.078,0,0,1-2.989,2.356,10.044,10.044,0,0,1-4.362.862,9.8,9.8,0,0,1-4.47-.916,8.186,8.186,0,0,1-2.989-2.41,9.748,9.748,0,0,1-1.67-3.487,16.6,16.6,0,0,1-.5-4.12v-11.2h4.268v11.2a12.387,12.387,0,0,0,.269,2.693,6.732,6.732,0,0,0,.889,2.275,4.954,4.954,0,0,0,1.656,1.6,4.861,4.861,0,0,0,2.464.633Z" transform="translate(-75.269 -30.741)" fill="#fff"/>
        <path id="Path_34831" data-name="Path 34831" d="M240.62,158.446V136.46h9.721a6.328,6.328,0,0,1,2.8.633,7.149,7.149,0,0,1,2.208,1.67,8.348,8.348,0,0,1,1.468,2.356,7.109,7.109,0,0,1,.525,2.693,7.284,7.284,0,0,1-1.077,3.878,6.139,6.139,0,0,1-2.895,2.531l5.022,8.267h-4.807l-4.483-7.378h-4.214v7.378Zm4.268-11.121h5.385a2.289,2.289,0,0,0,1.1-.283,2.6,2.6,0,0,0,.875-.754,4.038,4.038,0,0,0,.592-1.131,4.672,4.672,0,0,0,.215-1.346,3.742,3.742,0,0,0-.256-1.427,3.621,3.621,0,0,0-.66-1.131,2.962,2.962,0,0,0-.956-.741,2.518,2.518,0,0,0-1.1-.269h-5.17Z" transform="translate(-68.03 -30.73)" fill="#fff"/>
        <path id="Path_34832" data-name="Path 34832" d="M265.9,136.46h3.783l8.361,21.986h-4.4l-2.02-5.48h-7.688l-2.006,5.48h-4.4Zm4.928,13.464L267.8,141.28l-3.164,8.644Z" transform="translate(-62.173 -30.73)" fill="#fff"/>
        <path id="Path_34833" data-name="Path 34833" d="M282.295,144.35v14.1H278V136.46h3.326l11.484,14.433V136.487h4.268v21.959H293.6Z" transform="translate(-55.083 -30.73)" fill="#fff"/>
        <path id="Path_34834" data-name="Path 34834" d="M298,147.344a11.444,11.444,0,0,1,.727-4.039,10.919,10.919,0,0,1,2.127-3.514,10.771,10.771,0,0,1,3.406-2.5,10.434,10.434,0,0,1,4.578-.956,10.071,10.071,0,0,1,5.251,1.346,8.509,8.509,0,0,1,3.3,3.474l-3.231,2.289a5.292,5.292,0,0,0-1.05-1.562,5.21,5.21,0,0,0-1.346-1.01,5.925,5.925,0,0,0-1.481-.539,6.732,6.732,0,0,0-1.521-.175,5.628,5.628,0,0,0-2.8.66,6.166,6.166,0,0,0-1.979,1.683,7.352,7.352,0,0,0-1.2,2.356,8.861,8.861,0,0,0-.4,2.612,8.551,8.551,0,0,0,.472,2.8,7.136,7.136,0,0,0,1.346,2.368,6.516,6.516,0,0,0,2.033,1.643,5.547,5.547,0,0,0,2.625.619,7.041,7.041,0,0,0,1.548-.188,5.763,5.763,0,0,0,1.535-.592,5.385,5.385,0,0,0,1.346-1.037,4.78,4.78,0,0,0,.983-1.521l3.5,2.006a6.57,6.57,0,0,1-1.494,2.181,9.654,9.654,0,0,1-2.208,1.6,11.242,11.242,0,0,1-2.612.983,11.418,11.418,0,0,1-2.693.35,9.425,9.425,0,0,1-4.308-1,11.189,11.189,0,0,1-3.366-2.585,11.969,11.969,0,0,1-2.195-3.622,11.377,11.377,0,0,1-.889-4.133Z" transform="translate(-48.156 -30.776)" fill="#fff"/>
        <path id="Path_34835" data-name="Path 34835" d="M333.508,154.69v3.756H318.24V136.46h14.985V140.2H322.454v5.291h9.263v3.474h-9.263v5.722Z" transform="translate(-41.145 -30.73)" fill="#fff"/>
        <path id="Path_34836" data-name="Path 34836" d="M405.274,283.091h-247V230.26h247Zm-245.657-1.346H403.927V231.606H159.616Z" transform="translate(-96.553 1.759)" fill="#ebebeb"/>
        <rect id="Rectangle_9751" data-name="Rectangle 9751" width="245.671" height="1.346" transform="translate(62.39 263.16)" fill="#ebebeb"/>
        <rect id="Rectangle_9752" data-name="Rectangle 9752" width="245.671" height="1.346" transform="translate(62.39 242.843)" fill="#ebebeb"/>
        <rect id="Rectangle_9753" data-name="Rectangle 9753" width="1.346" height="51.498" transform="translate(141.907 232.692)" fill="#ebebeb"/>
        <rect id="Rectangle_9754" data-name="Rectangle 9754" width="1.346" height="51.498" transform="translate(227.185 232.692)" fill="#ebebeb"/>
        <path id="Path_34837" data-name="Path 34837" d="M169.19,235.026c4.335-.269,8.684-.4,13.033-.512s8.684-.135,13.033-.162,8.684,0,13.033.162l6.516.188c2.168.108,4.335.175,6.516.323-2.181.162-4.349.229-6.516.337l-6.516.189c-4.349.121-8.7.135-13.033.148s-8.7,0-13.033-.148S173.525,235.308,169.19,235.026Z" transform="translate(-92.77 3.173)" fill="#455a64"/>
        <path id="Path_34838" data-name="Path 34838" d="M230.64,235.026c4.349-.269,8.684-.4,13.033-.512s8.684-.135,13.033-.162,8.684,0,13.033.162l6.516.188c2.168.108,4.349.175,6.516.323-2.168.162-4.349.229-6.516.337l-6.516.189c-4.349.121-8.684.135-13.033.148s-8.684,0-13.033-.148S234.989,235.308,230.64,235.026Z" transform="translate(-71.486 3.173)" fill="#455a64"/>
        <path id="Path_34839" data-name="Path 34839" d="M292.47,235.026c4.349-.269,8.7-.4,13.033-.512s8.7-.135,13.033-.162,8.7,0,13.033.162l6.516.188c2.181.108,4.349.175,6.516.323-2.168.162-4.335.229-6.516.337l-6.516.189c-4.335.121-8.684.135-13.033.148s-8.684,0-13.033-.148S296.819,235.308,292.47,235.026Z" transform="translate(-50.071 3.173)" fill="#455a64"/>
        <path id="Path_34840" data-name="Path 34840" d="M169.19,244.676c4.335-.269,8.684-.4,13.033-.512s8.684-.135,13.033-.162,8.684,0,13.033.162l6.516.188c2.168.108,4.335.175,6.516.323-2.181.162-4.349.215-6.516.337l-6.516.188c-4.349.121-8.7.135-13.033.148s-8.7,0-13.033-.148S173.525,244.958,169.19,244.676Z" transform="translate(-92.77 6.515)" fill="#ebebeb"/>
        <path id="Path_34841" data-name="Path 34841" d="M230.64,244.676c4.349-.269,8.684-.4,13.033-.512s8.684-.135,13.033-.162,8.684,0,13.033.162l6.516.188c2.168.108,4.349.175,6.516.323-2.168.162-4.349.215-6.516.337l-6.516.188c-4.349.121-8.684.135-13.033.148s-8.684,0-13.033-.148S234.989,244.958,230.64,244.676Z" transform="translate(-71.486 6.515)" fill="#ebebeb"/>
        <path id="Path_34842" data-name="Path 34842" d="M292.47,244.676c4.349-.269,8.7-.4,13.033-.512s8.7-.135,13.033-.162,8.7,0,13.033.162l6.516.188c2.181.108,4.349.175,6.516.323-2.168.162-4.335.215-6.516.337l-6.516.188c-4.335.121-8.684.135-13.033.148s-8.684,0-13.033-.148S296.819,244.958,292.47,244.676Z" transform="translate(-50.071 6.515)" fill="#ebebeb"/>
        <path id="Path_34843" data-name="Path 34843" d="M169.19,248.554c4.335-.269,8.684-.4,13.033-.512s8.684-.148,13.033-.162,8.684,0,13.033.162l6.516.189c2.168.108,4.335.175,6.516.323-2.181.162-4.349.215-6.516.337l-6.516.189c-4.349.121-8.7.135-13.033.148s-8.7,0-13.033-.162S173.525,248.837,169.19,248.554Z" transform="translate(-92.77 7.861)" fill="#ebebeb"/>
        <path id="Path_34844" data-name="Path 34844" d="M230.64,248.554c4.349-.269,8.684-.4,13.033-.512s8.684-.148,13.033-.162,8.684,0,13.033.162l6.516.189c2.168.108,4.349.175,6.516.323-2.168.162-4.349.215-6.516.337l-6.516.189c-4.349.121-8.684.135-13.033.148s-8.684,0-13.033-.162S234.989,248.837,230.64,248.554Z" transform="translate(-71.486 7.861)" fill="#ebebeb"/>
        <path id="Path_34845" data-name="Path 34845" d="M292.47,248.554c4.349-.269,8.7-.4,13.033-.512s8.7-.148,13.033-.162,8.7,0,13.033.162l6.516.189c2.181.108,4.349.175,6.516.323-2.168.162-4.335.215-6.516.337l-6.516.189c-4.335.121-8.684.135-13.033.148s-8.684,0-13.033-.162S296.819,248.837,292.47,248.554Z" transform="translate(-50.071 7.861)" fill="#ebebeb"/>
        <path id="Path_34846" data-name="Path 34846" d="M169.19,258.916c4.335-.269,8.684-.4,13.033-.512s8.684-.135,13.033-.162,8.684,0,13.033.162l6.516.189c2.168.108,4.335.175,6.516.323-2.181.162-4.349.215-6.516.337l-6.516.189c-4.349.121-8.7.135-13.033.148s-8.7,0-13.033-.148S173.525,259.266,169.19,258.916Z" transform="translate(-92.77 11.448)" fill="#ebebeb"/>
        <path id="Path_34847" data-name="Path 34847" d="M230.64,258.916c4.349-.269,8.684-.4,13.033-.512s8.684-.135,13.033-.162,8.684,0,13.033.162l6.516.189c2.168.108,4.349.175,6.516.323-2.168.162-4.349.215-6.516.337l-6.516.189c-4.349.121-8.684.135-13.033.148s-8.684,0-13.033-.148S234.989,259.266,230.64,258.916Z" transform="translate(-71.486 11.448)" fill="#ebebeb"/>
        <path id="Path_34848" data-name="Path 34848" d="M292.47,258.916c4.349-.269,8.7-.4,13.033-.512s8.7-.135,13.033-.162,8.7,0,13.033.162l6.516.189c2.181.108,4.349.175,6.516.323-2.168.162-4.335.215-6.516.337l-6.516.189c-4.335.121-8.684.135-13.033.148s-8.684,0-13.033-.148S296.819,259.266,292.47,258.916Z" transform="translate(-50.071 11.448)" fill="#ebebeb"/>
        <path id="Path_34849" data-name="Path 34849" d="M169.19,262.794c4.335-.269,8.684-.4,13.033-.512s8.684-.148,13.033-.162,8.684,0,13.033.162l6.516.189c2.168.108,4.335.175,6.516.323-2.181.162-4.349.215-6.516.337l-6.516.189c-4.349.121-8.7.135-13.033.148s-8.7,0-13.033-.162S173.525,263.077,169.19,262.794Z" transform="translate(-92.77 12.793)" fill="#ebebeb"/>
        <path id="Path_34850" data-name="Path 34850" d="M230.64,262.794c4.349-.269,8.684-.4,13.033-.512s8.684-.148,13.033-.162,8.684,0,13.033.162l6.516.189c2.168.108,4.349.175,6.516.323-2.168.162-4.349.215-6.516.337l-6.516.189c-4.349.121-8.684.135-13.033.148s-8.684,0-13.033-.162S234.989,263.077,230.64,262.794Z" transform="translate(-71.486 12.793)" fill="#ebebeb"/>
        <path id="Path_34851" data-name="Path 34851" d="M292.47,262.794c4.349-.269,8.7-.4,13.033-.512s8.7-.148,13.033-.162,8.7,0,13.033.162l6.516.189c2.181.108,4.349.175,6.516.323-2.168.162-4.335.215-6.516.337l-6.516.189c-4.335.121-8.684.135-13.033.148s-8.684,0-13.033-.162S296.819,263.077,292.47,262.794Z" transform="translate(-50.071 12.793)" fill="#ebebeb"/>
        <path id="Path_34852" data-name="Path 34852" d="M217.573,209.934a81.5,81.5,0,0,1-26.106,22.659,81.5,81.5,0,0,1-26.106-22.659c-9.182-12.117-8.724-31.2,4.416-35.315,14.541-4.551,21.69,17.328,21.69,17.328s7.243-22.026,21.69-17.328C226.284,178.874,226.755,197.777,217.573,209.934Z" transform="translate(-96.266 -17.741)" fill="#e27e28"/>
        <path id="Path_34853" data-name="Path 34853" d="M181.322,219.649l-3.958-16.506-2.585,5.816H158.77V207.1h14.8l4.322-9.734,3.083,12.871,4.376-26.658,3.851,21.084,3.056-8.805,4.807,14.42,1.064-3.191h26.294v1.871H199.457l-2.4,7.2-4.847-14.514-3.568,10.327-3.2-17.489Z" transform="translate(-96.38 -14.41)" fill="#fff"/>
        <rect id="Rectangle_9755" data-name="Rectangle 9755" width="156.38" height="47.675" transform="translate(107.036 26.066)" fill="#c7c7c7"/>
        <path id="Path_34854" data-name="Path 34854" d="M311.581,57.93H214.535L210.24,84H317.316ZM263.771,76.685a5.722,5.722,0,1,1,5.722-5.722A5.722,5.722,0,0,1,263.771,76.685Z" transform="translate(-78.552 -57.93)" fill="#c7c7c7"/>
        <path id="Path_34855" data-name="Path 34855" d="M317.316,78.79H210.24l.956-5.83H316.024Z" transform="translate(-78.552 -52.724)" fill="#a6a6a6"/>
      </g>
      <g id="freepik--Plant--inject-69" transform="translate(40.318 353.933)">
        <path id="Path_34856" data-name="Path 34856" d="M87.171,363.66a66.594,66.594,0,0,0-2.141,12.117c.108.2.094.942,0,.74,0,.673-1.037.552-1.05-.108v-1.346c-2.37-2.935-5.816-4.793-8.59-7.351a16.076,16.076,0,0,1-4.712-7.5c-2.3-7.944-.148-16.372-2.922-24.234-2.383-6.84-6.732-12.777-10.313-18.97-3.824-6.557-6.651-13.464-6.934-21.111-.229-5.87.471-13.693,4.955-18.1,4.739-4.672,10.609-1.171,14.245,2.989,10.529,12.117,15.4,27.358,17.368,42.962,1.091,8.644,2.221,17.341,1.952,26.052A70.184,70.184,0,0,1,87.171,363.66Z" transform="translate(-35.468 -275.576)" fill="#e27e28"/>
        <path id="Path_34857" data-name="Path 34857" d="M82.2,373.5a148.573,148.573,0,0,0-.229-24.477v-.081c.135-6.624.66-13.208.4-19.832a117.913,117.913,0,0,0-2.922-21.272c0-.081-.148,0-.121,0a140.276,140.276,0,0,1,2.3,20.8q.2,5.614-.094,11.215c0,1.212-.175,2.437-.256,3.662h0a131.082,131.082,0,0,0-19.684-52.1c-.148-.215-.525,0-.39.242a135.726,135.726,0,0,1,16.022,38.627c-5.062-9.425-12.71-17.1-18.378-26.106H58.76c5.1,10.03,13.464,17.947,18.849,27.829.929,4.039,1.7,8.078,2.262,12.185A137.033,137.033,0,0,1,81.1,361.127c-3.083-5.762-6.288-11.283-8.819-17.382,0-.162-.3,0-.242.108A68.139,68.139,0,0,0,81.11,362.42c0,4.039-.094,8.011-.337,12.01-.633,10.69-2.45,21.232-3.3,31.882a.242.242,0,1,0,.485,0A243.934,243.934,0,0,0,82.2,373.5Z" transform="translate(-32.598 -270.122)" fill="#263238"/>
        <path id="Path_34858" data-name="Path 34858" d="M67.781,291.15H67.66a169.642,169.642,0,0,1,4.5,16.453.2.2,0,1,0,.4-.067A58.647,58.647,0,0,0,67.781,291.15Z" transform="translate(-29.515 -270.182)" fill="#263238"/>
        <path id="Path_34859" data-name="Path 34859" d="M114.484,309.561A82.127,82.127,0,0,1,110,318.783c-3.514,6.382-7.19,12.238-7.849,19.67a45.684,45.684,0,0,1-1.414,9.842,29.19,29.19,0,0,1-3.931,7.715C93,361.557,88.243,366.337,84.689,372.1a68.179,68.179,0,0,0-8.078,19.388c-.081.377-.673.269-.579-.094a.229.229,0,0,0,0-.094.081.081,0,0,1,0-.067c-.565-15.941.714-32,5.574-47.271A163.055,163.055,0,0,1,89.321,324.3a46.732,46.732,0,0,1,10.421-15c2.975-2.693,9.425-7.728,13.625-5.049C115.44,305.522,115.278,307.5,114.484,309.561Z" transform="translate(-26.658 -265.907)" fill="#e27e28"/>
        <path id="Path_34860" data-name="Path 34860" d="M99.483,342.147a129.55,129.55,0,0,1-9.25,13.3c-1.548,2.02-3.11,4.039-4.658,6.032-.727.956-1.535,1.9-2.208,2.922.417-1.669.835-3.352,1.266-5.022a194.168,194.168,0,0,1,7.1-23.911,162.009,162.009,0,0,1,11.054-21.7c.108-.175-.189-.31-.3-.135-3.366,5.534-6.732,11.067-9.613,16.91a89.92,89.92,0,0,0-4.039,10.03,155.177,155.177,0,0,1,5.385-21.434h-.094a73.417,73.417,0,0,0-5.641,22.3h0q-1.037,3.11-1.912,6.274c-2.518,8.913-4.712,17.92-6.732,26.927a95.593,95.593,0,0,1,1.535-17.718c0-.135-.175-.161-.2,0A56.385,56.385,0,0,0,79.624,375.6q-1.158,5.156-2.262,10.327c-1.562,7.338-3.487,14.81-4.4,22.282a.148.148,0,1,0,.3,0c1.091-4.039,1.75-8.186,2.693-12.252s1.818-8.159,2.693-12.238c1.346-5.924,2.841-11.835,4.322-17.745a31.722,31.722,0,0,1,4.322-5.911c1.562-1.993,3.137-4.039,4.658-6a88.051,88.051,0,0,0,7.674-11.875C99.672,342.12,99.537,342.053,99.483,342.147Z" transform="translate(-27.679 -262.424)" fill="#263238"/>
        <path id="Path_34861" data-name="Path 34861" d="M95.5,329.726a83.032,83.032,0,0,0-9.061,14.406c0,.067,0,.135.108.067,3.043-4.78,6.045-9.6,9.088-14.379C95.69,329.74,95.555,329.659,95.5,329.726Z" transform="translate(-23.01 -256.829)" fill="#263238"/>
        <path id="Path_34862" data-name="Path 34862" d="M43.976,323.787c2.073,3.568,4.43,7.836,3.541,12.117-.565,2.693-2.545,4.9-2.895,7.661-.808,6.086,5.264,10.111,9.653,12.979,10.932,7.19,25.944,13.585,27.937,28.274.081.525.969.39.9-.121a.229.229,0,0,0,0-.094v-.081a56.292,56.292,0,0,0-.2-22.4,71.667,71.667,0,0,0-8.792-21.057c-6.584-11.229-13.558-22.74-23.521-31.343-2.693-2.383-8.4-6.664-10.6-1.279S41.445,319.519,43.976,323.787Z" transform="translate(-39.328 -265.094)" fill="#e27e28"/>
        <path id="Path_34863" data-name="Path 34863" d="M50.254,340.878C57.511,348.727,69.1,353.13,75.3,361.922a88.025,88.025,0,0,0-19.253-36.136.286.286,0,0,1,.4-.4,71.358,71.358,0,0,1,15.726,22.78,100.575,100.575,0,0,0-6.732-17.314c-.108-.215.2-.4.323-.189a65.971,65.971,0,0,1,7.3,19.455c8.226,19.926,8.994,43.286,7.27,64.289,0,.3-.485.31-.471,0,.471-16.547.2-33.39-3.77-49.546-.081-.337-.175-.673-.256-1.01-6.732-9.424-18.284-13.854-25.662-22.888C50.052,340.905,50.173,340.784,50.254,340.878Z" transform="translate(-35.589 -258.355)" fill="#263238"/>
        <path id="Path_34864" data-name="Path 34864" d="M49.079,331.873c3.81,3.487,7.553,7.068,11.377,10.555v.067a55.2,55.2,0,0,1-11.646-10.434C48.688,331.94,48.89,331.725,49.079,331.873Z" transform="translate(-36.057 -256.095)" fill="#263238"/>
        <path id="Path_34865" data-name="Path 34865" d="M48.574,320.625A119.425,119.425,0,0,0,59.991,336.3c0,.067,0,.161-.094.094a55.052,55.052,0,0,1-11.511-15.645A.112.112,0,1,1,48.574,320.625Z" transform="translate(-36.198 -259.994)" fill="#263238"/>
        <path id="Path_34866" data-name="Path 34866" d="M61.26,414.028H94.623l-4.5-44.888H66.4Z" transform="translate(-31.731 -243.169)" fill="#455a64"/>
        <path id="Path_34867" data-name="Path 34867" d="M64.45,376.437H89.762l-.741-7.3H65.3Z" transform="translate(-30.627 -243.169)" fill="#263238"/>
        <rect id="Rectangle_9756" data-name="Rectangle 9756" width="31.276" height="7.163" transform="translate(61.841 128.165) rotate(180)" fill="#455a64"/>
      </g>
      <g id="freepik--Shield--inject-69" transform="translate(108.325 451.576)">
        <path id="Path_34868" data-name="Path 34868" d="M200.255,384.075s-8.078,64.625-21.326,79.112c-15.914,17.435-27.466,14.877-33.888,23.871h0c-6.422-9.007-17.974-6.436-33.9-23.884-13.248-14.527-21.3-79.112-21.3-79.112,34.925-16.951,55.2-35.961,55.2-35.961h0C145.674,348.719,165.869,367.393,200.255,384.075Z" transform="translate(-89.84 -348.1)" fill="#37474f"/>
        <path id="Path_34869" data-name="Path 34869" d="M145.041,348.127V487.058h0c-6.422-9.007-17.974-6.436-33.9-23.884-13.248-14.527-21.3-79.112-21.3-79.112,34.925-16.951,55.2-35.961,55.2-35.961Z" transform="translate(-89.84 -348.1)" fill="#263238"/>
        <path id="Path_34870" data-name="Path 34870" d="M189.479,386.507s-6.813,54.541-18,66.82c-13.464,14.81-23.225,12.588-28.651,20.2-5.385-7.594-15.187-5.385-28.637-20.2-11.2-12.279-18-66.82-18-66.82,29.512-14.339,46.638-30.387,46.638-30.387S159.981,372.115,189.479,386.507Z" transform="translate(-87.641 -345.322)" fill="#455a64"/>
        <path id="Path_34871" data-name="Path 34871" d="M96.2,386.5s6.813,54.541,18.014,66.833c13.464,14.729,23.2,12.575,28.624,20.2V356.13C142.313,356.628,125.255,372.394,96.2,386.5Z" transform="translate(-87.637 -345.319)" fill="#37474f"/>
        <circle id="Ellipse_1004" data-name="Ellipse 1004" cx="21.636" cy="21.636" r="21.636" transform="translate(33.565 47.863)" fill="#e27e28"/>
        <path id="Path_34872" data-name="Path 34872" d="M131.49,416.707l-9.64-10.017,3.581-3.433,5.3,5.52L142.18,391.22l4.16,2.706Z" transform="translate(-78.753 -333.165)" fill="#fff"/>
      </g>
      <g id="freepik--Icon--inject-69" transform="translate(90.015 49.35)">
        <path id="Path_34873" data-name="Path 34873" d="M131.235,154.131a49.815,49.815,0,1,1,49.815-49.815,49.815,49.815,0,0,1-49.815,49.815Zm0-97.315a47.554,47.554,0,1,0,47.553,47.554A47.554,47.554,0,0,0,131.235,56.816Z" transform="translate(-74.446 -47.566)" fill="#37474f"/>
        <path id="Path_34874" data-name="Path 34874" d="M130.525,162.956c-.754,0-1.508-.081-2.262-.148l.162-2.181c.714.067,1.441.108,2.168.148Zm7.93-.2-.215-2.208c.727-.067,1.454-.148,2.168-.242l.3,2.195C139.963,162.593,139.2,162.687,138.455,162.754Zm-18.028-1.144c-.741-.162-1.468-.35-2.195-.552l.579-2.127c.687.188,1.346.364,2.114.512Zm28.045-.727-.606-2.127c.7-.2,1.346-.4,2.087-.633l.687,2.1C149.967,160.465,149.2,160.627,148.472,160.883Zm-37.7-2.41c-.7-.3-1.346-.606-2.073-.942l.942-1.993c.66.31,1.346.606,1.993.889Zm47.257-1.225-.969-1.993c.646-.31,1.346-.646,1.925-.983l1.05,1.939c-.646.377-1.373.714-1.993,1.037Zm-56.238-3.608c-.633-.417-1.252-.848-1.871-1.346l1.346-1.8c.592.417,1.185.835,1.791,1.239Zm64.935-1.669-1.346-1.777c.579-.431,1.158-.875,1.723-1.346l1.346,1.737c-.552.485-1.144.942-1.764,1.387ZM93.783,147.3c-.552-.525-1.091-1.064-1.616-1.6l1.6-1.548c.5.525,1.01,1.037,1.535,1.548Zm80.539-2.073-1.6-1.521c.5-.525.983-1.064,1.468-1.6l1.669,1.454C175.359,144.12,174.848,144.686,174.322,145.224Zm-87.258-5.587-1.346-1.858,1.831-1.239c.4.606.821,1.2,1.252,1.791Zm93.586-2.4-1.858-1.225c.39-.606.781-1.212,1.158-1.845l1.9,1.144c-.39.646-.794,1.293-1.2,1.925ZM81.827,130.9c-.337-.673-.646-1.346-.942-2.046l2.02-.889c.3.66.592,1.346.916,1.966Zm103.67-2.693-2.033-.862c.283-.66.552-1.346.808-2.02l2.073.767c-.337.74-.619,1.454-.916,2.141ZM78.3,121.353c-.2-.727-.39-1.468-.565-2.208l2.154-.5c.162.7.35,1.346.539,2.114Zm110.307-2.868-2.168-.471c.162-.714.31-1.427.431-2.141l2.181.39q-.269,1.158-.512,2.248ZM76.4,111.35q-.108-1.131-.162-2.262l2.221-.108c0,.727.081,1.454.148,2.168Zm113.444-2.935-2.181-.081v-2.41h2.221v.215C189.886,106.907,189.873,107.661,189.846,108.415ZM78.61,101.387l-2.195-.2c.067-.754.135-1.494.242-2.248l2.195.283A12.418,12.418,0,0,0,78.61,101.387Zm108.53-3.029c-.094-.727-.215-1.441-.35-2.154l2.181-.4c.135.741.256,1.494.364,2.235ZM80.306,91.72l-2.141-.579q.3-1.117.646-2.181l2.114.673C80.71,90.32,80.495,91.02,80.306,91.72ZM184.865,88.8c-.229-.687-.471-1.346-.74-2.046l2.073-.794q.4,1.064.767,2.141ZM83.726,82.538l-1.993-.956c.323-.687.673-1.346,1.023-2.033l1.952,1.05A17.422,17.422,0,0,0,83.726,82.538Zm97.207-2.693c-.35-.646-.714-1.266-1.091-1.885l1.9-1.144c.39.646.767,1.346,1.131,1.952ZM88.748,74.123l-1.791-1.346c.444-.619.889-1.225,1.346-1.818l1.737,1.346C89.609,72.952,89.165,73.531,88.748,74.123Zm86.719-2.356c-.458-.565-.929-1.117-1.414-1.669l1.669-1.454c.5.565.983,1.131,1.468,1.723Zm-80.3-5.035-1.521-1.589q.808-.794,1.656-1.535l1.468,1.656C96.233,65.735,95.695,66.233,95.17,66.732ZM168.641,64.7c-.552-.471-1.117-.929-1.683-1.346l1.346-1.737c.592.471,1.185.956,1.75,1.441Zm-65.8-4.093-1.225-1.845c.619-.417,1.266-.821,1.912-1.212l1.144,1.9C104.029,59.825,103.423,60.2,102.844,60.606ZM160.738,59c-.619-.364-1.252-.727-1.9-1.064l1.05-1.952c.66.35,1.346.727,1.979,1.1Zm-49.25-3.056-.889-2.033,2.1-.862.794,2.073a15.827,15.827,0,0,0-2.073.821Zm40.391-1.131-2.06-.714.673-2.1c.727.229,1.441.471,2.154.741Zm-31.168-1.9-.5-2.154c.741-.162,1.481-.323,2.221-.458l.4,2.168A19.252,19.252,0,0,0,120.71,52.918Zm21.636-.592c-.714-.121-1.427-.229-2.154-.323l.3-2.208c.74.108,1.494.215,2.235.35ZM130.4,51.572l-.094-2.222h2.262v2.222Z" transform="translate(-76.24 -49.35)" fill="#37474f"/>
        <path id="Path_34875" data-name="Path 34875" d="M118.7,130.236h15.335V107.106h23.131V91.771H134.036V68.64H118.7V91.771H95.57v15.335H118.7Z" transform="translate(-69.545 -42.669)" fill="#37474f"/>
      </g>
      <g id="Psychologist-cuate" transform="translate(362.29 243.226)">
        <g id="freepik--character-2--inject-74">
          <path id="Path_35000" data-name="Path 35000" d="M565.9,311.19l-3.433,20.572L539.233,457.27H535.49l16.9-125.508,2.5-20.572Z" transform="translate(-462.599 -110.858)" fill="#dbdbdb"/>
          <path id="Path_35001" data-name="Path 35001" d="M550.544,311.19h11.013l-3.433,20.572H548.04Z" transform="translate(-458.252 -110.858)" fill="#a6a6a6"/>
          <path id="Path_35002" data-name="Path 35002" d="M620.1,457.27h-3.743L593.123,331.762,589.69,311.19h11.027l2.491,20.572Z" transform="translate(-443.826 -110.858)" fill="#787878"/>
          <path id="Path_35003" data-name="Path 35003" d="M600.717,311.19l2.491,20.572H593.123L589.69,311.19Z" transform="translate(-443.826 -110.858)" fill="#a6a6a6"/>
          <path id="Path_35004" data-name="Path 35004" d="M671.884,457.27h-3.743L644.9,331.762,641.47,311.19h11.013l2.5,20.572Z" transform="translate(-425.892 -110.858)" fill="#787878"/>
          <path id="Path_35005" data-name="Path 35005" d="M654.988,331.762H644.9L641.47,311.19h11.013Z" transform="translate(-425.892 -110.858)" fill="#a6a6a6"/>
          <path id="Path_35006" data-name="Path 35006" d="M703.461,355.053H533.16V337.12h63.75l21.434-124.66h78.614Z" transform="translate(-463.406 -145.054)" fill="#787878"/>
          <path id="Path_35007" data-name="Path 35007" d="M663.6,355.053h-9.29L648.26,212.46h8.832Z" transform="translate(-423.54 -145.054)" opacity="0.1"/>
          <path id="Path_35008" data-name="Path 35008" d="M576.577,251.262c.754,0,4.268.283,9.424.66a29.026,29.026,0,0,0,3.8-17.207c-.094-1.346,2.773,6.611,1,17.5,9.95.687,23.481,1.629,35.315,2.329.444-4.6,1.064-8.859,1.064-8.859a51.571,51.571,0,0,0,1.508,9.021c1.629.121,3.2.189,4.726.283a181.356,181.356,0,0,1,1.737-19.6A63.2,63.2,0,0,0,640.1,255.4c7.526.363,12.467.471,12.117.108-10.771-13.558-2.114-20.694-4.82-32.313-3.245-13.935-15.012-16.668-14.191-26.927.66-8.4,2.4-23.615-8.078-27.358a20.492,20.492,0,0,0-22.013-5.264c-17.085,5.655-11.633,31.9-13.019,37.119-1.966,7.459-5.682,9.95-8.751,18.418s.565,14.527.754,20.451S574.693,251.154,576.577,251.262Z" transform="translate(-448.472 -162.395)" fill="#263238"/>
          <path id="Path_35009" data-name="Path 35009" d="M638.321,245.43a29.24,29.24,0,0,1-3.312-7.54A15.456,15.456,0,0,1,635.4,230a79.221,79.221,0,0,0,1.764-8.253,21.864,21.864,0,0,0-.431-8.7,19.305,19.305,0,0,0-4.187-7.661,49.949,49.949,0,0,0-6.207-5.776,31.951,31.951,0,0,1-5.722-5.8,15.148,15.148,0,0,1-2.693-7.661,14.123,14.123,0,0,0,1.8,8.2,28.613,28.613,0,0,0,5.48,6.489,61.934,61.934,0,0,1,5.749,5.857,18.338,18.338,0,0,1,3.622,6.934,21.651,21.651,0,0,1,.431,7.863c-.283,2.693-.9,5.385-1.346,8.078a27.612,27.612,0,0,0-.458,4.268,12.318,12.318,0,0,0,.754,4.322,24.113,24.113,0,0,0,4.362,7.27Z" transform="translate(-434.065 -154.167)" fill="#263238"/>
          <path id="Path_35010" data-name="Path 35010" d="M593.95,170.11a42.056,42.056,0,0,0-2.693,9.923c-.579,3.393-1,6.813-1.346,10.205l-.606,5.076a25.42,25.42,0,0,1-.983,4.833,27.549,27.549,0,0,1-4.981,8.482,38.646,38.646,0,0,0-2.948,4.362,23.512,23.512,0,0,0-2.1,4.941,34.816,34.816,0,0,0-.983,5.21,21.306,21.306,0,0,0,0,5.318c.229,1.777.646,3.447.983,5.089a26.013,26.013,0,0,1,.552,4.982,10.489,10.489,0,0,1-4.524,8.482,10.61,10.61,0,0,0,5.587-8.442,25.332,25.332,0,0,0-.188-5.251c-.229-1.737-.579-3.393-.687-5.035a26.926,26.926,0,0,1,1.225-9.748,23.61,23.61,0,0,1,1.966-4.47,36.591,36.591,0,0,1,2.841-4.039,48.553,48.553,0,0,0,3-4.295,21.535,21.535,0,0,0,2.222-4.914,28.751,28.751,0,0,0,.915-5.224c.175-1.723.283-3.433.391-5.143.229-3.42.4-6.826.727-10.219a49.008,49.008,0,0,1,1.629-10.125Z" transform="translate(-449.15 -159.723)" fill="#263238"/>
          <path id="Path_35011" data-name="Path 35011" d="M482.22,414.251c2.693,1.535,83.474,18.432,86.962,17.126,1.346-.485,4.483-12.117,7.89-26.281.727-3.056,1.468-6.22,2.208-9.424,4.793-20.882,9.425-43.084,9.425-43.084L534.661,341.13l-8.011,43.393-1.737,9.532s-33.848,7.378-37.523,9.209S479.528,412.716,482.22,414.251Z" transform="translate(-481.346 -100.488)" fill="#ad6359"/>
          <path id="Path_35012" data-name="Path 35012" d="M575.7,396.255c-2.881,11.606-5.385,20.451-6.57,20.882-3.474,1.346-84.336-15.6-86.962-17.139s1.575-9.128,5.224-10.986c2.275-1.131,16.022-4.376,26.227-6.732-8.913,2.127-25.581,8.172,8.846,10.663C550.889,395.044,569.738,395.986,575.7,396.255Z" transform="translate(-481.351 -86.235)" fill="#263238"/>
          <path id="Path_35013" data-name="Path 35013" d="M536.523,448.272c2.922.821,85.413-3.447,88.456-5.6,1.158-.808-2.02-33.915-2.881-37.106-2.922-10.771-16.87-43.286-16.87-43.286l-55.2,2.693,22.632,52.872S541.8,433.61,538.717,436.316,533.614,447.451,536.523,448.272Z" transform="translate(-462.729 -93.162)" fill="#ad6359"/>
          <path id="Path_35014" data-name="Path 35014" d="M624.981,427.078c-3.043,2.154-85.521,6.422-88.47,5.6s-.808-9.236,2.262-11.942c1.441-1.279,8.9-5.385,16.453-9.357-9.425,5.385-24.49,17.233,68.893-4.039C624.968,416.818,625.6,426.633,624.981,427.078Z" transform="translate(-462.732 -77.555)" fill="#263238"/>
          <path id="Path_35015" data-name="Path 35015" d="M666.7,318.172c-16.439,18.324-71.68,3.851-74.979,11.134-2.908,6.436,34.79,109.648,34.79,109.648l-60.317,6.5s-52.077-114-33.457-146.929c10.044-17.785,54.353-10.69,81.078-13.948,8.078-.983,11.848-17.61,11.848-17.61H673.43S685.493,297.223,666.7,318.172Z" transform="translate(-464.946 -126.174)" fill="#37474f"/>
          <path id="Path_35016" data-name="Path 35016" d="M544.15,288.293l50.65,38.762c16.83-.35,53.639,5.466,66.551-8.913,18.849-20.936,6.732-51.162,6.732-51.162H620.314s-3.783,16.628-11.848,17.61C589.724,286.825,562.312,284.025,544.15,288.293Z" transform="translate(-459.599 -126.171)" fill="#263238"/>
          <path id="Path_35017" data-name="Path 35017" d="M554.843,390.936c1.669-.525,17.314-2.262,20.761-2.693,6.907-.74,28.637-2.773,32.582-2.773a.094.094,0,0,1,0,.189c-3.42.714-17.287,2.343-20.734,2.693-6.92.714-30.67,3.016-32.582,2.827a.148.148,0,0,1-.027-.242Z" transform="translate(-455.913 -85.13)" fill="#263238"/>
          <path id="Path_35018" data-name="Path 35018" d="M570.148,322.294c3.878-1.925,33.269-.969,54.366-2.948,6.88-.633,13.773-2.1,19.011-6.611a31.438,31.438,0,0,0,9.425-15.47c2.02-7.2,1.818-14.716,1.468-22.107-.081-1.8-.215-3.622-.323-5.385a.1.1,0,0,1,.188,0c1.6,13.235,2.841,28-5.762,39.462a27.6,27.6,0,0,1-15.375,10.084c-12.723,3.352-60.586,2.518-62.256,3.81-2.006,1.535,28.92,95.686,29.539,97.477.108.337-.485.565-.619.229C596.725,413.537,566.769,323.963,570.148,322.294Z" transform="translate(-450.687 -125.233)" fill="#263238"/>
          <path id="Path_35019" data-name="Path 35019" d="M530.755,296.224c2.841-7.216,9.33-11.713,18.849-13.464.162,0,.148.2,0,.256-8.321,2.437-14.271,5.776-17.5,12.8-1.521,3.285-2.316,7.89-2.693,14.069-1.979,30.832,24.921,100.8,25.46,102.027a.094.094,0,1,1-.162.081C550.83,405.6,519.015,326.019,530.755,296.224Z" transform="translate(-465.135 -120.705)" fill="#263238"/>
          <path id="Path_35020" data-name="Path 35020" d="M513.89,408.1l45.682,9.721S523.53,310.278,540.454,296.41c4.7-3.851,14.918-5.2,27.075,0,18.149,7.836,39.152,23.817,58.957,29.62,18.539,5.48,40.552.444,48.132-7.9,15.927-17.5,3.945-50.623,3.945-50.623l-65.676-2.464s.969.794-2.154,3.568c0,0-38.614-8.751-55.389,1.494C525.092,288.7,513.89,408.1,513.89,408.1Z" transform="translate(-470.08 -126.843)" fill="#37474f"/>
          <path id="Path_35021" data-name="Path 35021" d="M615.323,269.811a.121.121,0,0,1,.229,0,36.482,36.482,0,0,0,.565,7.365,12.657,12.657,0,0,0,3.3,6.113c3.608,3.649,8.765,4.887,13.464,6.382.256.067.2.512-.081.471-5.237-.808-10.771-2.141-14.568-6.059a12.763,12.763,0,0,1-3.393-6.6A15.78,15.78,0,0,1,615.323,269.811Z" transform="translate(-435.207 -125.218)" fill="#263238"/>
          <path id="Path_35022" data-name="Path 35022" d="M536.275,287.368c7.028-4.4,18-1.064,23.265.956.108,0,0,.215,0,.175-4.833-1.737-16.87-4.362-23.306.189-14.81,10.529,5.035,82.532,18.082,122.155.2.619-.3.458-.565-.148-2.154-4.7-18.97-54.77-23.346-87.891C529.678,317.715,526.15,293.722,536.275,287.368Z" transform="translate(-464.771 -119.86)" fill="#263238"/>
          <path id="Path_35023" data-name="Path 35023" d="M517.791,362.28c1.346,0,13.221,2.585,15.82,3.164,5.224,1.171,17.3,4.308,20.2,5.385.081,0,0,.175,0,.175-2.693-.256-9.007-1.643-11.606-2.248-5.21-1.212-23.063-5.493-24.369-6.193C517.589,362.509,517.657,362.293,517.791,362.28Z" transform="translate(-468.771 -93.162)" fill="#263238"/>
          <path id="Path_35024" data-name="Path 35024" d="M536.124,291.254a25.972,25.972,0,0,1,15.6-2.356,54.663,54.663,0,0,1,15.927,4.982c10.69,4.887,20.815,10.852,31.586,15.658s22,8.617,33.659,8.98c10.03.31,22.713-1.454,29.149-10.475,9.923-13.881,4.147-37.833,4.039-39.381,0-.121.162-.108.189,0,7.7,29.445-2.208,40.862-8.9,45.669-5.3,3.824-12.938,4.78-17.974,5.21-11.659.983-23.359-1.871-34.157-6.18-11.081-4.4-21.542-10.354-32.084-15.779-10.178-5.2-21.542-10.569-33.134-7.593a29.687,29.687,0,0,0-3.864,1.346S536.07,291.294,536.124,291.254Z" transform="translate(-462.385 -125.618)" fill="#263238"/>
          <path id="Path_35025" data-name="Path 35025" d="M628.378,226.674c-5.466,13.6-27.237,57.557-41.535,60.667-9.425,2.033-47.3-1.643-53.854-10.609-2.841-3.9,1.966-31.155,7.028-30.078s35.45,5.1,39.179,4.039S610.9,217.4,621.363,209.4C639.4,195.586,631.34,219.349,628.378,226.674Z" transform="translate(-463.759 -147.581)" fill="#ad6359"/>
          <path id="Path_35026" data-name="Path 35026" d="M546.738,245.324l-.808,40.943s30.037,5.48,42.9.512c15.591-6.032,36.944-55.78,39.825-63.939,4.726-13.383,2.989-21.326-4.295-19.1-2.841.835-6.516,3.231-10.986,7.459s-31.4,32.851-39.96,38.358C568.63,252.689,546.738,245.324,546.738,245.324Z" transform="translate(-458.983 -148.204)" fill="#e27e28"/>
          <path id="Path_35027" data-name="Path 35027" d="M551.745,273.042c.3-6.045.633-30.832.337-36.2,0-.364-.269-.444-.3,0-1.346,18.1-.283,30.293-.283,36.231C551.5,273.176,551.745,273.19,551.745,273.042Z" transform="translate(-457.191 -136.716)" fill="#263238"/>
          <path id="Path_35028" data-name="Path 35028" d="M555.38,288.018c9.775,1.023,22.807,1.6,30.172-1.239,15.591-6.032,36.944-55.78,39.825-63.925,4.726-13.464,3-21.34-4.295-19.118l-.687.229Z" transform="translate(-455.71 -148.205)" fill="#263238"/>
          <path id="Path_35029" data-name="Path 35029" d="M656.046,294.234l-73.3-6.638,8.078-29.755a24.059,24.059,0,0,1-3.46-20.074c1.831-6.732,11.417-19.7,16.776-26.146,13.073-15.7,23.252-9.694,26.927-5.655C644.8,221.4,656.046,294.234,656.046,294.234Z" transform="translate(-446.23 -148.888)" fill="#fff"/>
          <path id="Path_35030" data-name="Path 35030" d="M626.839,202s-8.24,23.225-11.188,27.8-11.619,12.763-11.619,12.763-1.01-11.821,0-18.566,5.857-17.745,5.857-17.745a14.407,14.407,0,0,0-4.039,3.191c-6.5,6.638-16.951,21.057-18.661,30a23.911,23.911,0,0,0,3.5,18.055l-9.869,31.491,12.979,2.895,6.287-7.243,4.645,9.425,60.034,10.865-7.284-23.05s-14.137-61.084-19.94-69.4C630.8,202.9,626.839,202,626.839,202Z" transform="translate(-446.898 -148.677)" fill="#e27e28"/>
          <path id="Path_35031" data-name="Path 35031" d="M609.1,242.392a67.468,67.468,0,0,0-9.9-.175c-1.643.121-3.258.31-4.887.539-.808.108-1.616.2-2.437.283a10.839,10.839,0,0,1-2.558,0c-.067,0-.094.094,0,.121a19.979,19.979,0,0,0,2.383.39,17.212,17.212,0,0,0,2.356,0c1.656-.094,3.312-.283,4.982-.39,3.352-.242,6.732-.485,10.057-.485C609.252,242.661,609.265,242.392,609.1,242.392Z" transform="translate(-443.973 -134.784)" fill="#263238"/>
          <path id="Path_35032" data-name="Path 35032" d="M613.716,246.154a75.786,75.786,0,0,0-7.957-1.845c-1.346-.229-2.693-.364-4.039-.485l-1.952-.135h-2.141c-.081,0-.094.108,0,.121.673.067,1.346.242,2.006.35l2.02.31,4.039.633c2.693.39,5.385.808,8.078,1.346C613.824,246.41,613.851,246.194,613.716,246.154Z" transform="translate(-441.1 -134.237)" fill="#263238"/>
          <path id="Path_35033" data-name="Path 35033" d="M620.752,204.71c.781,5.385,1.656,10.65,2.558,15.954l.269-.431c-3.124.821-6.247,1.71-9.424,2.572l-.525.148.229.5c.929,2.06,1.844,4.12,2.814,6.153l.121-.565c-3.3,2.881-6.651,5.709-9.923,8.644s-6.543,5.83-9.761,8.819c3.46-2.693,6.853-5.48,10.232-8.28s6.732-5.628,10.084-8.442l.269-.242-.148-.337c-.916-2.06-1.885-4.039-2.827-6.139l-.31.646c3.11-.915,6.234-1.791,9.33-2.693l.35-.108-.067-.337C623.014,215.252,621.937,209.974,620.752,204.71Z" transform="translate(-441.256 -147.739)" fill="#263238"/>
          <path id="Path_35034" data-name="Path 35034" d="M604.54,205.9c-1.737,1.8-9.68,12.117-9.68,12.117l-.337.39.444.269,3.245,2.02-.094-.727-4.039,4.039-.189.189v.242c.673,3.622,1.279,7.257,2.02,10.879s1.441,7.23,2.262,10.838c-.444-3.662-.983-7.324-1.548-10.959s-1.2-7.284-1.777-10.932l-.135.431c1.346-1.346,2.693-2.693,3.972-4.039l.417-.431-.512-.3-3.2-2.046.094.66C597.162,216.644,602.991,207.879,604.54,205.9Z" transform="translate(-442.371 -147.326)" fill="#263238"/>
          <path id="Path_35035" data-name="Path 35035" d="M597.878,235.75c-.458,1.764-.943,3.514-1.346,5.291s-.835,3.541-1.225,5.3h0c-.121,3.945-.162,7.9-.229,11.861s0,7.917,0,11.875q.337-5.937.539-11.861c.094-3.958.229-7.917.269-11.861h0c.377-1.777.727-3.568,1.05-5.385S597.582,237.541,597.878,235.75Z" transform="translate(-441.97 -136.987)" fill="#263238"/>
          <path id="Path_35036" data-name="Path 35036" d="M598.953,238.305a1.319,1.319,0,1,1-1.023,1.225A1.346,1.346,0,0,1,598.953,238.305Zm-.673,1.966a.822.822,0,0,0,.673.108.848.848,0,0,0,0-1.575.808.808,0,0,0-1.023.781.835.835,0,0,0,.35.687Z" transform="translate(-440.972 -136.11)" fill="#263238"/>
          <path id="Path_35037" data-name="Path 35037" d="M597.817,246.8a1.315,1.315,0,1,1-1.037,1.225,1.346,1.346,0,0,1,1.037-1.225Zm-.687,1.966a.848.848,0,0,0,.687.108.8.8,0,0,0,.525-.794.808.808,0,0,0-.525-.781.848.848,0,0,0-.687.108.835.835,0,0,0,0,1.346Z" transform="translate(-441.371 -133.165)" fill="#263238"/>
          <path id="Path_35038" data-name="Path 35038" d="M597.417,254.585a1.315,1.315,0,1,1-1.037,1.225,1.346,1.346,0,0,1,1.037-1.225Zm-.687,1.966a.808.808,0,0,0,.687.108.835.835,0,0,0,0-1.562.848.848,0,0,0-.687.094.929.929,0,0,0-.35.687.835.835,0,0,0,.35.619Z" transform="translate(-441.509 -130.47)" fill="#263238"/>
          <path id="Path_35039" data-name="Path 35039" d="M607.031,225.752s5.385-5.964,1-9.276-8.7,3.42-8.7,3.42Z" transform="translate(-440.487 -143.981)" fill="#455a64"/>
          <path id="Path_35040" data-name="Path 35040" d="M574.574,263.437h0l-1.346,7.728-.458,2.545,2.356-1.091,7.109-3.326h0l34.144-44.847-7.688-5.857Z" transform="translate(-449.687 -142.931)" fill="#455a64"/>
          <path id="Path_35041" data-name="Path 35041" d="M573.234,257.65l-.444,2.558,2.356-1.1Z" transform="translate(-449.68 -129.402)" fill="#37474f"/>
          <rect id="Rectangle_9783" data-name="Rectangle 9783" width="11.296" height="2.235" transform="translate(166.177 83.575) rotate(-142.71)" fill="#263238"/>
          <rect id="Rectangle_9784" data-name="Rectangle 9784" width="11.296" height="2.235" transform="translate(164.653 85.555) rotate(-142.71)" fill="#263238"/>
          <path id="Path_35042" data-name="Path 35042" d="M607.192,226.488,604.3,224.28,593.54,241.715l1.117.754Z" transform="translate(-442.493 -140.96)" fill="#263238"/>
          <path id="Path_35043" data-name="Path 35043" d="M638.26,217.653c21.542,26.995,45.009,71.721,33.269,80.243-10.771,7.768-47.486-2.531-70.334-13.141-4.349-2.02,16.156-40.391,20.573-37.7a131.4,131.4,0,0,0,14.406,7.594c1.266.431-4.039-15.295-10.7-34.373C618.105,198.993,625.927,202.237,638.26,217.653Z" transform="translate(-440.05 -147.568)" fill="#ad6359"/>
          <path id="Path_35044" data-name="Path 35044" d="M574.182,233.528c-.31,4.591,11.054,4.389,11.054,4.389a8.428,8.428,0,0,0-3.729,4.389c-1.064,3.326,3.689,6.449,3.689,6.449a10.488,10.488,0,0,0-3.177,5.264c-.7,3.285,3.649,7.122,3.649,7.122a9.141,9.141,0,0,0,.108,6.4c2.356,5.385,11.39,6.059,16.9,7.567a120.74,120.74,0,0,1,17.947,6.961l12.912-40.525s-23.306-15.874-30.091-15.968C597.7,225.49,574.653,226.527,574.182,233.528Z" transform="translate(-449.2 -140.515)" fill="#ad6359"/>
          <path id="Path_35045" data-name="Path 35045" d="M582.5,234.949c6.1-1.346,12.508-1.279,18.7-1.117.135,0,.121.215,0,.215-6.153-.229-12.508,1.185-18.661,1.2a.149.149,0,1,1-.04-.3Z" transform="translate(-446.36 -137.681)" fill="#263238"/>
          <path id="Path_35046" data-name="Path 35046" d="M582.544,242.485a16.672,16.672,0,0,1,4.255,0c1.508.121,3,.256,4.51.417,3,.323,6,.727,8.98,1.212.135,0,.135.229,0,.2-3-.31-5.991-.592-9.007-.781l-4.51-.256a19.44,19.44,0,0,1-4.241-.4.215.215,0,0,1,.014-.39Z" transform="translate(-446.347 -134.702)" fill="#263238"/>
          <path id="Path_35047" data-name="Path 35047" d="M582.8,252.017a11.537,11.537,0,0,1,3.837.229c1.346.189,2.693.35,4.106.512,2.693.323,5.466.646,8.213.875.135,0,.121.229,0,.215-2.787-.215-5.574-.39-8.374-.633l-4.039-.39a10.568,10.568,0,0,1-3.676-.66.081.081,0,1,1-.067-.148Z" transform="translate(-446.228 -131.376)" fill="#263238"/>
          <path id="Path_35048" data-name="Path 35048" d="M624.3,205.9c16.156,11.121,55.888,73.727,47.123,89.964S610,291.059,610,291.059l7.041-44.915s13.706,8.657,14.218,7.97-6.665-21.73-9.6-30.293S615.722,199.991,624.3,205.9Z" transform="translate(-436.792 -147.785)" fill="#e27e28"/>
          <path id="Path_35049" data-name="Path 35049" d="M615.193,276.415c1.346-5.911,5.709-30.307,6.314-35.638,0-.364-.188-.485-.283-.108-4.308,17.624-5.291,29.822-6.274,35.692C614.937,276.509,615.152,276.577,615.193,276.415Z" transform="translate(-435.077 -135.363)" fill="#263238"/>
          <path id="Path_35050" data-name="Path 35050" d="M615.587,235.5a32.215,32.215,0,0,1,4.429,2.316c1.346.74,2.6,1.468,3.878,2.221,2.787,1.629,5.534,3.326,8.267,5.049s5.385,3.447,8.078,5.237,5.264,3.716,7.957,5.507c.121.081,0,.256-.148.175-2.693-1.737-5.574-3.3-8.348-4.968l-8.159-4.928-8.159-4.9-3.972-2.437a37.972,37.972,0,0,1-4.2-2.693.345.345,0,1,1,.377-.579Z" transform="translate(-435.041 -137.092)" fill="#263238"/>
          <path id="Path_35051" data-name="Path 35051" d="M619.478,227.058c.808,1.144,1.6,2.3,2.356,3.5l.4.673c-.2-.606-.39-1.212-.579-1.8a60.011,60.011,0,0,1-1.912-6.4c0-.094.121-.135.162,0a62.07,62.07,0,0,1,2.5,6.489c.781,2.127,1.575,4.241,2.316,6.382s1.494,4.281,2.195,6.436a44.718,44.718,0,0,1,1.831,6.422.121.121,0,0,1-.215.067,46.944,46.944,0,0,1-2.6-6.463c-.754-2.127-1.468-4.281-2.195-6.422-.31-.9-.592-1.8-.889-2.693l-.4-.619c-.377-.579-.727-1.158-1.064-1.764-.7-1.212-1.346-2.464-1.979-3.716C619.4,227.058,619.451,227.058,619.478,227.058Z" transform="translate(-433.533 -141.422)" fill="#263238"/>
          <path id="Path_35052" data-name="Path 35052" d="M609.958,268.135c0-.31.2-.363.242,0a3.588,3.588,0,0,1,0,.673c1.8.592,8.388,2.975,10,3.541,3.366,1.185,6.732,2.262,10.232,3.2s6.934,1.791,10.448,2.531,7.028,1.481,10.569,1.9a.108.108,0,1,1,0,.215c-3.608-.364-7.216-.66-10.771-1.252s-7-1.346-10.448-2.262-6.988-2.02-10.407-3.245c-1.7-.619-3.393-1.279-5.076-1.979a26.373,26.373,0,0,1-4.712-2.208.377.377,0,0,1-.148-.35A4.922,4.922,0,0,1,609.958,268.135Z" transform="translate(-436.83 -125.858)" fill="#263238"/>
          <path id="Path_35053" data-name="Path 35053" d="M557.763,283.872l47.621,1.023L584.447,223.34l-47.607-1.01Z" transform="translate(-462.131 -141.636)" fill="#fff"/>
          <path id="Path_35054" data-name="Path 35054" d="M555.343,283.826l47.621,1.023-20.936-61.556L534.42,222.27Z" transform="translate(-462.97 -141.656)" fill="#00a3b1"/>
          <path id="Path_35055" data-name="Path 35055" d="M566.061,223.593a4.147,4.147,0,0,0,1.979,2.531c.458.256.592-.337.148-.579a3.151,3.151,0,0,1-1.346-1.589,1.938,1.938,0,0,0-.094-.35,2.274,2.274,0,0,1,0-1.158.835.835,0,0,1,.283-.417h.094a.579.579,0,0,1,.337,0,1.347,1.347,0,0,1,.538.364,2.587,2.587,0,0,1,.458.646,2.972,2.972,0,0,1,.2.35v.094a.485.485,0,0,1,0,.121v.081h.687a5.387,5.387,0,0,0-.619-1.2,2.692,2.692,0,0,0-1.8-1.2,1.05,1.05,0,0,0-1.091.956,2.815,2.815,0,0,0,.229,1.346Z" transform="translate(-452.092 -141.996)" fill="#455a64"/>
          <path id="Path_35056" data-name="Path 35056" d="M563.318,223.483a4.174,4.174,0,0,0,1.993,2.531c.444.256.579-.337.135-.579a3.124,3.124,0,0,1-1.346-1.589,3.253,3.253,0,0,1-.108-.337,2.33,2.33,0,0,1,0-1.171.727.727,0,0,1,.269-.417h.148a.579.579,0,0,1,.337,0,1.413,1.413,0,0,1,.539.364,2.838,2.838,0,0,1,.458.646,2.332,2.332,0,0,1,.2.364v.081a.479.479,0,0,1,0,.121v.081h.673a4.77,4.77,0,0,0-.619-1.185,2.6,2.6,0,0,0-1.8-1.212,1.05,1.05,0,0,0-1.091.956,2.814,2.814,0,0,0,.215,1.346Z" transform="translate(-453.039 -142.034)" fill="#455a64"/>
          <path id="Path_35057" data-name="Path 35057" d="M560.557,223.433a4.3,4.3,0,0,0,1.993,2.531c.444.242.579-.35.135-.579a3.217,3.217,0,0,1-1.346-1.6,3.253,3.253,0,0,1-.108-.337,2.33,2.33,0,0,1,0-1.171.66.66,0,0,1,.269-.4h.094a.539.539,0,0,1,.323,0,1.413,1.413,0,0,1,.538.364,2.924,2.924,0,0,1,.471.646,2.755,2.755,0,0,1,.2.363v.081a.485.485,0,0,1,0,.121.189.189,0,0,1,0,.081h.673a4.764,4.764,0,0,0-.619-1.185,2.693,2.693,0,0,0-1.8-1.212,1.037,1.037,0,0,0-1.077.956A2.693,2.693,0,0,0,560.557,223.433Z" transform="translate(-454.007 -142.052)" fill="#455a64"/>
          <path id="Path_35058" data-name="Path 35058" d="M557.782,223.373a4.3,4.3,0,0,0,1.993,2.531c.444.242.579-.35.135-.579a3.218,3.218,0,0,1-1.346-1.6,1.576,1.576,0,0,1-.094-.337,2.195,2.195,0,0,1,0-1.171.673.673,0,0,1,.283-.4h.094a.592.592,0,0,1,.337,0,1.522,1.522,0,0,1,.539.364,3.345,3.345,0,0,1,.458.646,3.143,3.143,0,0,1,.2.363v.081a.479.479,0,0,1,0,.121.186.186,0,0,1,0,.081h.673a4.764,4.764,0,0,0-.619-1.185,2.692,2.692,0,0,0-1.8-1.212,1.037,1.037,0,0,0-1.077.956,2.693,2.693,0,0,0,.229,1.346Z" transform="translate(-454.961 -142.072)" fill="#455a64"/>
          <path id="Path_35059" data-name="Path 35059" d="M555.061,223.309a4.227,4.227,0,0,0,1.979,2.531c.458.242.579-.35.148-.579a3.137,3.137,0,0,1-1.346-1.6l-.094-.337a2.33,2.33,0,0,1,0-1.171.728.728,0,0,1,.283-.4h.094a.592.592,0,0,1,.337,0,1.52,1.52,0,0,1,.539.364,2.843,2.843,0,0,1,.458.646c.081.121.135.242.2.364v.081a.479.479,0,0,1,0,.121v.081h.687a5.259,5.259,0,0,0-.619-1.185,2.571,2.571,0,0,0-1.8-1.2,1.05,1.05,0,0,0-1.091.942,2.867,2.867,0,0,0,.229,1.346Z" transform="translate(-455.902 -142.09)" fill="#455a64"/>
          <path id="Path_35060" data-name="Path 35060" d="M552.235,223.253a4.188,4.188,0,0,0,1.979,2.531c.458.256.592-.337.148-.579a3.11,3.11,0,0,1-1.346-1.6,3.219,3.219,0,0,1-.108-.337,2.181,2.181,0,0,1,0-1.171.7.7,0,0,1,.269-.4h.148a.5.5,0,0,1,.337,0,1.171,1.171,0,0,1,.539.363,2.519,2.519,0,0,1,.458.633c.081.121.135.242.2.363v.081a.271.271,0,0,1,.067.121s0,0,0,.081h.673a4.764,4.764,0,0,0-.619-1.185,2.572,2.572,0,0,0-1.8-1.2,1.05,1.05,0,0,0-1.091.942,2.867,2.867,0,0,0,.148,1.36Z" transform="translate(-456.859 -142.114)" fill="#455a64"/>
          <path id="Path_35061" data-name="Path 35061" d="M549.49,223.193a4.254,4.254,0,0,0,1.993,2.531c.444.256.579-.337.135-.579a3.109,3.109,0,0,1-1.346-1.6,3.235,3.235,0,0,1-.108-.337,2.275,2.275,0,0,1,0-1.158.727.727,0,0,1,.269-.417h.094a.458.458,0,0,1,.323,0,1.17,1.17,0,0,1,.539.364,2.692,2.692,0,0,1,.471.646l.2.35v.081a.485.485,0,0,1,0,.121.19.19,0,0,1,0,.081h.673a5,5,0,0,0-.619-1.185,2.572,2.572,0,0,0-1.8-1.2,1.05,1.05,0,0,0-1.091.942,2.866,2.866,0,0,0,.269,1.36Z" transform="translate(-457.844 -142.135)" fill="#455a64"/>
          <path id="Path_35062" data-name="Path 35062" d="M546.712,223.133a4.254,4.254,0,0,0,1.993,2.531c.444.256.579-.337.135-.579a3.164,3.164,0,0,1-1.346-1.6,1.576,1.576,0,0,1-.094-.337,2.141,2.141,0,0,1,0-1.158.753.753,0,0,1,.283-.417h.094a.592.592,0,0,1,.337,0,1.239,1.239,0,0,1,.538.364,2.688,2.688,0,0,1,.458.646,2.973,2.973,0,0,1,.2.35v.081a.485.485,0,0,1,0,.121.187.187,0,0,1,0,.081h.673a5.007,5.007,0,0,0-.619-1.185,2.571,2.571,0,0,0-1.8-1.2,1.037,1.037,0,0,0-1.077.942A2.693,2.693,0,0,0,546.712,223.133Z" transform="translate(-458.795 -142.155)" fill="#455a64"/>
          <path id="Path_35063" data-name="Path 35063" d="M543.951,223.073a4.187,4.187,0,0,0,1.979,2.531c.444.256.579-.337.148-.579a3.137,3.137,0,0,1-1.346-1.6l-.094-.337a2.141,2.141,0,0,1,0-1.158.754.754,0,0,1,.283-.417h.094a.592.592,0,0,1,.337,0,1.239,1.239,0,0,1,.538.364,2.7,2.7,0,0,1,.458.646,2.955,2.955,0,0,1,.2.35v.081a.479.479,0,0,1,0,.121v.081h.687a5.558,5.558,0,0,0-.619-1.185,2.6,2.6,0,0,0-1.8-1.2,1.05,1.05,0,0,0-1.091.956,2.814,2.814,0,0,0,.229,1.346Z" transform="translate(-459.751 -142.176)" fill="#455a64"/>
          <path id="Path_35064" data-name="Path 35064" d="M541.178,223.013a4.188,4.188,0,0,0,1.979,2.531c.458.256.592-.337.148-.579a3.123,3.123,0,0,1-1.346-1.589,1.508,1.508,0,0,0-.108-.35,2.128,2.128,0,0,1,0-1.158.728.728,0,0,1,.269-.417h.148a.728.728,0,0,1,.337,0,1.346,1.346,0,0,1,.539.364,2.585,2.585,0,0,1,.458.646,2.966,2.966,0,0,1,.2.35v.3h.673a5.39,5.39,0,0,0-.619-1.2,2.571,2.571,0,0,0-1.8-1.2,1.05,1.05,0,0,0-1.091.956,2.813,2.813,0,0,0,.215,1.346Z" transform="translate(-460.707 -142.197)" fill="#455a64"/>
          <path id="Path_35065" data-name="Path 35065" d="M538.42,222.952a4.214,4.214,0,0,0,1.993,2.531c.444.256.579-.337.135-.579a3.124,3.124,0,0,1-1.346-1.589,3.471,3.471,0,0,1-.108-.35,2.274,2.274,0,0,1,0-1.158.727.727,0,0,1,.269-.417h.094a.686.686,0,0,1,.323,0,1.346,1.346,0,0,1,.539.363,3.042,3.042,0,0,1,.471.646l.2.35v.081a.409.409,0,0,1,0,.135v.081h.673a4.847,4.847,0,0,0-.619-1.2,2.572,2.572,0,0,0-1.8-1.2,1.063,1.063,0,0,0-1.09.956,2.813,2.813,0,0,0,.269,1.346Z" transform="translate(-461.679 -142.218)" fill="#455a64"/>
          <path id="Path_35066" data-name="Path 35066" d="M535.645,222.893a4.255,4.255,0,0,0,1.993,2.531c.444.256.579-.337.135-.579a3.191,3.191,0,0,1-1.346-1.589,1.492,1.492,0,0,1-.094-.35,2.141,2.141,0,0,1,0-1.158.807.807,0,0,1,.269-.417h.094a.592.592,0,0,1,.337,0,1.346,1.346,0,0,1,.539.363,6.434,6.434,0,0,1,.66,1v.081a.918.918,0,0,1,0,.135.187.187,0,0,1,0,.081h.673a4.845,4.845,0,0,0-.619-1.2,2.572,2.572,0,0,0-1.8-1.2,1.037,1.037,0,0,0-1.077.956A2.694,2.694,0,0,0,535.645,222.893Z" transform="translate(-462.632 -142.239)" fill="#455a64"/>
          <path id="Path_35067" data-name="Path 35067" d="M539.112,232.62c-2.248,5.264-8.172,11.915-8.509,16.156a4.874,4.874,0,0,0,2.908,5.049s-4.12,2.262-3.8,6.166c.161,2.006,3.514,3.5,3.514,3.5a5.789,5.789,0,0,0-2.693,5.385c.4,2.76,3.7,3.837,3.7,3.837s-2.222,3.326-.916,5.991c2.693,5.385,26.469,4.47,29.808-4.443,1.548-4.16-4.254-3.608-4.254-3.608s8.159-2.8,8.078-7.728-7.58-3.743-7.58-3.743,7.89-2.787,7.311-7.876c-.619-5.3-7.917-2.854-7.917-2.854s5.157-3.8,3.81-7.593c-2.208-6.261-11.929,2.114-17.207,1.077l-3.231-8.522Z" transform="translate(-464.606 -138.072)" fill="#ad6359"/>
          <path id="Path_35068" data-name="Path 35068" d="M534.4,243.3c1.7-5.17-4.86-11.215-3.945-16.385,1.225-7,9.3-.512,11.444,9.505l.3,8.078Z" transform="translate(-464.374 -141.063)" fill="#ad6359"/>
          <path id="Path_35069" data-name="Path 35069" d="M533.438,263.322c-.081,0-.108.108,0,.121a41.347,41.347,0,0,0,24.49-2.437c.242-.108.161-.552-.135-.485a84.686,84.686,0,0,1-24.356,2.8Z" transform="translate(-463.334 -128.41)" fill="#263238"/>
          <path id="Path_35070" data-name="Path 35070" d="M532.26,256.777a.081.081,0,0,0,0,.162A38.708,38.708,0,0,0,558.8,252.63c.269-.162.35-.592,0-.431C553.209,255.04,540.015,257.127,532.26,256.777Z" transform="translate(-463.744 -131.302)" fill="#263238"/>
          <path id="Path_35071" data-name="Path 35071" d="M558.181,244.006c-7.9,4.389-16.426,5.789-25.379,5.978-.121,0-.108.162,0,.188,4.4,1.1,10.1.39,14.487-.539a23.912,23.912,0,0,0,11.054-5.385C558.464,244.168,558.356,243.9,558.181,244.006Z" transform="translate(-463.56 -134.136)" fill="#263238"/>
          <path id="Path_35072" data-name="Path 35072" d="M618.42,208.331c-.2,1.346-5.763,10.205-11.713,10.38-1.939,0-2.693-10.515-2.693-10.515l-.242-.767L600.5,196.658l12.212-9.209,1.777-1.239s.7,3,1.535,6.732a2.663,2.663,0,0,0,.121.525c.04.189.108.417.148.606.121.565.256,1.131.377,1.7s.188.862.269,1.346.175.9.269,1.346a72.454,72.454,0,0,1,1.211,9.869Z" transform="translate(-440.082 -154.146)" fill="#ad6359"/>
          <path id="Path_35073" data-name="Path 35073" d="M615.994,193a22.457,22.457,0,0,1-12.252,14.433l-3.272-10.771,12.211-9.209,1.777-1.239S615.2,189.253,615.994,193Z" transform="translate(-440.092 -154.146)" fill="#263238"/>
          <path id="Path_35074" data-name="Path 35074" d="M587.5,191.964c3.352,19.415,15.362,19.6,19.549,18.849,3.8-.66,16.655-3.393,15.335-23.05s-11.417-24.235-20.2-23.2S584.161,172.536,587.5,191.964Z" transform="translate(-444.827 -161.691)" fill="#ad6359"/>
          <path id="Path_35075" data-name="Path 35075" d="M589,182.326c.444-.135.835-.323,1.266-.5a2.289,2.289,0,0,0,1.2-.754.714.714,0,0,0-.148-.848,1.751,1.751,0,0,0-1.764-.108,2.585,2.585,0,0,0-1.427,1.158.754.754,0,0,0,.875,1.05Z" transform="translate(-444.392 -156.321)" fill="#263238"/>
          <path id="Path_35076" data-name="Path 35076" d="M599,179.478a11.35,11.35,0,0,1-1.346,0,2.194,2.194,0,0,1-1.346-.31.7.7,0,0,1-.148-.848,1.723,1.723,0,0,1,1.616-.687,2.545,2.545,0,0,1,1.737.619.741.741,0,0,1-.512,1.225Z" transform="translate(-441.613 -157.122)" fill="#263238"/>
          <path id="Path_35077" data-name="Path 35077" d="M597.005,182.92s.121,0,.121.108c.162,1.346.552,2.827,1.818,3.1h0C597.382,186.205,596.871,184.213,597.005,182.92Z" transform="translate(-441.3 -155.286)" fill="#263238"/>
          <path id="Path_35078" data-name="Path 35078" d="M597.934,181.769c2.114-.471,2.908,3.783.956,4.228S596.171,182.173,597.934,181.769Z" transform="translate(-441.313 -155.697)" fill="#263238"/>
          <path id="Path_35079" data-name="Path 35079" d="M598.381,181.955a3.069,3.069,0,0,0,1.346.485c.485-.04.835-.565,1.091-1.05h.094a1.6,1.6,0,0,1-.848,2.006c-.781.256-1.481-.363-1.844-1.144C598.125,182.211,598.22,181.888,598.381,181.955Z" transform="translate(-440.885 -155.816)" fill="#263238"/>
          <path id="Path_35080" data-name="Path 35080" d="M591.457,183.79s-.081.081,0,.135c.3,1.346.417,2.868-.687,3.527v.081C592.143,187.035,591.955,184.988,591.457,183.79Z" transform="translate(-443.452 -154.984)" fill="#263238"/>
          <path id="Path_35081" data-name="Path 35081" d="M590.552,182.942c-2.154.256-1.481,4.537.512,4.295S592.356,182.727,590.552,182.942Z" transform="translate(-443.988 -155.281)" fill="#263238"/>
          <path id="Path_35082" data-name="Path 35082" d="M590.151,183.258c-.3.283-.579.754-.969.835s-.889-.3-1.252-.7h0c.094.821.5,1.629,1.346,1.669s1.158-.754,1.225-1.6C590.421,183.365,590.273,183.15,590.151,183.258Z" transform="translate(-444.436 -155.179)" fill="#263238"/>
          <path id="Path_35083" data-name="Path 35083" d="M599.117,190.708c-.242.39-.458.875-.915,1.037a3.92,3.92,0,0,1-1.481,0v.081a1.791,1.791,0,0,0,1.818.31,1.427,1.427,0,0,0,.767-1.346C599.265,190.667,599.157,190.654,599.117,190.708Z" transform="translate(-441.391 -152.599)" fill="#263238"/>
          <path id="Path_35084" data-name="Path 35084" d="M594.372,191.194s.135,2.3.3,3.245a10.367,10.367,0,0,0,4.914-1.346c.983-.552.66-.767,0-.552a18.766,18.766,0,0,1-4.228,1.05c-.108-.256-.135-3.447-.283-3.433a8.294,8.294,0,0,0-2.033.848c-.283-4.2.121-8.415-.215-12.6a.135.135,0,0,0-.256,0,68.671,68.671,0,0,0-.35,13.6C592.245,192.446,594.035,191.356,594.372,191.194Z" transform="translate(-443.015 -156.882)" fill="#263238"/>
          <path id="Path_35085" data-name="Path 35085" d="M622.257,187.5c-3.07,1.158-5.7-5.237-5.7-5.237s-6.4,1.871-11.148-6.732a14.81,14.81,0,0,0,5.022,6.732s-11.565,2.195-19.037-5.884c0,0,3.285,4.255,5.547,5.453a13.773,13.773,0,0,1-8.523-3.137s-.39,6.018-1.481,7.957c0,0-5.237-19.845,13.639-23.036,0,0,11.659-2.545,18.391,5.385S622.257,187.5,622.257,187.5Z" transform="translate(-445.009 -162.105)" fill="#263238"/>
          <path id="Path_35086" data-name="Path 35086" d="M595.416,185.143l.4-.714c-1.01-.646-3.245-1.346-4.43.431l.66.471C593.113,183.7,595.321,185.075,595.416,185.143Z" transform="translate(-443.237 -155.004)" fill="#ffc727"/>
          <path id="Path_35087" data-name="Path 35087" d="M619.331,183.721l.673-.5c-.242-.31-2.289-3.07-4.174-3.083s-12.629,2.693-13.1,2.827l.215.808c3.11-.781,11.511-2.814,12.871-2.8S618.765,182.954,619.331,183.721Z" transform="translate(-439.31 -156.249)" fill="#ffc727"/>
          <path id="Path_35094" data-name="Path 35094" d="M594.6,185.025l2.48-2.09,2.344-.849,2.208-.544,1.563-.713,1.767-.34,1.336-.832-.555,2.293-.2,3.33-.747,2.14-1.189.883-2.446.815-2.99.339-1.8-.339-1.257-1.291-.747-1.63Z" transform="translate(-442.067 -156.306)" fill="#fff"/>
          <path id="Path_35088" data-name="Path 35088" d="M595.834,189.584c-1-.66-2.316-3.326-1.346-4.766,1.71-2.693,11.323-5.049,11.727-5.143l.539-.135v.619c0,.242.121,5.9-1.454,7.809a6.476,6.476,0,0,1-3.056,1.67C599.9,190.271,597.072,190.405,595.834,189.584Zm-.646-4.281c-.592.916.431,3.083,1.131,3.541,1.454.942,6.893.162,8.253-1.508,1.023-1.239,1.252-4.82,1.252-6.732-3,.9-9.465,2.868-10.636,4.712Z" transform="translate(-442.282 -156.456)" fill="#ffc727"/>
          <path id="Path_35095" data-name="Path 35095" d="M603.813,184.406l-.9-1.515-2.02-.947-2.062-.273-1.641-.311-.947.311-1.357-.306.179.18,1.178,3.05.631,1.788.316,1.136,2.144,1.01h2.148l1.43-.568.694-1.01.21-1.367Z" transform="translate(-455.352 -154.37)" fill="#fff"/>
          <path id="Path_35089" data-name="Path 35089" d="M590.555,190.358a3.42,3.42,0,0,1-2.935-.862c-1.212-1.414-2.531-6.409-2.585-6.624l-.135-.512h.539c.687,0,6.732-.458,8.24,1.7a4.914,4.914,0,0,1,.229,4.591,3.7,3.7,0,0,1-2.208,1.521,6.368,6.368,0,0,1-1.144.188Zm-2.262-1.441a2.585,2.585,0,0,0,2.181.552,3.581,3.581,0,0,0,2.693-1.346,4.039,4.039,0,0,0-.188-3.662c-.9-1.346-4.9-1.441-6.92-1.346a22.451,22.451,0,0,0,2.235,5.8Z" transform="translate(-445.485 -155.494)" fill="#ffc727"/>
          <path id="Path_35090" data-name="Path 35090" d="M611.13,184.906s2.585-7.041,5.682-6.261,2.235,10.219-.633,12.225a3.312,3.312,0,0,1-4.766-.592Z" transform="translate(-436.4 -156.787)" fill="#ad6359"/>
          <path id="Path_35091" data-name="Path 35091" d="M616.035,180.63v.081a8.387,8.387,0,0,0-2.854,6.207,1.845,1.845,0,0,1,2.545-1.185c.067,0,0,.135,0,.135a2.033,2.033,0,0,0-1.993,1.266,9.74,9.74,0,0,0-.552,2.073c0,.229-.444.215-.431,0h0C611.9,186.258,613.059,181.721,616.035,180.63Z" transform="translate(-435.933 -156.079)" fill="#263238"/>
          <path id="Path_35092" data-name="Path 35092" d="M603.693,203.158l3.11,8.765,11.175-11.983,2.693,4.268S609.576,221.98,609.549,221.2l-3.164-7.58L601,218.574l.969-12.965Z" transform="translate(-439.909 -149.391)" fill="#fff"/>
          <path id="Path_35093" data-name="Path 35093" d="M601.211,211.04c.229-2.141.39-4.295.727-6.409a.074.074,0,0,1,.148,0c.337,2.073-.592,10.246-.66,12.2h0c.215-.215,4.941-4.349,4.982-4.281.727,1.212,3.1,6.732,3.258,7.23,1.777-2.693,9.142-14.123,11.215-16.641,0-.067.175,0,.121.081-1.575,2.841-11.148,17.664-11.283,17.624a86.486,86.486,0,0,1-3.379-8.011,57.391,57.391,0,0,1-5.6,5.278A64.834,64.834,0,0,1,601.211,211.04Z" transform="translate(-439.999 -148.293)" fill="#263238"/>
        </g>
      </g>
    </g>
  </g>
</svg>
