<svg xmlns="http://www.w3.org/2000/svg" width="360" height="360" viewBox="0 0 360 360">
  <g id="Group_17437" data-name="Group 17437" transform="translate(-1539 106)">
    <rect id="Rectangle_8272" data-name="Rectangle 8272" width="360" height="360" transform="translate(1539 -106)" fill="none"/>
    <g id="Confirmed-cuate" transform="translate(1546.68 -106)">
      <g id="freepik--Shadow--inject-304" transform="translate(5.36 317.202)">
        <path id="Path_26893" data-name="Path 26893" d="M382.759,442.214c0,11.774-74.791,21.324-167.039,21.324s-167.04-9.55-167.04-21.324,74.791-21.324,167.039-21.324S382.759,430.44,382.759,442.214Z" transform="translate(-48.68 -420.89)" fill="#ebebeb"/>
      </g>
      <g id="freepik--Floor--inject-304" transform="translate(0 289.108)">
        <path id="Path_26912" data-name="Path 26912" d="M42.22,387.445l43.1-.2,43.1-.075,86.2-.141,86.2.141,43.1.075,43.1.2-43.1.207-43.1.075-86.2.133-86.2-.141-43.1-.066Z" transform="translate(-42.22 -387.03)" fill="#263238"/>
      </g>
      <g id="freepik--Device--inject-304" transform="translate(68.51 11.824)">
        <rect id="Rectangle_8264" data-name="Rectangle 8264" width="310.573" height="207.787" rx="12.89" transform="translate(207.787) rotate(90)" fill="#263238"/>
        <rect id="Rectangle_8265" data-name="Rectangle 8265" width="190.014" height="267.286" transform="translate(9.002 21.739)" fill="#fff"/>
        <rect id="Rectangle_8266" data-name="Rectangle 8266" width="3.228" height="45.22" rx="1.25" transform="translate(126.491 11.002) rotate(90)" fill="#37474f"/>
        <circle id="Ellipse_522" data-name="Ellipse 522" cx="5.85" cy="5.85" r="5.85" transform="translate(98.04 293.68)" fill="#37474f"/>
        <rect id="Rectangle_8267" data-name="Rectangle 8267" width="131.461" height="1.85" transform="translate(38.283 58.446)" fill="#ebebeb"/>
        <rect id="Rectangle_8268" data-name="Rectangle 8268" width="131.461" height="1.85" transform="translate(38.283 64.187)" fill="#ebebeb"/>
        <rect id="Rectangle_8269" data-name="Rectangle 8269" width="131.461" height="1.85" transform="translate(38.283 239.034)" fill="#ebebeb"/>
        <rect id="Rectangle_8270" data-name="Rectangle 8270" width="131.461" height="1.85" transform="translate(38.283 244.776)" fill="#ebebeb"/>
        <circle id="Ellipse_523" data-name="Ellipse 523" cx="6.074" cy="6.074" r="6.074" transform="translate(64.171 252.55)" fill="#00a0ad"/>
        <path id="Path_26913" data-name="Path 26913" d="M208.828,366.838l-3.618-3.659,1.22-1.2,2.108,2.141,4.4-6.887,1.435.921Z" transform="translate(-138.484 -104.671)" fill="#fff"/>
        <text id="KYC_VERIFIED" data-name="KYC VERIFIED" transform="translate(82.81 259.177)" fill="#00a0ad" font-size="8" font-family="Rubik-Medium, Rubik" font-weight="500"><tspan x="0" y="0">KYC VERIFIED</tspan></text>
      </g>
      <g id="freepik--Envelope--inject-304" transform="translate(105.773 93.476)">
        <path id="Path_26923" data-name="Path 26923" d="M291.307,300.58H187.36V212.646l51.965-33.006,51.982,33.006Z" transform="translate(-172.707 -156.084)" fill="#e27e2b"/>
        <path id="Path_26924" data-name="Path 26924" d="M291.307,300.58H187.36V212.646l51.965-33.006,51.982,33.006Z" transform="translate(-172.707 -156.084)" opacity="0.2"/>
        <rect id="Rectangle_8271" data-name="Rectangle 8271" width="92.223" height="118.393" transform="translate(20.511 19.374)" fill="#ebebeb"/>
        <path id="Path_26925" data-name="Path 26925" d="M238.9,248.463l-21.12-21.374,7.094-7.011,12.338,12.487,25.622-40.175,8.413,5.36Z" transform="translate(-177.887 -158.255)" fill="#00a0ad"/>
        <path id="Path_26926" data-name="Path 26926" d="M291.307,246v65.88H187.36V246c4.464,2.489,8.853,5.177,13.275,7.766s8.8,5.277,13.176,7.965c4.87,2.962,9.741,5.982,14.6,9.019l.158-.091c-.05,0-.083.083-.124.108q5.443,3.36,10.894,6.762c3.618-2.282,7.26-4.58,10.894-6.829-.042,0-.075-.075-.124-.108a.724.724,0,0,0,.158.083q7.277-4.538,14.595-9.027,6.563-4.008,13.159-7.949C282.479,251.136,286.843,248.489,291.307,246Z" transform="translate(-172.707 -167.384)" fill="#e27e2b"/>
        <g id="Group_16464" data-name="Group 16464" transform="translate(14.653 78.616)" opacity="0.2">
          <path id="Path_26927" data-name="Path 26927" d="M291.307,246c-4.2,2.946-8.471,5.808-12.7,8.679s-8.538,5.675-12.836,8.488q-6.721,4.406-13.466,8.729l-.406.282-11.973,7.633-.6.357-.581-.357-11.956-7.65-.423-.266q-6.762-4.331-13.483-8.745-6.422-4.2-12.819-8.471c-4.265-2.837-8.5-5.775-12.7-8.679,4.464,2.489,8.853,5.177,13.275,7.766s8.8,5.277,13.176,7.965c4.87,2.962,9.741,5.982,14.6,9.019h0q5.476,3.377,10.927,6.779c3.618-2.282,7.26-4.58,10.894-6.829h0q7.277-4.539,14.6-9.027,6.563-4.007,13.159-7.949C282.479,251.136,286.843,248.489,291.307,246Z" transform="translate(-187.36 -246)"/>
          <path id="Path_26928" data-name="Path 26928" d="M228.593,275.67c-.05,0-.083.083-.124.108l-1.659,1.394c-2.6,2.2-5.277,4.306-7.99,6.356-3.319,2.489-6.7,4.978-10.1,7.351s-6.854,4.7-10.372,6.945-7.053,4.447-10.72,6.464c3.153-2.763,6.43-5.343,9.741-7.849s6.712-4.978,10.1-7.36,6.87-4.713,10.38-6.961c2.8-1.792,5.642-3.56,8.538-5.211.672-.39,1.344-.763,2.033-1.145Z" transform="translate(-187.406 -251.052)"/>
          <path id="Path_26929" data-name="Path 26929" d="M303.937,304.287c-3.667-2.016-7.227-4.215-10.72-6.464s-6.986-4.588-10.388-6.945-6.787-4.829-10.1-7.351c-2.7-2.049-5.368-4.149-7.957-6.339l-1.659-1.411c-.041,0-.075-.075-.124-.108a.725.725,0,0,0,.158.083c.689.39,1.361.763,2.033,1.153,2.9,1.659,5.725,3.418,8.538,5.211,3.51,2.248,6.945,4.588,10.363,6.961s6.787,4.829,10.1,7.36S300.784,301.524,303.937,304.287Z" transform="translate(-200.238 -251.052)"/>
        </g>
        <path id="Path_26930" data-name="Path 26930" d="M196.315,164.982a57.026,57.026,0,0,1,0-13.732A57.02,57.02,0,0,1,196.315,164.982Z" transform="translate(-174.161 -151.25)" fill="#263238"/>
        <path id="Path_26931" data-name="Path 26931" d="M187.366,168.438a50.882,50.882,0,0,1-5.153-4.563,49.9,49.9,0,0,1-4.563-5.144,57.251,57.251,0,0,1,9.716,9.707Z" transform="translate(-171.054 -152.524)" fill="#263238"/>
        <path id="Path_26932" data-name="Path 26932" d="M183.432,177.176a50.239,50.239,0,0,1-6.87.415,48.89,48.89,0,0,1-6.862-.407,48.824,48.824,0,0,1,6.862-.415A50.216,50.216,0,0,1,183.432,177.176Z" transform="translate(-169.7 -155.595)" fill="#263238"/>
        <path id="Path_26933" data-name="Path 26933" d="M186.888,184.288A57.675,57.675,0,0,1,177.18,194a56.863,56.863,0,0,1,9.708-9.724Z" transform="translate(-170.974 -156.874)" fill="#263238"/>
        <path id="Path_26934" data-name="Path 26934" d="M302.766,164.982a51.566,51.566,0,0,1-.407-6.87,50.039,50.039,0,0,1,.423-6.862,57.023,57.023,0,0,1,0,13.732Z" transform="translate(-192.289 -151.25)" fill="#263238"/>
        <path id="Path_26935" data-name="Path 26935" d="M309.89,168.438a57.251,57.251,0,0,1,9.716-9.708,49.9,49.9,0,0,1-4.563,5.144,50.882,50.882,0,0,1-5.153,4.563Z" transform="translate(-193.572 -152.524)" fill="#263238"/>
        <path id="Path_26936" data-name="Path 26936" d="M313,177.176a50.221,50.221,0,0,1,6.87-.407,48.75,48.75,0,0,1,6.862.415,48.825,48.825,0,0,1-6.862.407,50.234,50.234,0,0,1-6.87-.415Z" transform="translate(-194.101 -155.595)" fill="#263238"/>
        <path id="Path_26937" data-name="Path 26937" d="M310.37,184.29a56.86,56.86,0,0,1,9.708,9.716,50.981,50.981,0,0,1-5.144-4.572,50,50,0,0,1-4.564-5.144Z" transform="translate(-193.653 -156.876)" fill="#263238"/>
      </g>
      <g id="freepik--Character--inject-304" transform="translate(1.611 69.911)">
        <path id="Path_26938" data-name="Path 26938" d="M157.786,446.539c-1.792.581-52.845-.083-54.762-1.344-.738-.465-1.079-7.907-1.228-16.918v-.282c0-1.85-.058-3.767-.066-5.7v-.83l2.489-26.485,34.151.34-3.377,26.236v1.037l-.207,5.426v.564s19.432,8.994,21.407,10.6S159.57,445.975,157.786,446.539Z" transform="translate(-53.964 -169.188)" fill="#f7a9a0"/>
        <path id="Path_26939" data-name="Path 26939" d="M157.786,451.974c-1.792.581-52.845-.083-54.762-1.344-.738-.465-1.079-7.907-1.228-16.918v-.282c0-1.85-.058-3.767-.066-5.7v-.83l33.255.091v1.037l-.207,5.426v.564s19.432,8.994,21.407,10.6S159.57,451.41,157.786,451.974Z" transform="translate(-53.964 -174.623)" fill="#ebebeb"/>
        <path id="Path_26940" data-name="Path 26940" d="M157.86,453.527c-1.809.581-53.326.091-55.276-1.17-.747-.473-1.112-7.982-1.294-17.067l33.189.224s19.639,9.011,21.639,10.62S159.661,452.938,157.86,453.527Z" transform="translate(-53.889 -176.051)" fill="#00a0ad"/>
        <path id="Path_26941" data-name="Path 26941" d="M157.91,454.686c-8.629-.3-43.486-.672-52.04-.307-.066,0-.066.05,0,.058,8.554.473,43.4.564,52.04.39C158.092,454.819,158.092,454.686,157.91,454.686Z" transform="translate(-54.66 -179.276)" fill="#263238"/>
        <path id="Path_26942" data-name="Path 26942" d="M161.95,446.089a6.978,6.978,0,0,0-5.186,2.058,6.763,6.763,0,0,0-1.975,4.6c0,.05.1.05.108,0a8.015,8.015,0,0,1,7.053-6.547.058.058,0,1,0,0-.108Z" transform="translate(-62.999 -177.89)" fill="#263238"/>
        <path id="Path_26943" data-name="Path 26943" d="M143.365,436.639c-3.46-.083-7.467,1.1-9.65,3.9-.083.116.075.232.174.174a48.01,48.01,0,0,1,9.533-3.651.216.216,0,0,0-.058-.423Z" transform="translate(-59.406 -176.28)" fill="#263238"/>
        <path id="Path_26944" data-name="Path 26944" d="M146.565,437.919c-3.452-.083-7.467,1.1-9.65,3.908-.083.108.075.224.174.174a47.735,47.735,0,0,1,9.534-3.659.216.216,0,0,0-.058-.423Z" transform="translate(-59.951 -176.499)" fill="#263238"/>
        <path id="Path_26945" data-name="Path 26945" d="M149.775,439.2c-3.46-.075-7.467,1.1-9.65,3.908-.083.108.066.232.174.174a48.126,48.126,0,0,1,9.525-3.651.224.224,0,0,0-.05-.431Z" transform="translate(-60.498 -176.717)" fill="#263238"/>
        <path id="Path_26946" data-name="Path 26946" d="M153.015,440.489c-3.452-.083-7.467,1.1-9.65,3.908-.083.108.075.224.174.174a47.736,47.736,0,0,1,9.475-3.659.216.216,0,0,0,0-.423Z" transform="translate(-61.05 -176.936)" fill="#263238"/>
        <path id="Path_26947" data-name="Path 26947" d="M108.029,444.55c-3.883,0-3.925,6,0,6.024S111.912,444.575,108.029,444.55Z" transform="translate(-54.538 -177.628)" fill="#fff"/>
        <path id="Path_26948" data-name="Path 26948" d="M148.3,425.432c-1.734-1.469-3.958-.066-5.045,1.427A18.121,18.121,0,0,0,140,435.671a.1.1,0,0,0,.108.1.415.415,0,0,0,.614.282c2.489-1.659,5.335-3.169,7.227-5.551C149.044,429.116,149.907,426.826,148.3,425.432Zm-4.315,7.31c-1.2.83-2.431,1.659-3.593,2.547a53.671,53.671,0,0,1,1.991-5.1,20.408,20.408,0,0,1,1.286-2.323c.763-1.137,4.149-3.991,4.489-.224.141,2.074-2.78,4.082-4.207,5.1Z" transform="translate(-60.481 -174.267)" fill="#263238"/>
        <path id="Path_26949" data-name="Path 26949" d="M128.869,438.112c3.012.489,6.123-.332,9.085-.763a.432.432,0,0,0,.266-.631.091.091,0,0,0,0-.141,18.072,18.072,0,0,0-8.3-4.331c-1.817-.373-4.4.091-4.688,2.348C124.944,436.727,127.118,437.83,128.869,438.112ZM126.8,436.17c-2.307-2.987,2.141-3.186,3.468-2.863a19.083,19.083,0,0,1,2.489.83,53.046,53.046,0,0,1,4.92,2.423c-1.469.124-2.912.373-4.381.548-1.717.183-5.218.664-6.5-.937Z" transform="translate(-57.962 -175.513)" fill="#263238"/>
        <path id="Path_26950" data-name="Path 26950" d="M128.679,453.61c-12.8-.224-25.157-.647-26.1-1.253-.747-.473-1.112-7.982-1.294-17.067h4.729C111.247,439.571,122.307,448.474,128.679,453.61Z" transform="translate(-53.889 -176.051)" opacity="0.1"/>
        <path id="Path_26951" data-name="Path 26951" d="M133.239,398.015H96.474s7.4-85.868,7.111-87.37c-.365-1.925-2.539-10.612-5.426-21.971-.9-3.551-1.883-7.36-2.9-11.309-2.746-10.687-5.808-22.361-8.4-32.525-3.942-15.216-7.029-27.04-7.029-27.04h31.156s3.634,11.508,8.214,26.493c7.467,24.336,17.424,57.84,18.4,65.988C139.2,323.415,133.239,398.015,133.239,398.015Z" transform="translate(-50.235 -139.017)" fill="#37474f"/>
        <path id="Path_26952" data-name="Path 26952" d="M135.456,427.368c-5.617-.116-4.008-.158-9.625-.216-2.746,0-20.8-.183-23.373.241a.058.058,0,0,0,0,.116c2.572.423,20.627.266,23.373.241,5.617-.05,4.008-.1,9.625-.216a.083.083,0,0,0,0-.166Z" transform="translate(-54.078 -174.659)" fill="#263238"/>
        <path id="Path_26953" data-name="Path 26953" d="M111.808,306.97c-1.2-5.31-3.012-10.521-4.58-15.765q-4.779-15.889-9.616-31.778-2.414-7.94-4.846-15.881-1.228-4.008-2.489-8.007c-.83-2.614-1.751-5.194-2.489-7.833-.3-1.07-.465-.481-.075.88.772,2.738,1.535,5.484,2.34,8.223q2.365,8.131,4.779,16.246,4.779,16.155,9.641,32.284,2.431,8.1,4.87,16.18a65.2,65.2,0,0,1,1.983,7.833,35.777,35.777,0,0,1,.332,8.372c-.357,5.626-1.012,11.243-1.527,16.852s-1.045,11.251-1.56,16.868q-1.552,16.793-3.087,33.579c-.124,1.419-.249,2.838-.357,4.265,0,.473.68.431.73,0,1.211-11.06,2.141-22.17,3.178-33.247s2.074-22.062,3.1-33.089c.257-2.771.556-5.543.556-8.3A34.474,34.474,0,0,0,111.808,306.97Z" transform="translate(-51.538 -140.61)" fill="#263238"/>
        <path id="Path_26954" data-name="Path 26954" d="M107.451,217.78c-2.166,16.735-6.289,48.124-9.293,70.875C91.131,261.108,79.83,217.78,79.83,217.78Z" transform="translate(-50.235 -139.014)" fill="#263238"/>
        <path id="Path_26955" data-name="Path 26955" d="M110.819,447.181c-1.784.581-52.837.108-54.762-1.145-.738-.465-1.1-7.907-1.286-16.918v-.282c-.041-1.85-.075-3.767-.083-5.7v-.83c-.116-12.993.83-26.476.83-26.476l33.371.216-.938,26.236v1.037l-.183,5.435v.556s19.374,8.978,21.349,10.554S112.611,446.584,110.819,447.181Z" transform="translate(-45.952 -169.332)" fill="#f7a9a0"/>
        <path id="Path_26956" data-name="Path 26956" d="M110.821,452.615c-1.784.581-52.837.108-54.762-1.145-.738-.465-1.1-7.907-1.286-16.918v-.282c-.041-1.85-.075-3.767-.083-5.7v-.83H87.945v1.037l-.183,5.435v.556s19.382,8.953,21.357,10.529S112.613,452.018,110.821,452.615Z" transform="translate(-45.954 -174.766)" fill="#ebebeb"/>
        <path id="Path_26957" data-name="Path 26957" d="M110.98,453.847c-1.809.581-53.326.091-55.276-1.17-.747-.473-1.112-7.982-1.294-17.067l33.189.224s19.639,9.011,21.631,10.62S112.781,453.258,110.98,453.847Z" transform="translate(-45.906 -176.106)" fill="#00a0ad"/>
        <path id="Path_26958" data-name="Path 26958" d="M111.03,455.006c-8.637-.3-43.486-.672-52.04-.307-.066,0-.066.05,0,.05,8.546.481,43.4.573,52.04.4C111.212,455.139,111.212,455.006,111.03,455.006Z" transform="translate(-46.678 -179.331)" fill="#263238"/>
        <path id="Path_26959" data-name="Path 26959" d="M115.07,446.409a6.97,6.97,0,0,0-5.186,2.058,6.729,6.729,0,0,0-1.975,4.6c0,.05.1.05.108,0a8.015,8.015,0,0,1,7.053-6.547.058.058,0,0,0,0-.108Z" transform="translate(-55.016 -177.944)" fill="#263238"/>
        <path id="Path_26960" data-name="Path 26960" d="M96.485,437c-3.46-.075-7.467,1.1-9.65,3.908-.083.108.066.232.174.174a48.022,48.022,0,0,1,9.533-3.651.224.224,0,0,0-.058-.431Z" transform="translate(-51.424 -176.342)" fill="#263238"/>
        <path id="Path_26961" data-name="Path 26961" d="M99.685,438.239c-3.452-.083-7.467,1.1-9.65,3.908-.083.108.075.224.174.174a47.733,47.733,0,0,1,9.533-3.659.216.216,0,0,0-.058-.423Z" transform="translate(-51.969 -176.553)" fill="#263238"/>
        <path id="Path_26962" data-name="Path 26962" d="M102.894,439.519c-3.46-.083-7.467,1.1-9.65,3.908-.091.108.066.224.174.174a47.44,47.44,0,0,1,9.525-3.651.224.224,0,0,0-.05-.431Z" transform="translate(-52.514 -176.771)" fill="#263238"/>
        <path id="Path_26963" data-name="Path 26963" d="M106.1,440.809c-3.46-.083-7.467,1.1-9.65,3.908-.083.108.075.224.174.174a47.527,47.527,0,0,1,9.533-3.659.216.216,0,0,0-.058-.423Z" transform="translate(-53.06 -176.991)" fill="#263238"/>
        <path id="Path_26964" data-name="Path 26964" d="M61.149,444.87c-3.883,0-3.925,6,0,6.024S65.032,444.895,61.149,444.87Z" transform="translate(-46.555 -177.683)" fill="#fff"/>
        <path id="Path_26965" data-name="Path 26965" d="M101.382,425.752c-1.742-1.469-3.958-.066-5.053,1.427a18.112,18.112,0,0,0-3.219,8.8.091.091,0,0,0,.108.1.415.415,0,0,0,.614.29c2.489-1.659,5.335-3.17,7.227-5.559C102.146,429.42,103.025,427.138,101.382,425.752Zm-4.315,7.31c-1.195.83-2.431,1.659-3.593,2.539a53.67,53.67,0,0,1,2.033-5.1,20.288,20.288,0,0,1,1.286-2.315c.763-1.137,4.149-3.991,4.489-.232.133,2.049-2.788,4.091-4.215,5.111Z" transform="translate(-52.496 -174.321)" fill="#263238"/>
        <path id="Path_26966" data-name="Path 26966" d="M81.987,438.435c3,.49,6.123-.34,9.077-.763a.423.423,0,0,0,.266-.614.091.091,0,0,0,0-.149,18.2,18.2,0,0,0-8.3-4.331c-1.817-.365-4.4.1-4.688,2.356C78.054,437.058,80.236,438.145,81.987,438.435Zm-2.066-1.991c-2.307-2.987,2.141-3.178,3.468-2.854a19.1,19.1,0,0,1,2.489.83,53.942,53.942,0,0,1,4.912,2.423c-1.469.125-2.912.365-4.373.548C84.692,437.613,81.2,438.1,79.921,436.444Z" transform="translate(-49.977 -175.57)" fill="#263238"/>
        <path id="Path_26967" data-name="Path 26967" d="M105.114,217.78s-.722,14.935-4.149,26.717c-.274.979-.573,1.933-.888,2.854a55.668,55.668,0,0,0-8.969,4.63s-.357,11.989-.714,25.373c-.4,14.935-.83,31.629-.73,35.172C89.98,325.8,88,398.543,88,398.543l-36.765.149s6.638-81.313,6.638-86.133c-.075-7.791,1.776-42.241,3.211-67.357.83-15.483,1.593-27.381,1.593-27.381Z" transform="translate(-45.367 -139.014)" fill="#37474f"/>
        <path id="Path_26968" data-name="Path 26968" d="M87.218,427.712c-5.617-.091-4.008-.141-9.616-.174-2.755,0-20.809-.1-23.373.34a.058.058,0,0,0,0,.116c2.564.415,20.627.174,23.373.141,5.617-.083,4-.116,9.616-.257a.083.083,0,0,0,0-.166Z" transform="translate(-45.866 -174.73)" fill="#263238"/>
        <path id="Path_26969" data-name="Path 26969" d="M66.811,224.172c-.68,20.511-1.394,41.021-2.315,61.515s-2.157,41.138-3.875,61.648c-.962,11.467-1.875,27.6-3.111,39,0,.075.108.108.124,0,2.672-20.345,4.149-45.494,5.484-65.971s2.207-40.972,2.9-61.466c.4-11.616.7-23.232,1.045-34.8C67.044,224.006,66.819,224.006,66.811,224.172Z" transform="translate(-46.434 -140.079)" fill="#263238"/>
        <path id="Path_26970" data-name="Path 26970" d="M109.826,252.349a68.862,68.862,0,0,0-10.546,5.518.124.124,0,0,0,.116.216c3.543-1.726,7.16-3.385,10.612-5.3a.241.241,0,0,0-.183-.431Z" transform="translate(-53.539 -144.9)" fill="#263238"/>
        <path id="Path_26971" data-name="Path 26971" d="M110.848,237.1c-.249,1.3-.564,2.6-.83,3.9s-.456,2.489-.78,3.667a6.314,6.314,0,0,1-1.709,3.07c-.473.44-1,.83-1.51,1.245l-.83.655a4.246,4.246,0,0,1,.1-.531c.091-.5.174-.987.257-1.485.183-1.1.357-2.207.531-3.319.332-2.174.631-4.364,1.087-6.505,0-.091-.116-.124-.133,0-.539,2.124-1.137,4.223-1.61,6.372-.232,1.054-1.054,6.248-1.087,6.638s-.075.763-.083,1.145a4.147,4.147,0,0,0,0,1.162c0,.1.133.083.174,0h0a4.323,4.323,0,0,0,.332-1.128c.1-.365.183-.747.249-1.12a1.047,1.047,0,0,1,.058-.415c.514-.307.987-.722,1.469-1.07s1.045-.738,1.527-1.145a5.849,5.849,0,0,0,1.784-2.929,21.114,21.114,0,0,0,.614-3.734c.166-1.477.282-2.962.49-4.431C111,237.006,110.865,237.006,110.848,237.1Z" transform="translate(-54.386 -142.292)" fill="#263238"/>
        <path id="Path_26972" data-name="Path 26972" d="M95.58,174.34c2.846,8.571,15.59,35.819,20.942,37.727,5.576,1.975,27.107,4.439,31.886.68,2.34-1.85,3.153-21.573,0-21.075s-22.137,1.186-24.394.382S106.681,169.3,100.558,163.96C90,154.792,94.061,169.719,95.58,174.34Z" transform="translate(-52.568 -129.352)" fill="#f7a9a0"/>
        <path id="Path_26973" data-name="Path 26973" d="M143.536,191.335l-.307,24.551s-22.079.058-27.962-3.037-18.329-31.463-21.44-42.316S95.694,158,103.6,165.97s19.8,24.659,21.208,25S143.536,191.335,143.536,191.335Z" transform="translate(-52.459 -129.346)" fill="#00a0ad"/>
        <path id="Path_26974" data-name="Path 26974" d="M115.1,180.713a45,45,0,0,0-13.043,4.315l-.747.39c-.191.091-.373.191-.556.3-.365.191-.722.39-1.079.606l-.158-.4.755-.44.548-.29c.34-.191.689-.382,1.037-.556a41.592,41.592,0,0,1,6.563-2.721,43.651,43.651,0,0,1,6.4-1.552Zm4.929,6.2a13.114,13.114,0,0,1-1.2.556,12.32,12.32,0,0,1-3.319.88c-.581.066-1.162.166-1.742.2l-1.751.05a19.308,19.308,0,0,1-6.82-1.444c-1.3-.506-2.572-1.12-3.842-1.734-.166-.066-.324-.149-.49-.224-.4-.183-.83-.373-1.2-.548l-.39-.166-.365-.158.141.348c0,.1.083.2.116.3h.075l1.07.481.481.232c1.377.655,2.763,1.352,4.207,1.917a19.856,19.856,0,0,0,7,1.485l1.792-.042a16.073,16.073,0,0,0,1.784-.207,12.992,12.992,0,0,0,3.485-.9,13.289,13.289,0,0,0,1.352-.622Zm-8.5-10.571a44.623,44.623,0,0,0-4.522,2.423,59,59,0,0,0-7.783,5.717L99,184.67c0,.1.083.2.116.3h0v.066h.05c.141-.124.274-.249.415-.357a58.909,58.909,0,0,1,7.625-5.509,51.563,51.563,0,0,1,4.588-2.439Z" transform="translate(-53.482 -131.957)" fill="#fff"/>
        <path id="Path_26975" data-name="Path 26975" d="M146.164,209.786c0-1.95.141-9.724.315-11.616h.058c.191,1.875.29,9.55.282,11.5a106.961,106.961,0,0,1-.44,11.616.066.066,0,0,1-.124,0C145.964,217.461,146.122,213.619,146.164,209.786Z" transform="translate(-61.517 -135.675)" fill="#263238"/>
        <path id="Path_26976" data-name="Path 26976" d="M93.81,170.521c3.111,10.861,15.557,39.221,21.44,42.316,2.821,1.485,9.359,2.249,15.408,2.63L96.009,161C93.047,160.68,91.927,163.891,93.81,170.521Z" transform="translate(-52.458 -129.341)" opacity="0.1"/>
        <path id="Path_26977" data-name="Path 26977" d="M60.367,229.979c.133.133,54-3.551,54.446-4.149.631-.83-16.42-55.591-20.693-63.6-1.817-3.427-10.529-3.925-13.972-.68-8.621,8.106-14.62,34.317-15.881,42.175C62.176,216.687,59.885,229.507,60.367,229.979Z" transform="translate(-46.91 -129.068)" fill="#00a0ad"/>
        <path id="Path_26978" data-name="Path 26978" d="M112.361,223.492l-1.51-.888a66.93,66.93,0,0,0-6.281-3.228l-1.178-.514-.573-.232a40.657,40.657,0,0,0-4.87-1.659,36.456,36.456,0,0,0-6.928-1.228,45.21,45.21,0,0,0-13.948,1.576l-.83.232c-.207.05-.407.108-.606.174a57.44,57.44,0,0,0-9.185,3.7c-.83.39-1.659.83-2.423,1.236l-.249.133-.913.49.075-.423.938-.481c.929-.506,1.867-1,2.813-1.452.78-.4,1.576-.772,2.373-1.128a56.433,56.433,0,0,1,6.157-2.4l.606-.174c.373-.124.747-.232,1.128-.332a40.659,40.659,0,0,1,6.986-1.319,43.146,43.146,0,0,1,7.1-.183,39.054,39.054,0,0,1,12.089,3.029l.564.249.987.44a65.412,65.412,0,0,1,6.281,3.319l1.294.763Zm-2.788-9.127c-1.377.83-2.721,1.659-4.057,2.539-.83.514-1.585,1.037-2.381,1.543l-.315.207c-1.087.7-2.19,1.369-3.319,2a21.367,21.367,0,0,1-6.513,2.489,12.531,12.531,0,0,1-3.477.174c-.581-.058-1.17-.075-1.742-.158l-1.726-.307a19.457,19.457,0,0,1-6.381-2.813c-1.17-.763-2.282-1.659-3.41-2.489l-.431-.324c-.348-.266-.705-.531-1.062-.78l-.34-.249-.5-.34a12.446,12.446,0,0,0-6.746-2.3,7.782,7.782,0,0,0-2.788.573l-.075.448a7.782,7.782,0,0,1,2.854-.6,11.989,11.989,0,0,1,6.48,2.282l.29.2.34.241c.315.224.631.456.938.7l.431.324c1.22.929,2.431,1.892,3.734,2.738a19.847,19.847,0,0,0,6.538,2.887l1.776.324c.589.083,1.187.108,1.784.166a13.447,13.447,0,0,0,3.6-.174,21.574,21.574,0,0,0,6.638-2.572c1.236-.7,2.439-1.452,3.626-2.232l.307-.191,2.091-1.369q1.942-1.245,3.933-2.489Zm-.913-2.937a42.18,42.18,0,0,0-4.389-1.162,32.873,32.873,0,0,0-7.094-.647,41.49,41.49,0,0,0-7.094.747,46.026,46.026,0,0,0-6.878,1.859,58.539,58.539,0,0,0-8.778,4c-.166.083-.324.174-.481.266-1.178.655-2.332,1.336-3.477,2.041-1.269.78-2.531,1.585-3.775,2.4-.971.622-1.933,1.261-2.9,1.892l-.929.606a2.818,2.818,0,0,1-.058.382c1.228-.78,2.439-1.576,3.659-2.356.83-.556,1.726-1.112,2.6-1.659.523-.332,1.045-.655,1.576-.971,1.195-.722,2.414-1.427,3.642-2.1l.481-.257a58.027,58.027,0,0,1,8.588-3.833A46.008,46.008,0,0,1,97.176,210a32.749,32.749,0,0,1,7.028.6,41.592,41.592,0,0,1,4.572,1.2c-.041-.141-.083-.266-.116-.382Z" transform="translate(-47.337 -137.623)" fill="#fff"/>
        <path id="Path_26979" data-name="Path 26979" d="M70.335,168.287c-14.3,15.765-30.418,42.407-23.523,48.124,6.306,5.194,29.306.249,43.768-5.4,2.755-1.079-8.413-25.423-11.218-23.979a80.173,80.173,0,0,1-9.127,4.149c-.83.216,3.551-5.094,8.4-17.856C83.528,160.289,78.508,159.268,70.335,168.287Z" transform="translate(-44.333 -129.58)" fill="#f7a9a0"/>
        <path id="Path_26980" data-name="Path 26980" d="M121.188,188.619c0,2.829-6.961,2.273-6.961,2.273a5.186,5.186,0,0,1,2.124,2.813c.523,2.083-2.489,3.825-2.489,3.825a6.48,6.48,0,0,1,1.767,3.319c.3,2.041-2.489,4.24-2.489,4.24a5.65,5.65,0,0,1-.315,3.925c-1.659,3.228-7.235,3.319-10.679,4.016a73.065,73.065,0,0,0-11.3,3.6L84.44,191.2s14.935-8.87,19.084-8.671C107.025,182.77,121.172,184.288,121.188,188.619Z" transform="translate(-51.02 -133.011)" fill="#f7a9a0"/>
        <path id="Path_26981" data-name="Path 26981" d="M117.9,192.222a47.245,47.245,0,0,0-11.458-1.4.066.066,0,1,0,0,.133c3.8.091,7.658,1.2,11.434,1.452a.092.092,0,1,0,.025-.183Z" transform="translate(-54.756 -134.423)" fill="#263238"/>
        <path id="Path_26982" data-name="Path 26982" d="M117.482,200.265a9.957,9.957,0,0,0-2.622-.141c-.929,0-1.859.041-2.788.083q-2.8.124-5.576.4a.066.066,0,1,0,0,.133c1.859-.083,3.717-.141,5.567-.149h2.788a11.616,11.616,0,0,0,2.63-.083.133.133,0,0,0,0-.241Z" transform="translate(-54.765 -136.002)" fill="#263238"/>
        <path id="Path_26983" data-name="Path 26983" d="M116.811,209.789a6.853,6.853,0,0,0-2.365,0l-2.506.158c-1.659.091-3.394.191-5.094.224a.066.066,0,1,0,0,.133c1.726,0,3.452,0,5.177-.075l2.539-.075a6.456,6.456,0,0,0,2.29-.274.05.05,0,0,0-.041-.091Z" transform="translate(-54.824 -137.636)" fill="#263238"/>
        <path id="Path_26984" data-name="Path 26984" d="M76.86,187.52l5.509,27.38s-34.243,8.936-37.794.274,16.594-40.831,28.21-50.007,7.252,5.277,6.895,6.439c-1.568,5.136-8.87,18.528-8.87,18.528Z" transform="translate(-44.161 -129.538)" fill="#00a0ad"/>
        <path id="Path_26985" data-name="Path 26985" d="M82.369,214.861s-34.243,8.936-37.794.274c-1.908-4.663,3.037-16.121,9.816-27.148l.108-.174.141-.224c.041-.075.091-.149.141-.224a136.8,136.8,0,0,1,7.932-11.442l.29-.373a64.138,64.138,0,0,1,9.766-10.421c11.616-9.177,7.252,5.277,6.895,6.439-.108.365-.249.772-.415,1.211-.066.166-.133.348-.207.531-.954,2.439-2.489,5.725-4.041,8.745l-.183.365a.144.144,0,0,1-.058.116l-.1.191c-1.966,3.875-3.75,7.16-3.858,7.36l6.057-2.572Z" transform="translate(-44.161 -129.531)" fill="#00a0ad"/>
        <path id="Path_26986" data-name="Path 26986" d="M77.105,184.246l-.183.365a.144.144,0,0,1-.058.116l-.415.266-3.377,2.2a50.72,50.72,0,0,1-6.2,3.485,16.14,16.14,0,0,1-3.394,1.128A7,7,0,0,1,59.9,191.7c-.29-.083-.589-.149-.83-.241l-.83-.357a11.719,11.719,0,0,1-1.593-.83l-.124-.075.108-.174.141-.224a.6.6,0,0,0,.124.091l.116.066a9.27,9.27,0,0,0,1.411.763l.83.348.83.241a6.638,6.638,0,0,0,3.4.124,15.989,15.989,0,0,0,3.319-1.079,51.321,51.321,0,0,0,6.165-3.4l2.7-1.726.705-.456Zm-.83.506c-4.256,1.037-8.43,2.356-12.678,3.394-2.224.556-4.48,1.045-6.746,1.411-.05.075-.1.149-.141.224l-.14.219.382-.066c2.265-.382,4.514-.888,6.737-1.452,3.991-1,7.907-2.249,11.882-3.277l.83-.216a2.465,2.465,0,0,0,.315-.075l.1-.191a.154.154,0,0,1,.058-.116Zm.274-6.9a19.8,19.8,0,0,1-3.228,1.386,8.53,8.53,0,0,1-3.4.431,10.977,10.977,0,0,1-4.846-1.933l-.29.373A11.458,11.458,0,0,0,69.87,180.1a8.82,8.82,0,0,0,3.576-.481,19.233,19.233,0,0,0,3.319-1.435,50.391,50.391,0,0,0,4.389-2.68c.075-.183.141-.365.207-.531a53.6,53.6,0,0,1-4.779,2.887Z" transform="translate(-46.266 -131.724)" fill="#fff"/>
        <path id="Path_26987" data-name="Path 26987" d="M79.47,192.714c-3.933,1.377-14.238,6.522-16.5,8.629a.075.075,0,0,0,.083.116c2.224-1.568,14.935-7.8,16.951-8.563,0,0,.1.241.141.307s.116.041.116-.05a5.2,5.2,0,0,0-.149-.664Z" transform="translate(-47.361 -134.707)" fill="#263238"/>
        <path id="Path_26988" data-name="Path 26988" d="M78.918,208.84c-.373-1.908-1.8-9.558-2.008-11.483,0,0,0-.041.05,0,.564,1.792,2.19,9.3,2.572,11.21a105.811,105.811,0,0,1,1.9,11.5c0,.066-.1.108-.124,0C80.3,216.4,79.648,212.6,78.918,208.84Z" transform="translate(-49.738 -135.533)" fill="#263238"/>
        <path id="Path_26989" data-name="Path 26989" d="M75.939,193.2c1.07-2.331,2.381-4.547,3.56-6.82s2.4-4.53,3.493-6.829h.05c-.664,1.568-1.328,3.136-2.041,4.68.216-.241.415-.5.614-.755.365-.465.7-.954,1.029-1.444h.05a7.975,7.975,0,0,1-.954,1.543,8.745,8.745,0,0,1-.913,1c-.29.631-.6,1.261-.913,1.883a50.172,50.172,0,0,1-3.576,6.688C76.288,193.307,75.9,193.307,75.939,193.2Z" transform="translate(-49.572 -132.504)" fill="#263238"/>
        <path id="Path_26990" data-name="Path 26990" d="M62.22,229.314c4.041-.05,19.3-3.045,23.075-3.825-.05-.4,0-.539-.1-1.1,0-.075.108-.108.124,0,.1.539.465,1.61.315,1.659-1.817.714-19.449,3.792-23.415,3.46a.1.1,0,1,1,0-.191Z" transform="translate(-47.22 -140.127)" fill="#263238"/>
        <path id="Path_26991" data-name="Path 26991" d="M111.76,218.908l28.41,3.825,10.778-39.486-28.41-3.817Z" transform="translate(-55.672 -132.484)" fill="#263238"/>
        <path id="Path_26992" data-name="Path 26992" d="M113.45,219.128l28.4,3.825,10.778-39.478-28.4-3.825Z" transform="translate(-55.96 -132.521)" fill="#37474f"/>
        <path id="Path_26993" data-name="Path 26993" d="M140.69,203.589a3.1,3.1,0,0,1-3.377,2.356,2.489,2.489,0,0,1-2.149-3.1,3.112,3.112,0,0,1,3.377-2.365,2.489,2.489,0,0,1,2.149,3.1Z" transform="translate(-59.644 -136.066)" fill="#fff"/>
        <path id="Path_26994" data-name="Path 26994" d="M156.579,194.07c1.186,3.319,4.572,7.642,4.622,10.264a3.02,3.02,0,0,1-1.983,3s2.489,1.552,2.1,3.933c-.174,1.228-2.3,2.025-2.3,2.025a3.568,3.568,0,0,1,1.469,3.427c-.349,1.659-2.423,2.215-2.423,2.215s1.245,2.132.34,3.725c-1.842,3.228-16.453,1.742-18.163-3.875-.83-2.614,2.746-2.058,2.746-2.058s-4.912-2.033-4.68-5.053,4.8-2.025,4.8-2.025-4.738-2.008-4.149-5.119,4.978-1.452,4.978-1.452-3.028-2.489-2.058-4.812c1.6-3.775,7.26,1.751,10.546,1.311l2.315-5.119Z" transform="translate(-60.191 -134.977)" fill="#f7a9a0"/>
        <path id="Path_26995" data-name="Path 26995" d="M162.307,197.567c-.83-3.244,3.418-6.712,3.053-9.957-.49-4.356-5.708-.664-7.4,5.41l-.49,4.98Z" transform="translate(-63.455 -133.553)" fill="#f7a9a0"/>
        <path id="Path_26996" data-name="Path 26996" d="M158.668,223.647a.041.041,0,1,1,0,.083,25.514,25.514,0,0,1-14.935-2.431c-.149-.075-.083-.348.091-.29A52.054,52.054,0,0,0,158.668,223.647Z" transform="translate(-61.102 -139.562)" fill="#263238"/>
        <path id="Path_26997" data-name="Path 26997" d="M160,216.483c.058,0,.058.1,0,.108a23.9,23.9,0,0,1-16.163-3.651c-.166-.116-.2-.382,0-.266C147.186,214.6,155.259,216.408,160,216.483Z" transform="translate(-61.111 -138.14)" fill="#263238"/>
        <path id="Path_26998" data-name="Path 26998" d="M144.684,204.5c4.7,3,9.89,4.149,15.391,4.638.066,0,.058.108,0,.116-2.755.514-6.231-.141-8.886-.879a14.628,14.628,0,0,1-6.6-3.709C144.51,204.588,144.584,204.43,144.684,204.5Z" transform="translate(-61.257 -136.749)" fill="#263238"/>
        <path id="Path_26999" data-name="Path 26999" d="M99.384,164.921h0c.1,2.489.174,8.14-3.659,7.716a8.181,8.181,0,0,1-4.091-2.141,21.167,21.167,0,0,1-3.261-3.385,32.422,32.422,0,0,1-2.954-4.306c0-.058-.133,0-.091.066.88,1.518,1.61,3.087,2.639,4.522a18.786,18.786,0,0,0,3.435,3.725,8.173,8.173,0,0,0,4.439,2.108,3.087,3.087,0,0,0,3.194-2.265,13.649,13.649,0,0,0,.348-6.04Z" transform="translate(-51.17 -129.649)" fill="#263238"/>
        <path id="Path_27000" data-name="Path 27000" d="M95.949,167.642c-2.771.241-7.3-4.978-8.629-8.521a56.3,56.3,0,0,1,1.319-5.476c.423-1.751.83-3.717,1.128-5.534l11,4.439a29.512,29.512,0,0,0-2.124,6.829,3.891,3.891,0,0,0,0,.755v.124C98.671,161.709,98.621,167.409,95.949,167.642Z" transform="translate(-51.51 -127.15)" fill="#f7a9a0"/>
        <path id="Path_27001" data-name="Path 27001" d="M99.266,160.2a.616.616,0,0,1,0,.124,7.61,7.61,0,0,1-1.178-.1c-6.588-1.12-6.961-9.426-6.928-11.741l2.755,1.1,7.467,3.028a29.241,29.241,0,0,0-2.116,6.829A3.948,3.948,0,0,0,99.266,160.2Z" transform="translate(-52.164 -127.213)" fill="#263238"/>
        <path id="Path_27002" data-name="Path 27002" d="M88.691,131.7c-1.145,4.149,1.311,15.873,4.281,18.428,4.315,3.717,11.218,3.908,14.338-1.245,3.02-4.978-.448-20.253-3.759-22.56C98.681,122.913,90.375,125.61,88.691,131.7Z" transform="translate(-51.695 -123.186)" fill="#f7a9a0"/>
        <path id="Path_27003" data-name="Path 27003" d="M102.638,142.05s-.05.05,0,.083c.183.788.266,1.726-.4,2.132v.041C103.061,144.008,102.945,142.772,102.638,142.05Z" transform="translate(-54.051 -126.119)" fill="#263238"/>
        <path id="Path_27004" data-name="Path 27004" d="M101.51,141.229c-1.294.166-.83,2.738.324,2.589S102.614,141.1,101.51,141.229Z" transform="translate(-53.794 -125.978)" fill="#263238"/>
        <path id="Path_27005" data-name="Path 27005" d="M108.15,141s.075,0,.075.066c.108.83.365,1.7,1.128,1.85v.042C108.448,142.958,108.125,141.763,108.15,141Z" transform="translate(-55.057 -125.94)" fill="#263238"/>
        <path id="Path_27006" data-name="Path 27006" d="M108.73,139.835c1.269-.307,1.792,2.249.614,2.489S107.668,140.092,108.73,139.835Z" transform="translate(-55.057 -125.737)" fill="#263238"/>
        <path id="Path_27007" data-name="Path 27007" d="M100.035,139.586a7.9,7.9,0,0,0,.938-.514,1.659,1.659,0,0,0,.83-.705.556.556,0,0,0-.2-.647,1.369,1.369,0,0,0-1.386.083,2.008,2.008,0,0,0-1,1.045.589.589,0,0,0,.813.738Z" transform="translate(-53.53 -125.356)" fill="#263238"/>
        <path id="Path_27008" data-name="Path 27008" d="M109.379,138.567c-.365,0-.705-.066-1.07-.1a1.743,1.743,0,0,1-1.07-.307.564.564,0,0,1-.075-.672,1.369,1.369,0,0,1,1.3-.473,1.991,1.991,0,0,1,1.336.564.589.589,0,0,1-.423.987Z" transform="translate(-54.876 -125.257)" fill="#263238"/>
        <path id="Path_27009" data-name="Path 27009" d="M102.84,151.047a1.269,1.269,0,0,0,.755.365,2.182,2.182,0,0,0,.83-.348s.058,0,0,.041a1.1,1.1,0,0,1-.946.6.871.871,0,0,1-.738-.606C102.757,151.055,102.815,151.005,102.84,151.047Z" transform="translate(-54.136 -127.648)" fill="#263238"/>
        <path id="Path_27010" data-name="Path 27010" d="M103.4,145.886a2.78,2.78,0,0,0,2.016.913,3.651,3.651,0,0,0,.987-.116l.183-.05.166-.058a.2.2,0,0,0,.133-.207h0a.24.24,0,0,0,0-.083h0v-.066c-.083-.622-.3-1.543-.3-1.543.241.075,1.477.407,1.4.083a41.131,41.131,0,0,0-2.4-8.048.075.075,0,0,0-.141,0c.465,2.556,1.386,4.978,1.9,7.559a4.731,4.731,0,0,0-1.352-.174c-.083,0,.448,1.776.456,2.058h0a3.825,3.825,0,0,1-2.954-.415C103.4,145.762,103.337,145.828,103.4,145.886Z" transform="translate(-54.244 -125.201)" fill="#263238"/>
        <path id="Path_27011" data-name="Path 27011" d="M106.031,148.437a3.269,3.269,0,0,1-1.112,1.186,1.435,1.435,0,0,1-.83.191c-.656-.058-.763-.631-.73-1.145a3.36,3.36,0,0,1,.158-.83,4.2,4.2,0,0,0,2.514.6Z" transform="translate(-54.24 -127.105)" fill="#263238"/>
        <path id="Path_27012" data-name="Path 27012" d="M104.919,149.8a1.435,1.435,0,0,1-.83.191c-.655-.058-.763-.631-.73-1.145a1.493,1.493,0,0,1,1.56.954Z" transform="translate(-54.24 -127.275)" fill="#ff9abb"/>
        <path id="Path_27013" data-name="Path 27013" d="M105.666,129.68c-.664-.921-1.394-1.842-2.058-1.917s-.738,1.518-2.116,1.917c-1.867.531-3.153-1-5.808-.622-3.858.556-4.846,4.091-3.775,9.492.954,4.829-1.85,5.908-1.85,5.908s-4.049-10.23-1.817-14.387,8.762-7.185,14.1-4.821C104.248,126.1,105.666,129.68,105.666,129.68Z" transform="translate(-51.553 -123.117)" fill="#263238"/>
        <path id="Path_27014" data-name="Path 27014" d="M91.869,144.756s-2.846-3.692-4.53-2.663.564,6.472,2.639,7.136a2.058,2.058,0,0,0,2.713-1.236Z" transform="translate(-51.413 -126.095)" fill="#f7a9a0"/>
        <path id="Path_27015" data-name="Path 27015" d="M88.28,144v.058a5.236,5.236,0,0,1,2.846,3.145,1.145,1.145,0,0,0-1.726-.232s0,.083.042.075a1.278,1.278,0,0,1,1.427.373,7.016,7.016,0,0,1,.722,1.1c.066.124.3.05.241-.1h0C91.773,146.564,90.246,144.083,88.28,144Z" transform="translate(-51.674 -126.451)" fill="#263238"/>
        <path id="Path_27016" data-name="Path 27016" d="M97.7,123.522a17.548,17.548,0,0,0-4.978-.672c-1.9.058-7.683,1.427-8.9,2.821s-.722,6.97-.631,7.783,1.211,5.634,3.17,6.538.83-7.418,3.178-10.6S97.7,123.522,97.7,123.522Z" transform="translate(-50.776 -122.849)" fill="#e27e2b"/>
        <path id="Path_27017" data-name="Path 27017" d="M97.991,123.542s-5.808,2.672-8.206,5.858-1.228,11.5-3.17,10.6a3.916,3.916,0,0,1-1.875-2.356c0-2.489.373-6.389,1.983-9.309,1.51-2.73,4.572-4.48,7.99-5.418a19.216,19.216,0,0,1,3.277.622Z" transform="translate(-51.071 -122.861)" opacity="0.1"/>
        <path id="Path_27018" data-name="Path 27018" d="M87.865,144.861c-.191-2.232,1.128-8.5,2.954-12.263s8.438-6.82,9.409-6.92c2.373-.232,3.07.83,3.41.539s-2.431-2.572-3.161-2.863a7.65,7.65,0,0,0-3.377-.3c-1.021.183-7.219,1.8-9.085,4.846s-3.883,11.085-3.053,12.919c.216.44.83.639,1.17,1.269.4.83.73,1.784,1.087,2.348S87.881,145.052,87.865,144.861Z" transform="translate(-51.076 -122.872)" fill="#e27e2b"/>
        <path id="Path_27019" data-name="Path 27019" d="M91.753,132.214a11.781,11.781,0,0,1-1.659-.88,7.89,7.89,0,0,1-1.527-1.2s-.091,0-.058.05a6.281,6.281,0,0,0,1.435,1.377,5.169,5.169,0,0,0,1.817.763.058.058,0,1,0-.008-.116Z" transform="translate(-51.711 -124.091)" fill="#263238"/>
        <path id="Path_27020" data-name="Path 27020" d="M87.587,145.983c-.091-.149-.216-.274-.315-.415a2.414,2.414,0,0,1-.29-.514,5.068,5.068,0,0,0-.423-1.029,3.932,3.932,0,0,0-.631-.655,1.543,1.543,0,0,1-.581-.83H85.28c.1.672.622,1.079,1,1.593a6.53,6.53,0,0,1,.481,1.1,1.742,1.742,0,0,0,.73.83C87.537,146.091,87.612,146.041,87.587,145.983Z" transform="translate(-51.163 -126.202)" fill="#263238"/>
        <path id="Path_27021" data-name="Path 27021" d="M87.989,143.025c-.249-.216-.506-.407-.738-.647a7.313,7.313,0,0,1-.606-.755c-.191-.257-.34-.531-.523-.83s-.456-.589-.655-.913c0,0-.083,0-.058.05.207.324.348.7.539,1.029a8.224,8.224,0,0,0,.564.83,5.293,5.293,0,0,0,.647.714,2.331,2.331,0,0,0,.83.514S88.006,143.041,87.989,143.025Z" transform="translate(-51.184 -125.749)" fill="#263238"/>
        <path id="Path_27022" data-name="Path 27022" d="M88.543,140.394a6.156,6.156,0,0,1-1.411-1.17c-.4-.448-.78-.921-1.145-1.394h-.058a7.218,7.218,0,0,0,1.021,1.56,3.626,3.626,0,0,0,.672.614,5.042,5.042,0,0,0,.855.456S88.584,140.46,88.543,140.394Z" transform="translate(-51.273 -125.4)" fill="#263238"/>
        <path id="Path_27023" data-name="Path 27023" d="M89.212,137.732a2.182,2.182,0,0,1-.672-.5q-.349-.324-.672-.672c-.216-.224-.431-.431-.639-.655a2.216,2.216,0,0,1-.523-.747H86.64a2.033,2.033,0,0,0,.39.83,5.811,5.811,0,0,0,.631.83,8.054,8.054,0,0,0,.738.672,1.485,1.485,0,0,0,.788.373.068.068,0,1,0,.025-.133Z" transform="translate(-51.394 -124.945)" fill="#263238"/>
        <path id="Path_27024" data-name="Path 27024" d="M89.578,134.642q-.365-.249-.7-.523c-.216-.191-.431-.382-.639-.581s-.448-.415-.655-.639c0,0-.083,0-.058.042a5.26,5.26,0,0,0,.539.738,6.537,6.537,0,0,0,.639.631,6.441,6.441,0,0,0,.714.539,2.165,2.165,0,0,0,.83.39.05.05,0,0,0,0-.083A4.58,4.58,0,0,0,89.578,134.642Z" transform="translate(-51.545 -124.561)" fill="#263238"/>
        <path id="Path_27025" data-name="Path 27025" d="M93.479,130.357a9.814,9.814,0,0,0-.83-.68c-.307-.216-.589-.407-.9-.589a9.368,9.368,0,0,0-1.892-.888s-.075.041,0,.066c1.178.73,2.4,1.411,3.576,2.157a.041.041,0,0,0,.05-.066Z" transform="translate(-51.936 -123.76)" fill="#263238"/>
        <path id="Path_27026" data-name="Path 27026" d="M94.878,127.994a5.113,5.113,0,0,0-.83-.589,9.568,9.568,0,0,0-2.058-.755c-.05,0-.075.05,0,.066.639.29,1.278.573,1.892.9.3.166.606.332.888.523s.523.448.83.655h0a2.655,2.655,0,0,0-.722-.8Z" transform="translate(-52.298 -123.496)" fill="#263238"/>
        <path id="Path_27027" data-name="Path 27027" d="M96.993,126.614a4.7,4.7,0,0,0-.83-.6,5.65,5.65,0,0,0-1.759-.7s-.058.058,0,.075a10.24,10.24,0,0,1,1.659.83c.266.166.531.348.83.531s.506.415.78.564h0a5.153,5.153,0,0,0-.68-.705Z" transform="translate(-52.712 -123.27)" fill="#263238"/>
        <path id="Path_27028" data-name="Path 27028" d="M98.579,125.148a8.6,8.6,0,0,0-.83-.423,3,3,0,0,0-.83-.315v.075l1.51.888a7.841,7.841,0,0,1,1.228,1.054h0a2.821,2.821,0,0,0-1.079-1.278Z" transform="translate(-53.145 -123.115)" fill="#263238"/>
        <path id="Path_27029" data-name="Path 27029" d="M100.51,124.419a4.68,4.68,0,0,0-1.618-.689c-.041,0-.058.058,0,.075a5.559,5.559,0,0,1,1.5.83,7.833,7.833,0,0,1,1.261,1.145h.041a3.75,3.75,0,0,0-1.186-1.361Z" transform="translate(-53.474 -122.999)" fill="#263238"/>
        <path id="Path_27030" data-name="Path 27030" d="M103.2,125.013a2.877,2.877,0,0,0-.249-.307,3.891,3.891,0,0,0-.581-.523,8.189,8.189,0,0,0-1.4-.763v.066a6.362,6.362,0,0,1,1.328.83,4.775,4.775,0,0,1,.564.514,2.628,2.628,0,0,1,.249.282,1.908,1.908,0,0,0,.232.282h.058a1.328,1.328,0,0,0-.2-.382Z" transform="translate(-53.835 -122.946)" fill="#263238"/>
        <path id="Path_27031" data-name="Path 27031" d="M104.949,125a5.952,5.952,0,0,0-.481-.431,4.627,4.627,0,0,0-.531-.365c-.191-.116-.382-.224-.564-.348,0,0-.083.041,0,.066a3.642,3.642,0,0,1,.548.39l.481.4.49.4a4.78,4.78,0,0,0,.49.415h0a2.979,2.979,0,0,0-.431-.523Z" transform="translate(-54.237 -123.02)" fill="#263238"/>
      </g>
      <g id="freepik--speech-bubble--inject-304" transform="translate(63.291 36.118)">
        <path id="Path_27032" data-name="Path 27032" d="M158.393,102.224a18.03,18.03,0,0,1-30.135,11.409l-9.027,1.328,4.514-7.8a18.038,18.038,0,1,1,34.649-4.978Z" transform="translate(-118.624 -82.153)" fill="#fff"/>
        <path id="Path_27033" data-name="Path 27033" d="M158.269,102.191a18.146,18.146,0,0,1-3.642,9.127,16.288,16.288,0,0,1-3.535,3.493,17.507,17.507,0,0,1-4.356,2.423,18.1,18.1,0,0,1-4.854,1.162,19.435,19.435,0,0,1-2.489.05,16.9,16.9,0,0,1-2.489-.266,18.163,18.163,0,0,1-8.919-4.406l.207.066-9.036,1.369-.656.1.332-.573,4.489-7.824v.315a18.254,18.254,0,0,1,1.087-16.08,18.486,18.486,0,0,1,5.65-6.015,18.254,18.254,0,0,1,28.21,17.026Zm0,0a17.886,17.886,0,0,0-27.92-16.578,18.619,18.619,0,0,0-5.4,5.891,17.88,17.88,0,0,0-2.29,7.625A18.2,18.2,0,0,0,123.926,107l.066.158-.083.149-4.547,7.783-.315-.473,9.027-1.269h.124l.091.083a17.748,17.748,0,0,0,8.637,4.447,15.176,15.176,0,0,0,2.489.3,17.422,17.422,0,0,0,2.489,0,17.781,17.781,0,0,0,4.821-1.062,16.7,16.7,0,0,0,4.348-2.348,19.326,19.326,0,0,0,1.908-1.585,20.651,20.651,0,0,0,1.659-1.867,18.129,18.129,0,0,0,3.629-9.125Z" transform="translate(-118.5 -82.12)" fill="#263238"/>
        <path id="Path_27034" data-name="Path 27034" d="M140.68,112.251l-7.7-7.8,2.589-2.556,4.5,4.555,9.351-14.661,3.07,1.958Z" transform="translate(-120.966 -83.767)" fill="#00a0ad"/>
      </g>
    </g>
  </g>
</svg>
