<svg id="Layer_2" data-name="Layer 2" xmlns="http://www.w3.org/2000/svg" width="96" height="96" viewBox="0 0 96 96">
  <g id="ICONS">
    <g id="tax_optimization">
      <rect id="Rectangle_8161" data-name="Rectangle 8161" width="96" height="96" fill="none"/>
      <path id="Path_26851" data-name="Path 26851" d="M53.74,28h-28a6,6,0,1,1,0-12h28a6,6,0,0,1,0,12Zm-28-8a2,2,0,1,0,0,4h28a2,2,0,0,0,0-4Z" fill="#e27e28"/>
      <path id="Path_26852" data-name="Path 26852" d="M49.74,20a2,2,0,0,1-1.25-3.56L59.58,7.56A2,2,0,0,0,58.33,4H21.14a2,2,0,0,0-1.89,1.34,1.94,1.94,0,0,0,.64,2.22L31,16.44a2,2,0,1,1-2.5,3.12L17.4,10.69A5.93,5.93,0,0,1,15.48,4a5.94,5.94,0,0,1,5.66-4h37.2A5.94,5.94,0,0,1,64,4a5.93,5.93,0,0,1-1.91,6.68L51,19.56A2,2,0,0,1,49.74,20Z" fill="#e27e28"/>
      <path id="Path_26853" data-name="Path 26853" d="M64.67,36.37a2,2,0,0,1-3.54,1.27A37.23,37.23,0,0,0,50.86,28H28.61C16.49,35.42,7.73,53,7.73,70c0,10.15,4.72,22,18,22h18a2,2,0,0,1,0,4h-18c-15.19,0-22-13.06-22-26,0-18.57,9.81-37.8,23.31-45.73a2,2,0,0,1,1-.27H51.41a2,2,0,0,1,1,.27A40.71,40.71,0,0,1,64.19,35.06a1.33,1.33,0,0,1,.14.19,2,2,0,0,1,.34,1.12Z" fill="#e27e28"/>
      <path id="Path_26854" data-name="Path 26854" d="M67.62,79a10,10,0,1,1,10-10A10,10,0,0,1,67.62,79Zm0-16a6,6,0,1,0,6,6A6,6,0,0,0,67.62,63Z" fill="#e27e28"/>
      <path id="Path_26855" data-name="Path 26855" d="M70.81,95H64.43a4,4,0,0,1-4-3.6l-.51-5.09a18.77,18.77,0,0,1-3.46-2l-4.67,2.11a4,4,0,0,1-5.11-1.65l-3.19-5.52A4,4,0,0,1,44.64,74l4.12-3a14.79,14.79,0,0,1,0-4.06l-4.12-3a4,4,0,0,1-1.13-5.25l3.19-5.52a4,4,0,0,1,5.11-1.65l4.67,2.11a18.771,18.771,0,0,1,3.46-2l.51-5.09a4,4,0,0,1,4-3.6h6.38a4,4,0,0,1,4,3.61l.51,5.08a19.36,19.36,0,0,1,3.46,2l4.67-2.1a4,4,0,0,1,5.11,1.64l3.19,5.53A4,4,0,0,1,90.6,64l-4.12,3a14.72,14.72,0,0,1,0,4l4.12,3a4,4,0,0,1,1.13,5.25l-3.19,5.52a4,4,0,0,1-5.11,1.65L78.76,84.3a18.77,18.77,0,0,1-3.46,2l-.51,5.09a4,4,0,0,1-4,3.6ZM56.76,80a2,2,0,0,1,1.29.47A15,15,0,0,0,62.5,83a2,2,0,0,1,1.3,1.68L64.43,91h6.38l.63-6.28A2,2,0,0,1,72.75,83a15.28,15.28,0,0,0,4.45-2.59,2,2,0,0,1,2.1-.29l5.78,2.61,3.19-5.53-5.12-3.67a2,2,0,0,1-.8-2,12.56,12.56,0,0,0,0-5.18,2,2,0,0,1,.8-2l5.12-3.67-3.19-5.52-5.78,2.6a2,2,0,0,1-2.11-.29A14.66,14.66,0,0,0,72.74,55a2,2,0,0,1-1.3-1.68L70.81,47H64.43l-.63,6.28A2,2,0,0,1,62.5,55a15,15,0,0,0-4.45,2.59,2,2,0,0,1-2.11.29l-5.77-2.61L47,60.76l5.11,3.67a2,2,0,0,1,.8,2,13,13,0,0,0,0,5.18,2,2,0,0,1-.8,2L47,77.23l3.19,5.52,5.77-2.6a2.15,2.15,0,0,1,.82-.17Z" fill="#e27e28"/>
    </g>
  </g>
</svg>
