<svg xmlns="http://www.w3.org/2000/svg" width="32" height="32" viewBox="0 0 32 32">
  <g id="linkedin" transform="translate(0 0.001)">
    <circle id="Ellipse_97" data-name="Ellipse 97" cx="16" cy="16" r="16" transform="translate(0 -0.001)" fill="#465a65"/>
    <g id="Group_3372" data-name="Group 3372" transform="translate(7.72 6.836)">
      <path id="Path_594" data-name="Path 594" d="M44.908,34.42v6.6H41.083V34.862c0-1.545-.552-2.6-1.937-2.6a2.092,2.092,0,0,0-1.962,1.4,2.618,2.618,0,0,0-.127.932v6.424H33.233s.051-10.423,0-11.5h3.825v1.63c-.008.013-.019.025-.025.038h.025v-.038a3.8,3.8,0,0,1,3.447-1.9c2.516,0,4.4,1.644,4.4,5.176ZM29.232,23.969a1.993,1.993,0,1,0-.05,3.975h.025a1.994,1.994,0,1,0,.025-3.975ZM27.3,41.016h3.823v-11.5H27.3Z" transform="translate(-27.068 -23.969)" fill="#f1f2f2"/>
    </g>
  </g>
</svg>
