<svg id="linked_profiles" xmlns="http://www.w3.org/2000/svg" width="32" height="32" viewBox="0 0 32 32">
  <rect id="icon_container" width="32" height="32" fill="none"/>
  <path id="users" d="M7.5,13A4.5,4.5,0,1,1,12,8.5,4.5,4.5,0,0,1,7.5,13Zm0-7A2.5,2.5,0,1,0,10,8.5,2.5,2.5,0,0,0,7.5,6ZM15,23v-.5a7.5,7.5,0,0,0-15,0V23a1,1,0,0,0,2,0v-.5a5.5,5.5,0,0,1,11,0V23a1,1,0,0,0,2,0Zm9-5a7,7,0,0,0-11.667-5.217,1,1,0,1,0,1.334,1.49A5,5,0,0,1,22,18a1,1,0,0,0,2,0ZM17.5,9A4.5,4.5,0,1,1,22,4.5,4.5,4.5,0,0,1,17.5,9Zm0-7A2.5,2.5,0,1,0,20,4.5,2.5,2.5,0,0,0,17.5,2Z" transform="translate(4 4)" fill="#b4b4b4"/>
</svg>
