<svg id="loan_filter" xmlns="http://www.w3.org/2000/svg" width="40" height="40" viewBox="0 0 40 40">
  <g id="filter_icon" transform="translate(-11938 -5995)">
    <path id="Path_26876" data-name="Path 26876" d="M0,0H40V40H0Z" transform="translate(11938 5995)" fill="none"/>
    <path id="filter" d="M18.732,32a1.385,1.385,0,0,1-.818-.267l-5.456-4a1.323,1.323,0,0,1-.546-1.067V19.173L2.341,8.649A5.109,5.109,0,0,1,1.47,3.068,5.327,5.327,0,0,1,6.319,0h19.37a5.327,5.327,0,0,1,4.847,3.07,5.109,5.109,0,0,1-.873,5.581L20.1,19.173V30.667A1.349,1.349,0,0,1,18.732,32ZM14.64,26l2.728,2V18.667a1.316,1.316,0,0,1,.345-.885l9.914-10.9a2.489,2.489,0,0,0,.423-2.718,2.6,2.6,0,0,0-2.361-1.494H6.319A2.6,2.6,0,0,0,3.959,4.16a2.489,2.489,0,0,0,.421,2.717l9.915,10.9a1.316,1.316,0,0,1,.344.885Z" transform="translate(11941.998 5999)" fill="#e27e2b"/>
  </g>
</svg>
