<svg xmlns="http://www.w3.org/2000/svg" width="34" height="47.146" viewBox="0 0 34 47.146">
  <g id="man_1_" data-name="man (1)" transform="translate(-71.385 0)">
    <g id="Group_16876" data-name="Group 16876" transform="translate(82.976 37.734)">
      <g id="Group_16875" data-name="Group 16875">
        <path id="Path_27215" data-name="Path 27215" d="M232.034,420.966l-1.073-5.39a.728.728,0,0,0-1.428.284l1.069,5.368a1.773,1.773,0,0,1-.253,1.31c-.568.654-1.79.317-4.909.409v-6.861a.728.728,0,1,0-1.456,0v6.861H210.412a.728.728,0,1,0,0,1.456H229.09a2.967,2.967,0,0,0,2.358-.91A3.123,3.123,0,0,0,232.034,420.966Z" transform="translate(-209.684 -414.991)" fill="#b4b4b4"/>
      </g>
    </g>
    <g id="Group_16879" data-name="Group 16879" transform="translate(71.384 0)">
      <g id="Group_16878" data-name="Group 16878" transform="translate(0)">
        <g id="Group_16877" data-name="Group 16877">
          <path id="Path_27216" data-name="Path 27216" d="M103.591,35.608c-.367-1.382-.239-3.173-2.022-4.574-1.018-.8-1.332-.743-7.175-2.471l-1.811-1.228V26.19a9.152,9.152,0,0,0,4.892-8.111v-.128c2.255-.418,3.357-2.694,2.1-4.4,0-.01.037-2.56-.077-3.632C98.343.162,86.108-3.414,79.9,3.843a.69.69,0,1,0,1.036.911A9.876,9.876,0,0,1,97.845,8.632l.011.041A13.339,13.339,0,0,1,98.2,12.5a3.691,3.691,0,0,0-1.339-.275,2.518,2.518,0,0,1-1.139-1.359,3.326,3.326,0,0,1-.194-1.086,1.885,1.885,0,0,0-.675-1.4c-1.438-1.2-2.669.641-10.465-.275L83.349,7.96a1.894,1.894,0,0,0-2.187,1.824,3.529,3.529,0,0,1-.137.908,2.486,2.486,0,0,1-.642,1.109,2.442,2.442,0,0,1-.554.422,3.69,3.69,0,0,0-1.34.276,11.331,11.331,0,0,1,.826-5.2.689.689,0,1,0-1.262-.555,11.222,11.222,0,0,0-.931,4.033c0,.009-.022,2.589-.008,2.775-1.261,1.71-.149,3.981,2.1,4.4a9.1,9.1,0,0,0,4.851,8.216l.018.01v1.168L82.3,28.555c-5.353,1.583-5.819,1.718-5.882,1.742a4.585,4.585,0,0,0-2.979,3.479c-2.1,10.565-2.008,10.111-2.013,10.146a2.589,2.589,0,0,0,2.793,3.224h7.339a.691.691,0,0,0,0-1.382H79.076V39.254a.689.689,0,1,0-1.378,0v6.511H74.219c-1.115,0-1.584-.49-1.431-1.631,2.179-10.626,1.878-10.681,2.778-11.66a3.455,3.455,0,0,1,1.312-.875l5.265-1.557.011,0c1.328,3.7,1.238,3.546,1.368,3.774a1.381,1.381,0,0,0,1.94.484l2.049-.815v5.772a.689.689,0,1,0,1.378,0v-5.8a14.931,14.931,0,0,1,2.486.931,1.385,1.385,0,0,0,1.89-.794l1.261-3.545c6.075,1.8,4.51,1.341,4.773,1.412a3.323,3.323,0,0,1,2.576,2.591l.364,1.832a.689.689,0,1,0,1.351-.27ZM97.475,13.7a1.428,1.428,0,0,1,0,2.833ZM79.214,16.535a1.428,1.428,0,0,1,0-2.833Zm1.919,4.4c-.7-1.772-.541-2.715-.541-7.562a4.117,4.117,0,0,0,1.947-3.565.515.515,0,0,1,.6-.487l.212.032a33.091,33.091,0,0,0,10.2-.032.519.519,0,0,1,.6.546,4.2,4.2,0,0,0,1.4,3.109l0,0a3.8,3.8,0,0,0,.554.4c0,.023,0,4.617,0,4.7a7.756,7.756,0,0,1-11.311,6.909l-.011-.006h0A7.8,7.8,0,0,1,81.133,20.939Zm3.592,12.19c-.02,0,.047.136-1.311-3.662l1.205-.817,2.507,3.5A20.771,20.771,0,0,0,84.725,33.129Zm3.5-1.818-2.762-3.854v-.69a9.2,9.2,0,0,0,2.817.467v-.006h.012v.006a8.817,8.817,0,0,0,2.915-.459v.69Zm3.744,1.815c-.016.014-.041-.04-.187-.094l-2.453-.893,2.717-3.5,1.226.831Z" transform="translate(-71.384 0)" fill="#b4b4b4"/>
          <path id="Path_27217" data-name="Path 27217" d="M188.545,326.245Z" transform="translate(-177.785 -296.203)" fill="#b4b4b4"/>
        </g>
      </g>
    </g>
  </g>
</svg>
