<svg xmlns="http://www.w3.org/2000/svg" xmlns:xlink="http://www.w3.org/1999/xlink" width="350" height="329.71" viewBox="0 0 350 329.71">
  <defs>
    <linearGradient id="linear-gradient" x1="1.077" y1="-0.073" x2="0.097" y2="0.96" gradientUnits="objectBoundingBox">
      <stop offset="0" stop-color="#cb7124"/>
      <stop offset="0.501" stop-color="#e2995b"/>
      <stop offset="1" stop-color="#eec39e"/>
    </linearGradient>
  </defs>
  <g id="Group_16208" data-name="Group 16208" transform="translate(0 -0.398)">
    <g id="Going_up-cuate" data-name="Going up-cuate" transform="translate(5.071 0)">
      <g id="freepik--Shadow--inject-99" transform="translate(24.42 316.164)">
        <ellipse id="Ellipse_508" data-name="Ellipse 508" cx="145.981" cy="6.773" rx="145.981" ry="6.773" fill="#ebebeb"/>
      </g>
      <g id="freepik--Arrows--inject-99" transform="translate(166.347 161.577)">
        <rect id="Rectangle_8071" data-name="Rectangle 8071" width="14.036" height="54.768" transform="translate(4.681 68.41)" fill="#455a64"/>
        <rect id="Rectangle_8072" data-name="Rectangle 8072" width="14.036" height="9.017" transform="translate(4.681 125.88)" fill="#455a64"/>
        <rect id="Rectangle_8073" data-name="Rectangle 8073" width="14.036" height="5.558" transform="translate(4.681 137.607)" fill="#455a64"/>
        <rect id="Rectangle_8074" data-name="Rectangle 8074" width="14.036" height="2.759" transform="translate(4.681 145.876)" fill="#455a64"/>
        <path id="Path_26076" data-name="Path 26076" d="M268.358,334.172h-23.4l11.7-16.191Z" transform="translate(-244.96 -265.762)" fill="#455a64"/>
        <rect id="Rectangle_8075" data-name="Rectangle 8075" width="14.036" height="72.174" transform="translate(32.624 51.004)" fill="#455a64"/>
        <rect id="Rectangle_8076" data-name="Rectangle 8076" width="14.036" height="9.017" transform="translate(32.624 125.88)" fill="#455a64"/>
        <rect id="Rectangle_8077" data-name="Rectangle 8077" width="14.036" height="5.558" transform="translate(32.624 137.607)" fill="#455a64"/>
        <rect id="Rectangle_8078" data-name="Rectangle 8078" width="14.036" height="2.759" transform="translate(32.624 145.876)" fill="#455a64"/>
        <path id="Path_26077" data-name="Path 26077" d="M303.1,312.523H279.7l11.7-16.183Z" transform="translate(-251.757 -261.528)" fill="#455a64"/>
        <rect id="Rectangle_8079" data-name="Rectangle 8079" width="14.036" height="89.58" transform="translate(60.567 33.598)" fill="#455a64"/>
        <rect id="Rectangle_8080" data-name="Rectangle 8080" width="14.036" height="9.017" transform="translate(60.567 125.88)" fill="#455a64"/>
        <rect id="Rectangle_8081" data-name="Rectangle 8081" width="14.036" height="5.558" transform="translate(60.567 137.607)" fill="#455a64"/>
        <rect id="Rectangle_8082" data-name="Rectangle 8082" width="14.036" height="2.759" transform="translate(60.567 145.876)" fill="#455a64"/>
        <path id="Path_26078" data-name="Path 26078" d="M337.83,290.884H314.44l11.7-16.184Z" transform="translate(-258.554 -257.294)" fill="#455a64"/>
        <rect id="Rectangle_8083" data-name="Rectangle 8083" width="14.036" height="106.986" transform="translate(88.502 16.191)" fill="#455a64"/>
        <rect id="Rectangle_8084" data-name="Rectangle 8084" width="14.036" height="9.017" transform="translate(88.502 125.88)" fill="#455a64"/>
        <rect id="Rectangle_8085" data-name="Rectangle 8085" width="14.036" height="5.558" transform="translate(88.502 137.607)" fill="#455a64"/>
        <rect id="Rectangle_8086" data-name="Rectangle 8086" width="14.036" height="2.759" transform="translate(88.502 145.876)" fill="#455a64"/>
        <path id="Path_26079" data-name="Path 26079" d="M372.57,269.251H349.18l11.7-16.191Z" transform="translate(-265.351 -253.06)" fill="#455a64"/>
      </g>
      <g id="freepik--Floor--inject-99" transform="translate(0 309.81)">
        <path id="Path_26080" data-name="Path 26080" d="M38.15,437.752l42.6-.2,42.6-.064,85.2-.137,85.2.129,42.6.072,42.606.2-42.606.193-42.6.072-85.2.137-85.2-.137-42.6-.072Z" transform="translate(-38.15 -437.35)" fill="#263238"/>
      </g>
      <g id="freepik--Stairs--inject-99" transform="translate(4.601 35.834)">
        <path id="Path_26081" data-name="Path 26081" d="M334.361,168.806,76.874,378.033H43.88V341.346h36.5V311.682H116.89V282.026h36.5V252.362h36.5V222.7H226.41V193.033h36.5V163.369l36.5-29.656V133.7l1.955-1.585Z" transform="translate(-43.872 -103.654)" fill="url(#linear-gradient)"/>
        <path id="Path_26082" data-name="Path 26082" d="M334.361,168.806,76.874,378.033H43.88V341.346h36.5V311.682H116.89V282.026h36.5V252.362h36.5V222.7H226.41V193.033h36.5V163.369l36.5-29.656V133.7l1.955-1.585Z" transform="translate(-43.872 -103.654)" opacity="0.1"/>
        <path id="Path_26083" data-name="Path 26083" d="M377.964,199.517l-19.6-46.29L311.79,128.381l116.1-31.651Z" transform="translate(-96.29 -96.73)" fill="#e27e28"/>
        <g id="Group_16106" data-name="Group 16106" transform="translate(215.5 0)" opacity="0.1">
          <path id="Path_26084" data-name="Path 26084" d="M377.964,199.517l-19.6-46.29L311.79,128.381l116.1-31.651Z" transform="translate(-311.79 -96.73)"/>
        </g>
        <g id="Group_16107" data-name="Group 16107" transform="translate(0 49.507)" opacity="0.1">
          <rect id="Rectangle_8087" data-name="Rectangle 8087" width="12.54" height="29.656" transform="translate(36.509 158.52)"/>
          <rect id="Rectangle_8088" data-name="Rectangle 8088" width="12.54" height="29.656" transform="translate(73.019 128.864)"/>
          <rect id="Rectangle_8089" data-name="Rectangle 8089" width="12.54" height="29.656" transform="translate(109.528 99.2)"/>
          <rect id="Rectangle_8090" data-name="Rectangle 8090" width="12.54" height="29.656" transform="translate(146.037 69.544)"/>
          <rect id="Rectangle_8091" data-name="Rectangle 8091" width="12.54" height="29.656" transform="translate(182.546 39.888)"/>
          <path id="Path_26085" data-name="Path 26085" d="M328.76,198.168H316.22V168.5l12.54-10.223Z" transform="translate(-97.156 -158.28)"/>
          <rect id="Rectangle_8092" data-name="Rectangle 8092" width="12.54" height="36.694" transform="translate(0 188.177)"/>
        </g>
      </g>
      <g id="freepik--Character--inject-99" transform="translate(15.576 2.093)">
        <path id="Path_26086" data-name="Path 26086" d="M118.423,90.809c-16.634,2.566-33.067,7.77-35.158,12.475-2.807,6.33-1.938,22.683-.708,31.128.362,2.477,19.618-.732,19.232-3.386-.467-3.217-3.137-19.755-3.081-20.109.113-.684,16.368-11.2,20.31-13.618C125.614,93.335,125.807,89.675,118.423,90.809Z" transform="translate(-62.188 -61.79)" fill="#d3766a"/>
        <path id="Path_26087" data-name="Path 26087" d="M85.374,156.208c-1.979-3.692-2.992-12.789-2.413-15.041s16.023-4.528,17.768-2.839,7.311,14.623,6.5,18.8S87.344,160.037,85.374,156.208Z" transform="translate(-62.462 -71.014)" fill="#d3766a"/>
        <path id="Path_26088" data-name="Path 26088" d="M107.82,152.549c-1.89-1.142-2.156,1.745-2.156,1.745s-.619-4.247-3.024-4.665-2.518,3.089-2.534,3.338c0-.225-.708-4.1-3.169-4.279s-2.148,3.362-2.123,3.587c-.1-.2-1.456-2.839-3.354-2.55-3.266.507,0,7.344-.973,9.829,0,0-4.4-1.2-4.536-1.207,0,0,2.992,6.571,6.435,7.722a2.3,2.3,0,0,0,2.727-.957s.732,2.228,2.662,2.413c1,.1,2.035-1.4,2.035-1.4a2.88,2.88,0,0,0,2.413,1.826,2.78,2.78,0,0,0,2.212-1.448s1.416,1.391,2.847,1C110.121,166.722,111.866,155,107.82,152.549Z" transform="translate(-63.079 -73.154)" fill="#d3766a"/>
        <path id="Path_26089" data-name="Path 26089" d="M109.1,167.6s.04.056.056,0a20.591,20.591,0,0,0,1.07-12.186c0-.129-.257-.129-.249,0A42.269,42.269,0,0,1,109.1,167.6Z" transform="translate(-67.608 -74.453)" fill="#263238"/>
        <path id="Path_26090" data-name="Path 26090" d="M103.18,167.182c0,.04.064.064.08,0a19.3,19.3,0,0,0,.346-13.368c-.056-.145-.257-.225-.209-.048C104.266,156.782,104.065,163.45,103.18,167.182Z" transform="translate(-66.45 -74.129)" fill="#263238"/>
        <path id="Path_26091" data-name="Path 26091" d="M96.7,152.8a26.444,26.444,0,0,1,.571,12.95c0,.056.072.064.1,0a17.418,17.418,0,0,0,1.07-7.126,11.8,11.8,0,0,0-1.609-5.888C96.8,152.677,96.667,152.709,96.7,152.8Z" transform="translate(-65.181 -73.941)" fill="#263238"/>
        <path id="Path_26092" data-name="Path 26092" d="M106.6,154.179a13.837,13.837,0,0,0-.8-2.341,4.569,4.569,0,0,0-1.424-1.89,1.488,1.488,0,0,0-1.03-.249,2.147,2.147,0,0,0-1.013.418,2.606,2.606,0,0,0-.877,1.963l-.08,1.81-.555-1.721a7.279,7.279,0,0,0-1.078-2.148,2.671,2.671,0,0,0-1.81-1.2,1.52,1.52,0,0,0-1.609.973,4.633,4.633,0,0,0-.185,2.284l.29,2.123-.965-1.9a7.293,7.293,0,0,0-1-1.472,2.887,2.887,0,0,0-1.375-.925,1.359,1.359,0,0,0-1.375.426,2.968,2.968,0,0,0-.475,1.609,24.211,24.211,0,0,0,.233,3.716c.064.627.129,1.255.169,1.882a4.456,4.456,0,0,1-.185,1.874,4.825,4.825,0,0,0,0-1.858c-.08-.619-.193-1.239-.306-1.85a19.667,19.667,0,0,1-.434-3.788,3.459,3.459,0,0,1,.507-1.955,1.938,1.938,0,0,1,2-.708,3.539,3.539,0,0,1,1.745,1.126,7.344,7.344,0,0,1,1.142,1.609l-.676.225a5.26,5.26,0,0,1,.193-2.7,2.212,2.212,0,0,1,.965-1.134,2.469,2.469,0,0,1,1.44-.273,3.362,3.362,0,0,1,2.3,1.5,7.77,7.77,0,0,1,1.15,2.413l-.635.08a3.153,3.153,0,0,1,1.215-2.373,2.678,2.678,0,0,1,1.279-.458,1.914,1.914,0,0,1,1.279.362,4.609,4.609,0,0,1,1.4,2.131,11.335,11.335,0,0,1,.579,2.421Z" transform="translate(-64.009 -73.039)" fill="#263238"/>
        <path id="Path_26093" data-name="Path 26093" d="M105.467,141s13.73,11.156,6.74,14.39c-2.083.957-11.76,2.413-12.065.483-.426-2.5,3.5-3.869,6.1-4.335,0,0-5.2-3.137-4.094-7.408A4.392,4.392,0,0,1,105.467,141Z" transform="translate(-65.849 -71.651)" fill="#d3766a"/>
        <path id="Path_26094" data-name="Path 26094" d="M112.658,156.028a9.257,9.257,0,0,1-2.477,1.062,19.908,19.908,0,0,1-2.646.579,31.052,31.052,0,0,1-5.413.426,4.974,4.974,0,0,1-1.416-.217,1.9,1.9,0,0,1-.716-.41,1.3,1.3,0,0,1-.282-.354,1.61,1.61,0,0,1-.145-.426,2.26,2.26,0,0,1,.322-1.544,4.337,4.337,0,0,1,1.005-1.086,8.043,8.043,0,0,1,2.5-1.239,17.97,17.97,0,0,1,2.654-.644l-.1.579a10.729,10.729,0,0,1-1.609-1.3A10.341,10.341,0,0,1,103,149.9a7.013,7.013,0,0,1-.893-1.85,5.373,5.373,0,0,1-.233-2.019,5.92,5.92,0,0,0,.442,1.947,7.326,7.326,0,0,0,1.005,1.689,9.9,9.9,0,0,0,1.367,1.416,10.267,10.267,0,0,0,1.609,1.134l.7.394-.8.185a19.416,19.416,0,0,0-2.542.692,8.156,8.156,0,0,0-2.268,1.158,2.236,2.236,0,0,0-1.046,1.906c.056.611,1.021.8,1.858.8a26.411,26.411,0,0,0,2.646,0,24.522,24.522,0,0,0,2.662-.177,16.891,16.891,0,0,0,5.156-1.15Z" transform="translate(-65.737 -72.635)" fill="#263238"/>
        <path id="Path_26095" data-name="Path 26095" d="M102.23,130.36l-21.645-.314s-1.609-22.956,3.1-28.064c3.153-3.418,19.988-9.789,31.611-11.261s11.494,2.212,1.408,8.534S99.19,110.806,99.19,111.128,102.23,130.36,102.23,130.36Z" transform="translate(-61.977 -61.751)" fill="#00a3b1"/>
        <path id="Path_26096" data-name="Path 26096" d="M99.461,109.826a4.673,4.673,0,0,1,0-3.1,4.545,4.545,0,0,1,0,3.1ZM81.347,117.87a4.086,4.086,0,0,0-.273-1.552,4.545,4.545,0,0,0,0,3.1,4.022,4.022,0,0,0,.233-1.568ZM108.2,105.636a3.338,3.338,0,0,0,.6.177l.668-.442a3.9,3.9,0,0,0-1.3.249ZM97.547,119.8a4.173,4.173,0,0,0,1.544-.273,4.022,4.022,0,0,0-1.544-.273,4.215,4.215,0,0,0-1.552.273,4.391,4.391,0,0,0,1.512.257ZM84.46,105.893A4.023,4.023,0,0,0,86,105.62a4.022,4.022,0,0,0-1.544-.273,4.191,4.191,0,0,0-1.552.273,4.36,4.36,0,0,0,1.552.273Zm2.413,19.642a4.022,4.022,0,0,0-1.287-.9,4.134,4.134,0,0,0,.909,1.287,4.255,4.255,0,0,0,1.287.9A4.134,4.134,0,0,0,86.873,125.535Zm6.877-24.6a4.23,4.23,0,0,0-1.287-.909,4.022,4.022,0,0,0,.9,1.287,4.134,4.134,0,0,0,1.287.909,4.255,4.255,0,0,0-.9-1.287Zm24.533-2.759a3.828,3.828,0,0,0,.668,1.038c.153-.1.3-.2.434-.306a3.932,3.932,0,0,0-1.1-.732ZM94.458,130.586a4.465,4.465,0,0,0-.8,1.046H94a5.186,5.186,0,0,0,.8-.668,4.078,4.078,0,0,0,.9-1.287,4.214,4.214,0,0,0-1.247.909Zm11.011-32.126a4.175,4.175,0,0,0-.909,1.3,4.641,4.641,0,0,0,2.2-2.2,4.256,4.256,0,0,0-1.287.9ZM89.382,113.526a4.021,4.021,0,0,0-.9,1.287,4.52,4.52,0,0,0,2.188-2.188,4.119,4.119,0,0,0-1.295.9Z" transform="translate(-62.071 -63.152)" fill="#fff"/>
        <path id="Path_26097" data-name="Path 26097" d="M100.58,134.891c.064,0,.064-.1,0-.113A174.458,174.458,0,0,0,82.458,134c-.064,0-.064.1,0,.113A172.369,172.369,0,0,0,100.58,134.891Z" transform="translate(-62.386 -70.28)" fill="#263238"/>
        <path id="Path_26098" data-name="Path 26098" d="M116.7,99.251c-10.095,6.314-17.511,11.55-17.511,11.872s3.04,19.256,3.04,19.256l-21.645-.314s-.29-4.11-.265-9.234L121.575,90.5C126.3,91.119,124.406,94.425,116.7,99.251Z" transform="translate(-61.977 -61.771)" opacity="0.1"/>
        <path id="Path_26099" data-name="Path 26099" d="M181.473,309.361c-1.48.491-43.636.161-45.236-.877-.611-.378,3.917-37.8,3.917-37.8l27.131.257-4.947,23.752s16.087,7.344,17.7,8.663S182.945,308.886,181.473,309.361Z" transform="translate(-72.906 -97.024)" fill="#d3766a"/>
        <path id="Path_26100" data-name="Path 26100" d="M181.473,314.088c-1.48.491-43.636.161-45.236-.877-.3-.185.627-9.194,1.649-18.371h25.4l-.949,4.544s16.087,7.344,17.7,8.663S182.945,313.613,181.473,314.088Z" transform="translate(-72.906 -101.751)" fill="#ebebeb"/>
        <path id="Path_26101" data-name="Path 26101" d="M182.016,315.277c-1.5.507-44.456.491-46.089-.555-.627-.386,1.142-14.583,1.142-14.663l25.361-.088v.475s16.441,7.36,18.114,8.695S183.52,314.77,182.016,315.277Z" transform="translate(-72.83 -102.754)" fill="#e27e28"/>
        <path id="Path_26102" data-name="Path 26102" d="M182.036,316.887c-7.239-.177-36.461-.225-43.636.145-.056,0-.056,0,0,.048,7.175.33,36.4.145,43.636-.072C182.188,317,182.188,316.9,182.036,316.887Z" transform="translate(-73.332 -106.038)" fill="#263238"/>
        <path id="Path_26103" data-name="Path 26103" d="M170.661,300.01c-2.847-.531-6.33-.1-8.51,1.931-.089.08,0,.2.121.169a40.114,40.114,0,0,1,8.381-1.737.185.185,0,0,0,.008-.362Z" transform="translate(-77.981 -102.722)" fill="#263238"/>
        <path id="Path_26104" data-name="Path 26104" d="M173.22,301.55c-2.855-.531-6.338-.1-8.518,1.93-.08.08,0,.2.121.169a40.215,40.215,0,0,1,8.381-1.737.185.185,0,0,0,.016-.362Z" transform="translate(-78.48 -103.023)" fill="#263238"/>
        <path id="Path_26105" data-name="Path 26105" d="M175.771,303.1c-2.847-.539-6.33-.1-8.51,1.93-.088.072,0,.193.121.169a40.226,40.226,0,0,1,8.381-1.745.177.177,0,1,0,.008-.354Z" transform="translate(-78.98 -103.325)" fill="#263238"/>
        <path id="Path_26106" data-name="Path 26106" d="M156.813,269.512l-28.442-.153s8.373-58.918,7.649-61.347c-.29-.941-31.1-30.847-31.1-30.847-12.274-12.105-8.59-31.635-8.59-31.635h35.391s-1.609,8.631.217,10.513c2.236,2.284,28.956,31.112,32.431,40.3C169.047,208.647,156.813,269.512,156.813,269.512Z" transform="translate(-65.009 -72.538)" fill="#37474f"/>
        <path id="Path_26107" data-name="Path 26107" d="M164.933,292.4c-4.376-.281-3.113-.273-7.5-.5-2.14-.1-16.216-.8-18.234-.475-.04,0-.048.1,0,.113,1.987.483,16.087.877,18.218.933,4.376.121,3.121,0,7.5.089C165.005,292.563,165.013,292.41,164.933,292.4Z" transform="translate(-73.491 -101.066)" fill="#263238"/>
        <path id="Path_26108" data-name="Path 26108" d="M133.488,157.643,120.1,191.933c-7.633-7.488-15.13-14.768-15.13-14.768-12.274-12.105-8.59-31.635-8.59-31.635h35.391s-1.609,8.631.217,10.513C132.218,156.292,132.74,156.839,133.488,157.643Z" transform="translate(-65.019 -72.538)" fill="#263238"/>
        <path id="Path_26109" data-name="Path 26109" d="M102.309,343.311c-1.536.185-42.775-8.607-44.134-9.942-.523-.5.41-6.58,1.745-13.9v-.225c.273-1.512,7.537-26.745,7.537-26.745l26.873,6.33-7.738,25.787-.113.451s14.285,10.456,15.62,12.065S103.853,343.142,102.309,343.311Z" transform="translate(-57.615 -101.293)" fill="#d3766a"/>
        <path id="Path_26110" data-name="Path 26110" d="M102.309,348.544c-1.536.185-42.775-8.607-44.134-9.942-.523-.5.41-6.58,1.745-13.9v-.225c.072-.394.627-2.413,1.408-5.228l26.7,5.823-1.432,4.778-.113.451s14.285,10.456,15.62,12.065S103.853,348.375,102.309,348.544Z" transform="translate(-57.615 -106.527)" fill="#ebebeb"/>
        <path id="Path_26111" data-name="Path 26111" d="M102.6,349.889c-1.609.177-43.563-8.848-44.939-10.239-.531-.507.426-6.7,1.81-14.156v-.233L86.628,330.8l-.1.458s14.559,10.682,15.918,12.29S104.171,349.712,102.6,349.889Z" transform="translate(-57.515 -107.703)" fill="#e27e28"/>
        <path id="Path_26112" data-name="Path 26112" d="M103.016,351.531c-7.038-1.705-35.592-7.9-42.679-9.041-.064,0-.072,0,0,.04,6.942,1.842,35.552,7.8,42.671,9.113C103.145,351.668,103.169,351.563,103.016,351.531Z" transform="translate(-58.057 -111.074)" fill="#263238"/>
        <path id="Path_26113" data-name="Path 26113" d="M95.357,332.821c-2.67-1.118-6.169-1.424-8.727.1-.1.064,0,.2.08.193a40.064,40.064,0,0,1,8.558.064.185.185,0,0,0,.088-.354Z" transform="translate(-63.204 -108.997)" fill="#263238"/>
        <path id="Path_26114" data-name="Path 26114" d="M97.527,334.869c-2.67-1.126-6.169-1.432-8.727.1-.1.056,0,.2.088.193a40.072,40.072,0,0,1,8.558.056.178.178,0,1,0,.08-.346Z" transform="translate(-63.628 -109.397)" fill="#263238"/>
        <path id="Path_26115" data-name="Path 26115" d="M99.706,336.911c-2.67-1.118-6.169-1.424-8.727.1-.1.064,0,.2.08.193a40.049,40.049,0,0,1,8.558.064.185.185,0,0,0,.088-.354Z" transform="translate(-64.054 -109.798)" fill="#263238"/>
        <path id="Path_26116" data-name="Path 26116" d="M117.766,145.53s2.3,19.715-1.77,24.2c0,0-7.239,45.4-9.781,58.476-3.4,17.261-17.084,67.211-17.084,67.211L59,290.328s17.752-64.742,17.9-65.868c.8-6.378,8.043-50.674,7.649-51.776-3.772-11.261,1.673-27.155,1.673-27.155Z" transform="translate(-57.806 -72.538)" fill="#37474f"/>
        <path id="Path_26117" data-name="Path 26117" d="M124.546,145.53s-2.872,20.833-8.55,24.2c0,0-7.239,45.4-9.781,58.476-3.4,17.261-17.084,67.211-17.084,67.211L59,290.328s17.752-64.742,17.9-65.868c.8-6.378,8.043-50.674,7.649-51.776-3.772-11.261,1.673-27.155,1.673-27.155Z" transform="translate(-57.806 -72.538)" fill="#37474f"/>
        <path id="Path_26118" data-name="Path 26118" d="M89.9,322.91c-4.456-.989-3.161-.8-7.625-1.721-2.18-.459-16.537-3.451-18.661-3.459-.048,0-.064.1,0,.113,1.971.8,16.385,3.507,18.572,3.917,4.488.8,3.217.531,7.706,1.311C89.944,323.079,89.976,322.934,89.9,322.91Z" transform="translate(-58.699 -106.229)" fill="#263238"/>
        <path id="Path_26119" data-name="Path 26119" d="M132.755,172.808a58.166,58.166,0,0,0-9.17,4.263.106.106,0,0,0,.088.193c3.089-1.327,6.234-2.6,9.25-4.094a.2.2,0,0,0-.169-.362Z" transform="translate(-70.43 -77.873)" fill="#263238"/>
        <path id="Path_26120" data-name="Path 26120" d="M134.64,146.439c0-.1-.193-.129-.193,0,0,3.668-.209,6.893-.515,10.32-.145,1.609-1.424,10.384-4.183,9.741-.467-.1-.7-.563-.8-1.255a10.78,10.78,0,0,1,.37-2.7c.306-1.834.547-3.684.708-5.542a51.077,51.077,0,0,0-.113-10.4.088.088,0,0,0-.177,0,95.121,95.121,0,0,1-.845,14.358c-.346,2.284-1.5,5.727.9,6.081s4.022-5.405,4.3-6.982A52.818,52.818,0,0,0,134.64,146.439Z" transform="translate(-71.366 -72.698)" fill="#263238"/>
        <path id="Path_26121" data-name="Path 26121" d="M129.977,171.627a14.8,14.8,0,0,0-.619,1.826,4.022,4.022,0,0,0-.257,1.5c0,.1.137.1.185,0a5.029,5.029,0,0,0,.643-1.456c.209-.563.434-1.126.627-1.689a.306.306,0,0,0-.579-.177Z" transform="translate(-71.521 -77.609)" fill="#263238"/>
        <path id="Path_26122" data-name="Path 26122" d="M95.236,158.4c.668-.121,1.609.121,4.553-.08a15.1,15.1,0,0,0,2.413-.394,5.227,5.227,0,0,0,2.212-.893,11.55,11.55,0,0,0,2.526-3.483,18.122,18.122,0,0,0,1.77-4.287c0-.1.153-.048.137.04-.153.8-.241,1.7-.467,2.534a15.868,15.868,0,0,1-.8,2.308,9.306,9.306,0,0,1-2.6,3.829,8.862,8.862,0,0,1-4.721,1.279c-.917.064-4.52,0-5-.547C95.1,158.622,95.108,158.421,95.236,158.4Z" transform="translate(-64.876 -73.258)" fill="#263238"/>
        <path id="Path_26123" data-name="Path 26123" d="M131.935,142.519c-.8.563-39.614-7.987-39.767-8.293-.434-.8,18.9-39.8,29.978-45.261,2.413-1.174,8.357,1.279,9.588,2.992.764,1.078,1.657,7.239,2.164,12.323C134.919,114.383,132.635,142.02,131.935,142.519Z" transform="translate(-64.294 -61.41)" fill="#00a3b1"/>
        <path id="Path_26124" data-name="Path 26124" d="M122.491,111.364a4.544,4.544,0,0,1,0-3.1A4.545,4.545,0,0,1,122.491,111.364ZM131.8,127.5a4.022,4.022,0,0,0-.273-1.552,4.022,4.022,0,0,0-.273,1.552,4.352,4.352,0,0,0,.273,1.544A4.175,4.175,0,0,0,131.8,127.5Zm-21.363-1.375a4.183,4.183,0,0,0-.265-1.552,4.52,4.52,0,0,0,0,3.1,4.167,4.167,0,0,0,.265-1.544Zm2.413-21.371a4.021,4.021,0,0,0,1.544-.273,4.022,4.022,0,0,0-1.544-.273,4.191,4.191,0,0,0-1.552.273,4.359,4.359,0,0,0,1.52.273Zm-1.552,33.179a4.086,4.086,0,0,0,1.552-.273,4.545,4.545,0,0,0-3.1,0,4.021,4.021,0,0,0,1.52.273Zm-9.958-19.787c-.08.161-.169.322-.265.475a3.506,3.506,0,0,0,1.118-.249,3.35,3.35,0,0,0-.885-.225ZM131.782,91.73h0a3.7,3.7,0,0,0-1.223.257,4.021,4.021,0,0,0,1.552.273h.217a6.014,6.014,0,0,0-.579-.531Zm-9.813,29.415a4.087,4.087,0,0,0,1.512-.241,4.545,4.545,0,0,0-3.1,0,4.021,4.021,0,0,0,1.56.241Zm7.424,17.535a4.086,4.086,0,0,0,1.552-.273,4.673,4.673,0,0,0-3.1,0,4.021,4.021,0,0,0,1.52.273Zm-16.811-23.254a4.022,4.022,0,0,0-1.287-.9,4.119,4.119,0,0,0,.9,1.287,4.352,4.352,0,0,0,1.287.9,4.021,4.021,0,0,0-.933-1.287Zm10.095-17.478a4.175,4.175,0,0,0-1.3-.909,4.552,4.552,0,0,0,2.2,2.2A4.255,4.255,0,0,0,122.676,97.948Zm9.2,18.074a4.118,4.118,0,0,0-1.287-.9,4.576,4.576,0,0,0,2.2,2.188,4.134,4.134,0,0,0-.9-1.287Zm-.354-12.371a4.134,4.134,0,0,0-.909,1.287,4.641,4.641,0,0,0,2.2-2.2A4.134,4.134,0,0,0,131.524,103.65Zm-33.943,25.8a4.118,4.118,0,0,0-.9,1.287,4.52,4.52,0,0,0,2.188-2.188,4.214,4.214,0,0,0-1.3.9Zm23.157,1.11a4.021,4.021,0,0,0-.9,1.3,4.135,4.135,0,0,0,1.287-.909,4.254,4.254,0,0,0,.9-1.287A4.255,4.255,0,0,0,120.738,130.556Z" transform="translate(-65.178 -62.011)" fill="#fff"/>
        <path id="Path_26125" data-name="Path 26125" d="M138.757,98.08c-.121,3.853-.314,7.7-.523,11.55s-.467,7.682-.7,11.526-.547,7.69-.869,11.526l-.483,5.759c-.185,1.914-.354,3.837-.563,5.751.056-1.93.153-3.853.225-5.775l.3-5.775c.209-3.845.475-7.681.708-11.526s.547-7.69.861-11.526S138.339,101.917,138.757,98.08Z" transform="translate(-72.797 -63.254)" fill="#263238"/>
        <path id="Path_26126" data-name="Path 26126" d="M141.708,112.816a.724.724,0,1,1-.684-.756A.724.724,0,0,1,141.708,112.816Z" transform="translate(-73.705 -65.989)" fill="#263238"/>
        <path id="Path_26127" data-name="Path 26127" d="M140.9,122.016a.724.724,0,1,1-.189-.522A.724.724,0,0,1,140.9,122.016Z" transform="translate(-73.546 -67.789)" fill="#263238"/>
        <path id="Path_26128" data-name="Path 26128" d="M140.079,131.226a.723.723,0,1,1-.684-.756.716.716,0,0,1,.684.756Z" transform="translate(-73.386 -69.591)" fill="#263238"/>
        <path id="Path_26129" data-name="Path 26129" d="M139.268,140.446a.724.724,0,1,1-.684-.756.716.716,0,0,1,.684.756Z" transform="translate(-73.227 -71.395)" fill="#263238"/>
        <path id="Path_26130" data-name="Path 26130" d="M138.459,149.656a.723.723,0,1,1-.684-.756A.732.732,0,0,1,138.459,149.656Z" transform="translate(-73.069 -73.197)" fill="#263238"/>
        <path id="Path_26131" data-name="Path 26131" d="M135.6,94.825c-2.413-.088-5.373-4.641-6.137-7.891-.048-.217.8-2.18,1.737-4.6.555-1.472,1.142-3.129,1.609-4.673l9.057,5.035a25.512,25.512,0,0,0-2.574,5.687,3.211,3.211,0,0,0-.113.652v.113C138.991,90.417,137.937,94.929,135.6,94.825Z" transform="translate(-71.591 -59.259)" fill="#d3766a"/>
        <path id="Path_26132" data-name="Path 26132" d="M134.082,78c-.233,2.019-.668,9.355,4.915,11.028a8.046,8.046,0,0,0,1.013.225.313.313,0,0,0,0-.113,3.907,3.907,0,0,1,.1-.651A25.74,25.74,0,0,1,142.7,82.8Z" transform="translate(-72.473 -59.325)" fill="#263238"/>
        <path id="Path_26133" data-name="Path 26133" d="M133.35,64.424c-1.343,3.483-.217,13.915,2.148,16.393,3.426,3.6,9.419,4.36,12.564.153,3.057-4.078,1.351-17.647-1.327-19.94C142.793,57.651,135.369,59.284,133.35,64.424Z" transform="translate(-72.24 -55.658)" fill="#d3766a"/>
        <path id="Path_26134" data-name="Path 26134" d="M145.209,74.41a.05.05,0,0,0-.048.064c.088.7.08,1.52-.531,1.818h0C145.41,76.139,145.41,75.053,145.209,74.41Z" transform="translate(-74.56 -58.623)" fill="#263238"/>
        <path id="Path_26135" data-name="Path 26135" d="M144.278,73.57c-1.134,0-.989,2.308.064,2.284S145.235,73.546,144.278,73.57Z" transform="translate(-74.336 -58.458)" fill="#263238"/>
        <path id="Path_26136" data-name="Path 26136" d="M150.195,74.12a.065.065,0,0,1,.064.056c0,.708.161,1.512.8,1.705h0C150.283,75.865,150.106,74.828,150.195,74.12Z" transform="translate(-75.644 -58.566)" fill="#263238"/>
        <path id="Path_26137" data-name="Path 26137" d="M150.783,73.158c1.126-.161,1.359,2.107.314,2.252S149.834,73.287,150.783,73.158Z" transform="translate(-75.645 -58.376)" fill="#263238"/>
        <path id="Path_26138" data-name="Path 26138" d="M143.108,71.948a8.1,8.1,0,0,0,.861-.362,1.5,1.5,0,0,0,.8-.547.491.491,0,0,0-.113-.579,1.215,1.215,0,0,0-1.215,0,1.762,1.762,0,0,0-.965.8.515.515,0,0,0,.627.684Z" transform="translate(-74.132 -57.818)" fill="#263238"/>
        <path id="Path_26139" data-name="Path 26139" d="M151.462,71.3a8.784,8.784,0,0,1-.917-.177,1.5,1.5,0,0,1-.909-.362.491.491,0,0,1,0-.587,1.2,1.2,0,0,1,1.174-.3,1.738,1.738,0,0,1,1.118.6.515.515,0,0,1-.467.82Z" transform="translate(-75.52 -57.727)" fill="#263238"/>
        <path id="Path_26140" data-name="Path 26140" d="M144.777,82.618c.177.153.362.37.619.378a2.116,2.116,0,0,0,.748-.225h0a.973.973,0,0,1-.877.442.748.748,0,0,1-.587-.587S144.744,82.594,144.777,82.618Z" transform="translate(-74.569 -60.227)" fill="#263238"/>
        <path id="Path_26141" data-name="Path 26141" d="M145.546,78.044a2.413,2.413,0,0,0,1.673.965,2.863,2.863,0,0,0,.869,0h.314a.177.177,0,0,0,.129-.169h0a.225.225,0,0,0,0-.072h0V78.7a11.9,11.9,0,0,0-.121-1.359c.2.08,1.239.475,1.206.193a36.342,36.342,0,0,0-1.391-7.239c0-.08-.145-.048-.129,0,.185,2.26.8,4.472,1,6.74a4.1,4.1,0,0,0-1.15-.273c-.08,0,.233,1.609.217,1.826h0a3.33,3.33,0,0,1-2.534-.619C145.554,77.939,145.5,77.988,145.546,78.044Z" transform="translate(-74.735 -57.809)" fill="#263238"/>
        <path id="Path_26142" data-name="Path 26142" d="M147.6,80.763a2.8,2.8,0,0,1-1.158.8,1.319,1.319,0,0,1-.8,0c-.555-.161-.555-.676-.442-1.11a2.855,2.855,0,0,1,.265-.668A3.668,3.668,0,0,0,147.6,80.763Z" transform="translate(-74.659 -59.675)" fill="#263238"/>
        <path id="Path_26143" data-name="Path 26143" d="M146.442,81.73a1.319,1.319,0,0,1-.8,0c-.555-.161-.555-.676-.442-1.11a1.3,1.3,0,0,1,1.247,1.11Z" transform="translate(-74.659 -59.838)" fill="#f291b8"/>
        <path id="Path_26144" data-name="Path 26144" d="M148.359,64.215c-3.322,2.687-8.421-.571-8.421-.571a3.837,3.837,0,0,1-3.684,2.735s-.209,6-1.778,6.113c-2.413.177-3.78-7.875-3.153-9.531a4.263,4.263,0,0,1,2.614-2.22,3.909,3.909,0,0,1,1.44-2.5c1.528-1.375,7.3-.145,7.3-.145a5.34,5.34,0,0,1,1.287-2.067,1.5,1.5,0,0,1,2.148,0,3.483,3.483,0,0,0-.459,1.52c-.145,1.762,1.279,1.609,1.142.064A2.518,2.518,0,0,0,146.107,56c.619-1.086,1.737-1.512,2.477-1.013C149.928,55.939,151.142,61.979,148.359,64.215Z" transform="translate(-71.926 -54.782)" fill="#263238"/>
        <path id="Path_26145" data-name="Path 26145" d="M135.257,75.316s-2.156-3.459-3.716-2.7-.056,5.63,1.681,6.435a1.81,1.81,0,0,0,2.469-.8Z" transform="translate(-71.871 -58.25)" fill="#d3766a"/>
        <path id="Path_26146" data-name="Path 26146" d="M132.28,74.33v.048a4.561,4.561,0,0,1,2.2,2.976A1.005,1.005,0,0,0,133,77v.072a1.11,1.11,0,0,1,1.2.45,5.386,5.386,0,0,1,.539,1.021c.048.113.257.064.217-.064h0C135.087,76.864,133.977,74.579,132.28,74.33Z" transform="translate(-72.143 -58.607)" fill="#263238"/>
        <path id="Path_26147" data-name="Path 26147" d="M138.647,91.217l-1.89,4.649L129.212,88,127,90.276s6.435,12.21,6.531,11.679l3.394-4.947,2.606,3.748.273-7.48Z" transform="translate(-71.11 -61.282)" fill="#00a3b1"/>
        <path id="Path_26148" data-name="Path 26148" d="M139.933,97.089c0-1.464.072-1.609,0-3.032a.048.048,0,0,0-.1,0c-.37,1.392-.354,5.63-.434,6.95h0c-.137-.161-2.413-3.306-2.413-3.266-.571.8-3.217,4.384-3.386,4.713-1.022-1.938-4.947-9.009-6.185-10.851a.049.049,0,1,0-.089.04c.885,2.035,6.073,11.542,6.161,11.526a46.683,46.683,0,0,0,3.523-5.228c.491.668,2.735,4.2,2.759,4.022a45.562,45.562,0,0,0,.161-4.874Z" transform="translate(-71.174 -61.981)" fill="#263238"/>
        <rect id="Rectangle_8093" data-name="Rectangle 8093" width="52.958" height="32.085" transform="matrix(0.772, -0.636, 0.636, 0.772, 80.171, 115.453)" fill="#00a3b1"/>
        <rect id="Rectangle_8094" data-name="Rectangle 8094" width="52.958" height="15.106" transform="matrix(0.772, -0.636, 0.636, 0.772, 80.168, 115.452)" opacity="0.1"/>
        <rect id="Rectangle_8095" data-name="Rectangle 8095" width="55.46" height="14.977" transform="matrix(0.772, -0.636, 0.636, 0.772, 76.197, 112.616)" fill="#00a3b1"/>
        <path id="Path_26149" data-name="Path 26149" d="M178.907,155.44l5.437,6.6-3.1,2.55-3.089-3.748-11.816,9.749,3.089,3.748-3.1,2.558-5.437-6.6Z" transform="translate(-77.741 -74.477)" fill="#263238"/>
        <rect id="Rectangle_8096" data-name="Rectangle 8096" width="3.612" height="7.151" transform="matrix(0.772, -0.636, 0.636, 0.772, 89.327, 116.564)" fill="#263238"/>
        <rect id="Rectangle_8097" data-name="Rectangle 8097" width="3.612" height="7.151" transform="matrix(0.772, -0.636, 0.636, 0.772, 117.583, 93.268)" fill="#263238"/>
        <path id="Path_26150" data-name="Path 26150" d="M117.7,100.491c-6.7,14.736-8.309,30.694-5.092,34.338,4.585,5.2,20.422,14.02,28.482,16.819,2.365.8,8.405-17.736,5.872-18.621-3.057-1.062-20.165-8.164-20.43-8.357-.555-.418-.973-18.436-.909-22.972C125.738,93.381,121.338,92.48,117.7,100.491Z" transform="translate(-67.982 -62.641)" fill="#d3766a"/>
        <path id="Path_26151" data-name="Path 26151" d="M177.5,152.167a3,3,0,0,1-2.043,2.735,4.416,4.416,0,0,1,.635,2.944c-.33,1.794-3.282,2.067-3.282,2.067a5.478,5.478,0,0,1,.177,3.217c-.491,1.689-3.435,2.413-3.435,2.413a4.826,4.826,0,0,1-1.609,2.92c-2.413,1.906-6.837.314-9.652-.668s-9.9-6.435-11.357-7.3l6.145-18.162s13.9.8,17.052,2.413C172.725,146.086,177.487,149.835,177.5,152.167Z" transform="translate(-75.01 -71.911)" fill="#d3766a"/>
        <path id="Path_26152" data-name="Path 26152" d="M180.308,156.362c-2.477-2.132-5.445-3.418-8.341-4.826a.056.056,0,1,0-.048.1c2.9,1.408,5.47,3.378,8.3,4.9a.1.1,0,1,0,.088-.169Z" transform="translate(-79.89 -73.71)" fill="#263238"/>
        <path id="Path_26153" data-name="Path 26153" d="M177.01,162.99a8.091,8.091,0,0,0-1.971-1.038c-.724-.322-1.448-.627-2.18-.917q-2.2-.893-4.44-1.665c-.064,0-.121.08-.048.1,1.456.587,2.912,1.2,4.343,1.85l2.148,1a10.165,10.165,0,0,0,2.051.861.113.113,0,0,0,.1-.193Z" transform="translate(-79.198 -75.245)" fill="#263238"/>
        <path id="Path_26154" data-name="Path 26154" d="M173.068,170.327a5.9,5.9,0,0,0-1.826-.8l-2.011-.8c-1.343-.523-2.687-1.054-4.022-1.609-.064,0-.121.072-.048.1,1.335.587,2.67,1.19,4.022,1.762.66.29,1.327.563,1.987.8a5.582,5.582,0,0,0,1.866.6.04.04,0,0,0,.032-.056Z" transform="translate(-78.57 -76.76)" fill="#263238"/>
        <path id="Path_26155" data-name="Path 26155" d="M146.293,132.551,134.759,151.1s-22.739-13-23.913-17.495.611-21.146,5.7-31.7,9.491-9.556,9.274,2.349.643,19.94.917,20.109S146.293,132.551,146.293,132.551Z" transform="translate(-67.882 -62.575)" fill="#00a3b1"/>
        <path id="Path_26156" data-name="Path 26156" d="M125.706,112.665a4.545,4.545,0,0,1,0-3.1A4.545,4.545,0,0,1,125.706,112.665ZM135,128.382l-.491-.2a5.333,5.333,0,0,0-.04.619,4.351,4.351,0,0,0,.273,1.544,4.175,4.175,0,0,0,.273-1.544C135.012,128.64,135,128.527,135,128.382Zm-21.347-.957a4.183,4.183,0,0,0-.265-1.552,4.521,4.521,0,0,0,0,3.1A4.166,4.166,0,0,0,113.649,127.425Zm9.95,15.283a4.214,4.214,0,0,0-.273,1.552v.265l.491.33a4.928,4.928,0,0,0,0-.6,4.022,4.022,0,0,0-.217-1.56Zm-7.569-37.193h-.241c-.072.169-.137.346-.2.515h.442a4.021,4.021,0,0,0,1.544-.273,4.022,4.022,0,0,0-1.544-.249Zm-.716,33.26.378.306h0a2.656,2.656,0,0,0,.33-.113,2.96,2.96,0,0,0-.708-.2Zm9.837-16.32a4.086,4.086,0,0,0,1.544-.249,4.545,4.545,0,0,0-3.1,0,4.021,4.021,0,0,0,1.56.241Zm7.424,17.535a4.086,4.086,0,0,0,1.552-.273,4.673,4.673,0,0,0-3.1,0,4.021,4.021,0,0,0,1.552.265Zm1.263,10.457a4.118,4.118,0,0,0-1.287-.9,4.022,4.022,0,0,0,.885,1.271h0l1.174.692a4.335,4.335,0,0,0-.772-1.094Zm-18.074-33.686a4.022,4.022,0,0,0-1.287-.9,4.119,4.119,0,0,0,.9,1.287,4.351,4.351,0,0,0,1.287.9,4.023,4.023,0,0,0-.9-1.319Zm10.175-17.43h0l-.04-.04a4.175,4.175,0,0,0-1.3-.909,4.271,4.271,0,0,0,.909,1.3,5.225,5.225,0,0,0,.555.475c-.032-.322-.08-.6-.129-.853Zm17.1,35.689a4.256,4.256,0,0,0-1.287-.9,4.134,4.134,0,0,0,.909,1.287,4.022,4.022,0,0,0,1.287.9,4.231,4.231,0,0,0-.909-1.319Zm-19.087-3.161a4.021,4.021,0,0,0-.9,1.295,4.134,4.134,0,0,0,1.287-.909,4.255,4.255,0,0,0,.9-1.287,4.255,4.255,0,0,0-1.287.9Z" transform="translate(-68.393 -63.312)" fill="#fff"/>
        <path id="Path_26157" data-name="Path 26157" d="M146.427,141.25c0-.056-.056-.113-.1-.064A159.621,159.621,0,0,0,137,155.8c0,.056.056.113.1.064A159.629,159.629,0,0,0,146.427,141.25Z" transform="translate(-73.067 -71.684)" fill="#263238"/>
        <path id="Path_26158" data-name="Path 26158" d="M117.93,143.238a28.4,28.4,0,0,1-5.413-4.432,5.5,5.5,0,0,1-1.721-3.1,20.963,20.963,0,0,1-.1-3.41,79.876,79.876,0,0,1,1.609-14.559,78.5,78.5,0,0,1,2.107-7.883c0-.048-.056-.064-.072,0a53.161,53.161,0,0,0-1.938,5.743,32.849,32.849,0,0,1,.434-3.547c0-.048-.072-.072-.08,0a21.23,21.23,0,0,0-.41,2.357c-.056.6-.089,1.207-.1,1.81a70.213,70.213,0,0,0-1.7,8.454,59.776,59.776,0,0,0-.555,7.48,19.871,19.871,0,0,0,.113,3.6,5.493,5.493,0,0,0,1.359,2.823,25.039,25.039,0,0,0,6.435,4.786.064.064,0,0,0,.032-.113Z" transform="translate(-67.775 -65.548)" fill="#263238"/>
        <path id="Path_26159" data-name="Path 26159" d="M140.817,131.909c-3.217-1.488-6.435-2.855-9.733-4.191a1.905,1.905,0,0,1-.426-.209,1.014,1.014,0,0,1-.282-.8c-.04-.434-.072-.861-.1-1.295-.072-.9-.137-1.794-.2-2.695-.113-1.762-.193-3.523-.281-5.285v-.273c.169-1.126.354-2.26.442-3.394a.048.048,0,0,0-.1,0c-.169.853-.281,1.729-.378,2.6-.088-1.673-.169-3.338-.249-5.011h-.048c-.113,3.8,0,7.593.249,11.39.064.925.129,1.858.2,2.783.04.466.072.933.121,1.4a1.376,1.376,0,0,0,.193.692,1.77,1.77,0,0,0,.8.483l1.375.579,2.566,1.062c1.938.8,3.885,1.552,5.856,2.276C140.841,132.054,140.881,131.981,140.817,131.909Z" transform="translate(-71.583 -65.85)" fill="#263238"/>
      </g>
    </g>
    <rect id="Rectangle_8098" data-name="Rectangle 8098" width="350" height="329.71" transform="translate(0 0.398)" fill="#fff" opacity="0"/>
  </g>
</svg>
