<svg xmlns="http://www.w3.org/2000/svg" width="576" height="576.489" viewBox="0 0 576 576.489">
  <g id="illustration" transform="translate(-148 -237)">
    <g id="illustration-2" data-name="illustration" transform="translate(148 237)" fill="#fff" stroke="#707070" stroke-width="1" opacity="0">
      <rect width="576" height="576" stroke="none"/>
      <rect x="0.5" y="0.5" width="575" height="575" fill="none"/>
    </g>
    <g id="Invoice-cuate" transform="translate(118.29 211.9)">
      <g id="freepik--Plant--inject-44" transform="translate(485.62 365.74)">
        <path id="Path_27059" data-name="Path 27059" d="M394.564,321.708c20.905,20.461,24.407,52.119,20,79.844-.118.627-1.1.457-1.1-.144,0-6.311.2-12.556.17-18.8l-.314-.836c-5.461-3.92-10.453-8.44-13.575-14.581-3.5-6.873-4.874-14.607-7.539-21.78-.248-.679.483-.483.967-.131,12.713,9.381,16.763,19.468,20.409,32.952a112.224,112.224,0,0,0-2.208-21c-2.744-12.791-8.179-25.478-17.377-34.977C393.7,321.9,394.237,321.342,394.564,321.708Z" transform="translate(-371.735 -275.167)" fill="#263238"/>
        <path id="Path_27060" data-name="Path 27060" d="M395.437,327.947c-3.593.118-5.853,5.866-8.649,7.539a2.7,2.7,0,0,1-3.92-.627c-2.77-3.92,1.032-8.649,4.612-11.328-2.613,1.058-4.677,2.9-7.447,3.436a2.613,2.613,0,0,1-3.358-2.025c-1.215-5.226,5.409-7.63,9.956-7.735-2.208-1.542-8.519-5.7-5.161-7.748s10.805,3.92,13.222,5.853c3.554,2.888,7.839,7.2,7.957,11.759C402.832,332.285,398.233,329.045,395.437,327.947Z" transform="translate(-376.528 -279.016)" fill="#e89300"/>
        <path id="Path_27061" data-name="Path 27061" d="M395.437,327.947c-3.593.118-5.853,5.866-8.649,7.539a2.7,2.7,0,0,1-3.92-.627c-2.77-3.92,1.032-8.649,4.612-11.328-2.613,1.058-4.677,2.9-7.447,3.436a2.613,2.613,0,0,1-3.358-2.025c-1.215-5.226,5.409-7.63,9.956-7.735-2.208-1.542-8.519-5.7-5.161-7.748s10.805,3.92,13.222,5.853c3.554,2.888,7.839,7.2,7.957,11.759C402.832,332.285,398.233,329.045,395.437,327.947Z" transform="translate(-376.528 -279.016)" opacity="0.1"/>
        <path id="Path_27062" data-name="Path 27062" d="M395.31,327.688c-4.6-2.091-13.431.928-14.189-.81-1.516-3.554,5.54-5.971,9.355-6.441-3.515-.954-10.23-2.469-10.034-5.853.261-4.129,10.309-.575,15.4,3.319,6.415,4.926,6.376,9.669,5.318,10.622C399.7,329.817,396.068,328.04,395.31,327.688Z" transform="translate(-375.33 -277.881)" fill="#e89300"/>
        <path id="Path_27063" data-name="Path 27063" d="M436.08,320.156c-21.663,19.6-26.367,51.152-23.022,79.021.091.627,1.071.5,1.1-.091.235-6.311.287-12.569.536-18.8.131-.274.235-.536.353-.823,5.605-3.75,10.792-8.035,14.124-14.059,3.75-6.729,5.422-14.372,8.362-21.467.274-.679-.47-.51-.967-.17-13.066,8.885-17.482,18.815-21.65,32.142A112.222,112.222,0,0,1,417.932,355c3.227-12.687,9.146-25.151,18.684-34.284A.388.388,0,0,0,436.08,320.156Z" transform="translate(-365.628 -275.641)" fill="#263238"/>
        <path id="Path_27064" data-name="Path 27064" d="M435.067,326.4c3.58.261,5.618,6.089,8.349,7.839a2.7,2.7,0,0,0,4-.47c2.914-3.763-.706-8.689-4.181-11.5,2.522,1.15,4.573,3.083,7.3,3.711a2.613,2.613,0,0,0,3.449-1.881c1.411-5.226-5.122-7.839-9.656-8.127,2.26-1.437,8.728-5.37,5.448-7.539s-10.949,3.489-13.445,5.357c-3.658,2.744-8.062,6.886-8.388,11.393C427.541,330.463,432.257,327.393,435.067,326.4Z" transform="translate(-360.773 -279.35)" fill="#e89300"/>
        <path id="Path_27065" data-name="Path 27065" d="M435.067,326.4c3.58.261,5.618,6.089,8.349,7.839a2.7,2.7,0,0,0,4-.47c2.914-3.763-.706-8.689-4.181-11.5,2.522,1.15,4.573,3.083,7.3,3.711a2.613,2.613,0,0,0,3.449-1.881c1.411-5.226-5.122-7.839-9.656-8.127,2.26-1.437,8.728-5.37,5.448-7.539s-10.949,3.489-13.445,5.357c-3.658,2.744-8.062,6.886-8.388,11.393C427.541,330.463,432.257,327.393,435.067,326.4Z" transform="translate(-360.773 -279.35)" opacity="0.1"/>
        <path id="Path_27066" data-name="Path 27066" d="M434.061,326.122c4.664-1.921,13.379,1.424,14.189-.287,1.659-3.475-5.292-6.18-9.081-6.794,3.541-.81,10.309-2.064,10.23-5.461-.091-4.142-10.283-.967-15.509,2.744-6.6,4.664-6.742,9.407-5.71,10.453C429.58,328.081,433.316,326.487,434.061,326.122Z" transform="translate(-360.839 -278.222)" fill="#e89300"/>
        <path id="Path_27067" data-name="Path 27067" d="M417.494,377.106a211.668,211.668,0,0,1-6.729,31.07.773.773,0,1,1-1.516-.3c1.424-9.577,4.024-18.971,5.448-28.548a144.794,144.794,0,0,0,1.659-29.306c-.915-16.136-5.292-33.3-15.823-45.926-.235-.3.261-.719.5-.444,21.075,24.576,17.73,54.706,17.7,57.41,2.992-10.178,6.063-21.833,17.351-32.194.483-.457.862-.235.784.523-2.012,18.867-7.264,28.744-18.2,38.805C418.356,371.187,417.964,374.166,417.494,377.106Z" transform="translate(-369.187 -280.694)" fill="#263238"/>
        <path id="Path_27068" data-name="Path 27068" d="M404.631,312.283c-3.789-1.685-9.015,3.149-12.765,3.475-1.986.183-3.462-.6-3.8-2.613-.928-5.422,5.422-8.467,10.452-9.433-3.188-.2-6.324.653-9.46-.2a2.979,2.979,0,0,1-2.469-3.776c1.4-6.1,9.447-5.226,14.229-3.031-1.516-2.692-5.971-10.2-1.463-10.635s9.25,9.486,10.779,12.739c2.234,4.782,4.468,11.393,2.365,16.149C410.092,320.5,406.957,314.831,404.631,312.283Z" transform="translate(-373.48 -286.06)" fill="#e89300"/>
        <path id="Path_27069" data-name="Path 27069" d="M404.631,312.283c-3.789-1.685-9.015,3.149-12.765,3.475-1.986.183-3.462-.6-3.8-2.613-.928-5.422,5.422-8.467,10.452-9.433-3.188-.2-6.324.653-9.46-.2a2.979,2.979,0,0,1-2.469-3.776c1.4-6.1,9.447-5.226,14.229-3.031-1.516-2.692-5.971-10.2-1.463-10.635s9.25,9.486,10.779,12.739c2.234,4.782,4.468,11.393,2.365,16.149C410.092,320.5,406.957,314.831,404.631,312.283Z" transform="translate(-373.48 -286.06)" opacity="0.1"/>
        <path id="Path_27070" data-name="Path 27070" d="M404.214,312.441c-3.724-4.482-14.372-5.814-14.294-8,.2-4.442,8.741-3.41,12.935-1.973-3.162-2.757-9.381-7.709-7.461-11.119,2.339-4.155,10.988,4.586,14.307,11.21,4.181,8.323,1.751,13.222.17,13.68C407.7,316.857,404.828,313.172,404.214,312.441Z" transform="translate(-372.423 -284.767)" fill="#e89300"/>
        <path id="Path_27071" data-name="Path 27071" d="M435.2,364.221l9.3,71.025H387.93c1.163-6.3,11.694-71.116,11.694-71.116Z" transform="translate(-373.033 -262.126)" fill="#00a3b1"/>
      </g>
      <g id="freepik--Desk--inject-44" transform="translate(36.71 538.116)">
        <path id="Path_27072" data-name="Path 27072" d="M36.71,418.63l70.28-.314,70.28-.118,140.574-.209,140.561.209,70.294.118,70.28.314-70.28.327-70.294.118-140.561.209-140.574-.209-70.28-.118Z" transform="translate(-36.71 -417.99)" fill="#263238"/>
      </g>
      <g id="freepik--Invoice--inject-44" transform="translate(384.246 45.458)">
        <rect id="Rectangle_8298" data-name="Rectangle 8298" width="205.627" height="263.208" fill="#ebebeb"/>
        <rect id="Rectangle_8299" data-name="Rectangle 8299" width="205.627" height="15.352" transform="translate(0 14.738)" fill="#263238"/>
        <path id="Path_27073" data-name="Path 27073" d="M298.94,67.7H411.174l-9.42,16.5H298.94Z" transform="translate(-298.94 -37.61)" fill="#263238"/>
        <path id="Path_27074" data-name="Path 27074" d="M298.94,53.62H411.174L406.549,59.7H298.94Z" transform="translate(-298.94 -41.926)" fill="#e89300"/>
        <path id="Path_27075" data-name="Path 27075" d="M298.94,60.49h59.971l-4.625,6.089H298.94Z" transform="translate(-298.94 -39.82)" fill="#e89300"/>
        <rect id="Rectangle_8300" data-name="Rectangle 8300" width="167.998" height="12.922" transform="translate(18.815 107.53)" fill="#fff"/>
        <rect id="Rectangle_8301" data-name="Rectangle 8301" width="167.998" height="12.922" transform="translate(18.815 94.608)" fill="#00a3b1"/>
        <rect id="Rectangle_8302" data-name="Rectangle 8302" width="167.998" height="12.922" transform="translate(18.815 120.439)" fill="#dbdbdb"/>
        <rect id="Rectangle_8303" data-name="Rectangle 8303" width="167.998" height="12.922" transform="translate(18.815 133.361)" fill="#fff"/>
        <rect id="Rectangle_8304" data-name="Rectangle 8304" width="167.998" height="12.922" transform="translate(18.815 146.283)" fill="#dbdbdb"/>
        <rect id="Rectangle_8305" data-name="Rectangle 8305" width="167.998" height="12.922" transform="translate(18.815 159.192)" fill="#fff"/>
        <rect id="Rectangle_8306" data-name="Rectangle 8306" width="167.998" height="12.922" transform="translate(18.815 172.114)" fill="#dbdbdb"/>
        <rect id="Rectangle_8307" data-name="Rectangle 8307" width="117.63" height="12.922" transform="translate(69.183 185.036)" fill="#00a3b1"/>
        <rect id="Rectangle_8308" data-name="Rectangle 8308" width="50.368" height="90.427" transform="translate(18.815 94.608)" fill="#c7c7c7"/>
        <path id="Path_27083" data-name="Path 27083" d="M313.34,136.887l84-.157,84,.157-84,.17Z" transform="translate(-294.525 -16.448)" fill="#263238"/>
        <path id="Path_27084" data-name="Path 27084" d="M313.34,146.777l84-.157,84,.157-84,.17Z" transform="translate(-294.525 -13.416)" fill="#263238"/>
        <path id="Path_27085" data-name="Path 27085" d="M313.34,156.67l84-.17,84,.17-84,.157Z" transform="translate(-294.525 -10.387)" fill="#263238"/>
        <path id="Path_27086" data-name="Path 27086" d="M313.34,166.547l84-.157,84,.157-84,.17Z" transform="translate(-294.525 -7.355)" fill="#263238"/>
        <path id="Path_27087" data-name="Path 27087" d="M313.34,176.437l84-.157,84,.157-84,.17Z" transform="translate(-294.525 -4.323)" fill="#263238"/>
        <path id="Path_27088" data-name="Path 27088" d="M313.34,186.33l84-.17,84,.17-84,.157Z" transform="translate(-294.525 -1.294)" fill="#263238"/>
        <path id="Path_27089" data-name="Path 27089" d="M320.23,122.08c5.357-.261,10.727-.287,16.084-.327s10.727,0,16.1.327c-5.37.274-10.727.287-16.1.327S325.587,122.38,320.23,122.08Z" transform="translate(-292.413 -21.043)" fill="#263238"/>
        <path id="Path_27090" data-name="Path 27090" d="M320.23,131.99c4.05-.274,8.114-.287,12.164-.327s8.114,0,12.177.327c-4.063.274-8.114.287-12.177.327S324.28,132.264,320.23,131.99Z" transform="translate(-292.413 -18.005)" fill="#263238"/>
        <path id="Path_27091" data-name="Path 27091" d="M320.23,141.88c5.357-.274,10.727-.287,16.084-.327s10.727,0,16.1.327c-5.37.274-10.727.287-16.1.327S325.587,142.141,320.23,141.88Z" transform="translate(-292.413 -14.973)" fill="#263238"/>
        <path id="Path_27092" data-name="Path 27092" d="M320.23,151.76c4.4-.261,8.819-.287,13.236-.327s8.832,0,13.249.327c-4.416.274-8.832.287-13.249.327S324.633,152.034,320.23,151.76Z" transform="translate(-292.413 -11.944)" fill="#263238"/>
        <path id="Path_27093" data-name="Path 27093" d="M320.23,161.65c5.357-.274,10.727-.287,16.084-.327s10.727,0,16.1.327c-5.37.274-10.727.287-16.1.327S325.587,161.924,320.23,161.65Z" transform="translate(-292.413 -8.912)" fill="#263238"/>
        <path id="Path_27094" data-name="Path 27094" d="M320.23,171.54c5.357-.274,10.727-.287,16.084-.327s10.727,0,16.1.327c-5.37.274-10.727.287-16.1.327S325.587,171.8,320.23,171.54Z" transform="translate(-292.413 -5.88)" fill="#263238"/>
        <path id="Path_27095" data-name="Path 27095" d="M320.23,181.417c3.253-.248,6.533-.314,9.76-.327s6.533.078,9.773.327c-3.253.261-6.533.314-9.773.327S323.483,181.678,320.23,181.417Z" transform="translate(-292.413 -2.849)" fill="#263238"/>
        <path id="Path_27096" data-name="Path 27096" d="M360.9,122.08c4.024-.261,8.062-.287,12.086-.327s8.075,0,12.1.327c-4.024.274-8.062.287-12.1.327S364.95,122.38,360.9,122.08Z" transform="translate(-279.945 -21.043)" fill="#fff"/>
        <path id="Path_27097" data-name="Path 27097" d="M360.9,131.99c4.024-.274,8.062-.287,12.086-.327s8.075,0,12.1.327c-4.024.274-8.062.287-12.1.327S364.95,132.264,360.9,131.99Z" transform="translate(-279.945 -18.005)" fill="#263238"/>
        <path id="Path_27098" data-name="Path 27098" d="M360.9,141.88c4.024-.274,8.062-.287,12.086-.327s8.075,0,12.1.327c-4.024.274-8.062.287-12.1.327S364.95,142.141,360.9,141.88Z" transform="translate(-279.945 -14.973)" fill="#263238"/>
        <path id="Path_27099" data-name="Path 27099" d="M360.9,151.76c4.024-.261,8.062-.287,12.086-.327s8.075,0,12.1.327c-4.024.274-8.062.287-12.1.327S364.95,152.034,360.9,151.76Z" transform="translate(-279.945 -11.944)" fill="#263238"/>
        <path id="Path_27100" data-name="Path 27100" d="M360.9,161.65c4.024-.274,8.062-.287,12.086-.327s8.075,0,12.1.327c-4.024.274-8.062.287-12.1.327S364.95,161.924,360.9,161.65Z" transform="translate(-279.945 -8.912)" fill="#263238"/>
        <path id="Path_27101" data-name="Path 27101" d="M360.9,171.54c4.024-.274,8.062-.287,12.086-.327s8.075,0,12.1.327c-4.024.274-8.062.287-12.1.327S364.95,171.8,360.9,171.54Z" transform="translate(-279.945 -5.88)" fill="#263238"/>
        <path id="Path_27102" data-name="Path 27102" d="M360.9,181.42c4.024-.261,8.062-.287,12.086-.327s8.075,0,12.1.327c-4.024.274-8.062.287-12.1.327S364.95,181.694,360.9,181.42Z" transform="translate(-279.945 -2.851)" fill="#263238"/>
        <path id="Path_27103" data-name="Path 27103" d="M387.65,122.08c4.037-.261,8.062-.287,12.1-.327s8.062,0,12.086.327c-4.024.274-8.062.287-12.086.327S391.687,122.38,387.65,122.08Z" transform="translate(-271.745 -21.043)" fill="#fff"/>
        <path id="Path_27104" data-name="Path 27104" d="M394,181.417a22.982,22.982,0,0,1,7.722,0,22.983,22.983,0,0,1-7.722,0Z" transform="translate(-269.798 -2.848)" fill="#263238"/>
        <path id="Path_27105" data-name="Path 27105" d="M394,171.537a22.983,22.983,0,0,1,7.722,0,22.983,22.983,0,0,1-7.722,0Z" transform="translate(-269.798 -5.877)" fill="#263238"/>
        <path id="Path_27106" data-name="Path 27106" d="M394,161.647a21.47,21.47,0,0,1,3.92-.327,20.213,20.213,0,0,1,3.854.327,22.984,22.984,0,0,1-7.722,0Z" transform="translate(-269.798 -8.909)" fill="#263238"/>
        <path id="Path_27107" data-name="Path 27107" d="M394,151.757a22.982,22.982,0,0,1,7.722,0,22.984,22.984,0,0,1-7.722,0Z" transform="translate(-269.798 -11.941)" fill="#263238"/>
        <path id="Path_27108" data-name="Path 27108" d="M394,141.877a22.982,22.982,0,0,1,7.722,0,22.983,22.983,0,0,1-7.722,0Z" transform="translate(-269.798 -14.97)" fill="#263238"/>
        <path id="Path_27109" data-name="Path 27109" d="M394,131.987a21.47,21.47,0,0,1,3.92-.327,20.214,20.214,0,0,1,3.854.327,20.214,20.214,0,0,1-3.854.327A21.468,21.468,0,0,1,394,131.987Z" transform="translate(-269.798 -18.002)" fill="#263238"/>
        <path id="Path_27110" data-name="Path 27110" d="M395.71,191.307a66.2,66.2,0,0,1,6.82-.327,62.8,62.8,0,0,1,6.833.327A71.507,71.507,0,0,1,395.71,191.307Z" transform="translate(-269.274 0.183)" fill="#fff"/>
        <path id="Path_27111" data-name="Path 27111" d="M414.4,122.08c4.037-.261,8.062-.287,12.1-.327s8.062,0,12.086.327c-4.024.274-8.062.287-12.086.327S418.437,122.38,414.4,122.08Z" transform="translate(-263.544 -21.043)" fill="#fff"/>
        <path id="Path_27112" data-name="Path 27112" d="M414.4,131.99c4.037-.274,8.062-.287,12.1-.327s8.062,0,12.086.327c-4.024.274-8.062.287-12.086.327S418.437,132.264,414.4,131.99Z" transform="translate(-263.544 -18.005)" fill="#263238"/>
        <path id="Path_27113" data-name="Path 27113" d="M414.4,141.88c4.037-.274,8.062-.287,12.1-.327s8.062,0,12.086.327c-4.024.274-8.062.287-12.086.327S418.437,142.141,414.4,141.88Z" transform="translate(-263.544 -14.973)" fill="#263238"/>
        <path id="Path_27114" data-name="Path 27114" d="M414.4,151.76c4.037-.261,8.062-.287,12.1-.327s8.062,0,12.086.327c-4.024.274-8.062.287-12.086.327S418.437,152.034,414.4,151.76Z" transform="translate(-263.544 -11.944)" fill="#263238"/>
        <path id="Path_27115" data-name="Path 27115" d="M414.4,161.65c4.037-.274,8.062-.287,12.1-.327s8.062,0,12.086.327c-4.024.274-8.062.287-12.086.327S418.437,161.924,414.4,161.65Z" transform="translate(-263.544 -8.912)" fill="#263238"/>
        <path id="Path_27116" data-name="Path 27116" d="M414.4,171.54c4.037-.274,8.062-.287,12.1-.327s8.062,0,12.086.327c-4.024.274-8.062.287-12.086.327S418.437,171.8,414.4,171.54Z" transform="translate(-263.544 -5.88)" fill="#263238"/>
        <path id="Path_27117" data-name="Path 27117" d="M414.4,181.42c4.037-.261,8.062-.287,12.1-.327s8.062,0,12.086.327c-4.024.274-8.062.287-12.086.327S418.437,181.694,414.4,181.42Z" transform="translate(-263.544 -2.851)" fill="#263238"/>
        <path id="Path_27118" data-name="Path 27118" d="M414.4,191.31c4.037-.274,8.062-.287,12.1-.327s8.062,0,12.086.327c-4.024.274-8.062.287-12.086.327S418.437,191.584,414.4,191.31Z" transform="translate(-263.544 0.181)" fill="#fff"/>
        <path id="Path_27119" data-name="Path 27119" d="M313.34,75.158c4.978-.261,9.969-.392,14.96-.5s9.969-.1,14.947-.157,9.969,0,14.96.157l7.474.183c2.5.1,4.991.17,7.487.314-2.5.157-4.991.209-7.487.327l-7.474.183c-4.991.1-9.969.091-14.96.144s-9.969,0-14.947-.144S318.318,75.445,313.34,75.158Z" transform="translate(-294.525 -35.53)" fill="#fff"/>
        <path id="Path_27120" data-name="Path 27120" d="M313.34,70.3c5.657-.274,11.315-.405,16.985-.51s11.315-.091,16.985-.144,11.315,0,16.985.144l8.493.183c2.835.1,5.671.17,8.493.327-2.822.144-5.657.209-8.493.314l-8.493.183c-5.657.1-11.315.1-16.985.144s-11.328,0-16.985-.144S319,70.559,313.34,70.3Z" transform="translate(-294.525 -37.02)" fill="#fff"/>
        <path id="Path_27121" data-name="Path 27121" d="M313.34,99.764c7.683-.209,15.344-.3,23.028-.379s15.366,0,23.049-.1,15.344,0,23.028.1,15.344.17,23.028.379c-7.683.209-15.344.3-23.028.379s-15.366,0-23.028.1-15.366,0-23.049-.1S321.023,99.96,313.34,99.764Z" transform="translate(-202.489 -62.949)" fill="#263238"/>
        <path id="Path_27122" data-name="Path 27122" d="M313.34,103.974c2.9-.2,5.814-.3,8.715-.379s5.814,0,8.728-.1,5.814,0,8.715.1,5.814.183,8.728.379c-2.914.209-5.814.3-8.728.379s-5.814.078-8.715.118-5.814,0-8.728-.118S316.241,104.17,313.34,103.974Z" transform="translate(-202.489 -54.741)" fill="#263238"/>
        <path id="Path_27123" data-name="Path 27123" d="M313.34,108.177c7.1-.2,14.17-.287,21.266-.366s14.17-.078,21.266-.118,14.192,0,21.266.118,14.193.17,21.266.366c-7.073.209-14.17.3-21.266.379s-14.17.078-21.266.118-14.17,0-21.266-.118S320.436,108.386,313.34,108.177Z" transform="translate(-202.489 -66.139)" fill="#263238"/>
        <path id="Path_27124" data-name="Path 27124" d="M313.34,203.93c2.979-.209,5.945-.3,8.924-.379s5.958-.078,8.924-.118,5.958,0,8.937.118,5.945.17,8.924.379c-2.979.2-5.958.3-8.924.379s-5.958.065-8.937.1-5.945,0-8.924-.118S316.319,204.178,313.34,203.93Z" transform="translate(-294.525 3.997)" fill="#263238"/>
        <path id="Path_27125" data-name="Path 27125" d="M313.34,208.128c3.436-.209,6.886-.3,10.322-.379s6.873,0,10.322-.118,6.873,0,10.322.118,6.873.17,10.322.379c-3.449.209-6.886.3-10.322.379s-6.886.065-10.322.1-6.886,0-10.322-.1S316.815,208.35,313.34,208.128Z" transform="translate(-294.525 5.273)" fill="#263238"/>
        <path id="Path_27126" data-name="Path 27126" d="M313.34,224.923c5.409-.2,10.818-.287,16.228-.366l16.214-.118,16.228.1c5.409.078,10.818.183,16.228.379-5.409.209-10.818.3-16.228.379l-16.228.118-16.214-.118C324.158,225.172,318.749,225.172,313.34,224.923Z" transform="translate(-294.525 10.441)" fill="#263238"/>
        <path id="Path_27127" data-name="Path 27127" d="M313.34,212.344c2.1-.2,4.194-.3,6.3-.379s4.194-.091,6.3-.1,4.194,0,6.3.1,4.194.183,6.3.379c-2.1.209-4.207.3-6.3.379s-4.207.1-6.3.118-4.207,0-6.3-.118S315.509,212.553,313.34,212.344Z" transform="translate(-294.525 6.584)" fill="#263238"/>
        <path id="Path_27128" data-name="Path 27128" d="M394,216.507c5.226-.209,10.453-.3,15.679-.379l15.679-.118,15.679.118c5.226.078,10.453.17,15.679.379-5.226.2-10.453.3-15.679.379l-15.679.1-15.679-.1C404.453,216.807,399.226,216.7,394,216.507Z" transform="translate(-269.798 7.857)" fill="#263238"/>
        <path id="Path_27129" data-name="Path 27129" d="M394,212.347c4.246-.2,8.48-.3,12.726-.379s8.48-.065,12.726-.1,8.493,0,12.726.1,8.493.183,12.726.379c-4.233.209-8.48.3-12.726.379s-8.48.078-12.726.118-8.48,0-12.726-.118S398.181,212.556,394,212.347Z" transform="translate(-269.798 6.581)" fill="#263238"/>
        <path id="Path_27130" data-name="Path 27130" d="M394,220.717c3.985-.2,7.97-.3,11.968-.379s7.97-.065,11.955-.1,7.983,0,11.968.1,7.97.17,11.955.379c-3.985.209-7.97.3-11.955.379s-7.983.078-11.968.118-7.97,0-11.955-.118S397.92,220.926,394,220.717Z" transform="translate(-269.798 9.147)" fill="#263238"/>
        <path id="Path_27131" data-name="Path 27131" d="M394,224.927c2.861-.2,5.723-.287,8.571-.366s5.723-.078,8.584-.118,5.71,0,8.571.1,5.71.183,8.571.379c-2.861.209-5.71.3-8.571.379s-5.723.078-8.571.118-5.723,0-8.584-.118S396.8,225.175,394,224.927Z" transform="translate(-269.798 10.438)" fill="#263238"/>
        <path id="Path_27132" data-name="Path 27132" d="M314.653,223.6c1.555-1.071,3.162-2.09,4.808-3.031a22.931,22.931,0,0,1,5.226-2.339,4.613,4.613,0,0,1,.719-.131.758.758,0,0,1,.8.261,2.744,2.744,0,0,1,.327,1.463,17.267,17.267,0,0,1-.3,2.861c-.327,1.868-.8,3.711-1.307,5.54a84.928,84.928,0,0,1-3.763,10.727,18.437,18.437,0,0,1-1.307,2.613,5.1,5.1,0,0,1-.51.588.771.771,0,0,1-.5.222.47.47,0,0,1-.34-.131l-.17-.17a2.783,2.783,0,0,1-.405-1.516,19.127,19.127,0,0,1,.993-5.657,32.508,32.508,0,0,1,2.143-5.292,15.679,15.679,0,0,1,3.332-4.638,5.227,5.227,0,0,1,2.613-1.307,3,3,0,0,1,1.476.131,2.273,2.273,0,0,1,1.045,1.058,6.218,6.218,0,0,0,.784,1.137,1.189,1.189,0,0,0,1.15.392,7.5,7.5,0,0,0,2.378-1.4c.379-.287.758-.575,1.15-.849a3.694,3.694,0,0,1,.614-.379c.209-.091.51-.261.784,0,.379.457.274.954.47,1.372a.836.836,0,0,0,.967.627,8.48,8.48,0,0,0,2.077-1.816c.64-.693,1.307-1.411,1.881-2.117,1.241-1.437,2.456-2.888,3.724-4.3.627-.706,1.307-1.4,1.96-2.064.353-.327.706-.64,1.1-.941a3.071,3.071,0,0,1,.64-.379.993.993,0,0,1,.418-.091.575.575,0,0,1,.431.235,2.613,2.613,0,0,1,.2,1.5,12.913,12.913,0,0,1-.222,1.424c-.209.941-.47,1.855-.758,2.757A28.238,28.238,0,0,1,347,225.195a5.425,5.425,0,0,1-.889,1.189,1.032,1.032,0,0,1-.836.327,2.509,2.509,0,0,1-.758-.209,3.541,3.541,0,0,1-1.973-2.326,1.306,1.306,0,0,1,.1-.888.941.941,0,0,1,.366-.353.9.9,0,0,1,.5-.1,5.46,5.46,0,0,1,1.463.34c.915.327,1.777.706,2.613,1.084s1.725.771,2.613,1.111a11.277,11.277,0,0,0,1.307.47,4.414,4.414,0,0,0,.64.144.914.914,0,0,0,.51-.118c.719-.353,1.189-1.228,1.908-1.934a2.261,2.261,0,0,1,1.437-.745.771.771,0,0,1,.588.2.758.758,0,0,1,.2.575,3.921,3.921,0,0,1-.144.771c-.131.431-.183.967-.065.98s.692,0,1.084,0a7.25,7.25,0,0,0,2.391-1.307,13.766,13.766,0,0,1,1.2-.81,2.4,2.4,0,0,1,1.581-.379,5.919,5.919,0,0,1,2.43,1.764,6.1,6.1,0,0,0,1.006.875c.17.1.327.144.366.1a4.447,4.447,0,0,0,.536-.34,25.081,25.081,0,0,0,2.143-1.79,25.477,25.477,0,0,0,3.658-4.22,4.742,4.742,0,0,0,.915-2.443c0-.849-.875-1.307-1.777-1.385a15.562,15.562,0,0,0-5.553.078,13.653,13.653,0,0,0-2.678.771,5.474,5.474,0,0,0-1.189.64c-.353.261-.666.627-.562.967a1.757,1.757,0,0,0,.9.823,13.6,13.6,0,0,0,1.307.523,26.783,26.783,0,0,0,2.7.784,62.047,62.047,0,0,0,11.25,1.084h0a59.905,59.905,0,0,1-11.328-.836,25.105,25.105,0,0,1-2.744-.758,11.842,11.842,0,0,1-1.307-.523,2.051,2.051,0,0,1-1.124-1.058,1.4,1.4,0,0,1,.692-1.4,5.933,5.933,0,0,1,1.307-.719,13.652,13.652,0,0,1,2.757-.823,15.965,15.965,0,0,1,5.736-.157,4.221,4.221,0,0,1,1.45.483,1.777,1.777,0,0,1,.823,1.4,5.356,5.356,0,0,1-.98,2.822,22.916,22.916,0,0,1-3.737,4.351,23.288,23.288,0,0,1-2.2,1.868,4.5,4.5,0,0,1-.666.4,1.111,1.111,0,0,1-.98-.144,7.615,7.615,0,0,1-1.137-.967,5.579,5.579,0,0,0-2.077-1.581c-.693-.1-1.5.549-2.247,1.084a7.839,7.839,0,0,1-2.613,1.307,2.117,2.117,0,0,1-1.685-.065,1.058,1.058,0,0,1-.327-.954,4.164,4.164,0,0,1,.157-.745,3.318,3.318,0,0,0,.118-.614v-.091c0,.026,0,0-.091,0a1.672,1.672,0,0,0-1.006.536c-.64.6-1.084,1.516-2.077,2.051a1.607,1.607,0,0,1-.862.17,4.156,4.156,0,0,1-.745-.17,14.135,14.135,0,0,1-1.372-.5c-.875-.366-1.738-.758-2.613-1.137s-1.725-.758-2.613-1.084a4.939,4.939,0,0,0-1.307-.314c-.3,0-.47.248-.392.653a3,3,0,0,0,1.568,1.934,1.974,1.974,0,0,0,.6.17.458.458,0,0,0,.418-.2,5.226,5.226,0,0,0,.823-1.058,27.661,27.661,0,0,0,2.273-5.122,24.552,24.552,0,0,0,.784-2.7,10.05,10.05,0,0,0,.235-1.307,2.222,2.222,0,0,0-.1-1.307c-.131-.248-.666,0-1.006.314a9.669,9.669,0,0,0-1.058.9c-.679.64-1.307,1.307-1.973,2.025-1.307,1.4-2.5,2.835-3.75,4.259-.627.706-1.307,1.411-1.908,2.1a8.663,8.663,0,0,1-2.2,1.855,1.071,1.071,0,0,1-1.215-.745c-.183-.444-.17-1.006-.418-1.307s-.34,0-.536.078a5.5,5.5,0,0,0-.588.366c-.379.274-.745.575-1.124.862a7.723,7.723,0,0,1-2.469,1.476,1.463,1.463,0,0,1-1.424-.457,7.157,7.157,0,0,1-.836-1.176c-.261-.379-.51-.8-.888-.928a2.81,2.81,0,0,0-1.307-.091,5.017,5.017,0,0,0-2.417,1.189,15.784,15.784,0,0,0-3.2,4.56,33.251,33.251,0,0,0-2.051,5.226,19.009,19.009,0,0,0-.915,5.488,2.455,2.455,0,0,0,.3,1.189l.078.078h0a.327.327,0,0,0,.131-.091,2.613,2.613,0,0,0,.405-.483,19.1,19.1,0,0,0,1.307-2.456,81.75,81.75,0,0,0,3.854-10.622,52.549,52.549,0,0,0,1.307-5.488,15.379,15.379,0,0,0,.313-2.77,2.3,2.3,0,0,0-.248-1.307c-.118-.144-.222-.183-.47-.131a4.114,4.114,0,0,0-.679.118A24.286,24.286,0,0,0,319.5,220.6c-1.659.888-3.28,1.855-4.86,2.888Z" transform="translate(-294.127 7.256)" fill="#263238"/>
        <text id="Check_Eligibility" data-name="Check Eligibility" transform="translate(99.767 76.706)" font-size="18" font-family="Quicksand-SemiBold, Quicksand" font-weight="600"><tspan x="-66.375" y="0">Check Eligibility</tspan></text>
      </g>
      <g id="freepik--Character--inject-44" transform="translate(50.829 212.295)">
        <path id="Path_27133" data-name="Path 27133" d="M139.132,392.558A132.08,132.08,0,0,0,162.754,408.3c-11.641-21.245-5.409-66.53-4.351-59.906,5.03,31.658,23.975,67.458,32.22,69.836a.458.458,0,0,1,.144,0c22.3,4.482,43.273.836,61.16-6.154a.2.2,0,0,0,0-.1c-15.313-24.224-10.348-70.372-9.433-67.458,9.956,31.266,34.742,51.087,39.354,51.426h0c18.292-12.883,28.562-26.406,26.275-28.052-16.606-12.033-29.058-40.5-39.916-70.372h0c-10.74-29.463-14.764-72.371-31.2-99.234-15.052-24.6-48.957-31.88-69.483-21.676C113.68,203.315,128.979,384.118,139.132,392.558Z" transform="translate(-22.516 -167.539)" fill="#263238"/>
        <path id="Path_27134" data-name="Path 27134" d="M172.708,174.34a34.415,34.415,0,0,0-12.06,7.238,73.17,73.17,0,0,0-9.29,10.048,116.926,116.926,0,0,0-13.066,23.257c-7.121,16.215-11,48.853-12.987,66.125a270.456,270.456,0,0,0,0,52.132c.34,4.338.98,8.649,1.463,12.974l1.908,12.935,2.482,12.857,2.888,12.778L132.021,371.8l-1.712-12.922-1.45-12.922c-.327-4.325-.81-8.623-1.006-12.948a294.276,294.276,0,0,1,.719-51.688c1.672-17.142,5.605-49.493,12.033-65.668a117.737,117.737,0,0,1,12.1-23.283,71.285,71.285,0,0,1,8.61-10.283,46.376,46.376,0,0,1,5.226-4.377A24.484,24.484,0,0,1,172.708,174.34Z" transform="translate(-24.055 -166.864)" fill="#263238"/>
        <path id="Path_27135" data-name="Path 27135" d="M288.086,360.407a224.9,224.9,0,0,1-13.314-19.337c-4.168-6.533-8.061-13.275-11.576-20.121a224.8,224.8,0,0,1-9.59-20.905c-2.783-7.134-5.318-14.307-8-21.467-5.514-14.281-10.779-43.966-17.234-57.985-3.266-7-6.677-13.954-10.609-20.7a104.984,104.984,0,0,0-6.533-9.812,29.646,29.646,0,0,0-8.754-8.284,30.874,30.874,0,0,1,8.022,8.689,103.99,103.99,0,0,1,5.84,10.008c3.606,6.82,6.729,13.823,9.695,20.905,5.945,14.111,11.21,43.744,16.489,58.077,2.77,7.147,5.37,14.294,8.3,21.441a184.648,184.648,0,0,0,10.126,20.905,217.592,217.592,0,0,0,27.137,38.583Z" transform="translate(-0.01 -164.577)" fill="#263238"/>
        <path id="Path_27136" data-name="Path 27136" d="M171.68,321.7c14.059,31.58,69.065,133.27,103.01,139.384,22.212,4,111.254-7.839,125.874-29.542,6.376-9.446-7.264-73.168-19.076-70.254S298.4,376.3,289.519,374.066,212,298.285,186.706,280.359C143.04,249.406,164.115,304.7,171.68,321.7Z" transform="translate(-13.058 -137.196)" fill="#eb9481"/>
        <path id="Path_27137" data-name="Path 27137" d="M356.143,358.943l5.357,96.372s-70.306,15.457-101,4.86c-37.25-12.87-91.773-128.266-99.3-147.237-12.256-31.135-8.859-49.976,8.506-45.377,6.742,1.738,15.679,7.055,26.5,16.633,11.38,9.982,76.748,74.749,97.378,86.978C305.174,378.018,356.143,358.943,356.143,358.943Z" transform="translate(-14.902 -138.496)" fill="#00a3b1"/>
        <path id="Path_27138" data-name="Path 27138" d="M318.2,434.135a21.31,21.31,0,0,0-5.3,2.8,21.259,21.259,0,0,0,5.84-1.307,20.905,20.905,0,0,0,5.3-2.783,20.685,20.685,0,0,0-5.84,1.293Zm-52.968-75.7a20.762,20.762,0,0,0-5.292,2.783,22.943,22.943,0,0,0,11.132-4.129A20.8,20.8,0,0,0,265.229,358.432ZM211.791,312.7a21.309,21.309,0,0,0-5.3,2.8,23.047,23.047,0,0,0,11.145-4.129,21.138,21.138,0,0,0-5.84,1.32Zm38.844,103.611a21.036,21.036,0,0,0-5.3,2.783,22.944,22.944,0,0,0,11.132-4.129,20.607,20.607,0,0,0-5.827,1.333ZM312.8,379.167a21.088,21.088,0,0,0-5.3,2.8,21.258,21.258,0,0,0,5.84-1.307,20.9,20.9,0,0,0,5.3-2.783,20.682,20.682,0,0,0-5.84,1.28Zm-93.354-16.855a21.231,21.231,0,0,0-5.226,2.8,21.258,21.258,0,0,0,5.84-1.307,20.813,20.813,0,0,0,5.226-2.8,21.256,21.256,0,0,0-5.84,1.293Zm139.8,53.216c-.222-.888-.51-1.764-.81-2.613a21.311,21.311,0,0,0-2.8-5.3,20.8,20.8,0,0,0,1.307,5.84,21.869,21.869,0,0,0,2.4,4.782Zm-73.86,5.37a21.258,21.258,0,0,0-2.783-5.3,21.245,21.245,0,0,0,1.307,5.84,20.906,20.906,0,0,0,2.8,5.3,20.7,20.7,0,0,0-1.267-5.853Zm-46.684-82.536a21.229,21.229,0,0,0-2.8-5.292,21.258,21.258,0,0,0,1.307,5.84,20.76,20.76,0,0,0,2.8,5.292,20.774,20.774,0,0,0-1.307-5.84ZM187.24,287.695a21.037,21.037,0,0,0-2.783-5.3,22.943,22.943,0,0,0,4.129,11.132,20.606,20.606,0,0,0-1.411-5.827ZM260.068,445.2a20.694,20.694,0,0,0-5.684-1.829,20.9,20.9,0,0,0,5.069,3.175,21.14,21.14,0,0,0,5.723,1.777A21.112,21.112,0,0,0,260.068,445.2Zm64.113-39.654a20.9,20.9,0,0,0-5.723-1.764,23.348,23.348,0,0,0,10.805,4.952,21.663,21.663,0,0,0-5.083-3.24Zm-21.114,52.929a20.692,20.692,0,0,0-5.723-1.777,17.132,17.132,0,0,0,3.162,2.2l3.083-.17Zm-51.844-75.193a20.7,20.7,0,0,0-5.723-1.777,23.23,23.23,0,0,0,10.792,4.952,20.906,20.906,0,0,0-5.069-3.227ZM172.829,315.25a20.7,20.7,0,0,0-5.723-1.777,20.9,20.9,0,0,0,5.069,3.175,21.141,21.141,0,0,0,5.723,1.777,21.112,21.112,0,0,0-5.043-3.227Zm48.6,83.934a20.407,20.407,0,0,0-1.764,5.723,21.178,21.178,0,0,0,3.175-5.083,21.612,21.612,0,0,0,1.777-5.723,21.243,21.243,0,0,0-3.162,5.03ZM195.3,345.3a20.409,20.409,0,0,0-1.764,5.723,21.179,21.179,0,0,0,3.175-5.083,21.611,21.611,0,0,0,1.777-5.723,21.662,21.662,0,0,0-3.149,5.03Zm83.163,43.273a21.141,21.141,0,0,0-1.738,5.671,20.526,20.526,0,0,0,3.188-5.07,21.612,21.612,0,0,0,1.777-5.723,20.762,20.762,0,0,0-3.188,5.069ZM154.72,287.473c.131.719.274,1.437.444,2.182a18.972,18.972,0,0,0,1.307-4.573,15.9,15.9,0,0,0-1.712,2.339Z" transform="translate(-14.651 -133.739)" fill="#fff"/>
        <path id="Path_27139" data-name="Path 27139" d="M300.238,430.178c-1.228-14.215-4.09-72.58-3.854-85.24,0-.875.575-1.071.679-.157,4.677,42.516,3.24,71.325,3.724,85.332C300.8,430.426,300.264,430.5,300.238,430.178Z" transform="translate(28.773 -114.796)" fill="#263238"/>
        <path id="Path_27140" data-name="Path 27140" d="M161.241,312.934c7.447,18.971,62,134.38,99.3,147.237,9.146,3.175,21.95,4.011,35.277,3.658L167.448,267.047c-3.7-.562-6.663.065-8.819,1.79C151.7,274.312,152.37,290.435,161.241,312.934Z" transform="translate(-14.888 -138.504)" opacity="0.1"/>
        <path id="Path_27141" data-name="Path 27141" d="M61.67,465.084l193.032-.51L244.027,398.2s15.261-18.527,12.373-38.622c-3.162-22.016-42.868-77.832-46.2-81.007-13.445-12.621-27.673-14.882-41.34-10.335h0C105.714,308.009,61.67,465.084,61.67,465.084Z" transform="translate(-43.177 -138.74)" fill="#00a3b1"/>
        <path id="Path_27142" data-name="Path 27142" d="M74.065,425.716a26,26,0,0,0-3.253,1.49l-.392,1.111a25.031,25.031,0,0,0,4.181-1.15,20.669,20.669,0,0,0,5.3-2.8A20.8,20.8,0,0,0,74.065,425.716ZM143.81,298.979a21.228,21.228,0,0,0-5.226,2.8,21.167,21.167,0,0,0,5.827-1.307,20.67,20.67,0,0,0,5.3-2.8,21.256,21.256,0,0,0-5.906,1.28Zm91.081,18.762a17.677,17.677,0,0,0-2.613,1.594,16.063,16.063,0,0,0,3.2-.523C235.322,318.46,235.1,318.108,234.89,317.742ZM185.163,346.63a21.259,21.259,0,0,0-5.3,2.783A23.048,23.048,0,0,0,191,345.284,20.8,20.8,0,0,0,185.163,346.63Zm-24.825,75.585a21.038,21.038,0,0,0-5.3,2.783,21.243,21.243,0,0,0,5.84-1.307,20.815,20.815,0,0,0,5.226-2.8,20.6,20.6,0,0,0-5.723,1.32Zm84.927-56.065a21.231,21.231,0,0,0-5.226,2.8,21.257,21.257,0,0,0,5.84-1.307,20.815,20.815,0,0,0,5.226-2.8,21.257,21.257,0,0,0-5.814,1.307Zm-126.658,3.371a21.181,21.181,0,0,0-5.226,2.783,22.943,22.943,0,0,0,11.132-4.129,20.8,20.8,0,0,0-5.88,1.346Zm95.209,50.629a21.038,21.038,0,0,0-5.3,2.783,21.243,21.243,0,0,0,5.84-1.307,21.009,21.009,0,0,0,5.292-2.8,20.6,20.6,0,0,0-5.8,1.32ZM162.637,270.8l-.392-.967c-.431.3-.849.614-1.307.928.078.2.144.379.209.575a20.905,20.905,0,0,0,2.8,5.252,21.258,21.258,0,0,0-1.307-5.788ZM114.451,424.109a21.257,21.257,0,0,0-2.783-5.3A23.048,23.048,0,0,0,115.8,429.95,20.7,20.7,0,0,0,114.451,424.109Zm69.4-30.221a21.179,21.179,0,0,0-2.783-5.226,22.943,22.943,0,0,0,4.129,11.132A20.8,20.8,0,0,0,183.856,393.888Zm-24.55-65.145a21.232,21.232,0,0,0-2.8-5.292,23.426,23.426,0,0,0,4.129,11.132,21.245,21.245,0,0,0-1.333-5.84ZM244.6,439.553a20.617,20.617,0,0,0-2.783-5.3,21.244,21.244,0,0,0,1.307,5.84,21.008,21.008,0,0,0,2.8,5.292,20.6,20.6,0,0,0-1.32-5.827Zm-31.58-148.008a21.038,21.038,0,0,0-2.783-5.3,22.943,22.943,0,0,0,4.129,11.132,20.6,20.6,0,0,0-1.346-5.827ZM139,399.023a20.906,20.906,0,0,0-5.723-1.764,23.348,23.348,0,0,0,10.805,4.952A21.665,21.665,0,0,0,139,399.023Zm68.555,62.99a16.225,16.225,0,0,0,2.13,1.568h3.11a19.6,19.6,0,0,0-5.239-1.568ZM94.3,450.828a21.142,21.142,0,0,0-5.723-1.777,20.592,20.592,0,0,0,5.083,3.188,21.374,21.374,0,0,0,5.71,1.777,20.528,20.528,0,0,0-5.069-3.188Zm116.925-67.8a20.906,20.906,0,0,0-5.71-1.777,20.526,20.526,0,0,0,5.069,3.188,21.127,21.127,0,0,0,5.723,1.764,21.18,21.18,0,0,0-5.083-3.175ZM198.7,319.009a20.7,20.7,0,0,0-5.723-1.777,20.907,20.907,0,0,0,5.07,3.175,21.14,21.14,0,0,0,5.723,1.777,21.112,21.112,0,0,0-5.07-3.136Zm-75.18,17.717a20.7,20.7,0,0,0-1.777,5.723,20.9,20.9,0,0,0,3.175-5.082,20.474,20.474,0,0,0,1.777-5.71,20.905,20.905,0,0,0-3.175,5.109Zm60.572,105.035a21.127,21.127,0,0,0-1.764,5.723,20.9,20.9,0,0,0,3.175-4.965,21.14,21.14,0,0,0,1.777-5.723,21.583,21.583,0,0,0-3.188,5Zm37.093-92.7a20.408,20.408,0,0,0-1.764,5.723A21.178,21.178,0,0,0,222.6,349.7a21.611,21.611,0,0,0,1.777-5.723,21.662,21.662,0,0,0-3.188,5.122Zm-82.9,98.1a21.141,21.141,0,0,0-1.777,5.814,20.526,20.526,0,0,0,3.188-5.069,21.127,21.127,0,0,0,1.764-5.723,21.115,21.115,0,0,0-3.175,5.017Zm-41.915-48a21.009,21.009,0,0,0-1.777,5.723,23.008,23.008,0,0,0,4.952-10.805A21.18,21.18,0,0,0,96.368,399.154ZM155.4,368.044a20.475,20.475,0,0,0-1.777,5.71,20.905,20.905,0,0,0,3.175-5.07,21.14,21.14,0,0,0,1.777-5.723,21.18,21.18,0,0,0-3.175,5.083Zm23.766-74.121a20.474,20.474,0,0,0-1.777,5.71,20.905,20.905,0,0,0,3.175-5.07,21.139,21.139,0,0,0,1.777-5.723,21.18,21.18,0,0,0-3.175,5.122Z" transform="translate(-40.495 -137.59)" fill="#fff"/>
        <path id="Path_27143" data-name="Path 27143" d="M191.491,296.249c3.737,6.219,7.839,12.216,11.759,18.292-1.581-4.338-3.123-8.676-4.847-12.948a.078.078,0,0,1,.131-.078,90.074,90.074,0,0,1,6.677,16.149,122.6,122.6,0,0,1,7.839,14.372,57.488,57.488,0,0,1,5.226,18.893,48.5,48.5,0,0,1-2.744,19.442,125.784,125.784,0,0,1-9.773,20.591c-.5.875-1.712.065-1.307-.81,5.475-11.681,11.524-23.962,10.975-37.2s-6.637-25.151-12.608-36.505a181.455,181.455,0,0,0-11.759-20.03C190.877,296.236,191.321,295.962,191.491,296.249Z" transform="translate(-3.524 -129.529)" fill="#263238"/>
        <path id="Path_27144" data-name="Path 27144" d="M238.98,407.5l-3.92,21.937H356.727a14.908,14.908,0,0,0,14.137-11.955l1.751-9.982Z" transform="translate(9.978 -95.385)" fill="#dbdbdb"/>
        <path id="Path_27145" data-name="Path 27145" d="M227.62,417.482l1.764-9.982h23.9l-1.764,9.982a14.882,14.882,0,0,1-14.059,11.955,9.943,9.943,0,0,1-7.839-3.5A10.27,10.27,0,0,1,227.62,417.482Z" transform="translate(7.632 -95.385)" fill="#ebebeb"/>
        <path id="Path_27146" data-name="Path 27146" d="M275.7,290.565,244.25,468.95H354A14.908,14.908,0,0,0,368.047,457L399.5,278.61H289.745a14.189,14.189,0,0,0-9.068,3.5,14.646,14.646,0,0,0-4.978,8.453Z" transform="translate(12.795 -134.898)" fill="#dbdbdb"/>
        <path id="Path_27147" data-name="Path 27147" d="M280.57,278.61l-6.35,36.035H407.829l4.246-24.08c1.163-6.6-3.253-11.955-9.838-11.955Z" transform="translate(21.983 -134.898)" fill="#ebebeb"/>
        <path id="Path_27148" data-name="Path 27148" d="M269.316,290.565l-4.246,24.08h23.9l4.246-24.08c1.163-6.6-3.24-11.955-9.838-11.955a14.189,14.189,0,0,0-9.068,3.5A14.647,14.647,0,0,0,269.316,290.565Z" transform="translate(19.178 -134.898)" fill="#dbdbdb"/>
        <path id="Path_27149" data-name="Path 27149" d="M367.174,331.41c4.468,12.739,17.351,29.319,17.495,39.354a11.524,11.524,0,0,1-7.643,11.406s9.355,5.971,7.983,15.091c-.706,4.691-8.832,7.683-8.832,7.683s7.291,5.109,5.566,13.144c-1.372,6.4-9.3,8.44-9.3,8.44s4.7,8.166,1.215,14.242c-7.082,12.308-62.963,6.376-69.4-15.13-3.005-10.021,10.57-7.839,10.57-7.839S296.057,409.961,297,398.385s18.383-7.643,18.383-7.643-18.109-7.774-15.94-19.664c2.273-12.36,19.063-5.461,19.063-5.461s-11.537-9.734-7.839-18.449c6.18-14.372,27.725,6.82,40.321,5.226l8.924-19.6Z" transform="translate(28.956 -118.711)" fill="#eb9481"/>
        <path id="Path_27150" data-name="Path 27150" d="M362.178,356.4c-3.175-12.425,13.2-25.609,11.864-37.89-1.79-16.659-21.82-2.613-28.4,20.578l-1.947,18.88Z" transform="translate(43.28 -124.9)" fill="#eb9481"/>
        <path id="Path_27151" data-name="Path 27151" d="M367.3,407.04a.144.144,0,0,1,0,.287c-18.867,2.535-40.347-.47-57.2-9.551-.562-.287-.314-1.307.366-1.111C329.662,402.7,347.131,406.517,367.3,407.04Z" transform="translate(32.888 -98.714)" fill="#263238"/>
        <path id="Path_27152" data-name="Path 27152" d="M372.4,391.324c.222,0,.209.366,0,.392-19.455,2.509-43.561-1.542-61.761-14.294-.614-.431-.745-1.45,0-1.006C323.379,383.981,354.24,390.945,372.4,391.324Z" transform="translate(32.992 -104.948)" fill="#263238"/>
        <path id="Path_27153" data-name="Path 27153" d="M312.775,356.583c17.913,11.55,37.734,16.188,58.8,18.018.274,0,.209.418,0,.457-10.531,1.908-23.819-.666-33.971-3.541a55.986,55.986,0,0,1-25.151-14.307C312.083,356.936,312.383,356.348,312.775,356.583Z" transform="translate(33.652 -111.011)" fill="#263238"/>
        <path id="Path_27154" data-name="Path 27154" d="M151.121,280.015c.261,3.4,12.621,27.059,27.7,28.666,4.913.51,8.911-26.131,8.911-26.131l.758-1.895,10.453-26.641-29.2-25.792-4.259-3.462s-2.365,7.474-5.226,16.8c-.131.431-.274.875-.405,1.307s-.353,1.019-.5,1.516c-.444,1.385-.888,2.809-1.307,4.233-.327,1.084-.64,2.13-.941,3.279s-.614,2.273-.941,3.41C153.146,266.662,151.029,278.643,151.121,280.015Z" transform="translate(-15.756 -151.407)" fill="#eb9481"/>
        <path id="Path_27155" data-name="Path 27155" d="M158.08,241.532a57.4,57.4,0,0,0,28.274,39.092l10.452-26.641-29.2-25.792-4.259-3.462S160.941,232.2,158.08,241.532Z" transform="translate(-13.621 -151.416)" fill="#263238"/>
        <path id="Path_27156" data-name="Path 27156" d="M244.217,238.884c-6.611,49.754-37.159,51.413-47.886,49.976-9.734-1.307-42.738-6.99-41.3-57.162s26.667-62.833,49.1-61.03S250.841,189.117,244.217,238.884Z" transform="translate(-14.57 -168.039)" fill="#eb9481"/>
        <path id="Path_27157" data-name="Path 27157" d="M219.3,220.21a32.675,32.675,0,0,1-3.188-1.385,5.514,5.514,0,0,1-2.966-2.025,1.764,1.764,0,0,1,.444-2.13,4.429,4.429,0,0,1,4.482-.144,6.533,6.533,0,0,1,3.541,3.07,1.908,1.908,0,0,1-2.313,2.613Z" transform="translate(3.203 -154.709)" fill="#263238"/>
        <path id="Path_27158" data-name="Path 27158" d="M192.46,213.325a33.98,33.98,0,0,0,3.462,0,5.631,5.631,0,0,0,3.541-.706,1.79,1.79,0,0,0,.431-2.13,4.442,4.442,0,0,0-4.077-1.895,6.533,6.533,0,0,0-4.455,1.437,1.908,1.908,0,0,0,1.1,3.293Z" transform="translate(-3.604 -156.368)" fill="#263238"/>
        <path id="Path_27159" data-name="Path 27159" d="M197.359,220.6c0-.144-.287.1-.314.248-.5,3.384-1.633,7.173-4.887,7.735-.091,0-.118.2,0,.2C195.961,228.975,197.424,223.88,197.359,220.6Z" transform="translate(-3.198 -152.695)" fill="#263238"/>
        <path id="Path_27160" data-name="Path 27160" d="M195.595,217.509c-5.331-1.385-7.722,9.394-2.77,10.675S200.063,218.672,195.595,217.509Z" transform="translate(-3.799 -153.667)" fill="#263238"/>
        <path id="Path_27161" data-name="Path 27161" d="M194.115,217.963c-1.071.405-2.234,1.307-3.384,1.137-1.307-.157-2.091-1.516-2.7-2.783-.065-.131-.183-.065-.209.078-.5,2.064-.17,4.351,1.986,5.148,1.947.732,3.8-.771,4.782-2.731C194.768,218.446,194.559,217.806,194.115,217.963Z" transform="translate(-4.567 -154.017)" fill="#263238"/>
        <path id="Path_27162" data-name="Path 27162" d="M211.623,223.006c0-.118.222.222.183.366-.875,3.306-1.307,7.238,1.45,9.028.091.065,0,.222-.065.183C209.624,231.185,210.265,225.972,211.623,223.006Z" transform="translate(2.462 -151.952)" fill="#263238"/>
        <path id="Path_27163" data-name="Path 27163" d="M215.318,220.837c5.461.823,3.41,11.668-1.633,10.91S210.758,220.158,215.318,220.837Z" transform="translate(2.531 -152.619)" fill="#263238"/>
        <path id="Path_27164" data-name="Path 27164" d="M216.04,221.731c.745.732,1.4,1.934,2.417,2.2s2.26-.706,3.227-1.685c.1-.1.17,0,.157.144-.34,2.091-1.437,4.116-3.5,4.142s-2.874-2.012-2.979-4.168C215.334,221.953,215.739,221.43,216.04,221.731Z" transform="translate(3.938 -152.363)" fill="#263238"/>
        <path id="Path_27165" data-name="Path 27165" d="M192.14,242.635c.588.98,1.084,2.26,2.26,2.613a9.146,9.146,0,0,0,3.763.131.118.118,0,0,1,.1.209,4.625,4.625,0,0,1-4.678.653,3.593,3.593,0,0,1-1.8-3.606C191.787,242.492,192.075,242.492,192.14,242.635Z" transform="translate(-3.297 -145.96)" fill="#263238"/>
        <path id="Path_27166" data-name="Path 27166" d="M207.6,243.312s-.353,5.135-.849,7.5c0,.222-.64.2-1.45.078a.078.078,0,0,1-.091,0,11.472,11.472,0,0,1-10.008-6.454.248.248,0,0,1,.418-.261,17.168,17.168,0,0,0,9.629,5.07c.3-.614.3-8.819.679-8.767a20.631,20.631,0,0,1,5.109,2.326c1.045-10.688.366-21.454,1.568-32.076a.327.327,0,0,1,.653,0c1.5,11.236.562,23.518-.235,34.624C212.949,246.7,208.467,243.913,207.6,243.312Z" transform="translate(-2.247 -155.809)" fill="#263238"/>
        <path id="Path_27167" data-name="Path 27167" d="M159.362,232.917c11.5,2.352,14.947-15.823,14.947-15.823s13.288,1.307,18.357-19.533c0,0,3.8,13.954,21,19.99,3.645,1.307-7.029-10.884-7.029-10.884s12.4,16.554,41.353,16.829c2.038,0,5.919-30.43-14.033-44.75s-43.117-12.308-59.436-1.124c0,0-15.679,5.514-20.422,20.369S154.893,232,159.362,232.917Z" transform="translate(-15.4 -168.618)" fill="#263238"/>
        <path id="Path_27168" data-name="Path 27168" d="M189.857,242.873A16.659,16.659,0,1,1,211,227.195h0a16.685,16.685,0,0,1-16.985,16.254,16.292,16.292,0,0,1-4.155-.575Zm8.375-29.946a11,11,0,1,0,.039,0Z" transform="translate(-7.612 -155.879)" fill="#ebebeb"/>
        <path id="Path_27169" data-name="Path 27169" d="M218.081,247.273c-6.128-1.712-9.943-9.551-8.6-18.135a19.86,19.86,0,0,1,5.226-10.962,10.374,10.374,0,0,1,17.534,2.757,19.847,19.847,0,0,1,1.672,12.047c-1.424,9.068-8.075,15.587-14.829,14.529a7.463,7.463,0,0,1-1.006-.235Zm6.716-30.286a5.773,5.773,0,0,0-.823-.183,8.924,8.924,0,0,0-7.63,2.94,17.769,17.769,0,0,0-4.664,9.734c-1.228,7.839,2.26,14.96,7.839,15.836s11.054-4.821,12.295-12.674a17.769,17.769,0,0,0-1.45-10.7,9.146,9.146,0,0,0-5.631-4.952Z" transform="translate(2.054 -154.556)" fill="#ebebeb"/>
        <path id="Path_27170" data-name="Path 27170" d="M202.83,225.489l-1.15-1.908c2.822-1.712,9.028-3.619,12.373,1.307l-1.842,1.307C209.219,221.727,203.091,225.333,202.83,225.489Z" transform="translate(-0.255 -152.332)" fill="#ebebeb"/>
        <path id="Path_27171" data-name="Path 27171" d="M146.36,221.232l-1.79-1.307c.614-.836,6.141-8.179,11.184-8.205,4.7,0,33.749,7.382,34.99,7.7l-.562,2.156c-8.323-2.13-30.783-7.643-34.415-7.63C152.436,214.007,147.849,219.259,146.36,221.232Z" transform="translate(-17.763 -155.404)" fill="#ebebeb"/>
        <path id="Path_27172" data-name="Path 27172" d="M165.295,224.732s-7.3-17.678-15.091-15.4-4.678,26.236,2.8,31.083a8.493,8.493,0,0,0,12.1-1.986Z" transform="translate(-17.426 -156.2)" fill="#eb9481"/>
        <path id="Path_27173" data-name="Path 27173" d="M150.032,214.52a.118.118,0,0,0-.091.209c5.226,3.593,7.029,9.551,7.9,15.509-1.228-2.482-3.279-4.155-6.533-2.77a.183.183,0,0,0,.078.34,5.226,5.226,0,0,1,5.226,3.031,24.119,24.119,0,0,1,1.685,5.135c.157.562,1.137.5,1.071-.131V235.7C161.033,228.448,157.636,216.99,150.032,214.52Z" transform="translate(-16.131 -154.546)" fill="#263238"/>
        <path id="Path_27174" data-name="Path 27174" d="M189.175,270.28l-7.029,22.943L152.212,267.51l-7.042,9.656s30.743,42.293,30.743,40.255l7.513-19.886L197.8,309.712l-3.92-33.291Z" transform="translate(-17.579 -138.301)" fill="#ebebeb"/>
        <path id="Path_27175" data-name="Path 27175" d="M196.882,291.028c-.823-5.474-1.5-11.014-2.613-16.45,0-.183-.353-.248-.379,0-.653,5.409,2.613,26.327,3.031,31.358h0c-.6-.536-13.222-10.662-13.327-10.453-1.725,3.2-7.251,17.691-7.6,19-4.86-6.716-25.321-33.1-30.939-39.354a.188.188,0,1,0-.314.209c4.4,7.16,30.913,42.006,31.227,41.888A215.587,215.587,0,0,0,183.8,296.2c2.182,2.247,15.039,13.81,15.012,12.987A171.257,171.257,0,0,0,196.882,291.028Z" transform="translate(-17.721 -136.184)" fill="#263238"/>
        <path id="Path_27176" data-name="Path 27176" d="M171.82,310.56c-11.628,50.094-44.567,106.132-65.42,122.608-12.7,10.021-53.347,10.113-55.163-16.188s77.989-108.732,89.735-124.764S182.325,265.366,171.82,310.56Z" transform="translate(-46.385 -134.981)" fill="#eb9481"/>
        <path id="Path_27177" data-name="Path 27177" d="M171.82,310.56c-11.628,50.094-44.567,106.132-65.42,122.608-12.7,10.021-53.347,10.113-55.163-16.188s77.989-108.732,89.735-124.764S182.325,265.366,171.82,310.56Z" transform="translate(-46.385 -134.981)" fill="#00a3b1"/>
        <path id="Path_27178" data-name="Path 27178" d="M79.954,419.183a21.231,21.231,0,0,0-5.226,2.8,21.165,21.165,0,0,0,5.827-1.307,20.668,20.668,0,0,0,5.3-2.8,20.8,20.8,0,0,0-5.906,1.307ZM149.7,292.447a21.228,21.228,0,0,0-5.226,2.8,21.167,21.167,0,0,0,5.827-1.307,20.67,20.67,0,0,0,5.3-2.8,21.256,21.256,0,0,0-5.906,1.28ZM124.521,363a21.182,21.182,0,0,0-5.226,2.783,22.943,22.943,0,0,0,11.132-4.129,20.8,20.8,0,0,0-5.906,1.333Zm-19.9-22.395a21.088,21.088,0,0,0-2.731-5.357,21.257,21.257,0,0,0,1.307,5.84,20.9,20.9,0,0,0,2.8,5.3,21.153,21.153,0,0,0-1.372-5.788ZM72.14,390.452a21.31,21.31,0,0,0-2.8-5.3,23.048,23.048,0,0,0,4.129,11.145,21.244,21.244,0,0,0-1.333-5.84Zm45.429,21.82a18.292,18.292,0,0,0,.941,4.651l1.032-1.307a17.706,17.706,0,0,0-1.973-3.345Zm47.637-90.062a21.231,21.231,0,0,0-2.8-5.292,20.709,20.709,0,0,0,1.307,5.827,22.485,22.485,0,0,0,2.234,4.534c.1-.34.222-.666.327-1.006h0a25.071,25.071,0,0,0-1.084-4.063ZM91.02,364.125a21.127,21.127,0,0,0-5.723-1.764,20.9,20.9,0,0,0,5.069,3.175,21.14,21.14,0,0,0,5.723,1.777,21.584,21.584,0,0,0-5.069-3.188Zm38.387-33.971a20.7,20.7,0,0,0-1.777,5.723,20.9,20.9,0,0,0,3.175-5.083,20.473,20.473,0,0,0,1.777-5.71,20.905,20.905,0,0,0-3.175,5.148Zm-27.15,62.467a21.009,21.009,0,0,0-1.777,5.723,23.008,23.008,0,0,0,4.952-10.805A21.18,21.18,0,0,0,102.257,392.621ZM52.163,410.155c-.34.771-.666,1.555-.941,2.365a3.451,3.451,0,0,0,0,.523,12.459,12.459,0,0,0,.157,1.581,24.249,24.249,0,0,0,2.169-3.828,21.467,21.467,0,0,0,1.777-5.723A20.905,20.905,0,0,0,52.163,410.155Z" transform="translate(-46.383 -131.057)" fill="#fff"/>
        <path id="Path_27179" data-name="Path 27179" d="M66.612,431.336a53.569,53.569,0,0,0,16.541.091A44.7,44.7,0,0,0,98.4,425.979c9.956-5.723,16.619-15.418,22.538-24.955q9.734-15.679,18.292-32.115c5.684-10.936,10.9-22.12,15.927-33.37,2.548-5.671,4.86-11.419,7.278-17.142s4.7-11.38,6.807-17.168c.536-1.463,1.032-2.927,1.542-4.39a.11.11,0,0,1,.209.065c-1.881,5.984-3.671,12.033-5.7,17.965-.261.771-.549,1.542-.823,2.313,2.1-4.482,4.259-8.937,6.533-13.34.131-.261.5,0,.392.235-2.012,4.573-4.1,9.146-6.245,13.6q-1.594,3.332-3.2,6.637c-1.019,2.744-2.077,5.5-3.162,8.231q-7.016,17.56-15.6,34.376t-18.5,32.939c-6.049,9.891-12.543,20.056-22.329,26.654a42.594,42.594,0,0,1-31.946,6.441,29.525,29.525,0,0,1-3.92-1.124.261.261,0,0,1,.118-.5Z" transform="translate(-41.743 -129.334)" fill="#263238"/>
        <path id="Path_27180" data-name="Path 27180" d="M81.43,262.628c8.3-20.186,21.754-47.873,30.8-52.106,9.512-4.4,43.574-18.514,52.55-19.233s40.8,8.584,46.553,14.229c4.586,4.521-3.371,15.287-21.506,13.745-16.985-1.45-20.905-2.613-25.831-1.868s-19.494,12.5-18.214,19.69c.758,4.22,10.622,11.5,18.292,10.178s12.282-8.819,21.754-13.2,23.061,0,22.891,3.92-5.226,4.495-15.5,15.339c-6.637,6.964-11.419,20.8-25.334,32.155-6.99,5.7-20.827,22.107-20.827,22.107Z" transform="translate(-37.12 -161.68)" fill="#eb9481"/>
        <path id="Path_27181" data-name="Path 27181" d="M105,211.953c9.355-8.741,31.24-23.2,49.78-25.321,12.53-1.45,46.853,27.778,43.77,34.977s-9.773,5.514-19.4,1.777c-3.5-1.307-20.905-13.157-25.151-9.982-6.167,4.56-17.194,22.734-17.194,22.734Z" transform="translate(-29.894 -163.111)" fill="#eb9481"/>
        <path id="Path_27182" data-name="Path 27182" d="M181.68,216.267c-2.783-9.277-12.334-16.306-22.068-22.421-.157-.1-.314.131-.157.222,2.469,1.568,17.7,13.967,22.068,22.29C181.575,216.45,181.706,216.358,181.68,216.267Z" transform="translate(-13.22 -160.892)" fill="#263238"/>
        <path id="Path_27183" data-name="Path 27183" d="M105,211.952c9.355-8.741,31.24-23.2,49.78-25.321,12.53-1.45,37.276,31,34.206,38.217s-12.87,5.318-22.551-1.124c-3.136-2.091-12.582-13.17-16.868-10.008-6.18,4.56-21.284,15.94-21.284,15.94Z" transform="translate(-29.894 -163.11)" fill="#eb9481"/>
        <path id="Path_27184" data-name="Path 27184" d="M129.689,222.694c1.489-1.307,2.012-1.855,3.528-3.2s3.044-2.613,4.651-3.92a15.208,15.208,0,0,1,4.468-2.8,7.761,7.761,0,0,1,4.952.274c3.606,1.307,6.337,4.495,9,7.108,2.979,2.9,9.394,8.022,15.1,8.858a11.289,11.289,0,0,0,4.678,0,7.121,7.121,0,0,0,3.175-1.424c3.449-3.462,1.646-8.9-.575-13.066-4.155-7.63-10.714-14.072-17.247-19.6-1.607-1.372-3.253-2.7-4.887-4.037a16.985,16.985,0,0,0-6.245-3.671c-3.854-1.019-11.184,1.307-13.445,1.96-.17,0-.222-.222,0-.274,2.744-.875,9.865-4.168,16.005-2.247,2.247.706,4.076,2.417,5.919,3.841s3.815,3.057,5.657,4.664a90.432,90.432,0,0,1,10.061,10.074c2.888,3.436,5.906,7.356,7.343,11.668,1.307,3.737.706,8.44-2.182,11.276-2.43,2.391-6.232,2.143-7.957,1.934a18.9,18.9,0,0,1-4.9-1.307,78.97,78.97,0,0,1-9.865-5.867c-3.031-2.208-5.488-5.226-8.689-7.212a6.716,6.716,0,0,0-5.122-.967,17.509,17.509,0,0,0-4.651,2.469,53.933,53.933,0,0,0-8.205,5.827C129.519,223.635,129.062,223.269,129.689,222.694Z" transform="translate(-22.415 -163.268)" fill="#263238"/>
        <path id="Path_27185" data-name="Path 27185" d="M99.44,223.416c3.724-4.338,13.066-23.779,18.684-29.045s29.241-22.342,37.433-19.233c10.3,3.92-5.67,20.173-13.249,26.6S132.235,221.8,132.235,221.8Z" transform="translate(-31.598 -166.734)" fill="#eb9481"/>
        <path id="Path_27186" data-name="Path 27186" d="M145.667,187.011c-2.613,1.986-5.069,4.3-7.474,6.533a64.177,64.177,0,0,0-6.742,6.533,28.117,28.117,0,0,0-4.312,8.192,43.107,43.107,0,0,0-1.307,4.377c-.366,1.476-.706,3.279-1.163,4.874,0,.17.209.274.261.091a71.989,71.989,0,0,1,3.41-8.493,39.2,39.2,0,0,1,4.913-8.061c3.92-4.913,8.806-8.924,12.752-13.81C146.15,187.089,145.862,186.867,145.667,187.011Z" transform="translate(-23.864 -162.993)" fill="#263238"/>
        <path id="Path_27187" data-name="Path 27187" d="M141.768,237.766a13.6,13.6,0,0,0,9.642-3.253c2.509-1.881,4.9-3.92,7.421-5.788a32.378,32.378,0,0,1,8.035-4.743,37.367,37.367,0,0,1,10.322-1.725,20.173,20.173,0,0,1,9.93,1.45c2.535,1.2,5.226,3.828,3.828,6.912a12.034,12.034,0,0,1-2.848,3.632,29.964,29.964,0,0,1-3.528,2.874c-2.5,1.79-5.148,3.4-7.474,5.435-3.1,2.718-5.226,6.415-7.5,9.825-.849,1.307-6.272,9.852-8.336,12.765a51.883,51.883,0,0,1-5.814,6.951,72.114,72.114,0,0,1-6.677,5.435,42.116,42.116,0,0,0-6.964,6.232c-.091.118-.248,0-.183-.157,2.613-4.808,7.4-8.035,11.759-11.223,5.579-4.129,17.965-25.452,20.213-28.352,3.737-4.821,9.407-7.134,13.667-11.328.98-.967,2.482-2.339,2.456-3.854a4.272,4.272,0,0,0-2.613-3.253c-2.927-1.555-6.533-1.45-9.721-1.137a44.423,44.423,0,0,0-9.9,1.633,32.662,32.662,0,0,0-7.918,4.142c-2.8,1.934-5.474,3.92-8.414,5.671a13.706,13.706,0,0,1-9.46,2.117C141.533,237.988,141.612,237.753,141.768,237.766Z" transform="translate(-18.672 -152.209)" fill="#263238"/>
        <path id="Path_27188" data-name="Path 27188" d="M178.369,200.994c-2.234-1.1-4.455-2.286-6.729-3.319v-.1c2.692,1.071,5.461,1.96,8.166,3.005,2.143.823,4.351,2.025,5.226,4.272a6.3,6.3,0,0,1-1.307,6.167,16.841,16.841,0,0,1-5.906,4c-.118.065-.209-.118-.091-.183,3.253-1.881,8.3-5.671,5.644-10A11.472,11.472,0,0,0,178.369,200.994Z" transform="translate(-9.464 -159.743)" fill="#263238"/>
        <path id="Path_27189" data-name="Path 27189" d="M168.487,218.527c2.548.078,5.37,0,7.63-1.307a5.448,5.448,0,0,0,2.783-4.129,2.718,2.718,0,0,0-.248-1.842c-.1-.131.144-.248.183-.091a8.315,8.315,0,0,0,.405.993,4.338,4.338,0,0,1,.2.888,4.848,4.848,0,0,1-.144,1.79,5.8,5.8,0,0,1-2.26,3.123c-2.548,1.829-5.71,1.659-8.584.81A.122.122,0,0,1,168.487,218.527Z" transform="translate(-10.466 -155.6)" fill="#263238"/>
        <path id="Path_27190" data-name="Path 27190" d="M157.212,291.264c-5.566,20.082-47.873,127.181-59.632,142.3s-40.36,18.37-48.343-8.95S82.816,266.714,91.6,246.279C96.5,234.912,159.211,283.986,157.212,291.264Z" transform="translate(-47.299 -145.331)" fill="#eb9481"/>
        <path id="Path_27191" data-name="Path 27191" d="M166.68,301.967,83.661,253.82S48.148,375.631,47.521,413.195c-.457,26.954,31.854,47.1,57.384,10.662S166.68,301.967,166.68,301.967Z" transform="translate(-47.516 -142.498)" fill="#00a3b1"/>
        <path id="Path_27192" data-name="Path 27192" d="M85.256,255a21.835,21.835,0,0,0-3.07,4.926,21.128,21.128,0,0,0-1.764,5.723,20.9,20.9,0,0,0,3.175-5.069A21.323,21.323,0,0,0,85.348,255h0ZM58.5,371.154a21.127,21.127,0,0,0-1.764,5.723,20.9,20.9,0,0,0,3.175-5.069,21.141,21.141,0,0,0,1.777-5.749A21.846,21.846,0,0,0,58.5,371.154Zm-6.141,50.081a21.01,21.01,0,0,0-1.777,5.723,20.9,20.9,0,0,0,3.162-5.083,21.467,21.467,0,0,0,1.777-5.723,20.905,20.905,0,0,0-3.162,5.083ZM102.451,403.7a21.009,21.009,0,0,0-1.777,5.723,23.009,23.009,0,0,0,4.952-10.805,21.18,21.18,0,0,0-3.175,5.083Zm27.908-122.569v.366l.222-.274Zm-.758,60.22a20.7,20.7,0,0,0-1.777,5.723A20.906,20.906,0,0,0,131,341.991a20.474,20.474,0,0,0,1.777-5.71,20.905,20.905,0,0,0-3.175,5.03ZM91.319,327.71a20.565,20.565,0,0,0-1.777,5.684,23.348,23.348,0,0,0,4.952-10.805,21.18,21.18,0,0,0-3.175,5.083Zm28.431-14.438a21.141,21.141,0,0,0-5.723-1.777,20.524,20.524,0,0,0,5.069,3.188,21.125,21.125,0,0,0,5.723,1.725,21.113,21.113,0,0,0-5.069-3.175ZM91.214,375.2a21.127,21.127,0,0,0-5.723-1.764,20.905,20.905,0,0,0,5.069,3.175,21.14,21.14,0,0,0,5.723,1.777,21.585,21.585,0,0,0-5.069-3.188ZM78.8,298.665a20.908,20.908,0,0,0-5.723-1.777,23.009,23.009,0,0,0,10.805,4.952,21.178,21.178,0,0,0-5.083-3.123ZM72.269,401.479a21.309,21.309,0,0,0-2.8-5.3A23.048,23.048,0,0,0,73.6,407.319a21.245,21.245,0,0,0-1.267-5.788Zm32.547-49.793a21.088,21.088,0,0,0-2.731-5.357,21.258,21.258,0,0,0,1.307,5.84,20.9,20.9,0,0,0,2.8,5.3,21.153,21.153,0,0,0-1.372-5.788Zm19.9,22.434a21.18,21.18,0,0,0-5.226,2.783,22.944,22.944,0,0,0,11.132-4.129,20.8,20.8,0,0,0-5.906,1.294ZM69.264,344.983a20.813,20.813,0,0,0-5.226,2.8,21.738,21.738,0,0,0,5.84-1.307,20.814,20.814,0,0,0,5.226-2.8,20.8,20.8,0,0,0-5.84,1.307Zm32.494-60.925a21.31,21.31,0,0,0-5.3,2.8,21.259,21.259,0,0,0,5.84-1.307,20.906,20.906,0,0,0,5.3-2.8,21.153,21.153,0,0,0-5.84,1.307ZM149.892,303.5a21.233,21.233,0,0,0-5.226,2.8,21.166,21.166,0,0,0,5.827-1.307,20.671,20.671,0,0,0,5.3-2.8A21.257,21.257,0,0,0,149.892,303.5ZM80.148,430.237a21.231,21.231,0,0,0-5.226,2.8,21.166,21.166,0,0,0,5.827-1.307,20.669,20.669,0,0,0,5.3-2.8,20.8,20.8,0,0,0-5.906,1.333Z" transform="translate(-46.577 -142.136)" fill="#fff"/>
        <path id="Path_27193" data-name="Path 27193" d="M147.356,312.359c-12.569-6.755-63.029-36.231-73.494-43.339-.732-.5-.588-1.084.235-.666,38.2,19.285,61.5,36.166,73.547,43.469A.305.305,0,0,1,147.356,312.359Z" transform="translate(-39.585 -138.086)" fill="#263238"/>
        <path id="Path_27194" data-name="Path 27194" d="M110.9,371.6c8.767-16.463,17.194-33.1,24.825-50.146q3.175-7.16,6.219-14.372c1.947-4.625,3.92-9.264,5.671-13.967-1.738-1.215-9.368-6.206-10.191-6.977a.333.333,0,0,1,.34-.549c1.019.379,9.878,5.514,11.759,6.912.274.2-3.5,9.368-5.226,13.758s-3.475,8.754-5.3,13.066q-5.435,12.9-11.5,25.491c-4.351,9.068-8.9,18-13.719,26.8C109.563,379.2,99.568,392.811,110.9,371.6Z" transform="translate(-29.688 -132.762)" fill="#263238"/>
      </g>
      <g id="freepik--Pencil--inject-44" transform="translate(337.898 561.02)">
        <path id="Path_27195" data-name="Path 27195" d="M366.37,460.035s16.28,2.208,16.881-9.015-15.823-10.779-15.823-10.779Z" transform="translate(-233.244 -434.074)" fill="#e89300"/>
        <rect id="Rectangle_8309" data-name="Rectangle 8309" width="19.821" height="115.54" transform="matrix(0.054, -0.999, 0.999, 0.054, 18.444, 19.826)" fill="#00a3b1"/>
        <rect id="Rectangle_8310" data-name="Rectangle 8310" width="23.139" height="4.586" transform="matrix(0.054, -0.999, 0.999, 0.054, 129.763, 27.489)" fill="#37474f"/>
        <rect id="Rectangle_8311" data-name="Rectangle 8311" width="23.139" height="4.599" transform="matrix(0.054, -0.999, 0.999, 0.054, 124.684, 27.205)" fill="#37474f"/>
        <path id="Path_27196" data-name="Path 27196" d="M283.948,435.52,269.314,442.2l-4.834,2.182,4.573,2.744,13.837,8.205,2.979-1.842-2.77-2.117,2.979-1.855-2.77-2.1,2.979-1.816s-2.718-2.1-2.757-2.156l2.979-1.8-2.77-2.156,2.979-1.8Z" transform="translate(-264.48 -435.52)" fill="#c5c1c1"/>
        <path id="Path_27197" data-name="Path 27197" d="M269.314,440.63l-4.834,2.182,4.573,2.744Z" transform="translate(-264.48 -433.953)" fill="#37474f"/>
      </g>
      <g id="freepik--Calculator--inject-44" transform="translate(120.134 550.489)">
        <path id="Path_27198" data-name="Path 27198" d="M238.089,427.46l16.92,43.692H100.56l18.462-43.639Z" transform="translate(-100.56 -427.46)" fill="#00a3b1"/>
        <path id="Path_27199" data-name="Path 27199" d="M239.317,429.89l15.692,40.517v7.408H100.56v-7.408l17.129-40.477Z" transform="translate(-100.56 -426.715)" fill="#00a3b1"/>
        <path id="Path_27200" data-name="Path 27200" d="M238.089,427.46l16.92,43.692H100.56l18.462-43.639Z" transform="translate(-100.56 -427.46)" opacity="0.1"/>
        <path id="Path_27201" data-name="Path 27201" d="M151.009,451.9l-.967,8.4H131.28l1.8-8.4Z" transform="translate(-91.142 -419.967)" fill="#fff"/>
        <path id="Path_27202" data-name="Path 27202" d="M151.638,444.62l-.98,8.4H132.85l1.816-8.4Z" transform="translate(-90.661 -422.199)" fill="#fff"/>
        <path id="Path_27203" data-name="Path 27203" d="M152.255,437.34l-.967,8.4H134.42l1.816-8.4Z" transform="translate(-90.18 -424.431)" fill="#e89300"/>
        <path id="Path_27204" data-name="Path 27204" d="M152.881,430.06l-.98,8.388-15.9.013,1.816-8.4Z" transform="translate(-89.695 -426.663)" fill="#e89300"/>
        <path id="Path_27205" data-name="Path 27205" d="M166.525,451.9l-.013,8.4H147.75l.849-8.4Z" transform="translate(-86.093 -419.967)" fill="#37474f"/>
        <path id="Path_27206" data-name="Path 27206" d="M166.3,444.62v8.4H148.49l.849-8.4Z" transform="translate(-85.866 -422.199)" fill="#37474f"/>
        <path id="Path_27207" data-name="Path 27207" d="M166.088,437.34v8.388H149.22l.849-8.388Z" transform="translate(-85.643 -424.431)" fill="#37474f"/>
        <path id="Path_27208" data-name="Path 27208" d="M165.951,430.05v8.4h-15.9l.836-8.388Z" transform="translate(-85.388 -426.666)" fill="#fff"/>
        <path id="Path_27209" data-name="Path 27209" d="M182.056,451.9l.954,8.4H164.248l-.118-8.4Z" transform="translate(-81.072 -419.967)" fill="#37474f"/>
        <path id="Path_27210" data-name="Path 27210" d="M181,444.62l.954,8.388-17.809.013-.118-8.4Z" transform="translate(-81.102 -422.199)" fill="#37474f"/>
        <path id="Path_27211" data-name="Path 27211" d="M179.949,437.33l.954,8.4H164.048l-.118-8.388Z" transform="translate(-81.133 -424.434)" fill="#37474f"/>
        <path id="Path_27212" data-name="Path 27212" d="M178.895,430.05l.954,8.4h-15.9l-.118-8.4Z" transform="translate(-81.164 -426.666)" fill="#fff"/>
        <path id="Path_27213" data-name="Path 27213" d="M197.8,451.9l1.921,8.4H180.941l-1.071-8.4Z" transform="translate(-76.246 -419.967)" fill="#37474f"/>
        <path id="Path_27214" data-name="Path 27214" d="M195.9,444.61l1.921,8.4H180.014l-1.084-8.388Z" transform="translate(-76.534 -422.202)" fill="#37474f"/>
        <path id="Path_27215" data-name="Path 27215" d="M194.008,437.33l1.921,8.4H179.074l-1.084-8.4Z" transform="translate(-76.823 -424.434)" fill="#37474f"/>
        <path id="Path_27216" data-name="Path 27216" d="M192.125,430.04l1.921,8.4-15.914.013-1.071-8.4Z" transform="translate(-77.108 -426.669)" fill="#fff"/>
        <path id="Path_27217" data-name="Path 27217" d="M213.526,451.9l2.887,8.388-18.762.013-2.051-8.4Z" transform="translate(-71.424 -419.967)" fill="#37474f"/>
        <path id="Path_27218" data-name="Path 27218" d="M210.8,444.61l2.888,8.4H195.868l-2.038-8.4Z" transform="translate(-71.967 -422.202)" fill="#37474f"/>
        <path id="Path_27219" data-name="Path 27219" d="M208.068,437.32l2.888,8.4-16.855.013-2.051-8.4Z" transform="translate(-72.512 -424.437)" fill="#fff"/>
        <path id="Path_27220" data-name="Path 27220" d="M205.345,430.04l2.888,8.4h-15.9l-2.051-8.4Z" transform="translate(-73.055 -426.669)" fill="#fff"/>
        <path id="Path_27221" data-name="Path 27221" d="M137.767,456.686h0c-.745,0-1.307-.235-1.307-.575s.732-.575,1.463-.575h0c.745,0,1.307.222,1.307.575S138.472,456.686,137.767,456.686Zm.144-.836h0c-.431,0-.8.1-.836.261s.314.261.732.261h0c.431,0,.8-.1.823-.261S138.328,455.85,137.91,455.85Zm3.5.431-4.508-1.594a.112.112,0,0,1-.118-.131c.013-.052.157-.131.314-.131h.2l4.521,1.607a.125.125,0,0,1,.118.118c0,.039-.157.144-.327.144a.431.431,0,0,1-.2-.013Zm-.653-1.071h0c-.745,0-1.307-.235-1.307-.575s.719-.575,1.437-.575h0c.732,0,1.307.235,1.307.575s-.706.575-1.437.575Zm.131-.849h0c-.431,0-.8.118-.823.274s.314.261.719.261h0c.431,0,.8-.1.823-.261s-.314-.274-.719-.274Z" transform="translate(-89.554 -419.305)" fill="#37474f"/>
        <path id="Path_27222" data-name="Path 27222" d="M141.31,442.69c-1.372,0-2.378-.575-2.247-1.307a1.307,1.307,0,0,1,.679-.81.719.719,0,0,1,.549,0c.157.065.17.2,0,.274a.862.862,0,0,0-.47.562.6.6,0,0,0,.379.627,2.469,2.469,0,0,0,1.163.261,2.952,2.952,0,0,0,1.241-.261.967.967,0,0,0,.6-.627.588.588,0,0,0-.287-.562c-.1-.078-.065-.209.118-.274a.679.679,0,0,1,.536,0,.875.875,0,0,1,.418.81C143.9,442.115,142.695,442.69,141.31,442.69Z" transform="translate(-88.76 -423.457)" fill="#fff"/>
        <path id="Path_27223" data-name="Path 27223" d="M143.764,440.356H139.74c-.209,0-.353-.091-.34-.2h0l.209-1.124c0-.1.2-.2.405-.2s.366.091.353.2l-.17.941H141.5l.131-.81c0-.1.209-.2.405-.2s.366.091.353.2l-.131.81h1.307l.157-.941c0-.1.2-.2.405-.2s.353.091.34.2l-.17,1.124h0A.62.62,0,0,1,143.764,440.356Z" transform="translate(-88.653 -423.971)" fill="#fff"/>
        <path id="Path_27224" data-name="Path 27224" d="M142.646,434.621c-1.307,0-2.221-.588-2.1-1.307a1.307,1.307,0,0,1,.653-.81.641.641,0,0,1,.51,0c.157.078.157.209,0,.287a.823.823,0,0,0-.457.562.666.666,0,0,0,.353.627,2.181,2.181,0,0,0,1.084.248,2.613,2.613,0,0,0,1.163-.248,1.006,1.006,0,0,0,.575-.627.588.588,0,0,0-.274-.562c-.091-.078,0-.209.118-.287a.562.562,0,0,1,.51,0,.862.862,0,0,1,.379.81C145.063,434.033,143.939,434.621,142.646,434.621Z" transform="translate(-88.306 -425.932)" fill="#fff"/>
        <path id="Path_27225" data-name="Path 27225" d="M153.667,454.53l4.455.875c.157,0,.248.091.248.17a.183.183,0,0,1,0,.078.758.758,0,0,1-.562.1l-3.92-.758v.9c0,.1-.209.2-.444.2s-.418-.091-.405-.2l.078-1.2h0l.078-.078h.51Z" transform="translate(-84.472 -419.161)" fill="#fff"/>
        <path id="Path_27226" data-name="Path 27226" d="M156.894,447.25c.954,0,1.712.379,1.685.836s-.81.836-1.764.836a2.4,2.4,0,0,1-1.424-.379,2.024,2.024,0,0,1-.719.118c-.653,0-1.176-.261-1.163-.575s.575-.575,1.228-.575a1.948,1.948,0,0,1,.706.118,2.613,2.613,0,0,1,1.45-.379Zm0,.379c-.51,0-.954.209-.967.457s.405.444.928.457.941-.209.954-.457-.418-.457-.928-.457Zm-2.2.653c.235,0,.418-.091.431-.2s-.183-.2-.405-.2-.405.091-.405.2.157.144.366.144Z" transform="translate(-84.327 -421.393)" fill="#fff"/>
        <path id="Path_27227" data-name="Path 27227" d="M155.61,441.626c-.928,0-1.646-.379-1.62-.849s.706-.8,1.542-.836h.405a8.241,8.241,0,0,1,1.385.118,2.8,2.8,0,0,1,1.15.457.732.732,0,0,1,.3.523c0,.1-.157.2-.379.2s-.366-.078-.379-.183a.444.444,0,0,0-.183-.327,1.438,1.438,0,0,0-.47-.222h-.17a.5.5,0,0,1,.118.327C157.283,441.247,156.525,441.626,155.61,441.626Zm0-.379c.5,0,.915-.209.928-.47s-.379-.457-.875-.457-.9.209-.915.457.379.47.875.47Z" transform="translate(-84.18 -423.634)" fill="#fff"/>
        <path id="Path_27228" data-name="Path 27228" d="M156.359,434.193c-.209,0-.379-.091-.379-.2v-1.1c0-.1.2-.209.405-.209s.366.1.366.209V434C156.751,434.1,156.568,434.193,156.359,434.193Z" transform="translate(-83.57 -425.857)" fill="#37474f"/>
        <path id="Path_27229" data-name="Path 27229" d="M172.9,454.4c.235,0,.431.078.431.2h.575c.235,0,.418.091.431.2s-.17.2-.405.2h-.575l.078,1.084h0a.137.137,0,0,1-.091.118.745.745,0,0,1-.588,0l-3.593-1.307h3.319C172.48,454.478,172.663,454.4,172.9,454.4Zm-2.26.614,1.934.693v-.693Z" transform="translate(-79.557 -419.201)" fill="#fff"/>
        <path id="Path_27230" data-name="Path 27230" d="M170.625,447.551a2.809,2.809,0,0,1,1.307-.261,3.176,3.176,0,0,1,1.307.261c.366.17.549.392.562.614h0c0,.222-.144.444-.483.614a.758.758,0,0,1-.588,0c-.17-.078-.17-.209,0-.287s.287-.209.274-.327a.483.483,0,0,0-.314-.34,1.725,1.725,0,0,0-.692-.131,1.6,1.6,0,0,0-.692.131.392.392,0,0,0-.261.34c0,.118.1.235.3.327s.183.209,0,.287H171l-1.895-.1a.576.576,0,0,1-.287-.091h0a.17.17,0,0,1,0-.091v-1.032c0-.118.17-.209.405-.209s.405.091.405.209v.849h.719a.418.418,0,0,1-.078-.235C170.115,447.943,170.272,447.72,170.625,447.551Z" transform="translate(-79.635 -421.393)" fill="#fff"/>
        <path id="Path_27231" data-name="Path 27231" d="M171.414,439.93c.915,0,1.685.379,1.712.849s-.588.8-1.424.849H171.3a7.367,7.367,0,0,1-1.411-.131,2.848,2.848,0,0,1-1.2-.444.836.836,0,0,1-.353-.523c0-.118.144-.2.353-.209s.379.078.405.183a.483.483,0,0,0,.209.34,1.778,1.778,0,0,0,.5.209h.183a.549.549,0,0,1-.157-.34C169.793,440.309,170.512,439.93,171.414,439.93Zm0,.392c-.483,0-.888.209-.875.457s.444.457.941.457.888-.2.862-.457-.405-.457-.9-.457Z" transform="translate(-79.784 -423.637)" fill="#fff"/>
        <path id="Path_27232" data-name="Path 27232" d="M170.509,434.154c0,.1-.144.183-.327.183s-.34-.078-.353-.183l-.078-1.411c0-.091.144-.183.327-.183s.327.078.34.183Zm-1.751-.941h0c.235,0,.444.1.444.235s-.183.248-.418.248h0c-.235,0-.431-.1-.444-.248s.17-.235.405-.235Zm2.613,0h0c.235,0,.431.1.431.235s-.17.248-.405.248h0c-.248,0-.444-.118-.457-.248s.248-.235.483-.235Z" transform="translate(-79.781 -425.897)" fill="#37474f"/>
        <path id="Path_27233" data-name="Path 27233" d="M185.506,454.83H190c.235,0,.431.091.457.2s-.144.2-.379.2h-3.815l.2.131s.078.078.078.1,0,.131-.183.157a.745.745,0,0,1-.588,0l-.627-.431h.327Z" transform="translate(-74.631 -419.069)" fill="#fff"/>
        <path id="Path_27234" data-name="Path 27234" d="M188.471,447.23c.235,0,.418.091.444.2l.235,1.241h0a.131.131,0,0,1-.1.144.8.8,0,0,1-.575,0l-2.13-1.045a1.764,1.764,0,0,0-.719-.144,1.41,1.41,0,0,0-.6.118c-.2.091-.274.209-.248.34s.118.209.287.3l.222.1c.17.078.17.2,0,.274a.757.757,0,0,1-.562,0l-.222-.1a.875.875,0,0,1-.549-.562.685.685,0,0,1,.47-.627,2.731,2.731,0,0,1,1.124-.222,3.123,3.123,0,0,1,1.307.287l1.307.653-.144-.745A.53.53,0,0,1,188.471,447.23Z" transform="translate(-74.996 -421.399)" fill="#fff"/>
        <path id="Path_27235" data-name="Path 27235" d="M184.575,440.225A2.4,2.4,0,0,1,185.7,440a3,3,0,0,1,1.241.248c.366.17.575.392.614.614a.6.6,0,0,1-.379.614.666.666,0,0,1-.549,0c-.17-.078-.183-.2,0-.274a.353.353,0,0,0,.209-.34.549.549,0,0,0-.34-.327,1.437,1.437,0,0,0-.679-.144,1.123,1.123,0,0,0-.614.144c-.17.091-.235.209-.222.327s0,.1-.091.144h0a.719.719,0,0,1-.549,0l-.771-.353.091.562c0,.1-.131.2-.353.2s-.405-.091-.418-.2l-.17-1.032c0-.118.144-.2.353-.2h.287l.967.444a.915.915,0,0,1,.248-.209Z" transform="translate(-75.373 -423.619)" fill="#fff"/>
        <path id="Path_27236" data-name="Path 27236" d="M183.032,432.822l1.124.418.98-.418a.588.588,0,0,1,.47,0s.091.078.091.118a.154.154,0,0,1-.1.157l-.823.353.954.34a.2.2,0,0,1,.17.144.352.352,0,0,1,0,.118.536.536,0,0,1-.457,0l-1.15-.418-.98.418a.588.588,0,0,1-.47,0c-.118-.092-.1-.2,0-.261l.81-.34-.928-.353c-.157-.065-.209-.183-.118-.274a.548.548,0,0,1,.431,0Z" transform="translate(-75.423 -425.831)" fill="#37474f"/>
        <path id="Path_27237" data-name="Path 27237" d="M204.47,455.061c0-.144.183-.261.5-.261s.6.118.653.261-.183.261-.5.261S204.522,455.205,204.47,455.061Z" transform="translate(-68.705 -419.078)" fill="#fff"/>
        <path id="Path_27238" data-name="Path 27238" d="M202.049,449.014a6.308,6.308,0,0,1-1.816-.235c-.5-.144-.9-.379-.98-.653s.2-.5.614-.64a4.913,4.913,0,0,1,1.659-.235,6.2,6.2,0,0,1,1.79.235c.51.144.928.379,1.006.64s-.2.51-.614.653a4.963,4.963,0,0,1-1.659.235Zm-.405-1.372a4.284,4.284,0,0,0-1.307.157c-.274.1-.392.222-.353.327s.209.235.536.34a5.372,5.372,0,0,0,1.307.17,4.286,4.286,0,0,0,1.241-.17c.274-.1.379-.222.34-.34s-.2-.222-.549-.327A5.223,5.223,0,0,0,201.644,447.643Z" transform="translate(-70.308 -421.394)" fill="#fff"/>
        <path id="Path_27239" data-name="Path 27239" d="M198.978,441.459c-.209,0-.418-.091-.457-.209l-.3-1.071c0-.118.118-.209.327-.209s.418.091.457.209l.314,1.071C199.357,441.316,199.239,441.459,198.978,441.459Zm1.307,0c-.235,0-.444-.091-.47-.209l-.327-1.071c0-.118.131-.209.353-.209s.431.091.457.209l.327,1.071c.013.065-.078.209-.366.209Z" transform="translate(-70.621 -423.625)" fill="#37474f"/>
        <path id="Path_27240" data-name="Path 27240" d="M197.654,433.648l.157.5c0,.1-.1.183-.3.183s-.392-.078-.418-.183l-.144-.5H196.1c-.2,0-.392-.091-.418-.2s.1-.209.314-.209h.888l-.144-.5c0-.1.1-.2.3-.2s.379.091.405.2l.144.5h.9a.47.47,0,0,1,.431.2c0,.118-.1.209-.314.209Z" transform="translate(-71.4 -425.9)" fill="#37474f"/>
        <path id="Path_27241" data-name="Path 27241" d="M138.572,446.92c.17,0,.3.065.287.144l-.078.444c1.019.183,3.685.64,4.455.745a.705.705,0,0,1,.235.078.1.1,0,0,1,.065.1s0,.091-.144.131-1.019.47-1.385.614a1.358,1.358,0,0,1-.758.091c-.039-.026,0,0,0-.078s0-.091.118-.131l.353-.157.287-.131.274-.118.287-.131-4.207-.732h-.1s-.091-.078-.078-.118l.1-.575C138.259,447.025,138.415,446.92,138.572,446.92Z" transform="translate(-89.027 -421.494)" fill="#37474f"/>
        <path id="Path_27242" data-name="Path 27242" d="M137.694,430.06,127.555,467H107.8l14.033-36.924Z" transform="translate(-98.34 -426.663)" fill="#455a64"/>
        <path id="Path_27243" data-name="Path 27243" d="M117.9,442.83h6.886c.366,0,.6.144.549.327s-.379.314-.745.314h-5.736l.183.235a.17.17,0,0,1,0,.17.627.627,0,0,1-.418.274.928.928,0,0,1-.849-.118l-.6-.706h.418Z" transform="translate(-95.468 -422.748)" fill="#fff"/>
        <path id="Path_27244" data-name="Path 27244" d="M125.629,440.24c.353,0,.575.144.523.327l-.627,2.064h0a.509.509,0,0,1-.274.235,1.176,1.176,0,0,1-.9,0l-2.535-1.738a1.816,1.816,0,0,0-1.019-.235,3.16,3.16,0,0,0-1.058.183,1.137,1.137,0,0,0-.679.562.418.418,0,0,0,.209.51l.261.183c.2.131.1.327-.2.457a1.111,1.111,0,0,1-.9,0l-.261-.183a.771.771,0,0,1-.379-.941,2.065,2.065,0,0,1,1.307-1.032,5.227,5.227,0,0,1,1.96-.366,3.436,3.436,0,0,1,1.868.457l1.62,1.111.379-1.241C124.95,440.384,125.277,440.24,125.629,440.24Z" transform="translate(-95.291 -423.542)" fill="#fff"/>
        <path id="Path_27245" data-name="Path 27245" d="M122.178,438.034a5.226,5.226,0,0,1,2.09-.418,3.54,3.54,0,0,1,1.829.418.888.888,0,0,1,.51,1.032,1.934,1.934,0,0,1-1.137,1.019,1.084,1.084,0,0,1-.9,0c-.209-.131-.144-.34.144-.47a1.032,1.032,0,0,0,.614-.549.483.483,0,0,0-.261-.562,1.973,1.973,0,0,0-1.006-.235,2.769,2.769,0,0,0-1.137.235,1.2,1.2,0,0,0-.64.549c0,.1-.118.183-.274.248h0a1.137,1.137,0,0,1-.9,0l-.967-.588-.327.941c0,.183-.405.327-.758.327s-.588-.144-.523-.327l.6-1.725c0-.183.405-.327.745-.327a.9.9,0,0,1,.287,0h.144l1.2.745A2.615,2.615,0,0,1,122.178,438.034Z" transform="translate(-95.054 -424.354)" fill="#fff"/>
        <path id="Path_27246" data-name="Path 27246" d="M125.784,434.51c.34,0,.549.144.5.327v.065h.836c.34,0,.549.131.5.314s-.353.327-.692.327h-.836l-.575,1.829h0a.366.366,0,0,1-.2.209,1.058,1.058,0,0,1-.862,0l-4.351-2.156h0v-.065h4.73v-.065C125.2,434.667,125.457,434.51,125.784,434.51Zm-3.632,1.032,2.326,1.163.379-1.163Z" transform="translate(-94.57 -425.299)" fill="#fff"/>
        <path id="Path_27247" data-name="Path 27247" d="M124.031,432.392a4.8,4.8,0,0,1,2.012-.431,3.266,3.266,0,0,1,1.725.431.862.862,0,0,1,.47,1.019h0a1.842,1.842,0,0,1-1.1,1.019.993.993,0,0,1-.862,0c-.2-.131-.131-.34.144-.47a1.019,1.019,0,0,0,.6-.562.457.457,0,0,0-.248-.549,1.738,1.738,0,0,0-.941-.235,2.614,2.614,0,0,0-1.1.235,1.006,1.006,0,0,0-.6.549.457.457,0,0,0,.235.562c.2.131.118.34-.157.47l-.157.065h-.379l-2.744-.17a.6.6,0,0,1-.379-.157h0a.118.118,0,0,1,0-.144l.6-1.725c0-.183.379-.327.719-.327s.549.144.483.327l-.5,1.437,1.045.065a1.006,1.006,0,0,1,0-.392,1.947,1.947,0,0,1,1.124-1.019Z" transform="translate(-94.438 -426.081)" fill="#fff"/>
      </g>
      <g id="freepik--speech-bubble--inject-44" transform="translate(283.064 142.452)">
        <path id="Path_27248" data-name="Path 27248" d="M315.028,161.924a43.613,43.613,0,0,1-69.614,35.029L224,202.4l8.9-19.9a43.626,43.626,0,1,1,82.078-20.578Z" transform="translate(-223.072 -118.062)" fill="#fff"/>
        <path id="Path_27249" data-name="Path 27249" d="M315.246,161.971a43.848,43.848,0,0,1-6.467,22.9,49.144,49.144,0,0,1-3.462,4.926,48.619,48.619,0,0,1-4.168,4.351c-.771.653-1.45,1.411-2.273,1.986l-2.417,1.816c-.8.6-1.7,1.084-2.535,1.62l-1.307.8c-.431.248-.9.457-1.307.679l-2.718,1.307-2.835,1.058a19.9,19.9,0,0,1-2.888.875c-.98.235-1.947.575-2.94.719a42.411,42.411,0,0,1-6.01.732,37.408,37.408,0,0,1-6.049,0,43.718,43.718,0,0,1-22.486-8.375l.392.078-21.336,5.566-1.15.3.483-1.1,8.845-19.912v.549a43.208,43.208,0,0,1-5.226-19.22,43.94,43.94,0,1,1,87.853-1.659Zm0,0a43.731,43.731,0,0,0-16.868-34.284,44.319,44.319,0,0,0-17.769-8.166,43.457,43.457,0,0,0-19.494.536,42.9,42.9,0,0,0-17.3,8.937,44.959,44.959,0,0,0-11.576,15.561,43.117,43.117,0,0,0,1.437,37.707l.144.274-.118.274-8.95,19.873-.666-.784,21.4-5.357h.209l.183.131a43.117,43.117,0,0,0,21.976,8.506,37.964,37.964,0,0,0,5.971.091,43.282,43.282,0,0,0,5.945-.64c.993-.144,1.947-.457,2.927-.679a20.078,20.078,0,0,0,2.874-.836l2.822-1.006,2.7-1.307c.457-.222.915-.418,1.307-.653l1.307-.771c.849-.536,1.751-.993,2.548-1.581l2.417-1.79a27.176,27.176,0,0,0,2.273-1.96,50.116,50.116,0,0,0,4.181-4.312,47.461,47.461,0,0,0,3.475-4.9,43.744,43.744,0,0,0,6.637-22.865Z" transform="translate(-223.29 -118.11)" fill="#263238"/>
        <path id="Path_27250" data-name="Path 27250" d="M260.481,179.411,244.24,162.987,249.7,157.6l9.473,9.59,19.7-30.874,6.454,4.116Z" transform="translate(-216.867 -112.527)" fill="#e89300"/>
      </g>
    </g>
  </g>
</svg>
