<svg xmlns="http://www.w3.org/2000/svg" width="96.003" height="96" viewBox="0 0 96.003 96">
  <g id="mission" transform="translate(0)">
    <path id="Path_14919" data-name="Path 14919" d="M74,76.442H2a2,2,0,0,1-1.756-2.96l36-66a2.083,2.083,0,0,1,3.512,0l36,66A2,2,0,0,1,74,76.442Zm-68.632-4h65.26L38,12.618Z" transform="translate(0 19.558)" fill="#e27e2b"/>
    <path id="Path_14920" data-name="Path 14920" d="M48.482,57h-20a2,2,0,1,1,0-4H45.1L26.6,19.36,18.974,35.136a2,2,0,1,1-3.6-1.744l9.312-19.264A2.006,2.006,0,0,1,26.434,13a2.106,2.106,0,0,1,1.8,1.036l22,40A2,2,0,0,1,48.482,57Z" transform="translate(45.517 39)" fill="#e27e2b"/>
    <path id="Path_14921" data-name="Path 14921" d="M11,30a2,2,0,0,1-2-2V2a2,2,0,0,1,2-2H35a2,2,0,0,1,1.416,3.416L29.828,10l6.584,6.584A2,2,0,0,1,35,20H13v8a2,2,0,0,1-2,2Zm2-14H30.172l-4.584-4.584a2,2,0,0,1,0-2.828L30.172,4H13Z" transform="translate(26.999)" fill="#e27e2b"/>
    <path id="Path_14922" data-name="Path 14922" d="M26.538,23.967c-.048,0-.092,0-.144,0a1.99,1.99,0,0,1-1.456-.8l-4.4-5.864-4.4,5.864a2.01,2.01,0,0,1-1.456.8,1.934,1.934,0,0,1-1.556-.58l-6.72-6.72a2,2,0,0,1,2.828-2.828l5.088,5.088,4.616-6.156a2.071,2.071,0,0,1,3.2,0l4.616,6.156,5.088-5.088a2,2,0,0,1,2.828,2.828l-6.72,6.72a2,2,0,0,1-1.412.584Z" transform="translate(17.462 36.033)" fill="#e27e2b"/>
  </g>
</svg>
