<svg xmlns="http://www.w3.org/2000/svg" width="360" height="360" viewBox="0 0 360 360">
  <g id="feature_illustration_1" transform="translate(0 -0.313)">
    <g id="Rectangle_7950" data-name="Rectangle 7950" transform="translate(0 0.313)" fill="#fff" stroke="#707070" stroke-width="1" opacity="0">
      <rect width="360" height="360" stroke="none"/>
      <rect x="0.5" y="0.5" width="359" height="359" fill="none"/>
    </g>
    <g id="Online_calendar-cuate" data-name="Online calendar-cuate" transform="translate(0 30.408)">
      <g id="freepik--Shadow--inject-242" transform="translate(113.749 251.129)">
        <ellipse id="Ellipse_497" data-name="Ellipse 497" cx="119.063" cy="9.86" rx="119.063" ry="9.86" fill="#ebebeb"/>
      </g>
      <g id="freepik--Floor--inject-242" transform="translate(0 226.949)">
        <path id="Path_25566" data-name="Path 25566" d="M.24,364.9l45-.165,45-.062,90-.117,90,.117,45,.062,45,.165-45,.172-45,.055-90,.117-90-.117-45-.055Z" transform="translate(-0.24 -364.56)" fill="#263238"/>
      </g>
      <g id="freepik--Device--inject-242" transform="translate(7.806 0)">
        <rect id="Rectangle_7951" data-name="Rectangle 7951" width="339.726" height="227.292" rx="2" transform="translate(0)" fill="#263238"/>
        <line id="Line_1364" data-name="Line 1364" y1="0.528" transform="translate(44.717 9.325)" fill="none"/>
        <rect id="Rectangle_7952" data-name="Rectangle 7952" width="292.381" height="207.846" transform="translate(23.782 9.593)" fill="#fff"/>
        <rect id="Rectangle_7953" data-name="Rectangle 7953" width="3.534" height="49.466" rx="1.25" transform="translate(12.035 88.913)" fill="#455a64"/>
        <circle id="Ellipse_498" data-name="Ellipse 498" cx="6.395" cy="6.395" r="6.395" transform="translate(319.971 118.403) rotate(-76.66)" fill="#455a64"/>
        <rect id="Rectangle_7954" data-name="Rectangle 7954" width="292.381" height="207.846" transform="translate(23.782 9.593)" fill="#fff"/>
        <rect id="Rectangle_7955" data-name="Rectangle 7955" width="292.381" height="7.143" transform="translate(23.782 9.593)" fill="#455a64"/>
        <path id="Path_25567" data-name="Path 25567" d="M172.8,92.882a1.461,1.461,0,1,1-.43-1.036,1.461,1.461,0,0,1,.43,1.036Z" transform="translate(-143.387 -79.721)" fill="#c7c7c7"/>
        <circle id="Ellipse_499" data-name="Ellipse 499" cx="1.462" cy="1.462" r="1.462" transform="translate(32.469 11.699)" fill="#fff"/>
        <circle id="Ellipse_500" data-name="Ellipse 500" cx="1.462" cy="1.462" r="1.462" transform="translate(38.446 11.699)" fill="#e27e28"/>
        <rect id="Rectangle_7956" data-name="Rectangle 7956" width="19.062" height="14.814" transform="translate(43.949 128.395)" fill="#ebebeb"/>
        <rect id="Rectangle_7957" data-name="Rectangle 7957" width="19.062" height="14.814" transform="translate(68.898 128.395)" fill="#ebebeb"/>
        <rect id="Rectangle_7958" data-name="Rectangle 7958" width="19.062" height="14.814" transform="translate(94.011 128.395)" fill="#ebebeb"/>
        <rect id="Rectangle_7959" data-name="Rectangle 7959" width="19.062" height="14.814" transform="translate(119.042 128.395)" fill="#ebebeb"/>
        <rect id="Rectangle_7960" data-name="Rectangle 7960" width="19.062" height="14.814" transform="translate(144.074 128.395)" fill="#ebebeb"/>
        <rect id="Rectangle_7961" data-name="Rectangle 7961" width="19.062" height="14.814" transform="translate(169.098 128.395)" fill="#ebebeb"/>
        <rect id="Rectangle_7962" data-name="Rectangle 7962" width="19.062" height="14.814" transform="translate(194.129 128.395)" fill="#ebebeb"/>
        <rect id="Rectangle_7963" data-name="Rectangle 7963" width="19.062" height="14.814" transform="translate(43.949 148.911)" fill="#ebebeb"/>
        <rect id="Rectangle_7964" data-name="Rectangle 7964" width="19.062" height="14.814" transform="translate(68.98 148.911)" fill="#ebebeb"/>
        <rect id="Rectangle_7965" data-name="Rectangle 7965" width="19.062" height="14.814" transform="translate(94.011 148.911)" fill="#ebebeb"/>
        <rect id="Rectangle_7966" data-name="Rectangle 7966" width="19.062" height="14.814" transform="translate(119.042 148.911)" fill="#ebebeb"/>
        <rect id="Rectangle_7967" data-name="Rectangle 7967" width="19.062" height="14.814" transform="translate(144.074 148.911)" fill="#ebebeb"/>
        <rect id="Rectangle_7968" data-name="Rectangle 7968" width="19.062" height="14.814" transform="translate(169.098 148.911)" fill="#ebebeb"/>
        <rect id="Rectangle_7969" data-name="Rectangle 7969" width="19.062" height="14.814" transform="translate(194.129 148.911)" fill="#ebebeb"/>
        <rect id="Rectangle_7970" data-name="Rectangle 7970" width="19.062" height="14.814" transform="translate(119.042 107.885)" fill="#ebebeb"/>
        <rect id="Rectangle_7971" data-name="Rectangle 7971" width="19.062" height="14.814" transform="translate(144.074 107.885)" fill="#ebebeb"/>
        <rect id="Rectangle_7972" data-name="Rectangle 7972" width="19.062" height="14.814" transform="translate(169.098 107.885)" fill="#ebebeb"/>
        <rect id="Rectangle_7973" data-name="Rectangle 7973" width="19.062" height="14.814" transform="translate(194.129 107.885)" fill="#ebebeb"/>
        <rect id="Rectangle_7974" data-name="Rectangle 7974" width="19.062" height="14.814" transform="translate(43.949 169.427)" fill="#ebebeb"/>
        <rect id="Rectangle_7975" data-name="Rectangle 7975" width="19.062" height="14.814" transform="translate(68.98 169.427)" fill="#ebebeb"/>
        <rect id="Rectangle_7976" data-name="Rectangle 7976" width="19.062" height="14.814" transform="translate(94.011 169.427)" fill="#ebebeb"/>
        <rect id="Rectangle_7977" data-name="Rectangle 7977" width="19.062" height="14.814" transform="translate(119.042 169.427)" fill="#00a3b1"/>
        <rect id="Rectangle_7978" data-name="Rectangle 7978" width="19.062" height="14.814" transform="translate(144.074 169.427)" fill="#ebebeb"/>
        <rect id="Rectangle_7979" data-name="Rectangle 7979" width="19.062" height="14.814" transform="translate(169.098 169.427)" fill="#ebebeb"/>
        <rect id="Rectangle_7980" data-name="Rectangle 7980" width="19.062" height="14.814" transform="translate(194.129 169.427)" fill="#ebebeb"/>
        <rect id="Rectangle_7981" data-name="Rectangle 7981" width="19.062" height="14.814" transform="translate(43.949 189.937)" fill="#ebebeb"/>
        <rect id="Rectangle_7982" data-name="Rectangle 7982" width="19.062" height="14.814" transform="translate(68.98 189.937)" fill="#ebebeb"/>
        <rect id="Rectangle_7983" data-name="Rectangle 7983" width="19.062" height="14.814" transform="translate(94.011 189.937)" fill="#ebebeb"/>
        <rect id="Rectangle_7984" data-name="Rectangle 7984" width="19.062" height="14.814" transform="translate(119.042 189.937)" fill="#ebebeb"/>
        <rect id="Rectangle_7985" data-name="Rectangle 7985" width="19.062" height="14.814" transform="translate(144.074 189.937)" fill="#ebebeb"/>
        <path id="Path_25568" data-name="Path 25568" d="M205.5,213.111a.631.631,0,0,1,.892-.082,4.068,4.068,0,0,0,2.354.947,2.635,2.635,0,0,0,1.537-.46,1.112,1.112,0,0,0,.528-.885.686.686,0,0,0-.117-.391,1.077,1.077,0,0,0-.364-.371,4.983,4.983,0,0,0-1.688-.576h0a6.6,6.6,0,0,1-1.585-.48,2.579,2.579,0,0,1-1.146-.961,1.866,1.866,0,0,1-.281-1,2.278,2.278,0,0,1,.981-1.8,3.636,3.636,0,0,1,2.127-.652,4.844,4.844,0,0,1,2.683.981.638.638,0,0,1,.172.871.624.624,0,0,1-.878.185,3.547,3.547,0,0,0-1.976-.782,2.354,2.354,0,0,0-1.372.419.974.974,0,0,0-.467.775.611.611,0,0,0,.089.343,1.216,1.216,0,0,0,.329.316,4.288,4.288,0,0,0,1.537.542h0a7.337,7.337,0,0,1,1.695.515,2.9,2.9,0,0,1,1.228,1.022,1.99,1.99,0,0,1,.295,1.043,2.367,2.367,0,0,1-1.057,1.908,3.815,3.815,0,0,1-2.271.686A5.29,5.29,0,0,1,205.6,214,.645.645,0,0,1,205.5,213.111Z" transform="translate(-154.524 -115.806)" fill="#00a3b1"/>
        <path id="Path_25569" data-name="Path 25569" d="M247.71,207.426v7.253a.686.686,0,1,1-1.372,0v-5.174l-1.77,2.456a.686.686,0,0,1-.556.288h0a.686.686,0,0,1-.563-.288l-1.756-2.456v5.174a.686.686,0,0,1-1.372,0v-7.253a.686.686,0,0,1,.686-.686h.041a.686.686,0,0,1,.542.281l2.443,3.431,2.45-3.431a.686.686,0,0,1,.549-.281h0A.686.686,0,0,1,247.71,207.426Z" transform="translate(-165.494 -115.913)" fill="#00a3b1"/>
        <path id="Path_25570" data-name="Path 25570" d="M283.963,208.122h-1.955v6.56a.686.686,0,0,1-1.372,0v-6.56h-1.949a.686.686,0,1,1,0-1.372h5.249a.686.686,0,0,1,.027,1.372Z" transform="translate(-177.319 -115.916)" fill="#00a3b1"/>
        <path id="Path_25571" data-name="Path 25571" d="M321.2,207.82l-3.012,7.17a.414.414,0,0,1-.062.11h0a.6.6,0,0,1-.062.075v.034l-.082.062h0c-.041,0-.062.062-.11.075h-.1a.341.341,0,0,1-.123,0,.3.3,0,0,1-.11,0h-.219a.248.248,0,0,1-.117-.075h0c-.041,0-.062-.048-.089-.062a.063.063,0,0,1,0-.034.548.548,0,0,1-.055-.075h0a.2.2,0,0,1-.048-.11l-1.66-3.808-1.613,3.808a.86.86,0,0,1-.048.11h0a.759.759,0,0,1-.075.075v.034a.329.329,0,0,0-.075.062h0a.755.755,0,0,1-.1.075h0a.178.178,0,0,0-.1,0h-.034a.321.321,0,0,1-.11,0,.355.355,0,0,1-.123,0h-.124a.4.4,0,0,1-.11-.075h0a.342.342,0,0,0-.082-.062v-.034l-.062-.075h0a.134.134,0,0,0-.062-.11l-3.026-7.17a.672.672,0,0,1,1.242-.515l2.415,5.7,1.585-3.774a.7.7,0,0,1,1.276,0L317.723,213l2.4-5.7a.6.6,0,1,1,1.077.515Z" transform="translate(-187.229 -115.964)" fill="#00a3b1"/>
        <path id="Path_25572" data-name="Path 25572" d="M356.27,208.122h-1.99v6.56a.686.686,0,1,1-1.372,0v-6.56h-1.921a.686.686,0,0,1,0-1.372h5.283a.686.686,0,0,1,0,1.372Z" transform="translate(-200.01 -115.916)" fill="#00a3b1"/>
        <path id="Path_25573" data-name="Path 25573" d="M388,214.679v-7.253a.686.686,0,0,1,.686-.686h4.021a.686.686,0,0,1,0,1.372h-3.335v2.237h2.868a.686.686,0,1,1,0,1.372h-2.868v2.951a.686.686,0,0,1-1.372.007Z" transform="translate(-211.841 -115.913)" fill="#00a3b1"/>
        <path id="Path_25574" data-name="Path 25574" d="M423.286,213.111a.638.638,0,0,1,.9-.082,4.048,4.048,0,0,0,2.347.947,2.635,2.635,0,0,0,1.537-.46,1.1,1.1,0,0,0,.528-.885.739.739,0,0,0-.11-.391,1.181,1.181,0,0,0-.37-.371,4.981,4.981,0,0,0-1.688-.576h0a6.7,6.7,0,0,1-1.585-.48,2.654,2.654,0,0,1-1.146-.961,1.866,1.866,0,0,1-.281-1,2.278,2.278,0,0,1,.981-1.8,3.635,3.635,0,0,1,2.127-.652,4.844,4.844,0,0,1,2.683.981.631.631,0,0,1,.172.871.618.618,0,0,1-.871.185,3.567,3.567,0,0,0-1.983-.782,2.366,2.366,0,0,0-1.372.419.974.974,0,0,0-.467.775.611.611,0,0,0,.089.343,1.212,1.212,0,0,0,.329.316,4.335,4.335,0,0,0,1.537.542h0a7.236,7.236,0,0,1,1.695.515,2.862,2.862,0,0,1,1.228,1.022,1.991,1.991,0,0,1,.3,1.043,2.367,2.367,0,0,1-1.057,1.908,3.815,3.815,0,0,1-2.271.686,5.291,5.291,0,0,1-3.15-1.228.686.686,0,0,1-.1-.885Z" transform="translate(-222.878 -115.806)" fill="#00a3b1"/>
        <path id="Path_25575" data-name="Path 25575" d="M206.974,273.707a.192.192,0,0,1,0-.274.206.206,0,0,1,.281,0,1.455,1.455,0,0,0,2.059,0,1.456,1.456,0,0,0-2.059-2.058.185.185,0,0,1-.268,0,.1.1,0,0,1-.048-.062h0a.152.152,0,0,1,0-.062.294.294,0,0,0,0-.034l.261-2.2a.226.226,0,0,1,.206-.185h2.539a.2.2,0,1,1,0,.391h-2.374l-.2,1.619a1.845,1.845,0,0,1,2.772,1.6,1.818,1.818,0,0,1-.542,1.311,1.853,1.853,0,0,1-2.621,0Z" transform="translate(-155.01 -135.397)" fill="#263238"/>
        <path id="Path_25576" data-name="Path 25576" d="M243.459,269.967a2.2,2.2,0,0,1,1.908-1.187.185.185,0,0,1,.192.178.206.206,0,0,1-.185.206,1.846,1.846,0,0,0-1.592.988,3.752,3.752,0,0,0-.391,1.091,1.8,1.8,0,1,1-.453,1.249,3.052,3.052,0,0,1,0-.357A4.453,4.453,0,0,1,243.459,269.967Zm-.137,2.5a.408.408,0,0,0,0,.1.116.116,0,0,1,0,.055,1.462,1.462,0,1,0,0-.185Z" transform="translate(-166.314 -135.383)" fill="#263238"/>
        <path id="Path_25577" data-name="Path 25577" d="M280.446,273.968l2.024-4.8h-2.642a.192.192,0,0,1,0-.377h2.889a.179.179,0,0,1,.22.13.169.169,0,0,1,0,.062.159.159,0,0,1,0,.1l-2.113,5.03a.206.206,0,0,1-.178.117.116.116,0,0,1-.075,0,.2.2,0,0,1-.124-.254Z" transform="translate(-177.844 -135.383)" fill="#263238"/>
        <path id="Path_25578" data-name="Path 25578" d="M317.184,268.77a1.139,1.139,0,0,1,1.139,1.132,1.167,1.167,0,0,1-.467.919,1.77,1.77,0,1,1-1.372,0,1.16,1.16,0,0,1-.453-.919,1.132,1.132,0,0,1,1.153-1.132Zm0,5.084a1.372,1.372,0,1,0-1.372-1.372A1.372,1.372,0,0,0,317.184,273.854Zm0-3.184a.775.775,0,0,0,.762-.768.762.762,0,0,0-.762-.762.748.748,0,0,0-.755.762A.762.762,0,0,0,317.184,270.671Z" transform="translate(-189.057 -135.38)" fill="#263238"/>
        <path id="Path_25579" data-name="Path 25579" d="M354.082,268.77a1.791,1.791,0,0,1,1.791,1.592.089.089,0,0,0,0,.034v.474a4.584,4.584,0,0,1-.521,2.175,2.279,2.279,0,0,1-1.914,1.187h0a.185.185,0,0,1-.192-.185.2.2,0,0,1,.185-.2,1.873,1.873,0,0,0,1.592-.988,3.663,3.663,0,0,0,.391-1.1,1.8,1.8,0,1,1-1.372-2.992Zm1.427,1.791a1.413,1.413,0,1,0-.416,1.009A1.427,1.427,0,0,0,355.509,270.561Z" transform="translate(-200.621 -135.38)" fill="#263238"/>
        <path id="Path_25580" data-name="Path 25580" d="M388.237,269.322l-.768.446a.164.164,0,0,1-.1,0,.2.2,0,0,1-.165-.1.178.178,0,0,1,.069-.254l1.057-.638a.192.192,0,0,1,.254.068.2.2,0,0,1,0,.137V274a.189.189,0,1,1-.377,0Z" transform="translate(-211.584 -135.376)" fill="#263238"/>
        <path id="Path_25581" data-name="Path 25581" d="M391.35,271.5a3.478,3.478,0,0,1,.521-1.914,1.551,1.551,0,0,1,2.745,0,3.541,3.541,0,0,1,.528,1.914,3.479,3.479,0,0,1-.528,1.9,1.537,1.537,0,0,1-2.745,0A3.432,3.432,0,0,1,391.35,271.5Zm.384,0a3.082,3.082,0,0,0,.46,1.688,1.153,1.153,0,0,0,2.059,0,3.26,3.26,0,0,0,0-3.383,1.16,1.16,0,0,0-2.059,0A3.086,3.086,0,0,0,391.734,271.5Z" transform="translate(-212.892 -135.374)" fill="#263238"/>
        <path id="Path_25582" data-name="Path 25582" d="M426,269.321l-.775.446a.145.145,0,0,1-.089,0,.185.185,0,0,1-.165-.1.178.178,0,0,1,.068-.254l1.05-.638a.2.2,0,0,1,.261.069.24.24,0,0,1,0,.137V274a.185.185,0,0,1-.185.192.192.192,0,0,1-.185-.192Z" transform="translate(-223.434 -135.376)" fill="#263238"/>
        <path id="Path_25583" data-name="Path 25583" d="M429.807,269.322l-.775.446a.143.143,0,0,1-.089,0,.185.185,0,0,1-.165-.1.179.179,0,0,1,.069-.254l1.05-.638a.2.2,0,0,1,.261.069.238.238,0,0,1,0,.137V274a.185.185,0,0,1-.185.192.192.192,0,0,1-.185-.192Z" transform="translate(-224.63 -135.376)" fill="#263238"/>
        <path id="Path_25584" data-name="Path 25584" d="M317.966,238.9l-.768.453a.227.227,0,0,1-.1,0,.192.192,0,0,1-.165-.089.185.185,0,0,1,.069-.261l1.057-.638a.192.192,0,0,1,.254.069.219.219,0,0,1,0,.144V243.6a.189.189,0,0,1-.377,0Z" transform="translate(-189.53 -125.832)" fill="#263238"/>
        <path id="Path_25585" data-name="Path 25585" d="M352.475,243.488l2.546-2.3a1.381,1.381,0,0,0-.933-2.422,1.434,1.434,0,0,0-.954.357l-.261.24a.187.187,0,1,1-.268-.261l.268-.254a1.832,1.832,0,0,1,1.208-.46,1.757,1.757,0,0,1,1.311.583,1.729,1.729,0,0,1,.467,1.194,1.805,1.805,0,0,1-.583,1.331l-2.182,1.969h2.58a.192.192,0,0,1,0,.384h-3.067a.158.158,0,0,1-.137-.055.2.2,0,0,1,.007-.309Z" transform="translate(-200.668 -125.845)" fill="#263238"/>
        <path id="Path_25586" data-name="Path 25586" d="M392.835,238.715l-1.414,1.475a1.825,1.825,0,0,1,.933.494,1.846,1.846,0,0,1,.542,1.311,1.8,1.8,0,0,1-.549,1.311,1.839,1.839,0,0,1-1.311.549,1.819,1.819,0,0,1-1.3-.549.192.192,0,1,1,.275-.268,1.461,1.461,0,0,0,2.491-1.043,1.441,1.441,0,0,0-.432-1.029,1.42,1.42,0,0,0-1.029-.425.185.185,0,0,1-.151-.082h0a.192.192,0,0,1,0-.274l1.372-1.372H390.2a.192.192,0,0,1-.2-.192.2.2,0,0,1,.2-.2h2.546a.2.2,0,0,1,.2.2.116.116,0,0,1,0,.082A.13.13,0,0,1,392.835,238.715Z" transform="translate(-212.368 -125.855)" fill="#263238"/>
        <path id="Path_25587" data-name="Path 25587" d="M428.069,242.722h-2.978a.172.172,0,0,1-.117,0,.185.185,0,0,1,0-.268l3.163-3.932h0a.172.172,0,0,1,.261,0,.254.254,0,0,1,.062.1h0v3.767h.37a.185.185,0,0,1,0,.37h-.37v.878a.192.192,0,0,1-.377,0Zm0-.371v-3.2l-2.58,3.2Z" transform="translate(-223.427 -125.868)" fill="#263238"/>
        <path id="Path_25588" data-name="Path 25588" d="M205.185,328.839l-.775.453a.2.2,0,0,1-.089.034.185.185,0,0,1-.165-.1.172.172,0,0,1,.069-.254l1.057-.645a.2.2,0,0,1,.254.076.191.191,0,0,1,0,.137v5.043a.179.179,0,0,1-.185.185.186.186,0,0,1-.185-.185Z" transform="translate(-154.135 -154.067)" fill="#263238"/>
        <path id="Path_25589" data-name="Path 25589" d="M210.092,328.28a1.8,1.8,0,0,1,1.8,1.585v.508a4.467,4.467,0,0,1-.521,2.175,2.237,2.237,0,0,1-1.908,1.187h0a.185.185,0,0,1-.2-.178.2.2,0,0,1,.185-.2,1.853,1.853,0,0,0,1.592-.995,3.294,3.294,0,0,0,.391-1.091,1.777,1.777,0,0,1-1.372.6,1.8,1.8,0,1,1,0-3.6Zm1.427,1.791a.59.59,0,1,1-.007,0Z" transform="translate(-155.432 -154.056)" fill="#263238"/>
        <path id="Path_25590" data-name="Path 25590" d="M239.282,333.4l2.546-2.3a1.373,1.373,0,0,0,.474-1.043,1.414,1.414,0,0,0-2.36-1.036l-.261.24a.192.192,0,1,1-.261-.274l.268-.247a1.81,1.81,0,0,1,1.208-.46,1.783,1.783,0,0,1,1.194,3.1l-2.182,1.976H242.5a.192.192,0,0,1,0,.377h-3.088a.158.158,0,0,1-.137-.055A.2.2,0,0,1,239.282,333.4Z" transform="translate(-165.149 -154.056)" fill="#263238"/>
        <path id="Path_25591" data-name="Path 25591" d="M246.14,331a3.533,3.533,0,0,1,.521-1.908,1.551,1.551,0,0,1,2.745,0,3.664,3.664,0,0,1,0,3.815,1.544,1.544,0,0,1-2.745,0A3.5,3.5,0,0,1,246.14,331Zm.384,0a3.089,3.089,0,0,0,.46,1.695,1.16,1.16,0,0,0,2.058,0,3.3,3.3,0,0,0,0-3.383,1.16,1.16,0,0,0-2.058,0A3.081,3.081,0,0,0,246.524,331Z" transform="translate(-167.32 -154.051)" fill="#263238"/>
        <path id="Path_25592" data-name="Path 25592" d="M277.774,333.4l2.553-2.3a1.4,1.4,0,0,0-1.887-2.079l-.268.24a.185.185,0,0,1-.268,0,.178.178,0,0,1,0-.268l.261-.247a1.785,1.785,0,1,1,2.4,2.642l-2.182,1.976h2.58a.192.192,0,1,1,0,.377h-3.053a.158.158,0,0,1-.137-.055A.213.213,0,0,1,277.774,333.4Z" transform="translate(-177.231 -154.059)" fill="#263238"/>
        <path id="Path_25593" data-name="Path 25593" d="M285.335,328.839l-.775.453a.2.2,0,0,1-.089.034.186.186,0,0,1-.165-.1.171.171,0,0,1,.069-.254l1.05-.645a.206.206,0,0,1,.261.076.193.193,0,0,1,0,.137v5.043a.178.178,0,0,1-.185.185.185.185,0,0,1-.185-.185Z" transform="translate(-179.289 -154.066)" fill="#263238"/>
        <path id="Path_25594" data-name="Path 25594" d="M312.136,333.411l2.552-2.3a1.4,1.4,0,1,0-1.887-2.058l-.268.24a.187.187,0,1,1-.261-.267l.268-.247a1.788,1.788,0,0,1,2.985,1.317,1.811,1.811,0,0,1-.583,1.324l-2.189,1.976h2.587a.192.192,0,0,1,0,.377h-3.074a.178.178,0,0,1-.144-.055.213.213,0,0,1,.014-.309Z" transform="translate(-188.01 -154.069)" fill="#fff"/>
        <path id="Path_25595" data-name="Path 25595" d="M318.846,333.411l2.553-2.3a1.4,1.4,0,1,0-1.887-2.058l-.268.24a.187.187,0,1,1-.261-.267l.267-.247a1.785,1.785,0,0,1,2.4,2.642l-2.189,1.976h2.587a.192.192,0,0,1,0,.377h-3.074a.179.179,0,0,1-.144-.055.213.213,0,0,1,.014-.309Z" transform="translate(-190.115 -154.069)" fill="#fff"/>
        <path id="Path_25596" data-name="Path 25596" d="M349.144,333.4l2.552-2.3a1.4,1.4,0,1,0-1.887-2.079l-.268.24a.192.192,0,1,1-.261-.274l.267-.247a1.811,1.811,0,0,1,1.208-.46,1.783,1.783,0,0,1,1.194,3.1l-2.182,1.976h2.58a.192.192,0,0,1,0,.377h-3.074a.158.158,0,0,1-.137-.055.213.213,0,0,1,.007-.281Z" transform="translate(-199.629 -154.056)" fill="#263238"/>
        <path id="Path_25597" data-name="Path 25597" d="M359.257,328.636l-1.414,1.448a1.852,1.852,0,0,1-.384,3.664,1.811,1.811,0,0,1-1.3-.542.192.192,0,1,1,.268-.274,1.461,1.461,0,0,0,2.5-1.036,1.42,1.42,0,0,0-.425-1.029,1.441,1.441,0,0,0-1.029-.432.2.2,0,0,1-.158-.075h0a.192.192,0,0,1,0-.281l1.372-1.372h-2.059a.192.192,0,1,1,0-.384h2.552a.192.192,0,0,1,.192.192.162.162,0,0,1,0,.082Z" transform="translate(-201.83 -154.069)" fill="#263238"/>
        <path id="Path_25598" data-name="Path 25598" d="M385.884,333.4l2.553-2.3a1.4,1.4,0,1,0-1.887-2.079l-.268.24a.192.192,0,1,1-.261-.274l.268-.247a1.81,1.81,0,0,1,1.208-.46,1.783,1.783,0,0,1,1.194,3.1l-2.182,1.976h2.58a.192.192,0,0,1,0,.377h-3.074a.158.158,0,0,1-.137-.055A.213.213,0,0,1,385.884,333.4Z" transform="translate(-211.16 -154.056)" fill="#263238"/>
        <path id="Path_25599" data-name="Path 25599" d="M395.407,332.635h-2.978a.171.171,0,0,1-.117-.041.178.178,0,0,1,0-.268l3.156-3.932h0a.178.178,0,0,1,.261,0,.191.191,0,0,1,.062.089.133.133,0,0,0,0,.034v3.767h.371a.192.192,0,1,1,0,.377h-.371v.933a.192.192,0,0,1-.377,0Zm0-.377v-3.2l-2.587,3.2Z" transform="translate(-213.176 -154.074)" fill="#263238"/>
        <path id="Path_25600" data-name="Path 25600" d="M422.146,333.411l2.552-2.3a1.4,1.4,0,1,0-1.887-2.058l-.268.24a.187.187,0,1,1-.261-.267l.261-.247a1.813,1.813,0,0,1,1.214-.46,1.778,1.778,0,0,1,1.187,3.1l-2.182,1.976h2.58a.192.192,0,1,1,0,.377h-3.067a.178.178,0,0,1-.144-.055.213.213,0,0,1,.014-.309Z" transform="translate(-222.535 -154.069)" fill="#263238"/>
        <path id="Path_25601" data-name="Path 25601" d="M429.052,333.231a.185.185,0,0,1,0-.274.192.192,0,0,1,.274,0,1.47,1.47,0,1,0,0-2.065.185.185,0,0,1-.268,0,.1.1,0,0,1-.062-.027h0a.169.169,0,0,1,0-.062.245.245,0,0,0,0-.041l.261-2.2a.208.208,0,0,1,.206-.185h2.546a.192.192,0,0,1,.192.192.185.185,0,0,1-.192.192h-2.381l-.2,1.626a1.84,1.84,0,0,1,2.772,1.6,1.818,1.818,0,0,1-.542,1.311,1.888,1.888,0,0,1-1.311.535A1.839,1.839,0,0,1,429.052,333.231Z" transform="translate(-224.706 -154.088)" fill="#263238"/>
        <path id="Path_25602" data-name="Path 25602" d="M203.17,362.946l2.553-2.3a1.434,1.434,0,0,0,.467-1.05,1.372,1.372,0,0,0-.364-.933,1.407,1.407,0,0,0-1.036-.46,1.434,1.434,0,0,0-.954.357l-.268.24a.185.185,0,0,1-.254-.268l.261-.254a1.846,1.846,0,0,1,1.214-.46,1.742,1.742,0,0,1,1.311.583,1.763,1.763,0,0,1,.467,1.194,1.811,1.811,0,0,1-.59,1.331l-2.182,1.969h2.58a.192.192,0,1,1,0,.384h-3.067a.192.192,0,0,1-.137-.336Z" transform="translate(-153.814 -163.327)" fill="#263238"/>
        <path id="Path_25603" data-name="Path 25603" d="M210.562,359.017a2.223,2.223,0,0,1,1.908-1.187.192.192,0,0,1,.2.178.206.206,0,0,1-.185.206,1.839,1.839,0,0,0-1.592.988,3.433,3.433,0,0,0-.391,1.091,1.8,1.8,0,1,1-.453,1.249,3.052,3.052,0,0,1,0-.357,4.446,4.446,0,0,1,.515-2.168Zm-.13,2.5a.528.528,0,0,0,0,.1.153.153,0,0,1,0,.055,1.461,1.461,0,1,0,0-.192Z" transform="translate(-155.992 -163.33)" fill="#263238"/>
        <path id="Path_25604" data-name="Path 25604" d="M239.971,362.949l2.553-2.3a1.434,1.434,0,0,0,.467-1.05,1.415,1.415,0,0,0-2.354-1.036l-.268.24a.187.187,0,1,1-.268-.261l.268-.254a1.845,1.845,0,0,1,1.208-.46,1.787,1.787,0,0,1,1.194,3.108l-2.182,1.969h2.58a.192.192,0,1,1,0,.384h-3.074a.178.178,0,0,1-.137-.055A.213.213,0,0,1,239.971,362.949Z" transform="translate(-165.365 -163.33)" fill="#263238"/>
        <path id="Path_25605" data-name="Path 25605" d="M247.469,363.02l2.058-4.8h-2.642a.185.185,0,1,1,0-.37h2.889a.225.225,0,0,1,.117,0,.192.192,0,0,1,.1.117.164.164,0,0,1,0,.062.178.178,0,0,1,0,.1l-2.113,5.023a.206.206,0,0,1-.172.117.124.124,0,0,1-.082,0A.213.213,0,0,1,247.469,363.02Z" transform="translate(-167.496 -163.333)" fill="#263238"/>
        <path id="Path_25606" data-name="Path 25606" d="M276.11,362.946l2.552-2.3a1.434,1.434,0,0,0,.466-1.05,1.371,1.371,0,0,0-.364-.933,1.406,1.406,0,0,0-1.036-.46,1.435,1.435,0,0,0-.954.357l-.267.24a.185.185,0,1,1-.254-.267l.261-.254a1.846,1.846,0,0,1,1.214-.46,1.742,1.742,0,0,1,1.311.583,1.763,1.763,0,0,1,.467,1.194,1.825,1.825,0,0,1-.583,1.331l-2.189,1.969h2.587a.192.192,0,1,1,0,.384h-3.074a.192.192,0,0,1-.137-.336Z" transform="translate(-176.706 -163.327)" fill="#263238"/>
        <path id="Path_25607" data-name="Path 25607" d="M284.64,357.82a1.132,1.132,0,0,1,.686,2.059,1.77,1.77,0,1,1-1.372,0,1.146,1.146,0,0,1-.453-.92,1.126,1.126,0,0,1,1.139-1.139Zm0,5.084a1.372,1.372,0,1,0-1.372-1.372A1.372,1.372,0,0,0,284.64,362.9Zm0-3.184a.775.775,0,0,0,.762-.768.762.762,0,1,0-.762.768Z" transform="translate(-178.848 -163.327)" fill="#263238"/>
        <path id="Path_25608" data-name="Path 25608" d="M311.9,362.949l2.553-2.3a1.407,1.407,0,0,0,.466-1.05,1.372,1.372,0,0,0-.364-.933,1.406,1.406,0,0,0-1.036-.46,1.435,1.435,0,0,0-.954.357l-.268.24a.185.185,0,1,1-.261-.261l.268-.254a1.831,1.831,0,0,1,1.208-.46,1.737,1.737,0,0,1,1.311.583,1.764,1.764,0,0,1,.467,1.194,1.8,1.8,0,0,1-.583,1.331l-2.189,1.969H315.1a.192.192,0,0,1,0,.384h-3.074a.192.192,0,0,1-.137-.336Z" transform="translate(-187.935 -163.33)" fill="#263238"/>
        <path id="Path_25609" data-name="Path 25609" d="M320.575,357.82a1.791,1.791,0,0,1,1.791,1.592.259.259,0,0,0,0,.041v.466a4.543,4.543,0,0,1-.521,2.175,2.278,2.278,0,0,1-1.914,1.187h0a.185.185,0,0,1-.192-.178.2.2,0,0,1,.185-.206,1.845,1.845,0,0,0,1.592-.988,3.689,3.689,0,0,0,.391-1.091,1.8,1.8,0,1,1-1.372-3Zm1.427,1.8a1.413,1.413,0,1,0-.419,1A1.427,1.427,0,0,0,322,359.618Z" transform="translate(-190.107 -163.327)" fill="#263238"/>
        <path id="Path_25610" data-name="Path 25610" d="M352.105,358.171l-1.413,1.455a1.825,1.825,0,0,1,.933.494,1.846,1.846,0,0,1,.542,1.311,1.8,1.8,0,0,1-.549,1.311,1.86,1.86,0,0,1-1.311.549,1.818,1.818,0,0,1-1.3-.549.194.194,0,1,1,.274-.274,1.462,1.462,0,0,0,2.491-1.036,1.442,1.442,0,0,0-.432-1.029,1.42,1.42,0,0,0-1.029-.425.185.185,0,0,1-.151-.082h0a.206.206,0,0,1,0-.281l1.372-1.372h-2.059a.2.2,0,1,1,0-.391h2.546a.2.2,0,0,1,.2.192.124.124,0,0,1,0,.089A.179.179,0,0,1,352.105,358.171Z" transform="translate(-199.585 -163.335)" fill="#263238"/>
        <path id="Path_25611" data-name="Path 25611" d="M355.79,360.545a3.48,3.48,0,0,1,.522-1.914,1.551,1.551,0,0,1,2.745,0,3.541,3.541,0,0,1,.528,1.914,3.432,3.432,0,0,1-.528,1.9,1.537,1.537,0,0,1-2.745,0A3.43,3.43,0,0,1,355.79,360.545Zm.384,0a3.108,3.108,0,0,0,.46,1.695,1.159,1.159,0,0,0,2.058,0,3.273,3.273,0,0,0,0-3.39,1.16,1.16,0,0,0-2.058,0A3.108,3.108,0,0,0,356.174,360.545Z" transform="translate(-201.732 -163.321)" fill="#263238"/>
        <path id="Path_25612" data-name="Path 25612" d="M205.917,298.975l-.775.453a.193.193,0,0,1-.089,0,.185.185,0,0,1-.165-.1.178.178,0,0,1,.069-.254l1.057-.638a.192.192,0,0,1,.254.069.2.2,0,0,1,0,.137v5.016a.185.185,0,0,1-.185.192.192.192,0,0,1-.185-.192Z" transform="translate(-154.365 -144.684)" fill="#263238"/>
        <path id="Path_25613" data-name="Path 25613" d="M208.865,303.558l2.553-2.306a1.407,1.407,0,0,0,.467-1.043,1.372,1.372,0,0,0-1.407-1.372,1.42,1.42,0,0,0-.947.357l-.268.24a.185.185,0,0,1-.268,0,.178.178,0,0,1,0-.267l.261-.247a1.847,1.847,0,0,1,1.208-.46,1.778,1.778,0,0,1,1.194,3.1l-2.182,1.976h2.58a.192.192,0,0,1,.192.192.2.2,0,0,1-.192.192h-3.074a.207.207,0,0,1-.137-.055.213.213,0,0,1,.021-.309Z" transform="translate(-155.598 -144.698)" fill="#263238"/>
        <path id="Path_25614" data-name="Path 25614" d="M242.276,298.987l-.776.453a.186.186,0,1,1-.185-.323l1.05-.638a.2.2,0,0,1,.261.069.248.248,0,0,1,0,.137V303.7a.185.185,0,0,1-.185.192.192.192,0,0,1-.185-.192Z" transform="translate(-165.775 -144.697)" fill="#263238"/>
        <path id="Path_25615" data-name="Path 25615" d="M248.63,298.763,247.2,300.19A1.846,1.846,0,0,1,248.679,302a1.812,1.812,0,0,1-.549,1.311,1.86,1.86,0,0,1-1.311.549,1.791,1.791,0,0,1-1.3-.549.192.192,0,1,1,.268-.275,1.475,1.475,0,0,0,1.029.425,1.5,1.5,0,0,0,1.043-.425,1.465,1.465,0,0,0-1.036-2.5.186.186,0,0,1-.151-.076h0a.192.192,0,0,1,0-.281l1.372-1.372h-2.058a.2.2,0,0,1-.2-.2.192.192,0,0,1,.2-.192h2.546a.192.192,0,0,1,.2.192.138.138,0,0,1,0,.089A.177.177,0,0,1,248.63,298.763Z" transform="translate(-167.108 -144.685)" fill="#263238"/>
        <path id="Path_25616" data-name="Path 25616" d="M278.107,298.975l-.775.453a.194.194,0,0,1-.089,0,.185.185,0,0,1-.165-.1.178.178,0,0,1,.069-.254l1.05-.638a.2.2,0,0,1,.261.069.247.247,0,0,1,0,.137v5.016a.185.185,0,0,1-.185.192.192.192,0,0,1-.185-.192Z" transform="translate(-177.021 -144.684)" fill="#263238"/>
        <path id="Path_25617" data-name="Path 25617" d="M284.217,302.776h-2.978a.144.144,0,0,1-.117-.041.171.171,0,0,1,0-.261l3.163-3.932h0a.171.171,0,0,1,.261,0,.309.309,0,0,1,.069.1h0v3.767h.364a.192.192,0,1,1,0,.377h-.364v.933a.2.2,0,0,1-.2.192.192.192,0,0,1-.185-.192Zm0-.377v-3.2l-2.58,3.2Z" transform="translate(-178.28 -144.705)" fill="#263238"/>
        <path id="Path_25618" data-name="Path 25618" d="M314.6,298.974l-.768.453a.228.228,0,0,1-.1,0,.2.2,0,0,1-.165-.1.178.178,0,0,1,.076-.254l1.05-.638a.185.185,0,0,1,.254.069.207.207,0,0,1,0,.137v5.016a.185.185,0,0,1-.185.192.2.2,0,0,1-.192-.192Z" transform="translate(-188.474 -144.683)" fill="#263238"/>
        <path id="Path_25619" data-name="Path 25619" d="M317.742,303.356a.185.185,0,0,1,0-.275.206.206,0,0,1,.281,0,1.455,1.455,0,0,0,2.484-1.029,1.456,1.456,0,0,0-2.484-1.029.185.185,0,0,1-.275,0,.11.11,0,0,1-.048-.062h0a.216.216,0,0,1,0-.069.268.268,0,0,0,0-.034l.268-2.2a.151.151,0,0,1,.075-.137.165.165,0,0,1,.124-.048h2.546a.2.2,0,0,1,0,.391h-2.381l-.192,1.619a1.853,1.853,0,0,1,2.23,2.909,1.915,1.915,0,0,1-1.311.542A1.818,1.818,0,0,1,317.742,303.356Z" transform="translate(-189.773 -144.701)" fill="#263238"/>
        <path id="Path_25620" data-name="Path 25620" d="M351.267,298.987l-.769.453a.185.185,0,0,1-.261-.069.179.179,0,0,1,.075-.254l1.05-.638a.2.2,0,0,1,.261.069.25.25,0,0,1,0,.137V303.7a.186.186,0,0,1-.185.192.2.2,0,0,1-.192-.192Z" transform="translate(-199.982 -144.697)" fill="#263238"/>
        <path id="Path_25621" data-name="Path 25621" d="M354.9,299.617a2.223,2.223,0,0,1,1.915-1.187.185.185,0,0,1,.192.178.206.206,0,0,1-.185.206,1.846,1.846,0,0,0-1.592.988,3.754,3.754,0,0,0-.391,1.091,1.749,1.749,0,1,1-.453,1.249,3.052,3.052,0,0,1,0-.357A4.524,4.524,0,0,1,354.9,299.617Zm-.1,2.5a.394.394,0,0,0,0,.1.116.116,0,0,1,0,.055,1.462,1.462,0,1,0,0-.185Z" transform="translate(-201.291 -144.688)" fill="#263238"/>
        <path id="Path_25622" data-name="Path 25622" d="M388.594,298.987l-.775.453a.185.185,0,0,1-.261-.069.179.179,0,0,1,.075-.254l1.05-.638a.2.2,0,0,1,.261.069.248.248,0,0,1,0,.137V303.7a.185.185,0,0,1-.185.192.192.192,0,0,1-.185-.192Z" transform="translate(-211.694 -144.697)" fill="#263238"/>
        <path id="Path_25623" data-name="Path 25623" d="M392.505,303.626l2.024-4.8h-2.614a.189.189,0,0,1,0-.377H394.8a.17.17,0,0,1,.117,0,.212.212,0,0,1,.1.117.162.162,0,0,1,0,.062.159.159,0,0,1-.034.1l-2.114,5.023a.185.185,0,0,1-.171.117.118.118,0,0,1-.076,0A.2.2,0,0,1,392.505,303.626Z" transform="translate(-213.012 -144.69)" fill="#263238"/>
        <path id="Path_25624" data-name="Path 25624" d="M424.337,298.975l-.768.453a.259.259,0,0,1-.1,0,.2.2,0,0,1-.165-.1.179.179,0,0,1,.069-.254l1.057-.638a.192.192,0,0,1,.254.069.206.206,0,0,1,0,.137v5.016a.189.189,0,1,1-.377,0Z" transform="translate(-222.913 -144.684)" fill="#263238"/>
        <path id="Path_25625" data-name="Path 25625" d="M429.1,298.42a1.132,1.132,0,0,1,.686,2.058,1.77,1.77,0,1,1-1.372,0,1.16,1.16,0,0,1-.453-.919,1.126,1.126,0,0,1,1.139-1.139Zm0,5.084a1.372,1.372,0,1,0-1.372-1.372A1.372,1.372,0,0,0,429.1,303.5Zm0-3.184a.775.775,0,0,0,.768-.769.762.762,0,1,0-.768.769Z" transform="translate(-224.185 -144.685)" fill="#263238"/>
        <rect id="Rectangle_7986" data-name="Rectangle 7986" width="110.733" height="1.976" transform="translate(73.207 76.192)" fill="#ebebeb"/>
        <path id="Path_25626" data-name="Path 25626" d="M148.927,147.73v-5.29l-3.177,2.642Z" transform="translate(-101.801 -67.902)" fill="#ebebeb"/>
        <path id="Path_25627" data-name="Path 25627" d="M387.77,142.44v5.29l3.177-2.649Z" transform="translate(-177.756 -67.902)" fill="#ebebeb"/>
        <rect id="Rectangle_7987" data-name="Rectangle 7987" width="292.319" height="47.462" transform="translate(23.782 16.729)" fill="#e27e28"/>
        <rect id="Rectangle_7988" data-name="Rectangle 7988" width="82.738" height="153.248" transform="translate(233.357 64.191)" fill="#ebebeb"/>
        <rect id="Rectangle_7989" data-name="Rectangle 7989" width="14.252" height="32.126" transform="translate(241.523 75.759)" fill="#a6a6a6"/>
        <rect id="Rectangle_7990" data-name="Rectangle 7990" width="47.75" height="32.126" transform="translate(260.186 75.759)" fill="#a6a6a6"/>
        <path id="Path_25628" data-name="Path 25628" d="M488.317,188.867l-.775.446a.15.15,0,0,1-.1.034.186.186,0,0,1-.089-.35l1.05-.638a.2.2,0,0,1,.261.069.243.243,0,0,1,0,.137v5.03a.186.186,0,0,1-.185.192.192.192,0,0,1-.185-.192Z" transform="translate(-242.993 -110.137)" fill="#fff"/>
        <path id="Path_25629" data-name="Path 25629" d="M491.42,191.022a3.487,3.487,0,0,1,.528-1.914,1.544,1.544,0,0,1,2.745,0,3.547,3.547,0,0,1,.535,1.914,3.479,3.479,0,0,1-.535,1.9,1.53,1.53,0,0,1-2.745,0A3.434,3.434,0,0,1,491.42,191.022Zm.384,0a3.079,3.079,0,0,0,.46,1.688,1.159,1.159,0,0,0,2.093,0,3.3,3.3,0,0,0,0-3.383,1.166,1.166,0,0,0-2.093,0,3.085,3.085,0,0,0-.446,1.695Z" transform="translate(-244.298 -110.116)" fill="#fff"/>
        <rect id="Rectangle_7991" data-name="Rectangle 7991" width="36.202" height="1.75" transform="translate(263.782 78.552)" fill="#fff"/>
        <rect id="Rectangle_7992" data-name="Rectangle 7992" width="29.731" height="0.871" transform="translate(263.782 83.63)" fill="#fff"/>
        <rect id="Rectangle_7993" data-name="Rectangle 7993" width="29.731" height="0.871" transform="translate(263.782 85.839)" fill="#fff"/>
        <rect id="Rectangle_7994" data-name="Rectangle 7994" width="29.731" height="0.871" transform="translate(263.782 88.042)" fill="#fff"/>
        <rect id="Rectangle_7995" data-name="Rectangle 7995" width="29.731" height="0.871" transform="translate(263.782 92.454)" fill="#fff"/>
        <rect id="Rectangle_7996" data-name="Rectangle 7996" width="29.731" height="0.871" transform="translate(263.782 94.656)" fill="#fff"/>
        <rect id="Rectangle_7997" data-name="Rectangle 7997" width="29.731" height="0.871" transform="translate(263.782 96.866)" fill="#fff"/>
        <rect id="Rectangle_7998" data-name="Rectangle 7998" width="29.731" height="0.871" transform="translate(263.782 99.068)" fill="#fff"/>
        <rect id="Rectangle_7999" data-name="Rectangle 7999" width="29.731" height="0.871" transform="translate(263.782 101.278)" fill="#fff"/>
        <rect id="Rectangle_8000" data-name="Rectangle 8000" width="14.252" height="45.458" transform="translate(241.523 112.332)" fill="#e27e28"/>
        <rect id="Rectangle_8001" data-name="Rectangle 8001" width="47.75" height="45.458" transform="translate(260.186 112.332)" fill="#e27e28"/>
        <path id="Path_25630" data-name="Path 25630" d="M486.968,247.459l2.546-2.3a1.407,1.407,0,0,0,.467-1.05,1.4,1.4,0,0,0-1.4-1.393,1.433,1.433,0,0,0-.954.357l-.261.24a.187.187,0,1,1-.268-.261l.268-.254a1.833,1.833,0,0,1,1.208-.46,1.736,1.736,0,0,1,1.311.583,1.777,1.777,0,0,1-.117,2.518l-2.189,1.976h2.587a.192.192,0,0,1,0,.384h-3.074a.19.19,0,0,1-.124-.343Z" transform="translate(-242.879 -127.085)" fill="#fff"/>
        <path id="Path_25631" data-name="Path 25631" d="M493.663,247.468l2.546-2.3a1.381,1.381,0,0,0-.933-2.422,1.434,1.434,0,0,0-.954.357l-.261.24a.187.187,0,1,1-.268-.261l.268-.254a1.833,1.833,0,0,1,1.208-.46,1.737,1.737,0,0,1,1.311.583,1.777,1.777,0,0,1-.117,2.518l-2.182,1.976h2.58a.192.192,0,0,1,0,.384h-3.074a.2.2,0,0,1-.124-.364Z" transform="translate(-244.977 -127.095)" fill="#fff"/>
        <rect id="Rectangle_8002" data-name="Rectangle 8002" width="36.202" height="1.75" transform="translate(263.782 115.248)" fill="#fff"/>
        <rect id="Rectangle_8003" data-name="Rectangle 8003" width="29.731" height="0.871" transform="translate(263.782 120.326)" fill="#fff"/>
        <rect id="Rectangle_8004" data-name="Rectangle 8004" width="29.731" height="0.871" transform="translate(263.782 122.528)" fill="#fff"/>
        <rect id="Rectangle_8005" data-name="Rectangle 8005" width="29.731" height="0.871" transform="translate(263.782 124.738)" fill="#fff"/>
        <rect id="Rectangle_8006" data-name="Rectangle 8006" width="36.202" height="1.75" transform="translate(263.782 143.985)" fill="#fff"/>
        <rect id="Rectangle_8007" data-name="Rectangle 8007" width="29.731" height="0.871" transform="translate(263.782 149.062)" fill="#fff"/>
        <rect id="Rectangle_8008" data-name="Rectangle 8008" width="29.731" height="0.871" transform="translate(263.782 151.272)" fill="#fff"/>
        <rect id="Rectangle_8009" data-name="Rectangle 8009" width="29.731" height="0.871" transform="translate(263.782 129.15)" fill="#fff"/>
        <rect id="Rectangle_8010" data-name="Rectangle 8010" width="29.731" height="0.871" transform="translate(263.782 131.352)" fill="#fff"/>
        <rect id="Rectangle_8011" data-name="Rectangle 8011" width="29.731" height="0.871" transform="translate(263.782 133.555)" fill="#fff"/>
        <rect id="Rectangle_8012" data-name="Rectangle 8012" width="29.731" height="0.871" transform="translate(263.782 135.764)" fill="#fff"/>
        <rect id="Rectangle_8013" data-name="Rectangle 8013" width="29.731" height="0.871" transform="translate(263.782 137.967)" fill="#fff"/>
        <path id="Path_25632" data-name="Path 25632" d="M15.806-11.143a1.474,1.474,0,0,1,1.047.421A1.382,1.382,0,0,1,17.3-9.676V4.257a1.422,1.422,0,0,1-1.492,1.468,1.505,1.505,0,0,1-1.095-.409,1.411,1.411,0,0,1-.421-1.059v-9.7L10.32.623a2.052,2.052,0,0,1-.553.469,1.117,1.117,0,0,1-.65.156,1.071,1.071,0,0,1-.626-.156A2.052,2.052,0,0,1,7.938.623l-3.97-6.28V4.257a1.482,1.482,0,0,1-.385,1.059,1.324,1.324,0,0,1-1.011.409A1.277,1.277,0,0,1,1.585,5.3,1.493,1.493,0,0,1,1.2,4.257V-9.676a1.394,1.394,0,0,1,.445-1.035,1.48,1.48,0,0,1,1.071-.433,1.6,1.6,0,0,1,.722.18,1.4,1.4,0,0,1,.553.469L9.237-2.433l5.39-8.061a1.463,1.463,0,0,1,.517-.469A1.348,1.348,0,0,1,15.806-11.143ZM36.4-2.7A9.134,9.134,0,0,1,35.346,1.67a8.109,8.109,0,0,1-2.924,3.14,7.812,7.812,0,0,1-4.2,1.155,7.812,7.812,0,0,1-4.2-1.155,8.02,8.02,0,0,1-2.912-3.14A9.219,9.219,0,0,1,20.066-2.7a9.219,9.219,0,0,1,1.047-4.367,8.02,8.02,0,0,1,2.912-3.14,7.812,7.812,0,0,1,4.2-1.155,7.812,7.812,0,0,1,4.2,1.155,8.109,8.109,0,0,1,2.924,3.14A9.134,9.134,0,0,1,36.4-2.7Zm-3.128,0a6.5,6.5,0,0,0-.65-2.924,5.244,5.244,0,0,0-1.8-2.081,4.58,4.58,0,0,0-2.6-.77,4.616,4.616,0,0,0-2.611.758,5.084,5.084,0,0,0-1.781,2.081A6.675,6.675,0,0,0,23.194-2.7,6.675,6.675,0,0,0,23.831.238,5.084,5.084,0,0,0,25.612,2.32a4.616,4.616,0,0,0,2.611.758,4.58,4.58,0,0,0,2.6-.77,5.244,5.244,0,0,0,1.8-2.081A6.5,6.5,0,0,0,33.276-2.7Zm18.673-8.422a1.228,1.228,0,0,1,.938.385,1.353,1.353,0,0,1,.361.963V4.257a1.439,1.439,0,0,1-1.468,1.468,2.08,2.08,0,0,1-.662-.108.936.936,0,0,1-.469-.3L41.819-5.9V4.377a1.328,1.328,0,0,1-.373.963,1.3,1.3,0,0,1-.975.385,1.228,1.228,0,0,1-.938-.385,1.353,1.353,0,0,1-.361-.963V-9.652a1.421,1.421,0,0,1,.421-1.047,1.421,1.421,0,0,1,1.047-.421,1.841,1.841,0,0,1,.71.144,1.142,1.142,0,0,1,.517.385L50.626.575V-9.772A1.328,1.328,0,0,1,51-10.734,1.266,1.266,0,0,1,51.949-11.119Zm15.978,0a1.482,1.482,0,0,1,1.059.385A1.324,1.324,0,0,1,69.4-9.724a1.285,1.285,0,0,1-.409,1,1.51,1.51,0,0,1-1.059.373H64.149V4.257A1.365,1.365,0,0,1,63.692,5.3a1.607,1.607,0,0,1-1.131.421A1.522,1.522,0,0,1,61.454,5.3a1.4,1.4,0,0,1-.433-1.047V-8.352H57.243a1.482,1.482,0,0,1-1.059-.385,1.324,1.324,0,0,1-.409-1.011,1.277,1.277,0,0,1,.421-.987,1.493,1.493,0,0,1,1.047-.385Zm16.195,0a1.464,1.464,0,0,1,1.083.409,1.433,1.433,0,0,1,.409,1.059V4.257A1.4,1.4,0,0,1,85.18,5.3a1.522,1.522,0,0,1-1.107.421A1.433,1.433,0,0,1,83.039,5.3a1.4,1.4,0,0,1-.433-1.047V-1.35H74.93V4.257A1.365,1.365,0,0,1,74.472,5.3a1.515,1.515,0,0,1-1.059.421A1.451,1.451,0,0,1,72.343,5.3a1.421,1.421,0,0,1-.421-1.047V-9.652a1.4,1.4,0,0,1,.433-1.047,1.522,1.522,0,0,1,1.107-.421A1.432,1.432,0,0,1,74.5-10.7a1.4,1.4,0,0,1,.433,1.047v5.535h7.676V-9.652a1.365,1.365,0,0,1,.457-1.047A1.515,1.515,0,0,1,84.122-11.119ZM98.512,2.909a1.467,1.467,0,0,1,1.047.4,1.343,1.343,0,0,1,.421,1.023,1.315,1.315,0,0,1-.421,1,1.467,1.467,0,0,1-1.047.4H90.691a1.439,1.439,0,0,1-1.468-1.468V-9.652a1.4,1.4,0,0,1,.433-1.047,1.522,1.522,0,0,1,1.107-.421A1.432,1.432,0,0,1,91.8-10.7a1.4,1.4,0,0,1,.433,1.047V2.909ZM113.479-9.7a1.607,1.607,0,0,1-.265.89l-5.029,7.195V4.257a1.443,1.443,0,0,1-.409,1.047,1.325,1.325,0,0,1-.987.421,1.392,1.392,0,0,1-1.023-.421,1.421,1.421,0,0,1-.421-1.047V-1.951L100.34-8.593a1.893,1.893,0,0,1-.433-1.131,1.322,1.322,0,0,1,.493-1.047,1.589,1.589,0,0,1,1.047-.421,1.457,1.457,0,0,1,1.179.674l4.235,5.847,3.97-5.8a1.454,1.454,0,0,1,1.2-.722,1.385,1.385,0,0,1,1.011.433A1.44,1.44,0,0,1,113.479-9.7ZM127.8,5.965a10.059,10.059,0,0,1-3.08-.433,7.13,7.13,0,0,1-2.527-1.468,1.69,1.69,0,0,1-.65-1.275,1.357,1.357,0,0,1,.409-.975,1.326,1.326,0,0,1,.987-.421,1.275,1.275,0,0,1,.818.289,7.083,7.083,0,0,0,1.877,1.155A5.887,5.887,0,0,0,127.8,3.2a4.333,4.333,0,0,0,2.322-.6,1.743,1.743,0,0,0,.975-1.492,1.913,1.913,0,0,0-.963-1.7,8.158,8.158,0,0,0-3.056-.926q-5.27-.77-5.27-4.909a4.435,4.435,0,0,1,.794-2.635,5.014,5.014,0,0,1,2.166-1.708,7.663,7.663,0,0,1,3.056-.59,8.745,8.745,0,0,1,2.851.457A6.915,6.915,0,0,1,132.9-9.7a1.606,1.606,0,0,1,.7,1.275,1.357,1.357,0,0,1-.409.975,1.3,1.3,0,0,1-.963.421,1.056,1.056,0,0,1-.65-.217,6.356,6.356,0,0,0-1.745-.926,5.783,5.783,0,0,0-2.009-.421,4.14,4.14,0,0,0-2.346.565,1.72,1.72,0,0,0-.83,1.48,1.725,1.725,0,0,0,.854,1.564,8.1,8.1,0,0,0,2.683.866,13.917,13.917,0,0,1,3.309.926,4.223,4.223,0,0,1,1.865,1.54,4.731,4.731,0,0,1,.626,2.587,4.32,4.32,0,0,1-.854,2.659,5.492,5.492,0,0,1-2.274,1.757A7.619,7.619,0,0,1,127.8,5.965Zm11.959-1.708A1.365,1.365,0,0,1,139.3,5.3a1.515,1.515,0,0,1-1.059.421,1.451,1.451,0,0,1-1.071-.421,1.421,1.421,0,0,1-.421-1.047V-9.652a1.4,1.4,0,0,1,.433-1.047,1.522,1.522,0,0,1,1.107-.421,1.433,1.433,0,0,1,1.035.421,1.4,1.4,0,0,1,.433,1.047ZM150.32-11.119a4.156,4.156,0,0,1,2.334.734,5.432,5.432,0,0,1,1.781,1.973,5.576,5.576,0,0,1,.674,2.707,5.6,5.6,0,0,1-.674,2.7,5.406,5.406,0,0,1-1.781,1.985,4.156,4.156,0,0,1-2.334.734h-4.187V4.257a1.482,1.482,0,0,1-.385,1.059,1.324,1.324,0,0,1-1.011.409,1.277,1.277,0,0,1-.987-.421,1.493,1.493,0,0,1-.385-1.047V-9.652a1.421,1.421,0,0,1,.421-1.047,1.421,1.421,0,0,1,1.047-.421Zm0,8.085a1.38,1.38,0,0,0,.9-.385,2.838,2.838,0,0,0,.722-1,3.1,3.1,0,0,0,.277-1.287,3.1,3.1,0,0,0-.277-1.287,2.719,2.719,0,0,0-.722-.987,1.4,1.4,0,0,0-.9-.373h-4.187v5.318Z" transform="translate(91.71 43.158)" fill="#fff"/>
      </g>
      <g id="freepik--Character--inject-242" transform="translate(137.153 164.923)">
        <path id="Path_25633" data-name="Path 25633" d="M326.2,431.015c1.88.686,56.457,1.715,58.6.494.233-.137.165-2.546.968-8.776.041-.3,1.29-1.455,3.232-3.088,7.3-6.114,24.455-19.014,24.455-19.014L386.2,377l-26.4,25.944-6.862,6.745s-22.3,12.042-24.51,13.634S324.32,430.294,326.2,431.015Z" transform="translate(-321.553 -302.769)" fill="#dd6a57"/>
        <path id="Path_25634" data-name="Path 25634" d="M326.206,441.933c1.88.727,56.464,1.715,58.6.494.226-.137.165-2.546.974-8.776.034-.295,1.283-1.455,3.225-3.088,2.539-2.127,3.746-3.095,7.548-6.038L361.92,411.79l-2.058,2.058L353,420.594s-22.3,12.035-24.5,13.634S324.325,441.213,326.206,441.933Z" transform="translate(-321.559 -313.688)" fill="#ebebeb"/>
        <path id="Path_25635" data-name="Path 25635" d="M320.665,444.706c1.894.686,60.053,1.3,62.146,0,.487-.3.94-3.685,1.3-8.309.041-.583,5.935-5.29,6.738-6.176l-35.632-12-4.5,4.234s-26.225,12.2-28.373,13.86S318.764,444.047,320.665,444.706Z" transform="translate(-319.778 -315.706)" fill="#e27e28"/>
        <path id="Path_25636" data-name="Path 25636" d="M322.183,453.641c9.14-.117,49.665.274,58.708.851.075,0,.075.055,0,.055-9.057.316-49.582-.371-58.708-.755C322.019,453.785,322.019,453.647,322.183,453.641Z" transform="translate(-320.494 -326.816)" fill="#263238"/>
        <path id="Path_25637" data-name="Path 25637" d="M360.528,424.9c3.6-.631,7.994,0,10.711,2.566.1.1-.041.247-.158.213a50.722,50.722,0,0,0-10.546-2.326.226.226,0,1,1-.007-.453Z" transform="translate(-332.497 -317.73)" fill="#263238"/>
        <path id="Path_25638" data-name="Path 25638" d="M356.735,427.108c3.6-.624,7.994,0,10.711,2.573.1.1-.041.247-.158.206a50.305,50.305,0,0,0-10.54-2.319.233.233,0,0,1-.014-.46Z" transform="translate(-331.318 -318.425)" fill="#263238"/>
        <path id="Path_25639" data-name="Path 25639" d="M352.9,429.346c3.6-.631,7.987,0,10.7,2.566.11.1-.041.247-.151.213A50.8,50.8,0,0,0,352.9,429.8a.226.226,0,0,1,0-.453Z" transform="translate(-330.101 -319.126)" fill="#263238"/>
        <path id="Path_25640" data-name="Path 25640" d="M349.123,431.578c3.6-.624,7.987,0,10.7,2.573.11.1-.034.247-.151.206a50.358,50.358,0,0,0-10.546-2.319.233.233,0,0,1-.007-.46Z" transform="translate(-328.928 -319.827)" fill="#263238"/>
        <path id="Path_25641" data-name="Path 25641" d="M352.389,417.381c2.518,2.01,5.819,2.855,8.769,3.987a.446.446,0,0,0,.569-.439.1.1,0,0,0,.089-.13,19.211,19.211,0,0,0-5.441-8.3c-1.482-1.276-4.117-2.182-5.537-.254S350.914,416.207,352.389,417.381Zm-.885-2.909c-.583-3.952,3.623-1.832,4.68-.844a20.887,20.887,0,0,1,1.887,2.059,55.331,55.331,0,0,1,3.28,4.8c-1.42-.645-2.875-1.167-4.316-1.757C355.319,418.026,351.833,416.653,351.5,414.471Z" transform="translate(-329.347 -313.48)" fill="#263238"/>
        <path id="Path_25642" data-name="Path 25642" d="M378.751,416.6c-.844-2.25-3.609-2.106-5.393-1.29a19.1,19.1,0,0,0-7.548,6.457.1.1,0,0,0,.041.151.453.453,0,0,0,.425.583c3.156-.268,6.56-.165,9.538-1.372C377.6,420.415,379.547,418.727,378.751,416.6ZM371,421.1c-1.551.172-3.095.261-4.639.487,1.475-1.256,2.882-2.566,4.481-3.678a20.328,20.328,0,0,1,2.388-1.475c1.29-.686,5.922-1.523,4.261,2.113C376.569,420.566,372.843,420.909,371,421.1Z" transform="translate(-334.218 -314.621)" fill="#263238"/>
        <path id="Path_25643" data-name="Path 25643" d="M375,389.678l33.67,17.449s35.077-31.749,38.288-31.989,50.4,31.79,74.195,31.886c24.606.1,25.848-25.676,25.848-25.676l-35.893-8.234c-25.875-12.756-52.835-35.681-70.455-33.519C421.474,341.887,375,389.678,375,389.678Z" transform="translate(-337.109 -290.985)" fill="#455a64"/>
        <path id="Path_25644" data-name="Path 25644" d="M386.938,406.174c5.681,2.806,4.117,1.928,9.744,4.8,2.745,1.372,16.688,8.426,19.048,10.169.055.034,0,.13-.055.11-2.779-.933-16.55-8.234-19.288-9.709-5.6-2.978-3.966-2.182-9.531-5.215a.089.089,0,1,1,.082-.158Z" transform="translate(-340.813 -311.921)" fill="#263238"/>
        <path id="Path_25645" data-name="Path 25645" d="M432.74,413.9c6.58-5.8,28.133-24.7,29.025-25.388a11.9,11.9,0,0,1,2.25-1.688,2.375,2.375,0,0,1,2.059.172c1,.467,1.976.974,2.964,1.455l5.839,2.854c7.548,3.678,15.041,7.459,22.643,11.02,7.308,3.431,12.529,6.642,20.166,9.277a114.48,114.48,0,0,0,23.419,5.585c.981.117,1.969.22,2.958.316.069,0,.069.117,0,.11a93.924,93.924,0,0,1-23.048-4.288c-7.548-2.319-12.694-5.339-19.9-8.646-7.445-3.431-14.787-7.095-22.122-10.738-3.877-1.928-7.74-3.87-11.624-5.771-.885-.432-2.141-1.372-3.143-.906a5.491,5.491,0,0,0-1.167.858l-1.29,1.071c-1.667,1.372-28.133,24.16-28.97,24.818C432.768,414.048,432.679,413.959,432.74,413.9Z" transform="translate(-355.223 -305.804)" fill="#263238"/>
        <path id="Path_25646" data-name="Path 25646" d="M567.529,396.581s4.028,23.275-7.61,32.421S463,437.051,450.058,432.865s-13.339-25.059.8-29.9c13.456-4.6,70.675-6.862,72.1-7.4.357-.144-5.078-3.4-5.05-3.6l13.037-3.98Z" transform="translate(-357.603 -306.218)" fill="#455a64"/>
        <path id="Path_25647" data-name="Path 25647" d="M599.941,399.623c0-.1.171-.062.171,0a11.516,11.516,0,0,0,2.69,7.4c1.983,2.284,4.906,3.568,7.547,4.906.254.13.062.528-.206.453a23.677,23.677,0,0,1-4.673-2.017,11.3,11.3,0,0,1-3.513-2.923A10.053,10.053,0,0,1,599.941,399.623Z" transform="translate(-407.663 -309.85)" fill="#263238"/>
        <path id="Path_25648" data-name="Path 25648" d="M561.881,392.061c.59-.755,1.235-1.475,1.853-2.2,1.455-1.736,2.916-3.479,4.447-5.153.144-.158.425.068.295.24-1.029,1.372-2.12,2.649-3.191,3.959-.549.686-1.1,1.372-1.654,2.01a12.74,12.74,0,0,0-1.543,1.956c-.4.748.123,1.372.9,1.469a2.676,2.676,0,0,0,1.859-.686A24.11,24.11,0,0,0,568,390.277c.618-.686,1.228-1.372,1.853-2.058s1.372-1.414,2.058-2.141a.054.054,0,0,1,.083.069c-.576.8-1.1,1.626-1.688,2.415s-1.167,1.578-1.763,2.36-1.146,1.455-1.75,2.168a7.129,7.129,0,0,1-1.777,1.585c-1.1.652-3.026.8-3.616-.638A2,2,0,0,1,561.881,392.061Z" transform="translate(-395.581 -305.171)" fill="#263238"/>
        <path id="Path_25649" data-name="Path 25649" d="M457.077,437.37c4.46.089,8.92.343,13.367.439s8.838.124,13.257.075q13.318-.124,26.609-1.029c8.92-.618,18.6-1.51,27.495-2.745,4.254-.59,8.563-1.077,12.77-1.983a20.174,20.174,0,0,0,10.073-5.146c5.757-5.585,7.994-13.792,8.92-21.642.124-1.05.227-2.107.316-3.163a.055.055,0,1,1,.1,0c-.515,8.042-1.77,16.427-6.827,22.9a20.146,20.146,0,0,1-8.234,6.4c-3.98,1.6-8.4,1.969-12.6,2.539-8.92,1.214-18.615,2.148-27.591,2.841s-18.094,1.139-27.151,1.276-18.129,0-27.179-.439c-1.1-.055-2.2-.123-3.307-.22C457.009,437.465,457.009,437.37,457.077,437.37Z" transform="translate(-362.852 -310.647)" fill="#263238"/>
        <path id="Path_25650" data-name="Path 25650" d="M497.939,402.159c2.806-.411,5.6-.81,8.419-1.1s5.7-.549,8.556-.8c5.64-.473,11.294-.906,16.948-1.166,3.218-.151,6.429-.172,9.647-.13.1,0,.089.151,0,.158-5.654.515-11.315.871-16.976,1.249s-11.3.871-16.941,1.407c-3.2.309-6.4.542-9.606.8C497.774,402.6,497.733,402.193,497.939,402.159Z" transform="translate(-375.649 -309.656)" fill="#263238"/>
        <path id="Path_25651" data-name="Path 25651" d="M552.337,393.373a43.372,43.372,0,0,1,6.491,3.472,52.142,52.142,0,0,1,6.01,4.206c.055.041,0,.11-.069.082-2.209-1.016-4.323-2.292-6.422-3.513a60.788,60.788,0,0,1-6.175-3.952C552.035,393.565,552.145,393.291,552.337,393.373Z" transform="translate(-392.693 -307.903)" fill="#263238"/>
        <path id="Path_25652" data-name="Path 25652" d="M550.642,330.5c-4.247,7.445-21.175,30.308-26.486,31.063-5.544.8-25.978-.954-29.7-5.345-1.825-2.148,1.119-20.585,3.952-19.542s20.317,5.256,22.554,4.927S541.324,323.765,548,319.95C559.5,313.425,552.934,326.51,550.642,330.5Z" transform="translate(-374.42 -284.302)" fill="#dd6a57"/>
        <path id="Path_25653" data-name="Path 25653" d="M505.029,337.206l-4.309,22.822s20.461,4.193,26.5,2.429,22.9-25.745,27.817-35.228.624-11.98-8.234-6.072-22.986,19.158-24.359,19.212S505.029,337.206,505.029,337.206Z" transform="translate(-376.564 -284.246)" fill="#00a3b1"/>
        <path id="Path_25654" data-name="Path 25654" d="M549.913,324.635a5.643,5.643,0,0,0-1.215,1.736,6.087,6.087,0,0,0,2.951-2.95A5.643,5.643,0,0,0,549.913,324.635Zm-44.155,34.782a5.692,5.692,0,0,0-2.059.364,6.06,6.06,0,0,0,4.172,0A5.742,5.742,0,0,0,505.759,359.416ZM539.2,352.6a5.746,5.746,0,0,0-2.093.364,5.621,5.621,0,0,0,2.093.37h.274l.535-.686A6.358,6.358,0,0,1,539.2,352.6Zm-14.567,5.489a6.176,6.176,0,0,0,0,4.172,5.722,5.722,0,0,0,.371-2.058,5.58,5.58,0,0,0-.371-2.134Zm17.154-22.307a5.425,5.425,0,0,0-.364,2.058,5.571,5.571,0,0,0,.364,2.058,5.576,5.576,0,0,0,.364-2.058,5.418,5.418,0,0,0-.371-2.079Zm8.131-11.123a5.642,5.642,0,0,0-1.215,1.736,6.086,6.086,0,0,0,2.951-2.951,5.642,5.642,0,0,0-1.743,1.194Zm-22,18.787a5.558,5.558,0,0,0-1.215,1.736,5.664,5.664,0,0,0,1.736-1.221,5.558,5.558,0,0,0,1.214-1.736A5.775,5.775,0,0,0,527.922,343.442Zm-20.66-4.268h0l-.185.172a5.56,5.56,0,0,0-1.215,1.736,5.622,5.622,0,0,0,1.736-1.221c.165-.172.323-.343.473-.528Zm8.234,11.3a5.557,5.557,0,0,0-1.736-1.214A5.539,5.539,0,0,0,514.981,351a5.619,5.619,0,0,0,1.729,1.214,5.635,5.635,0,0,0-1.235-1.736Zm23.728,2.12a5.746,5.746,0,0,0-2.093.364,5.622,5.622,0,0,0,2.093.37h.274l.535-.686a6.46,6.46,0,0,1-.83-.048Zm2.58-16.839a5.425,5.425,0,0,0-.364,2.058,5.58,5.58,0,0,0,.364,2.058,5.575,5.575,0,0,0,.364-2.058,5.416,5.416,0,0,0-.384-2.058Z" transform="translate(-377.5 -285.954)" fill="#fff"/>
        <path id="Path_25655" data-name="Path 25655" d="M511.311,359.179c.35-1.812,1.688-9.044,1.887-10.869h-.055c-.528,1.7-2.058,8.8-2.408,10.615a98.909,98.909,0,0,0-1.784,10.889c0,.062.1.1.117,0C510.048,366.336,510.625,362.74,511.311,359.179Z" transform="translate(-379.147 -293.765)" fill="#263238"/>
        <path id="Path_25656" data-name="Path 25656" d="M556.472,327.236c-4.927,9.49-21.786,33.464-27.824,35.234-4.577,1.338-17.408-.741-23.378-1.832L556.17,318C559.031,318.213,559.491,321.431,556.472,327.236Z" transform="translate(-377.992 -284.253)" opacity="0.1"/>
        <path id="Path_25657" data-name="Path 25657" d="M553.865,372.047l50.323,2.923c-.062-1.029-7.939-29.9-13.6-40.882-7.26-14.094-10.478-16.242-12.632-16.962-2.744-.919-8.412-.919-10.08,1.743C558.887,333.237,553.179,371.409,553.865,372.047Z" transform="translate(-393.226 -283.805)" fill="#00a3b1"/>
        <path id="Path_25658" data-name="Path 25658" d="M571.4,324.2c-.268.535-.528,1.084-.789,1.66a8.058,8.058,0,0,0,.823-.686,5.639,5.639,0,0,0,1.214-1.736,4.911,4.911,0,0,0-1.249.762Zm15.15,46.625a5.558,5.558,0,0,0-1.214,1.736,5.64,5.64,0,0,0,1.736-1.214,5.723,5.723,0,0,0,1.214-1.736A5.641,5.641,0,0,0,586.55,370.827ZM571.4,324.2c-.268.535-.528,1.084-.789,1.66a8.058,8.058,0,0,0,.823-.686,5.639,5.639,0,0,0,1.214-1.736,4.911,4.911,0,0,0-1.249.762Zm29.56,24.585h0a3.453,3.453,0,0,0-.391-.192,4.858,4.858,0,0,0,.755,1.221ZM589.9,325.458a7.861,7.861,0,0,0-.617-.549h0a4.757,4.757,0,0,0-1.1-.686,5.649,5.649,0,0,0,1.215,1.736,6.282,6.282,0,0,0,1.256.974,3.484,3.484,0,0,0,.48.24,5.663,5.663,0,0,0-1.228-1.695Zm-13.634,23.549a5.56,5.56,0,0,0-1.736-1.214,5.659,5.659,0,0,0,1.221,1.736,5.558,5.558,0,0,0,1.736,1.214A5.776,5.776,0,0,0,576.264,349.007Zm12.632,6.965a5.587,5.587,0,0,0-2.058.371,6.175,6.175,0,0,0,4.172,0A5.566,5.566,0,0,0,588.9,355.971ZM576.621,333.9a5.565,5.565,0,0,0-2.059.37,5.694,5.694,0,0,0,2.059.364,5.6,5.6,0,0,0,2.058-.364A5.61,5.61,0,0,0,576.621,333.9Zm-5.448,30.061a5.563,5.563,0,0,0-.371,2.058,5.755,5.755,0,0,0,.371,2.058,6.176,6.176,0,0,0,0-4.172Zm28.819-2.093a6.078,6.078,0,0,0,0,4.179A6.175,6.175,0,0,0,599.992,361.872ZM589.7,339.366a6.059,6.059,0,0,0,0,4.172,5.741,5.741,0,0,0,.364-2.059,5.548,5.548,0,0,0-.418-2.112Z" transform="translate(-398.499 -285.96)" fill="#fff"/>
        <path id="Path_25659" data-name="Path 25659" d="M591.347,323.973c12.715,15.638,26.609,41.6,19.8,46.625-6.21,4.59-27.7-1.235-41.074-7.308-2.552-1.153,9.222-23.6,11.8-22.088a76.931,76.931,0,0,0,8.44,4.35c.741.247-3.1-5-7.033-17.3C579.291,315.752,584.08,315.039,591.347,323.973Z" transform="translate(-398.218 -284.242)" fill="#dd6a57"/>
        <path id="Path_25660" data-name="Path 25660" d="M539.179,344.559c-.158,2.676,6.471,2.5,6.471,2.5a4.954,4.954,0,0,0-2.155,2.58c-.6,1.949,2.182,3.746,2.182,3.746a6.06,6.06,0,0,0-1.818,3.081c-.391,1.921,2.162,4.117,2.162,4.117a5.35,5.35,0,0,0,.089,3.726c1.372,3.129,6.677,3.472,9.894,4.33a69.845,69.845,0,0,1,10.5,3.973l7.335-23.707s-13.689-9.112-17.627-9.133C552.854,339.749,539.419,340.47,539.179,344.559Z" transform="translate(-388.633 -291.085)" fill="#dd6a57"/>
        <path id="Path_25661" data-name="Path 25661" d="M548.664,349.935a44.983,44.983,0,0,1,10.9-.755c.082,0,.082.13,0,.124-3.589-.1-7.294.762-10.876.8a.089.089,0,0,1-.021-.172Z" transform="translate(-391.593 -294.031)" fill="#263238"/>
        <path id="Path_25662" data-name="Path 25662" d="M548.746,359.182a9.413,9.413,0,0,1,2.484,0c.878.062,1.757.13,2.635.22,1.75.178,3.5.391,5.242.686.082,0,.082.13,0,.123-1.75-.172-3.5-.316-5.256-.412l-2.635-.13a11.1,11.1,0,0,1-2.477-.213.137.137,0,1,1,.007-.275Z" transform="translate(-391.592 -297.152)" fill="#263238"/>
        <path id="Path_25663" data-name="Path 25663" d="M549.219,370.11a6.859,6.859,0,0,1,2.237.117l2.395.275c1.6.178,3.2.35,4.8.467a.069.069,0,0,1,0,.13c-1.633-.117-3.259-.206-4.885-.336-.8-.062-1.6-.124-2.395-.2a6.179,6.179,0,0,1-2.155-.37.048.048,0,0,1-.023-.041A.048.048,0,0,1,549.219,370.11Z" transform="translate(-391.778 -300.594)" fill="#263238"/>
        <path id="Path_25664" data-name="Path 25664" d="M587.594,341.732,581,367.277s31.9,10.169,35.68,2.155-13.614-39.413-24.119-48.669-7.122,4.625-6.861,5.736c1.221,4.933,7.452,17.957,7.452,17.957Z" transform="translate(-401.759 -284.127)" fill="#00a3b1"/>
        <path id="Path_25665" data-name="Path 25665" d="M596.687,339.743a6.058,6.058,0,0,0,0,4.172,5.736,5.736,0,0,0,.364-2.058,5.553,5.553,0,0,0-.364-2.113Zm10.292,22.506a6.078,6.078,0,0,0,0,4.179A6.176,6.176,0,0,0,606.979,362.249Zm-11.068-5.9a5.589,5.589,0,0,0-2.059.37,6.175,6.175,0,0,0,4.172,0,5.569,5.569,0,0,0-2.086-.37Zm1-30.493a5.612,5.612,0,0,0-1.729-1.215,6.085,6.085,0,0,0,2.951,2.951,5.667,5.667,0,0,0-1.194-1.736Zm22.1,43.873a5.614,5.614,0,0,0-1.729-1.214,6.087,6.087,0,0,0,2.95,2.95,5.661,5.661,0,0,0-1.194-1.736Zm-9.7-19.542a5.64,5.64,0,0,0-1.736-1.215,6.086,6.086,0,0,0,2.95,2.951,5.641,5.641,0,0,0-1.187-1.736ZM593.593,371.2c-.186.2-.371.4-.542.611l.761.185c.1-.089.206-.178.3-.275a5.719,5.719,0,0,0,1.214-1.736,5.639,5.639,0,0,0-1.736,1.214Z" transform="translate(-405.541 -286.337)" fill="#fff"/>
        <path id="Path_25666" data-name="Path 25666" d="M591.068,352.743c3.644,1.51,13.126,6.862,15.157,8.989.055.062,0,.158-.082.11-2.024-1.6-13.723-8.131-15.59-8.92a2.88,2.88,0,0,1-.144.281c-.069.089-.117,0-.11-.048s.151-.59.172-.624Z" transform="translate(-404.678 -295.09)" fill="#263238"/>
        <path id="Path_25667" data-name="Path 25667" d="M592.987,369.206c.446-1.784,2.182-8.92,2.477-10.745,0,0-.041-.048-.048,0-.625,1.667-2.539,8.673-2.992,10.464A99.868,99.868,0,0,0,590.05,379.7c0,.062.089.1.11.034C591.34,376.28,592.108,372.726,592.987,369.206Z" transform="translate(-404.599 -296.944)" fill="#263238"/>
        <path id="Path_25668" data-name="Path 25668" d="M596.371,350.937c-.9-2.258-2.059-4.419-3.019-6.628s-2.058-4.4-2.957-6.628h-.055c.556,1.516,1.1,3.033,1.7,4.529-.186-.24-.371-.494-.542-.741-.323-.46-.611-.94-.9-1.42h-.048a7.507,7.507,0,0,0,.823,1.51,10.426,10.426,0,0,0,.81.995c.247.611.5,1.215.769,1.825a46.764,46.764,0,0,0,3.046,6.5C596.042,351.005,596.4,351.019,596.371,350.937Z" transform="translate(-404.69 -290.429)" fill="#263238"/>
        <path id="Path_25669" data-name="Path 25669" d="M611.849,394.362c-6.587.926-27.3-3.87-30.823-4.8.062-.377.055-.515.151-1.043,0-.069-.1-.11-.117-.034-.131.5-.522,1.489-.384,1.558,1.681.762,24.75,6.024,31.172,4.467C611.945,394.5,611.952,394.348,611.849,394.362Z" transform="translate(-401.649 -306.36)" fill="#263238"/>
        <path id="Path_25670" data-name="Path 25670" d="M485.413,325.117l-26.953,3.04-9.4-37.568,26.953-3.04Z" transform="translate(-326.338 -246.866)" fill="#263238"/>
        <path id="Path_25671" data-name="Path 25671" d="M483.483,325.337l-26.952,3.04-9.4-37.568,26.953-3.04Z" transform="translate(-325.733 -246.935)" fill="#37474f"/>
        <path id="Path_25672" data-name="Path 25672" d="M517.733,354.743a2.93,2.93,0,0,0,3.143,2.3,2.374,2.374,0,0,0,2.1-2.889,2.937,2.937,0,0,0-3.149-2.3,2.374,2.374,0,0,0-2.093,2.889Z" transform="translate(-381.885 -294.873)" fill="#fff"/>
        <path id="Path_25673" data-name="Path 25673" d="M494.635,344c-1.18,3.115-4.474,7.136-4.57,9.606a2.855,2.855,0,0,0,1.811,2.875s-2.354,1.414-2.058,3.678c.151,1.166,2.134,1.956,2.134,1.956a3.4,3.4,0,0,0-1.455,3.218c.3,1.592,2.244,2.148,2.244,2.148s-1.215,1.99-.391,3.513c1.674,3.088,15.528,1.976,17.264-3.3.8-2.457-2.566-2-2.566-2s4.687-1.825,4.536-4.687-4.5-2-4.5-2,4.529-1.812,4.069-4.762c-.48-3.074-4.68-1.475-4.68-1.475s2.916-2.333,2.059-4.515c-1.441-3.6-6.9,1.51-10,1.036l-2.058-4.892Z" transform="translate(-373.135 -292.413)" fill="#dd6a57"/>
        <path id="Path_25674" data-name="Path 25674" d="M492.073,345.546c.865-3.053-3.1-6.416-2.7-9.455.556-4.117,5.414-.515,6.9,5.27l.364,4.693Z" transform="translate(-372.995 -289.375)" fill="#dd6a57"/>
        <path id="Path_25675" data-name="Path 25675" d="M494.489,377.413a.041.041,0,0,0,0,.075,24.139,24.139,0,0,0,14.2-2c.144-.069.089-.323-.082-.274A49.411,49.411,0,0,1,494.489,377.413Z" transform="translate(-374.601 -302.208)" fill="#263238"/>
        <path id="Path_25676" data-name="Path 25676" d="M492.811,368.945c-.055,0-.055.089,0,.1a22.588,22.588,0,0,0,15.363-3.143c.158-.1.2-.357,0-.247C504.984,367.442,497.306,368.972,492.811,368.945Z" transform="translate(-374.07 -299.201)" fill="#263238"/>
        <path id="Path_25677" data-name="Path 25677" d="M507.747,356.3c-4.508,2.745-9.442,3.76-14.656,4.076-.062,0-.055.1,0,.117a19.719,19.719,0,0,0,8.426-.686,13.9,13.9,0,0,0,6.313-3.376C507.911,356.393,507.843,356.242,507.747,356.3Z" transform="translate(-374.156 -296.269)" fill="#263238"/>
        <path id="Path_25678" data-name="Path 25678" d="M575.5,322.681c2.944.11,6.924-5.139,8.145-9a59.674,59.674,0,0,0-1.688-5.729c-.549-1.839-1.1-3.891-1.482-5.8-.076-.391-11.425,5.283-11.425,5.283a31.064,31.064,0,0,1,2.607,7.115,4.029,4.029,0,0,1,.069.8v.137C571.76,317.02,572.653,322.571,575.5,322.681Z" transform="translate(-398.009 -279.273)" fill="#dd6a57"/>
        <path id="Path_25679" data-name="Path 25679" d="M579.751,302.44c.075,3.349-.391,11.555-6.766,12.962a7.219,7.219,0,0,1-1.242.178.478.478,0,0,1,0-.137,5.542,5.542,0,0,0-.076-.8,31.03,31.03,0,0,0-2.607-7.122S577.253,303.435,579.751,302.44Z" transform="translate(-398.012 -279.37)" fill="#263238"/>
        <path id="Path_25680" data-name="Path 25680" d="M573.878,278.009c2.545,3.753,4.069,16.392,1.949,19.974-3.067,5.194-9.949,7.726-14.821,3.616-4.728-3.994-6.423-20.5-3.884-23.947C560.862,272.581,570.118,272.471,573.878,278.009Z" transform="translate(-393.896 -270.398)" fill="#dd6a57"/>
        <path id="Path_25681" data-name="Path 25681" d="M568.3,295.856c0-.034.069.034.075.069.048.858.24,1.832,1.043,2.058v.048C568.46,297.969,568.213,296.672,568.3,295.856Z" transform="translate(-397.769 -277.3)" fill="#263238"/>
        <path id="Path_25682" data-name="Path 25682" d="M568.987,294.454c1.373-.227,1.716,2.525.446,2.745S567.842,294.639,568.987,294.454Z" transform="translate(-397.768 -276.859)" fill="#263238"/>
        <path id="Path_25683" data-name="Path 25683" d="M561.085,296.77s-.062.048-.062.082c.137.851.151,1.846-.583,2.223v.048C561.373,298.87,561.346,297.552,561.085,296.77Z" transform="translate(-395.307 -277.59)" fill="#263238"/>
        <path id="Path_25684" data-name="Path 25684" d="M559.675,295.62c-1.372.069-1.139,2.827.144,2.745S560.835,295.558,559.675,295.62Z" transform="translate(-394.775 -277.229)" fill="#263238"/>
        <path id="Path_25685" data-name="Path 25685" d="M569.369,290.933a10.317,10.317,0,0,1-1.112-.233,1.853,1.853,0,0,1-1.091-.453.61.61,0,0,1,0-.72,1.454,1.454,0,0,1,1.434-.336,2.132,2.132,0,0,1,1.373.755.624.624,0,0,1-.6.988Z" transform="translate(-397.381 -275.191)" fill="#263238"/>
        <path id="Path_25686" data-name="Path 25686" d="M557.646,292.985a10.363,10.363,0,0,0,1.084-.336,1.873,1.873,0,0,0,1.043-.556.59.59,0,0,0-.069-.686,1.448,1.448,0,0,0-1.462-.2,2.119,2.119,0,0,0-1.283.851.624.624,0,0,0,.686.926Z" transform="translate(-394.187 -275.809)" fill="#263238"/>
        <path id="Path_25687" data-name="Path 25687" d="M571.591,306.623c-.1.268-.151.611-.411.775a2.332,2.332,0,0,1-.92.233v.055a1.146,1.146,0,0,0,1.18-.089.913.913,0,0,0,.254-.981A.056.056,0,0,0,571.591,306.623Z" transform="translate(-398.388 -280.671)" fill="#263238"/>
        <path id="Path_25688" data-name="Path 25688" d="M567.712,299.573a2.966,2.966,0,0,1-1.771,1.537,3.776,3.776,0,0,1-1.036.178h-.4a.212.212,0,0,1-.192-.165h0a.388.388,0,0,1,0-.089h0v-.076c-.1-.652-.158-1.654-.158-1.654-.227.144-1.373.851-1.373.508a43.5,43.5,0,0,1,0-8.92.082.082,0,0,1,.158,0c.288,2.745.1,5.489.343,8.234a5.243,5.243,0,0,1,1.317-.59c.1,0,.082,1.949.151,2.237h0a4.042,4.042,0,0,0,2.882-1.311A.074.074,0,0,1,567.712,299.573Z" transform="translate(-395.971 -275.727)" fill="#263238"/>
        <path id="Path_25689" data-name="Path 25689" d="M567,305.1a3.19,3.19,0,0,0,1.516.624,1.51,1.51,0,0,0,.865-.178c.57-.329.432-.9.186-1.372a3.569,3.569,0,0,0-.48-.686A4.117,4.117,0,0,1,567,305.1Z" transform="translate(-397.365 -279.699)" fill="#263238"/>
        <path id="Path_25690" data-name="Path 25690" d="M569.187,306.041a1.511,1.511,0,0,0,.865-.178c.57-.329.432-.9.185-1.372A1.482,1.482,0,0,0,569.187,306.041Z" transform="translate(-398.05 -280.013)" fill="#ff9bbc"/>
        <path id="Path_25691" data-name="Path 25691" d="M576.718,285.541c-3.088,1.2-5.9-2.058-6.107-5.318,0,0-8.049,3.719-10.547-2.9a6.93,6.93,0,0,1-4.522,4.721l-.165,2.779c-.94,0-2.614-2.148-1.1-4.721a8.388,8.388,0,0,1,.961-6.176,4.8,4.8,0,0,1,4.721-2.223,7.274,7.274,0,0,1,4.68-2.82A6.176,6.176,0,0,1,570,270.747s4.405-.494,6.031,2.237a6.423,6.423,0,0,1,.686,5.194s1.373.837,1.654,3.52C578.556,283.414,577.644,285.178,576.718,285.541Z" transform="translate(-393.181 -268.818)" fill="#263238"/>
        <path id="Path_25692" data-name="Path 25692" d="M563,280.26a8.152,8.152,0,0,0,.487,1.654,6.868,6.868,0,0,0,.8,1.5,4.438,4.438,0,0,0,2.69,1.818,7.279,7.279,0,0,0,3.342-.185c.535-.185,1.091-.329,1.626-.549s1.057-.46,1.592-.686c-.494.295-1.009.576-1.51.865s-1.084.439-1.626.686a7.156,7.156,0,0,1-3.513.281,4.672,4.672,0,0,1-2.861-2.059A6.977,6.977,0,0,1,563,280.26Z" transform="translate(-396.11 -272.409)" fill="#263238"/>
        <path id="Path_25693" data-name="Path 25693" d="M558.45,285.612a9.318,9.318,0,0,0,2.12-2.161,5.491,5.491,0,0,0,.686-1.331,6.588,6.588,0,0,0,.309-1.489,3.676,3.676,0,0,1,0,1.571,4.11,4.11,0,0,1-.631,1.475,5.015,5.015,0,0,1-1.084,1.167A4.765,4.765,0,0,1,558.45,285.612Z" transform="translate(-394.682 -272.525)" fill="#263238"/>
        <path id="Path_25694" data-name="Path 25694" d="M582.76,293.339s1.6-4.673,3.644-4.213,1.626,6.69-.227,8.063a2.2,2.2,0,0,1-3.149-.323Z" transform="translate(-402.312 -275.181)" fill="#dd6a57"/>
        <path id="Path_25695" data-name="Path 25695" d="M586.8,291.74v.048a5.537,5.537,0,0,0-1.791,4.117,1.2,1.2,0,0,1,1.647-.817c.048,0,0,.082,0,.082a1.373,1.373,0,0,0-1.3.865,6.663,6.663,0,0,0-.357,1.372c0,.151-.281.151-.274,0v-.034C584.169,295.507,584.855,292.495,586.8,291.74Z" transform="translate(-402.87 -276.012)" fill="#263238"/>
      </g>
    </g>
  </g>
</svg>
