<svg xmlns="http://www.w3.org/2000/svg" width="40" height="40" viewBox="0 0 40 40">
  <g id="Group_18003" data-name="Group 18003" transform="translate(-22.871 -459.871)">
    <circle id="Ellipse_928" data-name="Ellipse 928" cx="20" cy="20" r="20" transform="translate(22.871 459.871)" fill="#defafc"/>
    <g id="news" transform="translate(32.598 469.598)">
      <path id="Path_33330" data-name="Path 33330" d="M17.55,20.546H3.21A3.214,3.214,0,0,1,0,17.336V2.354A2.356,2.356,0,0,1,2.354,0h10.7A2.356,2.356,0,0,1,15.41,2.354v.214h2.782a2.356,2.356,0,0,1,2.354,2.354V17.336a3.215,3.215,0,0,1-2.826,3.187A.62.62,0,0,1,17.55,20.546ZM15.41,3.852V17.336a1.926,1.926,0,1,0,3.852,0V4.923a1.072,1.072,0,0,0-1.07-1.07ZM2.354,1.284a1.072,1.072,0,0,0-1.07,1.07V17.336A1.928,1.928,0,0,0,3.21,19.262H14.769a3.194,3.194,0,0,1-.644-1.926V2.354a1.072,1.072,0,0,0-1.07-1.07Z" fill="#00a3b1"/>
      <path id="Path_33331" data-name="Path 33331" d="M7.495,8.137H3.642A.642.642,0,0,1,3,7.495V3.642A.642.642,0,0,1,3.642,3H7.495a.642.642,0,0,1,.642.642V7.495A.642.642,0,0,1,7.495,8.137ZM4.284,6.852H6.852V4.284H4.284Z" transform="translate(-0.432 -0.432)" fill="#00a3b1"/>
      <path id="Path_33332" data-name="Path 33332" d="M13.782,5.284h-2.14a.642.642,0,0,1,0-1.284h2.14a.642.642,0,1,1,0,1.284Z" transform="translate(-1.583 -0.576)" fill="#00a3b1"/>
      <path id="Path_33333" data-name="Path 33333" d="M13.782,8.284h-2.14a.642.642,0,0,1,0-1.284h2.14a.642.642,0,1,1,0,1.284Z" transform="translate(-1.583 -1.007)" fill="#00a3b1"/>
      <path id="Path_33334" data-name="Path 33334" d="M12.631,12.284H3.642a.642.642,0,1,1,0-1.284h8.989a.642.642,0,0,1,0,1.284Z" transform="translate(-0.432 -1.583)" fill="#00a3b1"/>
      <path id="Path_33335" data-name="Path 33335" d="M12.631,16.034H3.642a.642.642,0,1,1,0-1.284h8.989a.642.642,0,0,1,0,1.284Z" transform="translate(-0.432 -2.122)" fill="#00a3b1"/>
      <path id="Path_33336" data-name="Path 33336" d="M12.631,19.784H3.642a.642.642,0,0,1,0-1.284h8.989a.642.642,0,0,1,0,1.284Z" transform="translate(-0.432 -2.662)" fill="#00a3b1"/>
    </g>
  </g>
</svg>
