<svg id="notification_icon" xmlns="http://www.w3.org/2000/svg" width="40" height="40" viewBox="0 0 40 40">
  <rect id="Rectangle_8261" data-name="Rectangle 8261" width="40" height="40" fill="none"/>
  <path id="fi-rr-bell" d="M29.741,18.213,27.208,9.1a12.427,12.427,0,0,0-24.1.632L1.145,18.55a6.666,6.666,0,0,0,6.507,8.112H9.137a6.666,6.666,0,0,0,13.065,0h1.117a6.666,6.666,0,0,0,6.423-8.45ZM15.67,29.329a4,4,0,0,1-3.754-2.666h7.508a4,4,0,0,1-3.754,2.666ZM26.5,22.417A3.969,3.969,0,0,1,23.318,24H7.652a4,4,0,0,1-3.9-4.867l1.96-8.82a9.76,9.76,0,0,1,18.931-.5l2.533,9.114a3.969,3.969,0,0,1-.669,3.49Z" transform="translate(5.014 3.998)" fill="#00a0ad"/>
</svg>
