<svg xmlns="http://www.w3.org/2000/svg" width="602" height="400" viewBox="0 0 602 400" fill="none"><path d="M82.3524 294.621C82.3524 294.621 114.502 367.655 195.789 391.539C277.076 415.423 363.88 383.595 434.815 359.673C505.75 335.751 543.056 274.581 527.252 211.861C511.447 149.141 451.687 153.651 395.953 97.9524C340.218 42.2538 333.865 19.0108 256.629 2.55878C179.393 -13.8933 94.8522 50.877 73.7106 142.606C52.569 234.335 82.3524 294.621 82.3524 294.621Z" fill="#00A0AD"></path><path opacity="0.8" d="M82.3524 294.621C82.3524 294.621 114.502 367.655 195.789 391.539C277.076 415.423 363.88 383.595 434.815 359.673C505.75 335.751 543.056 274.581 527.252 211.861C511.447 149.141 451.687 153.651 395.953 97.9524C340.218 42.2538 333.865 19.0108 256.629 2.55878C179.393 -13.8933 94.8522 50.877 73.7106 142.606C52.569 234.335 82.3524 294.621 82.3524 294.621Z" fill="white"></path><path d="M495.269 195.909C495.269 195.909 524.744 198.817 539.674 217.025C539.674 217.025 555.466 195.934 583.809 196.37C590.736 188.044 595.146 177.929 596.527 167.203C597.908 156.477 596.202 145.58 591.608 135.782C587.015 125.984 579.722 117.688 570.58 111.859C561.437 106.031 550.822 102.91 539.968 102.86C529.114 102.809 518.47 105.832 509.274 111.576C500.077 117.319 492.708 125.548 488.023 135.302C483.338 145.057 481.531 155.938 482.811 166.676C484.092 177.415 488.408 187.57 495.256 195.96L495.269 195.909Z" fill="#00A0AD"></path><path opacity="0.5" d="M495.269 195.909C495.269 195.909 524.744 198.817 539.674 217.025C539.674 217.025 555.466 195.934 583.809 196.37C590.736 188.044 595.146 177.929 596.527 167.203C597.908 156.477 596.202 145.58 591.608 135.782C587.015 125.984 579.722 117.688 570.58 111.859C561.437 106.031 550.822 102.91 539.968 102.86C529.114 102.809 518.47 105.832 509.274 111.576C500.077 117.319 492.708 125.548 488.023 135.302C483.338 145.057 481.531 155.938 482.811 166.676C484.092 177.415 488.408 187.57 495.256 195.96L495.269 195.909Z" fill="white"></path><path d="M538.685 106.883L537.694 297.209H542.671L538.685 106.883Z" fill="#333322"></path><path d="M540.189 211.477C540.189 211.477 550.13 193.628 568.044 188.17C568.044 188.17 549.14 192.641 539.752 208.004L540.189 211.477Z" fill="#333322"></path><path d="M540.189 160.916C540.189 160.916 550.13 143.068 568.044 137.609C568.044 137.609 549.14 142.068 539.752 157.444L540.189 160.916Z" fill="#333322"></path><path d="M540.189 186.171C540.189 186.171 550.13 168.322 568.044 162.864C568.044 162.864 549.14 167.336 539.752 182.698L540.189 186.171Z" fill="#333322"></path><path d="M538.71 173.793C538.71 173.793 529.104 155.957 511.82 150.499C511.82 150.499 530.068 154.958 539.186 170.334L538.71 173.793Z" fill="#333322"></path><path d="M538.71 198.586C538.71 198.586 529.104 180.738 511.82 175.292C511.82 175.292 530.068 179.751 539.186 195.114L538.71 198.586Z" fill="#333322"></path><path d="M12.8581 195.909C12.8581 195.909 42.3329 198.817 57.2632 217.025C57.2632 217.025 73.055 195.934 101.398 196.37C108.325 188.044 112.735 177.929 114.116 167.203C115.497 156.477 113.791 145.58 109.197 135.782C104.603 125.984 97.311 117.688 88.1687 111.859C79.0264 106.031 68.4104 102.91 57.5569 102.86C46.7033 102.809 36.0587 105.832 26.8624 111.576C17.6662 117.319 10.2966 125.548 5.61176 135.302C0.926933 145.057 -0.880396 155.938 0.400208 166.676C1.68081 177.415 5.99666 187.57 12.8452 195.96L12.8581 195.909Z" fill="#00A0AD"></path><path opacity="0.5" d="M12.8581 195.909C12.8581 195.909 42.3329 198.817 57.2632 217.025C57.2632 217.025 73.055 195.934 101.398 196.37C108.325 188.044 112.735 177.929 114.116 167.203C115.497 156.477 113.791 145.58 109.197 135.782C104.603 125.984 97.311 117.688 88.1687 111.859C79.0264 106.031 68.4104 102.91 57.5569 102.86C46.7033 102.809 36.0587 105.832 26.8624 111.576C17.6662 117.319 10.2966 125.548 5.61176 135.302C0.926933 145.057 -0.880396 155.938 0.400208 166.676C1.68081 177.415 5.99666 187.57 12.8452 195.96L12.8581 195.909Z" fill="white"></path><path d="M56.299 106.883L55.2959 297.209H60.2727L56.299 106.883Z" fill="#333322"></path><path d="M57.7898 211.477C57.7898 211.477 67.7304 193.628 85.6442 188.17C85.6442 188.17 66.7402 192.641 57.3525 208.004L57.7898 211.477Z" fill="#333322"></path><path d="M57.7898 160.916C57.7898 160.916 67.7304 143.068 85.6442 137.609C85.6442 137.609 66.7402 142.068 57.3525 157.444L57.7898 160.916Z" fill="#333322"></path><path d="M57.7898 186.171C57.7898 186.171 67.7304 168.322 85.6442 162.864C85.6442 162.864 66.7402 167.336 57.3525 182.698L57.7898 186.171Z" fill="#333322"></path><path d="M56.3108 173.793C56.3108 173.793 46.7045 155.957 29.4209 150.499C29.4209 150.499 47.669 154.958 56.7866 170.334L56.3108 173.793Z" fill="#333322"></path><path d="M56.3108 198.586C56.3108 198.586 46.7045 180.738 29.4209 175.292C29.4209 175.292 47.669 179.751 56.7866 195.114L56.3108 198.586Z" fill="#333322"></path><path d="M375.505 214.36C375.505 214.36 399.631 216.73 411.847 231.632C411.847 231.632 424.772 214.372 447.971 214.718C453.637 207.903 457.244 199.624 458.371 190.846C459.499 182.067 458.1 173.15 454.339 165.133C450.578 157.116 444.608 150.328 437.125 145.56C429.642 140.791 420.954 138.239 412.072 138.2C403.189 138.161 394.479 140.636 386.954 145.338C379.428 150.04 373.399 156.775 369.566 164.758C365.733 172.742 364.256 181.646 365.305 190.434C366.354 199.223 369.887 207.533 375.493 214.398L375.505 214.36Z" fill="#00A0AD"></path><path opacity="0.5" d="M375.505 214.36C375.505 214.36 399.631 216.73 411.847 231.632C411.847 231.632 424.772 214.372 447.971 214.718C453.637 207.903 457.244 199.624 458.371 190.846C459.499 182.067 458.1 173.15 454.339 165.133C450.578 157.116 444.608 150.328 437.125 145.56C429.642 140.791 420.954 138.239 412.072 138.2C403.189 138.161 394.479 140.636 386.954 145.338C379.428 150.04 373.399 156.775 369.566 164.758C365.733 172.742 364.256 181.646 365.305 190.434C366.354 199.223 369.887 207.533 375.493 214.398L375.505 214.36Z" fill="white"></path><path d="M411.05 141.427L410.24 297.209H414.317L411.05 141.427Z" fill="#333322"></path><path d="M412.272 227.045C412.272 227.045 420.425 212.438 435.073 207.966C435.073 207.966 419.641 211.618 411.925 224.2L412.272 227.045Z" fill="#333322"></path><path d="M412.272 185.658C412.272 185.658 420.425 171.051 435.073 166.592C435.073 166.592 419.641 170.244 411.925 182.814L412.272 185.658Z" fill="#333322"></path><path d="M412.272 206.351C412.272 206.351 420.425 191.744 435.073 187.272C435.073 187.272 419.641 190.924 411.925 203.507L412.272 206.351Z" fill="#333322"></path><path d="M411.064 196.203C411.064 196.203 403.206 181.596 389.061 177.137C389.061 177.137 403.991 180.789 411.462 193.359L411.064 196.203Z" fill="#333322"></path><path d="M411.064 216.486C411.064 216.486 403.206 201.879 389.061 197.42C389.061 197.42 403.991 201.072 411.462 213.655L411.064 216.486Z" fill="#333322"></path><path d="M142.087 214.36C142.087 214.36 166.213 216.73 178.429 231.632C178.429 231.632 191.289 214.372 214.553 214.718C220.219 207.903 223.826 199.624 224.953 190.846C226.081 182.067 224.682 173.15 220.921 165.133C217.16 157.116 211.19 150.328 203.707 145.56C196.224 140.791 187.536 138.239 178.654 138.2C169.771 138.161 161.061 140.636 153.536 145.338C146.01 150.04 139.981 156.775 136.148 164.758C132.315 172.742 130.838 181.646 131.887 190.434C132.936 199.223 136.469 207.533 142.075 214.398L142.087 214.36Z" fill="#00A0AD"></path><path opacity="0.5" d="M142.087 214.36C142.087 214.36 166.213 216.73 178.429 231.632C178.429 231.632 191.289 214.372 214.553 214.718C220.219 207.903 223.826 199.624 224.953 190.846C226.081 182.067 224.682 173.15 220.921 165.133C217.16 157.116 211.19 150.328 203.707 145.56C196.224 140.791 187.536 138.239 178.654 138.2C169.771 138.161 161.061 140.636 153.536 145.338C146.01 150.04 139.981 156.775 136.148 164.758C132.315 172.742 130.838 181.646 131.887 190.434C132.936 199.223 136.469 207.533 142.075 214.398L142.087 214.36Z" fill="white"></path><path d="M177.63 141.427L176.82 297.209H180.897L177.63 141.427Z" fill="#333322"></path><path d="M178.919 227.045C178.919 227.045 187.072 212.438 201.719 207.966C201.719 207.966 186.287 211.618 178.571 224.2L178.919 227.045Z" fill="#333322"></path><path d="M178.919 185.658C178.919 185.658 187.072 171.051 201.719 166.592C201.719 166.592 186.287 170.244 178.571 182.814L178.919 185.658Z" fill="#333322"></path><path d="M178.919 206.351C178.919 206.351 187.072 191.744 201.719 187.272C201.719 187.272 186.287 190.924 178.571 203.507L178.919 206.351Z" fill="#333322"></path><path d="M177.631 196.204C177.631 196.204 169.786 181.597 155.641 177.202C155.641 177.202 170.571 180.853 178.042 193.423L177.631 196.204Z" fill="#333322"></path><path d="M177.631 216.486C177.631 216.486 169.774 201.879 155.628 197.42C155.628 197.42 170.558 201.072 178.03 213.655L177.631 216.486Z" fill="#333322"></path><path d="M21.7314 297.888H576.685" stroke="#333333" stroke-width="1.04742" stroke-miterlimit="10"></path><path d="M219.439 57.6807C219.439 47.7762 224.686 42.1128 234.267 42.1128C243.847 42.1128 249.107 47.7762 249.107 57.6807V89.8929C249.107 99.7974 243.86 105.461 234.267 105.461C224.673 105.461 219.439 99.7974 219.439 89.8929V57.6807ZM229.213 90.5079C229.213 94.9284 231.168 96.6069 234.267 96.6069C237.366 96.6069 239.334 94.9284 239.334 90.5079V57.0657C239.334 52.6452 237.379 50.9667 234.267 50.9667C231.155 50.9667 229.213 52.6452 229.213 57.0657V90.5079Z" fill="#333333"></path><path d="M256.475 57.6807C256.475 47.7762 261.709 42.1128 271.302 42.1128C280.895 42.1128 286.129 47.7762 286.129 57.6807V89.8929C286.129 99.7974 280.883 105.461 271.302 105.461C261.721 105.461 256.475 99.7974 256.475 89.8929V57.6807ZM266.235 90.5079C266.235 94.9284 268.19 96.6069 271.302 96.6069C274.414 96.6069 276.356 94.9284 276.356 90.5079V57.0657C276.356 52.6452 274.401 50.9667 271.302 50.9667C268.203 50.9667 266.235 52.6452 266.235 57.0657V90.5079Z" fill="#333333"></path><path d="M323.243 58.1294V66.1761C323.243 76.0934 318.447 81.5518 308.686 81.5518H304.069V104.82H294.296V42.8306H308.686C318.447 42.8306 323.243 48.2249 323.243 58.1294ZM304.069 51.7229V72.6851H308.686C311.785 72.6851 313.47 71.2757 313.47 66.8551V57.5656C313.47 53.1323 311.785 51.7229 308.686 51.7229H304.069Z" fill="#333333"></path><path d="M343.228 42.1128C352.718 42.1128 357.605 47.7762 357.605 57.6807V59.6283H348.372V57.0657C348.372 52.6452 346.597 50.9667 343.485 50.9667C340.373 50.9667 338.598 52.6452 338.598 57.0657C338.598 69.8019 357.695 72.198 357.695 89.8929C357.695 99.7974 352.718 105.461 343.138 105.461C333.557 105.461 328.567 99.7974 328.567 89.8929V86.0489H337.801V90.4695C337.801 94.89 339.755 96.4916 342.868 96.4916C345.98 96.4916 347.921 94.89 347.921 90.4695C347.921 77.7332 328.837 75.3372 328.837 57.6423C328.837 47.789 333.724 42.1128 343.228 42.1128Z" fill="#333333"></path><path d="M366.402 91.0335L365.116 68.6618V42.8306H374.89V68.6618L373.604 91.0335H366.402ZM374.748 95.3771V104.756H365.386V95.3771H374.748Z" fill="#333333"></path><path opacity="0.3" d="M173.245 359.724C173.245 363.568 149.544 366.631 120.288 366.631C91.0317 366.631 67.3311 363.543 67.3311 359.724C67.3311 355.906 91.0446 352.818 120.288 352.818C149.531 352.818 173.245 355.919 173.245 359.724Z" fill="#333333"></path><path opacity="0.3" d="M284.11 359.724C284.11 363.568 260.396 366.631 231.153 366.631C201.91 366.631 178.196 363.543 178.196 359.724C178.196 355.906 201.91 352.818 231.153 352.818C260.396 352.818 284.11 355.919 284.11 359.724Z" fill="#333333"></path><path opacity="0.3" d="M430.97 359.724C430.97 363.568 407.269 366.631 378.026 366.631C348.783 366.631 325.069 363.543 325.069 359.724C325.069 355.906 348.77 352.818 378.026 352.818C407.282 352.818 430.97 355.919 430.97 359.724Z" fill="#333333"></path><path opacity="0.3" d="M553.653 359.724C553.653 363.568 529.939 366.631 500.696 366.631C471.453 366.631 447.688 363.543 447.688 359.724C447.688 355.906 471.401 352.818 500.644 352.818C529.888 352.818 553.653 355.919 553.653 359.724Z" fill="#333333"></path><path d="M383.749 157.687C383.749 157.687 381.576 166.656 381.576 168.168C381.574 169.104 381.471 170.036 381.267 170.949C381.267 170.949 376.625 176.497 377.242 178.034C377.992 179.23 379.067 180.189 380.341 180.802C380.341 180.802 382.81 189.771 385.292 190.361C387.841 190.835 390.419 191.143 393.008 191.283L393.934 198.676L406.305 196.831L403.219 185.735L404.505 176.177C404.505 176.177 406.665 172.179 404.505 165.708C402.345 159.238 397.702 158.93 394.603 158.93C390.966 158.701 387.343 158.286 383.749 157.687Z" fill="white" stroke="#333333" stroke-width="1.04742" stroke-linecap="round" stroke-linejoin="round"></path><path d="M389.317 153.074C389.317 153.074 378.489 152.754 378.797 155.535C379.106 158.315 390.243 161.941 390.243 161.941C390.243 161.941 386.526 164.401 388.378 166.874C390.23 169.347 394.564 171.5 394.564 171.5C394.564 171.5 393.278 176.74 395.194 177.048C397.11 177.355 398.28 174.575 398.589 173.652C398.897 172.73 402.305 173.037 403.231 175.497C403.755 176.776 404.067 178.13 404.157 179.508C404.157 179.508 407.874 168.412 408.491 163.479C409.108 158.546 395.194 153.074 389.317 153.074Z" fill="#333333" stroke="#333333" stroke-width="1.04742" stroke-linecap="round" stroke-linejoin="round"></path><path d="M396.171 177.201C396.171 177.201 399.913 169.001 402.151 173.037C404.388 177.073 403.437 181.276 401.238 181.724C399.039 182.173 397.2 182.608 397.2 182.608" fill="white"></path><path d="M396.171 177.201C396.171 177.201 399.913 169.001 402.151 173.037C404.388 177.073 403.437 181.276 401.238 181.724C399.039 182.173 397.2 182.608 397.2 182.608" stroke="#333333" stroke-width="1.04742" stroke-linecap="round" stroke-linejoin="round"></path><path d="M380.958 262.78C380.354 263.485 370.439 284.665 369.204 291.751C367.97 298.836 359.932 341.068 359.611 342.914C359.289 344.759 342.302 348.462 341.054 348.769C339.807 349.077 342.34 352.472 346.005 353.395C349.67 354.317 360.241 358.635 362.723 356.162C365.205 353.689 368.6 339.826 369.526 338.288C370.452 336.75 387.864 295.877 387.864 295.877C387.864 295.877 396.789 276.26 398.641 274.402C400.492 272.544 396.442 264.331 394.885 261.858C393.329 259.385 385.292 257.847 380.958 262.78Z" fill="#333333" stroke="#333333" stroke-width="1.04742" stroke-linecap="round" stroke-linejoin="round"></path><path d="M379.106 263.049C379.106 263.049 383.44 283.704 385.601 291.097C387.623 297.307 390.665 303.139 394.602 308.357C397.084 311.752 409.147 341.671 409.147 341.671L410.999 346.296C410.999 346.296 410.381 348.141 406.986 350.601C403.592 353.062 393.985 357.072 396.467 358.007C398.949 358.943 408.838 358.93 413.481 358.622C417.478 358.34 421.224 356.581 423.987 353.689C425.852 351.524 420.901 345.361 420.901 344.131C420.901 342.901 410.073 305.307 409.456 303.449C408.838 301.591 405.739 288.355 405.739 288.355V273.3C405.739 273.3 407.295 270.532 407.295 264.331C407.295 258.129 402.653 256.925 402.653 256.925L377.28 259.398L379.106 263.049Z" fill="#333333" stroke="#333333" stroke-width="1.04742" stroke-linecap="round" stroke-linejoin="round"></path><path d="M376.958 261.243C376.958 261.243 377.588 266.483 379.44 266.791C381.292 267.098 400.466 272.339 408.825 266.176C408.825 266.176 410.368 261.55 409.442 260.32C408.516 259.09 406.343 259.705 395.219 259.705C384.095 259.705 376.958 259.705 376.958 261.243Z" fill="#00A0AD" stroke="#333333" stroke-width="1.04742" stroke-linecap="round" stroke-linejoin="round"></path><path d="M405.391 192.206C405.391 192.206 393.946 193.743 388.995 198.612C384.044 203.481 379.723 212.489 377.562 220.804C375.402 229.12 373.846 259.641 376.932 261.179C380.018 262.716 406.008 264.266 410.368 262.46C414.727 260.653 410.059 246.123 410.059 240.575C410.059 235.027 415.01 216.23 414.084 205.762C413.158 195.294 405.391 192.206 405.391 192.206Z" fill="#00A0AD" stroke="#333333" stroke-width="1.04742" stroke-linecap="round" stroke-linejoin="round"></path><path d="M364.098 224.239C363.957 211.554 358.762 200.726 351.856 196.05V193.487L332.823 193.679C322.111 193.795 313.534 207.774 313.752 224.815C313.971 241.857 322.754 255.656 333.479 255.567L352.512 255.374V252.812C359.199 247.853 364.163 236.924 364.098 224.239Z" fill="#333333" stroke="#333333" stroke-width="1.04742" stroke-linecap="round" stroke-linejoin="round"></path><path d="M372.638 224.149C372.496 210.823 367.339 199.445 360.086 194.499V191.77L351.933 191.86C340.668 191.975 331.705 206.62 331.898 224.572C332.09 242.523 341.362 256.976 352.628 256.861L360.781 256.771V254.055C367.867 248.955 372.779 237.423 372.638 224.149Z" fill="white" stroke="#333333" stroke-width="1.04742" stroke-linecap="round" stroke-linejoin="round"></path><path d="M380.816 224.059C381.009 241.998 372.033 256.656 360.781 256.771C349.529 256.886 340.205 242.433 340.051 224.495C339.896 206.556 348.834 191.898 360.086 191.77C371.339 191.642 380.598 206.108 380.816 224.059Z" fill="white" stroke="#333333" stroke-width="1.04742" stroke-linecap="round" stroke-linejoin="round"></path><path d="M376.136 223.508C376.226 232.003 371.97 238.948 366.633 239.012C361.296 239.076 356.898 232.208 356.808 223.636C356.718 215.064 360.975 208.261 366.311 208.133C371.648 208.004 376.046 215 376.136 223.508Z" fill="#333333" stroke="#333333" stroke-width="1.04742" stroke-linecap="round" stroke-linejoin="round"></path><path d="M527.675 287.394C528.737 279.496 529.188 271.529 529.026 263.562C524.846 265.484 500.464 266.189 498.226 266.24C495.989 266.291 471.607 265.484 467.427 263.562C467.243 271.527 467.673 279.495 468.713 287.394C470.398 297.786 485.212 339.39 485.547 341.402C485.98 343.342 486.543 345.251 487.231 347.116C487.231 347.116 478.808 353.151 475.104 355.496C471.401 357.841 474.101 358.853 477.805 358.853C481.509 358.853 489.25 357.841 491.604 357.841C493.687 357.841 497.313 356.034 498.162 355.599C499.011 356.034 502.637 357.841 504.708 357.841C507.074 357.841 514.816 358.853 518.519 358.853C522.223 358.853 524.949 357.841 521.22 355.496C517.49 353.151 509.093 347.116 509.093 347.116C509.781 345.251 510.344 343.342 510.778 341.402C511.176 339.352 525.991 297.747 527.675 287.394Z" fill="#333333" stroke="#333333" stroke-width="1.04742" stroke-linecap="round" stroke-linejoin="round"></path><path d="M493.135 198.33C493.135 198.33 480.108 202.571 473.382 206.825C466.656 211.079 459.905 234.117 459.905 235.014C459.518 236.619 458.993 238.188 458.336 239.704C458.336 239.704 451.598 238.141 450.26 243.727C448.923 249.314 456.986 256.476 461.255 256.707C465.525 256.937 466.862 255.592 466.862 255.592C466.862 255.592 464.175 260.961 465.293 263.19C466.412 265.42 475.851 273.71 494.485 273.441C513.119 273.172 526.635 270.084 528.602 267.406C530.57 264.728 530.853 259.129 530.853 259.129C530.853 259.129 537.81 257.335 540.279 252.863C542.748 248.391 542.298 243.689 540.948 238.999C539.597 234.31 532.64 220.689 527.934 213.078C523.227 205.467 513.338 201.226 508.644 199.881C503.95 198.535 496.273 198.33 493.135 198.33Z" fill="#00A0AD" stroke="#333333" stroke-width="1.04742" stroke-linecap="round" stroke-linejoin="round"></path><path d="M497.083 217.166C498.948 216.551 504.799 211.374 507.049 206.198C507.94 204.216 508.567 202.127 508.914 199.983L508.618 199.894C503.912 198.548 496.273 198.33 493.186 198.33C493.186 198.33 490.46 199.214 486.859 200.585C486.882 203.355 487.404 206.098 488.403 208.683C490.434 213.86 495.27 217.793 497.083 217.166Z" fill="white" stroke="#333333" stroke-width="1.04742" stroke-linecap="round" stroke-linejoin="round"></path><path d="M518.494 227.621C518.494 227.621 523.882 256.259 529.991 259.206" stroke="#333333" stroke-width="1.04742" stroke-linecap="round" stroke-linejoin="round"></path><path d="M466.861 255.592C466.861 255.592 473.6 230.312 474.05 227.852" stroke="#333333" stroke-width="1.04742" stroke-linecap="round" stroke-linejoin="round"></path><path d="M527.2 240.562C527.2 240.562 523.471 241.395 523.471 244.086" stroke="#333333" stroke-width="1.04742" stroke-linecap="round" stroke-linejoin="round"></path><path d="M463.84 240.972C463.84 240.972 467.994 243.663 467.582 247.802" stroke="#333333" stroke-width="1.04742" stroke-linecap="round" stroke-linejoin="round"></path><path d="M491.67 357.866C493.753 357.866 497.379 356.06 498.228 355.624C499.077 356.06 502.703 357.866 504.774 357.866C507.14 357.866 514.882 358.879 518.585 358.879C522.289 358.879 525.015 357.866 521.286 355.522C518.058 353.484 511.294 348.667 509.571 347.437C505.597 351.05 497.74 350.153 497.74 350.153C496.148 349.914 494.572 349.58 493.02 349.154C490.667 348.474 487.297 347.142 487.297 347.142C487.297 347.142 478.874 353.177 475.171 355.522C471.467 357.866 474.167 358.879 477.871 358.879C481.575 358.879 489.316 357.866 491.67 357.866Z" fill="white" stroke="#333333" stroke-width="1.04742" stroke-linecap="round" stroke-linejoin="round"></path><path d="M497.737 347.193V288.688" stroke="white" stroke-width="1.04742" stroke-linecap="round" stroke-linejoin="round"></path><path d="M498.226 355.56L497.737 350.089V347.193" stroke="#333333" stroke-width="1.04742" stroke-linecap="round" stroke-linejoin="round"></path><path d="M493.02 286.677H502.78" stroke="white" stroke-width="1.04742" stroke-linecap="round" stroke-linejoin="round"></path><path d="M480.262 164.76C480.262 164.76 473.266 168.937 474.308 172.602C475.35 176.266 478.513 176.971 477.819 179.008C477.124 181.045 474.694 182.327 477.459 183.608C479.033 184.311 480.681 184.839 482.371 185.184C482.371 185.184 484.943 194.076 489.367 195.64C493.791 197.203 501.455 196.165 506.882 195.473C508.715 195.294 510.45 194.563 511.856 193.378C513.262 192.192 514.272 190.608 514.752 188.836C515.279 186.927 512.476 189.195 511.074 187.093C509.672 184.992 511.781 179.598 513.35 174.882C514.919 170.167 510.2 161.275 504.078 158.315C497.957 155.355 486.268 156.905 480.262 164.76Z" fill="#333333" stroke="#333333" stroke-width="1.04742" stroke-linecap="round" stroke-linejoin="round"></path><path d="M492.015 195.14C491.125 198.065 490.522 201.069 490.214 204.109C489.983 207.953 493.133 212.169 496.503 211.938C499.872 211.707 502.778 205.006 503.228 201.688C503.678 198.369 502.11 189.387 502.11 189.387C502.11 189.387 496.966 189.618 494.921 191.399C493.72 192.448 492.733 193.719 492.015 195.14Z" fill="white" stroke="#333333" stroke-width="1.04742" stroke-linecap="round" stroke-linejoin="round"></path><path d="M487.45 169.642C487.45 169.642 487.617 174.87 492.877 179.892C496.039 182.939 499.788 185.314 503.898 186.875C503.806 188.02 503.51 189.14 503.023 190.181C502.795 190.617 502.438 190.972 502.002 191.201C501.566 191.43 501.07 191.521 500.58 191.463H498.818C498.818 191.463 496.246 197.472 493.134 198.343C490.022 199.215 482.371 198.612 481.316 190.937C480.262 183.262 480.094 176.984 480.969 175.408C481.843 173.832 487.45 169.642 487.45 169.642Z" fill="white" stroke="#333333" stroke-width="1.04742" stroke-linecap="round" stroke-linejoin="round"></path><path d="M542.477 237.167C543.275 235.564 543.76 233.825 543.905 232.042C543.905 229.71 539.558 226.366 538.761 225.533C537.964 224.7 537.166 224.79 536.999 225.956C536.997 226.61 537.129 227.258 537.388 227.86C537.647 228.461 538.026 229.004 538.504 229.453C539.155 229.965 539.628 230.67 539.854 231.465C539.931 232.042 538.414 234.873 539.172 236.706C539.931 238.538 542.066 239.089 542.477 237.167Z" fill="white" stroke="#333333" stroke-width="1.04742" stroke-linecap="round" stroke-linejoin="round"></path><path d="M368.316 224.085C368.316 224.085 387.246 230.12 398.627 244.214C410.008 258.309 417.48 256.284 431.625 251.595C445.771 246.905 451.16 230.12 470.694 244.214C490.228 258.309 494.266 263.665 510.431 255.618C526.595 247.571 535.34 228.108 550.167 234.81C564.995 241.511 558.243 275.811 559.594 292.468C560.944 309.126 558.912 350.858 562.281 356.227C565.651 361.595 599.999 357.508 599.999 357.508" stroke="#333333" stroke-width="3.14226" stroke-linecap="round" stroke-linejoin="round"></path><path d="M403.771 201.688C403.771 201.688 400.003 195.563 394.447 197.165C388.57 198.856 385.535 207.223 384.159 212.438C382.783 217.653 381.858 223.29 379.337 228.147C379.337 228.147 368.2 227.954 361.989 226.161C357.25 224.689 352.589 222.978 348.023 221.035C348.023 221.035 345.824 217.973 344.268 217.371C342.712 216.769 338.674 215.59 338.378 216.512C338.083 217.435 343.059 220.472 343.059 220.472C343.059 220.472 333.8 221.753 332.874 222.74C331.948 223.726 339.42 226.673 339.42 226.673C339.42 226.673 342.211 227.57 349.001 225.956C349.001 225.956 373.91 241.716 378.874 243.522C383.838 245.329 386.59 245.906 389.972 239.397C393.354 232.888 404.581 216.743 406.368 210.247" fill="#00A0AD"></path><path d="M403.771 201.688C403.771 201.688 400.003 195.563 394.447 197.165C388.57 198.856 385.535 207.223 384.159 212.438C382.783 217.653 381.858 223.29 379.337 228.147C379.337 228.147 368.2 227.954 361.989 226.161C357.25 224.689 352.589 222.978 348.023 221.035C348.023 221.035 345.824 217.973 344.268 217.371C342.712 216.769 338.674 215.59 338.378 216.512C338.083 217.435 343.059 220.472 343.059 220.472C343.059 220.472 333.8 221.753 332.874 222.74C331.948 223.726 339.42 226.673 339.42 226.673C339.42 226.673 342.211 227.57 349.001 225.956C349.001 225.956 373.91 241.716 378.874 243.522C383.838 245.329 386.59 245.906 389.972 239.397C393.354 232.888 404.581 216.743 406.368 210.247" stroke="#333333" stroke-width="1.04742" stroke-linecap="round" stroke-linejoin="round"></path><path d="M354.491 223.649C350.852 222.291 348.061 221.086 348.061 221.086C348.061 221.086 345.862 218.024 344.306 217.422C342.75 216.82 338.712 215.641 338.416 216.563C338.121 217.486 343.097 220.523 343.097 220.523C343.097 220.523 333.838 221.804 332.912 222.791C331.987 223.777 339.458 226.724 339.458 226.724C339.458 226.724 342.249 227.621 349.039 226.007L352.524 228.198L354.491 223.649Z" fill="white" stroke="#333333" stroke-width="1.04742" stroke-linecap="round" stroke-linejoin="round"></path><path d="M450.505 239.525C449.707 237.922 449.222 236.182 449.077 234.399C449.077 232.067 453.437 228.736 454.221 227.903C455.006 227.07 455.803 227.16 455.97 228.326C455.972 228.98 455.84 229.628 455.581 230.23C455.322 230.832 454.943 231.374 454.465 231.824C453.814 232.336 453.341 233.04 453.115 233.836C453.038 234.399 454.555 237.244 453.797 239.076C453.038 240.908 450.916 241.434 450.505 239.525Z" fill="white" stroke="#333333" stroke-width="1.04742" stroke-linecap="round" stroke-linejoin="round"></path><path d="M453.501 232.49C453.501 232.49 449.913 239.089 451.996 241.459C454.079 243.83 456.098 236.129 456.484 234.002C456.87 231.875 454.825 229.735 453.501 232.49Z" fill="white" stroke="#333333" stroke-width="1.04742" stroke-linecap="round" stroke-linejoin="round"></path><path d="M456.458 234.861C456.458 234.861 452.87 241.459 454.953 243.83C457.036 246.2 459.055 238.499 459.441 236.372C459.827 234.245 457.782 232.029 456.458 234.861Z" fill="white" stroke="#333333" stroke-width="1.04742" stroke-linecap="round" stroke-linejoin="round"></path><path d="M459.713 235.411C459.713 235.411 456.125 242.01 458.208 244.381C460.291 246.751 462.31 239.05 462.696 236.923C463.082 234.796 461.037 232.644 459.713 235.411Z" fill="white" stroke="#333333" stroke-width="1.04742" stroke-linecap="round" stroke-linejoin="round"></path><path d="M463.877 235.463C463.877 235.463 460.534 240.588 462.36 242.523C464.186 244.457 466.154 238.371 466.539 236.616C466.925 234.86 465.112 233.156 463.877 235.463Z" fill="white" stroke="#333333" stroke-width="1.04742" stroke-linecap="round" stroke-linejoin="round"></path><path d="M540.086 232.746C540.086 232.746 543.674 239.345 541.59 241.716C539.507 244.086 537.488 236.372 537.102 234.245C536.717 232.119 538.761 229.979 540.086 232.746Z" fill="white" stroke="#333333" stroke-width="1.04742" stroke-linecap="round" stroke-linejoin="round"></path><path d="M537.128 235.053C537.128 235.053 540.716 241.651 538.632 244.022C536.549 246.392 534.53 238.679 534.144 236.552C533.759 234.425 535.803 232.298 537.128 235.053Z" fill="white" stroke="#333333" stroke-width="1.04742" stroke-linecap="round" stroke-linejoin="round"></path><path d="M533.849 235.668C533.849 235.668 537.437 242.267 535.354 244.637C533.27 247.007 531.251 239.307 530.878 237.167C530.506 235.027 532.563 232.9 533.849 235.668Z" fill="white" stroke="#333333" stroke-width="1.04742" stroke-linecap="round" stroke-linejoin="round"></path><path d="M529.707 235.719C529.707 235.719 533.051 240.908 531.225 242.779C529.398 244.65 527.431 238.628 527.058 236.872C526.685 235.117 528.473 233.413 529.707 235.719Z" fill="white" stroke="#333333" stroke-width="1.04742" stroke-linecap="round" stroke-linejoin="round"></path><path d="M87.2518 308.728V316.006C84.7169 318.766 82.8942 322.1 81.9406 325.718C80.3846 331.664 75.5107 357.251 76.7967 357.918C78.0827 358.584 90.1838 361.339 94.0418 360.762C98.4655 360.096 102.233 360.327 100.009 357.892C97.784 355.458 86.0944 348.654 86.0944 348.654C86.0944 348.654 98.9542 330.126 101.809 323.284C104.664 316.442 105.127 305.858 105.127 305.858L87.869 305.205L87.2518 308.728Z" fill="white" stroke="#333333" stroke-width="1.04742" stroke-linecap="round" stroke-linejoin="round"></path><path d="M94.0423 360.762C98.4661 360.096 102.234 360.327 100.009 357.892C97.7845 355.458 86.0949 348.654 86.0949 348.654L85.6577 351.293L77.2345 350.268C76.6172 354.548 76.3472 357.687 76.7973 357.956C78.1733 358.571 90.1844 361.339 94.0423 360.762Z" fill="#333333" stroke="#333333" stroke-width="1.04742" stroke-linecap="round" stroke-linejoin="round"></path><path d="M129.535 312.495L131.528 316.032C130.702 317.619 130.216 319.36 130.1 321.145C129.985 322.929 130.244 324.718 130.859 326.398C132.853 332.573 137.508 355.291 137.508 356.611C137.508 357.931 140.376 358.815 142.652 358.815C144.928 358.815 151.229 359.25 152.117 359.25C153.004 359.25 159.421 360.352 161.633 359.033C163.845 357.713 158.817 355.06 155.499 353.523C152.181 351.985 144.876 348.013 144.876 348.013C144.876 348.013 146.638 329.921 146.638 321.977C146.638 314.033 148.413 311.393 145.982 306.537C143.552 301.681 128.274 308.754 128.274 308.754L129.535 312.495Z" fill="white" stroke="#333333" stroke-width="1.04742" stroke-linecap="round" stroke-linejoin="round"></path><path d="M155.435 353.523C152.117 351.972 144.812 348.013 144.812 348.013L143.925 351.319L136.813 352.6C137.238 354.804 137.508 356.316 137.508 356.624C137.508 357.905 140.376 358.827 142.652 358.827C144.928 358.827 151.229 359.263 152.117 359.263C153.004 359.263 159.421 360.365 161.633 359.045C163.845 357.726 158.752 355.06 155.435 353.523Z" fill="#333333" stroke="#333333" stroke-width="1.04742" stroke-linecap="round" stroke-linejoin="round"></path><path d="M117.614 165.67C115.878 162.715 113.895 159.912 111.685 157.29C108.637 153.869 99.0826 154.061 94.8903 158.571C90.698 163.082 92.0226 171.128 93.6043 173.409C95.1861 175.69 98.3753 186.35 98.3753 186.35L99.1341 193.961L116.894 200.24L113.267 187.875C113.267 187.875 120.147 186.594 120.713 184.454C121.279 182.314 119.568 175.126 119.568 175.126C119.568 175.126 121.857 173.601 121.665 172.269C121.472 170.936 117.614 165.67 117.614 165.67Z" fill="white" stroke="#333333" stroke-width="1.04742" stroke-linecap="round" stroke-linejoin="round"></path><path d="M97.1799 173.87C97.1799 173.87 100.215 176.433 101.874 173.499C103.533 170.564 104.793 167.694 104.793 165.209C104.793 162.723 98.5559 160.66 102.71 158.994C106.863 157.328 109.86 161.031 111.711 157.316C113.563 153.6 111.879 153.203 101.899 153.203C91.9202 153.203 86.9306 158.174 89.0396 164.388C90.7263 168.978 92.8133 173.411 95.2766 177.637L97.1799 173.87Z" fill="#333333" stroke="#333333" stroke-width="1.04742" stroke-linecap="round" stroke-linejoin="round"></path><path d="M118.18 170.065C118.18 171.005 117.9 171.924 117.376 172.706C116.851 173.487 116.106 174.097 115.234 174.456C114.363 174.816 113.403 174.91 112.478 174.727C111.552 174.544 110.702 174.091 110.035 173.426C109.368 172.761 108.913 171.914 108.729 170.992C108.545 170.07 108.64 169.114 109.001 168.246C109.362 167.377 109.973 166.635 110.758 166.112C111.543 165.59 112.465 165.311 113.409 165.311C114.674 165.311 115.888 165.812 116.782 166.703C117.677 167.595 118.18 168.804 118.18 170.065V170.065Z" stroke="#333333" stroke-width="1.04742" stroke-linecap="round" stroke-linejoin="round"></path><path d="M117.486 165.849C118.041 165.623 118.635 165.505 119.235 165.503C120.229 165.505 121.193 165.835 121.978 166.442C122.763 167.049 123.324 167.898 123.572 168.856C123.821 169.815 123.743 170.828 123.352 171.738C122.96 172.648 122.277 173.402 121.409 173.883" stroke="#333333" stroke-width="1.04742" stroke-linecap="round" stroke-linejoin="round"></path><path d="M108.638 170.065L97.1797 173.87" stroke="#333333" stroke-width="1.04742" stroke-linecap="round" stroke-linejoin="round"></path><path d="M100.472 176.343C100.472 176.343 98.1833 171.59 95.8942 172.499C93.6052 173.409 94.7497 180.879 97.0387 181.635C97.808 181.808 98.6075 181.794 99.3704 181.596C100.133 181.397 100.837 181.02 101.424 180.495C101.424 180.495 103.34 184.492 105.629 185.62" fill="white"></path><path d="M100.472 176.343C100.472 176.343 98.1833 171.59 95.8942 172.499C93.6052 173.409 94.7497 180.879 97.0387 181.635C97.808 181.808 98.6075 181.794 99.3704 181.596C100.133 181.397 100.837 181.02 101.424 180.495C101.424 180.495 103.34 184.492 105.629 185.62" stroke="#333333" stroke-width="1.04742" stroke-linecap="round" stroke-linejoin="round"></path><path d="M85.4528 261.768L84.0253 279.988L79.7559 306.96C79.7559 306.96 89.7351 314.763 99.0456 314.763C108.356 314.763 110.915 313.584 110.915 313.584L116.136 285.908L121.357 315.006C121.357 315.006 131.645 313.354 138.461 311.688C143.2 310.374 147.692 308.296 151.758 305.538L137.985 269.815L135.002 251.389C135.002 251.389 119.57 252.812 110.298 253.286C101.026 253.76 88.6934 251.389 88.6934 251.389L85.4528 261.768Z" fill="#00A0AD" stroke="#333333" stroke-width="1.04742" stroke-linecap="round" stroke-linejoin="round"></path><path d="M95.2382 188.964C95.2382 188.964 117.1 196.562 123.851 203.943C127.581 208.043 131.76 236.104 133.265 242.959C134.769 249.814 137.393 263.46 137.393 263.46C137.393 263.46 124.057 269.456 113.744 269.674C103.43 269.892 83.6387 265.177 83.6387 265.177C83.6387 265.177 85.992 234.771 85.992 220.638C85.992 206.505 86.2106 197.28 88.564 192.782C88.5768 192.821 92.4477 188.529 95.2382 188.964Z" fill="#333333" stroke="#333333" stroke-width="1.04742" stroke-linecap="round" stroke-linejoin="round"></path><path d="M89.4892 267.38C89.4892 267.38 90.6723 287.253 89.4892 294.595C88.6584 299.332 87.2236 303.944 85.2197 308.318" stroke="#333333" stroke-width="1.04742" stroke-linecap="round" stroke-linejoin="round"></path><path d="M89.9658 276.849C91.7514 276.238 93.3469 275.175 94.5959 273.764C95.8449 272.354 96.7044 270.644 97.0902 268.802" stroke="#333333" stroke-width="1.04742" stroke-linecap="round" stroke-linejoin="round"></path><path d="M80.9375 303.116C80.9375 303.116 92.82 313.29 111.338 309.523" stroke="#333333" stroke-width="1.04742" stroke-linecap="round" stroke-linejoin="round"></path><path d="M120.843 309.023C120.843 309.023 140.313 306.896 148.864 301.22" stroke="#333333" stroke-width="1.04742" stroke-linecap="round" stroke-linejoin="round"></path><path d="M207.93 179.764C207.93 179.764 206.052 181.148 199.506 185.914C192.961 190.681 198.118 197.882 198.118 197.882C198.118 197.882 193.437 198.612 187.187 205.16C180.937 211.707 189.977 222.944 198.426 224.7C206.875 226.455 216.752 216.038 219.709 206.377C222.667 196.716 218.758 182.147 216.79 179.136C214.823 176.125 207.93 179.764 207.93 179.764Z" fill="#333333" stroke="#333333" stroke-width="1.04742" stroke-linecap="round" stroke-linejoin="round"></path><path d="M232.723 178.483C232.723 178.483 235.976 173.473 233.031 166.208C230.086 158.943 221.29 155.624 212.726 160.89C209.871 162.583 207.657 165.167 206.427 168.241C205.197 171.316 205.02 174.708 205.923 177.893C206.759 181.25 210.977 186.414 211.864 186.491C212.751 186.568 220.454 189.361 225.714 186.914C230.974 184.467 232.723 178.483 232.723 178.483Z" fill="#333333" stroke="#333333" stroke-width="1.04742" stroke-linecap="round" stroke-linejoin="round"></path><path d="M194.876 347.616C194.876 347.616 200.984 357.085 211.594 358.699C222.203 360.314 212.661 350.832 210.874 349.397C209.086 347.962 196.316 344.861 194.876 347.616Z" fill="white" stroke="#333333" stroke-width="1.04742" stroke-linecap="round" stroke-linejoin="round"></path><path d="M251.395 350.05C251.395 350.05 263.059 352.908 262.158 355.419C261.258 357.93 251.755 357.738 246.199 356.303C240.644 354.868 235.423 352.728 236.143 350.409C236.863 348.09 251.395 350.05 251.395 350.05Z" fill="white" stroke="#333333" stroke-width="1.04742" stroke-linecap="round" stroke-linejoin="round"></path><path d="M218.229 197.318C218.229 197.318 202.617 199.599 199.762 205.096C196.908 210.593 200.933 240.537 200.933 240.537C200.933 240.537 194.271 255.182 194.181 264.613C194.091 274.043 198.309 290.636 197.975 294.775C197.641 298.913 193.371 346.027 193.371 347.308C193.371 348.59 202.373 351.46 215.349 352.997C228.324 354.535 253.144 349.935 253.144 349.935C253.144 349.935 252.655 322.131 253.954 305.55C255.253 288.97 253.401 274.069 250.096 267.88C246.791 261.691 231.398 239.409 231.398 239.409C231.398 239.409 238.856 225.93 239.319 220.036C239.782 214.142 237.377 211.067 231.745 204.288C230.071 202.289 228.013 200.643 225.692 199.446C223.371 198.249 220.834 197.525 218.229 197.318Z" fill="#00A0AD" stroke="#333333" stroke-width="1.04742" stroke-linecap="round" stroke-linejoin="round"></path><path d="M231.436 239.422C231.436 239.422 238.894 225.943 239.357 220.049C239.82 214.155 237.415 211.079 231.783 204.301C231.513 203.968 231.23 203.673 230.947 203.366L230.741 203.558C224.954 212.976 205.819 229.069 200.122 233.759C200.559 237.769 200.932 240.537 200.932 240.537C200.932 240.537 194.271 255.182 194.181 264.613C194.287 268.91 194.717 273.193 195.467 277.426C208.982 269.738 227.063 255.349 236.85 247.328C233.789 242.818 231.436 239.422 231.436 239.422Z" fill="white" stroke="#333333" stroke-width="1.04742" stroke-linecap="round" stroke-linejoin="round"></path><path d="M215.349 186.324C215.78 189.841 216.016 193.378 216.056 196.921C215.85 199.548 216.699 205.544 221.2 207.428C225.701 209.311 228.53 206.684 228.517 204.045C228.354 201.865 227.922 199.713 227.231 197.638L227.36 190.399C227.36 190.399 219.592 185.556 215.349 186.324Z" fill="white" stroke="#333333" stroke-width="1.04742" stroke-linecap="round" stroke-linejoin="round"></path><path d="M211.312 181.622C211.312 181.622 208.007 178.726 207.904 182.904C207.801 187.081 211.659 188.464 212.508 188.746C213.225 188.843 213.951 188.665 214.54 188.247C214.54 188.247 220.533 193.372 225.342 193.705C230.152 194.038 232.107 191.821 233.238 183.121C234.37 174.421 225.355 165.593 225.355 165.593C225.355 165.593 217.639 179.764 211.312 181.622Z" fill="white" stroke="#333333" stroke-width="1.04742" stroke-linecap="round" stroke-linejoin="round"></path><path d="M137.765 263.28C137.722 261.795 137.966 260.316 138.486 258.924C139.283 257.181 143.63 256.182 144.594 255.849C145.559 255.515 146.047 255.849 145.764 256.758C145.539 257.247 145.217 257.686 144.817 258.047C144.417 258.408 143.947 258.685 143.437 258.86C142.772 259.019 142.173 259.382 141.726 259.897C141.482 260.307 141.636 262.934 140.44 264.049C139.244 265.164 137.367 264.856 137.765 263.28Z" fill="white" stroke="#333333" stroke-width="1.04742" stroke-linecap="round" stroke-linejoin="round"></path><path d="M236.323 224.751C236.323 224.751 220.891 222.739 214.089 233.477C207.286 244.214 194.567 281.782 170.995 287.83C147.423 293.878 140.685 245.547 126.539 246.892C113.062 248.173 103.648 246.892 95.5594 261.653C91.2385 269.558 69.6339 355.88 59.4232 356.764C26.9007 359.596 5.96484 357.751 5.96484 357.751" stroke="#333333" stroke-width="3.14226" stroke-linecap="round" stroke-linejoin="round"></path><path d="M96.2404 189.579C96.2404 189.579 92.6782 188.157 87.9201 190.989C83.162 193.82 70.3536 224.828 71.3052 228.147C72.2568 231.465 85.7854 237.615 93.3855 239.742C100.986 241.869 114.759 244.483 114.759 244.483C114.759 244.483 119.028 251.108 120.456 251.338C122.532 251.31 124.6 251.074 126.628 250.634C126.628 250.634 129.2 252.761 130.19 250.39C131.181 248.02 129.239 244.957 127.104 242.587C124.969 240.216 115.942 239.038 115.942 239.038L91.4694 222.227L101.757 203.302" fill="#333333"></path><path d="M96.2404 189.579C96.2404 189.579 92.6782 188.157 87.9201 190.989C83.162 193.82 70.3536 224.828 71.3052 228.147C72.2568 231.465 85.7854 237.615 93.3855 239.742C100.986 241.869 114.759 244.483 114.759 244.483C114.759 244.483 119.028 251.108 120.456 251.338C122.532 251.31 124.6 251.074 126.628 250.634C126.628 250.634 129.2 252.761 130.19 250.39C131.181 248.02 129.239 244.957 127.104 242.587C124.969 240.216 115.942 239.038 115.942 239.038L91.4694 222.227L101.757 203.302" stroke="#333333" stroke-width="1.04742" stroke-linecap="round" stroke-linejoin="round"></path><path d="M120.455 251.325C122.531 251.297 124.599 251.061 126.628 250.621C126.628 250.621 129.2 252.748 130.19 250.377C131.18 248.007 129.238 244.944 127.104 242.574C124.969 240.204 115.941 239.025 115.941 239.025L91.4691 222.227L95.1213 215.449C85.978 209.772 79.9081 210.195 76.6289 211.336C73.3496 219.177 70.8548 226.609 71.292 228.134C72.2436 231.452 85.7722 237.603 93.3724 239.729C100.973 241.856 114.745 244.47 114.745 244.47C114.745 244.47 119.028 251.095 120.455 251.325Z" fill="white" stroke="#333333" stroke-width="1.04742" stroke-linecap="round" stroke-linejoin="round"></path><path d="M273.424 225.276C272.382 214.091 266.994 204.904 260.564 201.252L260.359 198.971L243.564 200.522C234.112 201.393 227.592 214.321 228.993 229.389C230.395 244.458 239.191 255.951 248.643 255.016L265.438 253.465L265.22 251.185C270.878 246.469 274.466 236.462 273.424 225.276Z" fill="#333333" stroke="#333333" stroke-width="1.04742" stroke-linecap="round" stroke-linejoin="round"></path><path d="M281.024 224.61C279.931 212.861 274.594 203.187 267.791 199.343L267.56 196.947L260.371 197.613C250.443 198.536 243.589 212.105 245.055 227.942C246.521 243.779 255.78 255.861 265.708 254.939L272.896 254.273L272.678 251.877C278.619 246.828 282.117 236.321 281.024 224.61Z" fill="white" stroke="#333333" stroke-width="1.04742" stroke-linecap="round" stroke-linejoin="round"></path><path d="M288.227 223.905C289.706 239.742 282.851 253.311 272.911 254.234C262.97 255.156 253.724 243.061 252.219 227.237C250.715 211.412 257.595 197.766 267.522 196.908C277.45 196.049 286.735 208.081 288.227 223.905Z" fill="white" stroke="#333333" stroke-width="1.04742" stroke-linecap="round" stroke-linejoin="round"></path><path d="M295.941 214.654L268.048 217.217C267.657 217.254 267.262 217.214 266.887 217.098C266.512 216.983 266.163 216.795 265.86 216.545C265.558 216.295 265.308 215.988 265.125 215.641C264.943 215.295 264.83 214.916 264.795 214.526C264.757 214.136 264.798 213.743 264.914 213.369C265.029 212.995 265.218 212.648 265.469 212.346C265.72 212.045 266.028 211.796 266.376 211.614C266.724 211.432 267.104 211.32 267.495 211.284L295.388 208.722C295.779 208.685 296.174 208.725 296.549 208.84C296.925 208.956 297.274 209.144 297.576 209.394C297.878 209.644 298.128 209.951 298.311 210.297C298.494 210.644 298.606 211.023 298.642 211.413C298.679 211.802 298.638 212.195 298.523 212.569C298.407 212.944 298.218 213.291 297.967 213.592C297.716 213.894 297.408 214.142 297.061 214.325C296.713 214.507 296.332 214.619 295.941 214.654Z" fill="white" stroke="#333333" stroke-width="1.04742" stroke-linecap="round" stroke-linejoin="round"></path><path d="M298.011 236.68L270.118 239.243C269.727 239.28 269.333 239.24 268.957 239.124C268.582 239.009 268.233 238.821 267.931 238.571C267.628 238.321 267.379 238.014 267.196 237.667C267.013 237.321 266.9 236.942 266.865 236.552C266.828 236.162 266.868 235.769 266.984 235.395C267.1 235.021 267.288 234.673 267.539 234.372C267.79 234.071 268.098 233.822 268.446 233.64C268.794 233.458 269.174 233.346 269.566 233.31L297.458 230.748C298.247 230.68 299.031 230.924 299.64 231.428C300.248 231.931 300.634 232.654 300.712 233.438C300.749 233.828 300.709 234.221 300.593 234.595C300.477 234.969 300.289 235.317 300.038 235.618C299.787 235.92 299.479 236.168 299.131 236.351C298.783 236.533 298.403 236.645 298.011 236.68Z" fill="white" stroke="#333333" stroke-width="1.04742" stroke-linecap="round" stroke-linejoin="round"></path><path d="M208.585 199.407C208.585 199.407 201.872 200.688 198.696 204.532C195.52 208.376 189 238.038 190.504 241.447C192.009 244.855 216.121 249.134 223.567 249.749C229.554 249.985 235.551 249.72 241.494 248.955C241.494 248.955 247.923 248.788 249.685 248.494C251.447 248.199 254.688 246.469 254.739 245.816C254.791 245.162 254.469 243.599 252.064 243.407C249.66 243.215 244.503 241.498 243.847 241.447C245.392 241.042 246.959 240.725 248.541 240.498C248.541 240.498 248.875 239.217 246.226 239.217C243.577 239.217 241.172 239.038 240.169 240.498C239.452 241.636 238.841 242.837 238.343 244.086C238.343 244.086 223.49 245.124 215.427 241.203C207.364 237.282 204.817 235.975 204.817 235.975L210.604 212.912" fill="#00A0AD"></path><path d="M208.585 199.407C208.585 199.407 201.872 200.688 198.696 204.532C195.52 208.376 189 238.038 190.504 241.447C192.009 244.855 216.121 249.134 223.567 249.749C229.554 249.985 235.551 249.72 241.494 248.955C241.494 248.955 247.923 248.788 249.685 248.494C251.447 248.199 254.688 246.469 254.739 245.816C254.791 245.162 254.469 243.599 252.064 243.407C249.66 243.215 244.503 241.498 243.847 241.447C245.392 241.042 246.959 240.725 248.541 240.498C248.541 240.498 248.875 239.217 246.226 239.217C243.577 239.217 241.172 239.038 240.169 240.498C239.452 241.636 238.841 242.837 238.343 244.086C238.343 244.086 223.49 245.124 215.427 241.203C207.364 237.282 204.817 235.975 204.817 235.975L210.604 212.912" stroke="#333333" stroke-width="1.04742" stroke-linecap="round" stroke-linejoin="round"></path><path d="M249.646 248.532C251.433 248.237 254.648 246.508 254.7 245.854C254.751 245.201 254.429 243.638 252.025 243.445C249.62 243.253 244.463 241.536 243.807 241.485C245.352 241.08 246.92 240.763 248.501 240.537C248.501 240.537 248.835 239.255 246.186 239.255C243.537 239.255 241.132 239.076 240.129 240.537C239.412 241.675 238.801 242.876 238.303 244.124C238.303 244.124 223.45 245.162 215.387 241.241C207.324 237.321 204.778 236.014 204.778 236.014L208.301 221.919C203.714 220.039 198.874 218.843 193.937 218.37C191.532 228.031 189.564 239.409 190.465 241.434C191.956 244.842 216.081 249.122 223.527 249.737C229.515 249.973 235.511 249.707 241.454 248.942C241.454 248.942 247.897 248.827 249.646 248.532Z" fill="white" stroke="#333333" stroke-width="1.04742" stroke-linecap="round" stroke-linejoin="round"></path><path d="M141.032 260.794C141.032 260.794 136.068 264.497 136.827 266.945C137.586 269.392 141.727 264.382 142.755 262.909C143.784 261.435 142.974 259.205 141.032 260.794Z" fill="white" stroke="#333333" stroke-width="1.04742" stroke-linecap="round" stroke-linejoin="round"></path><path d="M142.008 264.113C142.008 264.113 137.057 267.816 137.803 270.263C138.549 272.711 142.716 267.701 143.731 266.227C144.747 264.754 143.95 262.498 142.008 264.113Z" fill="white" stroke="#333333" stroke-width="1.04742" stroke-linecap="round" stroke-linejoin="round"></path><path d="M144.362 266.265C144.362 266.265 139.411 269.968 140.17 272.416C140.929 274.863 145.069 269.853 146.098 268.38C147.127 266.906 146.317 264.651 144.362 266.265Z" fill="white" stroke="#333333" stroke-width="1.04742" stroke-linecap="round" stroke-linejoin="round"></path><path d="M146.304 268.008C146.304 268.008 142.022 270.75 142.742 272.775C143.462 274.799 146.998 270.968 147.886 269.789C148.773 268.61 148.053 266.714 146.304 268.008Z" fill="white" stroke="#333333" stroke-width="1.04742" stroke-linecap="round" stroke-linejoin="round"></path></svg>