<svg xmlns="http://www.w3.org/2000/svg" width="576" height="576.204" viewBox="0 0 576 576.204">
  <g id="Group_18541" data-name="Group 18541" transform="translate(-1500 -4367)">
    <g id="Rectangle_8856" data-name="Rectangle 8856" transform="translate(1500 4367)" fill="#fff" stroke="#707070" stroke-width="1" opacity="0">
      <rect width="576" height="576" stroke="none"/>
      <rect x="0.5" y="0.5" width="575" height="575" fill="none"/>
    </g>
    <g id="Forms-cuate_1_" data-name="Forms-cuate (1)" transform="translate(1455.91 4329)">
      <g id="freepik--Form--inject-3" transform="translate(89.832 65.785)">
        <rect id="Rectangle_8843" data-name="Rectangle 8843" width="489.878" height="345.037" transform="translate(0.381 0.354)" fill="#fff"/>
        <path id="Path_33974" data-name="Path 33974" d="M570.038,404.07c-.082.109-489.973.136-490.082.218s0-345.186-.136-345.254V58.68h.34s489.973.245,489.973.2S570.038,403.962,570.038,404.07Zm0,0s-.327-345.7,0-344.887L80.2,59.374l.354-.34s.1,345.921-.354,344.819l489.878.218Z" transform="translate(-79.82 -58.68)" fill="#263238"/>
        <rect id="Rectangle_8844" data-name="Rectangle 8844" width="489.878" height="12.467" transform="translate(0.381 0.354)" fill="#263238"/>
        <path id="Path_33975" data-name="Path 33975" d="M99.786,64.174a2.518,2.518,0,1,1-2.5-2.5,2.518,2.518,0,0,1,2.5,2.5Z" transform="translate(-74.43 -57.601)" fill="#e27e2b"/>
        <path id="Path_33976" data-name="Path 33976" d="M107.336,64.174a2.518,2.518,0,1,1-2.518-2.5,2.518,2.518,0,0,1,2.518,2.5Z" transform="translate(-71.704 -57.601)" fill="#fff"/>
        <path id="Path_33977" data-name="Path 33977" d="M114.856,64.174a2.518,2.518,0,1,1-2.5-2.5A2.518,2.518,0,0,1,114.856,64.174Z" transform="translate(-68.989 -57.601)" fill="#455a64"/>
        <rect id="Rectangle_8845" data-name="Rectangle 8845" width="489.742" height="40.818" transform="translate(0.381 12.807)" fill="#00a0ae"/>
        <path id="Path_33978" data-name="Path 33978" d="M105.014,93.935a.8.8,0,1,1-1.592,0V85.469h0a.79.79,0,0,1,1.429-.5l4.709,6.519V85.469a.8.8,0,0,1,.789-.789.817.817,0,0,1,.8.789v8.466a.817.817,0,0,1-.8.8.8.8,0,0,1-.6-.3v-.082l-4.736-6.506Z" transform="translate(-71.301 -49.306)" fill="#fff"/>
        <path id="Path_33979" data-name="Path 33979" d="M111,93.965v-8.6a.789.789,0,0,1,.8-.8h4.764a.817.817,0,0,1,.8.8.83.83,0,0,1-.8.817h-3.947V88.9h3.389a.817.817,0,0,1,0,1.62h-3.389v2.722h3.947a.817.817,0,0,1,0,1.62h-4.723a.8.8,0,0,1-.844-.9Z" transform="translate(-68.564 -49.336)" fill="#fff"/>
        <path id="Path_33980" data-name="Path 33980" d="M130.884,85.742l-3.566,8.493a.45.45,0,0,1-.082.136h0v.082h-.109l-.122.082h-.558a.259.259,0,0,1-.136-.082H126.2v-.082h0v-.136L124.3,89.717l-1.905,4.519v.136h0l-.1.082h-.082l-.122.082h0a.163.163,0,0,0-.122,0H121l-.136-.082h-.1a.464.464,0,0,1-.082-.082h0a.171.171,0,0,0-.068-.136l-3.607-8.493a.8.8,0,0,1,1.484-.612l2.845,6.805,1.892-4.478a.8.8,0,0,1,.749-.49.844.844,0,0,1,.762.49l1.8,4.478,2.845-6.805a.8.8,0,0,1,1.062-.422.789.789,0,0,1,.436,1.034Z" transform="translate(-66.412 -49.307)" fill="#fff"/>
        <path id="Path_33981" data-name="Path 33981" d="M132.331,93.965v-8.6a.789.789,0,0,1,.8-.8H137.9a.817.817,0,0,1,0,1.62H133.95V88.9h3.375a.817.817,0,0,1,0,1.62h-3.389v3.5a.817.817,0,0,1-.817.8.789.789,0,0,1-.789-.857Z" transform="translate(-60.863 -49.336)" fill="#fff"/>
        <path id="Path_33982" data-name="Path 33982" d="M146.752,85.9a5.363,5.363,0,0,1,0,7.377,4.75,4.75,0,0,1-3.484,1.565,4.886,4.886,0,0,1-3.566-1.565,5.444,5.444,0,0,1,0-7.377,4.873,4.873,0,0,1,3.566-1.552A4.737,4.737,0,0,1,146.752,85.9Zm-.191,3.688a3.757,3.757,0,0,0-.994-2.545,3.13,3.13,0,0,0-4.655,0,3.689,3.689,0,0,0-.994,2.545,3.634,3.634,0,0,0,.994,2.532,3.076,3.076,0,0,0,4.655,0A3.688,3.688,0,0,0,146.562,89.59Z" transform="translate(-58.72 -49.412)" fill="#fff"/>
        <path id="Path_33983" data-name="Path 33983" d="M154.491,93.556a.817.817,0,0,1-.517,1.021,1.36,1.36,0,0,1-.313,0h0a1.021,1.021,0,0,1-.572-.163,1.279,1.279,0,0,1-.463-.5,3.743,3.743,0,0,1-.313-1.756,1.17,1.17,0,0,0-.177-.626,1.361,1.361,0,0,0-.436-.422,3.022,3.022,0,0,0-.817-.354H149.17v3.171a.817.817,0,0,1-.817.8.8.8,0,0,1-.8-.8V85.363a.789.789,0,0,1,.8-.8h2.532a3.117,3.117,0,0,1,1.987,5.526,2.477,2.477,0,0,1,.517.544,2.722,2.722,0,0,1,.476,1.565,3.852,3.852,0,0,0,0,.857.858.858,0,0,1,.626.5ZM152.45,87.69a1.511,1.511,0,0,0-1.565-1.511H149.1v3.062h1.783a1.511,1.511,0,0,0,1.565-1.552Z" transform="translate(-55.367 -49.336)" fill="#fff"/>
        <path id="Path_33984" data-name="Path 33984" d="M163.159,85.363v8.6a.83.83,0,0,1-.817.8.789.789,0,0,1-.8-.8V87.881l-2.1,2.858a.817.817,0,0,1-.667.34h0a.83.83,0,0,1-.667-.34L156,87.881V94.02a.817.817,0,0,1-1.62,0V85.363a.817.817,0,0,1,.8-.8h0a.8.8,0,0,1,.64.34l2.9,4.083,2.9-4.083a.8.8,0,0,1,.653-.34h0a.83.83,0,0,1,.885.8Z" transform="translate(-52.901 -49.337)" fill="#fff"/>
        <path id="Path_33985" data-name="Path 33985" d="M112.69,118.035v-5.158a.476.476,0,0,1,.476-.476h2.858a.49.49,0,0,1,0,.966h-2.368v1.592H115.7a.49.49,0,0,1,0,.98h-2.042v2.1a.49.49,0,0,1-.49.476A.476.476,0,0,1,112.69,118.035Z" transform="translate(-67.953 -39.285)" fill="#263238"/>
        <path id="Path_33986" data-name="Path 33986" d="M117.451,113.036a.476.476,0,1,1-.939,0v-.191a.476.476,0,0,1,.939,0Zm0,1.579v3.4a.476.476,0,1,1-.939,0V114.56a.476.476,0,1,1,.939,0Z" transform="translate(-66.575 -39.267)" fill="#263238"/>
        <path id="Path_33987" data-name="Path 33987" d="M120.991,114.134a.463.463,0,0,1-.463.463.871.871,0,0,0-.517.163,1.511,1.511,0,0,0-.408.422,2.8,2.8,0,0,0-.354.735v1.66a.476.476,0,0,1-.476.463.463.463,0,0,1-.463-.463v-3.443a.449.449,0,0,1,.463-.449.463.463,0,0,1,.476.449h0a1.1,1.1,0,0,1,.191-.163,1.851,1.851,0,0,1,1.089-.34.436.436,0,0,1,.463.5Z" transform="translate(-65.924 -38.841)" fill="#263238"/>
        <path id="Path_33988" data-name="Path 33988" d="M121.025,116.809a.463.463,0,0,1,.653,0,1.606,1.606,0,0,0,.966.381,1.143,1.143,0,0,0,.6-.163.34.34,0,0,0,.15-.259.109.109,0,0,0,0-.1l-.109-.1a1.742,1.742,0,0,0-.694-.245h0a3.322,3.322,0,0,1-.762-.231,1.361,1.361,0,0,1-.6-.5,1.1,1.1,0,0,1-.15-.558,1.225,1.225,0,0,1,.517-.953,1.8,1.8,0,0,1,1.075-.327,2.232,2.232,0,0,1,1.361.476.476.476,0,0,1,.136.653.463.463,0,0,1-.64.122,1.483,1.483,0,0,0-.8-.327.885.885,0,0,0-.531.163.245.245,0,0,0-.136.191.15.15,0,0,0,0,.082l.1.082a1.837,1.837,0,0,0,.64.2h0a3.022,3.022,0,0,1,.817.259,1.279,1.279,0,0,1,.626.517,1.034,1.034,0,0,1,.163.572,1.239,1.239,0,0,1-.544,1.007,2.028,2.028,0,0,1-1.143.354,2.572,2.572,0,0,1-1.552-.6.49.49,0,0,1-.136-.708Z" transform="translate(-64.978 -38.794)" fill="#263238"/>
        <path id="Path_33989" data-name="Path 33989" d="M126.469,114.589a.49.49,0,0,1-.49.49h-.218v2.436a.476.476,0,0,1,.476.49.463.463,0,0,1-.476.476.98.98,0,0,1-.98-.966v-2.436h-.245a.476.476,0,0,1-.476-.49.463.463,0,0,1,.476-.476h.245v-1.266a.49.49,0,0,1,.49-.476.476.476,0,0,1,.49.476v1.266h.218a.49.49,0,0,1,.49.476Z" transform="translate(-63.848 -39.296)" fill="#263238"/>
        <path id="Path_33990" data-name="Path 33990" d="M129.913,118.016a.476.476,0,1,1-.953,0V112.94h0a.476.476,0,0,1,.191-.408.5.5,0,0,1,.667.109l2.817,3.906v-3.593a.476.476,0,0,1,.953,0v5.077a.476.476,0,0,1-.844.3h0l-2.79-3.879Z" transform="translate(-62.079 -39.267)" fill="#263238"/>
        <path id="Path_33991" data-name="Path 33991" d="M137.655,115.871v1.715a.463.463,0,0,1-.463.463.476.476,0,0,1-.463-.381,1.905,1.905,0,0,1-1.157.381,2,2,0,0,1-1.484-.64,2.273,2.273,0,0,1,0-3.076,1.987,1.987,0,0,1,2.64-.272.467.467,0,0,1,.925.1Zm-.926,0a1.361,1.361,0,0,0-.34-.9,1.13,1.13,0,0,0-.817-.354,1.075,1.075,0,0,0-.817.354,1.361,1.361,0,0,0,0,1.8,1.116,1.116,0,0,0,.817.34,1.17,1.17,0,0,0,.817-.34,1.361,1.361,0,0,0,.34-.9Z" transform="translate(-60.443 -38.823)" fill="#263238"/>
        <path id="Path_33992" data-name="Path 33992" d="M141.45,115.488v2.1a.463.463,0,0,1-.463.463.476.476,0,0,1-.476-.463v-2.1a.9.9,0,0,0-1.783,0v2.137h0a.531.531,0,0,1-.436.272h-.1a.449.449,0,0,1-.367-.449v-1.96h0v-1.361a.467.467,0,0,1,.885-.218,1.837,1.837,0,0,1,2.3.34,1.851,1.851,0,0,1,1.361-.6,1.824,1.824,0,0,1,1.81,1.837v2.069a.476.476,0,0,1-.939,0v-2.069a.9.9,0,1,0-1.8,0Z" transform="translate(-58.876 -38.834)" fill="#263238"/>
        <path id="Path_33993" data-name="Path 33993" d="M143.69,115.871a2.164,2.164,0,0,1,2.137-2.191,2.1,2.1,0,0,1,2.11,2.028h0v.082a.422.422,0,0,1-.449.354H144.7a1.236,1.236,0,0,0,1.143.966,1.443,1.443,0,0,0,.912-.218.5.5,0,0,1,.653,0,.408.408,0,0,1,0,.572,2.232,2.232,0,0,1-1.565.572A2.178,2.178,0,0,1,143.69,115.871Zm.953-.436h2.477a1.443,1.443,0,0,0-1.361-.926,1.225,1.225,0,0,0-1.116.966Z" transform="translate(-56.761 -38.823)" fill="#263238"/>
        <path id="Path_33994" data-name="Path 33994" d="M148.732,114.123l-.6.476a.34.34,0,0,1-.218.082.3.3,0,0,1-.286-.3.354.354,0,0,1,.2-.272l.762-.327-.762-.34a.288.288,0,1,1,.3-.476l.653.49-.082-.789a.277.277,0,1,1,.544,0l-.1.789.667-.49a.34.34,0,0,1,.218-.082.286.286,0,0,1,.082.558l-.762.34.762.327a.327.327,0,0,1,.2.286.286.286,0,0,1-.3.286.327.327,0,0,1-.2-.082l-.667-.49.1.789a.277.277,0,1,1-.544,0Z" transform="translate(-55.338 -39.307)" fill="#00a0ae"/>
        <rect id="Rectangle_8846" data-name="Rectangle 8846" width="187.728" height="18.633" transform="translate(43.825 85.378)" fill="#ebebeb"/>
        <path id="Path_33995" data-name="Path 33995" d="M112.69,149.875v-5.158a.463.463,0,0,1,.476-.476h2.858a.476.476,0,0,1,.476.476.49.49,0,0,1-.476.49h-2.368v1.606H115.7a.49.49,0,0,1,0,.966h-2.042v1.579h2.368a.49.49,0,0,1,0,.966h-2.913a.476.476,0,0,1-.422-.449Z" transform="translate(-67.953 -27.79)" fill="#263238"/>
        <path id="Path_33996" data-name="Path 33996" d="M120.07,147.363v2.1a.463.463,0,0,1-.463.463.476.476,0,0,1-.476-.463v-2.1a.9.9,0,0,0-1.783,0v2.164h0a.531.531,0,0,1-.436.272h-.1a.476.476,0,0,1-.367-.463v-2.069h0v-1.361a.463.463,0,0,1,.463-.476.436.436,0,0,1,.408.259,1.906,1.906,0,0,1,.939-.259,1.81,1.81,0,0,1,1.361.613,1.783,1.783,0,0,1,1.361-.613,1.824,1.824,0,0,1,1.81,1.837v2.069a.463.463,0,1,1-.925,0v-2.069a.9.9,0,1,0-1.8.1Z" transform="translate(-66.595 -27.36)" fill="#263238"/>
        <path id="Path_33997" data-name="Path 33997" d="M126.355,147.711v1.715a.463.463,0,0,1-.912.1,2.055,2.055,0,0,1-1.171.367,2.028,2.028,0,0,1-1.484-.64,2.273,2.273,0,0,1,0-3.076,2.028,2.028,0,0,1,1.484-.653,2.069,2.069,0,0,1,1.171.381.449.449,0,0,1,.449-.381.476.476,0,0,1,.463.476Zm-.925,0a1.361,1.361,0,0,0-.34-.9,1.1,1.1,0,0,0-.817-.354,1.075,1.075,0,0,0-.817.354,1.417,1.417,0,0,0,0,1.81,1.116,1.116,0,0,0,.817.34,1.143,1.143,0,0,0,.817-.34A1.361,1.361,0,0,0,125.429,147.711Z" transform="translate(-64.523 -27.328)" fill="#263238"/>
        <path id="Path_33998" data-name="Path 33998" d="M127.461,144.876a.476.476,0,1,1-.939,0v-.191a.476.476,0,0,1,.939,0Zm0,1.579v3.416a.476.476,0,0,1-.939,0v-3.416a.476.476,0,1,1,.939,0Z" transform="translate(-62.961 -27.772)" fill="#263238"/>
        <path id="Path_33999" data-name="Path 33999" d="M128.71,144.24a.49.49,0,0,1,.49.476v5.158a.49.49,0,0,1-.98,0v-5.158a.49.49,0,0,1,.49-.476Z" transform="translate(-62.346 -27.79)" fill="#263238"/>
        <path id="Path_34000" data-name="Path 34000" d="M130.827,145.973l-.653.476a.368.368,0,0,1-.218.082.3.3,0,0,1-.286-.286.313.313,0,0,1,.2-.272l.762-.34-.762-.34a.285.285,0,0,1,.1-.558.286.286,0,0,1,.2.1l.653.476-.082-.776a.286.286,0,0,1,.272-.34.272.272,0,0,1,.272.327l-.1.789.667-.476a.286.286,0,0,1,.218-.1.3.3,0,0,1,.286.286.286.286,0,0,1-.2.272l-.776.34.776.34a.285.285,0,0,1-.1.558.327.327,0,0,1-.2-.082l-.667-.476.1.776a.277.277,0,1,1-.544,0Z" transform="translate(-61.822 -27.808)" fill="#00a0ae"/>
        <rect id="Rectangle_8847" data-name="Rectangle 8847" width="402.813" height="18.633" transform="translate(43.825 128.713)" fill="#ebebeb"/>
        <path id="Path_34001" data-name="Path 34001" d="M112.49,178.578a3.2,3.2,0,0,1,3.2-3.158,3.335,3.335,0,0,1,2.028.681.531.531,0,0,1,.082.708.517.517,0,0,1-.694.1,2.191,2.191,0,0,0-1.361-.476,2.314,2.314,0,0,0-1.565.626,2.137,2.137,0,0,0-.64,1.524,2.11,2.11,0,0,0,.64,1.511,2.246,2.246,0,0,0,1.565.626,2.218,2.218,0,0,0,1.361-.476.5.5,0,1,1,.612.8,3.334,3.334,0,0,1-2.028.681,3.2,3.2,0,0,1-3.2-3.144Z" transform="translate(-68.025 -16.533)" fill="#263238"/>
        <path id="Path_34002" data-name="Path 34002" d="M117.959,180.569a2.151,2.151,0,0,1-.6-1.538,2.246,2.246,0,0,1,.6-1.538,2.042,2.042,0,0,1,1.5-.653,1.96,1.96,0,0,1,1.47.653,2.191,2.191,0,0,1,.612,1.538,2.1,2.1,0,0,1-.612,1.538,1.974,1.974,0,0,1-1.47.667,2.055,2.055,0,0,1-1.5-.667Zm.354-1.538a1.361,1.361,0,0,0,.313.925,1.2,1.2,0,0,0,.83.327,1.157,1.157,0,0,0,.8-.327,1.361,1.361,0,0,0,.354-.925,1.252,1.252,0,0,0-.354-.912,1.225,1.225,0,0,0-.8-.327,1.266,1.266,0,0,0-.83.327,1.361,1.361,0,0,0-.313.912Z" transform="translate(-66.267 -16.02)" fill="#263238"/>
        <path id="Path_34003" data-name="Path 34003" d="M125.164,178.65v2.1a.463.463,0,0,1-.463.463.476.476,0,0,1-.463-.463v-2.1a.9.9,0,0,0-.912-.885.871.871,0,0,0-.871.885v2.1a.177.177,0,0,1,0,.082.465.465,0,0,1-.926-.082V177.3a.463.463,0,0,1,.463-.463.449.449,0,0,1,.422.272,1.674,1.674,0,0,1,.925-.272,1.837,1.837,0,0,1,1.824,1.81Z" transform="translate(-64.762 -16.02)" fill="#263238"/>
        <path id="Path_34004" data-name="Path 34004" d="M127.539,177.782a.49.49,0,0,1-.49.476h-.218v2.436a.49.49,0,1,1,0,.98.966.966,0,0,1-.966-.98v-2.436h-.259a.476.476,0,0,1-.476-.476.463.463,0,0,1,.476-.476h.259v-1.279a.49.49,0,0,1,.49-.476.476.476,0,0,1,.476.476v1.279h.218a.49.49,0,0,1,.49.476Z" transform="translate(-63.461 -16.486)" fill="#263238"/>
        <path id="Path_34005" data-name="Path 34005" d="M131.655,179.031v1.715a.463.463,0,0,1-.463.463.476.476,0,0,1-.463-.381,2,2,0,0,1-1.157.381,2.028,2.028,0,0,1-1.484-.64,2.246,2.246,0,0,1-.6-1.538,2.191,2.191,0,0,1,.6-1.538,1.987,1.987,0,0,1,2.64-.272.476.476,0,0,1,.463-.381.463.463,0,0,1,.463.463Zm-.925,0a1.361,1.361,0,0,0-.34-.9,1.062,1.062,0,0,0-.817-.367,1.048,1.048,0,0,0-.817.367,1.4,1.4,0,0,0,0,1.8,1.116,1.116,0,0,0,.817.34,1.144,1.144,0,0,0,.817-.34,1.361,1.361,0,0,0,.34-.9Z" transform="translate(-62.609 -16.02)" fill="#263238"/>
        <path id="Path_34006" data-name="Path 34006" d="M131.58,179.031a2.218,2.218,0,0,1,2.232-2.191,2.341,2.341,0,0,1,1.361.476.49.49,0,0,1,.1.64.463.463,0,0,1-.653.1,1.456,1.456,0,0,0-.83-.286,1.266,1.266,0,1,0,0,2.518,1.456,1.456,0,0,0,.83-.286.476.476,0,0,1,.653.1.5.5,0,0,1-.1.653,2.422,2.422,0,0,1-1.361.463A2.218,2.218,0,0,1,131.58,179.031Z" transform="translate(-61.133 -16.02)" fill="#263238"/>
        <path id="Path_34007" data-name="Path 34007" d="M137.559,177.782a.49.49,0,0,1-.49.476h-.218v2.436a.49.49,0,1,1,0,.98.966.966,0,0,1-.966-.98v-2.436h-.259a.476.476,0,0,1-.476-.476.463.463,0,0,1,.476-.476h.259v-1.279a.49.49,0,0,1,.49-.476.476.476,0,0,1,.476.476v1.279h.218A.49.49,0,0,1,137.559,177.782Z" transform="translate(-59.844 -16.486)" fill="#263238"/>
        <path id="Path_34008" data-name="Path 34008" d="M141,181.155a.49.49,0,0,1-.476.49.476.476,0,0,1-.476-.49v-5.022h0a.463.463,0,0,1,.191-.408.476.476,0,0,1,.667.109l2.817,3.906v-3.607a.476.476,0,1,1,.953,0v5.077a.49.49,0,0,1-.476.49.449.449,0,0,1-.354-.177h0L141,177.493Z" transform="translate(-58.075 -16.455)" fill="#263238"/>
        <path id="Path_34009" data-name="Path 34009" d="M146.684,181.209a1.837,1.837,0,0,1-1.824-1.824V177.3a.463.463,0,0,1,.926,0v2.082a.885.885,0,0,0,.9.9.912.912,0,0,0,.912-.9V177.3a.463.463,0,0,1,.449-.463.49.49,0,0,1,.476.463v2.082a1.851,1.851,0,0,1-1.837,1.824Z" transform="translate(-56.338 -16.02)" fill="#263238"/>
        <path id="Path_34010" data-name="Path 34010" d="M152.51,178.676h0v2.082a.476.476,0,0,1-.463.463.49.49,0,0,1-.476-.463v-2.082h0a.9.9,0,0,0-1.783,0v2.164h0a.476.476,0,0,1-.436.286h-.082a.476.476,0,0,1-.381-.449v-2.082h0v-1.361a.463.463,0,0,1,.463-.463.436.436,0,0,1,.422.259,1.879,1.879,0,0,1,.939-.259,1.824,1.824,0,0,1,1.361.6,1.756,1.756,0,0,1,1.361-.6,1.824,1.824,0,0,1,1.824,1.824v2.082a.463.463,0,0,1-.463.463.476.476,0,0,1-.476-.463v-2.082a.9.9,0,0,0-1.783,0Z" transform="translate(-54.883 -16.045)" fill="#263238"/>
        <path id="Path_34011" data-name="Path 34011" d="M155,179.5h0v-3.471a.476.476,0,1,1,.953,0v1.647a2.055,2.055,0,0,1,1.171-.368,2.191,2.191,0,0,1,0,4.369,2.083,2.083,0,0,1-1.184-.381.463.463,0,0,1-.463.381A.476.476,0,0,1,155,181.2Zm.953,0a1.225,1.225,0,0,0,.354.857,1.089,1.089,0,0,0,.817.367,1.116,1.116,0,0,0,.817-.367,1.171,1.171,0,0,0,.354-.858,1.184,1.184,0,0,0-.354-.885,1.1,1.1,0,0,0-.817-.354,1.075,1.075,0,0,0-.817.354,1.238,1.238,0,0,0-.395.885Z" transform="translate(-52.677 -16.486)" fill="#263238"/>
        <path id="Path_34012" data-name="Path 34012" d="M159,179.018a2.15,2.15,0,0,1,2.123-2.178,2.082,2.082,0,0,1,2.11,2.028h0a.2.2,0,0,1,0,.082.408.408,0,0,1-.449.34h-2.722a1.1,1.1,0,0,0,.3.585,1.361,1.361,0,0,0,.83.395,1.457,1.457,0,0,0,.912-.231.476.476,0,0,1,.653,0,.4.4,0,0,1,0,.558,2.191,2.191,0,0,1-1.565.585A2.164,2.164,0,0,1,159,179.018Zm.953-.422h2.463a1.361,1.361,0,0,0-1.293-.926,1.2,1.2,0,0,0-1.184.925Z" transform="translate(-51.233 -16.02)" fill="#263238"/>
        <path id="Path_34013" data-name="Path 34013" d="M165.715,177.317a.476.476,0,0,1-.476.463.871.871,0,0,0-.517.163,1.51,1.51,0,0,0-.408.422,2.613,2.613,0,0,0-.354.735v1.66a.476.476,0,0,1-.476.463.463.463,0,0,1-.463-.463v-3.443a.463.463,0,0,1,.463-.463.476.476,0,0,1,.476.463h0a1.17,1.17,0,0,1,.191-.177,1.946,1.946,0,0,1,1.089-.34.463.463,0,0,1,.476.517Z" transform="translate(-49.782 -16.034)" fill="#263238"/>
        <path id="Path_34014" data-name="Path 34014" d="M166.987,177.279l-.653.476a.381.381,0,0,1-.218.1.3.3,0,0,1-.1-.572l.776-.327-.776-.34a.34.34,0,0,1-.191-.272.3.3,0,0,1,.286-.3.313.313,0,0,1,.218.1l.653.476-.082-.776a.272.272,0,0,1,.272-.327.259.259,0,0,1,.259.313l-.082.789.653-.476a.313.313,0,0,1,.218-.1.286.286,0,0,1,.286.3.313.313,0,0,1-.191.272l-.776.34.776.327a.3.3,0,0,1-.1.572.381.381,0,0,1-.218-.1l-.653-.476.082.776a.272.272,0,1,1-.531.014Z" transform="translate(-48.767 -16.5)" fill="#00a0ae"/>
        <rect id="Rectangle_8848" data-name="Rectangle 8848" width="402.813" height="18.633" transform="translate(43.825 171.327)" fill="#ebebeb"/>
        <path id="Path_34015" data-name="Path 34015" d="M115.926,210.681H113.8l-.436,1.143a.476.476,0,0,1-.449.3h-.163a.476.476,0,0,1-.286-.626l1.933-5.145a.49.49,0,0,1,.463-.313.517.517,0,0,1,.463.313l1.96,5.077a.49.49,0,0,1-.3.626h-.163a.49.49,0,0,1-.449-.3Zm-.354-.953-.708-1.892-.708,1.892Z" transform="translate(-68.045 -5.478)" fill="#263238"/>
        <path id="Path_34016" data-name="Path 34016" d="M120.638,211.655a.476.476,0,0,1-.463.476.463.463,0,0,1-.463-.381,2.164,2.164,0,1,1-1.2-3.988,2,2,0,0,1,1.171.368v-1.647a.476.476,0,0,1,.49-.463.463.463,0,0,1,.463.463v3.471h0Zm-2.055-2.94a1.157,1.157,0,0,0-.817.354,1.266,1.266,0,0,0-.354.885,1.239,1.239,0,0,0,.354.871,1.13,1.13,0,0,0,1.647,0,1.225,1.225,0,0,0,.34-.871,1.252,1.252,0,0,0-.34-.885A1.157,1.157,0,0,0,118.583,208.715Z" transform="translate(-66.619 -5.485)" fill="#263238"/>
        <path id="Path_34017" data-name="Path 34017" d="M123.535,207.759a.463.463,0,0,1-.463.463.844.844,0,0,0-.517.163,1.361,1.361,0,0,0-.408.422,2.8,2.8,0,0,0-.354.735v1.66a.476.476,0,0,1-.49.463.463.463,0,0,1-.463-.463v-3.443a.477.477,0,0,1,.953,0v.068a1.091,1.091,0,0,1,.177-.177,1.892,1.892,0,0,1,1.1-.34.449.449,0,0,1,.463.449Z" transform="translate(-65.01 -5.019)" fill="#263238"/>
        <path id="Path_34018" data-name="Path 34018" d="M123.12,209.491a2.164,2.164,0,0,1,2.123-2.191,2.082,2.082,0,0,1,2.11,2.028v.122a.436.436,0,0,1-.463.354h-2.722a1.116,1.116,0,0,0,.3.572,1.4,1.4,0,0,0,1.742.177.5.5,0,0,1,.653,0,.395.395,0,0,1,0,.572,2.2,2.2,0,0,1-3.688-1.606Zm.953-.436h2.477a1.456,1.456,0,0,0-1.361-.926,1.225,1.225,0,0,0-1.116.926Z" transform="translate(-64.187 -5.023)" fill="#263238"/>
        <path id="Path_34019" data-name="Path 34019" d="M127.121,210.417a.463.463,0,0,1,.653-.068,1.606,1.606,0,0,0,.966.381,1.143,1.143,0,0,0,.6-.163.34.34,0,0,0,.15-.259.109.109,0,0,0,0-.082l-.109-.109a1.742,1.742,0,0,0-.708-.245h0a3.32,3.32,0,0,1-.762-.231,1.361,1.361,0,0,1-.6-.5,1.1,1.1,0,0,1-.15-.558,1.2,1.2,0,0,1,.517-.953,1.8,1.8,0,0,1,1.075-.327,2.273,2.273,0,0,1,1.361.476.49.49,0,0,1,.136.653.463.463,0,0,1-.64.123,1.484,1.484,0,0,0-.8-.327.844.844,0,0,0-.531.163.245.245,0,0,0-.136.191.15.15,0,0,0,0,.082l.1.082a1.51,1.51,0,0,0,.64.2h0a3.362,3.362,0,0,1,.817.259,1.361,1.361,0,0,1,.626.517,1.171,1.171,0,0,1,.163.572,1.252,1.252,0,0,1-.558,1.007,1.987,1.987,0,0,1-1.13.354,2.572,2.572,0,0,1-1.552-.6A.463.463,0,0,1,127.121,210.417Z" transform="translate(-62.771 -5.023)" fill="#263238"/>
        <path id="Path_34020" data-name="Path 34020" d="M130.222,210.417a.463.463,0,0,1,.653-.068,1.565,1.565,0,0,0,.953.381,1.075,1.075,0,0,0,.6-.163c.122-.109.163-.191.163-.259a.109.109,0,0,0,0-.082.245.245,0,0,0-.122-.109,1.742,1.742,0,0,0-.694-.245h0a3.006,3.006,0,0,1-.749-.231,1.456,1.456,0,0,1-.612-.5,1.1,1.1,0,0,1-.15-.558,1.225,1.225,0,0,1,.517-.953,1.851,1.851,0,0,1,1.075-.327,2.314,2.314,0,0,1,1.361.476.5.5,0,0,1,.136.653.476.476,0,0,1-.653.122,1.361,1.361,0,0,0-.8-.327.8.8,0,0,0-.517.163c-.122.068-.15.15-.15.191v.082c0,.082,0,0,.1.082a1.51,1.51,0,0,0,.64.2h0a3.363,3.363,0,0,1,.817.259,1.361,1.361,0,0,1,.612.517,1.034,1.034,0,0,1,.163.572,1.239,1.239,0,0,1-.544,1.007,2,2,0,0,1-1.143.354,2.613,2.613,0,0,1-1.552-.6A.476.476,0,0,1,130.222,210.417Z" transform="translate(-61.653 -5.023)" fill="#263238"/>
        <path id="Path_34021" data-name="Path 34021" d="M134.57,207.739l-.667.49a.34.34,0,0,1-.218.082.3.3,0,0,1-.286-.3.354.354,0,0,1,.2-.272l.762-.327-.762-.34a.288.288,0,1,1,.3-.476l.667.49-.1-.789a.277.277,0,1,1,.544,0l-.082.789.653-.49a.34.34,0,0,1,.218-.082.286.286,0,0,1,.082.558l-.762.34.762.327a.327.327,0,0,1,.2.286.286.286,0,0,1-.3.286.327.327,0,0,1-.2-.082l-.653-.49.082.789a.277.277,0,1,1-.544,0Z" transform="translate(-60.476 -5.503)" fill="#00a0ae"/>
        <rect id="Rectangle_8849" data-name="Rectangle 8849" width="402.813" height="18.633" transform="translate(43.825 212.798)" fill="#ebebeb"/>
        <path id="Path_34022" data-name="Path 34022" d="M270.72,118.035v-5.158a.476.476,0,0,1,.476-.476.49.49,0,0,1,.49.476v4.668h2.368a.49.49,0,0,1,0,.966H271.2a.476.476,0,0,1-.476-.476Z" transform="translate(-10.898 -39.285)" fill="#263238"/>
        <path id="Path_34023" data-name="Path 34023" d="M278.1,115.871v1.715a.459.459,0,0,1-.912.082,1.974,1.974,0,0,1-1.171.381,2.041,2.041,0,0,1-1.483-.64,2.273,2.273,0,0,1,0-3.076,2,2,0,0,1,2.654-.272.463.463,0,0,1,.912.1Zm-.926,0a1.361,1.361,0,0,0-.34-.9,1.075,1.075,0,0,0-.817-.354,1.034,1.034,0,0,0-.8.354,1.361,1.361,0,0,0,0,1.8,1.062,1.062,0,0,0,.8.34,1.116,1.116,0,0,0,.817-.34,1.361,1.361,0,0,0,.313-.9Z" transform="translate(-9.736 -38.823)" fill="#263238"/>
        <path id="Path_34024" data-name="Path 34024" d="M278.12,116.809a.463.463,0,0,1,.653,0,1.538,1.538,0,0,0,.953.381,1.075,1.075,0,0,0,.6-.163c.122-.109.163-.191.163-.259a.191.191,0,0,0,0-.1.354.354,0,0,0-.122-.1,1.743,1.743,0,0,0-.694-.245h0a3.321,3.321,0,0,1-.762-.231,1.51,1.51,0,0,1-.6-.5,1.1,1.1,0,0,1-.15-.558,1.225,1.225,0,0,1,.517-.953,1.851,1.851,0,0,1,1.075-.327,2.232,2.232,0,0,1,1.361.476.49.49,0,0,1,.15.653.476.476,0,0,1-.653.122,1.361,1.361,0,0,0-.8-.327.8.8,0,0,0-.517.163c-.122,0-.15.15-.15.191v.082c0,.082,0,0,.1.082a1.742,1.742,0,0,0,.64.2h0a3.361,3.361,0,0,1,.817.259,1.361,1.361,0,0,1,.612.517,1.034,1.034,0,0,1,.163.572,1.238,1.238,0,0,1-.544,1.007,2,2,0,0,1-1.143.354,2.613,2.613,0,0,1-1.552-.6.476.476,0,0,1-.109-.708Z" transform="translate(-8.267 -38.794)" fill="#263238"/>
        <path id="Path_34025" data-name="Path 34025" d="M283.579,114.589a.49.49,0,0,1-.49.49h-.218v2.436a.49.49,0,0,1,.49.49.476.476,0,0,1-.49.476.966.966,0,0,1-.966-.966v-2.436h-.259a.476.476,0,0,1-.476-.49.463.463,0,0,1,.476-.476h.259v-1.266a.476.476,0,0,1,.49-.476.463.463,0,0,1,.476.476v1.266h.218a.476.476,0,0,1,.49.476Z" transform="translate(-7.125 -39.296)" fill="#263238"/>
        <path id="Path_34026" data-name="Path 34026" d="M287.023,118.016a.476.476,0,0,1-.953,0V112.94h0a.476.476,0,0,1,.191-.408.5.5,0,0,1,.667.109l2.817,3.906v-3.593a.476.476,0,0,1,.953,0v5.077a.476.476,0,0,1-.476.476.449.449,0,0,1-.354-.177h0l-2.8-3.879Z" transform="translate(-5.356 -39.267)" fill="#263238"/>
        <path id="Path_34027" data-name="Path 34027" d="M294.761,115.864v1.715a.463.463,0,0,1-.463.463.476.476,0,0,1-.449-.381,1.974,1.974,0,0,1-1.171.381,2.042,2.042,0,0,1-1.484-.64,2.314,2.314,0,0,1,0-3.076,2,2,0,0,1,2.668-.218.476.476,0,0,1,.449-.381.463.463,0,0,1,.463.476Zm-.925,0a1.239,1.239,0,0,0-.34-.9,1.075,1.075,0,0,0-.817-.354,1.034,1.034,0,0,0-.8.354,1.361,1.361,0,0,0,0,1.8,1.062,1.062,0,0,0,.8.34,1.116,1.116,0,0,0,.817-.34,1.239,1.239,0,0,0,.367-.9Z" transform="translate(-3.717 -38.816)" fill="#263238"/>
        <path id="Path_34028" data-name="Path 34028" d="M298.57,115.488v2.1a.463.463,0,0,1-.463.463.476.476,0,0,1-.476-.463v-2.1a.9.9,0,0,0-.9-.871.885.885,0,0,0-.885.9v2.069h0a.49.49,0,0,1-.436.272h-.082a.449.449,0,0,1-.381-.449v-1.919h0v-1.361a.476.476,0,0,1,.463-.476.435.435,0,0,1,.422.259,1.865,1.865,0,0,1,2.314.34,1.8,1.8,0,0,1,1.361-.6,1.824,1.824,0,0,1,1.824,1.837v2.069a.463.463,0,0,1-.463.463.476.476,0,0,1-.476-.463v-2.069a.885.885,0,0,0-.885-.9.9.9,0,0,0-.939.9Z" transform="translate(-2.15 -38.834)" fill="#263238"/>
        <path id="Path_34029" data-name="Path 34029" d="M300.81,115.871a2.15,2.15,0,0,1,2.123-2.191,2.082,2.082,0,0,1,2.11,2.028h0v.082a.422.422,0,0,1-.449.354h-2.722a1.116,1.116,0,0,0,.3.572,1.361,1.361,0,0,0,.83.395,1.443,1.443,0,0,0,.912-.218.5.5,0,0,1,.653,0,.395.395,0,0,1,0,.572,2.178,2.178,0,0,1-1.565.572,2.15,2.15,0,0,1-2.191-2.164Zm.939-.436h2.477a1.361,1.361,0,0,0-1.293-.926,1.252,1.252,0,0,0-1.184.966Z" transform="translate(-0.034 -38.823)" fill="#263238"/>
        <path id="Path_34030" data-name="Path 34030" d="M305.87,114.119l-.653.49a.394.394,0,0,1-.218.082.3.3,0,0,1-.3-.3.354.354,0,0,1,.2-.272l.776-.327-.776-.34a.3.3,0,0,1-.2-.272.313.313,0,0,1,.3-.286.367.367,0,0,1,.218.082l.653.49-.1-.789a.286.286,0,0,1,.272-.327.272.272,0,0,1,.272.327l-.082.789.653-.49a.368.368,0,0,1,.218-.082.286.286,0,0,1,.286.286.3.3,0,0,1-.2.272l-.762.34.762.327a.327.327,0,0,1,.2.286.286.286,0,0,1-.3.286.354.354,0,0,1-.2-.082l-.653-.49.082.789a.272.272,0,1,1-.544,0Z" transform="translate(1.37 -39.303)" fill="#00a0ae"/>
        <rect id="Rectangle_8850" data-name="Rectangle 8850" width="187.728" height="18.633" transform="translate(258.91 85.378)" fill="#ebebeb"/>
        <path id="Path_34031" data-name="Path 34031" d="M112.49,240.2a3.2,3.2,0,0,1,3.2-3.144,3.253,3.253,0,0,1,2.028.681.5.5,0,0,1-.612.789,2.191,2.191,0,0,0-1.361-.476,2.314,2.314,0,0,0-1.565.626,2.137,2.137,0,0,0,0,3.049,2.314,2.314,0,0,0,1.565.626,2.164,2.164,0,0,0,1.361-.49.531.531,0,0,1,.694.109.5.5,0,0,1-.082.694,3.334,3.334,0,0,1-2.028.681,3.185,3.185,0,0,1-3.2-3.144Z" transform="translate(-68.025 5.722)" fill="#263238"/>
        <path id="Path_34032" data-name="Path 34032" d="M118.523,237.847a.476.476,0,1,1-.953,0v-.191a.476.476,0,1,1,.953,0Zm0,1.579v3.4a.463.463,0,0,1-.476.476.476.476,0,0,1-.476-.476v-3.4a.476.476,0,1,1,.953,0Z" transform="translate(-66.191 5.765)" fill="#263238"/>
        <path id="Path_34033" data-name="Path 34033" d="M121.459,239.423a.5.5,0,0,1-.49.49h-.218v2.477a.476.476,0,0,1,.476.49.463.463,0,0,1-.476.476.966.966,0,0,1-.966-.966v-2.436h-.259a.49.49,0,0,1-.476-.49.463.463,0,0,1,.476-.476h.259v-1.266a.49.49,0,1,1,.966,0v1.266h.218A.49.49,0,0,1,121.459,239.423Z" transform="translate(-65.657 5.754)" fill="#263238"/>
        <path id="Path_34034" data-name="Path 34034" d="M125.328,238.933v3.307a2.069,2.069,0,0,1-2.082,2.082,1.987,1.987,0,0,1-.9-.218.463.463,0,0,1-.231-.626.49.49,0,0,1,.626-.191,1.1,1.1,0,0,0,.5.122,1.13,1.13,0,0,0,1.089-.789,1.742,1.742,0,0,1-.83.2,1.837,1.837,0,0,1-1.824-1.837v-2.055a.463.463,0,0,1,.449-.463.449.449,0,0,1,.463.463v2.055a.9.9,0,0,0,.912.9.885.885,0,0,0,.9-.9v-2.055a.449.449,0,0,1,.463-.463A.463.463,0,0,1,125.328,238.933Z" transform="translate(-64.707 6.231)" fill="#263238"/>
        <path id="Path_34035" data-name="Path 34035" d="M126.767,238.909l-.653.49a.422.422,0,0,1-.218.082.3.3,0,0,1-.286-.3.354.354,0,0,1,.2-.272l.762-.327-.762-.34a.3.3,0,0,1-.2-.272.286.286,0,0,1,.3-.286.3.3,0,0,1,.2.082l.653.49-.082-.789a.277.277,0,1,1,.544,0l-.1.789.667-.49a.34.34,0,0,1,.218-.082.286.286,0,0,1,.286.286.3.3,0,0,1-.2.272l-.762.34.762.327a.327.327,0,0,1,.2.286.3.3,0,0,1-.3.286.435.435,0,0,1-.2-.082l-.667-.49.1.776a.286.286,0,0,1-.272.34.272.272,0,0,1-.272-.327Z" transform="translate(-63.288 5.751)" fill="#00a0ae"/>
        <rect id="Rectangle_8851" data-name="Rectangle 8851" width="187.728" height="18.633" transform="translate(43.825 255.222)" fill="#ebebeb"/>
        <path id="Path_34036" data-name="Path 34036" d="M275.122,237.793l-3.212,4.423h2.817a.49.49,0,0,1,.49.49.476.476,0,0,1-.49.476h-4.042V243.1h0v-.109h0l3.2-4.383h-2.817a.49.49,0,0,1-.476-.49.476.476,0,0,1,.476-.49h3.961v.1h0Z" transform="translate(-10.945 5.928)" fill="#263238"/>
        <path id="Path_34037" data-name="Path 34037" d="M275.05,237.67a.476.476,0,0,1,.476-.49.49.49,0,0,1,.49.49v5.158a.49.49,0,0,1-.49.476.463.463,0,0,1-.476-.476Z" transform="translate(-9.335 5.765)" fill="#263238"/>
        <path id="Path_34038" data-name="Path 34038" d="M279.015,240.925H277.94v1.905a.49.49,0,0,1-.98,0v-5.158a.49.49,0,0,1,.49-.49h1.565a1.878,1.878,0,1,1,0,3.743Zm-1.075-.966h1.075a.9.9,0,0,0,0-1.8H277.94Z" transform="translate(-8.645 5.763)" fill="#263238"/>
        <path id="Path_34039" data-name="Path 34039" d="M282.43,240.2a3.239,3.239,0,0,1,5.226-2.463.517.517,0,0,1,.1.694.5.5,0,0,1-.694.1,2.218,2.218,0,0,0-1.361-.476,2.314,2.314,0,0,0-1.565.626,2.137,2.137,0,0,0,0,3.049,2.314,2.314,0,0,0,1.565.626,2.164,2.164,0,0,0,1.361-.49.531.531,0,0,1,.694.109.5.5,0,0,1-.1.694,3.266,3.266,0,0,1-2.014.681A3.2,3.2,0,0,1,282.43,240.2Z" transform="translate(-6.67 5.721)" fill="#263238"/>
        <path id="Path_34040" data-name="Path 34040" d="M287.913,242.2a2.164,2.164,0,0,1-.612-1.538,2.219,2.219,0,0,1,.612-1.524,2,2,0,0,1,1.5-.667,1.878,1.878,0,0,1,1.456.667,2.164,2.164,0,0,1,.612,1.524,2.1,2.1,0,0,1-.612,1.538,1.919,1.919,0,0,1-1.456.667,2.055,2.055,0,0,1-1.5-.667Zm.34-1.538a1.361,1.361,0,0,0,.327.925,1.143,1.143,0,0,0,.83.327,1.1,1.1,0,0,0,.8-.327,1.41,1.41,0,0,0,0-1.837,1.225,1.225,0,0,0-.8-.327,1.266,1.266,0,0,0-.83.327A1.361,1.361,0,0,0,288.253,240.661Z" transform="translate(-4.912 6.231)" fill="#263238"/>
        <path id="Path_34041" data-name="Path 34041" d="M295.482,242.81a.476.476,0,0,1-.476.476.463.463,0,0,1-.463-.381,2.123,2.123,0,0,1-1.2.381,2.191,2.191,0,0,1,0-4.369,2,2,0,0,1,1.171.367v-1.647a.49.49,0,0,1,.966,0V241.1h0Zm-2.137-2.94a1.157,1.157,0,0,0-.817.354,1.238,1.238,0,0,0-.354.885,1.266,1.266,0,0,0,.354.871,1.13,1.13,0,0,0,1.647,0,1.252,1.252,0,0,0,.34-.871,1.239,1.239,0,0,0-.34-.885A1.157,1.157,0,0,0,293.346,239.87Z" transform="translate(-3.458 5.783)" fill="#263238"/>
        <path id="Path_34042" data-name="Path 34042" d="M295.38,240.648a2.164,2.164,0,0,1,2.137-2.178,2.082,2.082,0,0,1,2.11,2.082h0v.082a.422.422,0,0,1-.449.354h-2.722a1.2,1.2,0,0,0,.286.572,1.361,1.361,0,0,0,1.756.177.5.5,0,0,1,.653,0,.408.408,0,0,1,0,.572,2.246,2.246,0,0,1-1.565.572,2.178,2.178,0,0,1-2.2-2.232Zm.953-.422h2.477a1.361,1.361,0,0,0-1.293-.925,1.238,1.238,0,0,0-1.184.925Z" transform="translate(-1.995 6.231)" fill="#263238"/>
        <path id="Path_34043" data-name="Path 34043" d="M300.451,238.909l-.653.49a.544.544,0,0,1-.218.082.3.3,0,0,1-.3-.3.354.354,0,0,1,.2-.272l.776-.327-.776-.34a.285.285,0,0,1,.1-.558.367.367,0,0,1,.218.082l.653.49-.1-.789a.277.277,0,1,1,.544,0l-.082.789.653-.49a.368.368,0,0,1,.218-.082.286.286,0,0,1,.286.286.3.3,0,0,1-.2.272l-.762.34.762.327a.327.327,0,0,1,.2.286.3.3,0,0,1-.3.286.49.49,0,0,1-.2-.082l-.653-.49.082.776a.286.286,0,0,1-.272.34.272.272,0,0,1-.272-.327Z" transform="translate(-0.587 5.751)" fill="#00a0ae"/>
        <rect id="Rectangle_8852" data-name="Rectangle 8852" width="187.728" height="18.633" transform="translate(258.91 255.222)" fill="#ebebeb"/>
        <path id="Path_34044" data-name="Path 34044" d="M114.733,271.995h-1.075v1.892a.49.49,0,1,1-.966,0v-5.158a.476.476,0,0,1,.476-.476h1.565a1.878,1.878,0,1,1,0,3.743Zm-1.075-.966h1.075a.912.912,0,1,0,0-1.81h-1.075Z" transform="translate(-67.955 16.981)" fill="#263238"/>
        <path id="Path_34045" data-name="Path 34045" d="M120.185,271.681V273.4a.476.476,0,0,1-.463.463.49.49,0,0,1-.463-.381,2,2,0,0,1-2.64-.259,2.246,2.246,0,0,1-.6-1.538,2.178,2.178,0,0,1,.6-1.538,1.96,1.96,0,0,1,1.484-.653,1.906,1.906,0,0,1,1.157.381.476.476,0,0,1,.463-.381.463.463,0,0,1,.463.463Zm-.926,0a1.361,1.361,0,0,0-.34-.9,1.089,1.089,0,0,0-.817-.367,1.048,1.048,0,0,0-.817.367,1.4,1.4,0,0,0,0,1.8,1.116,1.116,0,0,0,.817.34,1.17,1.17,0,0,0,.817-.34A1.361,1.361,0,0,0,119.259,271.681Z" transform="translate(-66.751 17.43)" fill="#263238"/>
        <path id="Path_34046" data-name="Path 34046" d="M120.209,272.589a.436.436,0,0,1,.653,0,1.606,1.606,0,0,0,.966.381,1.361,1.361,0,0,0,.6-.163.34.34,0,0,0,.15-.272s0,0,0-.082,0-.068-.109-.109a2.316,2.316,0,0,0-.694-.245h0a4.154,4.154,0,0,1-.762-.218,1.457,1.457,0,0,1-.6-.517,1.02,1.02,0,0,1-.15-.544,1.238,1.238,0,0,1,.517-.966,1.892,1.892,0,0,1,1.075-.313,2.233,2.233,0,0,1,1.361.476.463.463,0,0,1,.136.64.449.449,0,0,1-.64.123,1.565,1.565,0,0,0-.8-.313.98.98,0,0,0-.531.15.286.286,0,0,0-.136.2.122.122,0,0,0,0,.068.313.313,0,0,0,.1.082,1.8,1.8,0,0,0,.64.218h0a3.024,3.024,0,0,1,.817.259,1.361,1.361,0,0,1,.626.517,1.1,1.1,0,0,1,.163.572,1.266,1.266,0,0,1-.544,1.021,2.028,2.028,0,0,1-1.143.354,2.5,2.5,0,0,1-1.552-.612.463.463,0,0,1-.136-.708Z" transform="translate(-65.278 17.448)" fill="#263238"/>
        <path id="Path_34047" data-name="Path 34047" d="M123.315,272.589a.436.436,0,0,1,.653,0,1.606,1.606,0,0,0,.966.381,1.2,1.2,0,0,0,.585-.163c.122-.109.163-.191.163-.272a.15.15,0,0,0,0-.082.259.259,0,0,0-.109-.109,2.423,2.423,0,0,0-.708-.245h0a3.869,3.869,0,0,1-.762-.218,1.5,1.5,0,0,1-.612-.517,1.007,1.007,0,0,1-.136-.544,1.225,1.225,0,0,1,.5-.966,1.947,1.947,0,0,1,1.075-.313,2.287,2.287,0,0,1,1.361.476.476.476,0,0,1,.136.64.449.449,0,0,1-.64.122,1.566,1.566,0,0,0-.817-.313.9.9,0,0,0-.517.15.245.245,0,0,0-.136.2.123.123,0,0,0,0,.068l.1.082a1.7,1.7,0,0,0,.64.218h0a3.362,3.362,0,0,1,.817.259,1.361,1.361,0,0,1,.612.517,1.13,1.13,0,0,1,.177.572,1.279,1.279,0,0,1-.558,1.021,1.987,1.987,0,0,1-1.13.354,2.573,2.573,0,0,1-1.565-.612.449.449,0,0,1-.1-.708Z" transform="translate(-64.164 17.448)" fill="#263238"/>
        <path id="Path_34048" data-name="Path 34048" d="M132.185,270.168l-1.443,3.389v.068h-.436a.136.136,0,0,1-.068,0h0v-.068l-.64-1.511-.626,1.511a.122.122,0,0,1,0,.068h-.531v-.068l-2.082-3.389a.449.449,0,0,1,.245-.6.436.436,0,0,1,.585.259l1.034,2.355.612-1.47a.449.449,0,0,1,.422-.272.463.463,0,0,1,.436.272l.612,1.47,1.034-2.355a.436.436,0,0,1,.585-.259.463.463,0,0,1,.259.6Z" transform="translate(-63.031 17.446)" fill="#263238"/>
        <path id="Path_34049" data-name="Path 34049" d="M132.319,273.219a2.232,2.232,0,0,1-.6-1.538,2.314,2.314,0,0,1,.6-1.538,2.041,2.041,0,0,1,1.511-.653,1.919,1.919,0,0,1,1.456.653,2.191,2.191,0,0,1,.612,1.538,2.123,2.123,0,0,1-.612,1.538,1.933,1.933,0,0,1-1.456.667,2.055,2.055,0,0,1-1.511-.667Zm.354-1.538a1.361,1.361,0,0,0,.313.925,1.211,1.211,0,0,0,.844.327,1.184,1.184,0,0,0,.8-.327,1.41,1.41,0,0,0,0-1.837,1.252,1.252,0,0,0-.8-.327,1.266,1.266,0,0,0-.844.327A1.361,1.361,0,0,0,132.673,271.681Z" transform="translate(-61.082 17.43)" fill="#263238"/>
        <path id="Path_34050" data-name="Path 34050" d="M138.445,269.967a.476.476,0,0,1-.463.463.734.734,0,0,0-.517.163,1.1,1.1,0,0,0-.408.422,2.615,2.615,0,0,0-.354.735v1.66a.477.477,0,0,1-.953,0v-3.443a.463.463,0,0,1,.463-.463.476.476,0,0,1,.49.463h0a1.09,1.09,0,0,1,.177-.177,2,2,0,0,1,1.1-.34.463.463,0,0,1,.463.517Z" transform="translate(-59.627 17.416)" fill="#263238"/>
        <path id="Path_34051" data-name="Path 34051" d="M142.419,273.848a.476.476,0,0,1-.476.476.49.49,0,0,1-.463-.381,2.082,2.082,0,0,1-1.184.381,2.191,2.191,0,0,1,0-4.369,2.123,2.123,0,0,1,1.17.354v-1.633a.476.476,0,1,1,.953,0v3.457h0Zm-2.123-2.94a1.1,1.1,0,0,0-.817.354,1.238,1.238,0,0,0-.354.885,1.225,1.225,0,0,0,.354.857,1.116,1.116,0,0,0,.817.367,1.088,1.088,0,0,0,.817-.367,1.225,1.225,0,0,0,.354-.857,1.239,1.239,0,0,0-.354-.885,1.075,1.075,0,0,0-.817-.354Z" transform="translate(-58.715 16.965)" fill="#263238"/>
        <path id="Path_34052" data-name="Path 34052" d="M143.71,269.93l-.667.476a.354.354,0,0,1-.218.1.293.293,0,0,1-.082-.572l.762-.327-.762-.354a.286.286,0,0,1-.2-.259.3.3,0,0,1,.3-.3.259.259,0,0,1,.2.1l.667.476-.1-.776a.272.272,0,0,1,.272-.327.258.258,0,0,1,.272.313l-.082.789.653-.476a.286.286,0,0,1,.218-.1.3.3,0,0,1,.286.3.272.272,0,0,1-.2.259l-.762.354.762.327a.293.293,0,0,1-.1.572.354.354,0,0,1-.2-.1l-.653-.476.082.776a.272.272,0,0,1-.272.327.259.259,0,0,1-.272-.313Z" transform="translate(-57.176 16.95)" fill="#00a0ae"/>
        <rect id="Rectangle_8853" data-name="Rectangle 8853" width="187.728" height="18.633" transform="translate(43.825 297.427)" fill="#ebebeb"/>
        <path id="Path_34053" data-name="Path 34053" d="M431.179,296.7H345.61V276.71h85.568Zm-84.207-1.361h82.846V278.071H346.971Z" transform="translate(16.14 20.037)" fill="#00a0ae"/>
        <rect id="Rectangle_8854" data-name="Rectangle 8854" width="84.207" height="18.633" transform="translate(259.278 297.427)" fill="#e27e2b"/>
        <path id="Path_34054" data-name="Path 34054" d="M290.355,285.949a.435.435,0,0,1,.626,0,2.886,2.886,0,0,0,1.674.667,1.879,1.879,0,0,0,1.089-.313.8.8,0,0,0,.381-.64.463.463,0,0,0-.082-.272.666.666,0,0,0-.259-.259,3.281,3.281,0,0,0-1.2-.422h0a4.085,4.085,0,0,1-1.13-.34,1.81,1.81,0,0,1-.817-.681,1.362,1.362,0,0,1-.2-.708,1.606,1.606,0,0,1,.708-1.279,2.545,2.545,0,0,1,1.511-.463,3.444,3.444,0,0,1,1.905.694.463.463,0,0,1,.122.626.435.435,0,0,1-.626.122,2.627,2.627,0,0,0-1.361-.558,1.647,1.647,0,0,0-.98.3.707.707,0,0,0-.327.558.5.5,0,0,0,0,.245.721.721,0,0,0,.231.218,3.088,3.088,0,0,0,1.1.395h0a4.507,4.507,0,0,1,1.211.368,1.973,1.973,0,0,1,.871.721,1.443,1.443,0,0,1,.2.735,1.7,1.7,0,0,1-.749,1.361,2.723,2.723,0,0,1-1.62.5,3.77,3.77,0,0,1-2.232-.885.463.463,0,0,1-.054-.694Z" transform="translate(-3.857 21.672)" fill="#fff"/>
        <path id="Path_34055" data-name="Path 34055" d="M296.42,286.961a1.824,1.824,0,0,1-1.81-1.81v-2.028a.463.463,0,0,1,.926,0v2.1a.885.885,0,0,0,.885.885.912.912,0,0,0,.926-.885v-2.1a.463.463,0,0,1,.449-.463.49.49,0,0,1,.476.463v2.1A1.851,1.851,0,0,1,296.42,286.961Z" transform="translate(-2.273 22.185)" fill="#fff"/>
        <path id="Path_34056" data-name="Path 34056" d="M298.61,285.263h0v-3.471a.477.477,0,0,1,.953,0v1.647a2.028,2.028,0,0,1,1.17-.367,2.191,2.191,0,1,1-1.184,4,.476.476,0,0,1-.939-.109Zm.953,0a1.238,1.238,0,0,0,.354.871,1.075,1.075,0,0,0,.817.354,1.1,1.1,0,0,0,.817-.354,1.239,1.239,0,0,0,.354-.871,1.265,1.265,0,0,0-.354-.885,1.156,1.156,0,0,0-.817-.354,1.129,1.129,0,0,0-.817.354,1.266,1.266,0,0,0-.354.885Z" transform="translate(-0.829 21.705)" fill="#fff"/>
        <path id="Path_34057" data-name="Path 34057" d="M306.487,284.406v2.1a.463.463,0,0,1-.926,0v-2.1a.912.912,0,0,0-.912-.871.885.885,0,0,0-.871.9V286.5h0a.531.531,0,0,1-.436.272h-.1a.476.476,0,0,1-.367-.463v-1.824h0v-1.361a.463.463,0,0,1,.463-.476.449.449,0,0,1,.422.259,3.447,3.447,0,0,0,3.661-.259,1.824,1.824,0,0,1,1.824,1.837v2.069a.476.476,0,0,1-.939,0v-2.069a.9.9,0,0,0-.885-.9A.912.912,0,0,0,306.487,284.406Z" transform="translate(0.713 22.181)" fill="#fff"/>
        <path id="Path_34058" data-name="Path 34058" d="M309.913,281.983a.476.476,0,1,1-.953,0v-.19a.476.476,0,0,1,.476-.463.463.463,0,0,1,.476.463Zm0,1.579v3.4a.463.463,0,0,1-.476.476.476.476,0,0,1-.476-.476V283.6a.476.476,0,0,1,.476-.476.463.463,0,0,1,.476.476Z" transform="translate(2.908 21.705)" fill="#fff"/>
        <path id="Path_34059" data-name="Path 34059" d="M312.874,283.592a.49.49,0,0,1-.49.49h-.218v2.436a.476.476,0,0,1,.476.49.463.463,0,0,1-.476.476.98.98,0,0,1-.98-.966v-2.436h-.245a.49.49,0,1,1,0-.966h.286V281.85a.49.49,0,0,1,.98,0v1.266h.218A.49.49,0,0,1,312.874,283.592Z" transform="translate(3.417 21.716)" fill="#fff"/>
        <path id="Path_34060" data-name="Path 34060" d="M366.57,284.344a3.239,3.239,0,0,1,5.226-2.464.5.5,0,1,1-.612.789,2.164,2.164,0,0,0-1.361-.476,2.369,2.369,0,0,0-1.579.626,2.164,2.164,0,0,0-.64,1.524,2.109,2.109,0,0,0,.64,1.524,2.368,2.368,0,0,0,1.579.626,2.178,2.178,0,0,0,1.361-.476.531.531,0,0,1,.708.1.5.5,0,0,1-.1.694,3.239,3.239,0,0,1-5.226-2.464Z" transform="translate(23.707 21.658)" fill="#00a0ae"/>
        <path id="Path_34061" data-name="Path 34061" d="M375.475,284.8v1.715a.463.463,0,0,1-.463.463.476.476,0,0,1-.463-.367,1.986,1.986,0,0,1-1.157.367,2.028,2.028,0,0,1-1.484-.64,2.273,2.273,0,0,1,0-3.076,2.028,2.028,0,0,1,1.484-.653,2,2,0,0,1,1.157.381.467.467,0,0,1,.926.1Zm-.926,0a1.361,1.361,0,0,0-.34-.9,1.1,1.1,0,0,0-.817-.354,1.075,1.075,0,0,0-.817.354,1.361,1.361,0,0,0,0,1.8,1.116,1.116,0,0,0,.817.34,1.143,1.143,0,0,0,.817-.34A1.361,1.361,0,0,0,374.549,284.8Z" transform="translate(25.419 22.167)" fill="#00a0ae"/>
        <path id="Path_34062" data-name="Path 34062" d="M379.2,284.484v2.082a.456.456,0,1,1-.912,0v-2.082a.9.9,0,0,0-.912-.885.871.871,0,0,0-.871.885v2.082a.273.273,0,0,1,0,.1.49.49,0,0,1-.463.367.463.463,0,0,1-.476-.463v-3.443a.471.471,0,0,1,.9-.191,1.755,1.755,0,0,1,.925-.272A1.824,1.824,0,0,1,379.2,284.484Z" transform="translate(26.957 22.185)" fill="#00a0ae"/>
        <path id="Path_34063" data-name="Path 34063" d="M379.28,284.8a2.219,2.219,0,0,1,2.219-2.191,2.34,2.34,0,0,1,1.361.476.49.49,0,0,1,.1.653.463.463,0,0,1-.653.082,1.361,1.361,0,0,0-.83-.272,1.252,1.252,0,0,0,0,2.5,1.443,1.443,0,0,0,.83-.272.463.463,0,0,1,.653.1.476.476,0,0,1-.1.64,2.423,2.423,0,0,1-1.361.463,2.2,2.2,0,0,1-2.218-2.178Z" transform="translate(28.296 22.167)" fill="#00a0ae"/>
        <path id="Path_34064" data-name="Path 34064" d="M382.85,284.8a2.164,2.164,0,0,1,2.137-2.191,2.083,2.083,0,0,1,2.15,2.028v.122a.422.422,0,0,1-.463.354h-2.722a1.062,1.062,0,0,0,.3.572,1.4,1.4,0,0,0,1.742.177.517.517,0,0,1,.667,0,.422.422,0,0,1,0,.572,2.232,2.232,0,0,1-1.565.572,2.164,2.164,0,0,1-2.246-2.2Zm.953-.436h2.477a1.456,1.456,0,0,0-1.293-.926,1.225,1.225,0,0,0-1.184.926Z" transform="translate(29.585 22.167)" fill="#00a0ae"/>
        <path id="Path_34065" data-name="Path 34065" d="M387.506,281.33a.49.49,0,0,1,.49.476v5.158a.49.49,0,0,1-.966,0v-5.158A.476.476,0,0,1,387.506,281.33Z" transform="translate(31.094 21.705)" fill="#00a0ae"/>
      </g>
      <g id="freepik--Floor--inject-3" transform="translate(52.185 612.186)">
        <path id="Path_34066" data-name="Path 34066" d="M52.16,460.767c172.512-.83,366.024-.844,538.535,0C418.184,461.61,224.672,461.6,52.16,460.767Z" transform="translate(-52.16 -460.139)" fill="#263238"/>
      </g>
      <g id="freepik--Character--inject-3" transform="translate(402.487 104.451)">
        <path id="Path_34067" data-name="Path 34067" d="M311.049,486c3.321,1.089,98.24-.122,101.819-2.477,1.361-.857,2.014-14.7,2.287-31.44v-.531c.068-3.443.122-7.009.122-10.6v-1.484l-4.587-49.242-63.492.612,6.261,48.78.068,1.933.381,10.1v1.034s-36.135,16.714-39.8,19.708S307.715,484.948,311.049,486Z" transform="translate(-309.537 22.353)" fill="#ad6359"/>
        <path id="Path_34068" data-name="Path 34068" d="M311.049,472.934c3.321,1.089,98.24-.122,101.819-2.477,1.361-.857,2.014-14.7,2.287-31.44v-.531c.068-3.443.122-7.009.122-10.6V426.4l-61.818.15.068,1.933.381,10.1v1.034s-36.135,16.714-39.8,19.708S307.715,471.886,311.049,472.934Z" transform="translate(-309.537 35.415)" fill="#ebebeb"/>
        <path id="Path_34069" data-name="Path 34069" d="M311.038,469.731c1.715.558,27.507.5,52.713,0,5.063-.109,10.1-.218,14.9-.354,17.979-.49,32.828-1.225,34.216-2.123s1.987-14.318,2.259-30.746V435.27h-.082l-61.165.109v1.034s-36.122,16.714-39.783,19.694S307.717,468.67,311.038,469.731Z" transform="translate(-309.539 38.618)" fill="#e27e2b"/>
        <path id="Path_34070" data-name="Path 34070" d="M311.466,458.167c15.992-.6,80.56-1.5,96.416-.871.136,0,.136.1,0,.109-15.829.939-80.41,1.361-96.416,1.021C311.14,458.426,311.126,458.181,311.466,458.167Z" transform="translate(-308.933 46.493)" fill="#263238"/>
        <path id="Path_34071" data-name="Path 34071" d="M337.247,435.678c6.288-1.252,13.992-.381,18.864,4.083.191.177,0,.436-.259.381a88.727,88.727,0,0,0-18.565-3.62.422.422,0,0,1-.041-.844Z" transform="translate(-299.68 38.577)" fill="#263238"/>
        <path id="Path_34072" data-name="Path 34072" d="M333.938,437.739c6.274-1.252,13.991-.395,18.864,4.083.191.177-.068.449-.272.381a88.547,88.547,0,0,0-18.565-3.62.422.422,0,1,1-.027-.844Z" transform="translate(-300.877 39.32)" fill="#263238"/>
        <path id="Path_34073" data-name="Path 34073" d="M330.628,439.788c6.274-1.252,13.991-.381,18.85,4.083.191.177,0,.436-.259.381a87.859,87.859,0,0,0-18.565-3.62.422.422,0,1,1-.027-.844Z" transform="translate(-302.072 40.061)" fill="#263238"/>
        <path id="Path_34074" data-name="Path 34074" d="M349.37,469.731c5.063-.109,10.1-.218,14.9-.354,17.979-.49,32.828-1.225,34.216-2.123s1.987-14.318,2.259-30.746V435.27h-.082C392.338,441.15,362.79,460.762,349.37,469.731Z" transform="translate(-295.158 38.618)" opacity="0.1"/>
        <path id="Path_34075" data-name="Path 34075" d="M341.652,522.423h68.365s-13.733-159.65-13.189-162.44c.694-3.566,4.736-19.721,10.113-40.831,1.674-6.615,3.5-13.692,5.444-21.042,5.09-19.858,10.725-41.566,15.611-60.457,7.363-28.3,13.093-42.873,13.093-42.873H383.1S335.459,331.129,333.581,359.3C331.92,383.869,341.652,522.423,341.652,522.423Z" transform="translate(-300.927 -48.208)" fill="#263238"/>
        <path id="Path_34076" data-name="Path 34076" d="M341.73,427.066c10.439-.218,7.445-.3,17.884-.408,5.1,0,38.681-.327,43.458.463.109,0,.109.191,0,.218-4.777.789-38.354.49-43.458.436-10.439-.109-7.445-.191-17.884-.408a.15.15,0,1,1,0-.3Z" transform="translate(-297.971 35.484)" fill="#37474f"/>
        <path id="Path_34077" data-name="Path 34077" d="M370.994,346.387c2.246-9.881,5.594-19.558,8.506-29.262q8.9-29.562,17.9-59.083c2.994-9.84,16.89-46.67,18.265-51.57.558-1.987.857-.9.15,1.633-1.443,5.1-25.193,78.11-31.2,98.117L375.553,336.3a121.765,121.765,0,0,0-3.688,14.549,66.951,66.951,0,0,0-.612,15.57c.653,10.453,1.865,20.906,2.831,31.3s1.919,20.919,2.885,31.3q2.9,31.222,5.716,62.431c.231,2.64.463,5.267.667,7.908.068.885-1.266.817-1.361,0-2.246-20.579-3.961-41.226-5.893-61.832s-3.838-41.008-5.744-61.519c-.476-5.145-1.034-10.3-1.034-15.475a64.174,64.174,0,0,1,1.674-14.155Z" transform="translate(-287.955 -44.357)" fill="#37474f"/>
        <path id="Path_34078" data-name="Path 34078" d="M374.74,194.77c4.015,31.113,11.678,82.057,17.258,124.385,13.066-51.284,34.094-124.372,34.094-124.372Z" transform="translate(-285.998 -48.212)" fill="#37474f"/>
        <path id="Path_34079" data-name="Path 34079" d="M362.989,486.589c3.321,1.089,98.24.218,101.833-2.11,1.361-.857,2.055-14.7,2.4-31.44v-.531c.068-3.443.136-7,.15-10.6v-1.484c.218-24.172-1.511-49.242-1.511-49.242l-62.05.395,1.729,48.78.068,1.933.34,10.1v1.034s-36.176,16.591-39.865,19.558S359.654,485.514,362.989,486.589Z" transform="translate(-290.784 22.7)" fill="#ad6359"/>
        <path id="Path_34080" data-name="Path 34080" d="M362.989,473.544c3.321,1.089,98.24.218,101.833-2.11,1.361-.857,2.055-14.7,2.4-31.44v-.531c.068-3.443.136-7,.15-10.6v-1.484l-61.832-.068.068,1.933.34,10.1v1.034s-36.176,16.591-39.865,19.558S359.654,472.469,362.989,473.544Z" transform="translate(-290.784 35.744)" fill="#ebebeb"/>
        <path id="Path_34081" data-name="Path 34081" d="M362.987,470.353c3.321,1.089,98.24.218,101.833-2.11,1.361-.857,2.055-14.7,2.4-31.44v-.531l-61.247-.122v1.034s-36.176,16.591-39.865,19.558S359.653,469.278,362.987,470.353Z" transform="translate(-290.782 38.935)" fill="#e27e2b"/>
        <path id="Path_34082" data-name="Path 34082" d="M363.418,458.785c15.992-.544,80.573-1.2,96.416-.517.136,0,.136.1,0,.1-15.843.885-80.41,1.021-96.416.681C363.077,459.029,363.077,458.8,363.418,458.785Z" transform="translate(-290.178 46.815)" fill="#263238"/>
        <path id="Path_34083" data-name="Path 34083" d="M389.24,436.453c6.288-1.225,13.991-.327,18.85,4.083.191.177,0,.436-.272.381a87.559,87.559,0,0,0-18.537-3.688.408.408,0,0,1-.041-.776Z" transform="translate(-280.858 38.864)" fill="#263238"/>
        <path id="Path_34084" data-name="Path 34084" d="M385.96,438.5c6.288-1.239,13.991-.34,18.85,4.083.191.177-.068.436-.272.381a88.374,88.374,0,0,0-18.551-3.607.429.429,0,1,1-.027-.857Z" transform="translate(-282.098 39.602)" fill="#263238"/>
        <path id="Path_34085" data-name="Path 34085" d="M382.633,440.545c6.288-1.239,13.991-.34,18.85,4.083.191.163-.068.435-.272.367a88.373,88.373,0,0,0-18.551-3.648.4.4,0,1,1-.027-.8Z" transform="translate(-283.289 40.339)" fill="#263238"/>
        <path id="Path_34086" data-name="Path 34086" d="M370.2,194.781a224.829,224.829,0,0,0,7.663,42.274c.517,1.81,1.062,3.593,1.661,5.308A173.422,173.422,0,0,1,394.74,250.9s.667,22.307,1.361,47.174c.735,27.806,1.5,58.824,1.361,65.4-.585,24.608,3.049,159.922,3.049,159.922l68.338.3S456.531,372.614,456.6,363.549c.136-14.5-3.607-64.826-6.261-111.537-.218-3.92,2.137-12.467,1.919-15.87-1.361-21.532-4.546-41.4-4.546-41.4Z" transform="translate(-287.638 -48.223)" fill="#263238"/>
        <path id="Path_34087" data-name="Path 34087" d="M394.178,427.407c10.439-.163,7.445-.272,17.884-.313,5.118,0,38.694-.177,43.458.64a.109.109,0,0,1,0,.2c-4.777.776-38.354.327-43.458.259-10.439-.15-7.445-.218-17.884-.476C393.987,427.707,393.987,427.407,394.178,427.407Z" transform="translate(-279.032 35.66)" fill="#37474f"/>
        <path id="Path_34088" data-name="Path 34088" d="M425.457,226.2c-1.688-.436-3.484-.572-5.2-.844-1.361-.218-2.722-.463-4.083-.762a18.075,18.075,0,0,1-7.3-3.076c-3.4-2.722-7.322-16.156-7.8-17.013-.817-1.484-.572-.109-.572,0,0,1.565,3.09,13.311,4.478,15.516,2.531,4.083,7.077,5.662,11.61,6.234,1.361.163,2.6.259,3.906.327a27.4,27.4,0,0,0,4.954,0,.231.231,0,0,0,0-.381Z" transform="translate(-276.707 -44.945)" fill="#37474f"/>
        <path id="Path_34089" data-name="Path 34089" d="M363.271,224.256a12.578,12.578,0,0,1,2.327-.844,17.686,17.686,0,0,0,1.851-.762,7.242,7.242,0,0,0,3.266-3.076c1.524-2.722,3.28-16.155,3.5-17.013.367-1.484.245-.109.245,0a150.755,150.755,0,0,1-2,15.543c-1.13,4.083-3.171,5.662-5.2,6.234a12.9,12.9,0,0,1-1.756.34,5.729,5.729,0,0,1-2.2,0C363.176,224.678,363.149,224.324,363.271,224.256Z" transform="translate(-290.168 -45.646)" fill="#37474f"/>
        <path id="Path_34090" data-name="Path 34090" d="M377.368,230.009a121.831,121.831,0,0,1,19.245,8.969.218.218,0,0,1-.177.395c-6.479-2.722-13.093-5.444-19.408-8.588a.424.424,0,1,1,.34-.776Z" transform="translate(-285.264 -35.502)" fill="#37474f"/>
        <path id="Path_34091" data-name="Path 34091" d="M375.9,197.389c0-.218.408-.272.408,0a214.112,214.112,0,0,0,1.089,21.654c.3,3.348,2.981,21.777,8.779,20.416.966-.218,1.456-1.184,1.62-2.64a23.834,23.834,0,0,0-.776-5.662c-.64-3.865-1.157-7.744-1.484-11.637a105.556,105.556,0,0,1,.231-21.845.191.191,0,0,1,.367,0,201.108,201.108,0,0,0,1.769,30.147c.721,4.791,3.144,12.018-1.878,12.767s-8.425-11.365-9.051-14.672a110.338,110.338,0,0,1-1.075-28.527Z" transform="translate(-285.747 -47.333)" fill="#37474f"/>
        <path id="Path_34092" data-name="Path 34092" d="M383.569,228.752a30.817,30.817,0,0,1,1.293,3.825,8.643,8.643,0,0,1,.544,3.144.218.218,0,0,1-.395.082,11.037,11.037,0,0,1-1.361-3.062c-.449-1.184-.912-2.355-1.361-3.552a.676.676,0,0,1,1.279-.436Z" transform="translate(-283.286 -36.109)" fill="#37474f"/>
        <path id="Path_34093" data-name="Path 34093" d="M420.45,197.211c1.143,6.288,2.232,12.59,3.212,18.9s2.259,12.658,2.259,19.245a76.6,76.6,0,0,0-2,13.991c4.954,79.92,7.241,174.09,13.025,253.725-3.525-25.329-4.7-50.93-6.492-76.436-3.634-58.933-6.043-118.124-8.166-177.153a73.977,73.977,0,0,1,2.327-14.441c-.082-11.038-2.913-26.772-4.165-37.878Z" transform="translate(-269.495 -47.345)" fill="#37474f"/>
        <path id="Path_34094" data-name="Path 34094" d="M393.138,135.755c-29.194,25.724-56.293,53.938-58.525,68.474-3.13,20.13,9.2,25.86,14.754,25.969,15.121.327,43.295-60.661,53.08-83.949C411.974,123.628,399.548,130.106,393.138,135.755Z" transform="translate(-300.667 -71.471)" fill="#00a0ae"/>
        <path id="Path_34095" data-name="Path 34095" d="M388.173,155.092a2.4,2.4,0,0,1-2.4-2.4,2.981,2.981,0,0,0-2.967-2.967h-1.865v.572h1.865a2.4,2.4,0,0,1,2.382,2.4,2.981,2.981,0,0,0,2.981,2.981h1.756v-.585Zm-22.348,46.724a2.4,2.4,0,0,1-2.4-2.4,2.981,2.981,0,0,0-2.981-2.967H358.6v.585h1.851a2.382,2.382,0,0,1,2.4,2.382,2.981,2.981,0,0,0,2.981,2.981h1.756v-.585Zm-22.348-11.092a2.4,2.4,0,0,1,0-3.389,2.967,2.967,0,0,0,0-4.206l-1.361-1.361-.408.422,1.361,1.361a2.409,2.409,0,0,1,0,3.389,2.953,2.953,0,0,0,0,4.206l1.239,1.239.408-.408Zm7.227,22.757-1.361,1.361a2.4,2.4,0,0,1-3.389,0,2.981,2.981,0,0,0-4.206,0l-1.239,1.239.408.408,1.239-1.239a2.409,2.409,0,0,1,3.389,0,2.967,2.967,0,0,0,4.206,0l1.361-1.361Zm18.279-42.655-1.361,1.361a2.4,2.4,0,0,1-3.389,0,2.981,2.981,0,0,0-4.206,0l-1.239,1.239.408.422,1.239-1.252a2.409,2.409,0,0,1,3.389,0,2.967,2.967,0,0,0,4.206,0l1.361-1.361Z" transform="translate(-298.357 -64.473)" fill="#fff"/>
        <path id="Path_34096" data-name="Path 34096" d="M399.278,146.087c-9.813,23.287-37.987,84.275-53.081,83.949a12.03,12.03,0,0,1-3.307-.585l58.674-98.771C403.415,131.987,403.4,136.328,399.278,146.087Z" transform="translate(-297.498 -71.351)" opacity="0.1"/>
        <path id="Path_34097" data-name="Path 34097" d="M451.591,228.81c-.191.231-83.826-1.157-84.629-1.96-.3-.313,7.867-74.095,19.218-92.414,4.668-7.554,17.693-11.433,26.567-.163C440.172,169.006,451.823,228.524,451.591,228.81Z" transform="translate(-288.81 -72.602)" fill="#00a0ae"/>
        <path id="Path_34098" data-name="Path 34098" d="M402.467,199.027a2.4,2.4,0,0,1-2.4-2.4,2.981,2.981,0,0,0-2.981-2.981H395.24v.585h1.851a2.4,2.4,0,0,1,2.4,2.4,2.981,2.981,0,0,0,2.981,2.967h1.756v-.572Zm-25.424-38.109a2.341,2.341,0,0,1-1.688-.708,2.826,2.826,0,0,1-.15.653,2.872,2.872,0,0,0,1.837.64H378.8v-.585Zm3.743,54.442a2.368,2.368,0,0,1,0-3.375,3.008,3.008,0,0,0,.871-2.11,2.954,2.954,0,0,0-.871-2.1l-1.361-1.361-.408.408,1.361,1.361a2.368,2.368,0,0,1,0,3.375,2.994,2.994,0,0,0,0,4.219l1.252,1.239.408-.408ZM398.1,172.908a2.4,2.4,0,0,1,0-3.375,2.981,2.981,0,0,0,0-4.206l-1.361-1.361-.408.422,1.361,1.361a2.4,2.4,0,0,1,0,3.389,2.981,2.981,0,0,0,0,4.206l1.239,1.239.422-.408Zm44.914,38.34a2.4,2.4,0,0,1,0-3.389,2.981,2.981,0,0,0,0-4.206l-1.361-1.361-.408.408,1.361,1.361a2.4,2.4,0,0,1,0,3.389,2.981,2.981,0,0,0,0,4.206l1.252,1.239.408-.408Zm-41.825,13.61-.885.885h.817l.476-.476Zm-8.044.721h2.613a3.035,3.035,0,0,0-2.681.041Zm37.265-60.988-.966.966.408.408.8-.8ZM419.385,209.03v1.756a2.4,2.4,0,0,1-2.4,2.4,2.981,2.981,0,0,0-2.981,2.967v1.865h.585v-1.905a2.382,2.382,0,0,1,2.4-2.382,2.981,2.981,0,0,0,2.967-2.981V209.03ZM376.7,182.055v1.756a2.4,2.4,0,0,1-2.4,2.4,2.981,2.981,0,0,0-2.967,2.981v1.851h.572v-1.851a2.4,2.4,0,0,1,2.4-2.4,2.981,2.981,0,0,0,2.981-2.981v-1.756ZM397.635,133.6v1.756a2.4,2.4,0,0,1-2.4,2.4,2.981,2.981,0,0,0-2.967,2.967v1.865h.572V140.72a2.4,2.4,0,0,1,2.4-2.463,2.994,2.994,0,0,0,2.981-2.981V133.52Zm26.322,46.656v1.756a2.4,2.4,0,0,1-2.4,2.4,2.981,2.981,0,0,0-2.981,2.981v1.851h.585V187.39a2.4,2.4,0,0,1,2.4-2.4,2.981,2.981,0,0,0,2.967-2.981v-1.756Zm-6.41-23.233a2.4,2.4,0,0,1-2.4-2.4,2.981,2.981,0,0,0-2.981-2.981h-1.824v.585H412.2a2.4,2.4,0,0,1,2.4,2.4,2.994,2.994,0,0,0,2.981,2.981h1.756v-.585Z" transform="translate(-287.226 -70.325)" fill="#fff"/>
        <path id="Path_34099" data-name="Path 34099" d="M404.977,133.329c27.221,21.341,53.856,58.225,54.06,78.845.191,20.416-6.9,18.388-8.915,18.252-12.249-.8-41.267-57.463-50.086-80.56S398.253,128.048,404.977,133.329Z" transform="translate(-278.358 -71.55)" fill="#00a0ae"/>
        <path id="Path_34100" data-name="Path 34100" d="M440.205,184.772a2.4,2.4,0,0,1-2.4-2.4,2.981,2.981,0,0,0-2.967-2.981h-1.865v.585h1.865a2.4,2.4,0,0,1,2.382,2.4,2.981,2.981,0,0,0,2.981,2.967h1.756v-.572Zm-7.54,21.668a2.4,2.4,0,0,1,0-3.389,2.981,2.981,0,0,0,0-4.206l-1.361-1.361-.408.408,1.361,1.361a2.4,2.4,0,0,1,0,3.389,2.981,2.981,0,0,0,0,4.206l1.252,1.239.408-.408Zm-3.43-48.194-1.361,1.361a2.409,2.409,0,0,1-3.389,0,2.981,2.981,0,0,0-4.206,0l-1.238,1.239.408.408,1.239-1.239a2.409,2.409,0,0,1,3.389,0,2.981,2.981,0,0,0,4.206,0l1.361-1.361Zm26.309,36.748a2.967,2.967,0,0,0-2.722,2.967v1.851h.585v-1.851a2.382,2.382,0,0,1,2.327-2.382,3.821,3.821,0,0,1-.259-.626ZM413.61,175.449v1.089l.544,1.048a3.575,3.575,0,0,0,0-.381v-1.756Zm39.32,38.64v1.756a2.4,2.4,0,0,1-2.4,2.4,2.981,2.981,0,0,0-2.981,2.967v1.851h.585v-1.851a2.4,2.4,0,0,1,2.4-2.4,2.981,2.981,0,0,0,2.967-2.967v-1.756ZM407.2,152.216a2.4,2.4,0,0,1-2.4-2.4,2.981,2.981,0,0,0-2.981-2.981H400v.585h1.851a2.4,2.4,0,0,1,2.4,2.4,2.994,2.994,0,0,0,2.981,2.981h1.756v-.585Z" transform="translate(-276.879 -65.516)" fill="#fff"/>
        <path id="Path_34101" data-name="Path 34101" d="M432.417,208.639c-1.429-2.572-2.885-5.1-4.274-7.69l-4.233-7.7c-2.8-5.158-5.635-10.276-8.357-15.475s-5.444-10.33-8.166-15.543q-2.028-3.893-3.947-7.84c-1.361-2.613-2.532-5.281-3.77-7.948a159.992,159.992,0,0,0,6.805,16.332c2.491,5.322,5.2,10.534,7.921,15.734s5.648,10.289,8.656,15.325S429.041,203.821,432.417,208.639Z" transform="translate(-276.998 -65.661)" fill="#263238"/>
        <path id="Path_34102" data-name="Path 34102" d="M402.723,152.839a23.959,23.959,0,0,0-1.688-2.722c-.3-.408-.585-.844-.912-1.252s-.626-.83-.994-1.225a7.771,7.771,0,0,0,1.361,2.885A8.7,8.7,0,0,0,402.723,152.839Z" transform="translate(-277.193 -65.227)" fill="#263238"/>
        <path id="Path_34103" data-name="Path 34103" d="M340.72,174.786c1.361-9.527,4.274-22.879,7.731-25.642S365.219,136.581,369,135.316s20.633-7.458,23.7-5.648c2.45,1.456-.544,7.921-8.561,10.888a117.137,117.137,0,0,0-12.712,6.016c-2.055.857-7.064,7.431-5.744,10.385.776,1.742,5.784,3.825,8.928,2.45s3.974-7.567,7.581-10.453,9.922-2.463,10.262-.749-1.742,2.477-5.036,8.166c-2.123,3.688-2.355,12.617-7.132,18.973a112.076,112.076,0,0,0-6.615,11.7Z" transform="translate(-298.281 -71.835)" fill="#ad6359"/>
        <path id="Path_34104" data-name="Path 34104" d="M373.679,143.006a6.22,6.22,0,0,0,3.144-1.361,2.627,2.627,0,0,0,.721-1.266,2.274,2.274,0,0,0,0-.8,1.184,1.184,0,0,0-.3-.762s0-.122.068,0,.2.245.286.381a2.293,2.293,0,0,1,.177.367,1.865,1.865,0,0,1,.123.776,2.518,2.518,0,0,1-.64,1.579,4.287,4.287,0,0,1-3.607,1.266S373.625,143.02,373.679,143.006Z" transform="translate(-286.394 -68.433)" fill="#263238"/>
        <path id="Path_34105" data-name="Path 34105" d="M346.4,148.247c3.09-4.736,10.97-13.27,18.714-16.156,5.226-1.933,23.138,6.982,22.512,10.412s-3.62,3.4-8.166,2.817c-1.647-.218-10.357-3.457-11.868-1.633-2.164,2.613-4.981,11.6-4.981,11.6Z" transform="translate(-296.23 -70.939)" fill="#ad6359"/>
        <path id="Path_34106" data-name="Path 34106" d="M379.546,140.615c-2.178-3.688-7.037-5.7-11.868-7.3-.068,0-.109.082,0,.109,1.239.408,9.092,4.083,11.855,7.241C379.519,140.71,379.56,140.656,379.546,140.615Z" transform="translate(-288.573 -70.398)" fill="#263238"/>
        <path id="Path_34107" data-name="Path 34107" d="M346.4,148.234c3.09-4.736,10.97-13.27,18.714-16.156,5.226-1.933,19.3,9.391,18.741,12.807s-4.968,3.661-9.813,1.905c-1.565-.558-6.805-4.328-8.3-2.5-2.178,2.613-7.459,9.105-7.459,9.105Z" transform="translate(-296.23 -70.925)" fill="#ad6359"/>
        <path id="Path_34108" data-name="Path 34108" d="M357.518,149.5l1.171-1.756c.517-.735,1.034-1.456,1.592-2.164a6.8,6.8,0,0,1,1.633-1.674,3.471,3.471,0,0,1,2.15-.408,12.249,12.249,0,0,1,4.628,2.11c1.579.925,4.886,2.45,7.418,2.2a5.132,5.132,0,0,0,2.014-.517,3.144,3.144,0,0,0,1.211-.953c1.116-1.851-.231-4-1.62-5.526a32.788,32.788,0,0,0-9.527-6.628c-.83-.422-1.688-.817-2.531-1.211a7.336,7.336,0,0,0-3.062-.912c-1.769,0-4.682,1.729-5.58,2.259,0,0-.122,0,0-.109,1.089-.667,3.811-2.845,6.656-2.722a8.928,8.928,0,0,1,2.94,1.034c.994.436,1.974.9,2.926,1.361a38.114,38.114,0,0,1,5.444,3.266,16.686,16.686,0,0,1,4.4,4.233,4.941,4.941,0,0,1,.259,5.077,4.328,4.328,0,0,1-3.226,1.674,8.165,8.165,0,0,1-2.232,0,35.614,35.614,0,0,1-4.873-1.484c-1.538-.626-2.913-1.688-4.491-2.178a2.967,2.967,0,0,0-2.314.122,8.166,8.166,0,0,0-1.728,1.552,24.579,24.579,0,0,0-2.913,3.375C357.545,149.879,357.314,149.879,357.518,149.5Z" transform="translate(-292.418 -71.06)" fill="#263238"/>
        <path id="Path_34109" data-name="Path 34109" d="M344.71,154.031c1.13-2.259,3.117-11.61,4.954-14.468s10.194-12.7,14.046-12.249c4.845.6-.3,9.282-2.872,12.848s-2.2,9.677-2.2,9.677Z" transform="translate(-296.84 -72.571)" fill="#ad6359"/>
        <path id="Path_34110" data-name="Path 34110" d="M360.743,132.407c-.912,1.13-1.715,2.382-2.518,3.607a29.57,29.57,0,0,0-2.2,3.539,12.52,12.52,0,0,0-.98,3.974c-.068.68-.1,1.361-.109,2.028s0,1.484,0,2.218a.061.061,0,1,0,.122,0,31,31,0,0,1,.572-4.015,17.859,17.859,0,0,1,1.252-3.988c1.157-2.518,2.845-4.764,4.083-7.282A.141.141,0,0,0,360.743,132.407Z" transform="translate(-293.152 -70.737)" fill="#263238"/>
        <path id="Path_34111" data-name="Path 34111" d="M355.012,144.63a13.883,13.883,0,0,0,1.17,6.805,22.973,22.973,0,0,0,3.5,6.029,27.579,27.579,0,0,1,3.471,5.689,27.943,27.943,0,0,1,1.783,6.519,17.992,17.992,0,0,0-.789-6.887,21.043,21.043,0,0,0-3.335-6.152,32.53,32.53,0,0,1-3.566-5.676,20.417,20.417,0,0,1-2.232-6.329Z" transform="translate(-293.137 -66.314)" fill="#263238"/>
        <path id="Path_34112" data-name="Path 34112" d="M350.829,223.271c9.446-1.279,15.625-17.067,26.4-44.846,1.892-4.873-22.784-34.843-26.132-30.365-4.233,5.635-15.625,36.993-16.809,45.54C331.924,210.451,339.8,224.755,350.829,223.271Z" transform="translate(-300.754 -65.24)" fill="#ad6359"/>
        <path id="Path_34113" data-name="Path 34113" d="M371.717,189.485,341.284,159.91s-8.656,25.451-7.84,36.122,4.519,22.825,17.367,23.492C360.434,220.027,371.717,189.485,371.717,189.485Z" transform="translate(-300.927 -60.798)" fill="#00a0ae"/>
        <path id="Path_34114" data-name="Path 34114" d="M363.43,190.953a2.981,2.981,0,0,0-2.981-2.967H358.6v.585h1.851a2.382,2.382,0,0,1,2.4,2.382,2.981,2.981,0,0,0,2.409,2.926c.1-.191.177-.381.259-.572a2.368,2.368,0,0,1-2.082-2.355Zm-19.953-8.7a2.4,2.4,0,0,1,0-3.389,2.967,2.967,0,0,0,0-4.206l-1.361-1.361-.408.422,1.361,1.361a2.409,2.409,0,0,1,0,3.389,2.953,2.953,0,0,0,0,4.206l1.239,1.239.408-.408Zm7.227,22.716-1.361,1.361a2.4,2.4,0,0,1-3.389,0,2.981,2.981,0,0,0-4.206,0l-1.239,1.239.408.408,1.239-1.239a2.409,2.409,0,0,1,3.389,0,2.967,2.967,0,0,0,4.206,0l1.361-1.361Z" transform="translate(-298.357 -55.963)" fill="#fff"/>
        <path id="Path_34115" data-name="Path 34115" d="M354.32,202.114c1.1-1.552,2.082-3.185,3.035-4.818s1.837-3.335,2.722-5.022a52.318,52.318,0,0,0,2.341-5.2,31.3,31.3,0,0,0,1.769-5.444c-.8,1.729-1.647,3.4-2.518,5.09l-2.545,5.063c-.83,1.7-1.674,3.389-2.463,5.117S355.028,200.344,354.32,202.114Z" transform="translate(-293.371 -52.956)" fill="#263238"/>
        <path id="Path_34116" data-name="Path 34116" d="M363.358,191.511c-1.47-1.62-3.09-3.13-4.655-4.655s-3.158-3.049-4.764-4.546c-3.212-2.994-6.438-5.975-9.7-8.9l-2.722-2.4c-.98-.844-2.055-1.565-3.022-2.409a.072.072,0,1,0-.1.109c.776.749,1.443,1.62,2.2,2.382s1.592,1.565,2.4,2.341l4.791,4.519c3.212,2.994,6.438,5.975,9.731,8.86,1.878,1.633,3.7,3.335,5.662,4.859a.12.12,0,0,0,.177-.163Z" transform="translate(-299.129 -57.665)" fill="#263238"/>
        <path id="Path_34117" data-name="Path 34117" d="M387.729,151.2c4.927.49,13.12-8.656,15.57-14.971.163-.436-1.034-4.628-2.246-9.786-.721-3.144-1.443-6.655-1.878-9.908l-19.735,7.69a52.03,52.03,0,0,1,3.648,12.249,7.708,7.708,0,0,1,0,1.361,1.159,1.159,0,0,0,0,.218C383.047,140.552,382.924,150.706,387.729,151.2Z" transform="translate(-284.302 -76.459)" fill="#ad6359"/>
        <path id="Path_34118" data-name="Path 34118" d="M383.128,137.609a1.154,1.154,0,0,0,0,.218,13.125,13.125,0,0,0,2.11-.163c11.759-1.837,12.6-16.645,12.6-20.783l-4.927,1.919-13.474,5.24a51.57,51.57,0,0,1,3.634,12.249,6.449,6.449,0,0,1,.054,1.32Z" transform="translate(-284.302 -76.333)" fill="#263238"/>
        <path id="Path_34119" data-name="Path 34119" d="M403.481,102.056c2.845,7.064.857,28.391-3.892,33.522-6.9,7.445-19.055,9.173-25.656.681-6.356-8.166-3.28-35.986,2.123-40.749C384,88.5,399.262,91.6,403.481,102.056Z" transform="translate(-287.573 -85.409)" fill="#ad6359"/>
        <path id="Path_34120" data-name="Path 34120" d="M381.318,112.49s.109.068.1.136c-.136,1.361,0,3.1,1.211,3.661v.082C381.032,116.042,380.951,113.824,381.318,112.49Z" transform="translate(-283.689 -77.918)" fill="#263238"/>
        <path id="Path_34121" data-name="Path 34121" d="M382.693,111.45c2.327,0,2.2,4.628,0,4.655S380.747,111.464,382.693,111.45Z" transform="translate(-283.69 -78.293)" fill="#263238"/>
        <path id="Path_34122" data-name="Path 34122" d="M375.59,112.14a.12.12,0,0,0-.123.122c0,1.443-.218,3.1-1.538,3.552h0C375.536,115.706,375.822,113.515,375.59,112.14Z" transform="translate(-286.291 -78.044)" fill="#263238"/>
        <path id="Path_34123" data-name="Path 34123" d="M374.739,111c-2.314-.231-2.613,4.41-.476,4.628S376.686,111.22,374.739,111Z" transform="translate(-286.692 -78.458)" fill="#263238"/>
        <path id="Path_34124" data-name="Path 34124" d="M385.018,109.834a16.811,16.811,0,0,1-1.851-.49,3.144,3.144,0,0,1-1.783-.857,1.007,1.007,0,0,1,0-1.211,2.45,2.45,0,0,1,2.436-.436A3.552,3.552,0,0,1,386,108.2a1.048,1.048,0,0,1-.98,1.633Z" transform="translate(-283.673 -80.012)" fill="#263238"/>
        <path id="Path_34125" data-name="Path 34125" d="M373.147,108.937a18.362,18.362,0,0,0,1.865-.422,3.158,3.158,0,0,0,1.81-.8,1.007,1.007,0,0,0,0-1.211,2.423,2.423,0,0,0-2.409-.517,3.593,3.593,0,0,0-2.232,1.361,1.048,1.048,0,0,0,.966,1.592Z" transform="translate(-286.978 -80.312)" fill="#263238"/>
        <path id="Path_34126" data-name="Path 34126" d="M383.441,121.458c-.327.34-.667.817-1.184.871a3.893,3.893,0,0,1-1.565-.327s-.1,0,0,.082a1.933,1.933,0,0,0,1.851.735,1.579,1.579,0,0,0,1.1-1.361A.185.185,0,0,0,383.441,121.458Z" transform="translate(-283.865 -74.691)" fill="#263238"/>
        <path id="Path_34127" data-name="Path 34127" d="M383.727,122.387a4.913,4.913,0,0,1-3.226,2.273,6.9,6.9,0,0,1-1.756.122,1.361,1.361,0,0,1-.34,0,1.428,1.428,0,0,1-.327,0,.34.34,0,0,1-.286-.313h0v-.15h0v-2.858c-.395.2-2.45,1.184-2.423.612a73.533,73.533,0,0,1,1.541-14.986.136.136,0,0,1,.269.014c0,4.641-.776,9.241-.83,13.883a9.3,9.3,0,0,1,2.3-.762c.15,0-.191,3.266-.122,3.77h0a6.805,6.805,0,0,0,5.049-1.7C383.7,122.183,383.809,122.279,383.727,122.387Z" transform="translate(-285.771 -79.908)" fill="#263238"/>
        <path id="Path_34128" data-name="Path 34128" d="M376.87,99.635a8.155,8.155,0,0,0,13.855.054h.109a8.166,8.166,0,0,1-7.132,4.423,8.33,8.33,0,0,1-7.009-4.437C376.638,99.621,376.8,99.512,376.87,99.635Z" transform="translate(-285.297 -82.579)" fill="#263238"/>
        <path id="Path_34129" data-name="Path 34129" d="M386.148,87.917a8.683,8.683,0,0,1,8.411,4.723,11.8,11.8,0,0,1,1.225,5.825h-.122a10.888,10.888,0,0,0-4.328-8.506,7.282,7.282,0,0,0-8.452-.109,7.445,7.445,0,0,0-2.858,4c0,.177-.313.109-.272-.082a7.554,7.554,0,0,1,6.4-5.852Z" transform="translate(-284.191 -86.799)" fill="#263238"/>
        <path id="Path_34130" data-name="Path 34130" d="M365.578,92.265a9.731,9.731,0,0,1,4.941-4.505c2.94-1.211,5.921-.476,8.874.313.082,0,0,.15,0,.122a13.338,13.338,0,0,0-7.649-.367,9.527,9.527,0,0,0-5.118,3.879,9.309,9.309,0,0,0,1.946,12.059,9.527,9.527,0,0,0,7.254,1.96c.1,0,.15.136,0,.15a9.527,9.527,0,0,1-10.262-13.61Z" transform="translate(-289.671 -87.078)" fill="#263238"/>
        <path id="Path_34131" data-name="Path 34131" d="M406.11,108.35s.558-6.479-.83-8.7-5-3.158-5-3.158-1.361-5.757-6.506-6.805c-4.614-.994-8.357,2.722-8.357,2.722S379.9,85.063,372,87.635c-7.5,2.436-8.166,13.229-1.878,17.612,4.41,3.076,11.569-.122,11.569-.122.613.191,6.383,5.049,12.113.109,0,0,3.865,4.083,6.737,2.014C400.543,107.084,403.66,109.166,406.11,108.35Z" transform="translate(-289.209 -87.089)" fill="#263238"/>
        <path id="Path_34132" data-name="Path 34132" d="M396.3,122.174c-1.361-1.837-3.375-7.322-4.342-9.745s-.463-12.739-.15-17.3a14.971,14.971,0,0,1,4.083,5.716C397.581,105.038,397.567,114.28,396.3,122.174Z" transform="translate(-279.985 -84.186)" fill="#263238" opacity="0.2"/>
        <path id="Path_34133" data-name="Path 34133" d="M392.727,113.729s4.287-7.132,7.486-5.635.3,11.582-3.239,13.175a3.688,3.688,0,0,1-5.063-1.647Z" transform="translate(-279.799 -79.579)" fill="#ad6359"/>
        <path id="Path_34134" data-name="Path 34134" d="M398.792,110.15v.1c-2.463,1.2-3.634,3.648-4.41,6.152a2.042,2.042,0,0,1,3.008-.762c.068,0,0,.15-.068.136a2.287,2.287,0,0,0-2.436.953,10.9,10.9,0,0,0-1.062,2.11c-.1.231-.517.136-.449-.136h0C393.117,115.39,395.335,110.708,398.792,110.15Z" transform="translate(-279.278 -78.763)" fill="#263238"/>
        <path id="Path_34135" data-name="Path 34135" d="M409.291,185.215,405.33,142.7l-2.6-2.082-58.32-.354,1.347,40.436,2.6,2.082Z" transform="translate(-296.949 -67.892)" fill="#37474f"/>
        <path id="Path_34136" data-name="Path 34136" d="M407.381,183.685l-3.961-42.519L342.5,138.73l3.947,42.519Z" transform="translate(-297.638 -68.444)" fill="#455a64"/>
        <path id="Path_34137" data-name="Path 34137" d="M361.911,154.18a4.083,4.083,0,0,1,5.063-1.783,3.226,3.226,0,0,1,2.2,4.328,4.083,4.083,0,0,1-5.049,1.769,3.212,3.212,0,0,1-2.219-4.315Z" transform="translate(-290.713 -63.615)" fill="#fff"/>
        <path id="Path_34138" data-name="Path 34138" d="M451.253,220.2c-9.105,1.252-20.416-5.825-49.868-27.3-4.083-2.967,9.173-37.347,13.678-34.393,5.689,3.716,26.921,19.368,28.337,20.715C455.282,190.547,457.418,219.36,451.253,220.2Z" transform="translate(-276.657 -61.369)" fill="#ad6359"/>
        <path id="Path_34139" data-name="Path 34139" d="M437.306,173.009s-8.37-11.759-14.686-16.577a51.229,51.229,0,0,0-22.634-9.146c-8.819-1.361-31.032,1.66-31.3,8.166-.245,5.921,22.321,1.756,22.321,1.756s-23.709.449-22.675,7.649,26.935.857,26.935.857-24.349,1.007-22.117,8.262c1.688,5.444,25.479,1.062,25.479,1.062s-20.919,1.021-19.436,6.724c1.647,6.315,23.859,3.62,23.859,3.62,6.234,13.869,15.162,17.775,21.654,19.926C426.2,205.864,437.306,173.009,437.306,173.009Z" transform="translate(-288.325 -65.471)" fill="#ad6359"/>
        <path id="Path_34140" data-name="Path 34140" d="M398.161,154.01c-2.722,0-5.607-.122-8.384.082s-5.553.5-8.3.953a47.963,47.963,0,0,0-10.534,2.8c6.193-1.919,16.142-2.79,18.918-2.994s5.539-.544,8.316-.749C398.242,154.132,398.242,154.01,398.161,154.01Z" transform="translate(-287.37 -62.941)" fill="#263238"/>
        <path id="Path_34141" data-name="Path 34141" d="M397.233,161.38c-3.566.1-7.091.068-10.657.313s-6.805.8-10.385,1.293c-.272,0-.163.163.109.136,3.525-.354,6.805-.395,10.358-.708s7.05-.762,10.589-.939Z" transform="translate(-285.531 -60.267)" fill="#263238"/>
        <path id="Path_34142" data-name="Path 34142" d="M397.668,167.6a79.606,79.606,0,0,0-16.251,1.728c-.272,0-.109.2.163.163,5.444-.667,9.623-1.239,16.087-1.7C397.763,167.791,397.777,167.614,397.668,167.6Z" transform="translate(-283.638 -58.021)" fill="#263238"/>
        <path id="Path_34143" data-name="Path 34143" d="M422.076,162.67l-11.6,42.192s31.113,18.306,37.987,13.461,2.368-29.235-5.444-38.531C439.77,175.967,422.076,162.67,422.076,162.67Z" transform="translate(-273.095 -59.801)" fill="#00a0ae"/>
        <path id="Path_34144" data-name="Path 34144" d="M444.749,205.453v1.756a2.4,2.4,0,0,1-2.4,2.4,2.981,2.981,0,0,0-2.981,2.967v1.851h.585v-1.851a2.4,2.4,0,0,1,2.4-2.4,2.981,2.981,0,0,0,2.967-2.967v-1.756Zm-.15-16.673a2.735,2.735,0,0,0,0,.476v1.851h.585v-.558C444.967,189.991,444.79,189.393,444.6,188.78Zm-20.13,9.024a2.4,2.4,0,0,1,0-3.389,2.981,2.981,0,0,0,0-4.206l-1.361-1.361-.408.408,1.361,1.361a2.4,2.4,0,0,1,0,3.389,2.981,2.981,0,0,0,0,4.206l1.252,1.239.408-.408Zm7.608-21.668a2.4,2.4,0,0,1-2.4-2.4,2.981,2.981,0,0,0-2.967-2.981H424.85v.585h1.865a2.4,2.4,0,0,1,2.382,2.4,2.981,2.981,0,0,0,2.981,2.967h1.756v-.572Z" transform="translate(-268.683 -56.88)" fill="#fff"/>
        <path id="Path_34145" data-name="Path 34145" d="M418.67,164.076l.449-1.361h-.109c2.94,2.4,5.893,4.777,8.792,7.2s5.825,4.832,8.588,7.39a41.94,41.94,0,0,1,3.947,3.988,31.467,31.467,0,0,1,3.144,4.628,35.525,35.525,0,0,1,3.743,10.6,30.026,30.026,0,0,0-3.035-10.984,26.74,26.74,0,0,0-3.1-4.859,44.129,44.129,0,0,0-3.974-4.083c-2.817-2.559-5.771-4.954-8.765-7.3s-6.084-4.532-9.255-6.642h-.082v.1Z" transform="translate(-270.138 -59.805)" fill="#263238"/>
        <path id="Path_34146" data-name="Path 34146" d="M426.152,170.4c-.708,2.069-1.252,4.219-1.837,6.329s-1.143,4.233-1.688,6.37c-1.075,4.246-2.137,8.506-3.13,12.78-.272,1.17-.544,2.341-.8,3.525s-.381,2.545-.653,3.8c0,.1.123.122.15,0,.286-1.034.708-2.042,1.021-3.076s.6-2.15.885-3.226c.572-2.123,1.116-4.246,1.66-6.383,1.075-4.246,2.15-8.506,3.09-12.794.531-2.423,1.143-4.845,1.524-7.3a.11.11,0,0,0-.218-.027Z" transform="translate(-270.366 -57.047)" fill="#263238"/>
        <path id="Path_34147" data-name="Path 34147" d="M411.547,190.94c-.231,1.293-.517,2.559-.776,3.838l-.122-.3c3.171,1.742,7.812,4.083,11.052,5.812,3.7,1.905,7.418,3.729,11.2,5.526a53.462,53.462,0,0,1-5.921-2.069,93.623,93.623,0,0,1-16.782-8.942c.449-1.279.871-2.586,1.361-3.865Z" transform="translate(-273.196 -49.595)" fill="#263238"/>
      </g>
      <g id="freepik--Plant--inject-3" transform="translate(52.185 363.034)">
        <path id="Path_34148" data-name="Path 34148" d="M121.887,405.835a98.487,98.487,0,0,0-3.13,17.693c.163.3.136,1.361,0,1.1,0,.966-1.524.789-1.524-.163V422.6c-3.471-4.3-8.493-7.023-12.562-10.766a23.491,23.491,0,0,1-6.832-10.929c-3.375-11.61-.2-23.927-4.26-35.523-3.5-9.99-9.772-18.687-15.08-27.738-5.594-9.527-9.731-19.64-10.153-30.855-.327-8.588.694-20.034,7.241-26.472,6.928-6.805,15.529-1.7,20.837,4.383,15.393,17.693,22.525,39.987,25.4,62.826,1.592,12.63,3.239,25.342,2.858,38.109a102.188,102.188,0,0,1-2.79,20.2Z" transform="translate(-46.336 -277.079)" fill="#e27e2b"/>
        <path id="Path_34149" data-name="Path 34149" d="M114.527,419.991a216.787,216.787,0,0,0-.422-35.8.2.2,0,0,0,0-.122c.2-9.677.966-19.313.585-29a171.163,171.163,0,0,0-4.26-31.1.1.1,0,0,0-.191,0,202.182,202.182,0,0,1,3.375,30.419q.286,8.166-.136,16.4c-.1,1.769-.259,3.566-.367,5.363h0a191.225,191.225,0,0,0-28.786-76.218c-.191-.313-.749,0-.558.34A199,199,0,0,1,107.2,356.758c-7.4-13.719-18.592-24.989-26.88-38.177,0-.068-.163,0-.122.082,7.445,14.672,19.762,26.241,27.6,40.7,1.361,5.893,2.477,11.841,3.307,17.816a198.494,198.494,0,0,1,1.783,24.757c-4.505-8.425-9.187-16.482-12.875-25.4-.1-.245-.436-.082-.354.163,3.13,9.255,7.35,19.231,13.257,27.125q0,8.779-.49,17.571c-.912,15.625-3.593,31.045-4.818,46.629a.356.356,0,0,0,.708.068A355.9,355.9,0,0,0,114.527,419.991Z" transform="translate(-42.038 -268.874)" fill="#263238"/>
        <path id="Path_34150" data-name="Path 34150" d="M93.279,299.585a.1.1,0,0,0-.177.082c2.858,7.894,4.464,15.883,6.533,23.981a.3.3,0,0,0,.585-.109C99.39,315.332,96.451,307.152,93.279,299.585Z" transform="translate(-37.381 -268.974)" fill="#263238"/>
        <path id="Path_34151" data-name="Path 34151" d="M161.424,326.223a119.767,119.767,0,0,1-6.56,13.488c-5.145,9.337-10.507,17.884-11.474,28.759-.436,4.845-.585,9.731-2.069,14.4a42.968,42.968,0,0,1-5.744,11.269c-5.567,8.166-12.522,15.107-17.694,23.532a99.165,99.165,0,0,0-11.746,28.35c-.136.544-.994.395-.871-.15a.436.436,0,0,0,0-.123.136.136,0,0,1,0-.109c-.817-23.3,1.034-46.792,8.166-69.113a238.912,238.912,0,0,1,11.283-28.745c3.811-8.1,8.561-15.883,15.244-21.926,4.342-3.906,13.746-11.31,19.912-7.39C162.812,320.343,162.594,323.324,161.424,326.223Z" transform="translate(-33.051 -262.538)" fill="#e27e2b"/>
        <path id="Path_34152" data-name="Path 34152" d="M139.568,373.781a187.552,187.552,0,0,1-13.61,19.463c-2.246,2.94-4.532,5.866-6.805,8.82a53.216,53.216,0,0,0-3.239,4.274c.626-2.45,1.225-4.9,1.851-7.35,3.008-11.773,5.893-23.655,10.371-34.979A235.652,235.652,0,0,1,144.318,332.3c.15-.272-.286-.463-.436-.2-4.927,8.1-9.922,16.183-14.06,24.716a131.476,131.476,0,0,0-5.893,14.672,225.937,225.937,0,0,1,7.949-31.3c0-.082-.109-.15-.136-.068a107.045,107.045,0,0,0-8.248,32.665h0q-1.511,4.532-2.8,9.16c-3.675,13.039-6.9,26.2-9.881,39.47a140.324,140.324,0,0,1,2.246-25.86c0-.2-.259-.245-.313,0A82.084,82.084,0,0,0,110.5,422.86q-1.688,7.527-3.307,15.094c-2.287,10.739-5.1,21.681-6.438,32.583a.22.22,0,1,0,.436.068c1.592-5.88,2.559-11.977,3.865-17.925s2.722-11.936,4.083-17.884c2.014-8.67,4.083-17.312,6.3-25.955,1.443-3.171,4.233-5.975,6.329-8.629,2.287-2.913,4.587-5.839,6.805-8.792a133.86,133.86,0,0,0,11.215-17.353C139.853,373.74,139.649,373.659,139.568,373.781Z" transform="translate(-34.618 -257.261)" fill="#263238"/>
        <path id="Path_34153" data-name="Path 34153" d="M133.513,355.382a121.131,121.131,0,0,0-13.243,21.055c0,.1.1.191.163.1,4.451-6.982,8.833-14.032,13.284-21.028C133.8,355.382,133.608,355.273,133.513,355.382Z" transform="translate(-27.569 -248.825)" fill="#263238"/>
        <path id="Path_34154" data-name="Path 34154" d="M58.911,347.071c3.022,5.2,6.465,11.446,5.172,17.693-.817,3.947-3.716,7.159-4.233,11.188-1.17,8.9,7.69,14.781,14.114,18.987C89.97,405.446,111.91,414.8,114.8,436.232c.109.762,1.361.572,1.361-.163a.586.586,0,0,0,0-.15s.082,0,.082-.123a82.384,82.384,0,0,0-.327-32.747c-2.4-11.052-7.214-20.974-12.9-30.691-9.65-16.428-19.844-33.25-34.407-45.853-4.083-3.484-12.249-9.745-15.489-1.892C50,332.276,55.209,340.728,58.911,347.071Z" transform="translate(-52.16 -261.283)" fill="#e27e2b"/>
        <path id="Path_34155" data-name="Path 34155" d="M67.93,371.74c10.616,11.487,27.479,17.925,36.612,30.787-5.444-19.721-14.373-37.456-28.133-52.849a.414.414,0,0,1,.585-.585,104.364,104.364,0,0,1,22.988,33.291,148.831,148.831,0,0,0-9.908-25.315.274.274,0,0,1,.476-.272,96.539,96.539,0,0,1,10.671,28.459c12.032,29.126,13.148,63.288,10.63,93.993,0,.436-.708.449-.694,0,.694-24.2.3-48.807-5.444-72.434-.122-.5-.259-.98-.381-1.484C95.4,391.488,78.6,385.064,67.808,371.917,67.644,371.794,67.821,371.617,67.93,371.74Z" transform="translate(-46.534 -251.123)" fill="#263238"/>
        <path id="Path_34156" data-name="Path 34156" d="M66.172,358.466c5.58,5.1,11.052,10.33,16.632,15.448,0,0,0,.15-.082.1a80.845,80.845,0,0,1-16.877-15.216.231.231,0,0,1,.327-.327Z" transform="translate(-47.24 -247.716)" fill="#263238"/>
        <path id="Path_34157" data-name="Path 34157" d="M65.509,342.2a174.851,174.851,0,0,0,16.659,22.879c.082.1,0,.218-.136.136A80.641,80.641,0,0,1,65.21,342.326a.177.177,0,0,1,.3-.122Z" transform="translate(-47.448 -253.584)" fill="#263238"/>
        <path id="Path_34158" data-name="Path 34158" d="M83.85,478.009h48.78l-6.574-65.629H91.363Z" transform="translate(-40.718 -228.23)" fill="#455a64"/>
        <path id="Path_34159" data-name="Path 34159" d="M88.47,423.051h36.993l-1.075-10.671H89.695Z" transform="translate(-39.05 -228.23)" fill="#263238"/>
        <rect id="Rectangle_8855" data-name="Rectangle 8855" width="45.731" height="10.48" transform="translate(90.387 187.362) rotate(180)" fill="#455a64"/>
      </g>
      <g id="freepik--speech-bubble--inject-3" transform="translate(523.717 73.058)">
        <path id="Path_34160" data-name="Path 34160" d="M463.772,97.047a29.684,29.684,0,0,1-49.61,18.8L399.3,118.02l7.431-12.848a29.7,29.7,0,1,1,57.041-8.166Z" transform="translate(-398.361 -63.937)" fill="#fff"/>
        <path id="Path_34161" data-name="Path 34161" d="M464.021,97.133a29.943,29.943,0,0,1-5.989,15.067,27.315,27.315,0,0,1-5.825,5.744,29.084,29.084,0,0,1-7.159,3.988,29.467,29.467,0,0,1-8,1.905,27.821,27.821,0,0,1-4.083.082,26.146,26.146,0,0,1-4.083-.422,30.052,30.052,0,0,1-14.7-7.254l.354.109L399.7,118.624l-1.089.163.558-.939,7.39-12.875v.5a30.025,30.025,0,0,1,1.715-26.513,30.392,30.392,0,0,1,9.31-9.895A29.943,29.943,0,0,1,430.254,64.3a29.988,29.988,0,0,1,33.767,32.828Zm0,0A29.412,29.412,0,0,0,418.1,69.844a30.406,30.406,0,0,0-8.888,9.691,29.194,29.194,0,0,0-3.77,12.562,29.6,29.6,0,0,0,2.082,12.943l.109.272-.136.231-7.486,12.821-.531-.776,14.876-2.082h.2l.15.136a29.276,29.276,0,0,0,14.223,7.322,26.484,26.484,0,0,0,4.083.49,28.691,28.691,0,0,0,11.991-1.756,27.9,27.9,0,0,0,7.173-3.865,33.5,33.5,0,0,0,3.13-2.613,31.881,31.881,0,0,0,2.722-3.062,29.766,29.766,0,0,0,5.989-15.026Z" transform="translate(-398.61 -64.023)" fill="#263238"/>
        <path id="Path_34162" data-name="Path 34162" d="M425.785,107.466,413.1,94.617l4.26-4.206,7.4,7.5L440.157,73.78l5.049,3.226Z" transform="translate(-393.379 -60.501)" fill="#e27e2b"/>
      </g>
    </g>
  </g>
</svg>
