<svg xmlns="http://www.w3.org/2000/svg" width="34" height="33.995" viewBox="0 0 34 33.995">
  <g id="parents_1_" data-name="parents (1)" transform="translate(0 -0.043)">
    <path id="Path_28728" data-name="Path 28728" d="M270.423,24.094h-3.007a.83.83,0,0,1-.827-.827l-.414-7.012s-.669-5.808,2.8-6.571c0,0,1.412-2.748,5.934-1.867a1.754,1.754,0,0,1,.181.053,6.9,6.9,0,0,1,4.133,3.523c1.09,2.2.734,3.832.3,11.875a.83.83,0,0,1-.827.827h-3.2" transform="translate(-248.999 -7.077)" fill="#4c4846"/>
    <path id="Path_28729" data-name="Path 28729" d="M270.941,24.089v-.984a5.2,5.2,0,0,1-3.117-4.544c-.006-.144-.007-3.132,0-3.187-.031-1.652.225-5.118,2.853-5.7a4.373,4.373,0,0,1,3.41-1.993,5.28,5.28,0,0,0-4.825,1.584,2.555,2.555,0,0,0-.285.408c-2.366.52-2.924,3.44-2.849,5.851,0,.01.459,7.724.459,7.732a.83.83,0,0,0,.827.827Z" transform="translate(-248.62 -7.073)" fill="#3f3b39"/>
    <path id="Path_28730" data-name="Path 28730" d="M22.707,246.514l.967-8.637c.236-1.641.1-2.624.881-3.574a3.56,3.56,0,0,0-.806-.7l-.025-.006a12.217,12.217,0,0,0-3.1-.951h0l-1.591-.762h0v-1.9a5.213,5.213,0,0,1-4.15.011h0l-.007,1.9h0l-1.584.754h0a12.221,12.221,0,0,0-3.1.951l-.025.006a3.305,3.305,0,0,0-.973.924c-.561.838-.488,1.327-1.043,6.29h0c-.651,5.911-.657,5.666-.65,6.067v0a1.84,1.84,0,0,0,1.9,1.94h0c.109,0,15.055,0,15.147,0A1.888,1.888,0,0,1,22.707,246.514Z" transform="translate(-6.987 -215.3)" fill="#edae6b"/>
    <g id="Group_16982" data-name="Group 16982" transform="translate(0.516 14.695)">
      <path id="Path_28731" data-name="Path 28731" d="M9.242,288.469l.637-5.7c.569-5.725.457-6.169,1.043-7.045a2.957,2.957,0,0,1,.657-.7,4.619,4.619,0,0,0-1.375.522l-.025.006a3.058,3.058,0,0,0-1.486,2.475L7.527,288.469a3.729,3.729,0,0,0-.013.374,1.84,1.84,0,0,0,1.9,1.94h1.716A1.892,1.892,0,0,1,9.242,288.469Z" transform="translate(-7.514 -271.95)" fill="#dd9a5e"/>
      <path id="Path_28732" data-name="Path 28732" d="M116.677,233.663v-3.109a5.079,5.079,0,0,1-1.709-.412l-.007,1.9h0Z" transform="translate(-107.586 -230.142)" fill="#dd9a5e"/>
    </g>
    <path id="Path_28733" data-name="Path 28733" d="M246.55,238.883a3.067,3.067,0,0,0-1.486-2.475l-.025-.006c-.882-.528-1.523-.507-4.5-1.3a.45.45,0,0,1-.192-.413V233A5.214,5.214,0,0,1,236.2,233v1.694a.45.45,0,0,1-.192.413c-2.955.787-3.613.769-4.5,1.3l-.025.006A3.067,3.067,0,0,0,230,238.883c-1.224,11.032-1.188,10.4-1.181,10.807a1.833,1.833,0,0,0,1.9,1.942h15.1a1.835,1.835,0,0,0,1.9-1.942C247.738,249.284,247.769,249.873,246.55,238.883Z" transform="translate(-214.253 -218.105)" fill="#edae6b"/>
    <path id="Path_28734" data-name="Path 28734" d="M230.551,287.869c-.007-.4-.029.118,1.181-11.425a3.06,3.06,0,0,1,1.457-2.456,5.594,5.594,0,0,0-1.662.593l-.025.006a3.067,3.067,0,0,0-1.486,2.475c-1.224,11.1-1.181,10.271-1.181,10.809a1.84,1.84,0,0,0,1.9,1.94h1.716A1.834,1.834,0,0,1,230.551,287.869Z" transform="translate(-213.711 -256.284)" fill="#dd9a5e"/>
    <path id="Path_28735" data-name="Path 28735" d="M255.93,243.622c-.551-4.888-.527-4.832-.614-5.255a2.98,2.98,0,0,0-1.4-1.958l-.025-.006c-.882-.528-1.523-.507-4.5-1.3a.45.45,0,0,1-.192-.413V233h0V233a5.167,5.167,0,0,1-4.15,0V233h0v1.685a.45.45,0,0,1-.192.413c-2.955.787-3.613.769-4.5,1.3l-.025.006a3.074,3.074,0,0,0-1.486,2.475l-.53,4.738,3.342.351a.337.337,0,0,1,.3.352l-.367,7.309h11.079l-.385-7.281a.365.365,0,0,1,.327-.383Z" transform="translate(-223.103 -218.105)" fill="#e27e2b"/>
    <path id="Path_28736" data-name="Path 28736" d="M238.317,281.8l1.662.174c.591-5.475.555-5.5.668-6.047a2.968,2.968,0,0,1,1.373-1.94,5.762,5.762,0,0,0-1.662.593l-.025.006a2.977,2.977,0,0,0-1.4,1.958C238.824,277.066,238.844,277.18,238.317,281.8Z" transform="translate(-222.554 -255.934)" fill="#d2670e"/>
    <path id="Path_28737" data-name="Path 28737" d="M32.573,259.4l-.025-.006a12.168,12.168,0,0,0-3.088-.948v0l-1.591-.762-.012.017s0,0,0-.006l-2.075,1.954-2.069-1.957-1.584.754h0a12.223,12.223,0,0,0-3.1.951l-.025.006a3.047,3.047,0,0,0-1.486,2.475l-.53,4.74,3.279.344a.391.391,0,0,1,.35.409l-.365,7.257H31.333l-.385-7.28a.366.366,0,0,1,.328-.384l.876-.092.358-3.2c.239-1.685.1-2.62.875-3.566A4.718,4.718,0,0,0,32.573,259.4Z" transform="translate(-15.824 -241.092)" fill="#00a3b1"/>
    <path id="Path_28738" data-name="Path 28738" d="M18.708,282.771c.587-5.914.442-6.329,1.2-7.262a3.02,3.02,0,0,1,.5-.48,4.625,4.625,0,0,0-1.375.522l-.025.006a3.127,3.127,0,0,0-1.091,1.118c-.489.876-.341,1.422-.925,6.1l1.7.178Z" transform="translate(-15.825 -256.903)" fill="#048c98"/>
    <path id="Path_28739" data-name="Path 28739" d="M320.248,232.66l-1.4-.348a.45.45,0,0,1-.192-.413v-1.891h0V230a5.167,5.167,0,0,1-4.15,0v.009h0V231.9a.45.45,0,0,1-.192.413l-1.42.354A4.213,4.213,0,0,0,320.248,232.66Z" transform="translate(-292.301 -214.766)" fill="#edae6b"/>
    <path id="SVGCleanerId_0" d="M50.344,15.812c0-1.894,0-1.818.006-2.069A6.506,6.506,0,0,1,60.567,8.687c2.835,1.979,2.783,4.43,2.785,7.125" transform="translate(-46.888 -6.954)" fill="#4c4846"/>
    <g id="Group_16983" data-name="Group 16983" transform="translate(3.456 0.556)">
      <path id="SVGCleanerId_0_1_" d="M50.344,15.812c0-1.894,0-1.818.006-2.069A6.506,6.506,0,0,1,60.567,8.687c2.835,1.979,2.783,4.43,2.785,7.125" transform="translate(-50.344 -7.51)" fill="#4c4846"/>
    </g>
    <path id="Path_28740" data-name="Path 28740" d="M57.5,7.673a6.5,6.5,0,0,0-7.148,6.245c-.008.235,0,.181,0,2.015h1.3V14.145A6.506,6.506,0,0,1,57.5,7.673Z" transform="translate(-46.889 -7.076)" fill="#3f3b39"/>
    <g id="Group_16984" data-name="Group 16984" transform="translate(3.132 7.799)">
      <path id="Path_28741" data-name="Path 28741" d="M222.594,118.523a1.507,1.507,0,0,1-1.621,1.357v-2.714A1.506,1.506,0,0,1,222.594,118.523Z" transform="translate(-208.938 -117.166)" fill="#dd9a5e"/>
      <path id="Path_28742" data-name="Path 28742" d="M45.631,118.523a1.507,1.507,0,0,0,1.621,1.357v-2.714A1.506,1.506,0,0,0,45.631,118.523Z" transform="translate(-45.631 -117.166)" fill="#dd9a5e"/>
    </g>
    <g id="Group_16985" data-name="Group 16985" transform="translate(3.131 8.527)">
      <path id="Path_28743" data-name="Path 28743" d="M220.973,128.8v1.22c1.216,0,1.985-1.075,1.448-1.967A1.676,1.676,0,0,1,220.973,128.8Z" transform="translate(-208.937 -128.052)" fill="#d38d54"/>
      <path id="Path_28744" data-name="Path 28744" d="M45.789,128.052c-.538.893.234,1.967,1.448,1.967V128.8A1.676,1.676,0,0,1,45.789,128.052Z" transform="translate(-45.615 -128.052)" fill="#d38d54"/>
    </g>
    <path id="Path_28745" data-name="Path 28745" d="M79.083,81.125a2.156,2.156,0,0,1-.712-1.6.744.744,0,0,0-.9-.735c-.376.058-.764.107-1.143.144a20.1,20.1,0,0,1-5.113-.149.743.743,0,0,0-.86.741,2.321,2.321,0,0,1-.331,1.157,1.965,1.965,0,0,1-.869.752c0,3.269-.065,3.712.221,4.661A5.208,5.208,0,0,0,79.553,85c.024-.3.017-.173.017-3.571A1.7,1.7,0,0,1,79.083,81.125Z" transform="translate(-64.403 -73.58)" fill="#edae6b"/>
    <path id="Path_28746" data-name="Path 28746" d="M71.137,87.089c-.052-.141-.119-.35-.176-.57-.268-1.047-.186-1.654-.188-4.466,0-.506.341-.537.682-.959a2.521,2.521,0,0,0,.519-1.552.8.8,0,0,1,.306-.619c-.373-.037-.755-.086-1.135-.145a.742.742,0,0,0-.859.709,2.227,2.227,0,0,1-.543,1.468,1.9,1.9,0,0,1-.659.473c0,3.241-.138,4.1.539,5.464a5.123,5.123,0,0,0,.86,1.242h0a5.2,5.2,0,0,0,2.528,1.5A8.236,8.236,0,0,1,71.137,87.089Z" transform="translate(-64.332 -73.577)" fill="#dd9a5e"/>
    <path id="Path_28747" data-name="Path 28747" d="M147.2,257.678l-2.087,1.965,1.127,1.135a.507.507,0,0,0,.76-.045l1.792-2.294Z" transform="translate(-135.51 -240.585)" fill="#dadada"/>
    <g id="Group_16986" data-name="Group 16986" transform="translate(9.607 17.093)">
      <path id="Path_28748" data-name="Path 28748" d="M148,258.062l-.8-.384-2.087,1.965.746.751Z" transform="translate(-145.109 -257.678)" fill="#ceccca"/>
      <path id="Path_28749" data-name="Path 28749" d="M163.758,304.388a.508.508,0,0,0,.3.036Z" transform="translate(-162.478 -301.182)" fill="#ceccca"/>
    </g>
    <path id="Path_28750" data-name="Path 28750" d="M93.125,257.793l2.069,1.957-1.127,1.135a.507.507,0,0,1-.76-.045l-1.792-2.294Z" transform="translate(-85.462 -240.692)" fill="#dadada"/>
    <path id="Path_28751" data-name="Path 28751" d="M104.061,259.743l.713.759.746-.751-2.069-1.957-.848.4Z" transform="translate(-95.809 -240.681)" fill="#ceccca"/>
    <path id="Path_28752" data-name="Path 28752" d="M316.229,232.947V230.42A5.137,5.137,0,0,1,314.5,230c-.052,1.5.136,2.165-.192,2.313l-1.42.354a4.508,4.508,0,0,0,1.4,1.467l1.474-.542S316.229,233.359,316.229,232.947Z" transform="translate(-292.187 -214.754)" fill="#dd9a5e"/>
    <path id="Path_28753" data-name="Path 28753" d="M300.457,94.818a.549.549,0,0,1,.524.548v.394h0a5.5,5.5,0,0,1-1.879,4.766,5.216,5.216,0,0,1-7.76-1.268c-1.02-1.649-.772-3.1-.776-5.378h0v-.264a.647.647,0,0,1,.516-.632,4.168,4.168,0,0,0,2.171-1.248.475.475,0,0,1,.712.023A8.792,8.792,0,0,0,300.457,94.818Z" transform="translate(-271.742 -85.548)" fill="#edae6b"/>
    <path id="Path_28754" data-name="Path 28754" d="M292.379,109.313c-.006-.16,0,.205,0-4.212a4.042,4.042,0,0,1-1.2.47.647.647,0,0,0-.516.632v.264c0,2.485-.21,3.784.776,5.378a5.206,5.206,0,0,0,5.289,2.4A5.209,5.209,0,0,1,292.379,109.313Z" transform="translate(-271.477 -98.164)" fill="#dd9a5e"/>
    <g id="Group_16987" data-name="Group 16987" transform="translate(19.584 17.817)">
      <path id="Path_28755" data-name="Path 28755" d="M371.116,269.026l-1-.25a4.289,4.289,0,0,1-3.678,2.159S371.137,275.639,371.116,269.026Z" transform="translate(-361.774 -268.776)" fill="#d2670e"/>
      <path id="Path_28756" data-name="Path 28756" d="M298.542,269.026l1-.25a4.289,4.289,0,0,0,3.678,2.159S298.521,275.639,298.542,269.026Z" transform="translate(-298.542 -268.776)" fill="#d2670e"/>
    </g>
    <g id="Group_16988" data-name="Group 16988" transform="translate(19.632 19.131)">
      <path id="Path_28757" data-name="Path 28757" d="M301.62,288.377c-.83.442-1.786.653-2.4-.167.487,4.974,4.635.825,4.635.825A4.132,4.132,0,0,1,301.62,288.377Z" transform="translate(-299.222 -288.21)" fill="#e27e2b"/>
      <path id="Path_28758" data-name="Path 28758" d="M368.673,288.377c.83.442,1.786.653,2.4-.167-.487,4.974-4.635.825-4.635.825A4.133,4.133,0,0,0,368.673,288.377Z" transform="translate(-361.823 -288.21)" fill="#e27e2b"/>
    </g>
    <path id="Path_28759" data-name="Path 28759" d="M2.342,34.038H6.363a.5.5,0,0,0,0-1H4.824l.494-9.34a.5.5,0,1,0-.995-.053l-.1,1.964-2.54-.266.027-.245c.51-4.471.329-4.862,1.478-5.759a8.5,8.5,0,0,1,2.7-.893l1.531,1.96A.989.989,0,0,0,8.9,20.5l.239-.241v2.41a.5.5,0,0,0,1,0v-2.41a1.272,1.272,0,0,0,1,.531.989.989,0,0,0,.721-.378l1.533-1.962c1.332.369,2.181.393,2.962,1.093-.606.992-.461,1.7-1,6.042l-.25.026-.1-1.96A.5.5,0,1,0,14,23.7c.05.97.429,8.319.481,9.34H8.687a.5.5,0,1,0,0,1H21.131a.5.5,0,1,0,0-1h-1.61l.494-9.34a.5.5,0,1,0-.995-.053l-.1,1.963-2.539-.266c.487-4.336.429-4.837,1-5.536a3.445,3.445,0,0,1,1.965-1.05c.078,1.6.545,3.28,2.15,3.28a5.02,5.02,0,0,0,2.853-1.379c2.614,2.267,4.822,1.82,5-1.9a4.3,4.3,0,0,1,1.287.472,2.361,2.361,0,0,1,1.19,1.8c.049.311.008.038.49,4.317l-2.52.264-.1-1.961a.5.5,0,0,0-.995.053l.494,9.34H23.455a.5.5,0,0,0,0,1h8.2a2.326,2.326,0,0,0,2.325-2.792l-.853-7.625c-.294-2.594-.26-3.3-.849-4.183-1.072-1.614-2.8-1.6-5.424-2.325v-.153h2.986a1.3,1.3,0,0,0,1.3-1.282l.394-6.669a.5.5,0,0,0-.994-.059c-.411,6.963-.4,6.681-.4,6.711a.307.307,0,0,1-.3.3H26.851v-.129a5.64,5.64,0,0,0,2.94-3.9,10.459,10.459,0,0,0,.1-2.164,1.028,1.028,0,0,0-.982-1.028,8.041,8.041,0,0,1-5.92-2.778.957.957,0,0,0-1.436-.046,3.52,3.52,0,0,1-1.84,1.061,1.13,1.13,0,0,0-.894,1.1c0,2.956,0,2.8,0,3.031v0a5.456,5.456,0,0,0,.587,2.275,5.681,5.681,0,0,0,2.43,2.442v.139H18.924a.307.307,0,0,1-.3-.3c0-.029.017.273-.4-6.813,0-.009,0-.018,0-.027-.006-.052-.556-5.182,2.324-5.815a.49.49,0,0,0,.334-.255c.051-.095,1.283-2.312,5.2-1.549.014,0,.044.013.071.021a6.113,6.113,0,0,1,4.373,5.468.5.5,0,1,0,.994-.069A7.145,7.145,0,0,0,26.6.319a2.963,2.963,0,0,0-.326-.1c-3.087-.6-5.185.436-6.153,1.862-1.469.417-2.432,1.728-2.79,3.8a11.953,11.953,0,0,0-.1,3.029l.4,6.758a1.3,1.3,0,0,0,1.3,1.282H21.84v.154c-3.184.793-3.924.854-4.844,1.664-1.006-.883-1.9-.89-3.631-1.363l-1.211-.58V15.823a5.541,5.541,0,0,0,3.019-4.931v0a1.757,1.757,0,0,0,1.254-2.715,9.444,9.444,0,0,0-.244-3.144A6.791,6.791,0,0,0,2.853,6.543c0,.009-.007.148-.007.294,0,.29,0,1.309,0,1.336a1.64,1.64,0,0,0-.313.957A1.878,1.878,0,0,0,4.1,10.887a5.5,5.5,0,0,0,3.006,4.93l.037-.074v.015l-.03.062.03.015v.988l-1.261.6c-1.993.5-2.745.575-3.649,1.409a3.439,3.439,0,0,0-1.087,2.314C-.028,31.78-.006,31.168,0,31.66A2.268,2.268,0,0,0,2.342,34.038Zm30.267-1.348c-.528.535-1.246.289-2.421.352l-.34-6.435,2.578-.27c.607,5.525.561,4.8.571,5.337A1.473,1.473,0,0,1,32.609,32.689ZM25.855,16.221v.926a.873.873,0,0,0,.564.883l.645.161a3.523,3.523,0,0,1-5.437,0,6.737,6.737,0,0,0,.731-.19.912.912,0,0,0,.478-.854v-.932A5.558,5.558,0,0,0,25.855,16.221Zm-4.681,4.765c-.508-.211-.8-1.083-.846-2.471l.225-.056a4.667,4.667,0,0,0,2.614,1.86C22.507,20.79,21.692,21.2,21.175,20.986Zm6.341,0c-.579.242-1.49-.3-2-.671a4.68,4.68,0,0,0,2.6-1.861l.243.06C28.32,19.9,28.024,20.774,27.516,20.986Zm-6.967-7.619a4.448,4.448,0,0,1-.733-2.474V8.081a.128.128,0,0,1,.1-.124,4.506,4.506,0,0,0,2.33-1.322,9.05,9.05,0,0,0,6.614,3.106.033.033,0,0,1,.032.033,7.667,7.667,0,0,1-.193,2.431,4.578,4.578,0,0,1-2.271,2.725l-.043.021a1.313,1.313,0,0,1-.236.1,4.758,4.758,0,0,1-1.8.378A4.559,4.559,0,0,1,20.548,13.366Zm-9.4,2.852v.725L9.637,18.365l-1.5-1.41v-.733A5.549,5.549,0,0,0,11.146,16.219ZM8.2,19.791,6.858,18.075l.674-.323,1.391,1.309Zm2.876,0-.724-.73,1.4-1.317.673.322Zm4.16,6.805-.058.514-.027-.505Zm3.611.01-.323,6.435A9.836,9.836,0,0,1,16.657,33a1.282,1.282,0,0,1-.962-1.306c0-.482-.019.048.571-5.358ZM15.173,9.848V8.412A.737.737,0,0,1,15.173,9.848ZM5.308,2.984h0a5.791,5.791,0,0,1,8.77.13,6.105,6.105,0,0,1,1.354,4.331,2.3,2.3,0,0,0-.689-.125,1.547,1.547,0,0,1-.731-1.347,1.221,1.221,0,0,0-.435-.921c-.558-.466-1.045-.232-2.06-.131a19.492,19.492,0,0,1-4.848-.138A1.217,1.217,0,0,0,5.262,5.974,1.5,1.5,0,0,1,4.572,7.3l-.041.025a2.3,2.3,0,0,0-.689.125A6.021,6.021,0,0,1,5.308,2.984ZM4.1,8.412V9.848A.737.737,0,0,1,4.1,8.412Zm1,2.031v-2.3a2.425,2.425,0,0,0,1-1.243,2.962,2.962,0,0,0,.167-.925.22.22,0,0,1,.257-.206,21.475,21.475,0,0,0,3.346.244h.074c4.013-.061,2.641-.88,3.232.848a2.391,2.391,0,0,0,.649,1.007,2.308,2.308,0,0,0,.361.276c0,.092,0,2.657,0,2.75A4.543,4.543,0,0,1,7.561,14.93l-.054.11-.007,0,.055-.114c-.067-.038-.165-.082-.379-.22A4.694,4.694,0,0,1,5.1,10.443Zm-.96,16.164-.323,6.435c-1.178-.064-1.9.183-2.428-.352a1.638,1.638,0,0,1-.378-1.34l.561-5.013Z" transform="translate(0 0)"/>
  </g>
</svg>
