<svg xmlns="http://www.w3.org/2000/svg" width="34" height="33.995" viewBox="0 0 34 33.995">
  <g id="parents" transform="translate(0 -0.043)">
    <g id="Group_16981" data-name="Group 16981" transform="translate(0 0.043)">
      <g id="Group_16980" data-name="Group 16980" transform="translate(0 0)">
        <path id="Path_28726" data-name="Path 28726" d="M283.463,166.667v0h0Z" transform="translate(-264.639 -155.597)" fill="#b4b4b4"/>
        <path id="Path_28727" data-name="Path 28727" d="M33.977,31.246l-.853-7.625c-.294-2.594-.26-3.3-.849-4.183-1.072-1.614-2.8-1.6-5.424-2.325v-.153h2.986a1.3,1.3,0,0,0,1.3-1.282l.394-6.669a.5.5,0,0,0-.994-.059c-.411,6.963-.4,6.681-.4,6.711a.307.307,0,0,1-.3.3H26.851v-.129a5.64,5.64,0,0,0,2.94-3.9,10.459,10.459,0,0,0,.1-2.164,1.028,1.028,0,0,0-.982-1.028,8.041,8.041,0,0,1-5.92-2.778.957.957,0,0,0-1.436-.046,3.52,3.52,0,0,1-1.84,1.061,1.13,1.13,0,0,0-.894,1.1c0,2.942,0,2.8,0,3.028a5.456,5.456,0,0,0,.587,2.273,5.681,5.681,0,0,0,2.43,2.442v.139H18.924a.307.307,0,0,1-.3-.3c0-.029.017.273-.4-6.813,0-.009,0-.018,0-.027-.006-.052-.556-5.182,2.324-5.815a.49.49,0,0,0,.334-.255c.051-.095,1.283-2.312,5.2-1.549.014,0,.044.013.071.021a6.113,6.113,0,0,1,4.373,5.468.5.5,0,0,0,.994-.069A7.145,7.145,0,0,0,26.6.319a2.963,2.963,0,0,0-.326-.1c-3.087-.6-5.185.436-6.153,1.862-1.469.417-2.432,1.727-2.79,3.8a11.953,11.953,0,0,0-.1,3.029l.4,6.758a1.3,1.3,0,0,0,1.3,1.282H21.84v.154c-3.184.793-3.924.854-4.844,1.664-1.006-.883-1.9-.89-3.631-1.363l-1.211-.58V15.823a5.541,5.541,0,0,0,3.019-4.931v0a1.757,1.757,0,0,0,1.254-2.715,9.444,9.444,0,0,0-.244-3.144A6.791,6.791,0,0,0,2.853,6.543c0,.009-.007.148-.007.294,0,.29,0,1.309,0,1.336a1.64,1.64,0,0,0-.313.957A1.878,1.878,0,0,0,4.1,10.887a5.5,5.5,0,0,0,3.006,4.93l.037-.074v.015l-.03.062.03.015v.988l-1.261.6c-1.993.5-2.745.575-3.649,1.409a3.439,3.439,0,0,0-1.087,2.314C-.028,31.78-.006,31.168,0,31.66a2.268,2.268,0,0,0,2.34,2.378H6.363a.5.5,0,1,0,0-1H4.824l.494-9.34a.5.5,0,0,0-.995-.053l-.1,1.964-2.54-.266.027-.245c.51-4.471.329-4.862,1.478-5.759a8.5,8.5,0,0,1,2.7-.893l1.531,1.96A.989.989,0,0,0,8.9,20.5l.239-.241v2.41a.5.5,0,1,0,1,0v-2.41a1.272,1.272,0,0,0,1,.531.989.989,0,0,0,.721-.378l1.533-1.962c1.332.369,2.181.393,2.962,1.093-.606.992-.461,1.7-1,6.042l-.25.026-.1-1.96A.5.5,0,0,0,14,23.7c.05.97.429,8.319.481,9.34H8.687a.5.5,0,1,0,0,1H21.131a.5.5,0,1,0,0-1h-1.61l.494-9.34a.5.5,0,1,0-.995-.053l-.1,1.963-2.539-.266c.487-4.336.429-4.837,1-5.536a3.445,3.445,0,0,1,1.965-1.05c.078,1.6.545,3.28,2.15,3.28a5.019,5.019,0,0,0,2.853-1.379c2.614,2.267,4.822,1.82,5-1.9a4.3,4.3,0,0,1,1.287.472,2.361,2.361,0,0,1,1.19,1.8c.049.311.008.038.49,4.317l-2.52.264-.1-1.961a.5.5,0,1,0-.995.053l.494,9.34H23.455a.5.5,0,1,0,0,1h8.2A2.326,2.326,0,0,0,33.977,31.246ZM4.136,26.606l-.323,6.435c-1.178-.064-1.9.183-2.428-.352a1.638,1.638,0,0,1-.378-1.34l.561-5.013ZM15.173,9.848V8.412A.737.737,0,0,1,15.173,9.848ZM4.1,9.848a.737.737,0,0,1,0-1.436ZM4.572,7.3l-.041.025a2.3,2.3,0,0,0-.689.125A6.021,6.021,0,0,1,5.308,2.984a5.791,5.791,0,0,1,8.77.13,6.105,6.105,0,0,1,1.354,4.331,2.3,2.3,0,0,0-.689-.125,1.547,1.547,0,0,1-.731-1.347,1.221,1.221,0,0,0-.435-.921c-.558-.466-1.045-.232-2.06-.131a19.492,19.492,0,0,1-4.848-.138A1.217,1.217,0,0,0,5.262,5.974,1.5,1.5,0,0,1,4.572,7.3ZM5.1,10.443v-2.3a2.425,2.425,0,0,0,1-1.243,2.962,2.962,0,0,0,.167-.925.22.22,0,0,1,.257-.206,21.474,21.474,0,0,0,3.346.244h.074c4.013-.061,2.641-.88,3.232.848a2.391,2.391,0,0,0,.649,1.007,2.308,2.308,0,0,0,.361.276c0,.092,0,2.657,0,2.75A4.543,4.543,0,0,1,7.56,14.93l-.054.11-.007,0,.055-.114c-.067-.038-.165-.082-.379-.22A4.694,4.694,0,0,1,5.1,10.443Zm3.1,9.348L6.858,18.075l.674-.323,1.391,1.309Zm1.438-1.426-1.5-1.41v-.733a5.551,5.551,0,0,0,3.007,0v.725Zm1.438,1.426-.724-.73,1.4-1.317.673.322Zm7.771,6.816-.323,6.435A9.836,9.836,0,0,1,16.657,33a1.282,1.282,0,0,1-.962-1.306c0-.482-.019.048.571-5.358Zm1.7-13.24a4.448,4.448,0,0,1-.733-2.474V8.081a.128.128,0,0,1,.1-.124,4.507,4.507,0,0,0,2.33-1.322,9.05,9.05,0,0,0,6.614,3.106.033.033,0,0,1,.032.033,7.667,7.667,0,0,1-.193,2.431,4.578,4.578,0,0,1-2.271,2.725l-.043.021a1.313,1.313,0,0,1-.236.1,4.758,4.758,0,0,1-1.8.378A4.56,4.56,0,0,1,20.548,13.366Zm5.878,4.666h0Zm-5.251,2.953c-.508-.211-.8-1.083-.846-2.471l.225-.056a4.667,4.667,0,0,0,2.614,1.86C22.507,20.79,21.692,21.2,21.175,20.986Zm.452-2.794A6.7,6.7,0,0,0,22.358,18a.912.912,0,0,0,.478-.854v-.932a5.558,5.558,0,0,0,3.019.006v.926a.873.873,0,0,0,.564.883l.01,0,.635.158A3.522,3.522,0,0,1,21.627,18.192Zm5.889,2.794c-.579.242-1.49-.3-2-.671a4.68,4.68,0,0,0,2.6-1.861l.243.06C28.32,19.9,28.023,20.774,27.515,20.986Zm5.093,11.7c-.528.535-1.246.289-2.421.352l-.34-6.435,2.578-.27c.607,5.525.561,4.8.571,5.337A1.473,1.473,0,0,1,32.609,32.689Z" transform="translate(0 -0.043)" fill="#b4b4b4"/>
      </g>
    </g>
  </g>
</svg>
