<svg xmlns="http://www.w3.org/2000/svg" width="20" height="20" viewBox="0 0 20 20">
  <g id="pencil" transform="translate(-0.063 0.001)">
    <path id="Path_28212" data-name="Path 28212" d="M.7,20a.636.636,0,0,1-.616-.789l1.194-4.792a.637.637,0,0,1,.167-.3L14.884.681a2.335,2.335,0,0,1,3.3,0l1.2,1.2a2.335,2.335,0,0,1,0,3.3L5.941,18.619a.632.632,0,0,1-.3.167L.852,19.98A.588.588,0,0,1,.7,20Zm1.768-5.1-.9,3.594,3.594-.9L18.482,4.278a1.062,1.062,0,0,0,0-1.5l-1.2-1.2a1.061,1.061,0,0,0-1.5,0Zm3.024,3.274h0Zm0,0" transform="translate(0 0)" fill="#e27e28"/>
    <path id="Path_28213" data-name="Path 28213" d="M320.41,69.369a.632.632,0,0,1-.45-.187l-3.6-3.6a.637.637,0,0,1,.9-.9l3.6,3.6a.636.636,0,0,1-.451,1.086Zm0,0" transform="translate(-303.548 -61.932)" fill="#e27e28"/>
    <path id="Path_28214" data-name="Path 28214" d="M34.33,355.428a.631.631,0,0,1-.45-.187l-3.6-3.6a.637.637,0,0,1,.9-.9l3.6,3.6a.637.637,0,0,1-.451,1.087Zm0,0" transform="translate(-28.836 -336.624)" fill="#e27e28"/>
  </g>
</svg>
