<svg xmlns="http://www.w3.org/2000/svg" width="50" height="50" viewBox="0 0 50 50">
  <g id="Group_18994" data-name="Group 18994" transform="translate(149 -150)">
    <circle id="Ellipse_929" data-name="Ellipse 929" cx="25" cy="25" r="25" transform="translate(-149 150)" fill="#acffc8"/>
    <g id="Group_19001" data-name="Group 19001" transform="translate(-21663 -12924)">
      <g id="Rectangle_7779" data-name="Rectangle 7779" transform="translate(21523 13083)" fill="#e27e28" stroke="#707070" stroke-width="1" opacity="0">
        <rect width="32" height="32" stroke="none"/>
        <rect x="0.5" y="0.5" width="31" height="31" fill="none"/>
      </g>
      <g id="share" transform="translate(21523 13083)">
        <path id="Path_23677" data-name="Path 23677" d="M4.667,25.333h-4A.667.667,0,0,1,0,24.667v-12A.667.667,0,0,1,.667,12,13.55,13.55,0,0,1,7.7,13.593a.669.669,0,0,1,.283.723L5.313,24.831a.667.667,0,0,1-.647.5ZM1.333,24H4.148L6.56,14.493a13.376,13.376,0,0,0-5.227-1.148Z" transform="translate(0 4)" fill="#e27e28"/>
        <path id="Path_23678" data-name="Path 23678" d="M16.24,26.167c-3.147,0-9.231-2.645-12.579-4.224a.667.667,0,1,1,.569-1.205c2.613,1.232,9.013,4.1,12.009,4.1,3.243,0,10.887-3.809,13.085-4.941a2.875,2.875,0,0,0-2.419-1.059,16.027,16.027,0,0,0-4.3.969,16.92,16.92,0,0,1-4.7,1.031,23.6,23.6,0,0,1-6.561-1.373.667.667,0,0,1,.456-1.253A22.649,22.649,0,0,0,17.907,19.5a16.027,16.027,0,0,0,4.3-.969,16.92,16.92,0,0,1,4.7-1.031,3.968,3.968,0,0,1,3.965,2.456.668.668,0,0,1-.319.8c-.415.219-10.195,5.411-14.313,5.411Z" transform="translate(1.093 5.833)" fill="#e27e28"/>
        <path id="Path_23679" data-name="Path 23679" d="M20.394,21.513a.667.667,0,0,1-.667-.667v-.667A1.972,1.972,0,0,0,18.2,18.243L5.33,15.135a.667.667,0,0,1-.492-.805.676.676,0,0,1,.8-.492l12.867,3.107a3.3,3.3,0,0,1,2.552,3.235v.667A.667.667,0,0,1,20.394,21.513Z" transform="translate(1.606 4.607)" fill="#e27e28"/>
        <g id="Group_15746" data-name="Group 15746" transform="translate(14.667)">
          <path id="Path_23680" data-name="Path 23680" d="M19.667,28.333a8.667,8.667,0,1,1,8.667-8.667A8.677,8.677,0,0,1,19.667,28.333Zm0-16A7.333,7.333,0,1,0,27,19.667,7.342,7.342,0,0,0,19.667,12.333Z" transform="translate(-11 -11)" fill="#e27e28"/>
          <path id="Union_28" data-name="Union 28" d="M4.2,8.152l-4-3.2a.528.528,0,0,1-.174-.59A.534.534,0,0,1,.536,4h2a1.446,1.446,0,0,0,1.124-.535H.536a.533.533,0,1,1,0-1.066H3.995A1.466,1.466,0,0,0,2.534,1.068h-2A.534.534,0,1,1,.536,0h5.6a.534.534,0,1,1,0,1.068H4.588A2.466,2.466,0,0,1,5.061,2.4H6.134a.533.533,0,1,1,0,1.066H4.879a2.536,2.536,0,0,1-2.346,1.6H2.056L4.865,7.318a.533.533,0,0,1,.085.748.526.526,0,0,1-.417.2A.521.521,0,0,1,4.2,8.152Z" transform="translate(5.333 4.531)" fill="#e27e28"/>
        </g>
      </g>
    </g>
  </g>
</svg>
