<svg xmlns="http://www.w3.org/2000/svg" width="96" height="96" viewBox="0 0 96 96">
  <g id="personal_loan" transform="translate(-10482.851 -13931.849)">
    <g id="Rectangle_6957" data-name="Rectangle 6957" transform="translate(10482.851 13931.849)" fill="#e27e28" stroke="#707070" stroke-width="1" opacity="0">
      <rect width="96" height="96" stroke="none"/>
      <rect x="0.5" y="0.5" width="95" height="95" fill="none"/>
    </g>
    <g id="share" transform="translate(10483.05 13932.05)">
      <path id="Path_17093" data-name="Path 17093" d="M13.942,51.834H1.992A1.992,1.992,0,0,1,0,49.842V13.992A1.992,1.992,0,0,1,1.992,12c13.548,0,20.706,4.565,21,4.76a2,2,0,0,1,.844,2.159L15.874,50.332a1.994,1.994,0,0,1-1.932,1.5ZM3.983,47.851h8.409l7.206-28.4a39.962,39.962,0,0,0-15.615-3.43Z" transform="translate(0 35.801)" fill="#e27e28"/>
      <path id="Path_17094" data-name="Path 17094" d="M42,43.392c-9.4,0-27.577-7.9-37.579-12.619a1.991,1.991,0,1,1,1.7-3.6C13.929,30.852,33.05,39.409,42,39.409c9.688,0,32.525-11.381,39.093-14.763-1.036-1.354-3.175-3.163-7.226-3.163-3.677,0-8.337,1.47-12.846,2.9-4.792,1.51-9.751,3.079-14.042,3.079-8.222,0-19.14-3.936-19.6-4.1a1.992,1.992,0,1,1,1.362-3.744c.1.04,10.723,3.864,18.24,3.864,3.677,0,8.337-1.47,12.846-2.9,4.792-1.51,9.751-3.079,14.042-3.079,9.293,0,11.747,7.039,11.847,7.337a2,2,0,0,1-.952,2.39C83.523,27.881,54.305,43.392,42,43.392Z" transform="translate(9.784 52.21)" fill="#e27e28"/>
      <path id="Path_17095" data-name="Path 17095" d="M51.35,36.8a1.992,1.992,0,0,1-1.992-1.992V32.815A5.892,5.892,0,0,0,44.8,27.031L6.345,17.746a1.992,1.992,0,0,1-1.47-2.406,2.018,2.018,0,0,1,2.4-1.47l38.44,9.281a9.866,9.866,0,0,1,7.624,9.664v1.992A1.992,1.992,0,0,1,51.35,36.8Z" transform="translate(14.377 41.237)" fill="#e27e28"/>
      <g id="Group_14540" data-name="Group 14540" transform="translate(43.817)">
        <path id="Path_17044" data-name="Path 17044" d="M36.892,62.784A25.892,25.892,0,1,1,62.784,36.892,25.922,25.922,0,0,1,36.892,62.784Zm0-47.8A21.909,21.909,0,1,0,58.8,36.892,21.935,21.935,0,0,0,36.892,14.983Z" transform="translate(-11 -11)" fill="#e27e28"/>
        <path id="Union_18" data-name="Union 18" d="M12.55,24.356.608,14.786a1.577,1.577,0,0,1-.519-1.762A1.6,1.6,0,0,1,1.6,11.962H7.57a4.319,4.319,0,0,0,3.358-1.6H1.6a1.593,1.593,0,1,1,0-3.186H11.934A4.38,4.38,0,0,0,7.57,3.192H1.6A1.6,1.6,0,1,1,1.6,0H18.327a1.6,1.6,0,1,1,0,3.192H13.708A7.366,7.366,0,0,1,15.12,7.177h3.206a1.593,1.593,0,1,1,0,3.186H14.578A7.578,7.578,0,0,1,7.57,15.136H6.143l8.391,6.728a1.593,1.593,0,0,1,.254,2.235,1.571,1.571,0,0,1-1.246.6A1.555,1.555,0,0,1,12.55,24.356Z" transform="translate(15.932 13.535)" fill="#e27e28"/>
      </g>
    </g>
  </g>
</svg>
