<svg id="personal_accident" xmlns="http://www.w3.org/2000/svg" width="96" height="96" viewBox="0 0 96 96">
  <g id="ICONS">
    <g id="personal_accident-2" data-name="personal_accident">
      <rect id="Rectangle_8189" data-name="Rectangle 8189" width="96" height="95.989" fill="none"/>
      <path id="Path_26896" data-name="Path 26896" d="M48,48A24,24,0,1,1,72,24,24,24,0,0,1,48,48ZM48,4A20,20,0,1,0,68,24,20,20,0,0,0,48,4Z" fill="#e27e28"/>
      <path id="Path_26897" data-name="Path 26897" d="M27.93,24h-1a2,2,0,1,1,.14-4c.17,0,17.76.48,23.31-7.17A2,2,0,0,1,51.91,12a2.2,2.2,0,0,1,1.59.68C53.57,12.75,60.06,20,69,20h0a2,2,0,0,1,0,4c-8,0-14.1-4.57-16.87-7.08C45.34,23.53,31.76,24,27.93,24Z" fill="#e27e28"/>
      <path id="Path_26898" data-name="Path 26898" d="M82,96H14a6,6,0,0,1-6-6V74A18,18,0,0,1,26,56H70A18,18,0,0,1,88,74V90A6,6,0,0,1,82,96ZM26,60A14,14,0,0,0,12,74V90a2,2,0,0,0,2,2H82a2,2,0,0,0,2-2V74A14,14,0,0,0,70,60Z" transform="translate(0 -0.011)" fill="#e27e28"/>
      <path id="Path_26899" data-name="Path 26899" d="M58,96H30a2,2,0,0,1,0-4H55.86A14,14,0,0,0,42,80H22a2,2,0,0,1,0-4H42A18,18,0,0,1,60,94,2,2,0,0,1,58,96Z" transform="translate(0 -0.011)" fill="#e27e28"/>
      <path id="Path_26900" data-name="Path 26900" d="M32,96a2,2,0,0,1-1.95-1.57l-8-36A2.022,2.022,0,0,1,26,57.56l8,36A2,2,0,0,1,32.44,96,2.28,2.28,0,0,1,32,96Z" transform="translate(0 -0.011)" fill="#e27e28"/>
      <path id="Path_26901" data-name="Path 26901" d="M46,80a1.871,1.871,0,0,1-.4,0A2,2,0,0,1,44,77.61l4-20a2,2,0,0,1,3.92.78l-4,20A2,2,0,0,1,46,80Z" transform="translate(0 -0.008)" fill="#e27e28"/>
    </g>
  </g>
</svg>
