<svg xmlns="http://www.w3.org/2000/svg" width="48" height="48" viewBox="0 0 48 48">
  <g id="net_worth_icon" transform="translate(0 0)">
    <g id="Group_17455" data-name="Group 17455" transform="translate(0 24)">
      <g id="Group_17452" data-name="Group 17452">
        <path id="Path_14899" data-name="Path 14899" d="M7,32H1a1,1,0,0,1-1-1V13a1,1,0,0,1,1-1c6.8,0,10.4,2.292,10.546,2.39a1,1,0,0,1,.424,1.084l-4,15.772A1,1,0,0,1,7,32ZM2,30H6.222L9.84,15.74A20.027,20.027,0,0,0,2,14.018Z" transform="translate(0 -12)" fill="#e27e2b"/>
      </g>
      <g id="Group_17453" data-name="Group 17453" transform="translate(6.56 11)">
        <path id="Path_14900" data-name="Path 14900" d="M22.72,30.5c-4.714,0-13.844-3.97-18.866-6.336a1,1,0,0,1,.852-1.808C13,26.26,19.56,28.5,22.72,28.5c4.864,0,16.33-5.714,19.628-7.414A4.317,4.317,0,0,0,38.72,19.5a24.118,24.118,0,0,0-6.45,1.454A25.309,25.309,0,0,1,25.22,22.5c-4.128,0-9.61-1.976-9.842-2.06a1,1,0,0,1,.684-1.88c.052.02,5.384,1.94,9.158,1.94a24.118,24.118,0,0,0,6.45-1.454A25.309,25.309,0,0,1,38.72,17.5c4.666,0,5.9,3.534,5.948,3.684a1,1,0,0,1-.478,1.2c-.622.33-15.292,8.116-21.47,8.116Z" transform="translate(-3.28 -17.5)" fill="#e27e2b"/>
      </g>
      <g id="Group_17454" data-name="Group 17454" transform="translate(9.638 3.64)">
        <path id="Path_14901" data-name="Path 14901" d="M28.181,25.36a1,1,0,0,1-1-1v-1a2.962,2.962,0,0,0-2.288-2.906L5.585,15.792a1,1,0,0,1,.468-1.944l19.3,4.66a4.95,4.95,0,0,1,3.828,4.852v1a1,1,0,0,1-1,1Z" transform="translate(-4.819 -13.82)" fill="#e27e2b"/>
      </g>
    </g>
    <g id="Group_17456" data-name="Group 17456" transform="translate(22 0)">
      <path id="Path_14902" data-name="Path 14902" d="M31,24H29a2,2,0,0,1-2-2V20H23v2a2,2,0,0,1-2,2H19a2,2,0,0,1-2-2V18.92A8.019,8.019,0,0,1,14.1,16H13a2,2,0,0,1-2-2V10a2,2,0,0,1,2-2h1.086A7.994,7.994,0,0,1,17,5.086V1a1,1,0,0,1,.35-.76,1.013,1.013,0,0,1,.8-.228A5.135,5.135,0,0,1,22.768,4H29a8.008,8.008,0,0,1,8,8,8.022,8.022,0,0,1-4,6.912V22A2,2,0,0,1,31,24Zm-9-6h6a1,1,0,0,1,1,1v3h2V18.3a1,1,0,0,1,.594-.914,5.568,5.568,0,0,0,1.64-1.154A5.892,5.892,0,0,0,35,12a6.007,6.007,0,0,0-6-6H21.94a1,1,0,0,1-.992-.87A3.153,3.153,0,0,0,19,2.292V5.7a1,1,0,0,1-.594.914,5.843,5.843,0,0,0-2.792,2.792A1,1,0,0,1,14.7,10H13v4h1.7a1,1,0,0,1,.9.574,6.01,6.01,0,0,0,2.828,2.846.994.994,0,0,1,.568.9V22h2V19A1,1,0,0,1,22,18Z" transform="translate(-11 0)" fill="#e27e2b"/>
    </g>
  </g>
</svg>
