<svg id="plus" xmlns="http://www.w3.org/2000/svg" width="30" height="30" viewBox="0 0 30 30">
  <path id="Path_27014" data-name="Path 27014" d="M15,30A15,15,0,1,1,30,15,15.017,15.017,0,0,1,15,30ZM15,1.875A13.125,13.125,0,1,0,28.125,15,13.139,13.139,0,0,0,15,1.875Zm0,0" fill="#b4b4b4"/>
  <path id="Path_27015" data-name="Path 27015" d="M147.581,241.361H129.305c-.721,0-1.305-.3-1.305-.68s.585-.68,1.305-.68h18.275c.721,0,1.305.3,1.305.68S148.3,241.361,147.581,241.361Zm0,0" transform="translate(-123.443 -225.68)" fill="#b4b4b4"/>
  <path id="Path_27016" data-name="Path 27016" d="M240.68,148.886c-.376,0-.68-.585-.68-1.305V129.305c0-.721.3-1.305.68-1.305s.68.585.68,1.305v18.275C241.361,148.3,241.056,148.886,240.68,148.886Zm0,0" transform="translate(-225.68 -123.443)" fill="#b4b4b4"/>
</svg>
