<svg id="plus" xmlns="http://www.w3.org/2000/svg" width="24" height="24" viewBox="0 0 24 24">
  <path id="Path_27014" data-name="Path 27014" d="M12,24A12,12,0,1,1,24,12,12.013,12.013,0,0,1,12,24ZM12,1.5A10.5,10.5,0,1,0,22.5,12,10.512,10.512,0,0,0,12,1.5Zm0,0" fill="#d2670e"/>
  <path id="Path_27015" data-name="Path 27015" d="M140.174,241.644H128.812a.822.822,0,0,1,0-1.644h11.363a.822.822,0,0,1,0,1.644Zm0,0" transform="translate(-122.493 -228.822)" fill="#d2670e"/>
  <path id="Path_27016" data-name="Path 27016" d="M240.822,140.986a.817.817,0,0,1-.822-.812V128.812a.822.822,0,0,1,1.644,0v11.363A.817.817,0,0,1,240.822,140.986Zm0,0" transform="translate(-228.822 -122.493)" fill="#d2670e"/>
</svg>
