<svg id="portfolio_management_services" xmlns="http://www.w3.org/2000/svg" width="96" height="96" viewBox="0 0 96 96">
  <g id="ICONS">
    <g id="portfolio_management_services-2" data-name="portfolio_management_services">
      <rect id="Rectangle_8283" data-name="Rectangle 8283" width="96" height="96" fill="none"/>
      <path id="Path_28189" data-name="Path 28189" d="M74,68A12,12,0,1,1,86,56,12,12,0,0,1,74,68Zm0-20a8,8,0,1,0,8,8A8,8,0,0,0,74,48Z" fill="#e27e28"/>
      <path id="Path_28190" data-name="Path 28190" d="M94,94a2,2,0,0,1-2-2V84a6,6,0,0,0-6-6H62a6,6,0,0,0-6,6v8a2,2,0,0,1-4,0V84A10,10,0,0,1,62,74H86A10,10,0,0,1,96,84v8A2,2,0,0,1,94,94Z" fill="#e27e28"/>
      <path id="Path_28191" data-name="Path 28191" d="M16,74a8,8,0,1,1,8-8A8,8,0,0,1,16,74Zm0-12a4,4,0,1,0,4,4A4,4,0,0,0,16,62Z" fill="#e27e28"/>
      <path id="Path_28192" data-name="Path 28192" d="M30,94a2,2,0,0,1-2-2V88a6,6,0,0,0-6-6H10a6,6,0,0,0-6,6v4a2,2,0,1,1-4,0V88A10,10,0,0,1,10,78H22A10,10,0,0,1,32,88v4A2,2,0,0,1,30,94Z" fill="#e27e28"/>
      <path id="Path_28193" data-name="Path 28193" d="M32,38A10,10,0,1,1,42,28,10,10,0,0,1,32,38Zm0-16a6,6,0,1,0,6,6,6,6,0,0,0-6-6Z" fill="#e27e28"/>
      <path id="Path_28194" data-name="Path 28194" d="M35.1,54H28.9A3.94,3.94,0,0,1,25,50.39l-.5-5.09a18.58,18.58,0,0,1-3.31-2l-4.51,2.1a3.89,3.89,0,0,1-5.06-1.66l-3.1-5.52A4,4,0,0,1,9.62,33l4-3a15,15,0,0,1,0-4.09l-4-3a4,4,0,0,1-1.1-5.21l3.09-5.53a3.9,3.9,0,0,1,5.07-1.66l4.49,2.09a17.47,17.47,0,0,1,3.31-2l.52-5A3.94,3.94,0,0,1,28.9,2h6.2A3.94,3.94,0,0,1,39,5.61l.5,5.09a18.58,18.58,0,0,1,3.31,2l4.49-2.08a3.88,3.88,0,0,1,5.06,1.66l3.1,5.52A4,4,0,0,1,54.38,23l-4,3a15,15,0,0,1,0,4.09l4,3a4,4,0,0,1,1.1,5.21l-3.09,5.53a3.91,3.91,0,0,1-5.07,1.66L42.83,43.4a17.47,17.47,0,0,1-3.31,2l-.52,5A3.94,3.94,0,0,1,35.1,54ZM21.45,39a2,2,0,0,1,1.31.49A14,14,0,0,0,27.06,42a2,2,0,0,1,1.29,1.68L29,50h6.1l.55-6.28A2,2,0,0,1,36.94,42a14.32,14.32,0,0,0,4.3-2.58,2,2,0,0,1,2.15-.3L49,41.77l3-5.51-5-3.71a2,2,0,0,1-.78-1.95,14.69,14.69,0,0,0,.26-2.6,14.88,14.88,0,0,0-.26-2.6A2,2,0,0,1,47,23.46l5-3.68-3.1-5.56-5.51,2.62a2,2,0,0,1-2.15-.31A14,14,0,0,0,36.94,14a2,2,0,0,1-1.29-1.68L35,6H28.9l-.55,6.28A2,2,0,0,1,27.06,14a14.32,14.32,0,0,0-4.3,2.58,2,2,0,0,1-2.15.3L15,14.23l-3,5.51,5,3.71a2,2,0,0,1,.78,1.95,14.69,14.69,0,0,0-.26,2.6,14.88,14.88,0,0,0,.26,2.6A2,2,0,0,1,17,32.54l-5,3.68,3.1,5.56,5.51-2.62a2.08,2.08,0,0,1,.84-.18Z" fill="#e27e28"/>
    </g>
  </g>
</svg>
