<svg xmlns="http://www.w3.org/2000/svg" width="350" height="326" viewBox="0 0 350 326">
  <g id="protect_right_illustration" transform="translate(-1407 -738.026)">
    <rect id="Rectangle_6461" data-name="Rectangle 6461" width="350" height="326" transform="translate(1407 738.026)" fill="#fff" opacity="0"/>
    <g id="Protect_me_well" data-name="Protect me well" transform="translate(335.001 230.026)">
      <g id="Group_14432" data-name="Group 14432" transform="translate(1073 508)">
        <rect id="Rectangle_6461-2" data-name="Rectangle 6461" width="348.762" height="325.974" transform="translate(0)" fill="#fff" opacity="0"/>
        <g id="Insurance-cuate" transform="translate(7.868 0.178)">
          <g id="freepik--Shadow--inject-17" transform="translate(8.187 295.015)">
            <ellipse id="Ellipse_302" data-name="Ellipse 302" cx="157.076" cy="15.302" rx="157.076" ry="15.302" fill="#ebebeb"/>
          </g>
          <g id="freepik--Floor--inject-17" transform="translate(0 274.831)">
            <path id="Path_14056" data-name="Path 14056" d="M36.47,402.369l41.314-.187,41.314-.07,82.636-.132,82.636.132,41.314.062,41.314.194-41.314.187-41.314.07-82.636.132-82.636-.132-41.314-.07Z" transform="translate(-36.47 -401.98)" fill="#263238"/>
          </g>
          <g id="freepik--Clipboard--inject-17" transform="translate(58.301 6.671)">
            <rect id="Rectangle_6473" data-name="Rectangle 6473" width="208.265" height="277.288" transform="translate(0 20.107)" fill="#e27e28"/>
            <g id="Group_14209" data-name="Group 14209" transform="translate(0 20.107)" opacity="0.1">
              <rect id="Rectangle_6474" data-name="Rectangle 6474" width="208.265" height="277.288"/>
            </g>
            <rect id="Rectangle_6475" data-name="Rectangle 6475" width="208.265" height="277.288" transform="translate(5.66 20.107)" fill="#e27e28"/>
            <rect id="Rectangle_6476" data-name="Rectangle 6476" width="183.851" height="249.875" transform="translate(16.286 33.491) rotate(-0.73)" fill="#ebebeb"/>
            <rect id="Rectangle_6477" data-name="Rectangle 6477" width="249.867" height="183.845" transform="translate(12.37 280.18) rotate(-88.76)" fill="#dbdbdb"/>
            <rect id="Rectangle_6478" data-name="Rectangle 6478" width="183.859" height="249.888" transform="translate(15.037 32.306)" fill="#fff"/>
            <rect id="Rectangle_6479" data-name="Rectangle 6479" width="15.613" height="15.613" transform="translate(36.03 176.276)" fill="#ebebeb"/>
            <rect id="Rectangle_6480" data-name="Rectangle 6480" width="50.577" height="2.286" transform="translate(60.071 176.258)" fill="#455a64"/>
            <rect id="Rectangle_6481" data-name="Rectangle 6481" width="117.832" height="2.286" transform="translate(60.071 180.715)" fill="#ebebeb"/>
            <rect id="Rectangle_6482" data-name="Rectangle 6482" width="117.832" height="2.286" transform="translate(60.071 185.164)" fill="#ebebeb"/>
            <rect id="Rectangle_6483" data-name="Rectangle 6483" width="117.832" height="2.286" transform="translate(60.071 189.614)" fill="#ebebeb"/>
            <path id="Path_14057" data-name="Path 14057" d="M160.25,290.286c.575.482,1.12.98,1.664,1.493s1.065,1.026,1.6,1.555c1.05,1.034,2.06,2.107,3.063,3.188l-1.788.117a69.928,69.928,0,0,1,4.859-8.553c.9-1.361,1.858-2.7,2.885-3.989a37.339,37.339,0,0,1,3.328-3.716,36.145,36.145,0,0,1-1.734,4.665q-1,2.263-2.185,4.408a70.977,70.977,0,0,1-5.287,8.273l-.98,1.314-.778-1.2c-.832-1.221-1.641-2.449-2.41-3.709-.381-.637-.778-1.259-1.143-1.9S160.584,290.97,160.25,290.286Z" transform="translate(-123.069 -107.014)" fill="#00a3b1"/>
            <rect id="Rectangle_6484" data-name="Rectangle 6484" width="15.613" height="15.613" transform="translate(36.03 202.173)" fill="#ebebeb"/>
            <rect id="Rectangle_6485" data-name="Rectangle 6485" width="50.577" height="2.286" transform="translate(60.071 202.152)" fill="#455a64"/>
            <rect id="Rectangle_6486" data-name="Rectangle 6486" width="117.832" height="2.286" transform="translate(60.071 206.602)" fill="#ebebeb"/>
            <rect id="Rectangle_6487" data-name="Rectangle 6487" width="117.832" height="2.286" transform="translate(60.071 211.051)" fill="#ebebeb"/>
            <rect id="Rectangle_6488" data-name="Rectangle 6488" width="117.832" height="2.286" transform="translate(60.071 215.501)" fill="#ebebeb"/>
            <rect id="Rectangle_6489" data-name="Rectangle 6489" width="15.613" height="15.613" transform="translate(36.03 228.063)" fill="#ebebeb"/>
            <rect id="Rectangle_6490" data-name="Rectangle 6490" width="50.577" height="2.286" transform="translate(60.071 228.039)" fill="#455a64"/>
            <rect id="Rectangle_6491" data-name="Rectangle 6491" width="117.832" height="2.286" transform="translate(60.071 232.488)" fill="#ebebeb"/>
            <rect id="Rectangle_6492" data-name="Rectangle 6492" width="117.832" height="2.286" transform="translate(60.071 236.938)" fill="#ebebeb"/>
            <rect id="Rectangle_6493" data-name="Rectangle 6493" width="117.832" height="2.286" transform="translate(60.071 241.506)" fill="#ebebeb"/>
            <rect id="Rectangle_6494" data-name="Rectangle 6494" width="78.957" height="2.286" transform="translate(98.947 258.915)" fill="#ebebeb"/>
            <rect id="Rectangle_6495" data-name="Rectangle 6495" width="42.802" height="2.286" transform="translate(84.951 95.107)" fill="#455a64"/>
            <rect id="Rectangle_6496" data-name="Rectangle 6496" width="92.952" height="2.286" transform="translate(84.951 99.556)" fill="#ebebeb"/>
            <rect id="Rectangle_6497" data-name="Rectangle 6497" width="92.952" height="2.286" transform="translate(84.951 104.014)" fill="#ebebeb"/>
            <rect id="Rectangle_6498" data-name="Rectangle 6498" width="92.952" height="2.286" transform="translate(84.951 112.913)" fill="#ebebeb"/>
            <rect id="Rectangle_6499" data-name="Rectangle 6499" width="40.423" height="2.286" transform="translate(84.951 117.362)" fill="#ebebeb"/>
            <rect id="Rectangle_6500" data-name="Rectangle 6500" width="141.873" height="21.732" transform="translate(36.03 56.294)" fill="#00a3b1"/>
            <path id="Path_14058" data-name="Path 14058" d="M171.34,149.157v-12.7H173.8v12.7Z" transform="translate(-125.537 -75.261)" fill="#fff"/>
            <path id="Path_14059" data-name="Path 14059" d="M183.835,141.016v8.141H181.37v-12.7h1.913l6.617,8.335v-8.319h2.465v12.681h-2Z" transform="translate(-127.768 -75.261)" fill="#fff"/>
            <path id="Path_14060" data-name="Path 14060" d="M209.664,139.761a2.987,2.987,0,0,0-.459-.342,5.919,5.919,0,0,0-.777-.42,6.119,6.119,0,0,0-1.026-.35,4.573,4.573,0,0,0-1.127-.14,2.534,2.534,0,0,0-1.516.373,1.236,1.236,0,0,0-.505,1.057,1.066,1.066,0,0,0,.195.653,1.608,1.608,0,0,0,.544.451,4.427,4.427,0,0,0,.9.358c.365.109.777.225,1.26.342a16.06,16.06,0,0,1,1.656.552,4.455,4.455,0,0,1,1.291.715,3.063,3.063,0,0,1,.816,1.026,3.5,3.5,0,0,1,.28,1.477,3.669,3.669,0,0,1-.381,1.742,3.3,3.3,0,0,1-1.042,1.174,4.533,4.533,0,0,1-1.5.653,7.776,7.776,0,0,1-1.8.21,9.527,9.527,0,0,1-2.823-.428,8.809,8.809,0,0,1-2.5-1.213l1.089-2.13a3.375,3.375,0,0,0,.583.42,10.485,10.485,0,0,0,1,.521,7.558,7.558,0,0,0,1.267.435,5.859,5.859,0,0,0,1.431.179c1.361,0,2.037-.435,2.037-1.306a1.088,1.088,0,0,0-.233-.7,1.965,1.965,0,0,0-.661-.5,7.246,7.246,0,0,0-1.034-.4l-1.361-.389a12.313,12.313,0,0,1-1.555-.544,4.308,4.308,0,0,1-1.12-.7,2.527,2.527,0,0,1-.669-.933,3.111,3.111,0,0,1-.225-1.26,3.927,3.927,0,0,1,.358-1.718,3.467,3.467,0,0,1,.987-1.252,4.666,4.666,0,0,1,1.477-.778,5.917,5.917,0,0,1,1.8-.264,7.052,7.052,0,0,1,2.472.42,9.328,9.328,0,0,1,1.967,1Z" transform="translate(-132.169 -75.234)" fill="#fff"/>
            <path id="Path_14061" data-name="Path 14061" d="M225.233,147.059a2.721,2.721,0,0,0,2.441-1.291,3.724,3.724,0,0,0,.521-1.314,7.632,7.632,0,0,0,.155-1.555V136.43h2.473V142.9a9.63,9.63,0,0,1-.311,2.457,5.6,5.6,0,0,1-.987,2,4.665,4.665,0,0,1-1.726,1.361,5.8,5.8,0,0,1-2.519.5,5.66,5.66,0,0,1-2.581-.529,4.727,4.727,0,0,1-1.726-1.392,5.631,5.631,0,0,1-.964-2.014,9.589,9.589,0,0,1-.288-2.379V136.43h2.465V142.9a7.151,7.151,0,0,0,.155,1.555,3.888,3.888,0,0,0,.513,1.314,2.861,2.861,0,0,0,.956.925A2.806,2.806,0,0,0,225.233,147.059Z" transform="translate(-136.3 -75.254)" fill="#fff"/>
            <path id="Path_14062" data-name="Path 14062" d="M240.62,149.157v-12.7h5.614a3.652,3.652,0,0,1,1.617.365,4.127,4.127,0,0,1,1.275.964,4.823,4.823,0,0,1,.848,1.361,4.107,4.107,0,0,1,.3,1.555,4.205,4.205,0,0,1-.622,2.239,3.545,3.545,0,0,1-1.672,1.462l2.9,4.774h-2.776l-2.589-4.261h-2.434v4.261Zm2.465-6.422h3.11a1.322,1.322,0,0,0,.637-.163,1.5,1.5,0,0,0,.505-.435,2.332,2.332,0,0,0,.342-.653,2.7,2.7,0,0,0,.124-.778,2.162,2.162,0,0,0-.148-.824,2.091,2.091,0,0,0-.381-.653,1.711,1.711,0,0,0-.552-.428,1.456,1.456,0,0,0-.638-.156H243.1Z" transform="translate(-140.95 -75.261)" fill="#fff"/>
            <path id="Path_14063" data-name="Path 14063" d="M262.366,136.46h2.185l4.828,12.7h-2.542l-1.166-3.165h-4.44l-1.159,3.165H257.53Zm2.846,7.775-1.749-4.992-1.827,4.992Z" transform="translate(-144.713 -75.261)" fill="#fff"/>
            <path id="Path_14064" data-name="Path 14064" d="M280.48,141.016v8.141H278v-12.7h1.921l6.632,8.335v-8.319h2.465v12.681h-2.006Z" transform="translate(-149.267 -75.261)" fill="#fff"/>
            <path id="Path_14065" data-name="Path 14065" d="M298,142.69a6.612,6.612,0,0,1,.42-2.333,6.3,6.3,0,0,1,1.228-2.029,6.221,6.221,0,0,1,1.967-1.446,6.026,6.026,0,0,1,2.644-.552,5.816,5.816,0,0,1,3.032.778,4.914,4.914,0,0,1,1.905,2.006l-1.866,1.322a3.053,3.053,0,0,0-.607-.9,3.005,3.005,0,0,0-.777-.583,3.423,3.423,0,0,0-.855-.311,3.886,3.886,0,0,0-.879-.1,3.251,3.251,0,0,0-1.617.381,3.56,3.56,0,0,0-1.143.972,4.246,4.246,0,0,0-.692,1.361,5.115,5.115,0,0,0-.233,1.508,4.934,4.934,0,0,0,.272,1.618,4.122,4.122,0,0,0,.777,1.368,3.765,3.765,0,0,0,1.174.949,3.2,3.2,0,0,0,1.516.358,4.062,4.062,0,0,0,.894-.109,3.33,3.33,0,0,0,.887-.342,3.109,3.109,0,0,0,.777-.6,2.758,2.758,0,0,0,.568-.879l2.022,1.158a3.794,3.794,0,0,1-.863,1.26,5.576,5.576,0,0,1-1.275.925,6.493,6.493,0,0,1-1.508.568,6.592,6.592,0,0,1-1.555.2,5.443,5.443,0,0,1-2.488-.575,6.464,6.464,0,0,1-1.944-1.493,6.913,6.913,0,0,1-1.267-2.092A6.571,6.571,0,0,1,298,142.69Z" transform="translate(-153.716 -75.232)" fill="#fff"/>
            <path id="Path_14066" data-name="Path 14066" d="M327.057,146.988v2.169H318.24v-12.7h8.654v2.162h-6.22v3.056h5.349v2.006h-5.349v3.3Z" transform="translate(-158.22 -75.261)" fill="#fff"/>
            <path id="Path_14067" data-name="Path 14067" d="M300.913,260.77H158.27V230.26H300.913Zm-141.865-.777H300.135V231.038H159.048Z" transform="translate(-122.629 -95.941)" fill="#ebebeb"/>
            <rect id="Rectangle_6501" data-name="Rectangle 6501" width="141.873" height="0.778" transform="translate(36.03 152.31)" fill="#ebebeb"/>
            <rect id="Rectangle_6502" data-name="Rectangle 6502" width="141.873" height="0.778" transform="translate(36.03 140.551)" fill="#ebebeb"/>
            <rect id="Rectangle_6503" data-name="Rectangle 6503" width="0.778" height="29.74" transform="translate(81.95 134.708)" fill="#ebebeb"/>
            <rect id="Rectangle_6504" data-name="Rectangle 6504" width="0.778" height="29.74" transform="translate(131.198 134.708)" fill="#ebebeb"/>
            <path id="Path_14068" data-name="Path 14068" d="M169.19,234.737c2.5-.156,5.015-.233,7.526-.3s5.015-.078,7.526-.093,5.015,0,7.526.093l3.763.109c1.252.062,2.5.1,3.763.187-1.26.093-2.511.132-3.763.194l-3.763.109c-2.511.07-5.023.078-7.526.085s-5.023,0-7.526-.085S171.694,234.9,169.19,234.737Z" transform="translate(-125.058 -96.875)" fill="#455a64"/>
            <path id="Path_14069" data-name="Path 14069" d="M230.64,234.737c2.511-.156,5.015-.233,7.526-.3s5.015-.078,7.526-.093,5.015,0,7.526.093l3.763.109c1.252.062,2.511.1,3.763.187-1.252.093-2.511.132-3.763.194l-3.763.109c-2.511.07-5.015.078-7.526.085s-5.015,0-7.526-.085S233.151,234.9,230.64,234.737Z" transform="translate(-138.73 -96.875)" fill="#455a64"/>
            <path id="Path_14070" data-name="Path 14070" d="M292.47,234.737c2.511-.156,5.023-.233,7.526-.3s5.023-.078,7.526-.093,5.023,0,7.527.093l3.763.109c1.259.062,2.511.1,3.763.187-1.252.093-2.5.132-3.763.194l-3.763.109c-2.5.07-5.015.078-7.527.085s-5.015,0-7.526-.085S294.981,234.9,292.47,234.737Z" transform="translate(-152.486 -96.875)" fill="#455a64"/>
            <path id="Path_14071" data-name="Path 14071" d="M169.19,244.387c2.5-.155,5.015-.233,7.526-.3s5.015-.078,7.526-.093,5.015,0,7.526.093l3.763.109c1.252.062,2.5.1,3.763.187-1.26.093-2.511.124-3.763.195l-3.763.109c-2.511.07-5.023.078-7.526.086s-5.023,0-7.526-.086S171.694,244.551,169.19,244.387Z" transform="translate(-125.058 -99.006)" fill="#ebebeb"/>
            <path id="Path_14072" data-name="Path 14072" d="M230.64,244.387c2.511-.155,5.015-.233,7.526-.3s5.015-.078,7.526-.093,5.015,0,7.526.093l3.763.109c1.252.062,2.511.1,3.763.187-1.252.093-2.511.124-3.763.195l-3.763.109c-2.511.07-5.015.078-7.526.086s-5.015,0-7.526-.086S233.151,244.551,230.64,244.387Z" transform="translate(-138.73 -99.006)" fill="#ebebeb"/>
            <path id="Path_14073" data-name="Path 14073" d="M292.47,244.387c2.511-.155,5.023-.233,7.526-.3s5.023-.078,7.526-.093,5.023,0,7.527.093l3.763.109c1.259.062,2.511.1,3.763.187-1.252.093-2.5.124-3.763.195l-3.763.109c-2.5.07-5.015.078-7.527.086s-5.015,0-7.526-.086S294.981,244.551,292.47,244.387Z" transform="translate(-152.486 -99.006)" fill="#ebebeb"/>
            <path id="Path_14074" data-name="Path 14074" d="M169.19,248.268c2.5-.156,5.015-.233,7.526-.3s5.015-.086,7.526-.093,5.015,0,7.526.093l3.763.109c1.252.062,2.5.1,3.763.187-1.26.093-2.511.124-3.763.194l-3.763.109c-2.511.07-5.023.078-7.526.085s-5.023,0-7.526-.093S171.694,248.431,169.19,248.268Z" transform="translate(-125.058 -99.863)" fill="#ebebeb"/>
            <path id="Path_14075" data-name="Path 14075" d="M230.64,248.268c2.511-.156,5.015-.233,7.526-.3s5.015-.086,7.526-.093,5.015,0,7.526.093l3.763.109c1.252.062,2.511.1,3.763.187-1.252.093-2.511.124-3.763.194l-3.763.109c-2.511.07-5.015.078-7.526.085s-5.015,0-7.526-.093S233.151,248.431,230.64,248.268Z" transform="translate(-138.73 -99.863)" fill="#ebebeb"/>
            <path id="Path_14076" data-name="Path 14076" d="M292.47,248.268c2.511-.156,5.023-.233,7.526-.3s5.023-.086,7.526-.093,5.023,0,7.527.093l3.763.109c1.259.062,2.511.1,3.763.187-1.252.093-2.5.124-3.763.194l-3.763.109c-2.5.07-5.015.078-7.527.085s-5.015,0-7.526-.093S294.981,248.431,292.47,248.268Z" transform="translate(-152.486 -99.863)" fill="#ebebeb"/>
            <path id="Path_14077" data-name="Path 14077" d="M169.19,258.627c2.5-.156,5.015-.233,7.526-.3s5.015-.078,7.526-.093,5.015,0,7.526.093l3.763.109c1.252.062,2.5.1,3.763.187-1.26.093-2.511.124-3.763.194l-3.763.109c-2.511.07-5.023.078-7.526.085s-5.023,0-7.526-.085S171.694,258.829,169.19,258.627Z" transform="translate(-125.058 -102.149)" fill="#ebebeb"/>
            <path id="Path_14078" data-name="Path 14078" d="M230.64,258.627c2.511-.156,5.015-.233,7.526-.3s5.015-.078,7.526-.093,5.015,0,7.526.093l3.763.109c1.252.062,2.511.1,3.763.187-1.252.093-2.511.124-3.763.194l-3.763.109c-2.511.07-5.015.078-7.526.085s-5.015,0-7.526-.085S233.151,258.829,230.64,258.627Z" transform="translate(-138.73 -102.149)" fill="#ebebeb"/>
            <path id="Path_14079" data-name="Path 14079" d="M292.47,258.627c2.511-.156,5.023-.233,7.526-.3s5.023-.078,7.526-.093,5.023,0,7.527.093l3.763.109c1.259.062,2.511.1,3.763.187-1.252.093-2.5.124-3.763.194l-3.763.109c-2.5.07-5.015.078-7.527.085s-5.015,0-7.526-.085S294.981,258.829,292.47,258.627Z" transform="translate(-152.486 -102.149)" fill="#ebebeb"/>
            <path id="Path_14080" data-name="Path 14080" d="M169.19,262.508c2.5-.156,5.015-.233,7.526-.3s5.015-.085,7.526-.093,5.015,0,7.526.093l3.763.109c1.252.062,2.5.1,3.763.187-1.26.093-2.511.124-3.763.194l-3.763.109c-2.511.07-5.023.078-7.526.086s-5.023,0-7.526-.093S171.694,262.671,169.19,262.508Z" transform="translate(-125.058 -103.007)" fill="#ebebeb"/>
            <path id="Path_14081" data-name="Path 14081" d="M230.64,262.508c2.511-.156,5.015-.233,7.526-.3s5.015-.085,7.526-.093,5.015,0,7.526.093l3.763.109c1.252.062,2.511.1,3.763.187-1.252.093-2.511.124-3.763.194l-3.763.109c-2.511.07-5.015.078-7.526.086s-5.015,0-7.526-.093S233.151,262.671,230.64,262.508Z" transform="translate(-138.73 -103.007)" fill="#ebebeb"/>
            <path id="Path_14082" data-name="Path 14082" d="M292.47,262.508c2.511-.156,5.023-.233,7.526-.3s5.023-.085,7.526-.093,5.023,0,7.527.093l3.763.109c1.259.062,2.511.1,3.763.187-1.252.093-2.5.124-3.763.194l-3.763.109c-2.5.07-5.015.078-7.527.086s-5.015,0-7.526-.093S294.981,262.671,292.47,262.508Z" transform="translate(-152.486 -103.007)" fill="#ebebeb"/>
            <path id="Path_14083" data-name="Path 14083" d="M192.867,194.736a47.063,47.063,0,0,1-15.076,13.086,47.061,47.061,0,0,1-15.076-13.086c-5.3-7-5.038-18.015,2.55-20.394,8.4-2.628,12.526,10.007,12.526,10.007s4.183-12.72,12.526-10.007C197.9,176.8,198.17,187.715,192.867,194.736Z" transform="translate(-122.813 -83.52)" fill="#e27e28"/>
            <path id="Path_14084" data-name="Path 14084" d="M171.793,204.41l-2.286-9.532-1.493,3.359H158.77v-1.073h8.545l2.5-5.621,1.781,7.433,2.527-15.395,2.224,12.176,1.765-5.085L180.883,199l.614-1.843h15.185v1.081H182.266l-1.384,4.16-2.8-8.382-2.06,5.964-1.851-10.1Z" transform="translate(-122.74 -85.653)" fill="#fff"/>
            <rect id="Rectangle_6505" data-name="Rectangle 6505" width="90.308" height="27.532" transform="translate(61.812 15.053)" fill="#c7c7c7"/>
            <path id="Path_14085" data-name="Path 14085" d="M268.764,57.93H212.72l-2.48,15.053h61.836Zm-27.61,10.831a3.3,3.3,0,1,1,3.3-3.3A3.3,3.3,0,0,1,241.154,68.761Z" transform="translate(-134.191 -57.93)" fill="#c7c7c7"/>
            <path id="Path_14086" data-name="Path 14086" d="M272.076,76.327H210.24l.552-3.367h60.537Z" transform="translate(-134.191 -61.274)" fill="#a6a6a6"/>
          </g>
          <g id="freepik--Shield--inject-17" transform="translate(41.496 232.938)">
            <path id="Path_14099" data-name="Path 14099" d="M153.6,368.875s-4.665,37.321-12.316,45.687c-9.19,10.069-15.861,8.592-19.57,13.785h0c-3.709-5.2-10.38-3.716-19.578-13.793-7.651-8.389-12.3-45.687-12.3-45.687,20.169-9.789,31.878-20.767,31.878-20.767h0C122.084,348.458,133.746,359.242,153.6,368.875Z" transform="translate(-89.84 -348.1)" fill="#37474f"/>
            <path id="Path_14100" data-name="Path 14100" d="M121.718,348.115v80.232h0c-3.709-5.2-10.38-3.716-19.578-13.793-7.651-8.389-12.3-45.687-12.3-45.687,20.169-9.789,31.878-20.767,31.878-20.767Z" transform="translate(-89.84 -348.1)" fill="#263238"/>
            <path id="Path_14101" data-name="Path 14101" d="M150.064,373.668s-3.934,31.5-10.4,38.588c-7.775,8.553-13.412,7.27-16.546,11.663-3.11-4.385-8.77-3.11-16.538-11.663-6.469-7.091-10.4-38.588-10.4-38.588,17.043-8.28,26.933-17.548,26.933-17.548S133.029,365.357,150.064,373.668Z" transform="translate(-91.253 -349.884)" fill="#455a64"/>
            <path id="Path_14102" data-name="Path 14102" d="M96.2,373.671s3.934,31.5,10.4,38.6c7.775,8.506,13.4,7.262,16.53,11.663v-67.8C122.83,356.418,112.979,365.522,96.2,373.671Z" transform="translate(-91.255 -349.887)" fill="#37474f"/>
            <circle id="Ellipse_303" data-name="Ellipse 303" cx="12.495" cy="12.495" r="12.495" transform="translate(19.383 27.641)" fill="#00a3b1"/>
            <path id="Path_14103" data-name="Path 14103" d="M127.417,405.938l-5.567-5.785,2.068-1.983,3.063,3.188,6.609-10.139,2.4,1.563Z" transform="translate(-96.962 -357.694)" fill="#fff"/>
          </g>
          <g id="freepik--Icon--inject-17" transform="translate(30.922)">
            <path id="Path_14104" data-name="Path 14104" d="M110.188,112.036a28.768,28.768,0,1,1,28.768-28.768,28.768,28.768,0,0,1-28.768,28.768Zm0-56.2A27.462,27.462,0,1,0,137.65,83.3,27.462,27.462,0,0,0,110.188,55.837Z" transform="translate(-77.392 -50.496)" fill="#37474f"/>
            <path id="Path_14105" data-name="Path 14105" d="M107.589,114.957c-.435,0-.871-.047-1.306-.086l.093-1.26c.412.039.832.062,1.252.086Zm4.58-.117-.124-1.275c.42-.039.84-.086,1.252-.14l.171,1.267C113.04,114.747,112.6,114.8,112.169,114.84Zm-10.411-.661c-.428-.093-.847-.2-1.267-.319l.334-1.228c.4.109.777.21,1.221.3Zm16.2-.42-.35-1.228c.4-.117.778-.233,1.205-.365l.4,1.213C118.817,113.518,118.374,113.612,117.954,113.759Zm-21.77-1.392c-.4-.171-.778-.35-1.2-.544l.544-1.151c.381.179.778.35,1.151.513Zm27.291-.708-.56-1.151c.373-.179.777-.373,1.112-.568l.606,1.12c-.373.218-.793.412-1.151.6ZM91,109.576c-.365-.241-.723-.49-1.081-.778l.778-1.042c.342.241.684.482,1.034.715Zm37.5-.964-.777-1.026c.334-.249.669-.505,1-.778l.778,1c-.319.28-.661.544-1.019.8Zm-42.126-2.7c-.319-.3-.63-.614-.933-.925l.925-.894c.288.3.583.6.886.894Zm46.511-1.2-.925-.879c.288-.3.568-.614.848-.925l.964.84C133.481,104.079,133.185,104.406,132.882,104.717ZM82.491,101.49l-.778-1.073,1.057-.715c.233.35.474.692.723,1.034Zm54.045-1.384-1.073-.708c.225-.35.451-.7.669-1.065l1.1.661C137,99.368,136.77,99.741,136.536,100.106Zm-57.07-3.662c-.194-.389-.373-.778-.544-1.182l1.166-.513c.171.381.342.778.529,1.135Zm59.869-1.555-1.174-.5c.163-.381.319-.778.467-1.166l1.2.443c-.194.428-.358.84-.529,1.236ZM77.43,90.932c-.117-.42-.225-.847-.327-1.275l1.244-.288c.093.4.2.778.311,1.221Zm63.7-1.656L139.88,89c.093-.412.179-.824.249-1.236l1.26.225q-.156.669-.3,1.3Zm-64.8-4.121q-.062-.653-.093-1.306l1.283-.062c0,.42.047.84.086,1.252Zm65.513-1.695-1.26-.047V82.021h1.283v.124C141.87,82.589,141.862,83.024,141.847,83.46ZM77.608,79.4l-1.267-.117c.039-.435.078-.863.14-1.3l1.267.163A7.17,7.17,0,0,0,77.608,79.4Zm62.675-1.749c-.054-.42-.124-.832-.2-1.244l1.26-.233c.078.428.148.863.21,1.291Zm-61.7-3.833-1.236-.334q.171-.645.373-1.26l1.221.389C78.821,73.01,78.7,73.414,78.588,73.818Zm60.382-1.687c-.132-.4-.272-.778-.428-1.182l1.2-.459q.233.614.443,1.236ZM80.563,68.516l-1.151-.552c.187-.4.389-.778.591-1.174l1.127.606A10.066,10.066,0,0,0,80.563,68.516ZM136.7,66.961c-.2-.373-.412-.731-.63-1.089l1.1-.661c.225.373.443.778.653,1.127Zm-53.236-3.3-1.034-.778c.257-.358.513-.708.778-1.05l1,.778C83.961,62.98,83.7,63.314,83.463,63.656Zm50.08-1.361c-.264-.327-.537-.645-.816-.964l.964-.84c.288.327.568.653.847,1ZM87.172,59.388l-.879-.917q.467-.459.956-.886l.847.956C87.786,58.812,87.475,59.1,87.172,59.388ZM129.6,58.214c-.319-.272-.645-.536-.972-.778l.778-1c.342.272.684.552,1.011.832Zm-38-2.364L90.9,54.785c.358-.241.731-.474,1.1-.7l.661,1.1C92.288,55.4,91.938,55.617,91.6,55.85Zm33.433-.925c-.358-.21-.723-.42-1.1-.614l.606-1.127c.381.2.778.42,1.143.638ZM96.6,53.16l-.513-1.174,1.213-.5.459,1.2a9.138,9.138,0,0,0-1.2.474Zm23.325-.653-1.19-.412.389-1.213c.42.132.832.272,1.244.428Zm-18-1.1-.288-1.244c.428-.093.855-.187,1.283-.264l.233,1.252A11.114,11.114,0,0,0,101.921,51.41Zm12.495-.342c-.412-.07-.824-.132-1.244-.187l.171-1.275c.428.062.863.124,1.291.2Zm-6.9-.435-.054-1.283h1.306v1.283Z" transform="translate(-76.24 -49.35)" fill="#37474f"/>
            <path id="Path_14106" data-name="Path 14106" d="M108.928,104.211h8.856V90.854h13.358V82H117.784V68.64h-8.856V82H95.57v8.856h13.358Z" transform="translate(-80.541 -53.642)" fill="#37474f"/>
          </g>
          <g id="freepik--Character--inject-17" transform="translate(173.687 15.955)">
            <path id="Path_14107" data-name="Path 14107" d="M324.222,440.265c1.555.49,45.345-.078,47-1.159.63-.4.917-6.788,1.05-14.516,0-.085.723-28.55.723-28.55l-28.037.287-.933,28.55s-16.678,7.721-18.373,9.1S322.683,439.775,324.222,440.265Z" transform="translate(-275.542 -141.782)" fill="#d3766a"/>
            <path id="Path_14108" data-name="Path 14108" d="M372.166,438.744c-.171,5.388-.451,9.33-.941,9.641-1.656,1.081-45.469,1.648-47,1.159s-.249-4.914,1.431-6.29a114.976,114.976,0,0,1,10.535-5.4C331.159,441.224,325.755,446.154,372.166,438.744Z" transform="translate(-275.544 -151.084)" fill="#263238"/>
            <path id="Path_14109" data-name="Path 14109" d="M342.35,436.971a.175.175,0,0,0,.179-.1Z" transform="translate(-279.729 -150.866)" fill="#e27e28"/>
            <path id="Path_14110" data-name="Path 14110" d="M387.62,233.72s-7.145,74.206-8.218,79.859c-.249,1.283-.669,72.573-.669,72.573l-29.9-.451s1.353-61.33,2.721-72.612,9.33-79.369,9.33-79.369Z" transform="translate(-281.171 -105.669)" fill="#37474f"/>
            <path id="Path_14111" data-name="Path 14111" d="M378.2,421.48a22.292,22.292,0,0,0-2.7-.2l-2.7-.124-5.31-.2-10.807-.381c-2.029-.078-4.059-.078-6.088-.055a.062.062,0,0,0,0,.117c7.169.723,14.407.878,21.607,1.05l3.11.054a21.693,21.693,0,0,0,2.931-.047C378.356,421.667,378.309,421.5,378.2,421.48Z" transform="translate(-281.555 -147.225)" fill="#263238"/>
            <path id="Path_14112" data-name="Path 14112" d="M390.759,237.9c-2.177,18.093-4.362,36.193-6.166,54.325-.894,9-1.734,18-2.294,27.026s-.777,18.194-.917,27.306c-.14,10.294-.381,20.6-.218,30.9,0,.093.148.093.155,0,.894-18.194.638-36.434,1.6-54.628s2.939-36.333,4.945-54.426c1.12-10.108,2.169-20.285,3.219-30.432C391.132,237.748,390.782,237.709,390.759,237.9Z" transform="translate(-288.352 -106.571)" fill="#263238"/>
            <path id="Path_14113" data-name="Path 14113" d="M402.243,441.725c1.609.117,44.038-10.831,45.384-12.277.521-.536-.715-6.811-2.418-14.353l-8.926-27-27.166,6.92,8.716,27.042s-14.368,11.453-15.682,13.218S400.633,441.616,402.243,441.725Z" transform="translate(-292.8 -140.016)" fill="#d3766a"/>
            <path id="Path_14114" data-name="Path 14114" d="M446.261,428.94c1.112,5.279,1.773,9.175,1.376,9.595-1.353,1.438-43.782,12.393-45.384,12.277s-1.407-4.712-.109-6.446c.7-.917,5.023-4.541,8.957-7.775C407.012,441.061,402.93,447.134,446.261,428.94Z" transform="translate(-292.802 -149.102)" fill="#263238"/>
            <path id="Path_14115" data-name="Path 14115" d="M407.855,385.4l30.463-8.467s-22.851-57.863-24.1-61.828c-.925-2.877-8.444-37.974-11.087-53.314,0,0,3.95-11.188-4.891-28.1H364.33s1.267,17.533,5.342,27.734a31.184,31.184,0,0,1,6.617,1.283s10.489,55.771,12.083,60.778C391.823,334.316,407.855,385.4,407.855,385.4Z" transform="translate(-284.619 -105.662)" fill="#37474f"/>
            <path id="Path_14116" data-name="Path 14116" d="M385.89,301.246l-3.615-19.383c-.342-1.827-.723-3.647-1.1-5.443s-.7-3.654-1.221-5.443a.109.109,0,0,0-.21,0c.093,1.648.4,3.3.622,4.937s.451,3.188.723,4.774c.56,3.258,1.166,6.516,1.781,9.758,1.236,6.485,2.465,12.992,3.973,19.438.847,3.616,1.641,7.246,2.543,10.885,0,.078.124.039.117,0C388.339,314.2,387.119,307.722,385.89,301.246Z" transform="translate(-288.048 -114.187)" fill="#263238"/>
            <path id="Path_14117" data-name="Path 14117" d="M376.326,256.634a6.668,6.668,0,0,0-.117-3.577q-.4-2.181-.778-4.362c-.606-3.281-1.275-6.547-1.975-9.812H373.4q.482,3.888,1.05,7.775c.381,2.612.886,5.225,1.205,7.845.109.848,0,2.519-1.2,2.527-1.034,0-1.664-1.555-1.99-2.333a36.763,36.763,0,0,1-1.9-7.184c-.6-2.885-1.089-5.792-1.594-8.692,0-.1-.179-.07-.171,0a84,84,0,0,0,1.011,8.677,31.676,31.676,0,0,0,2.006,8.086c.427.949,1.026,2.115,2.123,2.41a1.955,1.955,0,0,0,.467.055c.1.871.225,1.726.4,2.581a18.237,18.237,0,0,0,.692,2.636.1.1,0,1,0,.2,0h0a19.119,19.119,0,0,0-.389-2.651,26.09,26.09,0,0,0-.645-2.55A2.224,2.224,0,0,0,376.326,256.634Z" transform="translate(-285.613 -107.133)" fill="#263238"/>
            <path id="Path_14118" data-name="Path 14118" d="M382.669,271.908a27.041,27.041,0,0,0-5.373-1.78,36.548,36.548,0,0,0-5.443-.778.058.058,0,1,0,0,.117c1.812.28,8.973,2.045,10.769,2.488C382.684,272,382.715,271.932,382.669,271.908Z" transform="translate(-286.28 -113.911)" fill="#263238"/>
            <path id="Path_14119" data-name="Path 14119" d="M433.764,357.745q-2.426-6.461-4.867-12.922c-3.219-8.553-6.539-17.035-9.742-25.573s-4.525-17.409-6.22-26.233c-.887-4.494-1.757-9-2.644-13.49s-1.944-8.918-2.465-13.428.148-8.84-.241-13.257a32.983,32.983,0,0,0-3.11-11.367,29.825,29.825,0,0,0-1.431-2.644.093.093,0,0,0-.156.093,35.424,35.424,0,0,1,4.245,18.069c-.062,2.232-.218,4.455-.109,6.687a91.874,91.874,0,0,0,2.1,13.218c.855,4.37,1.749,8.9,2.628,13.358s1.773,8.988,2.651,13.49a101.518,101.518,0,0,0,3.126,12.961c1.423,4.245,3.11,8.413,4.665,12.6s3.258,8.607,4.906,12.9c3.273,8.553,6.484,17.144,9.906,25.658.4,1,.778,1.975,1.236,2.947.062.132.264,0,.226-.1C437.084,366.329,435.381,362.045,433.764,357.745Z" transform="translate(-293.197 -106.8)" fill="#263238"/>
            <path id="Path_14120" data-name="Path 14120" d="M447.153,411.26a22.324,22.324,0,0,0-2.644.591l-2.62.669c-1.711.451-3.429.886-5.139,1.345l-10.434,2.776c-1.967.521-3.888,1.1-5.847,1.711a.062.062,0,0,0,0,.117c7.068-1.384,14.042-3.343,20.993-5.272,1-.272,1.983-.56,2.97-.847a22.847,22.847,0,0,0,2.791-.886C447.355,411.407,447.261,411.244,447.153,411.26Z" transform="translate(-297.1 -145.168)" fill="#263238"/>
            <path id="Path_14121" data-name="Path 14121" d="M350.033,193.924l4.665,1.151A14.673,14.673,0,0,0,358.1,186.8c.07-.692.777,3.545-1.034,8.864,4.922,1.213,11.616,2.861,17.479,4.253.622-2.27,1.306-4.346,1.306-4.346a26.665,26.665,0,0,0,0,4.665l2.333.552a92.154,92.154,0,0,1,2.6-9.68,32.07,32.07,0,0,0,.731,10.45c3.732.84,6.22,1.322,6.088,1.112-4.214-7.729.778-10.543.4-16.6-.412-7.262-6.065-9.657-4.751-14.773,1.058-4.144,3.258-11.608-1.656-14.4a10.411,10.411,0,0,0-10.566-4.556c-9.042,1.345-8.6,14.959-9.75,17.447-1.64,3.561-3.709,4.486-5.987,8.459s-1.019,7.332-1.438,10.333S349.1,193.706,350.033,193.924Z" transform="translate(-281.409 -88.015)" fill="#263238"/>
            <path id="Path_14122" data-name="Path 14122" d="M397.332,207.009a15.036,15.036,0,0,1-1-4.059,7.775,7.775,0,0,1,.879-3.888,41.1,41.1,0,0,0,1.609-3.973,11.139,11.139,0,0,0,.537-4.393,9.844,9.844,0,0,0-1.423-4.206,26.332,26.332,0,0,0-2.6-3.429A15.877,15.877,0,0,1,393,179.656a7.619,7.619,0,0,1-.669-4.066,7.194,7.194,0,0,0,.187,4.261,14.362,14.362,0,0,0,2.177,3.724,32.316,32.316,0,0,1,2.333,3.437,9.327,9.327,0,0,1,1.205,3.786,11.025,11.025,0,0,1-.474,3.973c-.373,1.322-.917,2.612-1.407,3.958a14.206,14.206,0,0,0-.606,2.1,6.273,6.273,0,0,0,0,2.224A12.292,12.292,0,0,0,397.332,207.009Z" transform="translate(-290.797 -93.191)" fill="#263238"/>
            <path id="Path_14123" data-name="Path 14123" d="M364.879,157.21a22,22,0,0,0-2.239,4.735c-.583,1.648-1.089,3.32-1.555,4.992l-.739,2.488a13.109,13.109,0,0,1-.917,2.333,14.12,14.12,0,0,1-3.234,3.81,19.043,19.043,0,0,0-1.9,1.928,12,12,0,0,0-1.485,2.286,18.659,18.659,0,0,0-.941,2.527,11.057,11.057,0,0,0-.443,2.667c0,.9,0,1.78.054,2.636a13.775,13.775,0,0,1-.155,2.535,5.318,5.318,0,0,1-3.009,3.888,5.443,5.443,0,0,0,3.538-3.74,13.273,13.273,0,0,0,.358-2.644,23.4,23.4,0,0,1,.093-2.581,13.856,13.856,0,0,1,1.47-4.774,11.751,11.751,0,0,1,1.376-2.06,19.444,19.444,0,0,1,1.773-1.812c.63-.591,1.283-1.2,1.882-1.882a11.275,11.275,0,0,0,1.555-2.263,14.649,14.649,0,0,0,.91-2.542c.241-.847.443-1.695.645-2.542.412-1.687.777-3.382,1.26-5.054A25.566,25.566,0,0,1,364.879,157.21Z" transform="translate(-281.055 -89.133)" fill="#263238"/>
            <path id="Path_14124" data-name="Path 14124" d="M366.028,194.981c-5.03,6.92-16.149,24.655-24.678,25.293-6.881.513-21.475-13.513-25.285-17.292-2.48-2.465,9.633-17.673,12.324-15.208,3.46,3.188,11.982,14.516,13.809,14.516,1.011,0,7.106-3.67,18.925-11.593C365.7,187.618,369.029,190.852,366.028,194.981Z" transform="translate(-273.807 -95.818)" fill="#d3766a"/>
            <path id="Path_14125" data-name="Path 14125" d="M304.175,192.821c2.426,3.382,10.108,8.351,12.44,8.833s11.2-12.285,10.465-14.594-9.8-13.062-13.886-14.205S301.655,189.322,304.175,192.821Z" transform="translate(-271.122 -92.578)" fill="#d3766a"/>
            <rect id="Rectangle_6507" data-name="Rectangle 6507" width="2.83" height="110.376" transform="translate(36.79 122.606) rotate(-163.24)" fill="#a6a6a6"/>
            <path id="Path_14126" data-name="Path 14126" d="M347.96,80.164l3.926,1.19,2.387-10.776-2.348-.708Z" transform="translate(-280.977 -69.87)" fill="#dbdbdb"/>
            <path id="Path_14127" data-name="Path 14127" d="M287.714,236.706c7.262,2.185,12.759-2.333,14.439-7.9l2.154-7.153-3.942-1.19-2.154,7.153c-.777,2.706-3.693,6.834-9.33,5.139-4.976-1.493-5.093-6.928-4.37-9.33l2.029-6.757-3.942-1.19-2.037,6.764a13.38,13.38,0,0,0,.194,7.775A10.17,10.17,0,0,0,287.714,236.706Z" transform="translate(-265.874 -102)" fill="#263238"/>
            <path id="Path_14128" data-name="Path 14128" d="M261.81,98.484s10.108-1.337,15.55.466S291.7,107.5,291.7,107.5s10.154-.816,15.83.731,13.047,7.962,13.047,7.962,9.7-1.291,15.278.568,13.591,8.125,13.591,8.125,11.118-.684,16.67.777,13.218,8.187,13.218,8.187c-3.647-20.993-19.741-45.827-47.747-54.255S276.412,83.012,261.81,98.484Z" transform="translate(-261.81 -71.411)" fill="#455a64"/>
            <path id="Path_14129" data-name="Path 14129" d="M261.81,98.814c2.6-1.695,5.241-3.343,7.923-4.922s5.357-3.11,8.086-4.665a113.277,113.277,0,0,1,16.9-7.721,36.956,36.956,0,0,1,8.973-2.076c3.11-.311,6.22-.42,9.284-.5s6.22,0,9.33.171,6.22.4,9.284.778a108.685,108.685,0,0,0-18.6-1.6c-3.11,0-6.22.109-9.33.389a37.322,37.322,0,0,0-9.167,2.045,83.466,83.466,0,0,0-8.646,3.615c-2.815,1.345-5.59,2.776-8.288,4.339A170.108,170.108,0,0,0,261.81,98.814Z" transform="translate(-261.81 -71.741)" fill="#37474f"/>
            <path id="Path_14130" data-name="Path 14130" d="M300.24,108.286c1.12-1.8,2.286-3.553,3.538-5.248s2.511-3.39,3.888-5a48.927,48.927,0,0,1,9.019-8.693A49.69,49.69,0,0,1,328,83.9c1.975-.715,3.989-1.353,6.018-1.928s4.066-1.112,6.127-1.555a77.91,77.91,0,0,0-12.355,2.916,47.271,47.271,0,0,0-11.585,5.31,22.4,22.4,0,0,0-2.527,1.99c-.778.7-1.555,1.446-2.333,2.193a58.453,58.453,0,0,0-4.214,4.782A69.128,69.128,0,0,0,300.24,108.286Z" transform="translate(-270.36 -72.217)" fill="#37474f"/>
            <path id="Path_14131" data-name="Path 14131" d="M337.37,116.965c1.081-3,2.076-6.026,3.056-9.05s1.9-6.08,2.846-9.112,1.8-6.1,2.659-9.167l1.259-4.611c.4-1.555.816-3.11,1.182-4.665-.544,1.493-1.042,3.009-1.555,4.51l-1.485,4.541c-.98,3.025-1.889,6.08-2.838,9.112s-1.812,6.1-2.667,9.175S338.124,113.871,337.37,116.965Z" transform="translate(-278.621 -72.204)" fill="#37474f"/>
            <path id="Path_14132" data-name="Path 14132" d="M399.277,134.674a170.356,170.356,0,0,0-7.526-17.105c-1.392-2.783-2.908-5.513-4.509-8.187a82.813,82.813,0,0,0-5.217-7.775,37.054,37.054,0,0,0-6.516-6.733q-3.662-2.923-7.581-5.489a109.42,109.42,0,0,0-16.4-8.934q4.191,2.068,8.187,4.463t7.853,5c2.543,1.773,5.069,3.577,7.464,5.544a36.908,36.908,0,0,1,6.337,6.687,111.84,111.84,0,0,1,9.82,15.768c1.469,2.737,2.861,5.513,4.2,8.319S398.033,131.82,399.277,134.674Z" transform="translate(-281.771 -72.224)" fill="#37474f"/>
            <path id="Path_14133" data-name="Path 14133" d="M369.389,125.669a68.467,68.467,0,0,0,.125-12.689,55.744,55.744,0,0,0-.871-6.313c-.21-1.042-.436-2.084-.723-3.11a22.313,22.313,0,0,0-1-3.056,47.475,47.475,0,0,0-6.694-10.839,77.686,77.686,0,0,0-8.693-9.252c1.462,1.555,2.877,3.11,4.237,4.712s2.7,3.234,3.958,4.922a49.842,49.842,0,0,1,6.43,10.769,48.878,48.878,0,0,1,2.729,12.23c.241,2.084.381,4.191.459,6.3S369.452,123.554,369.389,125.669Z" transform="translate(-281.771 -72.215)" fill="#37474f"/>
            <path id="Path_14134" data-name="Path 14134" d="M315.77,174.635c.723,2.084-2.146,1.734-2.146,1.734s4.012,1.5,3.888,3.934-3.545,1.812-3.794,1.773c.21.078,3.888,1.555,3.522,3.989s-3.732,1.4-3.95,1.322c.179.14,2.465,2.022,1.788,3.81-1.174,3.11-7.169-1.555-9.8-1.1,0,0,.249,4.549.233,4.665,0,0-5.793-4.3-6.22-7.884a2.332,2.332,0,0,1,1.5-2.465s-2.022-1.174-1.812-3.11c.109-1,1.8-1.695,1.8-1.695a2.908,2.908,0,0,1-1.291-2.721c.233-1.361,1.882-1.858,1.882-1.858s-1.065-1.672-.373-2.986C302.42,169.41,314.231,170.172,315.77,174.635Z" transform="translate(-270.075 -92.079)" fill="#d3766a"/>
            <path id="Path_14135" data-name="Path 14135" d="M302.44,176.08v-.062a20.534,20.534,0,0,1,12.1,1.508c.117.054.078.272-.07.233A42.042,42.042,0,0,0,302.44,176.08Z" transform="translate(-270.85 -93.234)" fill="#263238"/>
            <path id="Path_14136" data-name="Path 14136" d="M301.27,182.088c-.047,0-.047-.078,0-.085a19.275,19.275,0,0,1,13.125,2.465c.132.086.171.3,0,.21C311.65,183.2,305.1,182.01,301.27,182.088Z" transform="translate(-270.581 -94.566)" fill="#263238"/>
            <path id="Path_14137" data-name="Path 14137" d="M314.113,191.533a26.5,26.5,0,0,0-12.526-3.273c-.062,0-.054-.086,0-.093a17.274,17.274,0,0,1,7.184.443,11.881,11.881,0,0,1,5.443,2.791C314.253,191.456,314.191,191.58,314.113,191.533Z" transform="translate(-270.65 -95.938)" fill="#263238"/>
            <path id="Path_14138" data-name="Path 14138" d="M315.428,178a13.886,13.886,0,0,1,2.115,1.275,4.463,4.463,0,0,1,1.555,1.781,1.554,1.554,0,0,1,0,1.065,2.14,2.14,0,0,1-.622.894,2.636,2.636,0,0,1-2.1.451l-1.788-.3,1.555.9a7.441,7.441,0,0,1,1.866,1.5,2.628,2.628,0,0,1,.778,2.022,1.555,1.555,0,0,1-1.291,1.4,4.665,4.665,0,0,1-2.278-.3l-2.014-.739,1.656,1.345a6.908,6.908,0,0,1,1.229,1.291,2.83,2.83,0,0,1,.614,1.555,1.353,1.353,0,0,1-.7,1.252,2.946,2.946,0,0,1-1.679.124,23.161,23.161,0,0,1-3.577-1c-.6-.194-1.2-.389-1.8-.56a4.518,4.518,0,0,0-1.874-.21,4.765,4.765,0,0,1,1.819.381c.591.21,1.166.451,1.742.692a20.7,20.7,0,0,0,3.608,1.213,3.538,3.538,0,0,0,2.022-.085,1.944,1.944,0,0,0,1.1-1.812,3.492,3.492,0,0,0-.715-1.92,7.453,7.453,0,0,0-1.345-1.454l-.358.614a5.224,5.224,0,0,0,2.682.373,2.177,2.177,0,0,0,1.306-.7,2.526,2.526,0,0,0,.575-1.353,3.359,3.359,0,0,0-.98-2.558,8.076,8.076,0,0,0-2.084-1.617l-.21.6a3.164,3.164,0,0,0,2.566-.684,2.767,2.767,0,0,0,.715-1.159,1.928,1.928,0,0,0-.1-1.353,4.664,4.664,0,0,0-1.788-1.812,11.657,11.657,0,0,0-2.2-1.112Z" transform="translate(-271.88 -93.734)" fill="#263238"/>
            <path id="Path_14139" data-name="Path 14139" d="M328.188,185.863s-8.965-19.733-13.575-13.583c-1.376,1.827-4.821,10.971-3,11.663,2.332.941,4.51-2.6,5.5-5.046,0,0,1.975,5.738,6.383,5.551A7.775,7.775,0,0,1,328.188,185.863Z" transform="translate(-272.775 -92.21)" fill="#d3766a"/>
            <path id="Path_14140" data-name="Path 14140" d="M314.91,172a9.5,9.5,0,0,0-1.555,2.193,20.649,20.649,0,0,0-1.12,2.465,31.643,31.643,0,0,0-1.555,5.186,5.142,5.142,0,0,0-.085,1.438,2.022,2.022,0,0,0,.249.778,1.216,1.216,0,0,0,.3.35,1.557,1.557,0,0,0,.381.233,2.332,2.332,0,0,0,1.555,0,4.291,4.291,0,0,0,1.267-.777,8.3,8.3,0,0,0,1.734-2.185,17.861,17.861,0,0,0,1.182-2.465h-.583a10.36,10.36,0,0,0,.925,1.858,9.731,9.731,0,0,0,1.244,1.633,6.863,6.863,0,0,0,1.617,1.26,5.2,5.2,0,0,0,1.92.645,5.961,5.961,0,0,1-1.8-.832,7.346,7.346,0,0,1-1.438-1.337,10.482,10.482,0,0,1-1.1-1.625,11.34,11.34,0,0,1-.778-1.8l-.241-.777-.342.777a19.6,19.6,0,0,1-1.213,2.333,7.992,7.992,0,0,1-1.61,1.975,2.216,2.216,0,0,1-2.076.622c-.583-.187-.552-1.166-.428-1.99a25.084,25.084,0,0,1,.56-2.581c.226-.863.451-1.726.731-2.566A17.1,17.1,0,0,1,314.91,172Z" transform="translate(-272.66 -92.412)" fill="#263238"/>
            <path id="Path_14141" data-name="Path 14141" d="M330.707,189,318.57,206.883s17,14.687,23.916,14.633,17.105-15.651,22.33-22.369c5.512-7.114,4.2-13.218-4.735-7.775s-16.67,10.341-17.028,10.4S330.707,189,330.707,189Z" transform="translate(-274.438 -96.148)" fill="#00a3b1"/>
            <path id="Path_14142" data-name="Path 14142" d="M365.053,189.958a.521.521,0,0,1-1.034,0,.458.458,0,0,1,.054-.226,7.7,7.7,0,0,1,.777-.2A.521.521,0,0,1,365.053,189.958ZM324.622,201a.513.513,0,1,0,.513.513A.513.513,0,0,0,324.622,201Zm7.977,0a.5.5,0,1,0,.031,0Zm7.977,0a.5.5,0,1,0,.031,0Zm7.977,0a.5.5,0,1,0,.031,0Zm7.97,0a.513.513,0,1,0,.513.513A.513.513,0,0,0,356.523,201Zm-27.913-5.971a.521.521,0,1,0,.513.521.513.513,0,0,0-.482-.521Zm8.008,0h0a.521.521,0,1,0,.513.521h0Zm23.893,0a.506.506,0,1,0,.031,0Zm-39.879,11.554a.5.5,0,1,0,.031,0Zm11.966,5.964a.5.5,0,1,0,.031,0Zm7.977,0a.5.5,0,1,0,.031,0Zm7.977,0a.5.5,0,1,0,.031,0Zm-19.943-5.964a.5.5,0,1,0,.031,0Zm7.977,0a.513.513,0,1,0,.513.513A.513.513,0,0,0,336.588,206.581Zm7.977,0a.513.513,0,1,0,.513.513A.513.513,0,0,0,344.565,206.581Zm7.97,0a.513.513,0,1,0,.521.513.521.521,0,0,0-.49-.513Zm-15.947,11.554a.5.5,0,1,0,.031,0Zm7.977,0a.5.5,0,1,0,.031,0Z" transform="translate(-274.783 -96.268)" fill="#fff"/>
            <path id="Path_14143" data-name="Path 14143" d="M330.1,202.733c.925-1.33,4.533-6.694,5.271-8.109,0-.047-.047-.078-.078-.047-1.073,1.205-4.836,6.5-5.761,7.837-1.835,2.667-3.732,5.334-5.326,8.164,0,.062.055.124.093.078C326.379,208.121,328.245,205.415,330.1,202.733Z" transform="translate(-275.693 -97.389)" fill="#263238"/>
            <path id="Path_14144" data-name="Path 14144" d="M370.114,199.181C364.9,205.9,354.7,221.5,347.784,221.55a13.447,13.447,0,0,1-5.4-1.625L369.7,189.478C374.569,188.389,374.561,193.458,370.114,199.181Z" transform="translate(-279.736 -96.221)" opacity="0.1"/>
            <path id="Path_14145" data-name="Path 14145" d="M362,230.147l40.143,1.4s-9.96-33.519-18.326-42.452c-3.8-4.066-7.519-3.444-10.675-.832-.778.653-10.535,13.031-11.36,17.346-.731,3.81,2.333,8.039,2.333,8.039Z" transform="translate(-284.026 -95.514)" fill="#00a3b1"/>
            <path id="Path_14146" data-name="Path 14146" d="M377.155,221.149a34.262,34.262,0,0,0-5.132-.085c-.847.062-1.687.163-2.535.28l-1.26.14a5.075,5.075,0,0,1-1.329,0v.062a9.654,9.654,0,0,0,1.244.2,9.012,9.012,0,0,0,1.213,0c.863-.054,1.726-.148,2.581-.21,1.742-.124,3.476-.249,5.225-.249C377.233,221.289,377.233,221.157,377.155,221.149Z" transform="translate(-285.191 -103.239)" fill="#263238"/>
            <path id="Path_14147" data-name="Path 14147" d="M382.684,223.7a37.8,37.8,0,0,0-4.129-.956c-.7-.117-1.392-.194-2.1-.249-.334,0-.677-.054-1.011-.07s-.777,0-1.112,0c0,0-.054.055,0,.062a6.951,6.951,0,0,1,1.042.179l1.042.163c.7.109,1.392.225,2.091.326,1.392.2,2.783.42,4.168.677C382.738,223.835,382.754,223.727,382.684,223.7Z" transform="translate(-286.839 -103.551)" fill="#263238"/>
            <path id="Path_14148" data-name="Path 14148" d="M374.3,189.933a.521.521,0,1,1-.521-.513.513.513,0,0,1,.521.513Zm7.456-.513a.513.513,0,1,0,.513.513A.513.513,0,0,0,381.758,189.42Zm-15.939,11.554a.513.513,0,1,0,.513.513A.513.513,0,0,0,365.819,200.974Zm7.977,0a.513.513,0,1,0,.513.513A.513.513,0,0,0,373.8,200.974Zm7.977,0a.533.533,0,1,1-.016,0Zm7.977,0a.513.513,0,1,0,.513.513.505.505,0,0,0-.529-.513ZM369.807,195a.541.541,0,1,1-.016,0Zm7.977,0a.521.521,0,1,0,.457.517A.521.521,0,0,0,377.785,195Zm7.977,0a.521.521,0,1,0,.457.517A.521.521,0,0,0,385.762,195ZM365.819,212.52a.521.521,0,1,0,.521.513A.521.521,0,0,0,365.819,212.52Zm7.977,0a.541.541,0,1,1-.016,0Zm7.977,0a.521.521,0,1,1-.016,0Zm7.977,0a.521.521,0,1,0,.513.513.513.513,0,0,0-.529-.513Zm-27.921-5.964h-.07a6.246,6.246,0,0,0-.07,1,.406.406,0,0,0,.14,0,.513.513,0,1,0,0-1.026Zm7.977,0a.513.513,0,1,0,.521.513.521.521,0,0,0-.537-.513Zm7.977,0a.513.513,0,1,0,.513.513A.513.513,0,0,0,377.785,206.556Zm7.977,0a.513.513,0,1,0,.513.513A.513.513,0,0,0,385.762,206.556Zm7.472.428a.293.293,0,0,0,0,.085.505.505,0,0,0,.218.42,3.054,3.054,0,0,1-.233-.513Zm-27.415,17.1a.513.513,0,1,0,.521.513A.521.521,0,0,0,365.819,224.082Zm7.977,0a.513.513,0,1,0,.521.513.521.521,0,0,0-.536-.513Zm7.977,0a.513.513,0,1,0,.513.513.513.513,0,0,0-.513-.513Zm7.977,0a.533.533,0,1,1-.016,0Zm7.946,0a.513.513,0,1,0,.513.513A.513.513,0,0,0,397.7,224.082Zm-27.921-5.964a.513.513,0,1,0,.513.513.513.513,0,0,0-.513-.513Zm7.977,0a.381.381,0,1,0,.016-.008Zm7.978,0a.38.38,0,1,0,.015-.008Zm7.977,0a.513.513,0,1,0,.513.513.505.505,0,0,0-.5-.521Zm-31.583,11.663-.109.871a.529.529,0,0,0,.3-.474.5.5,0,0,0-.179-.4Zm7.651-.117a.383.383,0,1,0,.016-.008Zm7.977,0a.379.379,0,1,0,.016-.008Zm7.977,0a.379.379,0,1,0,.015-.008Zm7.977,0a.521.521,0,1,0,.513.513.513.513,0,0,0-.5-.521Zm7.651.117a.513.513,0,0,0-.187.4.521.521,0,0,0,.474.521c-.062-.28-.163-.591-.272-.925Z" transform="translate(-284.032 -96.233)" fill="#fff"/>
            <path id="Path_14149" data-name="Path 14149" d="M366.823,199.424A41.9,41.9,0,0,0,364.452,203c.3-.7.583-1.4.824-2.115,0,0,0-.047-.047,0-.257.513-.513,1.019-.731,1.555s-.381.949-.552,1.423h0a19.042,19.042,0,0,0-2.216,4.556,8.77,8.77,0,0,0,.093,4.463,10.8,10.8,0,0,0,.84,2.146,6.844,6.844,0,0,0,1.143,1.711c-.264,1.555-.443,3.11-.645,4.618a36.727,36.727,0,0,0-.466,4.525c0,.093.132.1.163,0l.093-.327v-.047c.334-1.392.474-2.838.669-4.245s.568-4.51.568-4.525-.7-1.283-.972-1.858a13.232,13.232,0,0,1-.777-2.208,8.288,8.288,0,0,1-.085-4.377,20.684,20.684,0,0,1,2.06-4.408c.824-1.477,1.672-2.947,2.527-4.408C366.947,199.44,366.862,199.37,366.823,199.424Z" transform="translate(-283.986 -98.449)" fill="#263238"/>
            <rect id="Rectangle_6508" data-name="Rectangle 6508" width="26.044" height="33.905" transform="matrix(0.856, -0.517, 0.517, 0.856, 68.072, 130.219)" fill="#263238"/>
            <rect id="Rectangle_6509" data-name="Rectangle 6509" width="12.285" height="3.724" transform="translate(83.715 121.715) rotate(148.72)" fill="#a6a6a6"/>
            <path id="Path_14150" data-name="Path 14150" d="M356.091,226.55l1.291-.785-.894-1.469,3.149-1.9.886,1.462,1.291-.778-1.625-2.675-5.738,3.491Z" transform="translate(-282.421 -103.101)" fill="#a6a6a6"/>
            <path id="Path_14151" data-name="Path 14151" d="M386.956,189.957c8.988,7.441,27.213,25.806,24.041,31.622-5.155,9.563-20.5,20.511-25.471,23.108-2.169,1.127-14-13.622-12.16-15.473,2.224-2.216,19.1-12.324,18.66-13.871-.249-.871-3.981-7.775-7.9-16.888C379.593,187.9,382.672,186.42,386.956,189.957Z" transform="translate(-286.586 -95.958)" fill="#d3766a"/>
            <path id="Path_14152" data-name="Path 14152" d="M350.868,248.547a2.993,2.993,0,0,0,2.286,2.542,4.447,4.447,0,0,0-.373,3c.49,1.757,3.468,1.765,3.468,1.765a5.441,5.441,0,0,0,.109,3.219c.637,1.641,3.646,2.076,3.646,2.076a4.789,4.789,0,0,0,1.882,2.768c2.581,1.687,6.85-.3,9.579-1.555s9.33-7.285,10.675-8.312l-7.775-17.572s-13.8,2.053-16.8,3.958C355.051,242.024,350.666,246.215,350.868,248.547Z" transform="translate(-281.623 -106.627)" fill="#d3766a"/>
            <path id="Path_14153" data-name="Path 14153" d="M353.792,253.183c2.278-2.333,5.132-3.887,7.884-5.606.062-.039.124.054.062.093-2.76,1.664-5.155,3.887-7.845,5.637a.08.08,0,1,1-.1-.124Z" transform="translate(-282.268 -109.098)" fill="#263238"/>
            <path id="Path_14154" data-name="Path 14154" d="M357.723,259.747a8.605,8.605,0,0,1,1.874-1.213c.692-.381,1.392-.777,2.1-1.112q2.107-1.081,4.284-2.053c.062,0,.116.062.054.093-1.407.723-2.8,1.462-4.167,2.239-.692.4-1.376.778-2.053,1.19a10.428,10.428,0,0,1-1.975,1.042.117.117,0,0,1-.117-.187Z" transform="translate(-283.143 -110.822)" fill="#263238"/>
            <path id="Path_14155" data-name="Path 14155" d="M362.688,266.994a6,6,0,0,1,1.75-1c.645-.311,1.3-.63,1.944-.956,1.291-.645,2.581-1.283,3.849-1.975.062,0,.124.062.054.093-1.283.708-2.558,1.431-3.849,2.13l-1.9,1.011a5.62,5.62,0,0,1-1.812.778S362.665,267.017,362.688,266.994Z" transform="translate(-284.253 -112.52)" fill="#263238"/>
            <path id="Path_14156" data-name="Path 14156" d="M380.39,224.857,393.1,242.134s18.5-14.236,20.332-21.529c1.641-6.547-18.948-26.436-23.5-30.214s-8.156-3.685-5.878,3.888,8.926,20.752,8.98,20.993S380.39,224.857,380.39,224.857Z" transform="translate(-288.192 -95.896)" fill="#00a3b1"/>
            <path id="Path_14157" data-name="Path 14157" d="M387.866,189.933a.513.513,0,1,1-.513-.513A.513.513,0,0,1,387.866,189.933Zm7.464,11.041a.513.513,0,1,0,.513.513.506.506,0,0,0-.513-.513ZM391.342,195a.521.521,0,1,0,.457.517A.521.521,0,0,0,391.342,195Zm3.989,17.517a.521.521,0,1,0,.513.513A.513.513,0,0,0,395.331,212.52Zm7.977,0a.521.521,0,1,0,.513.513.514.514,0,0,0-.529-.513Zm7.977,0a.521.521,0,1,0,.457.517.521.521,0,0,0-.457-.517Zm-19.943-5.964a.513.513,0,1,0,.513.513A.513.513,0,0,0,391.342,206.556Zm7.977,0a.513.513,0,1,0,.513.513A.513.513,0,0,0,399.319,206.556Zm8.366.847a.513.513,0,0,1-.9-.334.505.505,0,0,1,.257-.443Zm-20.332,16.678a.513.513,0,1,0,.513.513A.513.513,0,0,0,387.353,224.082Zm7.977,0a.513.513,0,1,0,.513.513A.513.513,0,0,0,395.331,224.082Zm7.962,0a.513.513,0,1,0,.513.513.513.513,0,0,0-.513-.513Zm7.977,0a.505.505,0,1,0,.015,0Zm-19.943-5.964a.38.38,0,1,0,.016-.008Zm7.977,0a.513.513,0,1,0,.513.513.506.506,0,0,0-.5-.521Zm7.977,0a.513.513,0,1,0,.513.513A.513.513,0,0,0,407.281,218.118Zm-11.966,17.51a.521.521,0,1,0,.513.521.513.513,0,0,0-.5-.529Zm-3.989-5.964a.38.38,0,1,0,.016-.008Zm7.977,0a.521.521,0,1,0,.513.513.513.513,0,0,0-.5-.521Zm7.977,0a.521.521,0,1,0,.458.517A.521.521,0,0,0,407.281,229.664Z" transform="translate(-289.627 -96.228)" fill="#fff"/>
            <path id="Path_14158" data-name="Path 14158" d="M392.187,239.791c-.941-1.33-4.758-6.539-5.839-7.721-.039,0-.093,0-.07.054.778,1.423,4.471,6.764,5.443,8.086,1.889,2.644,3.748,5.326,5.87,7.775.047.047.14,0,.109-.07C396.028,245.078,394.077,242.419,392.187,239.791Z" transform="translate(-289.501 -105.667)" fill="#263238"/>
            <path id="Path_14159" data-name="Path 14159" d="M389.344,210.168c-1.275-2.784-2.5-5.6-3.724-8.4,0-.054-.117,0-.093,0q.824,2.434,1.8,4.813c-.482-.778-.941-1.555-1.384-2.379,0-.062-.117,0-.086.047a17.4,17.4,0,0,0,1.781,3.11c.4.956.778,1.92,1.229,2.869.622,1.392,3.507,7.456,3.888,8.125-2.255,1.454-4.168,3.04-6.329,4.618-1.057.778-2.115,1.555-3.157,2.333a31.732,31.732,0,0,0-3.2,2.441c-.054.054.241.3.35.435s.163,0,.124-.047l-.117-.194c.544-.3,2.636-1.866,3.18-2.255l3.165-2.333c2.146-1.555,6.6-4.844,6.586-4.875C393.092,217.85,389.974,211.583,389.344,210.168Z" transform="translate(-288.119 -98.964)" fill="#263238"/>
            <path id="Path_14160" data-name="Path 14160" d="M383.038,185.056c-.163.715-3.522,5.4-6.788,5.279-1.065,0-1.1-5.862-1.1-5.862l-.109-.428-1.407-6,7-4.618,1.011-.614s.28,1.672.606,3.748l.047.3a2.721,2.721,0,0,1,.054.334c.055.311.109.63.156.941s.07.482.1.731l.093.777A39.271,39.271,0,0,1,383.038,185.056Z" transform="translate(-286.688 -92.588)" fill="#d3766a"/>
            <path id="Path_14161" data-name="Path 14161" d="M382.268,176.558a12.363,12.363,0,0,1-7.231,7.487l-1.407-6,7-4.618,1.011-.614S381.942,174.513,382.268,176.558Z" transform="translate(-286.688 -92.592)" fill="#263238"/>
            <path id="Path_14162" data-name="Path 14162" d="M361.906,162.244c-3.11,10.372,2.776,13.4,5.015,14.058,2.037.606,9.027,2.395,13.171-7.6s.3-14.726-4.276-16.328S364.993,151.864,361.906,162.244Z" transform="translate(-283.882 -87.941)" fill="#d3766a"/>
            <path id="Path_14163" data-name="Path 14163" d="M364.641,163.209a4.568,4.568,0,0,1,.777.047,1.19,1.19,0,0,0,.778-.1.4.4,0,0,0,.124-.451.956.956,0,0,0-.855-.466,1.415,1.415,0,0,0-.98.249.412.412,0,0,0,.156.723Z" transform="translate(-284.619 -90.261)" fill="#263238"/>
            <path id="Path_14164" data-name="Path 14164" d="M373.626,165.6a5.428,5.428,0,0,1-.669-.342,1.2,1.2,0,0,1-.614-.474.4.4,0,0,1,.124-.451.949.949,0,0,1,.972,0,1.407,1.407,0,0,1,.715.708.4.4,0,0,1-.529.56Z" transform="translate(-286.396 -90.696)" fill="#263238"/>
            <path id="Path_14165" data-name="Path 14165" d="M370.824,168.7s.047.047,0,.078c-.233.7-.381,1.555.187,1.967h0C370.287,170.434,370.5,169.322,370.824,168.7Z" transform="translate(-285.997 -91.69)" fill="#263238"/>
            <path id="Path_14166" data-name="Path 14166" d="M371.693,168c1.158.257.568,2.558-.505,2.333S370.729,167.778,371.693,168Z" transform="translate(-286.019 -91.531)" fill="#263238"/>
            <path id="Path_14167" data-name="Path 14167" d="M372.488,168.292c.171.179.3.459.544.544a.916.916,0,0,0,.778-.272h0c-.109.443-.4.855-.886.778s-.653-.521-.653-1C372.317,168.323,372.418,168.214,372.488,168.292Z" transform="translate(-286.386 -91.594)" fill="#263238"/>
            <path id="Path_14168" data-name="Path 14168" d="M365.508,167.19s-.062,0-.07.054c-.155.715-.459,1.555-1.158,1.594v.039C365.089,168.963,365.477,167.9,365.508,167.19Z" transform="translate(-284.608 -91.357)" fill="#263238"/>
            <path id="Path_14169" data-name="Path 14169" d="M364.913,165.988c-1.135-.373-1.8,1.913-.778,2.255S365.854,166.323,364.913,165.988Z" transform="translate(-284.464 -91.082)" fill="#263238"/>
            <path id="Path_14170" data-name="Path 14170" d="M364.249,165.871c-.218.07-.459.241-.684.194s-.365-.358-.459-.645h-.039c-.14.435-.124.933.272,1.135s.777-.1.98-.513C364.358,166.019,364.334,165.871,364.249,165.871Z" transform="translate(-284.32 -90.966)" fill="#263238"/>
            <path id="Path_14171" data-name="Path 14171" d="M368.659,176.247c-.2.132-.428.334-.692.3a1.906,1.906,0,0,1-.739-.35h-.039a.987.987,0,0,0,.832.583.778.778,0,0,0,.7-.521S368.69,176.231,368.659,176.247Z" transform="translate(-285.255 -93.346)" fill="#263238"/>
            <path id="Path_14172" data-name="Path 14172" d="M365.94,173.778a3.025,3.025,0,0,0,.848,1.267,1.344,1.344,0,0,0,.777.311c.614.039.778-.474.848-.949a3.28,3.28,0,0,0,0-.778,3.95,3.95,0,0,1-2.473.148Z" transform="translate(-284.977 -92.778)" fill="#263238"/>
            <path id="Path_14173" data-name="Path 14173" d="M367,175.25a1.345,1.345,0,0,0,.778.311c.614.039.778-.474.848-.949A1.4,1.4,0,0,0,367,175.25Z" transform="translate(-285.213 -92.982)" fill="#ff97b8"/>
            <path id="Path_14174" data-name="Path 14174" d="M365.788,169.954a15.041,15.041,0,0,0-.568,1.555c0,.047.1.109.264.163h0a2.473,2.473,0,0,0,2.558-.272c.047-.039,0-.109-.062-.085a3.708,3.708,0,0,1-2.332,0c0-.148.777-1.726.723-1.749a4.392,4.392,0,0,0-1.213-.054c.84-2.154,2.022-4.16,2.83-6.321a.071.071,0,0,0-.125-.07,37.53,37.53,0,0,0-3.336,6.687C364.427,170.086,365.562,170.016,365.788,169.954Z" transform="translate(-284.662 -90.446)" fill="#263238"/>
            <path id="Path_14175" data-name="Path 14175" d="M379.887,168.29c-2.488-.505-1.633-4.424-1.633-4.424s-2.76-.855-2-5.443a7.045,7.045,0,0,1-5.878,2.2c-.84-.062,2.332-1.555,2.332-1.555s-3.888,2.239-9.664-.163c-.412-.171,1.858-6.337,7.052-7.5a10.265,10.265,0,0,1,11.476,4.6s3.11,2.332,2.814,5.7S380.883,168.492,379.887,168.29Z" transform="translate(-284.323 -87.796)" fill="#263238"/>
            <path id="Path_14176" data-name="Path 14176" d="M383.478,176.7a2.382,2.382,0,0,1-.513,0,1.671,1.671,0,0,1-.505-.093,1.484,1.484,0,0,1-.568-.319,2.275,2.275,0,0,1-.342-.4,2.2,2.2,0,0,1-.28-.676l1.174-2.714s2.993-2.83,4.323-1.695S385.383,176.409,383.478,176.7Z" transform="translate(-288.388 -92.092)" fill="#d3766a"/>
            <path id="Path_14177" data-name="Path 14177" d="M386.243,172.526v.047a4.665,4.665,0,0,0-2.923,2.333,1.011,1.011,0,0,1,1.555,0s0,.078-.047.062a1.112,1.112,0,0,0-1.291.132,5.5,5.5,0,0,0-.777.863c-.078.1-.264,0-.194-.117h0C382.838,174.291,384.517,172.332,386.243,172.526Z" transform="translate(-288.673 -92.531)" fill="#263238"/>
            <path id="Path_14178" data-name="Path 14178" d="M383.726,177.652a.5.5,0,1,1-.264-.653.49.49,0,0,1,.264.653Z" transform="translate(-288.722 -93.514)" fill="#fff"/>
            <path id="Path_14179" data-name="Path 14179" d="M385.333,177.015a.382.382,0,1,1-.187-.459.342.342,0,0,1,.187.459Z" transform="translate(-289.132 -93.415)" fill="#fff"/>
            <path id="Path_14180" data-name="Path 14180" d="M374.62,189.26l-3.53,6.01,4.346-1.508,3.444,3.577,3.592-8.778-6.982,5.046Z" transform="translate(-286.123 -96.07)" fill="#fff"/>
          </g>
        </g>
      </g>
    </g>
  </g>
</svg>
