<svg xmlns="http://www.w3.org/2000/svg" width="40" height="40" viewBox="0 0 40 40">
  <g id="Group_18123" data-name="Group 18123" transform="translate(5678.995 1076.995)">
    <circle id="Ellipse_934" data-name="Ellipse 934" cx="20" cy="20" r="20" transform="translate(-5678.995 -1076.995)" fill="#fce1ca"/>
    <g id="share" transform="translate(-5670.995 -1068.995)">
      <path id="Path_33753" data-name="Path 33753" d="M16.731,13.461a6.731,6.731,0,1,1,6.731-6.731A6.739,6.739,0,0,1,16.731,13.461Zm0-12.5A5.769,5.769,0,1,0,22.5,6.731,5.775,5.775,0,0,0,16.731.962Z" transform="translate(-0.385)" fill="#e27e28" stroke="#e27e28" stroke-width="0.3"/>
      <path id="Path_33757" data-name="Path 33757" d="M3.365,21.615H.481A.481.481,0,0,1,0,21.134V12.481A.481.481,0,0,1,.481,12a9.771,9.771,0,0,1,5.07,1.149.483.483,0,0,1,.2.521L3.832,21.253a.481.481,0,0,1-.466.362Zm-2.4-.962h2.03L4.731,13.8A9.646,9.646,0,0,0,.962,12.97Z" transform="translate(0 -0.462)" fill="#e27e28" stroke="#e27e28" stroke-width="0.3"/>
      <path id="Path_33758" data-name="Path 33758" d="M12.626,23.75c-2.269,0-6.656-1.908-9.071-3.046a.481.481,0,1,1,.411-.869c1.885.888,6.5,2.954,8.66,2.954,2.338,0,7.851-2.747,9.436-3.563a2.073,2.073,0,0,0-1.744-.763,11.558,11.558,0,0,0-3.1.7,12.2,12.2,0,0,1-3.389.743,17.022,17.022,0,0,1-4.732-.99.481.481,0,0,1,.329-.9,16.332,16.332,0,0,0,4.4.933,11.558,11.558,0,0,0,3.1-.7,12.2,12.2,0,0,1,3.389-.743,2.861,2.861,0,0,1,2.86,1.771.481.481,0,0,1-.23.577c-.3.158-7.352,3.9-10.322,3.9Z" transform="translate(-0.126 -0.674)" fill="#e27e28" stroke="#e27e28" stroke-width="0.3"/>
      <path id="Path_33759" data-name="Path 33759" d="M16.05,19.368a.481.481,0,0,1-.481-.481v-.481a1.422,1.422,0,0,0-1.1-1.4L5.187,14.769a.481.481,0,0,1-.355-.581.487.487,0,0,1,.58-.355l9.278,2.24a2.381,2.381,0,0,1,1.84,2.333v.481A.481.481,0,0,1,16.05,19.368Z" transform="translate(-0.186 -0.532)" fill="#e27e28" stroke="#e27e28" stroke-width="0.3"/>
      <path id="Path_33760" data-name="Path 33760" d="M12.807,7.3a.3.3,0,0,0-.3-.3H8.3a.3.3,0,1,0,0,.6H9.8A1.2,1.2,0,0,1,11,8.8H8.3a.3.3,0,1,0,0,.6h2.537A1.2,1.2,0,0,1,9.8,10H8.3a.3.3,0,0,0-.188.535l3,2.4a.3.3,0,0,0,.188.065.3.3,0,0,0,.188-.535L9.157,10.606H9.8a1.8,1.8,0,0,0,1.692-1.2h1.012a.3.3,0,0,0,0-.6h-.9a1.791,1.791,0,0,0-.469-1.2h1.37a.3.3,0,0,0,.3-.3Z" transform="translate(5.942 -3.274)" fill="#e27e28" stroke="#e27e28" stroke-width="0.3"/>
    </g>
  </g>
</svg>
