<svg xmlns="http://www.w3.org/2000/svg" width="40" height="40" viewBox="0 0 40 40">
  <g id="Group_18127" data-name="Group 18127" transform="translate(5678.86 737.86)">
    <circle id="Ellipse_932" data-name="Ellipse 932" cx="20" cy="20" r="20" transform="translate(-5678.86 -737.86)" fill="#fce1ca"/>
    <g id="tick-mark" transform="translate(-5668.93 -727.93)">
      <g id="Group_18038" data-name="Group 18038" transform="translate(0 1.73)">
        <path id="Path_33704" data-name="Path 33704" d="M7.353,16.706H2.163A2.165,2.165,0,0,1,0,14.544V4.163A2.165,2.165,0,0,1,2.163,2H15.139A2.165,2.165,0,0,1,17.3,4.163v3.46a.433.433,0,0,1-.865,0V4.163a1.3,1.3,0,0,0-1.3-1.3H2.163a1.3,1.3,0,0,0-1.3,1.3V14.544a1.3,1.3,0,0,0,1.3,1.3H7.353a.433.433,0,1,1,0,.865Z" transform="translate(0 -2)" fill="#e27e28" stroke="#e27e28" stroke-width="0.3"/>
      </g>
      <g id="Group_18039" data-name="Group 18039" transform="translate(0 5.191)">
        <path id="Path_33705" data-name="Path 33705" d="M16.869,6.865H.433A.433.433,0,0,1,.433,6H16.869a.433.433,0,1,1,0,.865Z" transform="translate(0 -6)" fill="#e27e28" stroke="#e27e28" stroke-width="0.3"/>
      </g>
      <g id="Group_18040" data-name="Group 18040" transform="translate(3.46)">
        <path id="Path_33706" data-name="Path 33706" d="M4.433,4.325A.433.433,0,0,1,4,3.893V.433a.433.433,0,0,1,.865,0v3.46A.433.433,0,0,1,4.433,4.325Z" transform="translate(-4 0)" fill="#e27e28" stroke="#e27e28" stroke-width="0.3"/>
      </g>
      <g id="Group_18041" data-name="Group 18041" transform="translate(12.976)">
        <path id="Path_33707" data-name="Path 33707" d="M15.433,4.325A.433.433,0,0,1,15,3.893V.433a.433.433,0,1,1,.865,0v3.46A.433.433,0,0,1,15.433,4.325Z" transform="translate(-15 0)" fill="#e27e28" stroke="#e27e28" stroke-width="0.3"/>
      </g>
      <g id="Group_18043" data-name="Group 18043" transform="translate(9.516 9.516)">
        <path id="Path_33709" data-name="Path 33709" d="M16.623,22.246a5.623,5.623,0,1,1,5.623-5.623A5.63,5.63,0,0,1,16.623,22.246Zm0-10.381a4.758,4.758,0,1,0,4.758,4.758A4.764,4.764,0,0,0,16.623,11.865Z" transform="translate(-11 -11)" fill="#e27e28" stroke="#e27e28" stroke-width="0.3"/>
      </g>
      <path id="Path_33710" data-name="Path 33710" d="M12.325,7.27a.27.27,0,0,0-.27-.27H8.27a.27.27,0,1,0,0,.541H9.622A1.082,1.082,0,0,1,10.7,8.622H8.27a.27.27,0,1,0,0,.541h2.283a1.078,1.078,0,0,1-.931.541H8.27a.271.271,0,0,0-.169.482l2.7,2.163a.273.273,0,0,0,.169.059.271.271,0,0,0,.169-.482l-2.1-1.681h.581a1.62,1.62,0,0,0,1.523-1.081h.91a.27.27,0,1,0,0-.541h-.811a1.612,1.612,0,0,0-.422-1.081h1.233a.27.27,0,0,0,.27-.27Z" transform="translate(4.977 5.436)" fill="#e27e28" stroke="#e27e28" stroke-width="0.3"/>
    </g>
  </g>
</svg>
