<svg xmlns="http://www.w3.org/2000/svg" width="96.004" height="96" viewBox="0 0 96.004 96">
  <g id="reduce_emi" transform="translate(-8219.999 -16846)">
    <g id="Rectangle_7304" data-name="Rectangle 7304" transform="translate(8220 16846)" fill="#e27e28" stroke="#707070" stroke-width="1" opacity="0">
      <rect width="96" height="96" stroke="none"/>
      <rect x="0.5" y="0.5" width="95" height="95" fill="none"/>
    </g>
    <g id="hosting-server" transform="translate(8219.999 16849)">
      <path id="Path_21009" data-name="Path 21009" d="M28,34.5c-13.576,0-28-4.208-28-12a2,2,0,0,1,4,0c0,3.34,9.128,8,24,8s24-4.66,24-8a2,2,0,0,1,4,0C56,30.292,41.577,34.5,28,34.5Z" transform="translate(0.001 57.502)" fill="#e27e28"/>
      <path id="Path_21010" data-name="Path 21010" d="M28,31.5c-13.576,0-28-4.208-28-12a2,2,0,0,1,4,0c0,3.34,9.128,8,24,8s24-4.66,24-8a2,2,0,0,1,4,0C56,27.292,41.577,31.5,28,31.5Z" transform="translate(0.001 48.502)" fill="#e27e28"/>
      <path id="Path_21011" data-name="Path 21011" d="M28,36C14.424,36,0,31.793,0,24S14.424,12,28,12s28,4.208,28,12S41.577,36,28,36Zm0-20C13.128,16,4,20.66,4,24s9.128,8,24,8,24-4.66,24-8S42.873,16,28,16Z" transform="translate(0.001 32.001)" fill="#e27e28"/>
      <path id="Path_21012" data-name="Path 21012" d="M2,42.5a2,2,0,0,1-2-2v-24a2,2,0,0,1,4,0v24A2,2,0,0,1,2,42.5Z" transform="translate(0.001 39.502)" fill="#e27e28"/>
      <path id="Path_21013" data-name="Path 21013" d="M15,42.5a2,2,0,0,1-2-2v-24a2,2,0,0,1,4,0v24A2,2,0,0,1,15,42.5Z" transform="translate(39.002 39.502)" fill="#e27e28"/>
      <path id="Path_21014" data-name="Path 21014" d="M38,22.5c-13.576,0-28-4.208-28-12a2,2,0,1,1,4,0c0,3.34,9.128,8,24,8s24-4.66,24-8a2,2,0,1,1,4,0C66,18.292,51.577,22.5,38,22.5Z" transform="translate(30.002 21.501)" fill="#e27e28"/>
      <path id="Path_21015" data-name="Path 21015" d="M23,28.5a58.21,58.21,0,0,1-6.212-.292,2,2,0,1,1,.424-3.976A55.5,55.5,0,0,0,23,24.5c14.872,0,24-4.66,24-8a2,2,0,0,1,4,0C51,24.292,36.577,28.5,23,28.5Z" transform="translate(45.003 39.502)" fill="#e27e28"/>
      <path id="Path_21016" data-name="Path 21016" d="M23,31.5a58.211,58.211,0,0,1-6.212-.292,2,2,0,1,1,.424-3.976A55.5,55.5,0,0,0,23,27.5c14.872,0,24-4.66,24-8a2,2,0,0,1,4,0C51,27.292,36.577,31.5,23,31.5Z" transform="translate(45.003 48.502)" fill="#e27e28"/>
      <path id="Path_21017" data-name="Path 21017" d="M23,25.5a58.21,58.21,0,0,1-6.212-.292,2,2,0,1,1,.424-3.976A55.5,55.5,0,0,0,23,21.5c14.872,0,24-4.66,24-8a2,2,0,0,1,4,0C51,21.292,36.577,25.5,23,25.5Z" transform="translate(45.003 30.501)" fill="#e27e28"/>
      <path id="Path_21018" data-name="Path 21018" d="M38,27c-13.576,0-28-4.208-28-12S24.424,3,38,3,66,7.208,66,15,51.577,27,38,27ZM38,7c-14.872,0-24,4.66-24,8s9.128,8,24,8,24-4.66,24-8S52.873,7,38,7Z" transform="translate(30.002 5)" fill="#e27e28"/>
      <path id="Path_21019" data-name="Path 21019" d="M12,21.5a2,2,0,0,1-2-2V7.5a2,2,0,1,1,4,0v12A2,2,0,0,1,12,21.5Z" transform="translate(30.002 12.501)" fill="#e27e28"/>
      <path id="Path_21020" data-name="Path 21020" d="M25,57.5a2,2,0,0,1-2-2V7.5a2,2,0,1,1,4,0v48A2,2,0,0,1,25,57.5Z" transform="translate(69.004 12.501)" fill="#e27e28"/>
      <g id="Group_15059" data-name="Group 15059">
        <path id="Path_21021" data-name="Path 21021" d="M2,1A2,2,0,0,0,.585,4.413l10,10a2.008,2.008,0,0,0,2.312.376l6.712-3.356,12.98,12.98a2,2,0,0,0,2.828-2.828l-14-14a2.019,2.019,0,0,0-2.312-.372L12.4,10.569,3.417,1.585A2.009,2.009,0,0,0,2,1Z" transform="translate(0 -1.001)" fill="#e27e28"/>
        <path id="Path_21022" data-name="Path 21022" d="M19,1a2,2,0,0,0-2,2V13H7a2,2,0,0,0,0,4H19a2,2,0,0,0,2-2V3A2,2,0,0,0,19,1Z" transform="translate(15.002 6.999)" fill="#e27e28"/>
      </g>
    </g>
  </g>
</svg>
