<svg xmlns="http://www.w3.org/2000/svg" width="40" height="40" viewBox="0 0 40 40">
  <g id="Group_18713" data-name="Group 18713" transform="translate(-4885 -10249)">
    <g id="Rectangle_9612" data-name="Rectangle 9612" transform="translate(4885 10249)" fill="#fff" stroke="#707070" stroke-width="1" opacity="0">
      <rect width="40" height="40" stroke="none"/>
      <rect x="0.5" y="0.5" width="39" height="39" fill="none"/>
    </g>
    <g id="fi-rr-settings-sliders" transform="translate(4888 10252)">
      <path id="Path_26886" data-name="Path 26886" d="M1.417,6.729H5.293a5.281,5.281,0,0,0,10.193,0h17.1a1.417,1.417,0,1,0,0-2.833h-17.1a5.281,5.281,0,0,0-10.193,0H1.417a1.417,1.417,0,1,0,0,2.833Zm8.972-3.9A2.479,2.479,0,1,1,7.909,5.313a2.479,2.479,0,0,1,2.479-2.479Z" transform="translate(0 0)" fill="#e27e28"/>
      <path id="Path_26887" data-name="Path 26887" d="M32.583,12.146H28.707a5.28,5.28,0,0,0-10.192,0H1.417a1.417,1.417,0,0,0,0,2.833h17.1a5.28,5.28,0,0,0,10.191,0h3.876a1.417,1.417,0,1,0,0-2.833Zm-8.972,3.9a2.479,2.479,0,1,1,2.479-2.479,2.479,2.479,0,0,1-2.479,2.479Z" transform="translate(0 3.437)" fill="#e27e28"/>
      <path id="Path_26888" data-name="Path 26888" d="M32.583,20.4h-17.1a5.281,5.281,0,0,0-10.193,0H1.417a1.417,1.417,0,1,0,0,2.833H5.293a5.281,5.281,0,0,0,10.193,0h17.1a1.417,1.417,0,1,0,0-2.833Zm-22.195,3.9a2.479,2.479,0,1,1,2.479-2.479,2.479,2.479,0,0,1-2.479,2.479Z" transform="translate(0 6.875)" fill="#e27e28"/>
    </g>
  </g>
</svg>
