<svg xmlns="http://www.w3.org/2000/svg" xmlns:xlink="http://www.w3.org/1999/xlink" width="360" height="360" viewBox="0 0 360 360">
  <defs>
    <clipPath id="clip-path">
      <rect id="Rectangle_10563" data-name="Rectangle 10563" width="143.539" height="42.14" fill="#fff" stroke="#707070" stroke-width="1"/>
    </clipPath>
  </defs>
  <g id="risk_profile_illustration" transform="translate(18174 -3876)">
    <rect id="Rectangle_10564" data-name="Rectangle 10564" width="360" height="360" transform="translate(-18174 3876)" fill="none"/>
    <g id="Research_paper-cuate" data-name="Research paper-cuate" transform="translate(-18341.711 3666.265)">
      <g id="freepik--Charts--inject-79" transform="translate(167.711 229.735)">
        <g id="Group_20128" data-name="Group 20128" transform="translate(0 0)">
          <rect id="Rectangle_10357" data-name="Rectangle 10357" width="190.391" height="140.482" transform="translate(0)" fill="#ebebeb"/>
          <path id="Path_47564" data-name="Path 47564" d="M203.78,106.172l59.5-.142,59.5.142-59.5.154Z" transform="translate(-168.085 -65.146)" fill="#c7c7c7"/>
          <path id="Path_47565" data-name="Path 47565" d="M203.78,109.942l59.5-.142,59.5.142-59.5.154Z" transform="translate(-168.085 -64.062)" fill="#c7c7c7"/>
          <path id="Path_47566" data-name="Path 47566" d="M203.78,113.712l59.5-.142,59.5.142-59.5.154Z" transform="translate(-168.085 -62.98)" fill="#c7c7c7"/>
          <path id="Path_47567" data-name="Path 47567" d="M203.78,117.482l59.5-.142,59.5.142-59.5.154Z" transform="translate(-168.085 -61.896)" fill="#c7c7c7"/>
          <path id="Path_47568" data-name="Path 47568" d="M203.78,121.252l59.5-.142,59.5.142-59.5.154Z" transform="translate(-168.085 -60.813)" fill="#c7c7c7"/>
          <path id="Path_47569" data-name="Path 47569" d="M203.78,125.022l59.5-.142,59.5.142-59.5.154Z" transform="translate(-168.085 -59.73)" fill="#c7c7c7"/>
          <path id="Path_47570" data-name="Path 47570" d="M203.78,128.792l59.5-.142,59.5.142-59.5.154Z" transform="translate(-168.085 -58.647)" fill="#c7c7c7"/>
          <path id="Path_47571" data-name="Path 47571" d="M203.78,132.564l59.5-.154,59.5.154-59.5.154Z" transform="translate(-168.085 -57.567)" fill="#c7c7c7"/>
          <path id="Path_47572" data-name="Path 47572" d="M203.78,136.334l59.5-.154,59.5.154-59.5.154Z" transform="translate(-168.085 -56.484)" fill="#c7c7c7"/>
          <path id="Path_47573" data-name="Path 47573" d="M203.78,140.1l59.5-.154,59.5.154-59.5.154Z" transform="translate(-168.085 -55.401)" fill="#c7c7c7"/>
          <path id="Path_47574" data-name="Path 47574" d="M203.78,143.874l59.5-.154,59.5.154-59.5.154Z" transform="translate(-168.085 -54.317)" fill="#c7c7c7"/>
          <path id="Path_47575" data-name="Path 47575" d="M203.78,147.644l59.5-.154,59.5.154-59.5.154Z" transform="translate(-168.085 -53.235)" fill="#c7c7c7"/>
          <path id="Path_47576" data-name="Path 47576" d="M203.78,151.414l59.5-.154,59.5.154-59.5.154Z" transform="translate(-168.085 -52.151)" fill="#c7c7c7"/>
          <path id="Path_47577" data-name="Path 47577" d="M203.78,155.184l59.5-.154,59.5.154-59.5.142Z" transform="translate(-168.085 -51.068)" fill="#c7c7c7"/>
          <path id="Path_47578" data-name="Path 47578" d="M203.78,158.954l59.5-.154,59.5.154-59.5.142Z" transform="translate(-168.085 -49.985)" fill="#c7c7c7"/>
          <rect id="Rectangle_10358" data-name="Rectangle 10358" width="9.024" height="39.623" transform="translate(48.287 74.998)" fill="#e27e2b"/>
          <rect id="Rectangle_10359" data-name="Rectangle 10359" width="9.024" height="56.383" transform="translate(65.02 58.237)" fill="#fff"/>
          <rect id="Rectangle_10360" data-name="Rectangle 10360" width="9.024" height="44.309" transform="translate(81.756 70.312)" fill="#e27e2b"/>
          <rect id="Rectangle_10361" data-name="Rectangle 10361" width="9.024" height="59.035" transform="translate(98.503 55.585)" fill="#fff"/>
          <rect id="Rectangle_10362" data-name="Rectangle 10362" width="9.024" height="51.118" transform="translate(115.239 63.502)" fill="#e27e2b"/>
          <rect id="Rectangle_10363" data-name="Rectangle 10363" width="9.024" height="22.154" transform="translate(131.985 92.466)" fill="#fff"/>
          <path id="Path_47579" data-name="Path 47579" d="M206.416,103.5l.232,19.309.167,19.309q.155,19.232.154,38.49l-.553-.554h57.877l28.951.18,28.938.335-28.938.335-28.951.18H205.85v-.566q0-19.309.154-38.49l.167-19.309Z" transform="translate(-167.488 -65.872)" fill="#c7c7c7"/>
          <rect id="Rectangle_10364" data-name="Rectangle 10364" width="9.024" height="0.811" transform="translate(48.287 118.689)" fill="#c7c7c7"/>
          <rect id="Rectangle_10365" data-name="Rectangle 10365" width="9.024" height="0.811" transform="translate(65.02 118.689)" fill="#c7c7c7"/>
          <rect id="Rectangle_10366" data-name="Rectangle 10366" width="9.024" height="0.811" transform="translate(81.756 118.689)" fill="#c7c7c7"/>
          <rect id="Rectangle_10367" data-name="Rectangle 10367" width="9.024" height="0.811" transform="translate(98.503 118.689)" fill="#c7c7c7"/>
          <rect id="Rectangle_10368" data-name="Rectangle 10368" width="9.024" height="0.811" transform="translate(115.239 118.689)" fill="#c7c7c7"/>
          <rect id="Rectangle_10369" data-name="Rectangle 10369" width="9.024" height="0.811" transform="translate(131.985 118.689)" fill="#c7c7c7"/>
          <rect id="Rectangle_10370" data-name="Rectangle 10370" width="131.78" height="2.922" transform="translate(29.298 18.949)" fill="#c7c7c7"/>
          <rect id="Rectangle_10371" data-name="Rectangle 10371" width="86.712" height="2.922" transform="translate(51.839 25.051)" fill="#c7c7c7"/>
        </g>
        <g id="Group_20129" data-name="Group 20129" transform="translate(202.281 28.973)">
          <rect id="Rectangle_10372" data-name="Rectangle 10372" width="157.719" height="121.997" transform="translate(0 0)" fill="#ebebeb"/>
          <circle id="Ellipse_1014" data-name="Ellipse 1014" cx="29.428" cy="29.428" r="29.428" transform="matrix(0.232, -0.973, 0.973, 0.232, 24.437, 83.378)" fill="#455a64"/>
          <path id="Path_47580" data-name="Path 47580" d="M380.491,161.031,370,188.515a29.428,29.428,0,1,1,39.906-27.484Z" transform="translate(-320.633 -99.473)" fill="#dbdbdb"/>
          <path id="Path_47581" data-name="Path 47581" d="M380.483,161.027l23.635,17.52a29.415,29.415,0,1,1,5.793-17.52Z" transform="translate(-320.623 -99.469)" fill="#dbdbdb"/>
          <path id="Path_47582" data-name="Path 47582" d="M380.488,161.025l-26.119,13.568a29.428,29.428,0,1,1,55.547-13.542Z" transform="translate(-320.629 -99.467)" fill="#e27e2b"/>
          <path id="Path_47583" data-name="Path 47583" d="M383.311,147.716l-.451-.438,14.1-14.109h17.919v.631H397.226Z" transform="translate(-311.494 -99.018)" fill="#c7c7c7"/>
          <rect id="Rectangle_10373" data-name="Rectangle 10373" width="27.445" height="0.631" transform="translate(75.936 66.077)" fill="#c7c7c7"/>
          <path id="Path_47584" data-name="Path 47584" d="M414.881,185.795h-18.64l-.09-.116-13.311-16.31.489-.4,13.22,16.194h18.331Z" transform="translate(-311.5 -88.733)" fill="#c7c7c7"/>
          <path id="Path_47585" data-name="Path 47585" d="M409.4,133.725a1.352,1.352,0,1,1-.4-.969A1.365,1.365,0,0,1,409.4,133.725Z" transform="translate(-304.654 -99.251)" fill="#c7c7c7"/>
          <path id="Path_47586" data-name="Path 47586" d="M409.4,158.512a1.352,1.352,0,1,1-.4-.96A1.365,1.365,0,0,1,409.4,158.512Z" transform="translate(-304.654 -92.126)" fill="#c7c7c7"/>
          <path id="Path_47587" data-name="Path 47587" d="M409.4,182.1a1.352,1.352,0,1,1-.4-.969A1.365,1.365,0,0,1,409.4,182.1Z" transform="translate(-304.654 -85.352)" fill="#c7c7c7"/>
          <rect id="Rectangle_10374" data-name="Rectangle 10374" width="12.255" height="0.631" transform="translate(108.544 34.152)" fill="#c7c7c7"/>
          <rect id="Rectangle_10375" data-name="Rectangle 10375" width="17.121" height="0.631" transform="translate(108.544 36.186)" fill="#c7c7c7"/>
          <rect id="Rectangle_10376" data-name="Rectangle 10376" width="14.727" height="0.631" transform="translate(108.544 38.207)" fill="#c7c7c7"/>
          <rect id="Rectangle_10377" data-name="Rectangle 10377" width="18.73" height="0.631" transform="translate(108.544 40.24)" fill="#c7c7c7"/>
          <rect id="Rectangle_10378" data-name="Rectangle 10378" width="16.233" height="0.631" transform="translate(108.544 42.262)" fill="#c7c7c7"/>
          <rect id="Rectangle_10379" data-name="Rectangle 10379" width="13.903" height="0.631" transform="translate(108.544 44.296)" fill="#c7c7c7"/>
          <rect id="Rectangle_10380" data-name="Rectangle 10380" width="16.915" height="0.631" transform="translate(108.544 66.077)" fill="#c7c7c7"/>
          <rect id="Rectangle_10381" data-name="Rectangle 10381" width="11.431" height="0.631" transform="translate(108.544 68.098)" fill="#c7c7c7"/>
          <rect id="Rectangle_10382" data-name="Rectangle 10382" width="15.538" height="0.631" transform="translate(108.544 70.132)" fill="#c7c7c7"/>
          <rect id="Rectangle_10383" data-name="Rectangle 10383" width="16.915" height="0.631" transform="translate(108.544 72.153)" fill="#c7c7c7"/>
          <rect id="Rectangle_10384" data-name="Rectangle 10384" width="18.73" height="0.631" transform="translate(108.544 74.186)" fill="#c7c7c7"/>
          <rect id="Rectangle_10385" data-name="Rectangle 10385" width="13.903" height="0.631" transform="translate(108.544 76.207)" fill="#c7c7c7"/>
          <rect id="Rectangle_10386" data-name="Rectangle 10386" width="14.173" height="0.631" transform="translate(108.544 96.431)" fill="#c7c7c7"/>
          <rect id="Rectangle_10387" data-name="Rectangle 10387" width="18.73" height="0.631" transform="translate(108.544 98.465)" fill="#c7c7c7"/>
          <rect id="Rectangle_10388" data-name="Rectangle 10388" width="11.843" height="0.631" transform="translate(108.544 100.486)" fill="#c7c7c7"/>
          <rect id="Rectangle_10389" data-name="Rectangle 10389" width="18.73" height="0.631" transform="translate(108.544 102.52)" fill="#c7c7c7"/>
          <rect id="Rectangle_10390" data-name="Rectangle 10390" width="16.181" height="0.631" transform="translate(108.544 104.541)" fill="#c7c7c7"/>
          <rect id="Rectangle_10391" data-name="Rectangle 10391" width="9.977" height="0.631" transform="translate(108.544 106.575)" fill="#c7c7c7"/>
          <rect id="Rectangle_10392" data-name="Rectangle 10392" width="112.175" height="2.922" transform="translate(22.77 14.122)" fill="#c7c7c7"/>
          <rect id="Rectangle_10393" data-name="Rectangle 10393" width="73.813" height="2.922" transform="translate(41.952 20.223)" fill="#c7c7c7"/>
        </g>
        <g id="Group_20127" data-name="Group 20127" transform="translate(44.563 150.97)">
          <rect id="Rectangle_10394" data-name="Rectangle 10394" width="157.719" height="121.997" transform="translate(0)" fill="#ebebeb"/>
          <rect id="Rectangle_10395" data-name="Rectangle 10395" width="112.175" height="2.922" transform="translate(22.773 14.122)" fill="#c7c7c7"/>
          <rect id="Rectangle_10396" data-name="Rectangle 10396" width="73.813" height="2.922" transform="translate(41.952 20.223)" fill="#c7c7c7"/>
          <path id="Path_47588" data-name="Path 47588" d="M63.62,186.049l15.151-.154,15.151-.051,30.316-.1,30.3.1,15.151.051,15.151.154-15.151.142-15.151.051-30.3.1-30.316-.1-15.151-.051Z" transform="translate(-46.165 -83.915)" fill="#c7c7c7"/>
          <path id="Path_47589" data-name="Path 47589" d="M63.62,179.526l15.151-.142,15.151-.051,30.316-.1,30.3.1,15.151.051,15.151.142-15.151.154-15.151.051-30.3.1-30.316-.1-15.151-.051Z" transform="translate(-46.165 -85.786)" fill="#c7c7c7"/>
          <path id="Path_47590" data-name="Path 47590" d="M63.62,173.016l15.151-.142,15.151-.051,30.316-.1,30.3.1,15.151.051,15.151.142-15.151.154-15.151.051-30.3.1-30.316-.1-15.151-.064Z" transform="translate(-46.165 -87.656)" fill="#c7c7c7"/>
          <path id="Path_47591" data-name="Path 47591" d="M63.62,166.506l15.151-.142,15.151-.064,30.316-.09,30.3.09,15.151.051,15.151.154-15.151.142-15.151.051-30.3.1-30.316-.1-15.151-.051Z" transform="translate(-46.165 -89.526)" fill="#c7c7c7"/>
          <path id="Path_47592" data-name="Path 47592" d="M63.62,160l15.151-.154,15.151-.051,30.316-.1,30.3.1,15.151.051,15.151.154-15.151.142-15.151.051-30.3.1-30.316-.1-15.151-.051Z" transform="translate(-46.165 -91.399)" fill="#c7c7c7"/>
          <path id="Path_47593" data-name="Path 47593" d="M63.62,153.489l15.151-.154,15.151-.052,30.316-.1,30.3.1,15.151.052,15.151.154-15.151.142-15.151.051-30.3.1-30.316-.1-15.151-.051Z" transform="translate(-46.165 -93.27)" fill="#c7c7c7"/>
          <path id="Path_47594" data-name="Path 47594" d="M63.62,146.966l15.151-.142,15.151-.051,30.316-.1,30.3.1,15.151.051,15.151.142-15.151.154-15.151.051-30.3.1-30.316-.1-15.151-.051Z" transform="translate(-46.165 -95.14)" fill="#c7c7c7"/>
          <path id="Path_47595" data-name="Path 47595" d="M63.62,140.456l15.151-.142,15.151-.051,30.316-.1,30.3.1,15.151.051,15.151.142-15.151.154-15.151.052-30.3.1-30.316-.1L78.771,140.6Z" transform="translate(-46.165 -97.01)" fill="#c7c7c7"/>
          <path id="Path_47596" data-name="Path 47596" d="M63.62,133.946l15.151-.142,15.151-.064,30.316-.09,30.3.09,15.151.051,15.151.155-15.151.142-15.151.051-30.3.1-30.316-.1-15.151-.051Z" transform="translate(-46.165 -98.88)" fill="#c7c7c7"/>
          <path id="Path_47597" data-name="Path 47597" d="M68.11,190.972l-.27-1.171,15.666-3.566,15.126-14.842,6.05,4.042,12-12,6.617,3.952,4.312-3.6,11.946,12.6,15.7-18.9,13.118,13.954,15.01-6.861.5,1.094-15.8,7.222-12.77-13.581L139.607,178.2l-12.088-12.77-4.106,3.437-6.539-3.913L104.837,176.98l-6.063-4.029L84.111,187.329Z" transform="translate(-44.951 -92.031)" fill="#455a64"/>
          <path id="Path_47598" data-name="Path 47598" d="M82.2,180.5a1.583,1.583,0,1,1-.459-1.128A1.583,1.583,0,0,1,82.2,180.5Z" transform="translate(-41.738 -85.881)" fill="#455a64"/>
          <path id="Path_47599" data-name="Path 47599" d="M93.641,169.324a1.6,1.6,0,1,1-1.59-1.453A1.6,1.6,0,0,1,93.641,169.324Z" transform="translate(-38.457 -89.049)" fill="#455a64"/>
          <path id="Path_47600" data-name="Path 47600" d="M107.9,163.156a1.583,1.583,0,1,1-.459-1.128,1.583,1.583,0,0,1,.459,1.128Z" transform="translate(-34.355 -90.862)" fill="#455a64"/>
          <path id="Path_47601" data-name="Path 47601" d="M112.922,166.166a1.6,1.6,0,1,1-1.6-1.6A1.6,1.6,0,0,1,112.922,166.166Z" transform="translate(-32.918 -89.998)" fill="#455a64"/>
          <path id="Path_47602" data-name="Path 47602" d="M116.192,163.476a1.583,1.583,0,1,1-.459-1.128,1.6,1.6,0,0,1,.459,1.128Z" transform="translate(-31.979 -90.77)" fill="#455a64"/>
          <path id="Path_47603" data-name="Path 47603" d="M137.612,158.553a1.6,1.6,0,1,1-1.6-1.583,1.6,1.6,0,0,1,1.6,1.583Z" transform="translate(-25.825 -92.181)" fill="#455a64"/>
          <path id="Path_47604" data-name="Path 47604" d="M147.947,169.076a1.583,1.583,0,1,1-.459-1.128A1.583,1.583,0,0,1,147.947,169.076Z" transform="translate(-22.848 -89.161)" fill="#455a64"/>
          <path id="Path_47605" data-name="Path 47605" d="M159.712,163.956a1.583,1.583,0,1,1-.464-1.133,1.6,1.6,0,0,1,.464,1.133Z" transform="translate(-19.475 -90.632)" fill="#455a64"/>
          <path id="Path_47606" data-name="Path 47606" d="M125.482,173.123a1.6,1.6,0,1,1-1.583-1.583,1.6,1.6,0,0,1,1.583,1.583Z" transform="translate(-29.311 -87.995)" fill="#455a64"/>
          <path id="Path_47607" data-name="Path 47607" d="M68.488,191.568l-.888-.824L84.464,172.3l6.8,3.579,17.945-18.241,4.956,4.068,8.458-7.273,16.117,11.6,3.592-4.094,9.14,8.432,13.388-11.882,8.625,7.376,10.067-2.716.322,1.171-10.685,2.871-8.316-7.106L151.454,172l-9.037-8.342-3.5,3.991-16.233-11.689-8.5,7.312-4.892-4-17.8,18.086L84.734,173.8Z" transform="translate(-45.022 -92.91)" fill="#263238"/>
          <path id="Path_47608" data-name="Path 47608" d="M82.652,169.483a1.6,1.6,0,1,1-1.583-1.583,1.6,1.6,0,0,1,1.583,1.583Z" transform="translate(-41.614 -89.041)" fill="#263238"/>
          <path id="Path_47609" data-name="Path 47609" d="M87.952,171.956a1.6,1.6,0,1,1-1.6-1.6A1.6,1.6,0,0,1,87.952,171.956Z" transform="translate(-40.092 -88.334)" fill="#263238"/>
          <path id="Path_47610" data-name="Path 47610" d="M101.712,157.993a1.6,1.6,0,1,1-1.583-1.583,1.6,1.6,0,0,1,1.583,1.583Z" transform="translate(-36.138 -92.341)" fill="#263238"/>
          <path id="Path_47611" data-name="Path 47611" d="M105.867,161.006a1.583,1.583,0,1,1-.459-1.128,1.583,1.583,0,0,1,.459,1.128Z" transform="translate(-34.937 -91.48)" fill="#263238"/>
          <path id="Path_47612" data-name="Path 47612" d="M112.322,155.353a1.6,1.6,0,1,1-1.6-1.583,1.6,1.6,0,0,1,1.6,1.583Z" transform="translate(-33.09 -93.1)" fill="#263238"/>
          <path id="Path_47613" data-name="Path 47613" d="M124.8,164.324a1.6,1.6,0,1,1-1.59-1.453A1.6,1.6,0,0,1,124.8,164.324Z" transform="translate(-29.504 -90.485)" fill="#263238"/>
          <path id="Path_47614" data-name="Path 47614" d="M127.481,161.324a1.6,1.6,0,1,1-1.59-1.453A1.6,1.6,0,0,1,127.481,161.324Z" transform="translate(-28.734 -91.347)" fill="#263238"/>
          <path id="Path_47615" data-name="Path 47615" d="M134.527,167.833a1.583,1.583,0,1,1-1.583-1.583A1.583,1.583,0,0,1,134.527,167.833Z" transform="translate(-26.704 -89.515)" fill="#263238"/>
          <path id="Path_47616" data-name="Path 47616" d="M145.182,158.853a1.6,1.6,0,1,1-1.583-1.583A1.6,1.6,0,0,1,145.182,158.853Z" transform="translate(-23.65 -92.095)" fill="#263238"/>
          <path id="Path_47617" data-name="Path 47617" d="M151.712,164.2a1.583,1.583,0,1,1-.468-1.124,1.6,1.6,0,0,1,.468,1.124Z" transform="translate(-21.773 -90.558)" fill="#263238"/>
          <path id="Path_47618" data-name="Path 47618" d="M159.712,161.913a1.583,1.583,0,1,1-.468-1.124A1.6,1.6,0,0,1,159.712,161.913Z" transform="translate(-19.475 -91.215)" fill="#263238"/>
          <path id="Path_47619" data-name="Path 47619" d="M68.592,187.379,68,186.337,88.455,174.6l10.955,4.93,6-2.021,6.256,3.862,13.015-9.552,5.226,4.235,5.484-1.635,9,5.072L158.6,172.7l8.972,6.72,15.666-11.264.708.978-16.387,11.779-9.1-6.81-14.122,6.745-9.088-5.136-5.6,1.673-5.008-4.055-12.912,9.487-6.475-3.991-5.909,1.982-10.826-4.866Z" transform="translate(-44.906 -88.966)" fill="#e27e2b"/>
          <path id="Path_47620" data-name="Path 47620" d="M85.862,174.033a1.6,1.6,0,1,1-1.583-1.583A1.6,1.6,0,0,1,85.862,174.033Z" transform="translate(-40.692 -87.733)" fill="#e27e2b"/>
          <path id="Path_47621" data-name="Path 47621" d="M94.322,177.806a1.6,1.6,0,1,1-1.6-1.6A1.6,1.6,0,0,1,94.322,177.806Z" transform="translate(-38.261 -86.653)" fill="#e27e2b"/>
          <path id="Path_47622" data-name="Path 47622" d="M98.962,176.5a1.6,1.6,0,1,1-1.609-1.583,1.6,1.6,0,0,1,1.609,1.583Z" transform="translate(-36.93 -87.024)" fill="#e27e2b"/>
          <path id="Path_47623" data-name="Path 47623" d="M103.962,179.253a1.6,1.6,0,1,1-1.6-1.583,1.6,1.6,0,0,1,1.6,1.583Z" transform="translate(-35.492 -86.234)" fill="#e27e2b"/>
          <path id="Path_47624" data-name="Path 47624" d="M117.882,174.983A1.6,1.6,0,1,1,116.3,173.4a1.6,1.6,0,0,1,1.583,1.583Z" transform="translate(-31.493 -87.461)" fill="#e27e2b"/>
          <path id="Path_47625" data-name="Path 47625" d="M129.212,177.733a1.6,1.6,0,1,1-1.583-1.583A1.6,1.6,0,0,1,129.212,177.733Z" transform="translate(-28.237 -86.67)" fill="#e27e2b"/>
          <path id="Path_47626" data-name="Path 47626" d="M147.467,177.733a1.583,1.583,0,1,1-1.583-1.583A1.583,1.583,0,0,1,147.467,177.733Z" transform="translate(-22.987 -86.67)" fill="#e27e2b"/>
          <path id="Path_47627" data-name="Path 47627" d="M113.877,171.893a1.583,1.583,0,1,1-1.583-1.583A1.583,1.583,0,0,1,113.877,171.893Z" transform="translate(-32.635 -88.349)" fill="#e27e2b"/>
          <path id="Path_47628" data-name="Path 47628" d="M122.332,174.033a1.6,1.6,0,1,1-1.6-1.583,1.6,1.6,0,0,1,1.6,1.583Z" transform="translate(-30.214 -87.733)" fill="#e27e2b"/>
          <path id="Path_47629" data-name="Path 47629" d="M140.173,172.513a1.583,1.583,0,1,1-.468-1.124A1.6,1.6,0,0,1,140.173,172.513Z" transform="translate(-25.091 -88.17)" fill="#e27e2b"/>
          <path id="Path_47630" data-name="Path 47630" d="M159.712,168.893a1.583,1.583,0,1,1-.468-1.124A1.6,1.6,0,0,1,159.712,168.893Z" transform="translate(-19.475 -89.21)" fill="#e27e2b"/>
          <path id="Path_47631" data-name="Path 47631" d="M66.98,130.83l.116,19.786.064,19.773.077,39.571-.257-.257,28.848-.026,28.848.064,28.848.064,28.848.154-28.848.167-28.848.051-28.848.064L66.98,210.23h-.27v-.27l.077-39.571.064-19.773Z" transform="translate(-45.276 -99.691)" fill="#c7c7c7"/>
        </g>
      </g>
      <g id="freepik--Floor--inject-55" transform="translate(175.952 548.417)">
        <path id="Path_48760" data-name="Path 48760" d="M54.55,472.347c112.682-.816,239.077-.816,351.759,0-112.682.8-239.078.8-351.759,0Z" transform="translate(-54.55 -471.735)" fill="#263238"/>
      </g>
      <g id="freepik--Character--inject-55" transform="translate(328.575 311.753)">
        <path id="Path_48785" data-name="Path 48785" d="M405.975,149.091c-4.793,15.7-17.778,48.211-30.288,52.675-14.841,5.36-56.77-20.569-70.874-35.042-5.123-5.267,17.119-28.049,23.085-25.139s39.954,28.01,41.916,26.864c3.318-1.936,10.324-9.771,22.755-22.571S408.279,141.545,405.975,149.091Z" transform="translate(-285.373 -53.282)" fill="#eb9481"/>
        <path id="Path_48786" data-name="Path 48786" d="M320.42,182.24c4.28.579,19.279-22.676,17.119-26.548a58.021,58.021,0,0,1-5.531-23.124c.092-7.322,1.067-18.186-2.871-18.436-5.742-.3-8.625,13.287-9.8,21.188-3.424-2.634-6.584-4.649-8.915-5.109-7.585-1.554-18.8,31.46-13.761,37.518C301.536,173.614,316.153,181.647,320.42,182.24Z" transform="translate(-288.114 -61.253)" fill="#eb9481"/>
        <rect id="Rectangle_10526" data-name="Rectangle 10526" width="7.295" height="32.053" transform="translate(28.002 99.493) rotate(-161.2)" fill="#c7c7c7"/>
        <path id="Path_48787" data-name="Path 48787" d="M299.13,169.674l10.443,3.556h0l9.152-26.9L308.3,142.77h0Z" transform="translate(-286.933 -52.176)" fill="#263238"/>
        <path id="Path_48788" data-name="Path 48788" d="M323.411,132.651c.606,3.951-4.438,2.423-4.438,2.423s6.716,3.951,5.755,8.349-6.966,2.081-7.4,1.936c.356.211,6.426,4.043,5.017,8.309s-7.164,1.317-7.533,1.08c.277.3,3.779,4.425,1.962,7.427-3.121,5.149-12.352-5.149-17.225-5.2,0,0-1.04,8.244-1.133,8.467,0,0-8.981-9.613-8.533-16.184a4.227,4.227,0,0,1,3.516-3.951s-3.24-2.779-2.239-6.176c.527-1.738,3.779-2.449,3.779-2.449a5.267,5.267,0,0,1-1.422-5.267c.856-2.37,3.951-2.713,3.951-2.713s-1.317-3.358.3-5.491C301.156,118.837,322.095,124.078,323.411,132.651Z" transform="translate(-289.868 -58.874)" fill="#eb9481"/>
        <path id="Path_48789" data-name="Path 48789" d="M296.014,126.889a.059.059,0,1,1,0-.118,37.5,37.5,0,0,1,21.267,6.677c.184.145,0,.527-.2.408A76.378,76.378,0,0,0,296.014,126.889Z" transform="translate(-287.939 -57.246)" fill="#263238"/>
        <path id="Path_48790" data-name="Path 48790" d="M293.66,133.035c-.092,0,0-.158,0-.145a34.989,34.989,0,0,1,22.729,8.718c.224.2.211.593,0,.382C311.912,138.421,300.547,134.128,293.66,133.035Z" transform="translate(-288.679 -55.307)" fill="#263238"/>
        <path id="Path_48791" data-name="Path 48791" d="M314.164,149.606c-6.2-5.346-13.5-8.165-21.412-9.982-.105,0,0-.171,0-.171,4.109-.158,9.034,1.528,12.747,3.16a21.584,21.584,0,0,1,8.81,6.782C314.493,149.513,314.348,149.724,314.164,149.606Z" transform="translate(-288.969 -53.231)" fill="#263238"/>
        <path id="Path_48792" data-name="Path 48792" d="M316.785,131.77c.237.171-.277.316,0,.5.948.751,6.334,5.768,5.188,8.138-.922,1.883-4.1,1.962-5.333,1.514l-3.095-1.133,2.515,2.146a13.168,13.168,0,0,1,2.858,3.305,4.833,4.833,0,0,1,.737,3.951,2.778,2.778,0,0,1-2.779,2.081,8.336,8.336,0,0,1-3.951-1.317l-3.371-1.975,2.528,2.963a12.772,12.772,0,0,1,1.778,2.7,5.162,5.162,0,0,1,.606,2.963,2.489,2.489,0,0,1-1.725,1.988,5.439,5.439,0,0,1-3.055-.329,42.6,42.6,0,0,1-6.163-2.963c-1-.553-2.015-1.106-3.055-1.607a8.033,8.033,0,0,0-3.279-.988,8.572,8.572,0,0,1,3.134,1.317c.988.566,1.949,1.185,2.91,1.8a36.6,36.6,0,0,0,6.058,3.371,6.584,6.584,0,0,0,3.661.5,3.529,3.529,0,0,0,2.634-2.884,6.452,6.452,0,0,0-.645-3.687,14.171,14.171,0,0,0-1.936-3.042l-.843.988a9.6,9.6,0,0,0,4.688,1.554,3.951,3.951,0,0,0,2.568-.843,4.465,4.465,0,0,0,1.475-2.226,6.11,6.11,0,0,0-.922-4.925,14.591,14.591,0,0,0-3.2-3.582l-.579,1c1.58.527,5.149.83,6.94-1.936C324.923,137.143,318.089,132.521,316.785,131.77Z" transform="translate(-287.547 -55.662)" fill="#263238"/>
        <path id="Path_48793" data-name="Path 48793" d="M312,133.21a8.006,8.006,0,0,0,2.476-.119,1.87,1.87,0,0,0,1.435-1.225,3.779,3.779,0,0,0-.2-2.146,24.69,24.69,0,0,0-.948-2.37,6.466,6.466,0,0,1,1.751,2.015,3.832,3.832,0,0,1,.474,2.844,2.738,2.738,0,0,1-.948,1.317,2.845,2.845,0,0,1-1.449.461A4.359,4.359,0,0,1,312,133.21Z" transform="translate(-282.855 -57.062)" fill="#263238"/>
        <path id="Path_48794" data-name="Path 48794" d="M336.666,146.369,309.71,179.976s44.062,32.237,65.264,24.138c4.886-1.87,21.478-22.453,29.88-52.293,2.41-8.546-.487-23.914-16.79-5.544s-19.832,21.373-20.57,21.412S336.666,146.369,336.666,146.369Z" transform="translate(-283.58 -53.8)" fill="#00a0ad"/>
        <path id="Path_48795" data-name="Path 48795" d="M317.324,179.971c1.738-2.752,3.885-5.267,5.886-7.9s3.951-5.044,5.965-7.546c4.043-5.044,7.993-10.232,12.365-15.012a.122.122,0,0,1,.2.145c-3.569,5.465-7.717,10.535-11.76,15.71q-3.042,3.832-6.189,7.611a84.746,84.746,0,0,1-6.281,7.111C317.4,180.248,317.258,180.09,317.324,179.971Z" transform="translate(-281.173 -50.056)" fill="#263238"/>
        <path id="Path_48796" data-name="Path 48796" d="M393.851,151.822c-8.4,29.84-25.021,50.423-29.88,52.293s-11.852,1.633-19.371-.421c13.169-19.951,34.239-51.832,44.076-65.988C394.6,136.8,395.457,146.014,393.851,151.822Z" transform="translate(-272.525 -53.801)" opacity="0.1"/>
        <path id="Path_48797" data-name="Path 48797" d="M352.678,248.908h89.234s-10.535-78.1-38.729-108.22c-3.49-3.714-12.128-3.753-17.988-1.5-2.094.8-9.626,10.759-12.576,20.056S352.481,248.605,352.678,248.908Z" transform="translate(-269.966 -53.795)" fill="#00a0ad"/>
        <path id="Path_48798" data-name="Path 48798" d="M381.64,156.066l-2.147-6.466-5.873,4.5.606,4.7,4.635,1.2Z" transform="translate(-263.329 -50.012)" fill="#263238"/>
        <path id="Path_48799" data-name="Path 48799" d="M381.8,157.788l-4.491,53.162L368.9,226.819l-4.57-18.463,12.839-51.766Z" transform="translate(-266.273 -47.797)" fill="#263238"/>
        <path id="Path_48804" data-name="Path 48804" d="M412.384,217.335c-.988-2.555-2.015-5.1-2.976-7.677l-2.937-7.691c-1.936-5.136-3.951-10.258-5.755-15.421s-3.779-10.3-5.6-15.473q-1.383-3.872-2.634-7.783c-.9-2.634-1.672-5.267-2.476-7.9a148.216,148.216,0,0,0,4.161,15.974c1.62,5.267,3.463,10.43,5.268,15.6s3.951,10.272,6.058,15.342S409.829,212.45,412.384,217.335Z" transform="translate(-258.136 -48.177)" fill="#263238"/>
        <path id="Path_48805" data-name="Path 48805" d="M391.953,161.777a23.566,23.566,0,0,0-1.212-2.634c-.224-.435-.448-.869-.7-1.317a11.682,11.682,0,0,0-.764-1.317,7.44,7.44,0,0,0,.869,2.858A8.322,8.322,0,0,0,391.953,161.777Z" transform="translate(-258.367 -47.822)" fill="#263238"/>
        <rect id="Rectangle_10527" data-name="Rectangle 10527" width="55.677" height="72.48" transform="matrix(0.972, -0.236, 0.236, 0.972, 61.006, 120.02)" fill="#e27e2b"/>
        <rect id="Rectangle_10528" data-name="Rectangle 10528" width="55.677" height="72.48" transform="matrix(0.972, -0.236, 0.236, 0.972, 61.006, 120.02)" opacity="0.24"/>
        <rect id="Rectangle_10529" data-name="Rectangle 10529" width="26.39" height="7.993" transform="translate(74.584 112.826) rotate(-13.58)" fill="#c7c7c7"/>
        <path id="Path_48806" data-name="Path 48806" d="M365.319,157.6l-3.16.751-.869-3.582-7.677,1.857.869,3.582-3.16.764-1.58-6.532,14.038-3.384Z" transform="translate(-270.896 -49.549)" fill="#c7c7c7"/>
        <path id="Path_48807" data-name="Path 48807" d="M431.506,228.367c-8.4,1.83-19.5-3.951-48.54-21.86-4.016-2.489,5.86-35.555,10.285-33.106,5.57,3.055,26.548,16.118,27.957,17.277C433.126,200.371,437.208,227.129,431.506,228.367Z" transform="translate(-260.666 -42.511)" fill="#eb9481"/>
        <path id="Path_48808" data-name="Path 48808" d="M414.294,185.292s-8.665-10.377-14.92-14.407a47.763,47.763,0,0,0-21.794-6.874c-8.323-.566-28.853,3.806-28.629,9.942.211,5.544,20.965,0,20.965,0s-22.084,2.146-20.609,8.784,25.2-1.146,25.2-1.146-22.65,2.713-20.043,9.31c1.962,4.991,23.862-.843,23.862-.843s-19.463,2.463-17.659,7.677c2,5.768,22.545,1.646,22.545,1.646,6.821,12.5,15.447,15.5,21.649,17.04C406.379,216.766,414.294,185.292,414.294,185.292Z" transform="translate(-271.147 -45.461)" fill="#eb9481"/>
        <path id="Path_48809" data-name="Path 48809" d="M376.689,170.6c-2.634.158-5.267.3-7.822.685s-5.149.869-7.691,1.5a45.8,45.8,0,0,0-9.626,3.371C357.2,173.919,366.417,172.378,369,172s5.136-.909,7.7-1.317Z" transform="translate(-270.323 -43.358)" fill="#263238"/>
        <path id="Path_48810" data-name="Path 48810" d="M376.576,177.66c-3.318.342-6.584.566-9.929,1.053s-6.36,1.251-9.613,1.962c-.25,0-.132.171.119.119,3.279-.579,6.347-.869,9.613-1.409s6.584-1.225,9.824-1.646C376.642,177.726,376.615,177.647,376.576,177.66Z" transform="translate(-268.629 -41.121)" fill="#263238"/>
        <path id="Path_48811" data-name="Path 48811" d="M377.651,183.53a75.059,75.059,0,0,0-15.052,2.779c-.25.066-.079.2.171.158,4.991-1.027,8.889-1.857,14.894-2.752A.932.932,0,0,1,377.651,183.53Z" transform="translate(-266.86 -39.261)" fill="#263238"/>
        <path id="Path_48812" data-name="Path 48812" d="M400.19,176.84l-7.77,40.3s31.157,16.988,37.294,9.653c5.044-6.044-.751-27.312-8.691-35.424C417.717,187.981,400.19,176.84,400.19,176.84Z" transform="translate(-257.372 -41.381)" fill="#00a0ad"/>
        <path id="Path_48813" data-name="Path 48813" d="M398.12,178.205l.329-1.317h-.105c2.91,2.028,5.847,4.03,8.731,6.084s5.781,4.1,8.56,6.281a41.5,41.5,0,0,1,3.951,3.424,30.422,30.422,0,0,1,3.253,4.1,33.3,33.3,0,0,1,4.28,9.626,27.917,27.917,0,0,0-3.635-10.021,25.242,25.242,0,0,0-3.253-4.319,39.629,39.629,0,0,0-4.016-3.582c-2.818-2.186-5.741-4.214-8.7-6.176s-6.018-3.793-9.126-5.531H398.3v.092Z" transform="translate(-255.566 -41.403)" fill="#263238"/>
        <path id="Path_48814" data-name="Path 48814" d="M404.994,183.921c-.514,1.988-.869,4.03-1.317,6.044s-.764,4.043-1.106,6.071c-.7,4.043-1.383,8.1-2,12.168-.171,1.106-.342,2.226-.487,3.332s-.171,2.41-.342,3.6a.079.079,0,0,0,.145,0c.184-.988.514-1.962.724-2.95s.408-2.054.606-3.081c.369-2.028.724-4.043,1.08-6.071.7-4.043,1.317-8.1,1.949-12.181.329-2.291.711-4.609.909-6.914C405.205,183.816,405.021,183.789,404.994,183.921Z" transform="translate(-255.053 -39.165)" fill="#263238"/>
        <path id="Path_48815" data-name="Path 48815" d="M393.231,204.71c-.132,1.225-.3,2.423-.461,3.635l-.119-.25c9.811,4.662,19.753,10.14,30.6,11.588a11.957,11.957,0,0,0,4.622-.408,10.771,10.771,0,0,1-4.649,1c-11.167-.461-21.452-6.084-30.815-11.773l-.145-.105c.316-1.225.619-2.463.961-3.687Z" transform="translate(-257.42 -32.549)" fill="#263238"/>
        <path id="Path_48816" data-name="Path 48816" d="M380.3,157.921c4.859,1.04,12.984-6.584,16.132-12.589.211-.408-.514-4.728-1.146-10.008-.369-3.2-.711-6.782-.777-10.061,0-.672-20.5,5.465-20.5,5.465a52.6,52.6,0,0,1,2.265,12.576,8.677,8.677,0,0,1-.105,1.317,1.158,1.158,0,0,0,0,.224C375.775,147.452,375.617,156.92,380.3,157.921Z" transform="translate(-263.206 -57.74)" fill="#eb9481"/>
        <path id="Path_48817" data-name="Path 48817" d="M394.78,130.266c-7.164,11.233-16.514,10.535-18.673,10.285A58.822,58.822,0,0,0,374,130.727s20.49-6.137,20.5-5.465C394.556,126.882,394.648,128.581,394.78,130.266Z" transform="translate(-263.209 -57.74)" fill="#263238"/>
        <path id="Path_48818" data-name="Path 48818" d="M402.047,109.169c1.686,7.453-3.727,28.234-9.218,32.54-8.02,6.255-20.372,5.992-25.481-3.477-4.965-9.218,2.568-36.135,8.678-39.967C384.968,92.576,399.558,98.107,402.047,109.169Z" transform="translate(-265.827 -66.997)" fill="#eb9481"/>
        <path id="Path_48819" data-name="Path 48819" d="M377.051,115.43s.092.105.079.158c-.408,1.317-.632,3.042.514,3.832v.079C376.129,118.88,376.445,116.681,377.051,115.43Z" transform="translate(-262.401 -60.839)" fill="#263238"/>
        <path id="Path_48820" data-name="Path 48820" d="M378.639,114.564c2.3.408,1.317,4.978-.8,4.6S376.716,114.235,378.639,114.564Z" transform="translate(-262.37 -61.119)" fill="#263238"/>
        <path id="Path_48821" data-name="Path 48821" d="M371.235,113.86s-.119,0-.132.105c-.263,1.422-.79,3.016-2.173,3.2v.092C370.537,117.363,371.221,115.256,371.235,113.86Z" transform="translate(-264.815 -61.337)" fill="#263238"/>
        <path id="Path_48822" data-name="Path 48822" d="M370.577,112.556c-2.239-.658-3.384,3.858-1.317,4.464S372.408,113.161,370.577,112.556Z" transform="translate(-265.054 -61.771)" fill="#263238"/>
        <path id="Path_48823" data-name="Path 48823" d="M380.63,114.238a17.277,17.277,0,0,1-1.8-.645,3.161,3.161,0,0,1-1.725-1,1,1,0,0,1,.171-1.2,2.449,2.449,0,0,1,2.463-.25,3.687,3.687,0,0,1,2.068,1.567,1.053,1.053,0,0,1-1.172,1.528Z" transform="translate(-262.266 -62.268)" fill="#222"/>
        <path id="Path_48824" data-name="Path 48824" d="M369,111.177a18.325,18.325,0,0,0,1.9.3,3.108,3.108,0,0,0,1.988,0,.974.974,0,0,0,.421-1.119,2.41,2.41,0,0,0-2.041-1.4,3.556,3.556,0,0,0-2.634.382,1.054,1.054,0,0,0,.369,1.83Z" transform="translate(-265.033 -62.92)" fill="#222"/>
        <path id="Path_48825" data-name="Path 48825" d="M376.772,125.255c-.408.25-.843.645-1.317.566a3.687,3.687,0,0,1-1.435-.672h-.079a1.962,1.962,0,0,0,1.633,1.159,1.527,1.527,0,0,0,1.317-1.014C376.93,125.269,376.838,125.216,376.772,125.255Z" transform="translate(-263.229 -57.759)" fill="#263238"/>
        <path id="Path_48826" data-name="Path 48826" d="M377.6,125.784a4.991,4.991,0,0,1-3.674,1.462,6.189,6.189,0,0,1-1.751-.3,1.317,1.317,0,0,1-.316-.105,1.436,1.436,0,0,1-.3-.119.342.342,0,0,1-.211-.369h0a.6.6,0,0,1,0-.145h0v-.119c.2-1.093.658-2.726.658-2.726-.435.119-2.634.593-2.515,0a74.277,74.277,0,0,1,4.991-14.17.133.133,0,1,1,.25.092c-1.053,4.517-2.91,8.81-4.043,13.34a8.705,8.705,0,0,1,2.41-.211c.145.079-.935,3.147-.988,3.648a6.835,6.835,0,0,0,5.267-.487C377.616,125.573,377.708,125.691,377.6,125.784Z" transform="translate(-264.639 -62.844)" fill="#263238"/>
        <path id="Path_48827" data-name="Path 48827" d="M372.11,122.53a5.808,5.808,0,0,0,1.91,2.265,2.634,2.634,0,0,0,1.541.435c1.185,0,1.435-1.093,1.422-2.028a6.476,6.476,0,0,0-.211-1.462,7.546,7.546,0,0,1-4.662.79Z" transform="translate(-263.808 -58.84)" fill="#263238"/>
        <path id="Path_48828" data-name="Path 48828" d="M373.56,124.453a2.634,2.634,0,0,0,1.541.435c1.185,0,1.435-1.093,1.422-2.028a2.713,2.713,0,0,0-2.963,1.593Z" transform="translate(-263.348 -58.498)" fill="#ff9abb"/>
        <path id="Path_48829" data-name="Path 48829" d="M397.19,130.172c-3.687-1.2-2.028-10.8-2.028-10.8s-4.385-2.634-4.306-11.6c0,0-4.78,7.993-20.135,3.24a13.749,13.749,0,0,1,2.634-7.98,58.3,58.3,0,0,0-5.5,7.743s-1.317-13.735,10.6-16.316c4.767-1.027,11.444.579,20.767,7.506,0,0,3.081-5.781,4.122-4.767s-2.291,6.347-2.291,6.347,4.754-.579,5.346.5-4.043,1.317-4.043,1.317a9.06,9.06,0,0,1,3.951,11.18C403.88,123.6,399.021,130.817,397.19,130.172Z" transform="translate(-265.171 -67.574)" fill="#222"/>
        <path id="Path_48830" data-name="Path 48830" d="M393.137,102.391a8.27,8.27,0,0,1,7.072,8.375,15.527,15.527,0,0,1-2.186,6.584,29.433,29.433,0,0,1-4.49,5.794c-.092.105-.237-.066-.145-.158a21.94,21.94,0,0,0,3.779-5.557,20.385,20.385,0,0,0,2.133-6.058,7.9,7.9,0,0,0-6.2-8.8C392.993,102.588,392.993,102.364,393.137,102.391Z" transform="translate(-257.181 -64.972)" fill="#a6a6a6"/>
        <path id="Path_48831" data-name="Path 48831" d="M386.21,94.318a32.026,32.026,0,0,1,7.177,4.227,23.36,23.36,0,0,1,5.557,5.6c.079.119-.066.25-.158.145A41.942,41.942,0,0,0,386.433,95.6c-4.2-2.067-9.442-3.016-13.458,0,0,0-.145,0-.092-.105C376.6,92.212,381.93,92.541,386.21,94.318Z" transform="translate(-263.567 -67.948)" fill="#a6a6a6"/>
        <path id="Path_48832" data-name="Path 48832" d="M367.67,122.067c-2.3-.645-3.4-3.951-2.436-7.48s3.621-5.794,5.926-5.162,3.4,3.951,2.436,7.48S370.027,122.673,367.67,122.067Zm3.266-11.852c-1.844-.5-3.951,1.541-4.846,4.556s0,5.886,1.817,6.387,3.951-1.528,4.846-4.543.066-5.86-1.765-6.4Z" transform="translate(-266.097 -62.776)" fill="#37474f"/>
        <path id="Path_48833" data-name="Path 48833" d="M379.073,125.138a6.584,6.584,0,1,1,7.638-4.688,6.36,6.36,0,0,1-7.638,4.688Zm3.253-11.852a5.689,5.689,0,1,0,3.542,6.861,5.465,5.465,0,0,0-3.543-6.861Z" transform="translate(-263.277 -61.895)" fill="#37474f"/>
        <path id="Path_48834" data-name="Path 48834" d="M376.185,116.091c-2.858-1.975-4.583-1.317-4.6-1.317l-.329-.816c.079,0,2.133-.856,5.426,1.422Z" transform="translate(-264.077 -61.356)" fill="#37474f"/>
        <path id="Path_48835" data-name="Path 48835" d="M383.4,118.089l.066-.869c.579,0,9.6.461,11.022.777s4.411,3.2,4.741,3.529l-.553.672a17.042,17.042,0,0,0-4.254-3.279h0C393.2,118.616,388.259,118.524,383.4,118.089Z" transform="translate(-260.23 -60.272)" fill="#37474f"/>
        <path id="Path_48836" data-name="Path 48836" d="M388.055,121.522s5.386-6.347,8.323-4.359-1.58,11.5-5.333,12.51a3.714,3.714,0,0,1-4.754-2.449Z" transform="translate(-259.315 -60.413)" fill="#eb9481"/>
        <path id="Path_48837" data-name="Path 48837" d="M394.533,119.11v.105c-2.634.79-4.2,3.016-5.36,5.373a2.041,2.041,0,0,1,3.095-.277c.066,0,0,.158-.079.132a2.278,2.278,0,0,0-2.568.553,10.838,10.838,0,0,0-1.383,1.909c-.145.211-.54,0-.435-.2h0C388.068,123.4,391.031,119.11,394.533,119.11Z" transform="translate(-258.84 -59.673)" fill="#263238"/>
        <path id="Path_48838" data-name="Path 48838" d="M376.912,139.341l3.4,11.746,16.711-12.207,2.5,5.728s-16.8,19.411-16.737,18.436l-3.187-9.9-7.6,5.386,2.976-15.987Z" transform="translate(-263.843 -53.409)" fill="#00a0ad"/>
        <path id="Path_48839" data-name="Path 48839" d="M373.081,149.649c.593-2.634,1.106-5.267,1.817-7.9,0-.092.184-.105.184,0,.171,2.634-2.12,12.668-2.489,15.1h0c.316-.237,6.993-4.7,7.045-4.609.764,1.62,3.121,8.823,3.253,9.468,2.634-3.081,13.788-15.144,16.816-17.988.079-.079.224,0,.145.119-2.436,3.319-16.869,19.279-17.027,19.2a102.016,102.016,0,0,1-3.319-10.456c-1.172,1.014-8.007,6.163-7.967,5.768a81.217,81.217,0,0,1,1.541-8.7Z" transform="translate(-263.988 -52.524)" fill="#263238"/>
        <path id="Path_48840" data-name="Path 48840" d="M324.418,137.74a15.326,15.326,0,0,1-2.937-.435l-.685-.184-.606-.184-.421-.132-6.15-2.252a14.349,14.349,0,0,0,1.712.527,14.1,14.1,0,0,0,1.488.277c.461,0,.948.119,1.449.145,12.168.7,24.244-11.72,26.956-27.654,2.094-12.339-1.962-23.19-9.508-27.852a15.907,15.907,0,0,0-2.976-1.435l6.163,2.226h0c.263.092.514.2.777.316l.658.29.3.158.487.25.276.158c4.728,2.726,8.151,7.835,9.64,14.222.079.329.145.658.211.988a35.161,35.161,0,0,1,.066,12.879C348.662,126.02,336.586,138.4,324.418,137.74Z" transform="translate(-282.341 -72.522)" fill="#37474f"/>
        <path id="Path_48841" data-name="Path 48841" d="M301.4,106.521c-2.765,16.263,3.608,30.288,14.644,34.344l6.15,2.239c-11.035-3.951-17.4-18.081-14.644-34.344,3.2-18.765,17.37-33.33,31.6-32.527a19.477,19.477,0,0,1,3.437.514,16.511,16.511,0,0,1,1.988.593l-6.15-2.226a18.686,18.686,0,0,0-5.426-1.106C318.761,73.191,304.592,87.769,301.4,106.521Z" transform="translate(-286.416 -73.975)" fill="#37474f"/>
        <path id="Path_48842" data-name="Path 48842" d="M357.773,111.132c2.779-16.316-3.648-30.446-14.736-34.383l-.751-.25h-.211c-.3-.092-.606-.171-.922-.237-.553-.132-1.106-.25-1.672-.329s-1.159-.145-1.751-.184c-14.275-.8-28.444,13.774-31.6,32.527a41.258,41.258,0,0,0,.342,16.25q.25,1.119.593,2.212c.224.724.461,1.422.737,2.12a20.78,20.78,0,0,0,.856,2c.145.329.3.645.474.974a25.852,25.852,0,0,0,1.607,2.634h0c.382.566.79,1.106,1.212,1.633a20.5,20.5,0,0,0,6.8,5.57,5.786,5.786,0,0,0,.579.277l.961.421h.079a16.549,16.549,0,0,0,2.41.764,19.657,19.657,0,0,0,3.437.5C340.4,144.475,354.6,129.91,357.773,111.132ZM327,138.641a15.327,15.327,0,0,1-2.937-.435l-.685-.184-.606-.184a15.8,15.8,0,0,1-3.371-1.58c-7.559-4.649-11.615-15.5-9.521-27.839,2.713-15.987,14.8-28.4,26.969-27.654a10.582,10.582,0,0,1,1.449.145,13.851,13.851,0,0,1,1.475.277,17.24,17.24,0,0,1,1.712.514h0c.263.092.514.2.777.316l.658.29.3.158.487.25.277.158c4.728,2.726,8.151,7.835,9.639,14.222.079.329.145.658.211.988a35.161,35.161,0,0,1,.066,12.879C351.241,126.921,339.166,139.3,327,138.641Z" transform="translate(-284.921 -73.424)" fill="#455a64"/>
        <path id="Path_48843" data-name="Path 48843" d="M319.922,135.2a10.183,10.183,0,0,1-1.449-.145c-7.559-4.649-11.615-15.5-9.521-27.839,2.713-15.987,14.8-28.4,26.969-27.654a10.584,10.584,0,0,1,1.449.145c7.546,4.662,11.6,15.513,9.508,27.852C344.165,123.475,332.089,135.893,319.922,135.2Z" transform="translate(-283.994 -72.216)" fill="#fff" opacity="0.4"/>
        <g id="Group_19996" data-name="Group 19996" transform="translate(24.418 7.27)" opacity="0.3">
          <path id="Path_48844" data-name="Path 48844" d="M344.931,89.058,310.85,96.578a38.69,38.69,0,0,1,2.831-5.452l29.261-6.466a24.584,24.584,0,0,1,1.988,4.4Z" transform="translate(-307.637 -77.859)" fill="#ebebeb"/>
          <path id="Path_48845" data-name="Path 48845" d="M336.9,81.477,317.45,85.77c4.609-4.174,10.1-6.584,15.6-6.242a10.584,10.584,0,0,1,1.449.145A16.539,16.539,0,0,1,336.9,81.477Z" transform="translate(-305.546 -79.496)" fill="#ebebeb"/>
          <path id="Path_48846" data-name="Path 48846" d="M346.289,91.175,309.72,99.247c.263-.869.566-1.738.882-2.634L345.71,88.87C345.934,89.647,346.131,90.358,346.289,91.175Z" transform="translate(-307.995 -76.525)" fill="#ebebeb"/>
          <path id="Path_48847" data-name="Path 48847" d="M337.5,114.41a31.78,31.78,0,0,1-2.765,3l-20.293,4.477a16.448,16.448,0,0,1-1.844-1.975Z" transform="translate(-307.082 -68.432)" fill="#ebebeb"/>
          <path id="Path_48848" data-name="Path 48848" d="M344.229,110.128,310.1,117.661a31.208,31.208,0,0,1-1.686-9.534L347.1,99.58c-.066.514-.145,1.027-.224,1.554A40.152,40.152,0,0,1,344.229,110.128Z" transform="translate(-308.41 -73.131)" fill="#ebebeb"/>
        </g>
        <g id="Mask_Group_87" data-name="Mask Group 87" transform="translate(47.008 194.524)" clip-path="url(#clip-path)">
          <g id="Group_20126" data-name="Group 20126" transform="translate(-34.705 -27.407)">
            <path id="Path_48761" data-name="Path 48761" d="M300.657,494.4c3.226,1.04,95.038-.158,98.5-2.423,1.317-.83,1.936-14.222,2.2-30.42v-.514c.066-3.332.119-6.769.119-10.258v-1.435l-4.451-47.631-61.419.619,6.058,47.183.079,1.87.369,9.758v1.014s-34.9,16.171-38.439,19.068S297.431,493.374,300.657,494.4Z" transform="translate(-299.209 -137.24)" fill="#eb9481"/>
            <path id="Path_48762" data-name="Path 48762" d="M300.657,482.94c3.226,1.04,95.038-.158,98.5-2.423,1.317-.83,1.936-14.222,2.2-30.42v-.514c.066-3.332.119-6.769.119-10.258V437.89l-59.812.171.079,1.87.369,9.758V450.7s-34.9,16.171-38.439,19.068S297.431,481.913,300.657,482.94Z" transform="translate(-299.209 -125.779)" fill="#ebebeb"/>
            <path id="Path_48763" data-name="Path 48763" d="M300.645,480.113c1.659.54,26.6.487,50.989,0,4.9-.092,9.771-.211,14.486-.329,17.4-.474,31.763-1.2,33.093-2.068s1.923-13.853,2.186-29.748v-1.2h-.079l-59.167.119V447.9s-34.937,16.158-38.479,19.055S297.432,479.1,300.645,480.113Z" transform="translate(-299.21 -122.965)" fill="#465a65"/>
            <path id="Path_48764" data-name="Path 48764" d="M301.117,469.648c15.473-.593,77.932-1.475,93.274-.869.118,0,.132.092,0,.105-15.328.909-77.787,1.317-93.261,1.014C300.8,469.885,300.8,469.648,301.117,469.648Z" transform="translate(-298.681 -116.056)" fill="#263238"/>
            <path id="Path_48765" data-name="Path 48765" d="M326.884,447.173c6.084-1.225,13.537-.382,18.252,3.951.184.171,0,.421-.25.369a86.009,86.009,0,0,0-17.962-3.5.409.409,0,1,1-.039-.816Z" transform="translate(-290.565 -123)" fill="#263238"/>
            <path id="Path_48766" data-name="Path 48766" d="M323.574,449.221c6.071-1.211,13.537-.369,18.252,3.951.184.158,0,.421-.263.356a84.861,84.861,0,0,0-17.949-3.49.409.409,0,1,1-.039-.817Z" transform="translate(-291.614 -122.348)" fill="#263238"/>
            <path id="Path_48767" data-name="Path 48767" d="M320.265,451.283c6.071-1.225,13.537-.382,18.239,3.951.184.171,0,.421-.25.369a85.675,85.675,0,0,0-17.962-3.5.408.408,0,1,1-.026-.816Z" transform="translate(-292.664 -121.697)" fill="#263238"/>
            <path id="Path_48768" data-name="Path 48768" d="M339,480.1c4.9-.092,9.771-.211,14.486-.329,17.4-.474,31.763-1.2,33.093-2.068s1.923-13.853,2.186-29.748v-1.2h-.079C380.587,452.449,352.024,471.464,339,480.1Z" transform="translate(-286.602 -122.968)" opacity="0.2"/>
            <path id="Path_48769" data-name="Path 48769" d="M330.746,524.988h66.186s-13.314-154.442-12.8-157.129c.672-3.463,4.57-19.095,9.771-39.506,1.62-6.387,3.384-13.235,5.267-20.346,4.938-19.213,10.377-40.217,15.1-58.482,7.111-27.378,12.655-48.645,12.655-48.645H370.753s-6.584,20.714-14.762,47.644C342.585,292.31,324.662,352.557,322.9,367.2,320.027,390.852,330.746,524.988,330.746,524.988Z" transform="translate(-291.86 -200.88)" fill="#263238"/>
            <path id="Path_48770" data-name="Path 48770" d="M331.027,438.549c10.1-.211,7.2-.29,17.3-.382,4.938,0,37.425-.329,42.034.435a.105.105,0,0,1,0,.2c-4.622.764-37.1.487-42.034.435-10.1-.092-7.2-.171-17.3-.382a.158.158,0,0,1,0-.3Z" transform="translate(-289.164 -125.714)" fill="#37474f"/>
            <path id="Path_48771" data-name="Path 48771" d="M360.18,355.051c2.16-9.56,5.4-18.923,8.217-28.313q8.612-28.6,17.3-57.165,4.346-14.288,8.718-28.55c1.488-4.807,2.963-9.613,4.464-14.407s3.147-9.35,4.477-14.077c.54-1.923.83-.869.145,1.58-1.4,4.925-2.779,9.863-4.214,14.788q-4.267,14.6-8.6,29.208-8.586,29.09-17.343,58.061-4.372,14.565-8.757,29.1a118.261,118.261,0,0,0-3.569,14.064,64.832,64.832,0,0,0-.593,15.065c.632,10.114,1.8,20.214,2.739,30.288s1.883,20.227,2.818,30.288q2.792,30.183,5.531,60.392.355,3.806.658,7.651c.066.856-.54.961-.632.145-2.173-19.911-4.543-40.046-6.4-59.983s-3.727-39.664-5.583-59.509c-.461-4.978-.988-9.969-1-14.973a61.887,61.887,0,0,1,1.62-13.656Z" transform="translate(-280.404 -197.5)" fill="#37474f"/>
            <path id="Path_48772" data-name="Path 48772" d="M364,200.88c3.951,30.1,11.3,86.531,16.711,127.473,12.642-49.606,32.922-127.473,32.922-127.473Z" transform="translate(-278.681 -200.88)" fill="#37474f"/>
            <path id="Path_48773" data-name="Path 48773" d="M353.848,494.983c3.226,1.053,95.038.2,98.515-2.054,1.317-.843,1.988-14.222,2.3-30.42v-.514c.079-3.332.132-6.769.145-10.258V450.3c.211-23.374-1.475-47.631-1.475-47.631l-60.01.4L395,450.249l.066,1.87.329,9.771v1s-35,16.053-38.558,18.937S350.635,493.969,353.848,494.983Z" transform="translate(-282.356 -136.939)" fill="#eb9481"/>
            <path id="Path_48774" data-name="Path 48774" d="M353.848,483.521c3.226,1.053,95.038.2,98.515-2.054,1.317-.843,1.988-14.222,2.3-30.42v-.514c.079-3.332.132-6.769.145-10.258V438.84H395l.066,1.87.329,9.771v1s-35,16.053-38.558,18.937S350.635,482.507,353.848,483.521Z" transform="translate(-282.356 -125.478)" fill="#ebebeb"/>
            <path id="Path_48775" data-name="Path 48775" d="M353.847,480.733c3.226,1.053,95.038.2,98.515-2.054,1.317-.843,1.988-14.222,2.3-30.42v-.514l-59.259-.105v1s-35,16.053-38.558,18.937S350.634,479.719,353.847,480.733Z" transform="translate(-282.355 -122.69)" fill="#465a65"/>
            <path id="Path_48776" data-name="Path 48776" d="M354.334,470.252c15.473-.527,77.932-1.172,93.261-.527.132,0,.132.092,0,.105-15.315.856-77.787,1-93.261.672C353.979,470.5,353.979,470.265,354.334,470.252Z" transform="translate(-281.828 -115.777)" fill="#263238"/>
            <path id="Path_48777" data-name="Path 48777" d="M380.152,447.938c6.071-1.2,13.537-.329,18.225,3.951.184.171,0,.421-.25.356a85.818,85.818,0,0,0-17.949-3.556.382.382,0,0,1-.026-.751Z" transform="translate(-273.657 -122.751)" fill="#263238"/>
            <path id="Path_48778" data-name="Path 48778" d="M376.832,449.978c6.071-1.2,13.537-.329,18.225,3.951.184.171,0,.421-.25.369a85.83,85.83,0,0,0-17.949-3.569.382.382,0,0,1-.026-.751Z" transform="translate(-274.709 -122.104)" fill="#263238"/>
            <path id="Path_48779" data-name="Path 48779" d="M373.5,452.017c6.071-1.185,13.537-.329,18.225,3.951.184.158,0,.421-.25.356a84.98,84.98,0,0,0-17.949-3.556.4.4,0,0,1-.026-.751Z" transform="translate(-275.752 -121.457)" fill="#263238"/>
            <path id="Path_48780" data-name="Path 48780" d="M360.5,200.88s1.317,26.811,7.427,48.053c.487,1.751,1.027,3.49,1.607,5.136a99.386,99.386,0,0,1,16.145,8.309s.645,21.57,1.317,45.629c.724,26.89,1.462,56.889,1.317,63.21-.566,23.8,2.976,154.706,2.976,154.706l66.107.263s-11.957-146.172-11.852-154.9c.119-14.012-3.213-75.97-5.781-121.152a356.3,356.3,0,0,0-6.176-49.251Z" transform="translate(-279.79 -200.88)" fill="#263238"/>
            <path id="Path_48781" data-name="Path 48781" d="M385.615,438.9c10.1-.171,7.19-.263,17.29-.316,4.951,0,37.425-.171,42.048.606.092,0,.092.184,0,.211-4.622.737-37.109.316-42.048.25-10.1-.145-7.2-.211-17.29-.461a.145.145,0,0,1,0-.29Z" transform="translate(-271.878 -125.564)" fill="#37474f"/>
            <path id="Path_48782" data-name="Path 48782" d="M414.39,208.221c1.212,36.872,2.5,73.745,4.148,110.617s10.351,169.415,12.576,189.985c0,.132-.2.184-.224,0-4.807-36.6-7.493-90.745-9.863-127.565s-3.951-73.745-5.267-110.617c-.7-20.859-1.251-41.718-1.87-62.578C413.916,207.905,414.377,207.931,414.39,208.221Z" transform="translate(-262.872 -198.634)" fill="#37474f"/>
            <path id="Path_48783" data-name="Path 48783" d="M365.419,240.071a122.877,122.877,0,0,1,18.9,9.9.215.215,0,1,1-.2.382c-6.374-3.095-12.892-6.071-19.081-9.521a.427.427,0,1,1,.382-.764Z" transform="translate(-278.427 -188.476)" fill="#37474f"/>
            <path id="Path_48784" data-name="Path 48784" d="M365.058,222.812c.435,2.344,1,4.675,1.514,7.006s.83,4.425,1.409,6.584a11.062,11.062,0,0,0,3.068,5.518c.856.8,1.8,1.514,2.726,2.239.487.4,1.027.777,1.541,1.185a4.823,4.823,0,0,0-.184-.948c-.158-.9-.3-1.791-.448-2.634-.342-1.988-.658-3.951-.961-5.952-.593-3.951-1.146-7.835-1.949-11.694a.118.118,0,1,1,.237,0c.974,3.832,2.041,7.612,2.884,11.47.421,1.9,1.9,11.233,1.962,11.852s.132,1.317.158,2.054a8.571,8.571,0,0,1,0,2.094.171.171,0,0,1-.316,0h0a8.179,8.179,0,0,1-.593-2.028c-.171-.672-.329-1.317-.448-2.028,0-.237-.079-.487-.105-.737-.922-.566-1.778-1.317-2.634-1.923s-1.883-1.317-2.752-2.068a10.535,10.535,0,0,1-3.358-5.267,38.413,38.413,0,0,1-1.093-6.716c-.3-2.634-.514-5.267-.9-7.9C364.781,222.707,365.058,222.654,365.058,222.812Z" transform="translate(-278.422 -193.959)" fill="#37474f"/>
          </g>
        </g>
      </g>
    </g>
  </g>
</svg>
