<svg xmlns="http://www.w3.org/2000/svg" width="389" height="389" viewBox="0 0 389 389">
  <g id="conservative_illustration" transform="translate(-7536 537.307)">
    <rect id="Rectangle_8307" data-name="Rectangle 8307" width="389" height="389" transform="translate(7536 -537.307)" fill="none"/>
    <g id="Warning-cuate" transform="translate(7536 -529.89)">
      <g id="freepik--Sign--inject-16" transform="translate(196.789 10.632)">
        <rect id="Rectangle_8303" data-name="Rectangle 8303" width="11.418" height="310.399" transform="translate(84.003 53.103)" fill="#dbdbdb"/>
        <path id="Path_27356" data-name="Path 27356" d="M345.852,61.41,256.14,216.792H435.563Z" transform="translate(-256.14 -61.41)" fill="#00a0ae"/>
        <path id="Path_27357" data-name="Path 27357" d="M346.71,84.91,276.5,206.528H416.93Z" transform="translate(-256.998 -62.401)" fill="#fff"/>
        <rect id="Rectangle_8305" data-name="Rectangle 8305" width="179.423" height="60.028" transform="translate(0 164.424)" fill="#00a0ae"/>
        <path id="Path_27359" data-name="Path 27359" d="M431.708,289.271H260.35V237.25H431.708Zm-170.4-.958H430.751v-50.1H261.308Z" transform="translate(-256.317 -68.823)" fill="#fff"/>
        <text id="HIGH_RISK" data-name="HIGH RISK" transform="translate(89.21 203.951)" fill="#fff" font-size="28" font-family="Montserrat-Bold, Montserrat" font-weight="700"><tspan x="-76.146" y="0">HIGH RISK</tspan></text>
        <path id="Path_27439" data-name="Path 27439" d="M22.026,10.2H10.183L.621-4.174A6.808,6.808,0,0,0-1.627-6.549a6.1,6.1,0,0,0-3.135-.728h-9.056V-14.94h13.3q5.953,0,7.346-4.306H-13.818v-5.826H6.7q-1.457-3.99-7.219-3.99h-13.3v-5.826h35.78v5.826H14.426a11.889,11.889,0,0,1,1.837,3.99h5.7v5.826H16.516a12.409,12.409,0,0,1-3.293,7.156A13.872,13.872,0,0,1,6.13-8.227a9.91,9.91,0,0,1,3.7,1.583A11.577,11.577,0,0,1,12.78-3.477Z" transform="translate(85.887 112.579)" fill="#00a0ae"/>
      </g>
      <g id="freepik--Character--inject-16" transform="translate(10.855 76.314)">
        <path id="Path_27383" data-name="Path 27383" d="M215.093,437.91h-82.93c-.69-2.672-1.351-5.3-2.011-7.883-.757-2.979-1.5-5.881-2.213-8.707-.163-.632-.326-1.264-.488-1.916-.546-2.165-1.082-4.282-1.609-6.331-.316-1.245-.632-2.481-.958-3.7s-.632-2.462-.958-3.649c-.086-.316-.153-.632-.239-.958s-.172-.69-.259-1.025-.211-.814-.316-1.226h0c-.115-.431-.22-.853-.326-1.274l-.594-2.356c-.3-1.13-.575-2.251-.852-3.333-.115-.469-.239-.958-.354-1.408q-.3-1.14-.575-2.213c-.125-.488-.239-.958-.354-1.418-.488-1.916-.958-3.7-1.36-5.364-.125-.441-.22-.872-.345-1.293-.172-.728-.354-1.418-.517-2.088q-.172-.632-.316-1.236c-.374-1.427-.709-2.73-.958-3.879-.086-.3-.163-.594-.239-.881-.182-.757-.364-1.427-.508-2.031-.067-.239-.115-.469-.182-.68s-.115-.46-.172-.661-.067-.3-.105-.421-.105-.4-.144-.565a1.322,1.322,0,0,0-.067-.249c-.124-.5-.182-.747-.182-.747h80.727s2.653,9.157,6.916,23.946c.862,3.008,1.791,6.255,2.8,9.7C208.244,413.964,211.539,425.458,215.093,437.91Z" transform="translate(-64.255 -140.118)" fill="#37474f"/>
        <path id="Path_27384" data-name="Path 27384" d="M146.507,438.744h-2.069q-4.6-19.061-8.918-38.189c-.7-3.094-1.379-6.2-2.059-9.31-.067-.3-.134-.575-.192-.872,0-.153.2-.22.239-.067l.086.287q1.408,5,2.787,10.019Q141.632,419.626,146.507,438.744Z" transform="translate(-65.027 -140.953)" fill="#263238"/>
        <path id="Path_27385" data-name="Path 27385" d="M193.082,370.476l-3.554,17.835L186.6,402.938l-4.971,24.9-.508,2.548-.852,4.262-.642,3.228H132.153l-2-7.883c-.757-2.979-1.5-5.881-2.213-8.707-.163-.632-.326-1.264-.488-1.916-.546-2.165-1.082-4.282-1.609-6.331-.316-1.245-.632-2.481-.958-3.7s-.632-2.462-.958-3.649c-.086-.316-.153-.632-.239-.958s-.172-.69-.259-1.025-.211-.814-.316-1.226h0c-.115-.431-.22-.852-.326-1.274l-.594-2.356c-.3-1.13-.575-2.251-.852-3.333-.125-.479-.239-.958-.354-1.408q-.3-1.14-.575-2.213c-.125-.488-.239-.958-.354-1.418-.489-1.916-.958-3.7-1.36-5.364-.125-.441-.22-.872-.345-1.293-.172-.728-.354-1.418-.517-2.088q-.172-.632-.316-1.236c-.374-1.427-.709-2.73-.958-3.879-.086-.3-.163-.594-.239-.881-.182-.757-.364-1.427-.508-2.031-.067-.239-.115-.469-.182-.68s-.115-.46-.172-.661-.067-.3-.105-.421-.105-.4-.144-.565a1.321,1.321,0,0,0-.067-.249c-.125-.5-.182-.747-.182-.747Z" transform="translate(-64.255 -140.117)" fill="#263238"/>
        <path id="Path_27386" data-name="Path 27386" d="M191.466,370.44h0c0,.441-.345,5.249-1.121,12.6-.22,2.145-.479,4.5-.785,7.021-.469,3.985-1.063,8.381-1.791,13.027-1.236,8.1-2.874,16.935-4.952,25.574-.747,3.113-1.571,6.2-2.443,9.214H76.17c1.226-15.881,2.356-30.249,3.247-41.57,1.245-15.929,2.05-25.862,2.05-25.862h110Z" transform="translate(-62.62 -140.119)" fill="#37474f"/>
        <path id="Path_27387" data-name="Path 27387" d="M195.487,380.331c-.125,3.726-.278,7.452-.517,11.159-.259,4.023-.623,8.046-1.149,12.059v.441c-.5,3.764-1.054,7.51-1.7,11.255-.6,3.487-1.044,7.251-2.586,10.479a10.229,10.229,0,0,1-2.433,3.285,7.194,7.194,0,0,1-3.333,1.724,3.383,3.383,0,0,1-.623.105h-.182a.239.239,0,0,1,.115.22,32.807,32.807,0,0,1-.144,3.764v.163c-.125,1.082-.326,2.155-.527,3.228h-1.791a.341.341,0,0,0,0-.067c.316-1.178.575-2.366.872-3.554s.709-2.395.958-3.621a.182.182,0,0,1,.086-.115,5.565,5.565,0,0,1-5.383-3.381,9.627,9.627,0,0,1-.086-4.895c.326-2.136.642-4.262.958-6.4.613-3.927,1.4-7.8,2.088-11.7l.316-1.782c1.4-7.931,2.874-15.872,4.617-23.726.067-.335.134-.661.211-.958a.194.194,0,1,1,.383.057c-.057.527-.105,1.063-.172,1.59-.307,3.017-.661,6.015-1.082,9.013-.508,3.525-.852,7.059-1.351,10.584-.163,1.2-.335,2.395-.508,3.592-.814,5.795-1.657,11.58-2.644,17.356-.46,2.682-2.126,7.481,1.724,8.314a3.956,3.956,0,0,0,2.615-.326,8.237,8.237,0,0,0,3.592-4.531,61.3,61.3,0,0,0,2.05-9.646q.958-5.3,1.676-10.613h0c.632-4.425,1.284-8.831,1.973-13.247l1.063-6.753c.172-1.034.335-2.079.508-3.123A.2.2,0,0,1,195.487,380.331Z" transform="translate(-66.861 -140.432)" fill="#263238"/>
        <path id="Path_27388" data-name="Path 27388" d="M99.989,408.111a52.931,52.931,0,0,0,12.854-1.724c1.916-.5,3.831-1.121,5.747-1.743a14.934,14.934,0,0,0,5.182-2.605c2.874-2.519,4.282-6.485,5.556-10.009a95.782,95.782,0,0,0,3.372-12.165c0-.2.335-.134.345.057a47,47,0,0,1-1.753,13.8c-1.044,3.831-2.452,8.065-5.536,10.737-3.238,2.806-7.663,3.831-11.781,4.31a53.978,53.978,0,0,1-14-.2.23.23,0,0,1,.019-.46Z" transform="translate(-63.614 -140.511)" fill="#263238"/>
        <path id="Path_27389" data-name="Path 27389" d="M92.287,379.989q-.345,8.745-.728,17.509-.91,20.4-1.973,40.8H87.67q1.351-20.46,2.874-40.862.575-8.736,1.274-17.452A.235.235,0,1,1,92.287,379.989Z" transform="translate(-63.104 -140.511)" fill="#263238"/>
        <path id="Path_27390" data-name="Path 27390" d="M179.048,244.768c14.3,17.318,65.4,81.081,58.208,98.84-7.289,17.988-24.348,30.354-33.228,17.826-7.327-10.335-34.913-81.877-38.86-100.353C161.414,243.494,164.948,227.748,179.048,244.768Z" transform="translate(-66.312 -134.513)" fill="#d3766a"/>
        <path id="Path_27391" data-name="Path 27391" d="M174.712,306.987l53.132-10.536s-37.4-46.369-52.25-56.906c-16.714-11.849-19.157-.709-16.015,18.515S174.712,306.987,174.712,306.987Z" transform="translate(-66.086 -134.396)" fill="#00a0ae"/>
        <path id="Path_27392" data-name="Path 27392" d="M227.844,296.419l-53.132,10.536S162.682,277.263,159.579,258s-.7-30.364,16.015-18.515c.843.6,1.762,1.322,2.749,2.136l1.207,1.025h0a250.684,250.684,0,0,1,19.31,19.693l.383.421c5.479,6.1,10.948,12.452,15.613,17.95l1.916,2.328C223.333,290.826,227.844,296.419,227.844,296.419Z" transform="translate(-66.087 -134.393)" fill="#00a0ae"/>
        <path id="Path_27393" data-name="Path 27393" d="M190.667,291.674a17.059,17.059,0,0,0-1.14,4.789,17.684,17.684,0,0,0,2.318-4.3,17.012,17.012,0,0,0,1.149-4.741,17.337,17.337,0,0,0-2.328,4.253ZM170.839,268.4a17.011,17.011,0,0,0-4.789-1.149,16.953,16.953,0,0,0,4.282,2.328,17.175,17.175,0,0,0,4.789,1.149,16.954,16.954,0,0,0-4.282-2.328Zm10.239-23.1a23.652,23.652,0,0,0-1.2-2.289h0L178.665,242a19.5,19.5,0,0,0,1.264,3.831A16.588,16.588,0,0,0,182.467,250a17.1,17.1,0,0,0-1.389-4.7Zm36.5,39.013c-.144-.307-.287-.613-.441-.91l-1.916-2.328a18.523,18.523,0,0,0,1.226,3.755A17.241,17.241,0,0,0,219,288.992a17.078,17.078,0,0,0-1.418-4.684ZM199.191,262.7c-.268.192-.536.4-.8.623a11.607,11.607,0,0,0,1.178-.2Z" transform="translate(-66.409 -134.705)" fill="#fff"/>
        <path id="Path_27394" data-name="Path 27394" d="M219.2,290.84c-1.916.077-18.506,3.113-22.1,3.831s-18.324,3.611-21.973,4.684a.134.134,0,0,0,0,.259c3.774-.364,18.63-3.218,22.308-3.889s20.048-4.042,21.791-4.665C219.416,290.993,219.33,290.84,219.2,290.84Z" transform="translate(-66.787 -136.764)" fill="#263238"/>
        <path id="Path_27395" data-name="Path 27395" d="M205.334,300.894l-30.651,6.082s-12.031-29.693-15.134-48.946c-2.289-14.186-1.58-23.946,5.661-23.362Z" transform="translate(-66.086 -134.395)" fill="#263238"/>
        <path id="Path_27396" data-name="Path 27396" d="M208.067,394.4,73.27,401.53s11.418-114.855,61.3-163.7c6.159-6.034,22.538-8.822,30.91-2.289,4.464,3.487,12.557,19.08,16.848,35S208.431,393.867,208.067,394.4Z" transform="translate(-62.497 -134.274)" fill="#00a0ae"/>
        <path id="Path_27397" data-name="Path 27397" d="M149.95,249.121a17.424,17.424,0,0,0-1.14,4.741,17,17,0,0,0,2.328-4.291,17.346,17.346,0,0,0,1.149-4.741A17.518,17.518,0,0,0,149.95,249.121ZM134.442,310.6a16.742,16.742,0,0,0-1.149,4.789,18.745,18.745,0,0,0,3.467-9.032A17.4,17.4,0,0,0,134.442,310.6Zm-9.856,65.22a17.021,17.021,0,0,0-1.149,4.732,18.745,18.745,0,0,0,3.467-9.032,17.164,17.164,0,0,0-2.318,4.3Zm62.538-84.444-.172.421a17.059,17.059,0,0,0-1.14,4.789,15.2,15.2,0,0,0,1.782-3.027h0C187.43,292.78,187.277,292.071,187.124,291.372Zm-25.565,77.691a17.107,17.107,0,0,0-1.159,4.789,16.984,16.984,0,0,0,2.337-4.282,17.336,17.336,0,0,0,1.14-4.741A17.4,17.4,0,0,0,161.559,369.062Zm-54.645-82.279a16.916,16.916,0,0,0-1.14,4.741,17.242,17.242,0,0,0,2.318-4.291,17.012,17.012,0,0,0,1.149-4.789,17,17,0,0,0-2.328,4.339Zm60.21-18.266a17.011,17.011,0,0,0-4.789-1.149,16.953,16.953,0,0,0,4.282,2.327,17.173,17.173,0,0,0,4.789,1.149,16.954,16.954,0,0,0-4.282-2.328ZM180.6,319.887a17.1,17.1,0,0,0-4.732-1.14,16.619,16.619,0,0,0,4.282,2.318,17.369,17.369,0,0,0,4.741,1.159,16.877,16.877,0,0,0-4.291-2.337Zm7.059,61.12a17.01,17.01,0,0,0-4.789-1.149,18.8,18.8,0,0,0,9.023,3.477,17.24,17.24,0,0,0-4.234-2.328ZM86.78,377.664a17.013,17.013,0,0,0-4.789-1.149,18.879,18.879,0,0,0,9.032,3.477A17.172,17.172,0,0,0,86.78,377.664ZM122.7,336.611a16.934,16.934,0,0,0-4.789-1.159,17.038,17.038,0,0,0,4.291,2.337,17.338,17.338,0,0,0,4.789,1.14,17.24,17.24,0,0,0-4.291-2.318Zm12.9-58.189a17.242,17.242,0,0,0-2.548-4.167,18.706,18.706,0,0,0,3.937,8.841A17.47,17.47,0,0,0,135.6,278.422Zm23.3,51.724a17.473,17.473,0,0,0-2.538-4.167,17.03,17.03,0,0,0,1.389,4.674,17.243,17.243,0,0,0,2.538,4.167,17.24,17.24,0,0,0-1.389-4.684Zm-54.875,28.113a17.032,17.032,0,0,0-2.548-4.157,17.471,17.471,0,0,0,1.389,4.674,16.857,16.857,0,0,0,2.548,4.157,17.126,17.126,0,0,0-1.389-4.684Zm9.119,40.948a17.166,17.166,0,0,0-2.538-4.167A16.609,16.609,0,0,0,112,399.713c.057.134.125.259.182.393l1.312-.067Zm71.474-49.214a17.012,17.012,0,0,0-4.167,2.529A18.794,18.794,0,0,0,189.3,348.6a16.282,16.282,0,0,0-4.674,1.341Zm-39.866,41.551a17.24,17.24,0,0,0-4.167,2.538,17.242,17.242,0,0,0,4.674-1.389,16.9,16.9,0,0,0,4.167-2.548A16.728,16.728,0,0,0,144.758,391.543Zm-65.133,9.483c-.575.268-1.149.546-1.7.853l3.17-.163a14.867,14.867,0,0,0,3.209-2.088,17.243,17.243,0,0,0-4.7,1.4Zm25.028-87.365a17.414,17.414,0,0,0-4.167,2.538,18.907,18.907,0,0,0,8.851-3.927,17.1,17.1,0,0,0-4.713,1.389Zm36.638,40.689a17.384,17.384,0,0,0-4.167,2.548,16.77,16.77,0,0,0,4.684-1.389,17.156,17.156,0,0,0,4.167-2.548,17.428,17.428,0,0,0-4.713,1.389Zm16.283-62.71a17.24,17.24,0,0,0-4.167,2.538,18.908,18.908,0,0,0,8.851-3.927,17.1,17.1,0,0,0-4.76,1.389ZM121.511,255c-.335.153-.661.307-.958.479-.374.536-.747,1.082-1.111,1.628a22.427,22.427,0,0,0,2.615-.958,17.536,17.536,0,0,0,4.167-2.538A17.1,17.1,0,0,0,121.473,255Z" transform="translate(-62.693 -134.824)" fill="#fff"/>
        <path id="Path_27398" data-name="Path 27398" d="M115.947,254.607c-37.883,44.645-63.773,115.2-50.325,125.564,15.258,11.772,71.628,21.456,94.022,23.4,6.944.6,8-56.934.546-56.762-9.032.211-42.806-6.647-43.706-6.657-1.916,0,16.465-58.429,21.781-81.3C145.669,226.963,130.171,237.845,115.947,254.607Z" transform="translate(-62.023 -134.553)" fill="#d3766a"/>
        <path id="Path_27399" data-name="Path 27399" d="M237.546,360.327c1.609,5.747-3.573,9.138-3.573,9.138A12.739,12.739,0,0,1,238,377.128c.469,5.23-7.529,8.257-7.529,8.257a15.718,15.718,0,0,1,2.95,8.774c-.057,5.048-7.663,9.253-7.663,9.253a13.774,13.774,0,0,1-2.261,9.349c-5.249,7.136-18.735,6.121-27.308,5.556s-34.674-11.245-39.4-12.624l5.383-53.984s39.176-8.429,49.166-6.341C219.759,347.147,235.736,353.89,237.546,360.327Z" transform="translate(-66.018 -139.048)" fill="#d3766a"/>
        <path id="Path_27400" data-name="Path 27400" d="M236.012,369.977c-8.5-4.013-17.72-5.306-26.82-7.117-.2,0-.259.287-.057.326,9.109,1.686,17.758,5.163,26.82,7.222a.23.23,0,0,0,.057-.431Z" transform="translate(-68.219 -139.8)" fill="#263238"/>
        <path id="Path_27401" data-name="Path 27401" d="M232.389,386.288a24.482,24.482,0,0,0-6.293-1.379c-2.251-.326-4.5-.623-6.762-.872q-6.782-.776-13.592-1.2c-.2,0-.268.3-.057.316,4.5.517,9,1.1,13.477,1.81q3.362.536,6.7,1.111a29.206,29.206,0,0,0,6.36.8.326.326,0,0,0,.163-.594Z" transform="translate(-68.074 -140.642)" fill="#263238"/>
        <path id="Path_27402" data-name="Path 27402" d="M227.485,405.869c-1.667-.814-3.889-.757-5.7-.958-2.069-.192-4.128-.393-6.2-.6-4.119-.421-8.237-.853-12.347-1.418-.2,0-.268.287-.057.316,4.167.594,8.324,1.255,12.5,1.81q3.075.421,6.149.8c1.753.22,3.908.69,5.642.239a.115.115,0,0,0,.01-.182Z" transform="translate(-67.968 -141.487)" fill="#263238"/>
        <path id="Path_27403" data-name="Path 27403" d="M129.959,310.337,76.32,302.531s34.961-48.237,49.243-59.52c16.073-12.7,19.052-1.7,16.954,17.653S129.959,310.337,129.959,310.337Z" transform="translate(-62.626 -134.518)" fill="#00a0ae"/>
        <path id="Path_27404" data-name="Path 27404" d="M121.642,255.389a16.935,16.935,0,0,0-4.2,2.538,18.908,18.908,0,0,0,8.85-3.927A17.1,17.1,0,0,0,121.642,255.389Zm14.128,23.419a17.24,17.24,0,0,0-2.548-4.167,18.706,18.706,0,0,0,3.937,8.841,17.472,17.472,0,0,0-1.389-4.674Zm-53.065,16.13h0c-.259.354-.517.709-.776,1.044H82a17.365,17.365,0,0,0,4.789,1.159A16.638,16.638,0,0,0,82.706,294.938Zm24.377-7.768a16.915,16.915,0,0,0-1.14,4.741,17.242,17.242,0,0,0,2.318-4.291,17.011,17.011,0,0,0,1.149-4.789A17,17,0,0,0,107.083,287.17Z" transform="translate(-62.862 -135.211)" fill="#fff"/>
        <path id="Path_27405" data-name="Path 27405" d="M85.674,296.19c1.916,0,18.64,2.155,22.26,2.711s18.486,2.653,22.193,3.534a.134.134,0,1,1,0,.268c-3.783-.172-18.774-2.251-22.481-2.739s-20.23-3-22.03-3.525C85.463,296.391,85.54,296.19,85.674,296.19Z" transform="translate(-63.014 -136.989)" fill="#263238"/>
        <path id="Path_27406" data-name="Path 27406" d="M127.881,310.526c1.628.115,4.167.393,4.167.393,1.6-7.395,3.994-14.684,5.919-22.03s4.147-14.818,6.2-22.241a.089.089,0,0,1,.172.048Q143,273.1,141.6,279.482l.632-1.533c.747-1.81,1.542-3.6,2.232-5.441a.129.129,0,1,1,.249.067,48.385,48.385,0,0,1-1.916,5.623c-.546,1.284-1.178,2.519-1.82,3.755-.556,2.433-1.1,4.875-1.724,7.3-1.916,7.442-3.448,15.843-5.919,23.113,0,0-3.745-.872-5.584-1.513a.182.182,0,0,1,.134-.326Z" transform="translate(-64.791 -135.741)" fill="#263238"/>
        <path id="Path_27407" data-name="Path 27407" d="M168.183,257.677c-7.241,2.462-21.073-7.663-26.973-16.35-.393-.6-.067-7.327-.057-15.527,0-4.971-.134-10.536-.623-15.555-.105-1.034,32.385,4.655,32.385,4.655s-2.1,10.872-1.207,19.665a11.254,11.254,0,0,0,.421,2.05c0,.086.057.2.077.335C173.221,240.819,175.194,255.292,168.183,257.677Z" transform="translate(-65.333 -133.361)" fill="#d3766a"/>
        <path id="Path_27408" data-name="Path 27408" d="M169.006,237.428a19.29,19.29,0,0,0,3.228-.479,2.662,2.662,0,0,0-.077-.345,11.761,11.761,0,0,1-.412-2.05c-.891-8.783,1.2-19.655,1.2-19.655s-26.36-4.626-31.513-4.789C142.934,215.857,150.309,238.807,169.006,237.428Z" transform="translate(-65.371 -133.36)" fill="#263238"/>
        <path id="Path_27409" data-name="Path 27409" d="M131.16,168.162c-2.538,11.494,5.967,43.5,14.531,50.1,12.452,9.578,31.465,9.071,39.272-5.555,7.577-14.186-4.243-55.68-13.7-61.551C157.357,142.521,134.915,151.17,131.16,168.162Z" transform="translate(-64.919 -130.732)" fill="#d3766a"/>
        <path id="Path_27410" data-name="Path 27410" d="M189.269,196.83h-.077c.623,8.055-.623,16.159-5.891,22.548a17.348,17.348,0,0,1-4.713,4.128.086.086,0,0,0,.086.144,22.605,22.605,0,0,0,4.531-3.247,20.114,20.114,0,0,0,3.448-4.435,24.846,24.846,0,0,0,3.372-11.906,36.169,36.169,0,0,0-.757-7.232Z" transform="translate(-66.936 -132.801)" fill="#263238"/>
        <path id="Path_27411" data-name="Path 27411" d="M166.056,187.239c0-.086-.144.144-.115.23.584,2.136.958,4.693-.872,5.881-.057,0,0,.144.048.115C167.416,192.555,166.965,189.164,166.056,187.239Z" transform="translate(-66.366 -132.395)" fill="#263238"/>
        <path id="Path_27412" data-name="Path 27412" d="M163.429,185.369c-3.544.584-2.117,7.615,1.159,7.069S166.389,184.88,163.429,185.369Z" transform="translate(-66.211 -132.316)" fill="#263238"/>
        <path id="Path_27413" data-name="Path 27413" d="M179.18,184.4c0-.086.192.067.211.153.354,2.193,1.13,4.646,3.247,4.981.067,0,.077.125,0,.134C180.167,189.763,179.17,186.525,179.18,184.4Z" transform="translate(-66.962 -132.275)" fill="#263238"/>
        <path id="Path_27414" data-name="Path 27414" d="M180.684,181.616c3.448-.958,5.105,6.025,1.916,6.906S177.791,182.411,180.684,181.616Z" transform="translate(-66.962 -132.155)" fill="#263238"/>
        <path id="Path_27415" data-name="Path 27415" d="M165.287,181.52A29.244,29.244,0,0,1,162.749,183a4.789,4.789,0,0,1-2.874,1.015,1.523,1.523,0,0,1-1.245-1.379,3.71,3.71,0,0,1,2.165-3.132,5.517,5.517,0,0,1,3.879-.881,1.619,1.619,0,0,1,.613,2.893Z" transform="translate(-66.096 -132.031)" fill="#263238"/>
        <path id="Path_27416" data-name="Path 27416" d="M182.19,174.619a27.23,27.23,0,0,1-2.941-.163,4.789,4.789,0,0,1-2.969-.738,1.5,1.5,0,0,1-.287-1.782c.757-1.216,2.165-1.465,3.525-1.437a5.546,5.546,0,0,1,3.726,1.4,1.628,1.628,0,0,1-1.054,2.72Z" transform="translate(-66.82 -131.691)" fill="#263238"/>
        <path id="Path_27417" data-name="Path 27417" d="M169.382,204.091c2.529-1.667,6.14-2.059,8.439-2.251.249-.086.374-.623.364-.872h0c0-.077-1.092-4.559-1.092-4.559.661.172,4.033.958,3.831.057-1.916-7.059-4.061-14.914-7.471-21.532a.2.2,0,0,0-.383.134c1.59,6.868,4.358,13.41,6.063,20.268a12.864,12.864,0,0,0-3.678-.326c-.22.115,1.418,4.789,1.494,5.527,0,0-4.665-.393-7.768,2.634C168.338,203.938,168.175,204.886,169.382,204.091Z" transform="translate(-66.512 -131.872)" fill="#263238"/>
        <path id="Path_27418" data-name="Path 27418" d="M164.9,211.682a3.51,3.51,0,0,0,2.088.872,5.747,5.747,0,0,0,2.193-1.044.077.077,0,0,1,.115.1,2.979,2.979,0,0,1-2.481,1.753,2.347,2.347,0,0,1-2.1-1.542C164.662,211.7,164.815,211.624,164.9,211.682Z" transform="translate(-66.352 -133.419)" fill="#263238"/>
        <path id="Path_27419" data-name="Path 27419" d="M173.855,201.89c-2.04.4-8.515,3.027-6.906,6.034.7,1.322,2.874.536,4.54-1.389A14.2,14.2,0,0,0,173.855,201.89Z" transform="translate(-66.436 -133.014)" fill="#263238"/>
        <path id="Path_27420" data-name="Path 27420" d="M170.656,207.546c-1.475,1.274-3.123,1.638-3.716.536a2.117,2.117,0,0,1,.239-2.328C168.424,205.544,171.077,205.333,170.656,207.546Z" transform="translate(-66.436 -133.172)" fill="#ff9abb"/>
        <path id="Path_27421" data-name="Path 27421" d="M180.162,161.244c-9.76,10.709-28.515,2.385-28.515,2.385A12.988,12.988,0,0,1,140.7,174.654s2.337,20.239-2.874,21.417c-7.931,1.81-16.686-24.473-15.431-30.335s7.663-8.793,7.663-8.793-.469-4.2,3.544-9.09c4.425-5.412,24.387-4.224,24.387-4.224a17.74,17.74,0,0,1,3.257-7.567,5.019,5.019,0,0,1,7.193-1.006,11.916,11.916,0,0,0-.757,5.3c.421,5.987,5.134,4.875,3.831-.345a8.362,8.362,0,0,0-3.1-4.952c1.523-3.965,5.057-5.977,7.787-4.684C181.187,132.71,188.285,152.346,180.162,161.244Z" transform="translate(-64.563 -129.983)" fill="#263238"/>
        <path id="Path_27422" data-name="Path 27422" d="M140.09,196.544s-9.2-8.956-13.41-5.479,4.109,17.423,10.009,18.419a5.747,5.747,0,0,0,6.935-4.444Z" transform="translate(-64.701 -132.524)" fill="#d3766a"/>
        <path id="Path_27423" data-name="Path 27423" d="M129.317,195.209c-.086,0-.077.134,0,.153,4.167.824,6.887,4.023,9.013,7.462-1.418-1.216-3.132-1.7-4.789,0-.086.086,0,.23.144.182a3.506,3.506,0,0,1,4.023.479,17.1,17.1,0,0,1,2.4,2.72c.249.316.833,0,.632-.364a.393.393,0,0,1-.048-.086C139.844,200.85,134.7,194.691,129.317,195.209Z" transform="translate(-64.857 -132.731)" fill="#263238"/>
        <path id="Path_27424" data-name="Path 27424" d="M137.041,245.269a44.569,44.569,0,0,0,16.781,15.5,23.391,23.391,0,0,0,10.833,2.931,9.78,9.78,0,0,0,5.6-1.552,11.3,11.3,0,0,0,3.42-4.665,22.166,22.166,0,0,0,1.647-6.456,53.476,53.476,0,0,0,.326-7.538c0-.1.144-.086.144,0,.067,2.385.335,4.789.23,7.146a24.156,24.156,0,0,1-.958,6.216,14.11,14.11,0,0,1-2.874,5.23,8.784,8.784,0,0,1-5.364,2.711,20.785,20.785,0,0,1-11.676-2.05,38.39,38.39,0,0,1-9.895-6.619,42.069,42.069,0,0,1-8.391-10.757C136.754,245.23,136.993,245.134,137.041,245.269Z" transform="translate(-65.177 -134.765)" fill="#263238"/>
        <path id="Path_27425" data-name="Path 27425" d="M206.369,359.739c7.117,13.831,25.689,3.755,29.693-6.331,9.473-23.687,12.385-73.5,9.8-96.417-.833-7.375-47.959-.517-49.731,7.213C194.31,272.3,191.934,331.665,206.369,359.739Z" transform="translate(-67.619 -135.204)" fill="#d3766a"/>
        <path id="Path_27426" data-name="Path 27426" d="M245.2,256.684s1.916-14.933,3.036-28.065c.613-7.328-.958-22.27-2.979-27.854-3.008-8.362-20.929-41.408-29.032-37.231-7.337,3.774,11.667,30.21,11.667,30.21s-16.82-28.371-24.818-22.193,17.442,33.18,17.442,33.18S202.588,176,195.347,183.658c-5.469,5.795,16.2,31.609,16.2,31.609s-15.584-24.617-21.475-18.9c-6.494,6.322,12,31.36,12,31.36-12.452,17.05-15.009,27.71-5.067,37.921C198.613,267.23,245.2,256.684,245.2,256.684Z" transform="translate(-67.363 -131.382)" fill="#d3766a"/>
        <path id="Path_27427" data-name="Path 27427" d="M235.313,203.606c-1.849-3.4-3.707-6.858-5.852-10.086s-4.416-6.379-6.858-9.4a66.594,66.594,0,0,0-10.622-10.814c6.58,6.169,14.463,17.605,16.609,20.833s4.454,6.331,6.609,9.578C235.255,203.778,235.36,203.664,235.313,203.606Z" transform="translate(-68.344 -131.808)" fill="#263238"/>
        <path id="Path_27428" data-name="Path 27428" d="M223.6,212.191c-2.557-4.243-4.943-8.544-7.663-12.682s-5.68-7.768-8.688-11.686c-.23-.3-.316-.077-.1.239,2.874,4.023,5.172,7.969,7.969,12.031s5.747,8.017,8.41,12.165C223.543,212.326,223.639,212.258,223.6,212.191Z" transform="translate(-68.136 -132.415)" fill="#263238"/>
        <path id="Path_27429" data-name="Path 27429" d="M214.709,221.431A114.424,114.424,0,0,0,201.5,202.495c-.239-.287-.316,0-.086.326,4.511,6.063,8.065,11.236,13.065,18.745C214.556,221.68,214.785,221.575,214.709,221.431Z" transform="translate(-67.893 -133.034)" fill="#263238"/>
        <path id="Path_27430" data-name="Path 27430" d="M202.168,179.881a13.889,13.889,0,0,1-.814-4.272,5.689,5.689,0,0,1,1.437-3.621c.057-.067.163,0,.1.1-1.14.958-1.159,2.816-.958,4.167a22.519,22.519,0,0,0,1.044,3.879,32.028,32.028,0,0,0,1.676,3.831,38.856,38.856,0,0,0,2.011,3.6h0a.057.057,0,0,1,0,.067h0a.067.067,0,0,1-.1,0,14.607,14.607,0,0,0-5.029-3.831,6.206,6.206,0,0,0-2.874-.776,3.831,3.831,0,0,0-3.592,3.573,7.663,7.663,0,0,0,.527,2.73,57.308,57.308,0,0,0,2.318,5.939,34.531,34.531,0,0,0,1.561,3.161c.6,1.034,1.207,2.031,1.7,3.094,0,.067-.211.125-.259.086-.651-.546-5.23-4.981-7.979-5.211a3.4,3.4,0,0,0-3.506,1.849,6.867,6.867,0,0,0-.469,4.406,52.438,52.438,0,0,0,2.27,7.471c0,.077-.1.115-.125,0-.718-1.772-2.28-5.575-2.768-7.423a6.762,6.762,0,0,1,.239-4.693,4.2,4.2,0,0,1,3.41-2.452,7.05,7.05,0,0,1,4.186,1.561,45.924,45.924,0,0,1,4.186,3.659c-.45-.651-2.414-4.071-2.931-5.115a48.245,48.245,0,0,1-2.7-6.465c-.661-1.916-.833-4.052.718-5.651a4.789,4.789,0,0,1,5.393-.824,12.453,12.453,0,0,1,3.831,2.557c-.278-.393-.546-.8-.785-1.226a23.439,23.439,0,0,1-1.715-4.167Z" transform="translate(-67.335 -131.752)" fill="#263238"/>
        <path id="Path_27431" data-name="Path 27431" d="M199.57,343.29c.872,2.548,1.7,5.1,2.644,7.605s1.858,5.019,2.874,7.471a36.127,36.127,0,0,0,3.678,6.9,6.293,6.293,0,0,0,.575.718l.613.613a12.63,12.63,0,0,0,1.542,1.073,12.174,12.174,0,0,0,3.439,1.389,12.663,12.663,0,0,0,3.707.287,15.373,15.373,0,0,0,3.688-.8,24.771,24.771,0,0,0,6.782-3.736c1.073-.757,2.05-1.667,3.046-2.519a16.283,16.283,0,0,0,2.519-2.96,25.986,25.986,0,0,0,3.4-7.193,23.5,23.5,0,0,1-2.6,7.663,17.244,17.244,0,0,1-2.443,3.352A37.658,37.658,0,0,1,230.058,366a24.4,24.4,0,0,1-7.107,4.272,16.359,16.359,0,0,1-4.138.958,14.779,14.779,0,0,1-4.3-.287,14.147,14.147,0,0,1-3.965-1.657,13.942,13.942,0,0,1-1.753-1.255l-.8-.8a7.73,7.73,0,0,1-.661-.872,33.159,33.159,0,0,1-3.6-7.423,96.866,96.866,0,0,1-4.157-15.642Z" transform="translate(-67.822 -138.975)" fill="#263238"/>
      </g>
      <g id="freepik--Lines--inject-16" transform="translate(133.801 51.235)">
        <path id="Path_27432" data-name="Path 27432" d="M200.99,131.721l11.5-16.494,5.661,5.766,10.383-12.433,5.929,6.216L217.637,125.61l-4.511-5.623Z" transform="translate(-190.827 -104.001)" fill="#455a64"/>
        <path id="Path_27433" data-name="Path 27433" d="M197.16,142.164l15.871-3.544.01,5.067,11.532.776.115,5.421-15.479-2.8,1.216-4.962Z" transform="translate(-190.666 -105.268)" fill="#455a64"/>
        <path id="Path_27434" data-name="Path 27434" d="M191.549,131.52l-1.169-15.278,5.441.661-.115-12.452,6.063-.651-3.439,16.13-4.837-.91Z" transform="translate(-190.38 -103.8)" fill="#455a64"/>
      </g>
      <g id="freepik--Table--inject-16" transform="translate(0.958 374.038)">
        <path id="Path_27435" data-name="Path 27435" d="M51.69,441.289l47.48-.24,47.49-.077,94.98-.163,94.98.163,47.49.077,47.48.24-47.48.23-47.49.086-94.98.163-94.98-.163-47.49-.086Z" transform="translate(-51.69 -440.81)" fill="#263238"/>
      </g>
      <g id="freepik--speech-bubble--inject-16" transform="translate(0 25.861)">
        <path id="Path_27436" data-name="Path 27436" d="M50.69,111.5a33.975,33.975,0,0,0,54.243,27.3l16.657,4.253-6.935-15.508A33.994,33.994,0,1,0,50.69,111.5Z" transform="translate(-50.69 -77.318)" fill="#fff"/>
        <path id="Path_27437" data-name="Path 27437" d="M50.69,111.5a34.166,34.166,0,0,0,5.086,17.758,39.388,39.388,0,0,0,2.711,3.831,39.951,39.951,0,0,0,3.257,3.362,22.194,22.194,0,0,0,1.772,1.523l1.916,1.4c.632.46,1.331.814,1.992,1.236l.958.594c.335.192.7.345,1.044.517l2.117.958,2.2.785a15.018,15.018,0,0,0,2.241.651c.757.172,1.5.421,2.27.527a34.312,34.312,0,0,0,4.636.508,29.044,29.044,0,0,0,4.655-.067,34.06,34.06,0,0,0,9.042-2.117,34.482,34.482,0,0,0,8.1-4.511l.125-.1h.163l16.676,4.176-.489.584L114.2,127.683l-.1-.2.115-.2a33.678,33.678,0,0,0,1.111-29.406,34.952,34.952,0,0,0-9.023-12.136,33.525,33.525,0,0,0-13.458-6.964,34.08,34.08,0,0,0-15.2-.412A34.54,34.54,0,0,0,63.8,84.743,34.08,34.08,0,0,0,50.69,111.5Zm0,0a34.221,34.221,0,1,1,68.419,1.3,33.6,33.6,0,0,1-4.052,14.971v-.412l6.9,15.527.354.795-.843-.22-16.638-4.329.287-.057A34.08,34.08,0,0,1,87.605,145.6a29.771,29.771,0,0,1-4.713,0,33.306,33.306,0,0,1-4.674-.565c-.785-.115-1.533-.374-2.289-.556a16.652,16.652,0,0,1-2.26-.69l-2.2-.824c-.709-.326-1.408-.68-2.117-1.025-.354-.182-.709-.335-1.054-.527l-.958-.623c-.651-.421-1.351-.8-1.983-1.264l-1.916-1.418a20.847,20.847,0,0,1-1.772-1.542,37.587,37.587,0,0,1-3.257-3.391,36.832,36.832,0,0,1-2.692-3.831A34.2,34.2,0,0,1,50.69,111.5Z" transform="translate(-50.69 -77.31)" fill="#263238"/>
        <path id="Path_27438" data-name="Path 27438" d="M81.44,91.57h7.95l-.536,29.31H81.976Z" transform="translate(-51.986 -77.911)" fill="#00a0ae"/>
        <rect id="Rectangle_8306" data-name="Rectangle 8306" width="6.877" height="6.877" transform="translate(29.99 46.638)" fill="#00a0ae"/>
      </g>
    </g>
  </g>
</svg>
