<svg xmlns="http://www.w3.org/2000/svg" width="36.377" height="31.525" viewBox="0 0 36.377 31.525">
  <g id="feature_icon" transform="translate(-239.001 -1787.4)">
    <g id="Rectangle_8266" data-name="Rectangle 8266" transform="translate(241.566 1787.5)" fill="#fff" stroke="#707070" stroke-width="1" opacity="0">
      <rect width="31.245" height="31.425" stroke="none"/>
      <rect x="0.5" y="0.5" width="30.245" height="30.425" fill="none"/>
    </g>
    <g id="savings" transform="translate(239.001 1787.5)">
      <g id="Group_16630" data-name="Group 16630" transform="translate(0 13.236)">
        <g id="Group_16627" data-name="Group 16627">
          <path id="Path_26996" data-name="Path 26996" d="M5.3,27.157H.758A.758.758,0,0,1,0,26.4V12.758A.758.758,0,0,1,.758,12c5.155,0,7.879,1.737,7.992,1.811a.76.76,0,0,1,.321.822L6.04,26.586a.759.759,0,0,1-.735.571ZM1.516,25.641h3.2L7.457,14.834a15.177,15.177,0,0,0-5.942-1.305Z" transform="translate(0 -12)" fill="#00a0ae"/>
        </g>
        <g id="Group_16628" data-name="Group 16628" transform="translate(4.972 8.336)">
          <path id="Path_26997" data-name="Path 26997" d="M18.013,27.352c-3.573,0-10.492-3.009-14.3-4.8a.757.757,0,0,1,.646-1.37c6.283,2.959,11.257,4.656,13.652,4.656,3.686,0,12.376-4.33,14.875-5.619a3.272,3.272,0,0,0-2.749-1.2,18.278,18.278,0,0,0-4.888,1.1,19.18,19.18,0,0,1-5.343,1.172,26.833,26.833,0,0,1-7.459-1.561.758.758,0,0,1,.518-1.425,25.747,25.747,0,0,0,6.94,1.47,18.278,18.278,0,0,0,4.888-1.1A19.18,19.18,0,0,1,30.138,17.5a4.511,4.511,0,0,1,4.508,2.792.758.758,0,0,1-.362.909c-.471.25-11.589,6.151-16.271,6.151Z" transform="translate(-3.28 -17.5)" fill="#00a0ae"/>
        </g>
        <g id="Group_16629" data-name="Group 16629" transform="translate(7.304 2.759)">
          <path id="Path_26998" data-name="Path 26998" d="M22.524,22.566a.758.758,0,0,1-.758-.758V21.05a2.245,2.245,0,0,0-1.734-2.2L5.4,15.314a.758.758,0,0,1,.355-1.473l14.627,3.532a3.752,3.752,0,0,1,2.9,3.677v.758a.758.758,0,0,1-.758.758Z" transform="translate(-4.819 -13.82)" fill="#00a0ae"/>
        </g>
      </g>
      <g id="indian" transform="translate(13.641 0)">
        <path id="Path_27000" data-name="Path 27000" d="M14.382,7.4a.4.4,0,0,0-.4-.4H8.4a.4.4,0,1,0,0,.8h1.994a1.6,1.6,0,0,1,1.6,1.6H8.4a.4.4,0,1,0,0,.8h3.368a1.59,1.59,0,0,1-1.374.8H8.4a.4.4,0,0,0-.25.711l3.989,3.191a.4.4,0,0,0,.25.087.4.4,0,0,0,.25-.711l-3.1-2.48h.857a2.39,2.39,0,0,0,2.247-1.6h1.343a.4.4,0,0,0,0-.8h-1.2a2.378,2.378,0,0,0-.622-1.6h1.819A.4.4,0,0,0,14.382,7.4Z" transform="translate(-2.097 -1.895)" fill="#00a0ae" stroke="#00a0ae" stroke-width="0.2"/>
        <path id="Path_27001" data-name="Path 27001" d="M10.094,1a9.094,9.094,0,1,0,9.094,9.094A9.105,9.105,0,0,0,10.094,1Zm0,17.362a8.268,8.268,0,1,1,8.268-8.268A8.277,8.277,0,0,1,10.094,18.362Z" transform="translate(-1 -1)" fill="#00a0ae" stroke="#00a0ae" stroke-width="0.2"/>
      </g>
    </g>
  </g>
</svg>
