<svg xmlns="http://www.w3.org/2000/svg" width="360.001" height="360" viewBox="0 0 360.001 360">
  <g id="feature_illustration_2" transform="translate(-9927 -0.313)">
    <g id="Rectangle_7943" data-name="Rectangle 7943" transform="translate(9927 0.313)" fill="#fff" stroke="#707070" stroke-width="1" opacity="0">
      <rect width="360" height="360" stroke="none"/>
      <rect x="0.5" y="0.5" width="359" height="359" fill="none"/>
    </g>
    <g id="Revenue-cuate" transform="translate(9927 3.405)">
      <g id="freepik--Floor--inject-102" transform="translate(0 305.892)">
        <path id="Path_25433" data-name="Path 25433" d="M44.66,420.68l43.154-.21,43.162-.067,86.316-.143,86.315.143,43.162.067,43.154.21-43.154.2-43.162.076-86.315.143-86.316-.143-43.162-.076Z" transform="translate(-44.66 -420.26)" fill="#263238"/>
      </g>
      <g id="freepik--Shadow--inject-102" transform="translate(27.172 321.226)">
        <ellipse id="Ellipse_496" data-name="Ellipse 496" cx="145.459" cy="14.267" rx="145.459" ry="14.267" fill="#ebebeb"/>
      </g>
      <g id="Group_16048" data-name="Group 16048" transform="translate(172.633 31.347)">
        <rect id="Rectangle_7944" data-name="Rectangle 7944" width="134.24" height="68.178" fill="#00a3b1"/>
        <path id="Path_25434" data-name="Path 25434" d="M284.489,97.764a1.563,1.563,0,0,1-1.59,1.549h-.283v2.156a1.563,1.563,0,1,1-3.126,0V99.313h-8.933a1.348,1.348,0,0,1-.97-.337,1.509,1.509,0,0,1-.256-2.183l10.456-13.056h.067a.313.313,0,0,0,.081-.121.283.283,0,0,0,.135-.081l.121-.081a.284.284,0,0,1,.162,0s.067-.094.121-.094h.161a.175.175,0,0,0,.121,0h.485a.242.242,0,0,0,.135,0h.283l.148.121.135.081h.081l.108.121a.684.684,0,0,0,.094.108l.108.148a.207.207,0,0,0,0,.108,1.27,1.27,0,0,1,0,.175v.108a.333.333,0,0,1,0,.175V96.2h.283a1.577,1.577,0,0,1,1.873,1.563Zm-5-8.583-5.646,7.02h5.646Z" transform="translate(-213.304 -51.831)" fill="#465a65"/>
        <path id="Path_25435" data-name="Path 25435" d="M293.7,90.952a6.913,6.913,0,0,1,2.075,5,7.088,7.088,0,0,1-2.076,5.013,6.94,6.94,0,0,1-5,2.114h-.067a6.872,6.872,0,0,1-4.932-2.062,1.577,1.577,0,0,1,0-2.277,1.63,1.63,0,0,1,2.277,0,3.678,3.678,0,0,0,2.695,1.132,3.746,3.746,0,0,0,2.7-1.132,3.812,3.812,0,0,0-2.7-6.521,3.733,3.733,0,0,0-2.695,1.1,1.63,1.63,0,0,1-2.277,0l-.31-.377v-.081a.2.2,0,0,0,0-.135,1.744,1.744,0,0,0,0-.2h0a1.451,1.451,0,0,1,0-.485l.862-7.357a1.7,1.7,0,0,1,.7-1.132h.2a1.509,1.509,0,0,1,.741-.175h8.367a1.6,1.6,0,0,1,0,3.207H287.29l-.337,2.8a7.581,7.581,0,0,1,1.9-.256A6.951,6.951,0,0,1,293.7,90.952Z" transform="translate(-208.355 -51.828)" fill="#465a65"/>
        <path id="Path_25436" data-name="Path 25436" d="M295.732,88.17h0a4.8,4.8,0,0,1,4.716-5.08,4.73,4.73,0,0,1,4.649,5.026h0a4.8,4.8,0,0,1-4.716,5.08,4.743,4.743,0,0,1-4.648-5.026Zm6.844,0h0c0-1.59-.916-2.9-2.2-2.9s-2.129,1.347-2.129,2.843h0c0,1.617.917,2.9,2.2,2.9S302.577,89.706,302.577,88.17Zm-3.584,13.258,13.03-17.8a1.09,1.09,0,0,1,.97-.512,1.118,1.118,0,0,1,1.132,1.118,1.349,1.349,0,0,1-.256.728l-13.029,17.8a1.172,1.172,0,0,1-1,.512,1.091,1.091,0,0,1-1.1-1.1A1.349,1.349,0,0,1,298.993,101.428Zm8.745-3.1h0a4.7,4.7,0,1,1,9.364,0h0a4.809,4.809,0,0,1-4.716,5.08,4.743,4.743,0,0,1-4.648-5.08Zm6.831,0h0c0-1.59-.9-2.9-2.183-2.9s-2.129,1.347-2.129,2.843h0c0,1.617.916,2.9,2.2,2.9s2.115-1.307,2.115-2.843Z" transform="translate(-204.016 -51.924)" fill="#465a65"/>
        <path id="Path_25437" data-name="Path 25437" d="M270.636,95.352a16.883,16.883,0,1,1-2.237-8.394A16.883,16.883,0,0,1,270.636,95.352Z" transform="translate(-224.459 -53.532)" fill="#465a65"/>
        <path id="Path_25438" data-name="Path 25438" d="M266.286,95.356a16.9,16.9,0,0,1-10.848,15.779L249.39,95.356V78.46a16.882,16.882,0,0,1,16.9,16.9Z" transform="translate(-220.11 -53.534)" fill="#fff"/>
        <path id="Path_25439" data-name="Path 25439" d="M264.084,94.012A11.682,11.682,0,1,1,252.4,82.33,11.682,11.682,0,0,1,264.084,94.012Z" transform="translate(-223.125 -52.186)" fill="#00a3b1"/>
        <g id="Group_16047" data-name="Group 16047" transform="translate(78.695 8.166)">
          <rect id="Rectangle_7945" data-name="Rectangle 7945" width="4.662" height="4.15" transform="translate(2.046 4.631)" fill="#465a65"/>
          <path id="Path_25440" data-name="Path 25440" d="M296.77,71.7h8.771l-4.392-4.635Z" transform="translate(-296.77 -67.06)" fill="#465a65"/>
        </g>
        <path id="Path_25441" data-name="Path 25441" d="M5.957-.642a.721.721,0,0,1,.515.187.644.644,0,0,1,.2.492.625.625,0,0,1-.2.486A.735.735,0,0,1,5.957.7H4.119V6.839a.664.664,0,0,1-.222.509.782.782,0,0,1-.55.2.741.741,0,0,1-.539-.2A.682.682,0,0,1,2.6,6.839V.7H.759A.721.721,0,0,1,.244.517a.644.644,0,0,1-.2-.492.621.621,0,0,1,.2-.48A.726.726,0,0,1,.759-.642Zm5.725,1.815a.682.682,0,0,1,.5.2.7.7,0,0,1,.2.515V6.839a.7.7,0,0,1-.2.509.672.672,0,0,1-.5.2.663.663,0,0,1-.5-.2.736.736,0,0,1-.2-.5,2.538,2.538,0,0,1-1.838.819,2.676,2.676,0,0,1-1.463-.416A2.914,2.914,0,0,1,6.642,6.1a3.6,3.6,0,0,1-.38-1.674,3.681,3.681,0,0,1,.375-1.68A2.878,2.878,0,0,1,7.66,1.588a2.607,2.607,0,0,1,1.434-.416,2.712,2.712,0,0,1,1.054.2,2.767,2.767,0,0,1,.831.521V1.887a.7.7,0,0,1,.2-.509A.672.672,0,0,1,11.682,1.173ZM9.317,6.382a1.563,1.563,0,0,0,1.241-.556,2.065,2.065,0,0,0,.48-1.4,2.087,2.087,0,0,0-.48-1.4,1.638,1.638,0,0,0-2.47,0,2.087,2.087,0,0,0-.48,1.4,2.081,2.081,0,0,0,.474,1.4A1.546,1.546,0,0,0,9.317,6.382Zm9.2.059a.651.651,0,0,1,.152.421.67.67,0,0,1-.222.5.687.687,0,0,1-1.065-.094l-1.4-1.744-1.37,1.744a.739.739,0,0,1-.252.217.663.663,0,0,1-.31.076.718.718,0,0,1-.468-.187.555.555,0,0,1-.222-.433.685.685,0,0,1,.176-.445l1.627-1.99-1.686-2.1a.651.651,0,0,1-.152-.421.659.659,0,0,1,.217-.5.708.708,0,0,1,1.071.088l1.44,1.791,1.335-1.768a.665.665,0,0,1,.562-.316.645.645,0,0,1,.474.193.605.605,0,0,1,.193.439.7.7,0,0,1-.164.457L16.833,4.345ZM25.636,7.67a4.894,4.894,0,0,1-1.5-.211,3.469,3.469,0,0,1-1.229-.714.822.822,0,0,1-.316-.62.66.66,0,0,1,.2-.474.645.645,0,0,1,.48-.2.62.62,0,0,1,.4.14,3.446,3.446,0,0,0,.913.562,2.864,2.864,0,0,0,1.054.176,2.108,2.108,0,0,0,1.13-.293.848.848,0,0,0,.474-.726.931.931,0,0,0-.468-.825,3.969,3.969,0,0,0-1.487-.451q-2.564-.375-2.564-2.388A2.157,2.157,0,0,1,23.107.359a2.439,2.439,0,0,1,1.054-.831,3.728,3.728,0,0,1,1.487-.287,4.254,4.254,0,0,1,1.387.222,3.364,3.364,0,0,1,1.083.585.781.781,0,0,1,.339.62.66.66,0,0,1-.2.474.632.632,0,0,1-.468.2.514.514,0,0,1-.316-.105,3.092,3.092,0,0,0-.849-.451,2.813,2.813,0,0,0-.978-.2,2.014,2.014,0,0,0-1.141.275.837.837,0,0,0-.4.72.839.839,0,0,0,.416.761,3.942,3.942,0,0,0,1.305.421,6.771,6.771,0,0,1,1.61.451,2.054,2.054,0,0,1,.907.749,2.3,2.3,0,0,1,.3,1.258,2.1,2.1,0,0,1-.416,1.294,2.672,2.672,0,0,1-1.106.855A3.707,3.707,0,0,1,25.636,7.67Zm9.307-6.5a.682.682,0,0,1,.5.2.7.7,0,0,1,.2.515V6.839a.7.7,0,0,1-.2.509.672.672,0,0,1-.5.2.663.663,0,0,1-.5-.2.736.736,0,0,1-.2-.5A2.538,2.538,0,0,1,32.4,7.67a2.676,2.676,0,0,1-1.463-.416A2.914,2.914,0,0,1,29.9,6.1a3.6,3.6,0,0,1-.38-1.674,3.681,3.681,0,0,1,.375-1.68,2.878,2.878,0,0,1,1.024-1.159,2.607,2.607,0,0,1,1.434-.416,2.712,2.712,0,0,1,1.054.2,2.767,2.767,0,0,1,.831.521V1.887a.7.7,0,0,1,.2-.509A.672.672,0,0,1,34.943,1.173Zm-2.365,5.21a1.563,1.563,0,0,0,1.241-.556,2.065,2.065,0,0,0,.48-1.4,2.087,2.087,0,0,0-.48-1.4,1.638,1.638,0,0,0-2.47,0,2.087,2.087,0,0,0-.48,1.4,2.081,2.081,0,0,0,.474,1.4A1.546,1.546,0,0,0,32.578,6.382ZM41.838,1.3a.646.646,0,0,1,.468.181.6.6,0,0,1,.187.451.907.907,0,0,1-.094.351L40.211,7.108a.728.728,0,0,1-.24.316.652.652,0,0,1-.357.129l-.105.012a.616.616,0,0,1-.369-.123.805.805,0,0,1-.263-.334L36.7,2.285a.928.928,0,0,1-.082-.375.585.585,0,0,1,.2-.427.679.679,0,0,1,.492-.193.758.758,0,0,1,.41.117A.722.722,0,0,1,38,1.735l1.616,3.7,1.6-3.688a.772.772,0,0,1,.258-.339A.552.552,0,0,1,41.838,1.3Zm7.328,2.974a.6.6,0,0,1-.222.457.745.745,0,0,1-.492.176H44.589a1.765,1.765,0,0,0,.644,1.083,1.8,1.8,0,0,0,1.136.392,2.517,2.517,0,0,0,.749-.088,1.951,1.951,0,0,0,.427-.187l.217-.135a.893.893,0,0,1,.4-.105.575.575,0,0,1,.421.176.562.562,0,0,1,.176.41.731.731,0,0,1-.328.574,2.8,2.8,0,0,1-.878.457,3.63,3.63,0,0,1-2.827-.222,2.86,2.86,0,0,1-1.13-1.13,3.294,3.294,0,0,1-.4-1.621,3.589,3.589,0,0,1,.421-1.768A2.992,2.992,0,0,1,44.73,1.577a2.875,2.875,0,0,1,1.475-.4,2.735,2.735,0,0,1,1.457.421A3.15,3.15,0,0,1,48.757,2.73,3.053,3.053,0,0,1,49.167,4.275ZM46.2,2.461a1.453,1.453,0,0,0-1.6,1.276h3.067V3.655a1.21,1.21,0,0,0-.48-.843A1.519,1.519,0,0,0,46.2,2.461Zm9.2-3.571a.682.682,0,0,1,.5.2.7.7,0,0,1,.2.515V6.839a.7.7,0,0,1-.2.509.672.672,0,0,1-.5.2.663.663,0,0,1-.5-.2.736.736,0,0,1-.2-.5,2.538,2.538,0,0,1-1.838.819A2.676,2.676,0,0,1,51.4,7.255,2.914,2.914,0,0,1,50.367,6.1a3.6,3.6,0,0,1-.38-1.674,3.681,3.681,0,0,1,.375-1.68,2.878,2.878,0,0,1,1.024-1.159,2.607,2.607,0,0,1,1.434-.416,2.712,2.712,0,0,1,1.054.2A2.767,2.767,0,0,1,54.7,1.9V-.4a.7.7,0,0,1,.2-.509A.672.672,0,0,1,55.406-1.11ZM53.042,6.382a1.563,1.563,0,0,0,1.241-.556,2.065,2.065,0,0,0,.48-1.4,2.087,2.087,0,0,0-.48-1.4,1.638,1.638,0,0,0-2.47,0,2.087,2.087,0,0,0-.48,1.4,2.081,2.081,0,0,0,.474,1.4A1.546,1.546,0,0,0,53.042,6.382Z" transform="translate(13.344 9.275)" fill="#465a65"/>
      </g>
      <g id="freepik--Character--inject-102" transform="translate(32.056 47.327)">
        <path id="Path_25442" data-name="Path 25442" d="M213.46,321.1l2.455,14.7,16.6,89.645h2.673L223.111,335.8l-1.782-14.7Z" transform="translate(-103.605 -145.9)" fill="#c7c7c7"/>
        <path id="Path_25443" data-name="Path 25443" d="M221.329,321.1H213.46l2.455,14.7h7.2Z" transform="translate(-103.605 -145.9)" fill="#a6a6a6"/>
        <path id="Path_25444" data-name="Path 25444" d="M151.45,425.44h2.682l16.6-89.645,2.455-14.7H165.3l-1.782,14.7Z" transform="translate(-93.727 -145.9)" fill="#c7c7c7"/>
        <path id="Path_25445" data-name="Path 25445" d="M167.592,321.1l-1.782,14.7h7.2l2.455-14.7Z" transform="translate(-96.015 -145.9)" fill="#a6a6a6"/>
        <path id="Path_25446" data-name="Path 25446" d="M92.23,425.44H94.9l16.6-89.645,2.447-14.7h-7.869L104.3,335.8Z" transform="translate(-84.294 -145.9)" fill="#c7c7c7"/>
        <path id="Path_25447" data-name="Path 25447" d="M106.59,335.8h7.2l2.446-14.7h-7.869Z" transform="translate(-86.581 -145.9)" fill="#a6a6a6"/>
        <path id="Path_25448" data-name="Path 25448" d="M94.972,301.711H216.605V288.9H171.073L147.365,156.05H82.79Z" transform="translate(-82.79 -119.608)" fill="#c7c7c7"/>
        <path id="Path_25449" data-name="Path 25449" d="M97.8,314.07H218.925v12.812H97.35Z" transform="translate(-85.109 -144.78)" fill="#dbdbdb"/>
        <path id="Path_25450" data-name="Path 25450" d="M94.972,301.711H101.6L89.1,156.05H82.79Z" transform="translate(-82.79 -119.608)" fill="#dbdbdb"/>
        <path id="Path_25451" data-name="Path 25451" d="M223.318,450.861c-2.362.227-66.769-15.133-68.8-17.2-.244-.235,1.017-6.087,2.875-14.073l.042-.151c1.16-5.044,19.916-46,19.916-46l41.75,11.635-18.966,37.983s7.861,5.667,14.595,11.055h0a86.656,86.656,0,0,1,8.508,7.247C225.218,443.891,225.68,450.651,223.318,450.861Z" transform="translate(-94.21 -154.237)" fill="#eb9481"/>
        <path id="Path_25452" data-name="Path 25452" d="M223.318,456.413c-2.362.235-66.769-15.133-68.8-17.193-.252-.235,1.017-6.087,2.875-14.073l.042-.151c.429-1.883,3.312-8.769,6.726-16.646,6.877,1.849,31.5,8.5,40.447,11.265l-4.489,9s7.852,5.675,14.586,11.055h0a94.216,94.216,0,0,1,8.508,7.239C225.218,449.452,225.68,456.22,223.318,456.413Z" transform="translate(-94.21 -159.798)" fill="#ebebeb"/>
        <path id="Path_25453" data-name="Path 25453" d="M223.508,458.462c-2.43.21-66.887-15.3-68.938-17.445-.79-.841.63-10.98,4.2-21.758l41.539,10.089s21.219,16.814,23.254,19.387S225.938,458.252,223.508,458.462Z" transform="translate(-94.19 -161.536)" fill="#e27e28"/>
        <path id="Path_25454" data-name="Path 25454" d="M223.89,459.637c-10.744-2.867-54.327-13.409-65.163-15.427-.092,0-.1.042,0,.067,10.585,3.068,54.259,13.266,65.138,15.536C224.074,459.864,224.117,459.7,223.89,459.637Z" transform="translate(-94.874 -165.51)" fill="#263238"/>
        <path id="Path_25455" data-name="Path 25455" d="M230.254,450.282a8.921,8.921,0,0,0-7.1,1.076,8.66,8.66,0,0,0-3.808,5.187.067.067,0,0,0,.135,0,10.307,10.307,0,0,1,10.736-6.162.067.067,0,0,0,.034-.1Z" transform="translate(-104.543 -166.428)" fill="#263238"/>
        <path id="Path_25456" data-name="Path 25456" d="M210.133,433.369c-4.3-1.1-9.685-.782-13.224,2.1-.143.118,0,.311.168.269a61.555,61.555,0,0,1,13.006-1.824.277.277,0,0,0,.05-.546Z" transform="translate(-100.959 -163.69)" fill="#263238"/>
        <path id="Path_25457" data-name="Path 25457" d="M213.733,435.889c-4.3-1.1-9.693-.782-13.224,2.11-.143.109,0,.3.168.269a61.558,61.558,0,0,1,13.006-1.833.277.277,0,0,0,.05-.546Z" transform="translate(-101.532 -164.092)" fill="#263238"/>
        <path id="Path_25458" data-name="Path 25458" d="M217.332,438.369c-4.313-1.1-9.693-.782-13.233,2.11-.135.109,0,.3.168.269a61.176,61.176,0,0,1,13.014-1.824.286.286,0,0,0,.05-.555Z" transform="translate(-102.105 -164.487)" fill="#263238"/>
        <path id="Path_25459" data-name="Path 25459" d="M220.932,440.889c-4.313-1.1-9.693-.782-13.233,2.1-.135.118,0,.311.168.277a61.705,61.705,0,0,1,13.006-1.833.277.277,0,0,0,.059-.547Z" transform="translate(-102.678 -164.888)" fill="#263238"/>
        <path id="Path_25460" data-name="Path 25460" d="M164.117,432.767c-4.851-1.152-6.659,6.389-1.791,7.566S168.942,433.919,164.117,432.767Z" transform="translate(-95.002 -163.669)" fill="#263238"/>
        <path id="Path_25461" data-name="Path 25461" d="M219,420.834c-1.757-2.346-4.943-1.236-6.726.328a23.288,23.288,0,0,0-6.591,10.088.118.118,0,0,0,.1.151.541.541,0,0,0,.7.538c3.59-1.387,7.566-2.43,10.66-4.876C218.912,425.66,220.652,423.045,219,420.834Zm-7.566,7.911c-1.749.723-3.523,1.362-5.246,2.152a70.4,70.4,0,0,1,3.985-5.818,24.161,24.161,0,0,1,2.278-2.522c1.286-1.2,6.4-3.792,5.7,1.017-.353,2.631-4.59,4.3-6.675,5.17Z" transform="translate(-102.365 -161.572)" fill="#263238"/>
        <path id="Path_25462" data-name="Path 25462" d="M191.7,430.877c3.623,1.48,7.768,1.345,11.6,1.682a.547.547,0,0,0,.521-.715c.059,0,.109-.1.05-.177a23.278,23.278,0,0,0-9.164-7.852c-2.169-.992-5.54-1.152-6.557,1.589C187.147,427.994,189.585,430.011,191.7,430.877Zm-2.018-3.094c-2.035-4.414,3.607-3.363,5.179-2.581a24.455,24.455,0,0,1,2.9,1.791,67.818,67.818,0,0,1,5.465,4.456c-1.875-.269-3.758-.378-5.641-.58-2.245-.278-6.785-.648-7.919-3.085Z" transform="translate(-99.536 -162.157)" fill="#263238"/>
        <path id="Path_25463" data-name="Path 25463" d="M199.265,398.187l-44.322-11.871s38.95-80.784,35.772-85.231c-1.572-2.219-43.12-4.094-56-15.7-16.739-15.074-4.557-36.991-4.557-36.991h46.457s-.841,9.693.916,11.207c1.169,1.009,56.327,7.314,61.851,26.154C246.2,308.862,199.265,398.187,199.265,398.187Z" transform="translate(-89.654 -134.318)" fill="#263238"/>
        <path id="Path_25464" data-name="Path 25464" d="M206.547,416.645a26.758,26.758,0,0,0-3.64-1.379c-1.286-.446-2.573-.891-3.867-1.32-2.522-.841-5.1-1.631-7.684-2.371-5.179-1.5-10.374-2.959-15.6-4.321-2.724-.706-8.558-2.245-8.92-2.194-.177,0-.219.319-.059.378,5.044,1.833,10.164,3.405,15.292,5s10.231,3.153,15.419,4.5c1.438.37,2.884.7,4.33,1.051a32.608,32.608,0,0,0,4.59,1.009C206.563,417.006,206.706,416.729,206.547,416.645Z" transform="translate(-96.153 -159.274)" fill="#455a64"/>
        <path id="Path_25465" data-name="Path 25465" d="M199.893,298.084c-.908-.841-2.312-.958-3.472-1.194l-20-3.968c-6.238-1.236-12.51-2.362-18.714-3.75-5.145-1.152-10.358-2.657-14.746-5.591a21.622,21.622,0,0,1-8.769-12.207,38.548,38.548,0,0,1-.723-15.351c.151-1.244.42-2.48.689-3.708a.076.076,0,1,0-.151,0c-1.976,9.466-2.463,20.513,4.447,28.307,3.363,3.808,8.071,6.12,12.9,7.676,5.448,1.749,11.165,2.673,16.814,3.783l20,3.951c3.211.63,6.473,1.152,9.651,1.917a3.279,3.279,0,0,1,1.681.841,2.522,2.522,0,0,1,.21,2.337c-.37,1.564-.841,3.119-1.337,4.649-4.052,12.316-32.292,70.989-33.057,72.368a.128.128,0,1,0,.227.118c6.473-10.778,27.542-56.075,31.947-67.778a75.657,75.657,0,0,0,2.909-9.121C200.675,300.219,200.851,298.958,199.893,298.084Z" transform="translate(-90.744 -134.931)" fill="#455a64"/>
        <path id="Path_25466" data-name="Path 25466" d="M351.123,455.591c-2.211.883-68.333,4.262-70.863,2.825-.311-.151-.74-6.129-1.194-14.292l-.336-7.718c-.109-2.606-34.149-40.547-34.149-40.547L292.013,393l29.03,42.447s9.13,3.237,17.108,6.516h0a92.083,92.083,0,0,1,10.206,4.557C350.988,448.369,353.325,454.733,351.123,455.591Z" transform="translate(-108.562 -157.353)" fill="#eb9481"/>
        <path id="Path_25467" data-name="Path 25467" d="M274.89,430.713c4.935,5.885,8.626,10.534,8.668,11.392l.336,7.718c.454,8.18.891,14.158,1.194,14.292,2.522,1.438,68.652-1.942,70.863-2.816s-.134-7.23-2.741-9.088a99.641,99.641,0,0,0-10.189-4.565h0c-7.978-3.27-17.109-6.507-17.109-6.507l-8.407-12.258Z" transform="translate(-113.39 -163.068)" fill="#ebebeb"/>
        <path id="Path_25468" data-name="Path 25468" d="M357.767,463.668c-2.278.891-68.492,4.1-71.09,2.631-.992-.555-2.48-10.711-2.127-22.043l42.691-2.026s25.078,10.156,27.743,12.081S360.045,462.785,357.767,463.668Z" transform="translate(-114.92 -165.195)" fill="#e27e28"/>
        <path id="Path_25469" data-name="Path 25469" d="M357.686,464.64c-11.114.26-55.915,2.387-66.878,3.5-.092,0-.084.067,0,.067,11.022,0,55.806-2.522,66.887-3.363C357.929,464.8,357.921,464.631,357.686,464.64Z" transform="translate(-115.915 -168.764)" fill="#263238"/>
        <path id="Path_25470" data-name="Path 25470" d="M361.51,454A8.886,8.886,0,0,0,355,457.035a8.644,8.644,0,0,0-2.194,6.045c0,.067.126.059.135,0a10.315,10.315,0,0,1,8.575-8.937.072.072,0,0,0-.009-.143Z" transform="translate(-125.801 -167.069)" fill="#263238"/>
        <path id="Path_25471" data-name="Path 25471" d="M337.251,443.349c-4.448.16-9.525,1.976-12.106,5.742-.1.143.109.286.235.21a61.584,61.584,0,0,1,11.972-5.406.278.278,0,0,0-.1-.547Z" transform="translate(-121.391 -165.372)" fill="#263238"/>
        <path id="Path_25472" data-name="Path 25472" d="M341.411,444.74c-4.447.16-9.525,1.976-12.106,5.742-.1.151.109.286.235.21a61.58,61.58,0,0,1,11.972-5.406.286.286,0,0,0-.1-.546Z" transform="translate(-122.054 -165.595)" fill="#263238"/>
        <path id="Path_25473" data-name="Path 25473" d="M345.561,446.14c-4.447.151-9.517,1.967-12.106,5.734-.1.151.109.286.244.219a61.546,61.546,0,0,1,11.98-5.414.277.277,0,0,0-.118-.538Z" transform="translate(-122.715 -165.817)" fill="#263238"/>
        <path id="Path_25474" data-name="Path 25474" d="M349.7,447.53c-4.447.151-9.525,1.967-12.106,5.742-.1.143.109.286.236.21a61.608,61.608,0,0,1,11.972-5.414.277.277,0,0,0-.1-.538Z" transform="translate(-123.374 -166.039)" fill="#263238"/>
        <path id="Path_25475" data-name="Path 25475" d="M292.9,456.1c-4.977.252-4.59,8,.4,7.743S297.893,455.838,292.9,456.1Z" transform="translate(-115.694 -167.403)" fill="#263238"/>
        <path id="Path_25476" data-name="Path 25476" d="M342.7,428.872c-2.337-1.749-5.044.21-6.373,2.211a23.406,23.406,0,0,0-3.489,11.56c0,.092.076.126.151.118a.538.538,0,0,0,.841.32c3.052-2.346,6.616-4.464,8.861-7.676C343.979,433.5,344.921,430.553,342.7,428.872Zm-4.985,9.71c-1.48,1.186-3,2.3-4.431,3.539a70.179,70.179,0,0,1,2.177-6.726,25.765,25.765,0,0,1,1.48-3.068c.891-1.522,5.044-5.439,5.75-.63.37,2.648-3.22,5.439-4.977,6.86Z" transform="translate(-122.621 -162.959)" fill="#263238"/>
        <path id="Path_25477" data-name="Path 25477" d="M318.861,446.477c3.9.412,7.835-.883,11.6-1.682a.538.538,0,0,0,.294-.841c.059-.05.084-.126,0-.185a23.328,23.328,0,0,0-11.013-4.943c-2.363-.336-5.641.454-5.885,3.363C313.708,444.989,316.583,446.241,318.861,446.477Zm-2.808-2.4c-3.186-3.666,2.522-4.2,4.2-3.935a26.578,26.578,0,0,1,3.3.9,69.766,69.766,0,0,1,6.49,2.749c-1.875.269-3.708.69-5.574,1.026C322.283,445.224,317.819,446.1,316.053,444.081Z" transform="translate(-119.597 -164.641)" fill="#263238"/>
        <path id="Path_25478" data-name="Path 25478" d="M302.084,403.5l-53.015,6.482s-52.485-62.725-56.714-66.929c-13.14-12.947-60.22-35.31-74.268-56.075-12.611-18.672.168-38.622.168-38.622h51.762a107.056,107.056,0,0,1-5.271,16.15s42.994,32.376,65.92,55.487C245.437,334.953,302.084,403.5,302.084,403.5Z" transform="translate(-87.527 -134.313)" fill="#263238"/>
        <path id="Path_25479" data-name="Path 25479" d="M182.319,263.69a25.33,25.33,0,0,0-4.422,1.278c-1.5.521-2.984,1.127-4.43,1.774a85.3,85.3,0,0,0-8.323,4.388c-.084.051,0,.168.076.126,2.842-1.37,5.767-2.589,8.7-3.75l4.2-1.682a46.008,46.008,0,0,0,4.279-1.74A.206.206,0,0,0,182.319,263.69Z" transform="translate(-95.903 -136.754)" fill="#455a64"/>
        <path id="Path_25480" data-name="Path 25480" d="M180.924,248.363c-.656,2.346-1.253,4.708-1.993,7.028-.345,1.059-.681,2.144-1.118,3.178-.37.841-.916,1.858-1.942,2.018-1.177.193-1.48-.841-1.354-1.782a32.64,32.64,0,0,1,.689-3.212c.277-1.219,1.681-7.138,1.681-7.171a.284.284,0,0,0-.05-.177.093.093,0,0,0-.109,0,51.743,51.743,0,0,0-1.976,5.792l-.95,3.363a5.338,5.338,0,0,0-.3,2.615,2,2,0,0,0,1.807,1.564c0,.076-.092.143-.135.227-.109.227-.193.471-.286.706s-.185.488-.261.731a1.816,1.816,0,0,0-.084.37v.4a.2.2,0,0,0,.37.143,3.827,3.827,0,0,1,.227-.328,1.61,1.61,0,0,0,.176-.387c.093-.235.168-.471.235-.706s.143-.479.193-.715a3.91,3.91,0,0,0,.059-.437,2.7,2.7,0,0,0,1.379-.479,4.556,4.556,0,0,0,1.471-2.11c.387-.975.7-1.984,1-2.984a44.759,44.759,0,0,0,1.732-7.566.235.235,0,0,0-.462-.084Z" transform="translate(-97.232 -134.283)" fill="#455a64"/>
        <path id="Path_25481" data-name="Path 25481" d="M142.225,254.174c-.244,1.16-.42,2.346-.723,3.5s-.639,2.253-1.042,3.363a12.318,12.318,0,0,1-1.53,3,11.415,11.415,0,0,1-2.362,2.27,19.566,19.566,0,0,1-5.641,2.917,24.73,24.73,0,0,1-3.1.841,15.727,15.727,0,0,1-1.681.235,3.61,3.61,0,0,0-1.337.269.269.269,0,0,0,0,.462,4.842,4.842,0,0,0,2.455.151,17.416,17.416,0,0,0,2.631-.387,18.822,18.822,0,0,0,5.044-1.934,15.8,15.8,0,0,0,4.246-3.27,11.661,11.661,0,0,0,2.354-4.784,23.813,23.813,0,0,0,.916-6.566.118.118,0,0,0-.227-.067Z" transform="translate(-89.462 -135.225)" fill="#455a64"/>
        <path id="Path_25482" data-name="Path 25482" d="M315.477,423.618a33.2,33.2,0,0,0-4.288.168c-1.5.1-3,.193-4.5.319q-4.422.353-8.827.841c-5.885.673-11.829,1.379-17.73,2.186-3.077.429-9.677,1.311-10.021,1.5a.2.2,0,0,0,.093.37c5.885-.3,11.77-.841,17.7-1.438s11.77-1.135,17.655-1.95c1.623-.227,3.237-.5,4.851-.74a38.9,38.9,0,0,0,5.111-.883C315.645,423.938,315.679,423.626,315.477,423.618Z" transform="translate(-112.614 -162.228)" fill="#455a64"/>
        <path id="Path_25483" data-name="Path 25483" d="M188.253,346.672c2.749,1.765,5.406,3.665,8.071,5.549a76.936,76.936,0,0,1,7.323,5.414,40.232,40.232,0,0,1,3.228,3.438l3.161,3.657q3.17,3.64,6.28,7.348,1.766,2.085,3.514,4.2c1.211,1.454,2.329,2.985,3.548,4.439.076.093-.05.219-.126.126-2.161-2.43-4.439-4.759-6.591-7.2s-4.3-4.851-6.44-7.373-4.027-4.851-6.2-7.112a50.9,50.9,0,0,0-7.247-5.683c-2.951-2.1-5.885-4.2-8.768-6.4C187.757,346.941,187.984,346.5,188.253,346.672Z" transform="translate(-99.533 -149.967)" fill="#455a64"/>
        <path id="Path_25484" data-name="Path 25484" d="M175.582,268.054c8.836,6.2,17.991,13.14,26.3,20.026S218.424,302,226.47,309.224q3.363,3.027,6.726,6.137c2.236,2.093,4.422,4.7,6.658,6.784.126.109-.059.286-.185.177-4.035-3.624-8.222-7.566-12.316-11.131s-8.155-7.062-12.249-10.568q-12.342-10.568-24.994-20.774c-4.674-3.792-10.131-7.625-14.712-11.535A.16.16,0,0,1,175.582,268.054Z" transform="translate(-97.531 -137.445)" fill="#455a64"/>
        <path id="Path_25485" data-name="Path 25485" d="M120.606,254.821c.5-1.488,1.034-2.968,1.589-4.447,0-.084.168,0,.143.042-2.085,6.162-4.2,12.459-4.447,19.017a24.793,24.793,0,0,0,1.345,9.248,24.214,24.214,0,0,0,4.725,7.692c4.12,4.649,9.366,8.315,14.292,12.022,5.372,4.027,10.854,7.928,16.394,11.77s11.207,7.423,16.94,10.929,11.534,6.667,17.243,10.089a45.84,45.84,0,0,1,7.709,5.725,94.5,94.5,0,0,1,6.675,7.171q6.911,7.894,13.7,15.906,13.594,15.973,26.676,32.426c1.059,1.345,2.127,2.682,3.195,4.027.05.067-.042.16-.1.092q-13.451-16.469-27.188-32.7-6.835-8.054-13.737-16.058c-4.405-5.095-8.651-10.5-14.292-14.334-2.715-1.85-5.607-3.422-8.466-5.044s-5.935-3.43-8.878-5.2q-8.752-5.271-17.251-10.929c-5.624-3.758-11.173-7.625-16.612-11.652q-4.086-3.01-8.088-6.129a78.808,78.808,0,0,1-6.658-5.633,29.841,29.841,0,0,1-5.33-6.726,22.043,22.043,0,0,1-2.606-8.533C116.9,267.221,118.58,260.815,120.606,254.821Z" transform="translate(-88.306 -134.628)" fill="#455a64"/>
        <path id="Path_25486" data-name="Path 25486" d="M154.579,175.391c8.508,7.8,41.565,30.459,50.939,27.432,6.969-2.245,8-10.4,4.052-16.764-3.438-5.532-36.873-14.847-46.239-17.361C154.377,166.3,146.222,167.724,154.579,175.391Z" transform="translate(-93.67 -121.454)" fill="#eb9481"/>
        <path id="Path_25487" data-name="Path 25487" d="M175.484,193.233l19.462-16.612s-24.776-8.533-35.7-10.164c-11.4-1.681-14.729,2.119-2.732,11.551C168.329,187.3,175.484,193.233,175.484,193.233Z" transform="translate(-93.33 -121.205)" fill="#00a3b1"/>
        <path id="Path_25488" data-name="Path 25488" d="M170.333,174.026a1.335,1.335,0,0,1-.588.294,1.169,1.169,0,0,1-1.11-.336,1.547,1.547,0,0,0-1.681-.294,1.514,1.514,0,0,0-.631.555c-.143.219-.3.412-.429.647.227-.134.429-.286.639-.429a1.461,1.461,0,0,1,.589-.319,1.168,1.168,0,0,1,1.11.294,1.572,1.572,0,0,0,1.681.353,1.513,1.513,0,0,0,.656-.547c.143-.218.3-.412.429-.647C170.754,173.731,170.586,173.883,170.333,174.026Zm12.367-1.547h0a1.589,1.589,0,0,0-.975.883,1.49,1.49,0,0,0-.076.841c.051.252.084.5.151.757.067-.252.1-.5.151-.757a1.555,1.555,0,0,1,.21-.631,1.211,1.211,0,0,1,1.026-.538,1.37,1.37,0,0,0,.706-.193Zm-10.66,15.973c-.059-.252-.084-.513-.16-.765-.067.252-.1.513-.151.765a1.462,1.462,0,0,1-.193.639,1.227,1.227,0,0,1-.277.311l.445.353a1.3,1.3,0,0,0,.277-.463,1.622,1.622,0,0,0,.059-.883Zm-19.471-22.094a.361.361,0,0,0,0,.092v-.1Zm33.183,17.655a1.555,1.555,0,0,0-1-1.421,1.53,1.53,0,0,0-.841-.05c-.252.05-.5.076-.757.151.252.067.5.1.757.151a1.545,1.545,0,0,1,.639.193,1.194,1.194,0,0,1,.58.992,1.547,1.547,0,0,0,.5,1.152l.42-.362a1.168,1.168,0,0,1-.328-.874Z" transform="translate(-93.905 -121.249)" fill="#fff"/>
        <path id="Path_25489" data-name="Path 25489" d="M178.668,190.667c.412-.446.9-.841,1.354-1.244l1.4-1.261q1.425-1.261,2.875-2.522c1.934-1.681,3.859-3.363,5.818-4.952.538-.446,1.076-.891,1.631-1.32s1.185-.841,1.765-1.328c0,0,.067,0,0,.059-.471.42-.9.891-1.362,1.32l-1.438,1.295q-1.437,1.261-2.9,2.522c-1.908,1.623-3.817,3.254-5.767,4.826l-1.631,1.32c-.572.462-1.127.958-1.74,1.37C178.685,190.735,178.634,190.693,178.668,190.667Z" transform="translate(-98.061 -123.111)" fill="#263238"/>
        <path id="Path_25490" data-name="Path 25490" d="M156.509,178.279c11.812,9.248,18.975,15.217,18.975,15.217l6.221-5.3L149.439,167.77C147.934,169.569,149.885,173.067,156.509,178.279Z" transform="translate(-93.33 -121.475)" fill="#263238"/>
        <path id="Path_25491" data-name="Path 25491" d="M217.943,196.482c-4.733,7.23-13.233.555-14.5-5.347-2.984-13.855-2.69-29.912-1.858-39.976.345-4.111,25.7-5.044,25.331-.647C226.14,159.709,226.14,183.963,217.943,196.482Z" transform="translate(-101.623 -118.265)" fill="#eb9481"/>
        <path id="Path_25492" data-name="Path 25492" d="M201.17,179.7c.185,1.076.328,2.152.471,3.228s.261,2.152.387,3.228l.353,3.228c.05.547.118,1.085.185,1.623s.126,1.068.2,1.614a23.255,23.255,0,0,1-.723-3.186c-.193-1.068-.328-2.152-.454-3.228s-.227-2.161-.294-3.245S201.17,180.793,201.17,179.7Z" transform="translate(-101.647 -123.376)" fill="#263238"/>
        <path id="Path_25493" data-name="Path 25493" d="M201.9,187.62a14.928,14.928,0,0,1-.076,1.85,8.282,8.282,0,0,1-.084.908,7.132,7.132,0,0,1-.168.925,5.454,5.454,0,0,1-.034-2.8A3.1,3.1,0,0,1,201.9,187.62Z" transform="translate(-101.678 -124.637)" fill="#263238"/>
        <path id="Path_25494" data-name="Path 25494" d="M225.78,130.511c1.681,5.12,1.017,16.932-.244,19.715s-21.371,2.329-23.229-.193-6.179-20.177-4.2-25.347S224.048,125.24,225.78,130.511Z" transform="translate(-101.078 -114.289)" fill="#eb9481"/>
        <path id="Path_25495" data-name="Path 25495" d="M196.146,131.65c2.161,1.858,3.119-1.757,3.119-1.757s-.118,5.532,2.85,6.591,3.867-3.363,3.943-3.716c0,.294,0,5.38,3.119,6.137s3.464-3.817,3.472-4.111c.084.277,1.253,3.926,3.733,3.96,4.262.067,1.547-9.357,3.363-12.308,0,0,5.347,2.472,5.515,2.522,0,0-2.4-9.021-6.516-11.215a2.976,2.976,0,0,0-3.674.631s-.454-2.993-2.875-3.665c-1.244-.336-2.892,1.345-2.892,1.345a3.733,3.733,0,0,0-2.657-2.842c-1.74-.37-3.127,1.379-3.127,1.379s-1.5-2.085-3.413-1.883C196.239,113.1,191.514,127.657,196.146,131.65Z" transform="translate(-100.541 -112.704)" fill="#eb9481"/>
        <path id="Path_25496" data-name="Path 25496" d="M204.227,115.23c0-.05,0-.084-.067,0a26.575,26.575,0,0,0-3.985,15.284.16.16,0,0,0,.32,0A54.4,54.4,0,0,1,204.227,115.23Z" transform="translate(-101.484 -113.098)" fill="#263238"/>
        <path id="Path_25497" data-name="Path 25497" d="M211.415,116.588c0-.059-.067-.1-.1,0a24.84,24.84,0,0,0-3.3,16.949c0,.2.277.345.252.109C207.8,129.594,209.49,121.128,211.415,116.588Z" transform="translate(-102.678 -113.313)" fill="#263238"/>
        <path id="Path_25498" data-name="Path 25498" d="M216.188,136.276c-.841-5.742.168-11.19,2.043-16.621,0-.076-.076-.1-.109-.05-1.681,2.413-2.522,6-2.9,8.853a15.276,15.276,0,0,0,.765,7.844C216.02,136.4,216.2,136.394,216.188,136.276Z" transform="translate(-103.853 -113.799)" fill="#263238"/>
        <path id="Path_25499" data-name="Path 25499" d="M200.218,132.5a17.035,17.035,0,0,0,.513,3.144,5.886,5.886,0,0,0,1.4,2.716,1.917,1.917,0,0,0,1.261.546,2.851,2.851,0,0,0,1.379-.319,3.413,3.413,0,0,0,1.538-2.312l.488-2.3.345,2.32a9.577,9.577,0,0,0,.908,2.968,3.413,3.413,0,0,0,2.06,1.892,1.942,1.942,0,0,0,2.3-.841,5.8,5.8,0,0,0,.732-2.875l.084-2.766.841,2.632a9.183,9.183,0,0,0,.958,2.085,3.673,3.673,0,0,0,1.555,1.471,1.774,1.774,0,0,0,1.841-.244,3.9,3.9,0,0,0,.95-1.959,31.932,31.932,0,0,0,.5-4.784c.05-.841.1-1.623.185-2.43a5.886,5.886,0,0,1,.639-2.354,6.323,6.323,0,0,0-.412,2.371v2.421a26.836,26.836,0,0,1-.261,4.91,4.574,4.574,0,0,1-1.068,2.388,2.522,2.522,0,0,1-2.707.471,4.615,4.615,0,0,1-1.976-1.774,10.082,10.082,0,0,1-1.1-2.312l.908-.134a6.843,6.843,0,0,1-.841,3.4,2.842,2.842,0,0,1-1.471,1.228,3.187,3.187,0,0,1-1.9.042,4.313,4.313,0,0,1-2.606-2.4,10.485,10.485,0,0,1-.95-3.279h.841a4.086,4.086,0,0,1-2.077,2.749,3.429,3.429,0,0,1-1.732.3,2.438,2.438,0,0,1-1.581-.765,5.952,5.952,0,0,1-1.311-2.984A14.292,14.292,0,0,1,200.218,132.5Z" transform="translate(-101.493 -115.315)" fill="#263238"/>
        <path id="Path_25500" data-name="Path 25500" d="M200.044,148.008s-15.091-17.167-5.49-19.773c2.85-.782,15.494-.563,15.494,1.976,0,3.279-5.28,4.2-8.693,4.2,0,0,5.952,5.111,3.632,10.324A5.683,5.683,0,0,1,200.044,148.008Z" transform="translate(-100.084 -115.114)" fill="#eb9481"/>
        <path id="Path_25501" data-name="Path 25501" d="M194.23,128.437a11.7,11.7,0,0,1,3.363-.841,26.806,26.806,0,0,1,3.489-.177,40.78,40.78,0,0,1,6.978.622,6.609,6.609,0,0,1,1.765.589,2.387,2.387,0,0,1,.841.673,1.48,1.48,0,0,1,.277.513,1.974,1.974,0,0,1,.092.572,2.951,2.951,0,0,1-.74,1.9,5.546,5.546,0,0,1-1.5,1.169,10.776,10.776,0,0,1-3.455,1.043,24.878,24.878,0,0,1-3.523.244l.244-.715a13.754,13.754,0,0,1,1.791,1.992,12.872,12.872,0,0,1,1.37,2.287,8.971,8.971,0,0,1,.748,2.522,7.012,7.012,0,0,1-.143,2.615,7.707,7.707,0,0,0-.135-2.564,9.653,9.653,0,0,0-.925-2.371,12.4,12.4,0,0,0-1.438-2.1,12.753,12.753,0,0,0-1.782-1.782l-.841-.656,1.059-.059a25.143,25.143,0,0,0,3.363-.345,10.324,10.324,0,0,0,3.144-.984,2.877,2.877,0,0,0,1.74-2.2c-.008-.891-1.135-1.227-2.194-1.463a33.578,33.578,0,0,0-3.363-.563c-1.135-.143-2.278-.277-3.43-.353A22.068,22.068,0,0,0,194.23,128.437Z" transform="translate(-100.542 -115.047)" fill="#263238"/>
        <path id="Path_25502" data-name="Path 25502" d="M177.979,243.8c-1.152,1.623-67.257,7.8-67.635,7.449-1-.942,3.228-60.144,23.666-84.113,3.607-4.2,10.929-4.1,14.544-2.64,1.791.731,8.558,8.273,11.173,15.25S178.694,242.766,177.979,243.8Z" transform="translate(-87.158 -120.808)" fill="#00a3b1"/>
        <path id="Path_25503" data-name="Path 25503" d="M151.577,183.484a1.3,1.3,0,0,1-.622-.21,1.177,1.177,0,0,1-.546-1.017,1.522,1.522,0,0,0-1.841-1.48c-.252.05-.513.084-.765.151.252.076.513.1.765.151a1.547,1.547,0,0,1,.639.193,1.177,1.177,0,0,1,.572.992,1.564,1.564,0,0,0,.95,1.446,1.438,1.438,0,0,0,.841.084c.252-.05.5-.084.765-.151C152.082,183.568,151.829,183.543,151.577,183.484Zm11.669,48.761a1.4,1.4,0,0,1-.622-.219,1.177,1.177,0,0,1-.547-1.017,1.522,1.522,0,0,0-1.841-1.48c-.252.05-.5.084-.765.151.261.076.513.1.765.16a1.338,1.338,0,0,1,.639.193,1.177,1.177,0,0,1,.58.984,1.539,1.539,0,0,0,.95,1.446,1.4,1.4,0,0,0,.841.084c.261-.05.513-.084.765-.151a7.723,7.723,0,0,0-.765-.16ZM129.34,203.072a1.554,1.554,0,0,1-.63-.21,1.211,1.211,0,0,1-.5-1.051,1.555,1.555,0,0,0-1-1.421,1.682,1.682,0,0,0-.841-.059c-.252.059-.5.084-.757.16.252.067.5.1.757.151a1.5,1.5,0,0,1,.647.193,1.16,1.16,0,0,1,.572.992,1.572,1.572,0,0,0,.95,1.446,1.489,1.489,0,0,0,.841.076c.252-.05.5-.076.757-.151-.294-.05-.546-.084-.8-.135Zm27.743,43.3a1.5,1.5,0,0,0-.841-.059c-.252.05-.5.084-.757.151.252.067.5.1.757.151a1.546,1.546,0,0,1,.639.193.74.74,0,0,1,.2.16l.7-.084a1.479,1.479,0,0,0-.656-.521Zm-12.611-22.043a1.4,1.4,0,0,1-.622-.21,1.185,1.185,0,0,1-.546-1.026,1.556,1.556,0,0,0-1-1.421,1.53,1.53,0,0,0-.841-.05c-.252.05-.5.076-.757.151.252.067.5.1.757.151a1.548,1.548,0,0,1,.639.193,1.194,1.194,0,0,1,.58.992,1.564,1.564,0,0,0,.95,1.446,1.463,1.463,0,0,0,.841.076,7.655,7.655,0,0,0,.765-.151,4.774,4.774,0,0,0-.7-.16Zm-27.188,4.481a1.555,1.555,0,0,1-.631-.21,1.194,1.194,0,0,1-.546-1.026,1.522,1.522,0,0,0-1.841-1.48c-.252.051-.5.084-.757.151.252.076.5.109.757.16a1.336,1.336,0,0,1,.639.193,1.177,1.177,0,0,1,.58.984,1.572,1.572,0,0,0,.95,1.454,1.487,1.487,0,0,0,.841.076c.252-.05.5-.084.757-.151C117.772,228.89,117.52,228.865,117.285,228.815Zm39.833-25.146a1.512,1.512,0,0,1-.622-.21,1.194,1.194,0,0,1-.546-1.026,1.555,1.555,0,0,0-1-1.421,1.622,1.622,0,0,0-.841-.059c-.252.059-.513.084-.765.16.252.067.513.1.765.151a1.429,1.429,0,0,1,.639.193,1.16,1.16,0,0,1,.572.992,1.572,1.572,0,0,0,.95,1.446,1.5,1.5,0,0,0,.841.076c.252-.05.513-.084.765-.151-.235-.067-.521-.1-.773-.151Zm-23.1-32.275a1.571,1.571,0,0,1-.589.319,1.2,1.2,0,0,1-1.11-.294,1.488,1.488,0,0,0-.706-.4c-.126.177-.252.345-.361.521a1.085,1.085,0,0,1,.63.336,1.53,1.53,0,0,0,2.354-.261c.143-.219.294-.42.429-.647C134.427,171.1,134.233,171.251,134.015,171.394Zm12.611-7.524a1.606,1.606,0,0,0-.378.538,1.488,1.488,0,0,0-.076.841c.05.252.084.5.151.757.076-.252.1-.5.151-.757a1.556,1.556,0,0,1,.21-.631,1.194,1.194,0,0,1,.933-.538c-.277-.1-.605-.1-.908-.21Zm-3.439,42.985c-.05-.252-.076-.5-.151-.765-.067.261-.1.513-.151.765a1.547,1.547,0,0,1-.193.639,1.194,1.194,0,0,1-.992.58,1.547,1.547,0,0,0-1.446.95,1.464,1.464,0,0,0-.076.841c.05.252.076.513.151.765.067-.252.1-.513.151-.765a1.4,1.4,0,0,1,.21-.622,1.185,1.185,0,0,1,1.026-.547,1.564,1.564,0,0,0,1.421-1,1.529,1.529,0,0,0,.05-.841ZM174.6,240.021a7.732,7.732,0,0,0-.16-.765c-.067.252-.1.5-.151.765a1.362,1.362,0,0,1-.193.639,1.16,1.16,0,0,1-.984.572,1.589,1.589,0,0,0-1.454.95,1.505,1.505,0,0,0-.076.841c.05.252.084.5.151.765.076-.261.1-.513.151-.765a1.513,1.513,0,0,1,.21-.622,1.194,1.194,0,0,1,1.026-.546,1.555,1.555,0,0,0,1.421-1,1.621,1.621,0,0,0,.059-.874Zm-55.983-31.568c-.05-.261-.084-.513-.151-.765-.076.252-.1.5-.16.765a1.4,1.4,0,0,1-.193.639,1.151,1.151,0,0,1-.984.572,1.6,1.6,0,0,0-.748.193c-.076.3-.143.605-.21.908a1.177,1.177,0,0,1,.967-.471,1.522,1.522,0,0,0,1.48-1.841Zm14.4-24.8c-.05-.252-.076-.5-.151-.757-.067.252-.1.5-.151.757a1.631,1.631,0,0,1-.193.647,1.16,1.16,0,0,1-.992.572,1.522,1.522,0,0,0-1.53,1.8c.059.252.084.5.16.757.067-.252.1-.5.151-.757a1.438,1.438,0,0,1,.21-.63,1.194,1.194,0,0,1,1.026-.538,1.513,1.513,0,0,0,1.471-1.85Zm30.358,5.935a1.421,1.421,0,0,0-.5.63,1.505,1.505,0,0,0-.076.841c.05.252.084.5.151.765.067-.261.1-.513.151-.765a1.515,1.515,0,0,1,.21-.622,1.241,1.241,0,0,1,.244-.269Zm-30.072,43.6c-.05-.252-.076-.5-.151-.757-.067.252-.1.5-.151.757a1.429,1.429,0,0,1-.193.639,1.169,1.169,0,0,1-.992.58,1.572,1.572,0,0,0-1.446.95,1.488,1.488,0,0,0-.076.841c.05.252.076.5.151.757.067-.252.1-.5.151-.757a1.438,1.438,0,0,1,.21-.631,1.177,1.177,0,0,1,1.026-.538,1.513,1.513,0,0,0,1.471-1.85Zm10.29-40.926a1.345,1.345,0,0,1-.6.286,1.16,1.16,0,0,1-1.1-.336,1.53,1.53,0,0,0-2.354.26c-.143.219-.294.42-.429.647.235-.126.429-.286.647-.429a1.572,1.572,0,0,1,.589-.319,1.2,1.2,0,0,1,1.11.294,1.572,1.572,0,0,0,1.681.353,1.512,1.512,0,0,0,.656-.546c.143-.21.294-.412.429-.639a3.638,3.638,0,0,0-.631.387Zm-13.9,27.373a1.463,1.463,0,0,1-.6.294,1.185,1.185,0,0,1-1.1-.345,1.564,1.564,0,0,0-1.681-.294,1.6,1.6,0,0,0-.639.555c-.143.219-.294.42-.429.647.235-.126.429-.286.647-.429a1.573,1.573,0,0,1,.589-.319,1.2,1.2,0,0,1,1.11.294,1.547,1.547,0,0,0,1.681.353,1.58,1.58,0,0,0,.664-.538c.135-.219.294-.42.429-.647a7.177,7.177,0,0,0-.673.387Zm6,28.416a1.337,1.337,0,0,1-.589.294,1.2,1.2,0,0,1-1.11-.336,1.539,1.539,0,0,0-1.681-.3,1.563,1.563,0,0,0-.639.563c-.143.21-.3.412-.429.639.227-.126.429-.286.647-.429a1.439,1.439,0,0,1,.589-.311,1.135,1.135,0,0,1,1.1.294,1.572,1.572,0,0,0,1.681.345,1.446,1.446,0,0,0,.656-.538c.143-.219.3-.42.429-.647A3.981,3.981,0,0,0,135.7,248.05Zm26.9-31.258a1.438,1.438,0,0,1-.588.294,1.219,1.219,0,0,1-1.11-.336,1.556,1.556,0,0,0-1.681-.3,1.589,1.589,0,0,0-.63.563c-.143.21-.3.412-.429.639.227-.126.429-.286.639-.429a1.464,1.464,0,0,1,.6-.311,1.152,1.152,0,0,1,1.1.286,1.564,1.564,0,0,0,1.681.353,1.446,1.446,0,0,0,.656-.538c.143-.219.3-.42.429-.647a4.5,4.5,0,0,0-.673.412ZM150,236.717a1.253,1.253,0,0,1-.588.294,1.177,1.177,0,0,1-1.11-.336,1.538,1.538,0,0,0-1.681-.294,1.487,1.487,0,0,0-.639.555c-.143.219-.3.42-.429.647.227-.135.429-.286.647-.429a1.573,1.573,0,0,1,.589-.32,1.2,1.2,0,0,1,1.11.294,1.564,1.564,0,0,0,1.681.353,1.513,1.513,0,0,0,.656-.546,7.178,7.178,0,0,0,.429-.647,5.327,5.327,0,0,0-.689.412Zm-28.651,3.918a1.253,1.253,0,0,1-.589.294,1.169,1.169,0,0,1-1.11-.336,1.547,1.547,0,0,0-1.681-.294,1.513,1.513,0,0,0-.63.555c-.143.219-.3.42-.429.647.227-.126.429-.286.639-.429a1.571,1.571,0,0,1,.589-.32,1.185,1.185,0,0,1,1.11.294,1.572,1.572,0,0,0,1.681.353,1.512,1.512,0,0,0,.656-.546,7.192,7.192,0,0,0,.429-.647,5.334,5.334,0,0,0-.689.412Z" transform="translate(-87.683 -120.854)" fill="#fff"/>
        <path id="Path_25504" data-name="Path 25504" d="M122.2,177.522c-8.819,11.333-30.534,45.608-23.59,53.469s51.88,10.189,64.087,5.557c3.632-1.379-7.861-24.254-11.921-25.1-3.363-.7-25.919-.664-26.062-1.379-.227-1.253,5.112-15.973,8.407-30.551C136.749,163.852,128.149,169.9,122.2,177.522Z" transform="translate(-85.096 -121.786)" fill="#eb9481"/>
        <path id="Path_25505" data-name="Path 25505" d="M184.77,214.141c8.592.462,10.728,1.9,18.185-1.564,4.893-2.27,8.407-.118,5.044,4.338-5.574,7.3-16.814,9.021-20.841,8.508Z" transform="translate(-99.035 -128.467)" fill="#eb9481"/>
        <path id="Path_25506" data-name="Path 25506" d="M156.48,218.273s10.408-3.363,19.614-3.8c6.373-.286,20.286.639,30.669,16.57,2.463,3.783,3.3,10.929-2.968,6.2-4.447-3.363-6.263-6.818-9.206-8.289,0,0,0,9.2-3.9,11.518a84.5,84.5,0,0,1-10.576,5.338,18.144,18.144,0,0,1-1.177-1.892s-3.834,1.824-10.021,0Z" transform="translate(-94.528 -128.909)" fill="#eb9481"/>
        <path id="Path_25507" data-name="Path 25507" d="M185.776,215.35c2.615,2.077,8.071,6.583,11.257,11.82,3.539,5.826,8.785,17.983,4.464,20.555-3.169,1.883-5.582-2.589-5.582-2.589s1.11,5.49-2.127,6.557c-2.942.984-4.6-2.589-4.6-2.589s.1,3.447-2.926,3.842c-3.632.479-3.245-6.818-7.348-9.517C178,242.8,185.776,215.35,185.776,215.35Z" transform="translate(-98.09 -129.054)" fill="#eb9481"/>
        <path id="Path_25508" data-name="Path 25508" d="M192.419,232.639a27.158,27.158,0,0,1,5.725,15.133c0,.135-.1.21-.135.084a67.068,67.068,0,0,0-5.65-15.183S192.394,232.614,192.419,232.639Z" transform="translate(-100.244 -131.808)" fill="#263238"/>
        <path id="Path_25509" data-name="Path 25509" d="M185.55,237.089c1.639,2.228,4.91,9.2,4.817,15.444,0,.143-.118.21-.135.084a72.042,72.042,0,0,0-4.733-15.494S185.534,237.064,185.55,237.089Z" transform="translate(-99.151 -132.516)" fill="#263238"/>
        <path id="Path_25510" data-name="Path 25510" d="M201.816,231.679a24.061,24.061,0,0,1,6.07,5.044,37.261,37.261,0,0,0,3.077,2.909c.992.841,2.455,2.043,3.817,1.337a2.278,2.278,0,0,0,.942-2.127,10.931,10.931,0,0,0-.9-3.363c0-.042.059-.076.076,0a16.189,16.189,0,0,1,1.1,3.077,3.767,3.767,0,0,1-.168,2.177c-.7,1.429-2.522,1.278-3.682.622a12.6,12.6,0,0,1-1.942-1.454c-.589-.513-1.152-1.051-1.681-1.6-1.127-1.127-2.186-2.32-3.3-3.455a34.834,34.834,0,0,0-3.455-3.035C201.707,231.729,201.766,231.654,201.816,231.679Z" transform="translate(-101.739 -131.655)" fill="#263238"/>
        <path id="Path_25511" data-name="Path 25511" d="M205.232,242.382a84.714,84.714,0,0,0-3.909-10.643c0-.05,0-.084.067-.042A44.294,44.294,0,0,1,205.963,242a15.188,15.188,0,0,1,.572,6.078c-.555,2.85-2.522,3.018-3.279,3.026a3.758,3.758,0,0,1-2.346-.841,7.567,7.567,0,0,1-1.791-2.522c0-.05,0-.092.067,0,.765,1.312,2.186,2.741,3.775,2.833a2.64,2.64,0,0,0,1.95-.605,3.429,3.429,0,0,0,.9-2.2A15.758,15.758,0,0,0,205.232,242.382Z" transform="translate(-101.32 -131.655)" fill="#263238"/>
        <path id="Path_25512" data-name="Path 25512" d="M128.465,203.774,103,201.471s15.284-21.278,23.262-28.929c8.315-7.978,13.241-6.784,8.912,7.844C130.878,194.8,128.465,203.774,128.465,203.774Z" transform="translate(-86.009 -121.455)" fill="#00a3b1"/>
        <path id="Path_25513" data-name="Path 25513" d="M120.438,181.859h0l-.252.311h.185c.252-.051.5-.084.757-.16A5.355,5.355,0,0,0,120.438,181.859Zm9.1,22.548a1.555,1.555,0,0,1-.63-.21,1.21,1.21,0,0,1-.5-1.042,1.555,1.555,0,0,0-1-1.421,1.683,1.683,0,0,0-.841-.059c-.252.059-.5.084-.757.16.252.067.5.1.757.151a1.5,1.5,0,0,1,.647.193,1.16,1.16,0,0,1,.572.992,1.581,1.581,0,0,0,.488,1.135l1.681.151Zm4.674-31.669a1.572,1.572,0,0,1-.589.319,1.2,1.2,0,0,1-1.11-.294,1.572,1.572,0,0,0-1.681-.353,1.513,1.513,0,0,0-.656.546c-.143.21-.294.412-.429.647.235-.135.437-.286.647-.429a1.277,1.277,0,0,1,.6-.294,1.16,1.16,0,0,1,1.1.336,1.53,1.53,0,0,0,2.354-.261c.143-.219.294-.42.429-.647C134.629,172.443,134.436,172.595,134.217,172.738Zm-.992,12.215c-.05-.252-.076-.5-.151-.757-.067.252-.1.5-.151.757a1.631,1.631,0,0,1-.193.647,1.16,1.16,0,0,1-.992.572,1.522,1.522,0,0,0-1.53,1.8c.059.252.084.5.16.757.067-.252.1-.5.151-.757a1.437,1.437,0,0,1,.21-.631,1.194,1.194,0,0,1,1.026-.538,1.513,1.513,0,0,0,1.471-1.85Zm-14,9.248a1.336,1.336,0,0,1-.589.294,1.177,1.177,0,0,1-1.11-.336,1.538,1.538,0,0,0-1.681-.294,1.488,1.488,0,0,0-.639.555,7.2,7.2,0,0,0-.429.647c.227-.135.429-.294.647-.429a1.362,1.362,0,0,1,.589-.32,1.135,1.135,0,0,1,1.1.294,1.6,1.6,0,0,0,1.681.353,1.514,1.514,0,0,0,.656-.547c.143-.219.3-.412.429-.647-.235.135-.437.286-.656.429Z" transform="translate(-87.886 -122.197)" fill="#fff"/>
        <path id="Path_25514" data-name="Path 25514" d="M128.026,204.893c-.6-.126-1.219-.168-1.824-.235l-1.875-.219c-1.261-.143-2.522-.269-3.8-.387-2.522-.235-5.044-.488-7.608-.681l-2.093-.143c-.74,0-1.48,0-2.211-.059-.042,0-.042.067,0,.076.622.076,1.244.2,1.875.286s1.286.16,1.925.219c1.269.135,2.522.252,3.808.362,2.522.219,4.994.446,7.491.605l2.1.126c.731.05,1.471.135,2.2.118Z" transform="translate(-86.899 -127.114)" fill="#263238"/>
        <path id="Path_25515" data-name="Path 25515" d="M131.86,206.673h1.379l-.1.076c.353-1.681.782-3.363,1.177-5.044s.841-3.363,1.337-5.044c.942-3.363,1.934-6.658,3.111-9.92-.673,3.413-1.522,6.726-2.421,10.089q-.681,2.522-1.429,5c-.521,1.681-1.009,3.312-1.589,4.943v.084h-.076Q132.541,206.8,131.86,206.673Z" transform="translate(-90.606 -124.497)" fill="#263238"/>
        <path id="Path_25516" data-name="Path 25516" d="M137.46,195.678a12.387,12.387,0,0,1,1.076-2.615,11.948,11.948,0,0,1,1.589-2.3,11.77,11.77,0,0,1-1.076,2.615,12.335,12.335,0,0,1-1.589,2.3Z" transform="translate(-91.498 -125.138)" fill="#263238"/>
        <path id="Path_25517" data-name="Path 25517" d="M152.842,174.085c-3.556.622-9.248-5.044-11.383-9.576-.143-.3,1.791-12.148,1.934-14.536,0-.488,14.754,4.515,14.754,4.515a38.128,38.128,0,0,0-1.984,9.08C156.137,163.921,156.272,173.48,152.842,174.085Z" transform="translate(-92.134 -118.635)" fill="#eb9481"/>
        <path id="Path_25518" data-name="Path 25518" d="M158.6,154.5a38.127,38.127,0,0,0-1.984,9.08v1.143a7.727,7.727,0,0,1-1.463,0c-8.13-.664-10.282-10.828-10.82-14.721l.446.1.488.126.294.076,1.026.294.446.135c.656.193,1.379.42,2.127.656l.32.1,2.051.656.277.092.622.2.639.21,1.967.647.269.092.992.328.227.076,1.042.353.177.059.546.185h.1l.193.059Z" transform="translate(-92.593 -118.645)" fill="#263238"/>
        <path id="Path_25519" data-name="Path 25519" d="M145.631,126.454c-2.749,4.834-3.363,20.429-.462,24.608,4.254,6.045,12.9,8.483,18.5,2.984,5.389-5.33,5.885-25.675,2.438-29.635C161.016,118.568,149.7,119.325,145.631,126.454Z" transform="translate(-92.423 -113.947)" fill="#eb9481"/>
        <path id="Path_25520" data-name="Path 25520" d="M161.1,142.367c0-.042-.084,0-.084.084,0,1.059-.21,2.261-1.177,2.564v.059C161.017,144.965,161.252,143.367,161.1,142.367Z" transform="translate(-95.063 -117.426)" fill="#263238"/>
        <path id="Path_25521" data-name="Path 25521" d="M160.008,141c-1.681-.2-1.967,3.178-.412,3.363S161.454,141.183,160.008,141Z" transform="translate(-94.862 -117.209)" fill="#263238"/>
        <path id="Path_25522" data-name="Path 25522" d="M168.182,143.14s.076.059.067.1c-.118,1.042-.084,2.262.841,2.69v.059C167.929,145.729,167.9,144.115,168.182,143.14Z" transform="translate(-96.368 -117.552)" fill="#263238"/>
        <path id="Path_25523" data-name="Path 25523" d="M169.22,141.94c1.681,0,1.539,3.4,0,3.363S167.8,141.923,169.22,141.94Z" transform="translate(-96.381 -117.361)" fill="#263238"/>
        <path id="Path_25524" data-name="Path 25524" d="M158.689,138.574a12.792,12.792,0,0,0,1.354-.353,2.244,2.244,0,0,0,1.311-.614.731.731,0,0,0-.042-.841,1.8,1.8,0,0,0-1.774-.336,2.648,2.648,0,0,0-1.6,1,.765.765,0,0,0,.748,1.143Z" transform="translate(-94.745 -116.467)" fill="#263238"/>
        <path id="Path_25525" data-name="Path 25525" d="M170.658,139.552a10.563,10.563,0,0,1-1.312-.462,2.279,2.279,0,0,1-1.253-.723.723.723,0,0,1,.118-.841,1.774,1.774,0,0,1,1.791-.177,2.606,2.606,0,0,1,1.5,1.127.757.757,0,0,1-.849,1.076Z" transform="translate(-96.365 -116.603)" fill="#263238"/>
        <path id="Path_25526" data-name="Path 25526" d="M158.852,153.787c.227.269.454.631.841.689a2.524,2.524,0,0,0,1.143-.168s.067,0,.042.059a1.4,1.4,0,0,1-1.379.454,1.1,1.1,0,0,1-.74-.992C158.734,153.77,158.818,153.753,158.852,153.787Z" transform="translate(-94.891 -119.245)" fill="#263238"/>
        <path id="Path_25527" data-name="Path 25527" d="M160.5,148.1a3.573,3.573,0,0,0,2.245,1.791,4.38,4.38,0,0,0,1.278.168.785.785,0,0,0,.244,0h.235a.278.278,0,0,0,.235-.219h0v-.109h0v-.092c.092-.841.118-2.035.118-2.035.286.168,1.732.975,1.74.555a53.405,53.405,0,0,0-.462-10.929.1.1,0,0,0-.193,0c-.219,3.363.16,6.726,0,10.13a6.355,6.355,0,0,0-1.681-.656c-.118,0,0,2.388-.084,2.741a.142.142,0,0,1,0,.042,4.935,4.935,0,0,1-3.59-1.463C160.53,147.954,160.438,148.013,160.5,148.1Z" transform="translate(-95.165 -116.599)" fill="#263238"/>
        <path id="Path_25528" data-name="Path 25528" d="M163.474,151.718a4.3,4.3,0,0,1-1.807,1.169,1.916,1.916,0,0,1-1.169,0c-.841-.294-.773-1.059-.563-1.681a4.926,4.926,0,0,1,.462-.975A5.49,5.49,0,0,0,163.474,151.718Z" transform="translate(-95.057 -118.681)" fill="#263238"/>
        <path id="Path_25529" data-name="Path 25529" d="M161.646,153.041a1.917,1.917,0,0,1-1.169,0c-.841-.294-.773-1.059-.563-1.681A1.976,1.976,0,0,1,161.646,153.041Z" transform="translate(-95.054 -118.861)" fill="#ff98b9"/>
        <path id="Path_25530" data-name="Path 25530" d="M143.951,139.732c2.85.168,3.363-6.785,3.363-6.785s4.414-.269,7.23-5.944c0,0,5.145,4.153,9.912,3.859,7.466-.462,8.407-9.979,5.885-12.232-3.556-3.2-10.929,0-10.929,0s-10.088-4.153-14.057,2.522a5.4,5.4,0,0,0-5.616,4.758C138.848,131.022,141.824,139.623,143.951,139.732Z" transform="translate(-91.836 -113.421)" fill="#263238"/>
        <path id="Path_25531" data-name="Path 25531" d="M147.482,135.141a9.668,9.668,0,0,0,5.818-2.329,7.255,7.255,0,0,0,2.421-6.2.1.1,0,0,1,.193,0,8.309,8.309,0,0,1-1.984,6.793,6.726,6.726,0,0,1-6.457,1.967C147.365,135.335,147.356,135.15,147.482,135.141Z" transform="translate(-93.08 -114.908)" fill="#263238"/>
        <path id="Path_25532" data-name="Path 25532" d="M139.514,123.642c1.681-1.681,3.884-1.681,6.045-1.345a.1.1,0,0,1,0,.193,6.089,6.089,0,0,0-5.75,2.287c-1.32,1.614-1.3,3.775-1.085,5.717a15.267,15.267,0,0,0,4.977,9.761.05.05,0,1,1-.059.076,15.267,15.267,0,0,1-5.65-10.7C137.849,127.593,137.992,125.164,139.514,123.642Z" transform="translate(-91.576 -114.204)" fill="#263238"/>
        <path id="Path_25533" data-name="Path 25533" d="M162.825,118.741a7.171,7.171,0,0,1,4.38-2.6,8.609,8.609,0,0,1,5.986,1.337,4.859,4.859,0,0,1,2.043,4.405,8.584,8.584,0,0,1-2.522,5.162c0,.042-.1,0-.067-.05a8.558,8.558,0,0,0,2.077-4.725,4.447,4.447,0,0,0-2.144-4.2c-2.842-1.681-7.247-1.992-9.576.841C162.893,118.959,162.741,118.833,162.825,118.741Z" transform="translate(-95.535 -113.237)" fill="#263238"/>
        <path id="Path_25534" data-name="Path 25534" d="M157.324,146.191a4.506,4.506,0,1,1,5.439-4.573h0a4.506,4.506,0,0,1-4.33,4.666A4.4,4.4,0,0,1,157.324,146.191Zm1.757-8.214a3.7,3.7,0,0,0-.967-.084,3.9,3.9,0,1,0,.967.084Z" transform="translate(-94.094 -116.618)" fill="#e27e28"/>
        <path id="Path_25535" data-name="Path 25535" d="M169.688,147.308c-1.681-.361-2.842-2.413-2.623-4.75a5.4,5.4,0,0,1,1.244-3.043,2.808,2.808,0,0,1,4.784.446,5.4,5.4,0,0,1,.647,3.22c-.235,2.472-1.917,4.338-3.758,4.2ZM171,139.019h-.227a2.387,2.387,0,0,0-2.009.925,4.733,4.733,0,0,0-1.093,2.7c-.2,2.144.841,4,2.371,4.145s2.9-1.488,3.1-3.623a4.817,4.817,0,0,0-.572-2.867,2.522,2.522,0,0,0-1.572-1.3Z" transform="translate(-96.21 -116.793)" fill="#e27e28"/>
        <path id="Path_25536" data-name="Path 25536" d="M164.125,142.791l-.345-.5c.731-.5,2.379-1.127,3.363.143l-.479.37C165.789,141.7,164.192,142.791,164.125,142.791Z" transform="translate(-95.691 -117.321)" fill="#e27e28"/>
        <path id="Path_25537" data-name="Path 25537" d="M140.214,141.653l-.5-.319c.151-.235,1.522-2.312,2.875-2.4s9.248,1.429,9.567,1.488l-.109.6c-2.287-.437-8.407-1.547-9.416-1.48S140.584,141.09,140.214,141.653Z" transform="translate(-91.857 -116.881)" fill="#e27e28"/>
        <path id="Path_25538" data-name="Path 25538" d="M145.428,142.077s-2.4-5.565-4.859-4.8-1.345,8.331,1.051,9.828a2.682,2.682,0,0,0,3.817-.689Z" transform="translate(-91.774 -116.606)" fill="#eb9481"/>
        <path id="Path_25539" data-name="Path 25539" d="M141.263,139.83c-.042,0-.059,0,0,.067,1.681,1.11,2.278,2.993,2.589,4.876a1.488,1.488,0,0,0-2.093-.841c-.059,0,0,.109,0,.109a1.681,1.681,0,0,1,1.681.933,7.8,7.8,0,0,1,.555,1.614c.05.185.362.16.336-.042v-.05C144.844,144.177,143.7,140.57,141.263,139.83Z" transform="translate(-92.098 -117.025)" fill="#263238"/>
        <path id="Path_25540" data-name="Path 25540" d="M139.665,168.284c.429.773.79,1.572,1.261,2.329a25.433,25.433,0,0,0,1.555,2.211,24.107,24.107,0,0,0,3.64,3.766,8.709,8.709,0,0,0,4.943,2.354,4.725,4.725,0,0,0,4.3-2.27c1.227-1.875,1.211-4.2,1.194-6.431a.067.067,0,1,1,.126,0,13.875,13.875,0,0,1-.773,6.221,5.044,5.044,0,0,1-3.7,3.094c-3.977.681-7.247-2.825-9.424-5.675a24.923,24.923,0,0,1-1.757-2.615,19.331,19.331,0,0,1-1.488-2.943C139.514,168.258,139.632,168.216,139.665,168.284Z" transform="translate(-91.829 -121.552)" fill="#263238"/>
      </g>
      <g id="freepik--Desk--inject-102" transform="translate(21.917 171.319)">
        <rect id="Rectangle_7946" data-name="Rectangle 7946" width="301.427" height="10.719" transform="translate(301.427 10.719) rotate(180)" fill="#37474f"/>
        <rect id="Rectangle_7947" data-name="Rectangle 7947" width="301.427" height="4.187" transform="translate(301.427 10.727) rotate(180)" fill="#455a64"/>
        <path id="Path_25541" data-name="Path 25541" d="M412.746,423.352h4.329l-12.611-150.4H393.41Z" transform="translate(-122.131 -262.223)" fill="#455a64"/>
        <path id="Path_25542" data-name="Path 25542" d="M393.41,272.95l1.295,10.063h10.6l-.841-10.063Z" transform="translate(-122.131 -262.223)" fill="#263238"/>
        <path id="Path_25543" data-name="Path 25543" d="M82.77,423.352H78.44l12.611-150.4h11.055Z" transform="translate(-71.958 -262.223)" fill="#455a64"/>
        <path id="Path_25544" data-name="Path 25544" d="M104.336,272.95l-1.295,10.063H92.44l.841-10.063Z" transform="translate(-74.188 -262.223)" fill="#263238"/>
      </g>
      <g id="freepik--Device--inject-102" transform="translate(116.514 127.888)">
        <rect id="Rectangle_7948" data-name="Rectangle 7948" width="65.617" height="2.942" transform="translate(0 40.488)" fill="#c7c7c7"/>
        <rect id="Rectangle_7949" data-name="Rectangle 7949" width="33.031" height="2.942" transform="translate(32.594 40.488)" fill="#a6a6a6"/>
        <path id="Path_25545" data-name="Path 25545" d="M226.25,251.961H290.2l8.357-43.431H234.607Z" transform="translate(-190.1 -208.53)" fill="#c7c7c7"/>
        <path id="Path_25546" data-name="Path 25546" d="M264.626,233.622a3.5,3.5,0,0,0,3.548,3.892,4.338,4.338,0,0,0,4.2-3.892,3.514,3.514,0,0,0-3.556-3.892A4.321,4.321,0,0,0,264.626,233.622Z" transform="translate(-196.209 -211.907)" fill="#a6a6a6"/>
      </g>
      <g id="freepik--Coins--inject-102" transform="translate(111.496)">
        <path id="Path_25547" data-name="Path 25547" d="M196.44,56.41c-25.524,0-25.566,36.293,0,36.293S222,56.41,196.44,56.41Z" transform="translate(-177.281 -56.41)" fill="#e27e28"/>
        <path id="Path_25548" data-name="Path 25548" d="M212.576,78.5c-1.362,6.246-6.541,11.661-15.528,11.661-21.211,0-21.177-30.123,0-30.123h.42c-19.933.362-19.841,28.887.387,28.887C206.111,88.969,211.021,84.194,212.576,78.5Z" transform="translate(-177.898 -56.988)" fill="#e27e28"/>
        <path id="Path_25549" data-name="Path 25549" d="M212.576,78.5c-1.362,6.246-6.541,11.661-15.528,11.661-21.211,0-21.177-30.123,0-30.123h.42c-19.933.362-19.841,28.887.387,28.887C206.111,88.969,211.021,84.194,212.576,78.5Z" transform="translate(-177.898 -56.988)" opacity="0.1"/>
        <path id="Path_25550" data-name="Path 25550" d="M198.893,64.8a.647.647,0,0,1,.664.605v1.017a9.483,9.483,0,0,1,4.91,1.766c.252.177.387.328.387.58a.681.681,0,0,1-.715.631.706.706,0,0,1-.5-.177,8.281,8.281,0,0,0-4.145-1.681v7.07c4.2.841,5.961,2.253,5.961,4.725,0,2.682-2.455,4.573-5.885,4.674v1.976a.664.664,0,1,1-1.328,0V84.027a10.879,10.879,0,0,1-6.213-2.447.639.639,0,0,1-.3-.53.689.689,0,0,1,.689-.639.74.74,0,0,1,.5.177,9.247,9.247,0,0,0,5.381,2.3v-7.2c-4.136-.841-5.885-2.219-5.885-4.742s2.43-4.5,5.8-4.573v-.967A.647.647,0,0,1,198.893,64.8Zm-.614,9.6V67.49c-2.673.05-4.439,1.513-4.439,3.363S194.723,73.619,198.279,74.4Zm1.244,1.547v6.969c2.758-.051,4.557-1.513,4.557-3.439C204.055,77.738,203.088,76.679,199.523,75.948Z" transform="translate(-179.583 -57.746)" fill="#e27e28"/>
        <g id="Group_16049" data-name="Group 16049" transform="translate(12.147 7.053)" opacity="0.1">
          <path id="Path_25551" data-name="Path 25551" d="M198.893,64.8a.647.647,0,0,1,.664.605v1.017a9.483,9.483,0,0,1,4.91,1.766c.252.177.387.328.387.58a.681.681,0,0,1-.715.631.706.706,0,0,1-.5-.177,8.281,8.281,0,0,0-4.145-1.681v7.07c4.2.841,5.961,2.253,5.961,4.725,0,2.682-2.455,4.573-5.885,4.674v1.976a.664.664,0,1,1-1.328,0V84.027a10.879,10.879,0,0,1-6.213-2.447.639.639,0,0,1-.3-.53.689.689,0,0,1,.689-.639.74.74,0,0,1,.5.177,9.247,9.247,0,0,0,5.381,2.3v-7.2c-4.136-.841-5.885-2.219-5.885-4.742s2.43-4.5,5.8-4.573v-.967A.647.647,0,0,1,198.893,64.8Zm-.614,9.6V67.49c-2.673.05-4.439,1.513-4.439,3.363S194.723,73.619,198.279,74.4Zm1.244,1.547v6.969c2.758-.051,4.557-1.513,4.557-3.439C204.055,77.738,203.088,76.679,199.523,75.948Z" transform="translate(-191.73 -64.799)"/>
        </g>
        <path id="Path_25552" data-name="Path 25552" d="M443.984,163.935c-22.977,4.12-16.907,38.168,6.112,34.032S467,159.815,443.984,163.935Z" transform="translate(-217.457 -73.483)" fill="#e27e28"/>
        <path id="Path_25553" data-name="Path 25553" d="M443.984,163.935c-22.977,4.12-16.907,38.168,6.112,34.032S467,159.815,443.984,163.935Z" transform="translate(-217.457 -73.483)" opacity="0.1"/>
        <path id="Path_25554" data-name="Path 25554" d="M446.7,163.49c-21.9,3.926-15.831,37.975,6.1,34.032S468.639,159.556,446.7,163.49Z" transform="translate(-218.016 -73.417)" fill="#e27e28"/>
        <path id="Path_25555" data-name="Path 25555" d="M464.184,181.9c-.118,6.07-3.649,11.946-11.358,13.325-18.2,3.27-23.245-24.986-5.044-28.248l.361-.059c-17.041,3.413-12.157,30.156,5.2,27.037A12.61,12.61,0,0,0,464.185,181.9Z" transform="translate(-218.556 -74.013)" fill="#e27e28"/>
        <path id="Path_25556" data-name="Path 25556" d="M464.184,181.9c-.118,6.07-3.649,11.946-11.358,13.325-18.2,3.27-23.245-24.986-5.044-28.248l.361-.059c-17.041,3.413-12.157,30.156,5.2,27.037A12.61,12.61,0,0,0,464.185,181.9Z" transform="translate(-218.556 -74.013)" opacity="0.1"/>
        <path id="Path_25557" data-name="Path 25557" d="M452.983,171.38a.58.58,0,0,1,.5.639l-.109.958a7.877,7.877,0,0,1,4.06,2.169.681.681,0,0,1,.269.589.63.63,0,0,1-.7.53.605.605,0,0,1-.412-.219,6.827,6.827,0,0,0-3.363-1.976l-.79,6.726c3.548,1.194,4.918,2.732,4.641,5.044-.3,2.522-2.64,4.078-5.641,3.825l-.219,1.858a.576.576,0,1,1-1.143-.134l.219-1.883a9.047,9.047,0,0,1-5.1-2.951.605.605,0,0,1,.463-1.068.656.656,0,0,1,.412.219,7.727,7.727,0,0,0,4.405,2.724l.8-6.81c-3.489-1.211-4.817-2.7-4.54-5.095s2.606-4,5.532-3.733l.109-.908A.58.58,0,0,1,452.983,171.38Zm-1.6,9.021.773-6.524c-2.329-.227-4.019.975-4.2,2.7S448.359,179.3,451.386,180.4Zm.841,1.581-.774,6.6c2.4.235,4.111-.975,4.321-2.791.236-1.648-.479-2.749-3.506-3.8Z" transform="translate(-219.923 -74.724)" fill="#e27e28"/>
        <g id="Group_16050" data-name="Group 16050" transform="translate(225.054 96.655)" opacity="0.1">
          <path id="Path_25558" data-name="Path 25558" d="M452.983,171.38a.58.58,0,0,1,.5.639l-.109.958a7.877,7.877,0,0,1,4.06,2.169.681.681,0,0,1,.269.589.63.63,0,0,1-.7.53.605.605,0,0,1-.412-.219,6.827,6.827,0,0,0-3.363-1.976l-.79,6.726c3.548,1.194,4.918,2.732,4.641,5.044-.3,2.522-2.64,4.078-5.641,3.825l-.219,1.858a.576.576,0,1,1-1.143-.134l.219-1.883a9.047,9.047,0,0,1-5.1-2.951.605.605,0,0,1,.463-1.068.656.656,0,0,1,.412.219,7.727,7.727,0,0,0,4.405,2.724l.8-6.81c-3.489-1.211-4.817-2.7-4.54-5.095s2.606-4,5.532-3.733l.109-.908A.58.58,0,0,1,452.983,171.38Zm-1.6,9.021.773-6.524c-2.329-.227-4.019.975-4.2,2.7S448.359,179.3,451.386,180.4Zm.841,1.581-.774,6.6c2.4.235,4.111-.975,4.321-2.791.236-1.648-.479-2.749-3.506-3.8Z" transform="translate(-444.978 -171.379)"/>
        </g>
        <path id="Path_25559" data-name="Path 25559" d="M422.662,206.077c18.58,3.363,13.678,30.862-4.935,27.525S404.057,202.739,422.662,206.077Z" transform="translate(-213.713 -80.206)" fill="#e27e28"/>
        <path id="Path_25560" data-name="Path 25560" d="M422.662,206.077c18.58,3.363,13.678,30.862-4.935,27.525S404.057,202.739,422.662,206.077Z" transform="translate(-213.713 -80.206)" opacity="0.1"/>
        <path id="Path_25561" data-name="Path 25561" d="M420.714,205.712c17.705,3.178,12.8,30.7-4.935,27.516S402.975,202.551,420.714,205.712Z" transform="translate(-213.506 -80.152)" fill="#e27e28"/>
        <path id="Path_25562" data-name="Path 25562" d="M407.46,220.613a10.674,10.674,0,0,0,9.181,10.769c14.712,2.64,18.79-20.177,4.094-22.842h-.286c13.779,2.758,9.828,24.38-4.2,21.858A10.215,10.215,0,0,1,407.46,220.613Z" transform="translate(-213.947 -80.643)" fill="#e27e28"/>
        <path id="Path_25563" data-name="Path 25563" d="M407.46,220.613a10.674,10.674,0,0,0,9.181,10.769c14.712,2.64,18.79-20.177,4.094-22.842h-.286c13.779,2.758,9.828,24.38-4.2,21.858A10.215,10.215,0,0,1,407.46,220.613Z" transform="translate(-213.947 -80.643)" opacity="0.1"/>
        <path id="Path_25564" data-name="Path 25564" d="M420.672,210.929a.471.471,0,0,1,.37.547l-.135.765a6.339,6.339,0,0,1,3.153,1.976.547.547,0,0,1,.185.488.5.5,0,0,1-.589.387.513.513,0,0,1-.32-.2,5.532,5.532,0,0,0-2.64-1.774l-.992,5.355c2.791,1.152,3.817,2.472,3.464,4.346-.378,2.026-2.346,3.144-4.75,2.774l-.277,1.5a.471.471,0,0,1-.925-.168l.286-1.513a7.34,7.34,0,0,1-3.96-2.657.5.5,0,0,1-.134-.446.5.5,0,0,1,.563-.387.47.47,0,0,1,.32.193,6.255,6.255,0,0,0,3.4,2.438l1.017-5.448c-2.749-1.169-3.741-2.447-3.363-4.355s2.32-3.094,4.666-2.716l.134-.723A.479.479,0,0,1,420.672,210.929Zm-1.774,7.2.975-5.229c-1.867-.3-3.3.58-3.556,1.95S416.536,217.067,418.9,218.126Zm.622,1.32-.984,5.28c1.925.319,3.363-.555,3.64-2.009C422.429,221.4,421.908,220.463,419.52,219.446Z" transform="translate(-214.893 -81.023)" fill="#e27e28"/>
        <g id="Group_16051" data-name="Group 16051" transform="translate(198.506 129.903)" opacity="0.1">
          <path id="Path_25565" data-name="Path 25565" d="M420.672,210.929a.471.471,0,0,1,.37.547l-.135.765a6.339,6.339,0,0,1,3.153,1.976.547.547,0,0,1,.185.488.5.5,0,0,1-.589.387.513.513,0,0,1-.32-.2,5.532,5.532,0,0,0-2.64-1.774l-.992,5.355c2.791,1.152,3.817,2.472,3.464,4.346-.378,2.026-2.346,3.144-4.75,2.774l-.277,1.5a.471.471,0,0,1-.925-.168l.286-1.513a7.34,7.34,0,0,1-3.96-2.657.5.5,0,0,1-.134-.446.5.5,0,0,1,.563-.387.47.47,0,0,1,.32.193,6.255,6.255,0,0,0,3.4,2.438l1.017-5.448c-2.749-1.169-3.741-2.447-3.363-4.355s2.32-3.094,4.666-2.716l.134-.723A.479.479,0,0,1,420.672,210.929Zm-1.774,7.2.975-5.229c-1.867-.3-3.3.58-3.556,1.95S416.536,217.067,418.9,218.126Zm.622,1.32-.984,5.28c1.925.319,3.363-.555,3.64-2.009C422.429,221.4,421.908,220.463,419.52,219.446Z" transform="translate(-413.399 -210.927)"/>
        </g>
      </g>
    </g>
  </g>
</svg>
