<svg id="search" xmlns="http://www.w3.org/2000/svg" width="18.868" height="19.654" viewBox="0 0 18.868 19.654">
  <g id="Group_16522" data-name="Group 16522" transform="translate(2.831 4.072)">
    <g id="Group_16521" data-name="Group 16521">
      <path id="Path_26889" data-name="Path 26889" d="M79.382,111.182a.706.706,0,0,0-1,0A4.828,4.828,0,0,0,77,115.1a.706.706,0,0,0,.7.636c.024,0,.047,0,.071,0a.707.707,0,0,0,.633-.773,3.42,3.42,0,0,1,.974-2.774A.706.706,0,0,0,79.382,111.182Z" transform="translate(-76.978 -110.975)" fill="#b4b4b4"/>
    </g>
  </g>
  <g id="Group_16524" data-name="Group 16524">
    <g id="Group_16523" data-name="Group 16523">
      <path id="Path_26890" data-name="Path 26890" d="M8.077,0a8.077,8.077,0,1,0,8.077,8.077A8.086,8.086,0,0,0,8.077,0Zm0,14.74A6.664,6.664,0,1,1,14.74,8.077,6.671,6.671,0,0,1,8.077,14.74Z" fill="#b4b4b4"/>
    </g>
  </g>
  <g id="Group_16526" data-name="Group 16526" transform="translate(12.322 13.108)">
    <g id="Group_16525" data-name="Group 16525">
      <path id="Path_26891" data-name="Path 26891" d="M343.048,342.05l-5.133-5.133a.706.706,0,0,0-1,1l5.133,5.133a.706.706,0,0,0,1-1Z" transform="translate(-336.709 -336.71)" fill="#b4b4b4"/>
    </g>
  </g>
</svg>
