<svg xmlns="http://www.w3.org/2000/svg" width="40" height="40" viewBox="0 0 40 40">
  <g id="Group_18015" data-name="Group 18015" transform="translate(-23 -459.541)">
    <circle id="Ellipse_931" data-name="Ellipse 931" cx="20" cy="20" r="20" transform="translate(23 459.541)" fill="#defafc"/>
    <g id="profile" transform="translate(32.885 469.885)">
      <g id="Group_18015-2" data-name="Group 18015" transform="translate(3.395)">
        <path id="Path_33668" data-name="Path 33668" d="M8.243,8.487a4.243,4.243,0,1,1,4.243-4.243A4.248,4.248,0,0,1,8.243,8.487Zm0-7.638a3.395,3.395,0,1,0,3.395,3.395A3.4,3.4,0,0,0,8.243.849Z" transform="translate(-4)" fill="#00a3b1" stroke="#00a3b1" stroke-width="0.3"/>
      </g>
      <g id="Group_18016" data-name="Group 18016" transform="translate(0 10.184)">
        <path id="Path_33669" data-name="Path 33669" d="M7.214,19.638H.424A.425.425,0,0,1,0,19.214V15.819A3.824,3.824,0,0,1,3.819,12H8.911a.424.424,0,1,1,0,.849H3.819a2.974,2.974,0,0,0-2.97,2.97v2.97H7.214a.424.424,0,1,1,0,.849Z" transform="translate(0 -12)" fill="#00a3b1" stroke="#00a3b1" stroke-width="0.3"/>
      </g>
      <g id="Group_18019" data-name="Group 18019" transform="translate(9.198 9.337)">
        <g id="Group_18017" data-name="Group 18017" transform="translate(3.108 3.394)">
          <path id="Path_33670" data-name="Path 33670" d="M16.622,19.243a2.122,2.122,0,1,1,2.122-2.122A2.125,2.125,0,0,1,16.622,19.243Zm0-3.395a1.273,1.273,0,1,0,1.273,1.273A1.275,1.275,0,0,0,16.622,15.849Z" transform="translate(-14.5 -15)" fill="#00a3b1" stroke="#00a3b1" stroke-width="0.3"/>
        </g>
        <g id="Group_18018" data-name="Group 18018">
          <path id="Path_33671" data-name="Path 33671" d="M16.744,22.033H15.39a.846.846,0,0,1-.844-.765l-.108-1.079a3.986,3.986,0,0,1-.734-.427l-.991.447a.844.844,0,0,1-1.084-.35l-.676-1.172a.847.847,0,0,1,.239-1.113l.873-.628a3.223,3.223,0,0,1,0-.861l-.873-.628a.847.847,0,0,1-.239-1.113l.676-1.172a.846.846,0,0,1,1.084-.35l.991.447a3.985,3.985,0,0,1,.734-.427l.108-1.079A.846.846,0,0,1,15.39,11h1.354a.846.846,0,0,1,.844.765l.108,1.079a3.978,3.978,0,0,1,.734.427l.991-.447a.847.847,0,0,1,1.084.35l.676,1.172a.847.847,0,0,1-.239,1.113l-.873.628a3.223,3.223,0,0,1,0,.861l.873.628a.847.847,0,0,1,.239,1.113l-.676,1.171a.845.845,0,0,1-1.084.35l-.991-.447a3.986,3.986,0,0,1-.734.427l-.109,1.08a.846.846,0,0,1-.844.764Zm-2.981-3.187a.424.424,0,0,1,.272.1,3.161,3.161,0,0,0,.945.549.425.425,0,0,1,.277.356l.134,1.333h1.354l.133-1.333a.425.425,0,0,1,.277-.356,3.179,3.179,0,0,0,.945-.549.424.424,0,0,1,.446-.061l1.226.553.676-1.172-1.085-.779a.427.427,0,0,1-.171-.418,2.688,2.688,0,0,0,0-1.1.426.426,0,0,1,.171-.418l1.085-.779L19.771,13.6l-1.226.553a.425.425,0,0,1-.447-.061,3.13,3.13,0,0,0-.945-.549.425.425,0,0,1-.277-.356l-.133-1.336H15.39l-.133,1.333a.425.425,0,0,1-.277.356,3.179,3.179,0,0,0-.945.549.422.422,0,0,1-.446.061L12.364,13.6l-.676,1.172,1.085.779a.427.427,0,0,1,.171.418,2.688,2.688,0,0,0,0,1.1.426.426,0,0,1-.171.418l-1.085.779.676,1.172,1.226-.553A.443.443,0,0,1,13.763,18.846Z" transform="translate(-10.838 -11.001)" fill="#00a3b1" stroke="#00a3b1" stroke-width="0.3"/>
        </g>
      </g>
    </g>
  </g>
</svg>
