<svg id="senior_citizen_plans" xmlns="http://www.w3.org/2000/svg" width="96" height="96" viewBox="0 0 96 96">
  <g id="ICONS">
    <g id="senior_citizen_plan">
      <path id="Path_26902" data-name="Path 26902" d="M52,24A12,12,0,1,1,64,12,12,12,0,0,1,52,24ZM52,4a8,8,0,1,0,8,8A8,8,0,0,0,52,4Z" fill="#e27e28"/>
      <path id="Path_26903" data-name="Path 26903" d="M26,96a2,2,0,0,1-2-2V58a2,2,0,0,1,4,0V94A2,2,0,0,1,26,96Z" transform="translate(0 -0.07)" fill="#e27e28"/>
      <path id="Path_26904" data-name="Path 26904" d="M66,96a2,2,0,0,1-2-2V88.06a21.93,21.93,0,0,1,3.69-12.21L69,73.93a17.8,17.8,0,0,0,3-10.24c-.28-15.2-3-24.76-8.66-30.09A6,6,0,0,0,59.19,32H54.54a14,14,0,0,0-11.649,6.238l-2.071,3.1A10.09,10.09,0,0,1,37,44.74l-11.6,5.8a2.52,2.52,0,0,0-.52,4.16,2.43,2.43,0,0,0,2,.58l6.43-.92a5.91,5.91,0,0,0,3.13-1.44L45.35,45A4,4,0,0,1,52,48V94a2,2,0,0,1-4,0V48l-8.9,7.9a10,10,0,0,1-5.22,2.42l-6.43.92A6.493,6.493,0,0,1,23.61,47l11.57-5.8a6.06,6.06,0,0,0,2.31-2L39.56,36a18,18,0,0,1,15-8H59.2a9.91,9.91,0,0,1,6.87,2.7c6.46,6.11,9.61,16.57,9.92,32.91a21.82,21.82,0,0,1-3.71,12.54L71,78.07a17.93,17.93,0,0,0-3,10v6a2,2,0,0,1-2,2Z" transform="translate(0 -0.07)" fill="#e27e28"/>
      <rect id="Rectangle_8190" data-name="Rectangle 8190" width="96" height="95.93" fill="none"/>
    </g>
  </g>
</svg>
