<svg id="settings" xmlns="http://www.w3.org/2000/svg" width="32" height="32" viewBox="0 0 32 32">
  <rect id="icon_container" width="32" height="32" fill="none"/>
  <g id="settings-2" data-name="settings" transform="translate(4 2.667)">
    <path id="Path_27450" data-name="Path 27450" d="M12.446,8a4.446,4.446,0,1,0,4.446,4.446A4.446,4.446,0,0,0,12.446,8Zm0,6.668a2.223,2.223,0,1,1,2.223-2.223A2.223,2.223,0,0,1,12.446,14.668Z" transform="translate(-0.446 0.891)" fill="#b4b4b4"/>
    <path id="Path_27451" data-name="Path 27451" d="M23.532,15.448l-.493-.285a10.114,10.114,0,0,0,0-3.657l.493-.285A3.336,3.336,0,1,0,20.2,5.444l-.495.286A9.977,9.977,0,0,0,16.537,3.9v-.57a3.334,3.334,0,1,0-6.668,0V3.9A9.977,9.977,0,0,0,6.7,5.734l-.5-.288a3.336,3.336,0,1,0-3.334,5.779l.493.285a10.114,10.114,0,0,0,0,3.657l-.493.285A3.336,3.336,0,1,0,6.207,21.23l.495-.286a9.977,9.977,0,0,0,3.167,1.825v.57a3.334,3.334,0,1,0,6.668,0v-.57A9.977,9.977,0,0,0,19.7,20.94l.5.287a3.336,3.336,0,1,0,3.334-5.779Zm-2.832-4.2a7.833,7.833,0,0,1,0,4.168,1.111,1.111,0,0,0,.516,1.259l1.2.7A1.112,1.112,0,1,1,21.309,19.3L20.1,18.6a1.111,1.111,0,0,0-1.35.183,7.762,7.762,0,0,1-3.6,2.084,1.111,1.111,0,0,0-.835,1.077v1.393a1.111,1.111,0,1,1-2.223,0V21.948a1.111,1.111,0,0,0-.835-1.077,7.762,7.762,0,0,1-3.6-2.088A1.111,1.111,0,0,0,6.3,18.6l-1.2.7a1.111,1.111,0,1,1-1.111-1.925l1.2-.7a1.111,1.111,0,0,0,.516-1.259,7.833,7.833,0,0,1,0-4.168A1.111,1.111,0,0,0,5.19,9.994l-1.2-.7A1.112,1.112,0,0,1,5.1,7.372l1.207.7a1.111,1.111,0,0,0,1.349-.179,7.762,7.762,0,0,1,3.6-2.084,1.111,1.111,0,0,0,.835-1.081V3.334a1.111,1.111,0,0,1,2.223,0V4.726A1.111,1.111,0,0,0,15.149,5.8a7.762,7.762,0,0,1,3.6,2.088,1.111,1.111,0,0,0,1.35.183l1.2-.7A1.111,1.111,0,1,1,22.42,9.3l-1.2.7a1.111,1.111,0,0,0-.515,1.255Z" transform="translate(-1.203)" fill="#b4b4b4"/>
  </g>
</svg>
