<svg xmlns="http://www.w3.org/2000/svg" width="48" height="48" viewBox="0 0 48 48">
  <g id="copy_link_icon" transform="translate(-2 -2)">
    <path id="Subtraction_2" data-name="Subtraction 2" d="M24,48A24,24,0,0,1,7.029,7.029a24,24,0,0,1,33.941,0A24,24,0,0,1,24,48Zm-5.77-26.908a1.584,1.584,0,0,0-1.129.467L13.82,24.844a6.234,6.234,0,0,0,8.82,8.813l3.283-3.275a1.618,1.618,0,0,0,0-2.26,1.613,1.613,0,0,0-2.258,0l-3.277,3.285a3.049,3.049,0,0,1-4.312-4.312l3.279-3.283a1.593,1.593,0,0,0-1.123-2.719Zm8.529-1.969a1.579,1.579,0,0,0-1.121.469l-6.57,6.563a1.6,1.6,0,0,0,0,2.252,1.6,1.6,0,0,0,2.26,0l6.563-6.561a1.594,1.594,0,0,0,0-2.254A1.612,1.612,0,0,0,26.762,19.123ZM28.736,15.7a3.047,3.047,0,0,1,2.148,5.2l-3.279,3.277a1.61,1.61,0,0,0,0,2.26,1.6,1.6,0,0,0,2.254,0l3.283-3.287a6.233,6.233,0,0,0-8.82-8.811l-3.279,3.275A1.593,1.593,0,1,0,23.3,19.871l3.283-3.279A3.028,3.028,0,0,1,28.736,15.7Z" transform="translate(1.999 2)" fill="#465a65"/>
  </g>
</svg>
