<svg id="share_icon" xmlns="http://www.w3.org/2000/svg" width="40" height="40" viewBox="0 0 40 40">
  <g id="Rectangle_8215" data-name="Rectangle 8215" fill="none" stroke="#b4b4b4" stroke-width="1" opacity="0">
    <rect width="40" height="40" stroke="none"/>
    <rect x="0.5" y="0.5" width="39" height="39" fill="none"/>
  </g>
  <path id="fi-rr-share" d="M24.343,18.463a5.866,5.866,0,0,0-4.833,2.548l-8.194-3.7a5.758,5.758,0,0,0,.006-4.391L19.506,9.2a5.866,5.866,0,1,0-1.041-3.327,5.832,5.832,0,0,0,.1.989l-8.7,3.953a5.876,5.876,0,1,0-.019,8.594l8.721,3.938a5.961,5.961,0,0,0-.1.988,5.875,5.875,0,1,0,5.874-5.874Zm0-15.945a3.357,3.357,0,1,1-3.356,3.357,3.357,3.357,0,0,1,3.356-3.357ZM5.882,18.463a3.357,3.357,0,1,1,3.356-3.357,3.357,3.357,0,0,1-3.356,3.357Zm18.462,9.231A3.357,3.357,0,1,1,27.7,24.337a3.357,3.357,0,0,1-3.357,3.357Z" transform="translate(5.068 5.041)" fill="#e27e28"/>
</svg>
