<svg id="Layer_2" data-name="Layer 2" xmlns="http://www.w3.org/2000/svg" width="48" height="48" viewBox="0 0 48 48">
  <g id="_08.whatsapp" data-name="08.whatsapp">
    <path id="Path_28207" data-name="Path 28207" d="M62.465,49.021l-.047-.047A9.319,9.319,0,0,0,47.529,59.784l.411.808-.767,3.72v.047l3.685-.875.84.417a9.31,9.31,0,0,0,10.768-14.88Zm-.373,10.421a3.892,3.892,0,0,1-2.062,1.8c-1.579.382-3.982,0-6.992-2.782L53,58.422c-2.618-2.444-3.313-4.481-3.158-6.095a3.865,3.865,0,0,1,1.5-2.286.856.856,0,0,1,1.342.316l.969,2.211a.853.853,0,0,1-.1.872l-.493.632a.837.837,0,0,0-.066.932,9.158,9.158,0,0,0,1.664,1.847A9.66,9.66,0,0,0,56.961,58.5a.834.834,0,0,0,.913-.193l.565-.572a.859.859,0,0,1,.868-.265l2.305.663a.862.862,0,0,1,.486,1.288Z" transform="translate(-31.834 -31.653)" fill="#465a65"/>
    <path id="Path_28208" data-name="Path 28208" d="M24,0A24,24,0,1,0,48,24,24,24,0,0,0,24,0ZM35.9,24.281A11.908,11.908,0,0,1,18.7,34.56l-6,1.427a.464.464,0,0,1-.486-.189.455.455,0,0,1-.073-.357L13.4,29.308a11.905,11.905,0,1,1,22.5-5.027Z" fill="#465a65"/>
  </g>
</svg>
