<svg id="sort_icon" xmlns="http://www.w3.org/2000/svg" width="40" height="40" viewBox="0 0 40 40">
  <path id="Path_12443" data-name="Path 12443" d="M0,0H40V40H0Z" fill="none"/>
  <g id="fi-rr-apps-sort" transform="translate(5 5)">
    <path id="Path_26883" data-name="Path 26883" d="M8.75,0H5A5,5,0,0,0,0,5V8.75a5,5,0,0,0,5,5H8.75a5,5,0,0,0,5-5V5A5,5,0,0,0,8.75,0Zm2.5,8.75a2.5,2.5,0,0,1-2.5,2.5H5a2.5,2.5,0,0,1-2.5-2.5V5A2.5,2.5,0,0,1,5,2.5H8.75A2.5,2.5,0,0,1,11.25,5Z" fill="#e27e28"/>
    <path id="Path_26884" data-name="Path 26884" d="M8.75,13H5a5,5,0,0,0-5,5v3.75a5,5,0,0,0,5,5H8.75a5,5,0,0,0,5-5V18A5,5,0,0,0,8.75,13Zm2.5,8.75a2.5,2.5,0,0,1-2.5,2.5H5a2.5,2.5,0,0,1-2.5-2.5V18A2.5,2.5,0,0,1,5,15.5H8.75a2.5,2.5,0,0,1,2.5,2.5Z" transform="translate(0 3.25)" fill="#e27e28"/>
    <path id="Path_26885" data-name="Path 26885" d="M24.366,23.8,21.5,26.662V3.279l2.866,2.862a1.25,1.25,0,1,0,1.767-1.769L22.9,1.144a3.75,3.75,0,0,0-5.3,0L14.366,4.373a1.25,1.25,0,1,0,1.767,1.769L19,3.279V26.662L16.134,23.8a1.25,1.25,0,1,0-1.767,1.769L17.6,28.8a3.75,3.75,0,0,0,5.3,0l3.234-3.229A1.25,1.25,0,1,0,24.366,23.8Z" transform="translate(3.5 0.012)" fill="#e27e28"/>
  </g>
</svg>
