<svg xmlns="http://www.w3.org/2000/svg" width="15" height="15" viewBox="0 0 15 15">
  <g id="star_rate_black_24dp" transform="translate(0.171 -0.221)">
    <rect id="Rectangle_3482" data-name="Rectangle 3482" width="15" height="15" transform="translate(-0.171 0.221)" fill="none"/>
    <path id="Path_12375" data-name="Path 12375" d="M11.008,8.152l-.982-3.229a.666.666,0,0,0-1.276,0L7.761,8.152H4.788A.666.666,0,0,0,4.4,9.359l2.432,1.735-.955,3.075A.667.667,0,0,0,6.92,14.9l2.465-1.868L11.85,14.9a.667.667,0,0,0,1.042-.727L11.937,11.1l2.432-1.735a.666.666,0,0,0-.388-1.208H11.008Z" transform="translate(-1.89 -1.979)" fill="#ebae20"/>
  </g>
</svg>
