<svg id="Layer_2" data-name="Layer 2" xmlns="http://www.w3.org/2000/svg" width="96" height="96" viewBox="0 0 96 96">
  <g id="ICONS">
    <g id="tax_calculator">
      <rect id="Rectangle_8143" data-name="Rectangle 8143" width="96" height="96" fill="none"/>
      <path id="Path_26816" data-name="Path 26816" d="M51.19,28h-28a6,6,0,1,1,0-12h28a6,6,0,1,1,0,12Zm-28-8a2,2,0,0,0,0,4h28a2,2,0,1,0,0-4Z" fill="#e27e28"/>
      <path id="Path_26817" data-name="Path 26817" d="M47.19,20a2,2,0,0,1-1.25-3.56L57,7.56A2,2,0,0,0,55.79,4H18.6a1.94,1.94,0,0,0-1.89,1.34,1.94,1.94,0,0,0,.64,2.22l11.1,8.88A2,2,0,1,1,26,19.56L14.9,10.69A5.975,5.975,0,0,1,18.6,0H55.79a5.992,5.992,0,0,1,3.75,10.68L48.45,19.56A2,2,0,0,1,47.19,20Z" fill="#e27e28"/>
      <path id="Path_26818" data-name="Path 26818" d="M41.19,96h-18C8,96,1.19,82.94,1.19,70,1.19,51.43,11,32.2,24.5,24.27a2,2,0,0,1,1-.27H48.87a2,2,0,0,1,1,.27A43,43,0,0,1,64.31,39a2,2,0,1,1-3.4,2.1A39.4,39.4,0,0,0,48.32,28H26.07C14,35.42,5.19,53,5.19,70c0,10.15,4.72,22,18,22h18a2,2,0,0,1,0,4Z" fill="#e27e28"/>
      <path id="Path_26819" data-name="Path 26819" d="M93.81,69a1,1,0,0,1,0,2h-1V69Z" fill="#e27e28"/>
      <path id="Path_26820" data-name="Path 26820" d="M71.81,68h21v4h-21Z" fill="#e27e28"/>
      <path id="Path_26821" data-name="Path 26821" d="M71.81,92v1a1,1,0,0,1-2,0V92Z" fill="#e27e28"/>
      <path id="Path_26822" data-name="Path 26822" d="M68.81,71h4V92h-4Z" fill="#e27e28"/>
      <path id="Path_26823" data-name="Path 26823" d="M68.81,68h4v4h-4Z" fill="#e27e28"/>
      <path id="Path_26824" data-name="Path 26824" d="M68.81,48h4V69h-4Z" fill="#e27e28"/>
      <path id="Path_26825" data-name="Path 26825" d="M71.81,47v1h-2V47a1,1,0,0,1,2,0Z" fill="#e27e28"/>
      <path id="Path_26826" data-name="Path 26826" d="M48.81,68h21v4h-21Z" fill="#e27e28"/>
      <path id="Path_26827" data-name="Path 26827" d="M48.81,69v2h-1a1,1,0,1,1,0-2Z" fill="#e27e28"/>
      <rect id="Rectangle_8144" data-name="Rectangle 8144" width="12" height="4" rx="2" transform="translate(75.76 57.04)" fill="#e27e28"/>
      <rect id="Rectangle_8145" data-name="Rectangle 8145" width="12" height="4" rx="2" transform="translate(75.76 75.96)" fill="#e27e28"/>
      <rect id="Rectangle_8146" data-name="Rectangle 8146" width="12" height="4" rx="2" transform="translate(75.76 81.96)" fill="#e27e28"/>
      <rect id="Rectangle_8147" data-name="Rectangle 8147" width="4" height="12" rx="2" transform="translate(57.85 53.04)" fill="#e27e28"/>
      <rect id="Rectangle_8148" data-name="Rectangle 8148" width="12" height="4" rx="2" transform="translate(53.85 57.04)" fill="#e27e28"/>
      <rect id="Rectangle_8149" data-name="Rectangle 8149" width="4" height="12" rx="2" transform="translate(54.191 78.129) rotate(-45)" fill="#e27e28"/>
      <rect id="Rectangle_8150" data-name="Rectangle 8150" width="12" height="4" rx="2" transform="translate(54.191 83.786) rotate(-45)" fill="#e27e28"/>
      <path id="Path_26828" data-name="Path 26828" d="M51.4,94a4.6,4.6,0,0,1-4.59-4.6V50.6A4.6,4.6,0,0,1,51.4,46H90.21a4.61,4.61,0,0,1,4.6,4.6V89.4a4.61,4.61,0,0,1-4.6,4.6Zm-.51-4.09H90.72V50.09H50.89Z" fill="#e27e28"/>
    </g>
  </g>
</svg>
