<svg id="tax_saving_plans" xmlns="http://www.w3.org/2000/svg" width="96" height="96" viewBox="0 0 96 96">
  <g id="ICONS">
    <g id="tax_saving_plan">
      <rect id="Rectangle_8191" data-name="Rectangle 8191" width="96" height="96" fill="none"/>
      <path id="Path_26905" data-name="Path 26905" d="M56.31,28h-28a6,6,0,1,1,0-12h28a6,6,0,0,1,0,12Zm-28-8a2,2,0,1,0,0,4h28a2,2,0,0,0,0-4Z" fill="#e27e28"/>
      <path id="Path_26906" data-name="Path 26906" d="M52.31,20a2,2,0,0,1-1.25-3.56l11.1-8.88A2,2,0,0,0,60.91,4H23.72a1.94,1.94,0,0,0-1.89,1.34,1.94,1.94,0,0,0,.64,2.22l11.1,8.88a2,2,0,1,1-2.5,3.12L20,10.69A5.984,5.984,0,0,1,23.72,0H60.91a5.992,5.992,0,0,1,3.75,10.68L53.57,19.56A2,2,0,0,1,52.31,20Z" fill="#e27e28"/>
      <path id="Path_26907" data-name="Path 26907" d="M64.66,33.2a1.994,1.994,0,0,1-3.4,1.42,1.29,1.29,0,0,1-.16-.17A34.94,34.94,0,0,0,53.44,28H31.19C19.07,35.42,10.31,53,10.31,70c0,10.15,4.72,22,18,22h18a2,2,0,0,1,0,4h-18c-15.19,0-22-13.06-22-26,0-18.57,9.81-37.8,23.31-45.73a2,2,0,0,1,1-.27H54a2,2,0,0,1,1,.27,38.65,38.65,0,0,1,9.06,7.51l.15.16A2,2,0,0,1,64.66,33.2Z" fill="#e27e28"/>
      <path id="Path_26908" data-name="Path 26908" d="M65.7,96a1.91,1.91,0,0,1-.78-.16c-1-.4-23.22-10-23.22-29.69V49.43a2,2,0,0,1,1.36-1.9l22-7.42a2,2,0,0,1,1.27,0l22,7.42a2,2,0,0,1,1.36,1.9V66.15c0,19.67-22.27,29.29-23.22,29.69A1.9,1.9,0,0,1,65.7,96Zm-20-45.13V66.15c0,15.13,16.22,23.83,20,25.65,3.77-1.83,20-10.55,20-25.65V50.87l-20-6.76Z" fill="#e27e28"/>
      <path id="Path_26909" data-name="Path 26909" d="M63.7,76h-.11a2.07,2.07,0,0,1-1.46-.75l-8-10a2,2,0,1,1,3.13-2.5L63.86,71,76.27,58.59a2,2,0,0,1,2.83,2.83l-14,14A2,2,0,0,1,63.7,76Z" fill="#e27e28"/>
    </g>
  </g>
</svg>
