<svg xmlns="http://www.w3.org/2000/svg" width="40" height="40" viewBox="0 0 40 40">
  <g id="Group_18008" data-name="Group 18008" transform="translate(-23.078 -460.078)">
    <circle id="Ellipse_928" data-name="Ellipse 928" cx="20" cy="20" r="20" transform="translate(23.078 460.078)" fill="#fce1ca"/>
    <g id="hourglass" transform="translate(35.27 470.039)">
      <g id="Group_17708" data-name="Group 17708" transform="translate(4.321 3.457)">
        <path id="Path_33337" data-name="Path 33337" d="M11.457,8.753a.432.432,0,0,1-.281-.1L8.754,6.574A2.158,2.158,0,0,1,8,4.933v-.5A.432.432,0,0,1,8.432,4h6.049a.432.432,0,0,1,.432.432v.5a2.156,2.156,0,0,1-.754,1.64L11.737,8.649A.432.432,0,0,1,11.457,8.753ZM8.864,4.864v.069a1.294,1.294,0,0,0,.452.984l2.14,1.835L13.6,5.918a1.293,1.293,0,0,0,.452-.984V4.864Z" transform="translate(-8 -4)" fill="#e27e28"/>
      </g>
      <g id="Group_17709" data-name="Group 17709" transform="translate(4.321 14.259)">
        <path id="Path_33338" data-name="Path 33338" d="M14.481,22.981a.432.432,0,0,1-.432-.432V20.32a1.294,1.294,0,0,0-.452-.984L11.457,17.5l-2.14,1.835a1.293,1.293,0,0,0-.452.984v2.229a.432.432,0,0,1-.864,0V20.32a2.156,2.156,0,0,1,.754-1.64L11.176,16.6a.432.432,0,0,1,.562,0l2.421,2.075a2.155,2.155,0,0,1,.754,1.64v2.229A.432.432,0,0,1,14.481,22.981Z" transform="translate(-8 -16.501)" fill="#e27e28"/>
      </g>
      <g id="Group_17714" data-name="Group 17714" transform="translate(0)">
        <g id="Group_17710" data-name="Group 17710">
          <path id="Path_33339" data-name="Path 33339" d="M18.122.864H3.432a.432.432,0,0,1,0-.864h14.69a.432.432,0,0,1,0,.864Z" transform="translate(-3 0)" fill="#e27e28"/>
        </g>
        <g id="Group_17711" data-name="Group 17711" transform="translate(1.728 0)">
          <path id="Path_33340" data-name="Path 33340" d="M5.432,20.739A.432.432,0,0,1,5,20.307V16.183A4.76,4.76,0,0,1,6.574,12.65l1.462-1.317a1.294,1.294,0,0,0,0-1.925L6.573,8.089A4.763,4.763,0,0,1,5,4.557V.432a.432.432,0,0,1,.864,0V4.557a3.9,3.9,0,0,0,1.287,2.89L8.615,8.763a2.16,2.16,0,0,1,0,3.211L7.152,13.293a3.89,3.89,0,0,0-1.288,2.89v4.125a.432.432,0,0,1-.432.432Z" transform="translate(-5 0)" fill="#e27e28"/>
        </g>
        <g id="Group_17712" data-name="Group 17712" transform="translate(9.497 0)">
          <path id="Path_33341" data-name="Path 33341" d="M17.887,20.739a.432.432,0,0,1-.432-.432V16.183a3.9,3.9,0,0,0-1.287-2.89L14.7,11.976a2.16,2.16,0,0,1,0-3.211l1.462-1.317a3.9,3.9,0,0,0,1.288-2.891V.432a.432.432,0,1,1,.864,0V4.557a4.76,4.76,0,0,1-1.574,3.533L15.284,9.406a1.294,1.294,0,0,0,0,1.925l1.464,1.317a4.769,4.769,0,0,1,1.573,3.534v4.125a.432.432,0,0,1-.432.432Z" transform="translate(-13.99 0)" fill="#e27e28"/>
        </g>
        <g id="Group_17713" data-name="Group 17713" transform="translate(0 19.875)">
          <path id="Path_33342" data-name="Path 33342" d="M18.122,23.864H3.432a.432.432,0,1,1,0-.864h14.69a.432.432,0,0,1,0,.864Z" transform="translate(-3 -23)" fill="#e27e28"/>
        </g>
      </g>
    </g>
  </g>
</svg>
