<svg xmlns="http://www.w3.org/2000/svg" width="360" height="360" viewBox="0 0 360 360">
  <g id="feature_illustration_4" transform="translate(-26.582 -0.193)">
    <g id="Group_15940" data-name="Group 15940" transform="translate(26.582 0)">
      <g id="Rectangle_7877" data-name="Rectangle 7877" transform="translate(0 0.194)" fill="#fff" stroke="#707070" stroke-width="1" opacity="0">
        <rect width="360" height="360" stroke="none"/>
        <rect x="0.5" y="0.5" width="359" height="359" fill="none"/>
      </g>
      <g id="Pie_chart-cuate" data-name="Pie chart-cuate" transform="translate(6 1.194)">
        <g id="freepik--Shadow--inject-131" transform="translate(10.1 314.892)">
          <ellipse id="Ellipse_465" data-name="Ellipse 465" cx="162.317" cy="21.853" rx="162.317" ry="21.853" transform="translate(0)" fill="#ebebeb"/>
        </g>
        <g id="freepik--Floor--inject-131" transform="translate(0 297.995)">
          <path id="Path_24402" data-name="Path 24402" d="M38.37,391.839l43.555-.224,43.547-.072,87.11-.153,87.11.144,43.555.081,43.547.224-43.547.215-43.555.081-87.11.153-87.11-.153-43.547-.081Z" transform="translate(-38.37 -391.39)" fill="#263238"/>
        </g>
        <g id="freepik--Board--inject-131" transform="translate(53.824)">
          <path id="Path_24403" data-name="Path 24403" d="M195.645,406.156H190.68L225.488,266.68H237.86Z" transform="translate(-137.017 -80.652)" fill="#455a64"/>
          <path id="Path_24404" data-name="Path 24404" d="M241.245,266.69,235,287.3H223.72l5.135-20.6.009-.009Z" transform="translate(-140.393 -80.653)" fill="#263238"/>
          <path id="Path_24405" data-name="Path 24405" d="M249.315,398.749H244.35l3.7-132.069h12.372Z" transform="translate(-142.501 -80.652)" fill="#455a64"/>
          <path id="Path_24406" data-name="Path 24406" d="M260.777,266.69,259.044,287.3H247.83l.575-20.6v-.009Z" transform="translate(-142.857 -80.653)" fill="#263238"/>
          <path id="Path_24407" data-name="Path 24407" d="M299.828,406.156h4.965l-27.4-139.476H265.02Z" transform="translate(-144.613 -80.652)" fill="#455a64"/>
          <path id="Path_24408" data-name="Path 24408" d="M281.44,287.3H270.163L265.01,266.69h12.381l.009.009Z" transform="translate(-144.612 -80.653)" fill="#263238"/>
          <rect id="Rectangle_7878" data-name="Rectangle 7878" width="72.23" height="2.72" transform="translate(72.804 265.755)" fill="#455a64"/>
          <rect id="Rectangle_7879" data-name="Rectangle 7879" width="227.373" height="191.011" transform="translate(0 6.716)" fill="#ebebeb"/>
          <rect id="Rectangle_7880" data-name="Rectangle 7880" width="227.373" height="12.363" transform="translate(0)" fill="#37474f"/>
          <rect id="Rectangle_7881" data-name="Rectangle 7881" width="7.874" height="7.874" transform="translate(19.752 126.287)" fill="#00a3b1"/>
          <rect id="Rectangle_7882" data-name="Rectangle 7882" width="7.874" height="7.874" transform="translate(19.752 140.922)" fill="#455a64"/>
          <rect id="Rectangle_7883" data-name="Rectangle 7883" width="7.874" height="7.874" transform="translate(19.752 155.547)" fill="#37474f"/>
          <rect id="Rectangle_7884" data-name="Rectangle 7884" width="7.874" height="7.874" transform="translate(19.752 170.182)" fill="#c7c7c7"/>
          <path id="Path_24409" data-name="Path 24409" d="M7.2-2.341a.9.9,0,0,1,.659.265.843.843,0,0,1,.265.614.8.8,0,0,1-.265.621A.94.94,0,0,1,7.2-.6H2.125a.9.9,0,0,1-.659-.265A.9.9,0,0,1,1.2-1.523v-8.761a.9.9,0,0,1,.265-.659.9.9,0,0,1,.659-.265H7.2a.924.924,0,0,1,.659.25.846.846,0,0,1,.265.644.792.792,0,0,1-.258.614.951.951,0,0,1-.667.235H3.095v2.577H6.52a.924.924,0,0,1,.659.25.846.846,0,0,1,.265.644.792.792,0,0,1-.258.614.951.951,0,0,1-.667.235H3.095v2.8Zm10.989.561a1.02,1.02,0,0,1,.076.364.858.858,0,0,1-.258.644.825.825,0,0,1-.591.25.8.8,0,0,1-.493-.167,1.084,1.084,0,0,1-.341-.455L15.8-2.978H11.28l-.788,1.849a.932.932,0,0,1-.326.447.8.8,0,0,1-.477.159.794.794,0,0,1-.6-.212.8.8,0,0,1-.2-.576A1,1,0,0,1,8.93-1.6L12.7-10.663a1.006,1.006,0,0,1,.364-.47.794.794,0,0,1,.546-.136.888.888,0,0,1,.508.159.9.9,0,0,1,.341.447ZM12.022-4.721h3.031L13.523-8.268ZM27.877-2.084a.893.893,0,0,1,.311.318.808.808,0,0,1,.114.409.783.783,0,0,1-.182.5.856.856,0,0,1-.7.273,1.361,1.361,0,0,1-.667-.167,2.661,2.661,0,0,1-1.091-2.531,1.1,1.1,0,0,0-.356-.864,1.486,1.486,0,0,0-1.023-.318H21.45v2.941a.992.992,0,0,1-.22.667.729.729,0,0,1-.584.258,1.176,1.176,0,0,1-.765-.265.818.818,0,0,1-.326-.659v-8.761a.9.9,0,0,1,.265-.659.9.9,0,0,1,.659-.265h4.365a2.809,2.809,0,0,1,1.485.424,3.132,3.132,0,0,1,1.114,1.167,3.347,3.347,0,0,1,.417,1.667,2.956,2.956,0,0,1-.409,1.478,3.261,3.261,0,0,1-1.061,1.144,2.322,2.322,0,0,1,1.046,1.789,2.548,2.548,0,0,1,.045.47,4.828,4.828,0,0,0,.121.675A.5.5,0,0,0,27.877-2.084ZM24.77-6.025a.755.755,0,0,0,.531-.258,1.956,1.956,0,0,0,.424-.69,2.567,2.567,0,0,0,.167-.932,1.818,1.818,0,0,0-.167-.781,1.6,1.6,0,0,0-.424-.568.828.828,0,0,0-.531-.212H21.45v3.441Zm13.248-5.184a.773.773,0,0,1,.591.243.852.852,0,0,1,.227.606v8.837a.9.9,0,0,1-.265.659.9.9,0,0,1-.659.265,1.31,1.31,0,0,1-.417-.068.589.589,0,0,1-.3-.189L31.636-7.919v6.472a.837.837,0,0,1-.235.606.816.816,0,0,1-.614.243A.773.773,0,0,1,30.2-.841a.852.852,0,0,1-.227-.606v-8.837a.9.9,0,0,1,.265-.659.9.9,0,0,1,.659-.265,1.16,1.16,0,0,1,.447.091.72.72,0,0,1,.326.243l5.517,7.033V-10.36a.837.837,0,0,1,.235-.606A.8.8,0,0,1,38.017-11.208Zm14.763.515a.811.811,0,0,1,.47.773,1.026,1.026,0,0,1-.227.621.749.749,0,0,1-.621.318,1.093,1.093,0,0,1-.515-.136,3.734,3.734,0,0,0-1.607-.349,3.685,3.685,0,0,0-1.849.447A3.032,3.032,0,0,0,47.218-7.76,3.945,3.945,0,0,0,46.794-5.9a3.591,3.591,0,0,0,.962,2.713,3.491,3.491,0,0,0,2.524.925,3.487,3.487,0,0,0,1.607-.349,1.218,1.218,0,0,1,.485-.121.832.832,0,0,1,.667.333.984.984,0,0,1,.227.621.822.822,0,0,1-.121.44.789.789,0,0,1-.349.3,5.551,5.551,0,0,1-2.516.591,5.955,5.955,0,0,1-2.728-.629,4.841,4.841,0,0,1-1.986-1.857A5.637,5.637,0,0,1,44.823-5.9a5.47,5.47,0,0,1,.7-2.774,5,5,0,0,1,1.948-1.917,5.681,5.681,0,0,1,2.8-.69A5.4,5.4,0,0,1,52.781-10.693ZM64.619-5.9a5.753,5.753,0,0,1-.667,2.751A5.108,5.108,0,0,1,62.11-1.174a4.921,4.921,0,0,1-2.645.728,4.921,4.921,0,0,1-2.645-.728,5.052,5.052,0,0,1-1.834-1.978A5.807,5.807,0,0,1,54.327-5.9a5.807,5.807,0,0,1,.659-2.751,5.052,5.052,0,0,1,1.834-1.978,4.921,4.921,0,0,1,2.645-.728,4.921,4.921,0,0,1,2.645.728,5.108,5.108,0,0,1,1.842,1.978A5.753,5.753,0,0,1,64.619-5.9Zm-1.97,0a4.091,4.091,0,0,0-.409-1.842A3.3,3.3,0,0,0,61.1-9.056a2.885,2.885,0,0,0-1.637-.485,2.908,2.908,0,0,0-1.645.477A3.2,3.2,0,0,0,56.7-7.753,4.2,4.2,0,0,0,56.3-5.9a4.2,4.2,0,0,0,.4,1.849,3.2,3.2,0,0,0,1.122,1.311,2.908,2.908,0,0,0,1.645.477A2.885,2.885,0,0,0,61.1-2.751a3.3,3.3,0,0,0,1.137-1.311A4.091,4.091,0,0,0,62.648-5.9Zm12.914-5.32a.928.928,0,0,1,.659.265.871.871,0,0,1,.28.659v8.776a.909.909,0,0,1-.258.659.908.908,0,0,1-.682.265.948.948,0,0,1-.69-.258.889.889,0,0,1-.265-.667V-7.631l-2.5,3.82a1.293,1.293,0,0,1-.349.3.7.7,0,0,1-.409.1.675.675,0,0,1-.394-.1,1.293,1.293,0,0,1-.349-.3l-2.5-3.956v6.245a.934.934,0,0,1-.243.667.834.834,0,0,1-.637.258A.8.8,0,0,1,66.6-.863a.94.94,0,0,1-.243-.659V-10.3a.878.878,0,0,1,.28-.652.933.933,0,0,1,.675-.273,1.009,1.009,0,0,1,.455.114.879.879,0,0,1,.349.3l3.3,5.078,3.4-5.078a.921.921,0,0,1,.326-.3A.849.849,0,0,1,75.562-11.224ZM87.1-1.78a1.02,1.02,0,0,1,.076.364.858.858,0,0,1-.258.644.825.825,0,0,1-.591.25.8.8,0,0,1-.493-.167,1.084,1.084,0,0,1-.341-.455L84.7-2.978H80.186L79.4-1.129a.932.932,0,0,1-.326.447.8.8,0,0,1-.477.159A.794.794,0,0,1,78-.735a.8.8,0,0,1-.2-.576,1,1,0,0,1,.045-.288l3.774-9.064a1.006,1.006,0,0,1,.364-.47.794.794,0,0,1,.546-.136.888.888,0,0,1,.508.159.9.9,0,0,1,.341.447ZM80.928-4.721H83.96L82.429-8.268Zm11.914-6.487a2.618,2.618,0,0,1,1.47.462A3.422,3.422,0,0,1,95.434-9.5,3.512,3.512,0,0,1,95.858-7.8a3.526,3.526,0,0,1-.424,1.7,3.405,3.405,0,0,1-1.122,1.25,2.618,2.618,0,0,1-1.47.462H90.2v2.865a.934.934,0,0,1-.243.667.834.834,0,0,1-.637.258A.8.8,0,0,1,88.7-.863a.94.94,0,0,1-.243-.659v-8.761a.9.9,0,0,1,.265-.659.9.9,0,0,1,.659-.265Zm0,5.093a.869.869,0,0,0,.568-.243,1.788,1.788,0,0,0,.455-.629,1.951,1.951,0,0,0,.174-.811,1.951,1.951,0,0,0-.174-.811,1.712,1.712,0,0,0-.455-.621.884.884,0,0,0-.568-.235H90.2v3.35Zm12.808-5.093a.773.773,0,0,1,.591.243.852.852,0,0,1,.227.606v8.837a.9.9,0,0,1-.265.659.9.9,0,0,1-.659.265,1.31,1.31,0,0,1-.417-.068.589.589,0,0,1-.3-.189L99.269-7.919v6.472a.837.837,0,0,1-.235.606A.816.816,0,0,1,98.42-.6a.773.773,0,0,1-.591-.243.852.852,0,0,1-.227-.606v-8.837a.9.9,0,0,1,.265-.659.9.9,0,0,1,.659-.265,1.16,1.16,0,0,1,.447.091.72.72,0,0,1,.326.243l5.517,7.033V-10.36a.837.837,0,0,1,.235-.606A.8.8,0,0,1,105.65-11.208Zm10.762.894a1.012,1.012,0,0,1-.167.561l-3.168,4.532v3.7a.909.909,0,0,1-.258.659A.835.835,0,0,1,112.2-.6a.877.877,0,0,1-.644-.265.9.9,0,0,1-.265-.659V-5.433l-3.153-4.183a1.192,1.192,0,0,1-.273-.712.833.833,0,0,1,.311-.659,1,1,0,0,1,.659-.265.918.918,0,0,1,.743.424l2.668,3.683,2.5-3.653a.916.916,0,0,1,.758-.455.873.873,0,0,1,.637.273A.907.907,0,0,1,116.412-10.314Zm9.989-.894a2.618,2.618,0,0,1,1.47.462A3.422,3.422,0,0,1,128.992-9.5a3.512,3.512,0,0,1,.424,1.705,3.526,3.526,0,0,1-.424,1.7,3.405,3.405,0,0,1-1.122,1.25,2.618,2.618,0,0,1-1.47.462h-2.637v2.865a.934.934,0,0,1-.243.667.834.834,0,0,1-.637.258.8.8,0,0,1-.621-.265.94.94,0,0,1-.243-.659v-8.761a.9.9,0,0,1,.265-.659.9.9,0,0,1,.659-.265Zm0,5.093a.869.869,0,0,0,.568-.243,1.788,1.788,0,0,0,.455-.629A1.951,1.951,0,0,0,127.6-7.8a1.951,1.951,0,0,0-.174-.811,1.712,1.712,0,0,0-.455-.621.884.884,0,0,0-.568-.235h-2.637v3.35Zm13.081,4.032a.893.893,0,0,1,.311.318.808.808,0,0,1,.114.409.783.783,0,0,1-.182.5.856.856,0,0,1-.7.273,1.361,1.361,0,0,1-.667-.167,2.661,2.661,0,0,1-1.091-2.531,1.1,1.1,0,0,0-.356-.864,1.486,1.486,0,0,0-1.023-.318h-2.834v2.941a.992.992,0,0,1-.22.667.729.729,0,0,1-.584.258,1.176,1.176,0,0,1-.765-.265.818.818,0,0,1-.326-.659v-8.761a.9.9,0,0,1,.265-.659.9.9,0,0,1,.659-.265h4.365a2.809,2.809,0,0,1,1.485.424,3.133,3.133,0,0,1,1.114,1.167,3.347,3.347,0,0,1,.417,1.667,2.956,2.956,0,0,1-.409,1.478A3.261,3.261,0,0,1,138-5.327a2.322,2.322,0,0,1,1.046,1.789,2.549,2.549,0,0,1,.045.47,4.828,4.828,0,0,0,.121.675A.5.5,0,0,0,139.481-2.084Zm-3.107-3.941a.755.755,0,0,0,.531-.258,1.957,1.957,0,0,0,.424-.69A2.567,2.567,0,0,0,137.5-7.9a1.818,1.818,0,0,0-.167-.781,1.6,1.6,0,0,0-.424-.568.828.828,0,0,0-.531-.212h-3.319v3.441Zm14.809.121a5.753,5.753,0,0,1-.667,2.751,5.108,5.108,0,0,1-1.842,1.978,4.921,4.921,0,0,1-2.645.728,4.921,4.921,0,0,1-2.645-.728,5.052,5.052,0,0,1-1.834-1.978,5.807,5.807,0,0,1-.659-2.751,5.807,5.807,0,0,1,.659-2.751,5.052,5.052,0,0,1,1.834-1.978,4.921,4.921,0,0,1,2.645-.728,4.921,4.921,0,0,1,2.645.728,5.107,5.107,0,0,1,1.842,1.978A5.753,5.753,0,0,1,151.183-5.9Zm-1.97,0a4.091,4.091,0,0,0-.409-1.842,3.3,3.3,0,0,0-1.137-1.311,2.885,2.885,0,0,0-1.637-.485,2.908,2.908,0,0,0-1.645.477,3.2,3.2,0,0,0-1.122,1.311,4.2,4.2,0,0,0-.4,1.849,4.2,4.2,0,0,0,.4,1.849,3.2,3.2,0,0,0,1.122,1.311,2.908,2.908,0,0,0,1.645.477,2.885,2.885,0,0,0,1.637-.485A3.3,3.3,0,0,0,148.8-4.062,4.091,4.091,0,0,0,149.213-5.9Zm5.608-3.562V-6.8h3.274a.924.924,0,0,1,.659.25.846.846,0,0,1,.265.644.8.8,0,0,1-.265.591.909.909,0,0,1-.659.258h-3.274v3.532a.871.871,0,0,1-.28.659.928.928,0,0,1-.659.265.948.948,0,0,1-.69-.258.889.889,0,0,1-.265-.667v-8.761a.9.9,0,0,1,.265-.659.9.9,0,0,1,.659-.265h4.926a.924.924,0,0,1,.659.25.846.846,0,0,1,.265.644.8.8,0,0,1-.265.591.909.909,0,0,1-.659.258Zm8.518,7.943a.86.86,0,0,1-.288.659.955.955,0,0,1-.667.265.914.914,0,0,1-.675-.265.9.9,0,0,1-.265-.659v-8.761a.882.882,0,0,1,.273-.659.959.959,0,0,1,.7-.265.9.9,0,0,1,.652.265.882.882,0,0,1,.273.659Zm9.246-9.686a.934.934,0,0,1,.667.243.834.834,0,0,1,.258.637.81.81,0,0,1-.258.629.951.951,0,0,1-.667.235h-2.38v7.943a.86.86,0,0,1-.288.659,1.012,1.012,0,0,1-.712.265.959.959,0,0,1-.7-.265.882.882,0,0,1-.273-.659V-9.465h-2.38a.934.934,0,0,1-.667-.243.834.834,0,0,1-.258-.637.8.8,0,0,1,.265-.621.94.94,0,0,1,.659-.243ZM178.512-.447a6.336,6.336,0,0,1-1.94-.273,4.491,4.491,0,0,1-1.592-.925,1.064,1.064,0,0,1-.409-.8.855.855,0,0,1,.258-.614.835.835,0,0,1,.621-.265.8.8,0,0,1,.515.182,4.462,4.462,0,0,0,1.182.728,3.709,3.709,0,0,0,1.364.227,2.729,2.729,0,0,0,1.463-.379,1.1,1.1,0,0,0,.614-.94,1.205,1.205,0,0,0-.606-1.069,5.138,5.138,0,0,0-1.925-.584q-3.319-.485-3.319-3.092a2.793,2.793,0,0,1,.5-1.66,3.158,3.158,0,0,1,1.364-1.076,4.827,4.827,0,0,1,1.925-.371,5.508,5.508,0,0,1,1.8.288,4.356,4.356,0,0,1,1.4.758,1.011,1.011,0,0,1,.44.8.855.855,0,0,1-.258.614.818.818,0,0,1-.606.265.665.665,0,0,1-.409-.136,4,4,0,0,0-1.1-.584,3.643,3.643,0,0,0-1.266-.265,2.608,2.608,0,0,0-1.478.356,1.083,1.083,0,0,0-.523.932,1.086,1.086,0,0,0,.538.985,5.1,5.1,0,0,0,1.69.546,8.766,8.766,0,0,1,2.084.584,2.66,2.66,0,0,1,1.175.97,2.98,2.98,0,0,1,.394,1.629,2.721,2.721,0,0,1-.538,1.675,3.459,3.459,0,0,1-1.432,1.106A4.8,4.8,0,0,1,178.512-.447Z" transform="translate(22.489 38.584)" fill="#00a3b1"/>
        </g>
        <g id="freepik--pie-chart--inject-131" transform="translate(109.263 64.154)">
          <path id="Path_24410" data-name="Path 24410" d="M312.279,158.18h-4.889l-58.521,19.3h4.889Z" transform="translate(-187.344 -115.009)" fill="#c7c7c7"/>
          <path id="Path_24411" data-name="Path 24411" d="M253.758,181.32H248.87l58.521,19.312h4.889Z" transform="translate(-187.344 -118.845)" fill="#c7c7c7"/>
          <path id="Path_24412" data-name="Path 24412" d="M254.73,106.43V168.9l58.521-19.3C304.85,123.348,281.917,106.43,254.73,106.43Z" transform="translate(-188.315 -106.43)" fill="#37474f"/>
          <path id="Path_24413" data-name="Path 24413" d="M256.533,106.458l-1.793,3.078v-.359l1.593-2.728Zm1.86.075-3.654,8.275v.484l3.862-8.743Zm6.766.751L254.74,124.619v.45l10.678-17.744Zm1.468.267L254.74,133.345v.626l12.138-26.378Zm5.789,7.3L275.654,110l-.292-.108-3.2,4.8-9.535,14.307-7.892,11.838v.526l8.142-12.2Zm3.671-4.705L254.74,148.053v.676l21.64-38.483Zm7.366,3.262L254.74,151.6v.576l29.039-38.591Zm.676.359-29.39,45.6v.726l29.715-46.141Zm6.349,4L254.74,161.25v.651l36.088-43.88Zm.751.551-33.311,49.544.717-.234,32.952-49.035Zm5.547,4.672-37.206,44.33.834-.275,36.706-43.755Zm.617.592-29.2,40.877.642-.209,28.872-40.376c-.117-.083-.208-.192-.317-.275Zm4.872,5.389-31.008,34.5.751-.25,30.5-33.953Zm.768.976-22.332,30.4.559-.184,22-29.89Zm3.9,5.714-21.206,23.033.617-.209L307.1,135.956a2.837,2.837,0,0,0-.158-.3Zm.584.976-15.333,19.921.467-.15,15.016-19.5Zm3.279,6.457-10.6,10.845.517-.175L310.9,143.339Zm.559,1.326-6.349,7.908.392-.134,6.04-7.508a1.509,1.509,0,0,0-.083-.234Z" transform="translate(-188.317 -106.433)" fill="#263238"/>
          <rect id="Rectangle_7885" data-name="Rectangle 7885" width="4.889" height="62.475" transform="translate(61.526 0)" fill="#263238"/>
          <path id="Path_24414" data-name="Path 24414" d="M242.131,181.32h-4.888L178.73,200.632h4.889Z" transform="translate(-175.716 -118.845)" fill="#e27e28"/>
          <path id="Path_24415" data-name="Path 24415" d="M243.1,181.32,184.59,200.632a61.657,61.657,0,0,0,58.5,43.188,60.615,60.615,0,0,0,19.029-3.078c19.387-6.39,33.2-20.422,39.5-40.109Z" transform="translate(-176.688 -118.845)" fill="#00a3b1"/>
          <path id="Path_24416" data-name="Path 24416" d="M183.619,204.47H178.73a61.649,61.649,0,0,0,58.5,43.188h4.889a61.657,61.657,0,0,1-58.5-43.188Z" transform="translate(-175.716 -122.683)" fill="#00a3b1"/>
          <g id="Group_15939" data-name="Group 15939" transform="translate(3.014 81.787)" opacity="0.1">
            <path id="Path_24417" data-name="Path 24417" d="M183.619,204.47H178.73a61.649,61.649,0,0,0,58.5,43.188h4.889a61.657,61.657,0,0,1-58.5-43.188Z" transform="translate(-178.73 -204.47)"/>
          </g>
          <path id="Path_24418" data-name="Path 24418" d="M184.77,204.4h0l-.1.325h0Z" transform="translate(-176.701 -122.671)" opacity="0.1"/>
          <path id="Path_24419" data-name="Path 24419" d="M187.659,199.909,187,206.241a.255.255,0,0,1,0-.067l.634-6.265Zm6.615-2.177-4.772,13.64a.178.178,0,0,1,0,.05l4.839-13.715Zm2.353-.776L193.782,218.3l.067.092,2.845-21.464Zm4.171-1.385-6.04,24.017.058.083,6.107-24.192Zm1.668-.542-3.087,30.032a.667.667,0,0,0,.108.108l3.087-30.14Zm4.947-1.668-7.066,32.668.108.108,7.091-32.793Zm1.21-.4-2.711,37.949.159.117,2.7-38.116Zm-1.81,38.633a1.106,1.106,0,0,0,.158.117l6.574-40.376-.2.075Zm8.134-40.718-.234,45.782.217.117.217-45.966Zm.442,46.141.217.108L220.61,189l-.259.092Zm6.4-48.385-.25.092.743,51.388.284.108Zm1.034,51.722.275.1,3.921-53.507-.309.108Zm5.114-53.707-.309.1,2.052,55.651a2.806,2.806,0,0,1,.342.075Zm2.369,55.893a2.488,2.488,0,0,0,.342.075l3.554-58.062-.375.125Zm7.8,1.118-3.011-59.372-.375.125L237.7,243.73h.8l1.668-61.19-.442.142Zm7.875-.092-4.847-61.273-.434.142,4.889,61.532a2.961,2.961,0,0,0,.384,0h.417l1.051-61.132-.4-.125Zm2.244-60.506-.4-.125,5.965,60.181.35-.058Zm4.4,1.46,1.51,58.537.35-.067-1.527-58.4Zm1.076.35-.35-.117,8.993,56.235.184-.058h.1Zm8.342,45.181-1.36-16.4-2.269-27.221-.275-.092,2.269,27.3,1.36,16.409.684,8.2.217,2.611.284-.1-.209-2.5Zm-2.653-43.3-.292-.092,12.363,50.6.217-.108Zm6.565,2.169,6.232,47.959.217-.108-6.232-47.776Zm1.193.392-.225-.075L278.4,233.177l.159-.108Zm14.6,4.822L286,227.038l.117-.108-4.246-32.768Zm1.41.467h-.117l8.668,26.136.075-.092Zm-9.585-3.17,5.881,41.01a.9.9,0,0,0,.159-.108l-5.881-40.877Zm5.589,15.191-3.879-13.347-.417-1.435-.167-.058.442,1.535,3.879,13.347L285.2,227.78l.108-.092Zm7.942-10.745,5.239,23.95a.831.831,0,0,0,.067-.092L287.19,195.9Zm1.235.409h-.092l7.316,18.787s.042,0,.042-.067Zm3.8,1.251,4.171,16.234V213.7l-4.171-16.151Zm2.1.692h-.05l5.247,9.385h0Zm3.812,1.26,2.252,6.048h0l-2.244-6.006Zm3.554,1.176h0c.117.15.225.3.325.459h0C301.822,200.952,301.722,200.8,301.613,200.66Z" transform="translate(-177.087 -119.006)" opacity="0.1"/>
          <path id="Path_24420" data-name="Path 24420" d="M242.507,106.43c-33.978,0-61.507,28-61.507,62.475a60.19,60.19,0,0,0,3.012,19.312L242.523,168.9Z" transform="translate(-176.092 -106.43)" fill="#455a64"/>
          <path id="Path_24421" data-name="Path 24421" d="M242.505,155.948v.475l-54.275-16.968.2-.4Zm-54.625-15.783,54.625,23.008v-.442L188.072,139.78C188.006,139.905,187.939,140.031,187.881,140.164Zm5.005-8.134a3.661,3.661,0,0,0-.259.367l49.912,17.143v-.425Zm-.734,1.043L242.539,154.9v-.5L192.4,132.715a1.626,1.626,0,0,0-.284.359ZM204.765,119.6l-.259.209,38,14.641v-.284Zm-1.326,1.085,39.1,19.12v-.35L203.7,120.477a3.237,3.237,0,0,0-.292.209Zm-4.922,4.588c-.1.092-.192.192-.275.284l44.3,15.85v-.284Zm-1.193,1.268L242.539,148v-.434l-44.99-21.289Zm25.861-16.951-.225.067,19.563,9.51v-.175Zm-2.736.984,22.073,13.348v-.234l-21.848-13.181Zm-7.933,3.787a2.566,2.566,0,0,0-.259.142l30.266,12.313v-.234ZM210.58,115.5l31.942,16.851v-.284l-31.7-16.684Zm22.974-8.409h-.184l9.135,4.83v-.117Zm-4.1.759,13.014,8.8v-.175l-12.83-8.668a.659.659,0,0,0-.15.042Zm10.119-1.335h-.15l3.045,2.219v-.15Zm-58.4,68.548,24.543,5.973.309-.108-24.868-6.056a.259.259,0,0,1,.083.192Zm-.1-1.31v.2l33.26,4.23.459-.15Zm1.41,9.318,9.569,2.5.225-.075-9.827-2.5a.833.833,0,0,0,.1.075Zm-.167-.726a.715.715,0,0,0,0,.142l14.607,1.435.342-.108ZM181,166.651l38.374,9.886.392-.125L180.99,166.4A2.267,2.267,0,0,0,181,166.651Zm.05-1.051a2.47,2.47,0,0,0,0,.259l49.311,7.066.584-.192Zm10.845-6.59-8.217-2.5-1.393-.425a1.91,1.91,0,0,1-.058.3l1.36.417,8.217,2.5,16.434,5.055,24.9,7.633.459-.159-25.269-7.783Zm-9.519-3.387a1.943,1.943,0,0,1-.067.3l58.971,13.4.609-.2Zm2.211-7.825,57.361,21.289.517-.167-57.753-21.464A2.817,2.817,0,0,0,184.585,147.8Zm.317-.876a3.053,3.053,0,0,0-.125.359l57.728,16.8v-.434Z" transform="translate(-176.091 -106.445)" fill="#37474f"/>
          <path id="Path_24422" data-name="Path 24422" d="M241.532,106.43h-4.888c-33.978,0-61.524,27.971-61.524,62.475a60.189,60.189,0,0,0,3.011,19.312h4.889a60.187,60.187,0,0,1-2.995-19.312C180.025,134.435,207.554,106.43,241.532,106.43Z" transform="translate(-175.117 -106.43)" fill="#37474f"/>
        </g>
        <g id="freepik--Character--inject-131" transform="translate(200.377 81.261)">
          <path id="Path_24423" data-name="Path 24423" d="M407.748,385.83s.834,33.052.834,33.068c0,6.115-.15,11.471-.476,14.232v.042a4.364,4.364,0,0,1-.459,1.885v.042c-1.827,1.226-50.646,2.5-52.364,1.96s-.342-5.464,1.51-7.024,20.338-10.4,20.338-10.4L376.6,386.6Z" transform="translate(-295.969 -169.856)" fill="#f7a9a0"/>
          <path id="Path_24424" data-name="Path 24424" d="M408.642,417.61s-.05,6.54-.05,6.557c0,6.115-.15,11.471-.475,14.232v.042a8.613,8.613,0,0,1-.459,1.885v.042c-1.827,1.226-50.646,2.5-52.364,1.96s-.342-5.464,1.51-7.024,20.338-10.4,20.338-10.4v-6.674Z" transform="translate(-295.97 -175.125)" fill="#fff"/>
          <path id="Path_24425" data-name="Path 24425" d="M377.967,426.333c3.245-.534,7.2.042,9.627,2.4.092.092-.042.225-.142.192a45.635,45.635,0,0,0-9.485-2.186.209.209,0,0,1,0-.409Z" transform="translate(-299.831 -176.541)" fill="#263238"/>
          <path id="Path_24426" data-name="Path 24426" d="M375.147,427.963c3.253-.534,7.2.042,9.627,2.4.092.092-.042.225-.142.192a45.621,45.621,0,0,0-9.485-2.186.209.209,0,0,1,0-.409Z" transform="translate(-299.364 -176.811)" fill="#263238"/>
          <path id="Path_24427" data-name="Path 24427" d="M372.307,429.593c3.254-.542,7.2.042,9.627,2.4.092.092,0,.225-.142.192A45.438,45.438,0,0,0,372.316,430a.209.209,0,0,1-.009-.409Z" transform="translate(-298.894 -177.08)" fill="#263238"/>
          <path id="Path_24428" data-name="Path 24428" d="M355.252,443.578c1.718.534,50.537-.734,52.364-1.96.7-.459.934-7.583.959-16.192v-.275l-31.5.467v.534s-18.47,8.843-20.338,10.4S353.534,443.061,355.252,443.578Z" transform="translate(-295.962 -176.375)" fill="#37474f"/>
          <path id="Path_24429" data-name="Path 24429" d="M408.586,425.15v.275c0,8.609-.267,15.733-.968,16.192-.834.559-11.412,1.126-22.841,1.535-13.681.484-28.589.717-29.523.434-1.719-.534-.334-5.473,1.51-7.032s20.338-10.4,20.338-10.4v-.534l10.5-.158Z" transform="translate(-295.964 -176.375)" fill="#e27e28"/>
          <path id="Path_24430" data-name="Path 24430" d="M355.976,444.775c8.217-.417,41.427-1.318,49.586-1.1.067,0,.067.042,0,.05-8.142.592-41.352,1.218-49.586,1.185C355.818,444.875,355.818,444.775,355.976,444.775Z" transform="translate(-296.194 -179.44)" fill="#263238"/>
          <path id="Path_24431" data-name="Path 24431" d="M387.58,425.52c-.768,5.281-1.944,13.055-2.8,17.694-13.681.484-28.589.717-29.523.434-1.718-.534-.334-5.473,1.51-7.032s20.339-10.4,20.339-10.4v-.534Z" transform="translate(-295.964 -176.436)" opacity="0.1"/>
          <path id="Path_24432" data-name="Path 24432" d="M415.288,393.108l-35.329.334s-2-57.511-2.152-76.7c-.175-21.907,1.068-87.593,1.068-87.593h26.411s7.083,14.482,3.037,30.783L407.2,318.562Z" transform="translate(-299.83 -143.882)" fill="#37474f"/>
          <path id="Path_24433" data-name="Path 24433" d="M413.413,418.171a26.2,26.2,0,0,0-2.811-.225c-1.043-.075-2.086-.15-3.128-.2-2.01-.083-4.021-.117-6.031-.125-4.063,0-8.117,0-12.171.142-2.3.075-4.613.167-6.916.292a.075.075,0,0,0,0,.15c4.021.142,8.05.208,12.071.284s8.042.159,12.054.083c1.16,0,2.311,0,3.462-.1s2.327,0,3.454-.167C413.463,418.3,413.5,418.179,413.413,418.171Z" transform="translate(-300.574 -175.127)" fill="#263238"/>
          <path id="Path_24434" data-name="Path 24434" d="M382.992,356.814c-.409-9.51-.709-19.029-.976-28.547q-.776-28.547-.409-57.111c.133-10.678.417-21.356.734-32.034a.092.092,0,0,0-.184,0c-1.009,19.12-1.4,38.266-1.418,57.411s.375,38.082,1.318,57.1c.526,10.67,1.176,21.348,2.177,31.992a.075.075,0,0,0,.15,0C383.952,376.017,383.409,366.416,382.992,356.814Z" transform="translate(-300.319 -145.52)" fill="#263238"/>
          <path id="Path_24435" data-name="Path 24435" d="M362.2,392.13s-.267,31.942-.267,31.959c0,6.107-.142,11.462-.467,14.232a.093.093,0,0,1,0,.042,4.12,4.12,0,0,1-.459,1.885.083.083,0,0,1,0,.042c-1.819,1.226-50.637,2.5-52.356,1.96s-.35-5.464,1.51-7.024S330.5,424.815,330.5,424.815l.567-31.917Z" transform="translate(-288.238 -170.901)" fill="#f7a9a0"/>
          <path id="Path_24436" data-name="Path 24436" d="M362.024,422.58s-.058,6.54-.058,6.557c0,6.106-.142,11.462-.467,14.232a.1.1,0,0,1,0,.042,8.258,8.258,0,0,1-.459,1.885.083.083,0,0,1,0,.042c-1.819,1.226-50.637,2.5-52.356,1.961s-.35-5.464,1.51-7.024,20.313-10.411,20.313-10.411l-.042-6.674Z" transform="translate(-288.243 -175.949)" fill="#fff"/>
          <path id="Path_24437" data-name="Path 24437" d="M331.358,431.3c3.253-.542,7.2.042,9.627,2.4.092.092,0,.225-.142.192a45.439,45.439,0,0,0-9.477-2.186.208.208,0,0,1-.008-.409Z" transform="translate(-292.105 -177.364)" fill="#263238"/>
          <path id="Path_24438" data-name="Path 24438" d="M328.517,432.962c3.254-.542,7.2,0,9.627,2.4.1.092,0,.225-.142.184a45.944,45.944,0,0,0-9.477-2.177.209.209,0,0,1-.008-.409Z" transform="translate(-291.634 -177.638)" fill="#263238"/>
          <path id="Path_24439" data-name="Path 24439" d="M325.677,434.554c3.253-.534,7.208.05,9.627,2.411.1.092,0,.225-.142.183a45.963,45.963,0,0,0-9.477-2.186.209.209,0,0,1-.008-.409Z" transform="translate(-291.163 -177.904)" fill="#263238"/>
          <path id="Path_24440" data-name="Path 24440" d="M308.632,448.548c1.719.534,50.529-.734,52.356-1.969.7-.451.934-7.575.968-16.192v-.267l-31.5.467v.534s-18.461,8.843-20.33,10.4S306.9,448.022,308.632,448.548Z" transform="translate(-288.233 -177.199)" fill="#e27e28"/>
          <path id="Path_24441" data-name="Path 24441" d="M309.365,449.7c8.225-.417,41.427-1.318,49.594-1.109.058,0,.067.05,0,.058-8.142.584-41.361,1.218-49.594,1.185C309.2,449.837,309.189,449.712,309.365,449.7Z" transform="translate(-288.465 -180.256)" fill="#263238"/>
          <path id="Path_24442" data-name="Path 24442" d="M382.291,262.921s-14.5,45.673-14.757,54.074c-.217,7.158.692,80.594.692,80.594l-36.706.225s3.1-74.9,3.671-82.363c1.068-13.94,13.289-52.23,22.023-86.342h39.55s-.342,17.861-8.467,30.783C388.322,259.884,384.643,261.595,382.291,262.921Z" transform="translate(-292.159 -143.875)" fill="#37474f"/>
          <path id="Path_24443" data-name="Path 24443" d="M366.7,422.964c-4.238-.125-8.634-.25-12.872-.142s-8.417.167-12.622.417c-2.377.142-4.755.217-7.133.459a.067.067,0,0,0,0,.125c4.238.25,8.492.2,12.73.158s8.417-.083,12.622-.275c2.386-.108,4.755-.234,7.133-.392C366.815,423.264,366.956,422.964,366.7,422.964Z" transform="translate(-292.575 -175.982)" fill="#263238"/>
          <path id="Path_24444" data-name="Path 24444" d="M359.658,254.9c-1.31,4.363-14.182,50.337-15.909,59.063s-3.929,65.778-3.771,74.921c0,1.143,0,2.277.083,3.412a.083.083,0,1,0,.167,0c.25-9.1,2.678-68.99,4.238-77.908,1.535-8.759,14.332-54.45,15.458-59.422a.142.142,0,0,0-.267-.067Z" transform="translate(-293.56 -148.138)" fill="#263238"/>
          <path id="Path_24445" data-name="Path 24445" d="M381.488,269.842a32.17,32.17,0,0,0,5.448-.5,52.044,52.044,0,0,0,5.281-1.46,41.632,41.632,0,0,1,5.181-.834,18.25,18.25,0,0,0,5.072-1.518.067.067,0,0,1,.077.035.067.067,0,0,1-.018.082,31.036,31.036,0,0,1-4.864,2.11c-1.735.551-3.554.626-5.322,1.051a43.056,43.056,0,0,1-5.431,1.285,19.484,19.484,0,0,1-5.439-.092C381.4,269.951,381.422,269.842,381.488,269.842Z" transform="translate(-300.433 -149.913)" fill="#263238"/>
          <path id="Path_24446" data-name="Path 24446" d="M378.524,306.8c.35-1.351.676-2.711,1.043-4.054.743-2.728,1.493-5.456,2.319-8.159,1.668-5.372,3.187-10.778,4.913-16.125.984-3.028,1.869-6.1,3.02-9.068a.058.058,0,1,1,.117,0c-.584,2.77-1.4,5.481-2.136,8.217s-1.518,5.448-2.311,8.159c-1.56,5.4-3.095,10.8-4.8,16.159-.484,1.5-.976,2.995-1.493,4.48s-.943,3.095-1.577,4.571a.07.07,0,1,1-.133-.042C377.731,309.566,378.165,308.19,378.524,306.8Z" transform="translate(-299.779 -150.545)" fill="#263238"/>
          <path id="Path_24447" data-name="Path 24447" d="M370.656,174.058C362.147,186.9,346.3,201.8,342.4,199.151c-9.894-6.674-17.977-27.237-19.729-31.859-1.026-2.695,16.918-14.107,18.353-11.4,1.719,3.153,5.364,20.2,6.674,20.68,1.009.359,14.807-7.716,18.2-9.176C374.318,163.755,374.268,168.618,370.656,174.058Z" transform="translate(-290.685 -131.669)" fill="#f7a9a0"/>
          <path id="Path_24448" data-name="Path 24448" d="M363.679,194.241,352,177.482s11.879-7.883,20.1-10.411,8.693,2.636,4.338,9.785S363.679,194.241,363.679,194.241Z" transform="translate(-295.554 -133.483)" fill="#e27e28"/>
          <path id="Path_24449" data-name="Path 24449" d="M361.541,183.959a8.907,8.907,0,0,0-2.311,1.218,8.974,8.974,0,0,0,2.544-.584,9.225,9.225,0,0,0,2.319-1.218A8.97,8.97,0,0,0,361.541,183.959Zm7.3-11a9.214,9.214,0,0,0-1.218-2.319,10.07,10.07,0,0,0,1.8,4.872,8.965,8.965,0,0,0-.6-2.553Zm10.369-3.4a7.59,7.59,0,0,0,1.176.834,4.44,4.44,0,0,0,0-.576,7.52,7.52,0,0,0-1.193-.259Z" transform="translate(-296.753 -134.003)" fill="#fff"/>
          <path id="Path_24450" data-name="Path 24450" d="M356.328,178.188a128.962,128.962,0,0,1,9.777,14.324s-.092.117-.117.083c-2.895-3.746-8.092-11.629-9.819-14.282C356.136,178.263,356.294,178.146,356.328,178.188Z" transform="translate(-296.245 -135.432)" fill="#263238"/>
          <path id="Path_24451" data-name="Path 24451" d="M377.111,176.858c-4.363,7.149-12.78,17.385-12.78,17.385l-8.4-12.079,20.705-15.733C381.015,166.58,380.631,171.077,377.111,176.858Z" transform="translate(-296.206 -133.484)" fill="#263238"/>
          <path id="Path_24452" data-name="Path 24452" d="M344.279,152.059c-3.245-.959-7.558-3.971-10.077-3.879a2.878,2.878,0,0,0-2.753,2.052s-1.618-2.261-3.888-1.8c-1.16.234-1.81,2.311-1.81,2.311a3.446,3.446,0,0,0-3.337-1.226c-1.585.425-1.994,2.436-1.994,2.436s-2.111-1.076-3.587-.125c-2.986,1.927-.793,15.85,4.672,17.193,2.553.626,1.827-2.745,1.827-2.745s2.211,4.6,5.089,4.171,1.669-4.7,1.669-4.7,2.177,4.438,5.122,3.746c3.07-.726,1.126-4.847,1.126-4.847s2.586,2.77,4.722,1.719c3.529-1.735-2.061-6.857-1.819-10.011l4.78-2.5Z" transform="translate(-289.502 -130.459)" fill="#f7a9a0"/>
          <path id="Path_24453" data-name="Path 24453" d="M344.2,149.623c3.153.642,6.248-3.629,9.343-3.454,4.171.242.943,5.431-4.788,7.383l-4.714.726Z" transform="translate(-294.234 -130.125)" fill="#f7a9a0"/>
          <path id="Path_24454" data-name="Path 24454" d="M321.209,153.07h-.067a24.358,24.358,0,0,0,3.112,14.182c.083.133.342.067.275-.1A50.276,50.276,0,0,1,321.209,153.07Z" transform="translate(-290.423 -131.27)" fill="#263238"/>
          <path id="Path_24455" data-name="Path 24455" d="M327.717,151.163c0-.05-.092-.05-.1,0a22.907,22.907,0,0,0,4.371,15.283c.117.158.375.175.25,0C330.186,163.351,328.042,155.709,327.717,151.163Z" transform="translate(-291.501 -130.947)" fill="#263238"/>
          <path id="Path_24456" data-name="Path 24456" d="M339.816,165.365c-3.12-4.338-4.53-9.243-5.256-14.49,0-.067-.108,0-.117,0-.342,2.661.467,5.956,1.318,8.467a14.125,14.125,0,0,0,3.9,6.115C339.741,165.54,339.9,165.465,339.816,165.365Z" transform="translate(-292.63 -130.901)" fill="#263238"/>
          <path id="Path_24457" data-name="Path 24457" d="M372.736,172.386c2.653.35,7.224-4.455,8.651-7.842a52.762,52.762,0,0,0-1.043-5.322,50.492,50.492,0,0,1-.834-5.372l-10.77,3.821a28.446,28.446,0,0,1,1.76,6.674,5.378,5.378,0,0,1,0,.734v.117C370.383,166.572,370.167,172.053,372.736,172.386Z" transform="translate(-298.329 -131.399)" fill="#f7a9a0"/>
          <path id="Path_24458" data-name="Path 24458" d="M370.47,165.077v.125a7.834,7.834,0,0,0,1.143-.058c6.482-.926,7.433-8.384,7.558-11.154l-10.461,3.7a28.253,28.253,0,0,1,1.769,6.674,5.37,5.37,0,0,1-.008.709Z" transform="translate(-298.324 -131.422)" fill="#263238"/>
          <path id="Path_24459" data-name="Path 24459" d="M379.866,137.082c1.351,3.9-.317,15.341-3.02,17.977-3.921,3.821-10.553,4.421-13.856-.342-3.2-4.622-.768-19.5,2.269-21.915C369.747,129.24,377.881,131.334,379.866,137.082Z" transform="translate(-297.126 -127.619)" fill="#f7a9a0"/>
          <path id="Path_24460" data-name="Path 24460" d="M369.973,147s.05,0,.05.075c-.125.767-.133,1.668.534,2.01v.05C369.723,148.919,369.748,147.726,369.973,147Z" transform="translate(-298.511 -130.263)" fill="#263238"/>
          <path id="Path_24461" data-name="Path 24461" d="M370.82,146.15c1.251.067,1.034,2.569-.125,2.5S369.744,146.1,370.82,146.15Z" transform="translate(-298.524 -130.122)" fill="#263238"/>
          <path id="Path_24462" data-name="Path 24462" d="M364.589,146.55a.068.068,0,0,0-.067.058c0,.776-.217,1.668-.943,1.86v.042C364.448,148.469,364.673,147.292,364.589,146.55Z" transform="translate(-297.474 -130.189)" fill="#263238"/>
          <path id="Path_24463" data-name="Path 24463" d="M363.827,145.5c-1.243-.2-1.56,2.294-.409,2.5S364.861,145.673,363.827,145.5Z" transform="translate(-297.329 -130.012)" fill="#263238"/>
          <path id="Path_24464" data-name="Path 24464" d="M371.9,144.511c-.334-.117-.617-.275-.943-.425a1.669,1.669,0,0,1-.876-.617.542.542,0,0,1,.142-.634,1.318,1.318,0,0,1,1.335,0,1.927,1.927,0,0,1,1.043.926.567.567,0,0,1-.7.751Z" transform="translate(-298.544 -129.543)" fill="#263238"/>
          <path id="Path_24465" data-name="Path 24465" d="M362.874,143.572a8.667,8.667,0,0,0,1.018-.175,1.669,1.669,0,0,0,1-.367.526.526,0,0,0,0-.651,1.335,1.335,0,0,0-1.285-.367,1.944,1.944,0,0,0-1.243.642.567.567,0,0,0,.509.918Z" transform="translate(-297.252 -129.43)" fill="#263238"/>
          <path id="Path_24466" data-name="Path 24466" d="M369.957,155.557c-.2.159-.409.392-.692.392a2.094,2.094,0,0,1-.834-.267h0a1.043,1.043,0,0,0,.951.5.834.834,0,0,0,.667-.626A.085.085,0,0,0,369.957,155.557Z" transform="translate(-298.278 -131.68)" fill="#263238"/>
          <path id="Path_24467" data-name="Path 24467" d="M368.639,150.981A2.66,2.66,0,0,1,366.771,152a3.336,3.336,0,0,1-.951,0h-.35a.192.192,0,0,1-.142-.183h0v-.083h0v-.067a10.18,10.18,0,0,1,.175-1.51c-.234.092-1.385.5-1.343.184a40.576,40.576,0,0,1,1.719-7.908.075.075,0,0,1,.142,0c-.267,2.5-.968,4.905-1.276,7.4a4.778,4.778,0,0,1,1.285-.267c.083,0-.3,1.743-.292,2.01h0a3.7,3.7,0,0,0,2.811-.617C368.631,150.864,368.689,150.922,368.639,150.981Z" transform="translate(-297.57 -129.497)" fill="#263238"/>
          <path id="Path_24468" data-name="Path 24468" d="M366.6,153.394a3.12,3.12,0,0,0,1.168,1.076,1.426,1.426,0,0,0,.834.133c.634-.108.693-.676.626-1.176a3.343,3.343,0,0,0-.217-.768,4.079,4.079,0,0,1-2.411.734Z" transform="translate(-297.974 -131.202)" fill="#263238"/>
          <path id="Path_24469" data-name="Path 24469" d="M368,154.623a1.426,1.426,0,0,0,.834.133c.634-.108.692-.676.626-1.176A1.468,1.468,0,0,0,368,154.623Z" transform="translate(-298.207 -131.354)" fill="#ff97b8"/>
          <path id="Path_24470" data-name="Path 24470" d="M380.621,134.09c-.15,1.543-.509,6.3.075,7.375s1.8,3.537,2.5,4c.367-3.162.342-6.215-.234-7.883A8.125,8.125,0,0,0,380.621,134.09Z" transform="translate(-300.258 -128.123)" fill="#263238" opacity="0.2"/>
          <path id="Path_24471" data-name="Path 24471" d="M368.893,137.6a3.812,3.812,0,0,0,3.337,1.668,3.87,3.87,0,0,0,3.237-1.969h.05a3.846,3.846,0,0,1-3.3,2.252,3.921,3.921,0,0,1-3.4-1.927C368.785,137.6,368.86,137.55,368.893,137.6Z" transform="translate(-298.341 -128.655)" fill="#263238"/>
          <path id="Path_24472" data-name="Path 24472" d="M373.947,126.99a6,6,0,0,1,4.688,3.337,4.288,4.288,0,0,1,.1,2.811h-.083a4.672,4.672,0,0,0-1.719-4.455,6.023,6.023,0,0,0-5.231-1.243,3.8,3.8,0,0,0-2.227,1.41c-.05.067-.209,0-.167-.075C370.059,127.448,371.97,126.731,373.947,126.99Z" transform="translate(-298.422 -126.937)" fill="#263238"/>
          <path id="Path_24473" data-name="Path 24473" d="M358.921,130.449a4.862,4.862,0,0,1,2.352-2.361,6.743,6.743,0,0,1,4.438-.058c.042,0,0,.067,0,.058a6.765,6.765,0,0,0-3.821,0,4.73,4.73,0,0,0-2.453,2.06,4.655,4.655,0,0,0,1.26,5.965,4.747,4.747,0,0,0,3.671.834s.075.067,0,.075a4.805,4.805,0,0,1-5.581-3.053A4.88,4.88,0,0,1,358.921,130.449Z" transform="translate(-296.635 -127.06)" fill="#263238"/>
          <path id="Path_24474" data-name="Path 24474" d="M380.127,138.8s2.5-3.7,1.009-6.157c-.834-1.393-4.129-1.577-4.129-1.577a5.948,5.948,0,0,0-3.5-2.911c-2.669-.926-6.1.325-6.1.325a5.463,5.463,0,0,0-5.005-.651c-3.612,1.577-3.746,6.791-.509,8.826,2.277,1.427,5.765-.342,5.765-.342.309.075,3.337,2.361,6.04-.234,0,0,1.785,1.96,3.687.926A2.878,2.878,0,0,0,380.127,138.8Z" transform="translate(-296.811 -127.023)" fill="#263238"/>
          <path id="Path_24475" data-name="Path 24475" d="M380.876,148.909s2.5-3.721,4.171-2.836-.167,6.257-2.111,7.016a1.986,1.986,0,0,1-2.686-1.026Z" transform="translate(-300.237 -130.087)" fill="#f7a9a0"/>
          <path id="Path_24476" data-name="Path 24476" d="M384.754,147.93v.05a5.006,5.006,0,0,0-2.553,3.2,1.11,1.11,0,0,1,1.669-.325v.075a1.226,1.226,0,0,0-1.343.45,6,6,0,0,0-.634,1.1c-.058.125-.284.058-.234-.083h0C381.55,150.608,382.876,148.139,384.754,147.93Z" transform="translate(-300.47 -130.417)" fill="#263238"/>
          <path id="Path_24477" data-name="Path 24477" d="M407.835,227.662c-.108.142-50.888,4.73-51.4,4.255-.709-.684,2.319-51.488,11.387-61.874,2.227-2.553,10.111-5.623,12.705-4.029,6.732,4.171,10.887,13.514,13.548,18.97a165.274,165.274,0,0,1,6.866,18.128C404.815,214.865,408.21,227.136,407.835,227.662Z" transform="translate(-296.272 -133.343)" fill="#e27e28"/>
          <path id="Path_24478" data-name="Path 24478" d="M376.378,183.817a9,9,0,0,0-.768,2.5A9.667,9.667,0,0,0,377,184.1a9.319,9.319,0,0,0,.767-2.5A9.621,9.621,0,0,0,376.378,183.817ZM367.827,217.1a9.277,9.277,0,0,0-.767,2.5,9.017,9.017,0,0,0,1.385-2.227,9.244,9.244,0,0,0,.776-2.5A9.26,9.26,0,0,0,367.827,217.1Zm21.1-1.593a8.965,8.965,0,0,0-.784,2.5,8.619,8.619,0,0,0,1.393-2.219,9.173,9.173,0,0,0,.776-2.5A9.223,9.223,0,0,0,388.925,215.509Zm13.623,6.882a9.3,9.3,0,0,0-2.5-.776,10.127,10.127,0,0,0,4.713,2.169,9.172,9.172,0,0,0-2.211-1.393Zm-34.4-26.32a9.244,9.244,0,0,0-2.5-.776,9.093,9.093,0,0,0,2.219,1.393,9.315,9.315,0,0,0,2.5.767A8.975,8.975,0,0,0,368.144,196.071Zm13.623-25.736a9.059,9.059,0,0,0-2.5-.776,9.178,9.178,0,0,0,2.227,1.393,9.319,9.319,0,0,0,2.5.767A9.117,9.117,0,0,0,381.767,170.336Zm-12.864,2.62a9.951,9.951,0,0,0-.884-1.827l-.234.317a11.084,11.084,0,0,0,.484,1.752,9.312,9.312,0,0,0,1.218,2.311A8.973,8.973,0,0,0,368.9,172.955Zm20.246,20.855a9.438,9.438,0,0,0-1.218-2.311,9.179,9.179,0,0,0,.584,2.544,9.361,9.361,0,0,0,1.218,2.319,9.259,9.259,0,0,0-.584-2.536Zm3.137,35.037a6.6,6.6,0,0,0,.134.993l.475-.042a6.793,6.793,0,0,0-.609-.959Zm-31.358.367a9.357,9.357,0,0,0-1.218-2.319,8.97,8.97,0,0,0,.584,2.553,9.306,9.306,0,0,0,1.218,2.311,9.275,9.275,0,0,0-.584-2.553Zm40.919-24.359-.634.217a9.062,9.062,0,0,0-2.319,1.21,9.261,9.261,0,0,0,2.553-.584q.3-.108.6-.25Zm-23.759,21.356a9.27,9.27,0,0,0-2.311,1.21,10.077,10.077,0,0,0,4.864-1.8,9.043,9.043,0,0,0-2.553.584Zm1.668-20.021a8.9,8.9,0,0,0-2.311,1.218,8.976,8.976,0,0,0,2.544-.584,9.227,9.227,0,0,0,2.319-1.218,8.965,8.965,0,0,0-2.528.584ZM362.922,183.55c-.05.217-.109.425-.158.642a7.414,7.414,0,0,0,1.368-.834,7.168,7.168,0,0,0-1.184.192Zm28.222-4.822A8.225,8.225,0,0,0,389.2,179.8a8.216,8.216,0,0,0,2.261-.484Z" transform="translate(-296.832 -134.003)" fill="#fff"/>
          <path id="Path_24479" data-name="Path 24479" d="M370.9,179.206c-2.061,13.222-6.882,33.144-13.348,37.74-3.287,2.336-24.009,2.419-30.6,1.735-2.8-.292.1-20.947,3.1-20.739,3.337.225,15.375.526,17.6.225,1.276-.167,7.508-13.147,13.556-23.158C368.365,163.256,372.578,168.47,370.9,179.206Z" transform="translate(-291.214 -133.797)" fill="#f7a9a0"/>
          <path id="Path_24480" data-name="Path 24480" d="M324.716,202.738s-7.4-3.445-12.346-5.464c-2.761-1.135-7.667-2.644-10.069-2.544-3.6.142-18.57,3.053-17.944,6.674.567,3.337,13.114-.834,13.114-.834s-13.022,3.053-11.612,6.9,14.966-2.711,14.966-2.711-13.348,3.437-11.229,7.174c1.577,2.82,14.182-2.428,14.182-2.428s-11.42,3.036-9.919,6.006c1.668,3.287,13.589-.834,13.589-.834,5.072,6.916,10.319,8.134,14.182,8.551C322.53,223.359,324.716,202.738,324.716,202.738Z" transform="translate(-284.337 -138.175)" fill="#f7a9a0"/>
          <path id="Path_24481" data-name="Path 24481" d="M302.5,200.15c-1.543.3-3.1.592-4.613,1.034s-3,.934-4.471,1.51a26.294,26.294,0,0,0-5.473,2.795,58.252,58.252,0,0,1,10.077-3.9c1.51-.442,2.995-.951,4.5-1.393C302.556,200.191,302.539,200.141,302.5,200.15Z" transform="translate(-284.934 -139.074)" fill="#263238"/>
          <path id="Path_24482" data-name="Path 24482" d="M304.943,206.65c-1.952.467-3.9.834-5.84,1.427s-4.588,1.427-6.474,2.119c-.142.05-.125.275,0,.234,1.91-.609,4.672-1.376,6.582-1.969s3.8-1.251,5.731-1.768C304.993,206.683,304.977,206.641,304.943,206.65Z" transform="translate(-285.695 -140.152)" fill="#263238"/>
          <path id="Path_24483" data-name="Path 24483" d="M308.4,211.92a44.73,44.73,0,0,0-8.768,2.87c-.133.058,0,.125.117.067,2.895-1,5.164-1.819,8.676-2.836C308.472,211.986,308.463,211.9,308.4,211.92Z" transform="translate(-286.863 -141.025)" fill="#263238"/>
          <path id="Path_24484" data-name="Path 24484" d="M342.09,202.67c1.451-.1,2.9-.142,4.354-.183l2.169-.075,1.076-.05a1.623,1.623,0,0,0,.5-.05h.117l.042-.042a1.513,1.513,0,0,0,.142-.125,12.8,12.8,0,0,0,1.251-1.668c.4-.592.776-1.218,1.168-1.819.776-1.226,1.527-2.5,2.327-3.687-.567,1.343-1.218,2.645-1.91,3.929a19.835,19.835,0,0,1-2.4,3.712,1.034,1.034,0,0,1-.626.342,4.8,4.8,0,0,1-.576.058h-3.279C344.993,202.912,343.542,202.828,342.09,202.67Z" transform="translate(-293.911 -138.216)" fill="#263238"/>
          <path id="Path_24485" data-name="Path 24485" d="M374.643,198.214,356.09,189.7s6.232-12.83,12.021-19.187,8.826-2.144,8.709,6.223S374.643,198.214,374.643,198.214Z" transform="translate(-296.232 -133.652)" fill="#e27e28"/>
          <path id="Path_24486" data-name="Path 24486" d="M361.541,184.333a8.9,8.9,0,0,0-2.311,1.218,8.976,8.976,0,0,0,2.544-.584,9.226,9.226,0,0,0,2.319-1.218A8.966,8.966,0,0,0,361.541,184.333Zm7.3-11a12.25,12.25,0,0,0-.692-1.51c-.117.125-.225.259-.342.392a10.65,10.65,0,0,0,.4,1.36,9.311,9.311,0,0,0,1.218,2.311,8.967,8.967,0,0,0-.6-2.553Zm7.508,10.845a9,9,0,0,0-.767,2.5,9.677,9.677,0,0,0,1.385-2.219v-.067h0c.05-.542.092-1.085.133-1.618a11.693,11.693,0,0,0-.8,1.418Z" transform="translate(-296.753 -134.378)" fill="#fff"/>
          <path id="Path_24487" data-name="Path 24487" d="M359.051,190.64a128.858,128.858,0,0,1,15.7,7.366s0,.142-.058.133c-4.4-1.752-12.889-5.906-15.717-7.316C358.917,190.8,358.992,190.615,359.051,190.64Z" transform="translate(-296.707 -137.497)" fill="#263238"/>
          <path id="Path_24488" data-name="Path 24488" d="M375.54,199.733c.834.267,1.61.584,2.411.834l-.284.159c.3-2.961.651-5.906,1.026-8.851l.576-4.413q.292-2.2.626-4.421.092,2.236,0,4.48c-.083,1.485-.192,2.97-.367,4.455a80.933,80.933,0,0,1-1.435,8.818l-.059.275-.225-.125C377.033,200.567,376.274,200.175,375.54,199.733Z" transform="translate(-299.456 -136.238)" fill="#263238"/>
          <path id="Path_24489" data-name="Path 24489" d="M380.06,190.671a10.762,10.762,0,0,1,.509-2.194,10.578,10.578,0,0,1,.9-2.077,11.282,11.282,0,0,1-.509,2.2A10.8,10.8,0,0,1,380.06,190.671Z" transform="translate(-300.206 -136.795)" fill="#263238"/>
          <path id="Path_24490" data-name="Path 24490" d="M356.1,187.254H355.9l-.175-.042-3.5-.834-.208-.042-1.994-.467-.233-.05-3.162-.734-.259-.067-1.935-.45-.284-.058h0l-3.646-.834-.309-.075-2.186-.509-.342-.075-2.72-.667-.367-.083-2.394-.559-.384-.083-3.337-.768-.342-.083-2.5-.584-.334-.075-2.411-.559-.284-.067-2.753-.642-.275-.067-2.386-.551-.167-.05-3.337-.776-.242-.058-3.529-.834-.192-.05-2.711-.626-.175-.042-3.5-.834h-.15l-2.953-.684h-.133L297,173.556l2.745-1.218.117-.05,3.161-1.41.142-.058,2.711-1.21.159-.067,3.462-1.535.192-.092,2.319-1.026.208-.092,5.1-2.269.25-.108,1.276-.567.267-.117,5.005-2.211.309-.133h0l1.093-.484.325-.142,5.114-2.269h0l.392-.167,1.143-.509.375-.167,5.372-2.386.392-.175.625-.275.367-.167,5.923-2.628.342-.15h0l.542-.234.317-.142,5.89-2.619.208.5h0l.175.417h0l.05.125h0c.075.167.142.334.209.5a64.249,64.249,0,0,1,3.662,13.031h0a3.106,3.106,0,0,0,.092.534h0a56.751,56.751,0,0,1,.642,6.165c0,.4.042.793.05,1.193h0A65.322,65.322,0,0,1,356.1,187.254Z" transform="translate(-286.436 -130.575)" fill="#c7c7c7"/>
          <path id="Path_24491" data-name="Path 24491" d="M300.327,172.324l.367,2.019h-.134l-.35-1.935Zm3.162-1.41.159,4.113h.15l-.167-4.171Zm3.011-1.335-.158.067.959,6.232.175.042Zm3.462-1.535.225,8.5.192.05-.225-8.643Zm2.72-1.21-.208.092,1.435,10.5.242.058Zm4.964,4.655-.092,6.774.234.058.142-6.807.142-7.041-.25.108Zm1.927-7.716-.267.117.834,14.966.275.067Zm3.587,15.792.284.067,1.41-18.2-.309.133Zm2.786-18.628-.05,19.254.334.075.084-19.471Zm5.439-2.411L328.7,180.85l.342.083,2.736-22.582-.392.167Zm1.535-.684-.575,23.859.384.083.567-24.109Zm5.748-2.553-3.545,27.054.367.083,3.57-27.312Zm1.018-.451-1.476,28.222.342.075,1.5-28.464Zm6.29-2.795-5.239,31.6.309.075,5.272-31.826Zm.884-.392-2.169,32.91h0l.284.058,2.2-33.119Zm6.59-1.835-.175-.417-6.365,35.68.259.067,6.257-35.321Zm.05.142-3.17,35.922.234.05,3.145-35.471C353.642,150.293,353.575,150.126,353.5,149.959Zm3.963,14.073a2.852,2.852,0,0,0-.092-.534l-4.78,22.9.208.042,4.663-22.357Zm.642,6.173-1.844,17.051.175.042,1.719-15.85h0C358.147,171,358.13,170.606,358.1,170.205Z" transform="translate(-286.968 -130.661)" fill="#dbdbdb"/>
          <path id="Path_24492" data-name="Path 24492" d="M355.112,192.148h-4.889L291.06,178.4h4.889Z" transform="translate(-285.452 -135.469)" fill="#a6a6a6"/>
          <path id="Path_24493" data-name="Path 24493" d="M295.949,173.491H291.06l55.6-24.7h4.889Z" transform="translate(-285.452 -130.56)" fill="#a6a6a6"/>
        </g>
      </g>
    </g>
  </g>
</svg>
