<svg id="top_up_plans" xmlns="http://www.w3.org/2000/svg" width="96" height="96" viewBox="0 0 96 96">
  <g id="ICONS">
    <g id="top_up_plan">
      <rect id="Rectangle_8192" data-name="Rectangle 8192" width="96" height="96" fill="none"/>
      <path id="Path_26910" data-name="Path 26910" d="M14,88H2a2,2,0,0,1-2-2V50a2,2,0,0,1,2-2c13.6,0,20.79,4.58,21.09,4.78A2,2,0,0,1,23.94,55l-8,31.54A2,2,0,0,1,14,88ZM4,84h8.44l7.24-28.52A40.09,40.09,0,0,0,4,52Z" fill="#e27e28"/>
      <path id="Path_26911" data-name="Path 26911" d="M52,96c-9.43,0-27.69-7.94-37.73-12.67A2.006,2.006,0,0,1,16,79.71C32.55,87.52,45.68,92,52,92c9.73,0,32.66-11.43,39.25-14.83C90.21,75.82,88.07,74,84,74c-3.69,0-8.37,1.48-12.9,2.91C66.29,78.43,61.31,80,57,80c-8.26,0-19.23-4-19.69-4.12a2,2,0,0,1,1.37-3.76C38.79,72.16,49.45,76,57,76c3.69,0,8.37-1.48,12.9-2.91C74.71,71.57,79.69,70,84,70c9.33,0,11.79,7.07,11.9,7.37a2,2,0,0,1-1,2.4C93.7,80.43,64.36,96,52,96Z" fill="#e27e28"/>
      <path id="Path_26912" data-name="Path 26912" d="M66,78.36a2,2,0,0,1-2-2v-2a5.94,5.94,0,0,0-4.58-5.81L20.81,59.22a2,2,0,0,1,.94-3.88l38.6,9.32A9.89,9.89,0,0,1,68,74.36v2A2,2,0,0,1,66,78.36Z" fill="#e27e28"/>
      <path id="Path_26913" data-name="Path 26913" d="M72,56a2,2,0,0,1-.78-.16c-1-.4-23.22-10-23.22-29.7V9.43a2,2,0,0,1,1.36-1.9L71.36.1a2.15,2.15,0,0,1,1.28,0l22,7.43A2,2,0,0,1,96,9.43V26.14c0,19.68-22.27,29.3-23.22,29.7A2,2,0,0,1,72,56ZM52,10.86V26.14C52,41.28,68.22,50,72,51.8,75.78,50,92,41.25,92,26.14V10.86L72,4.11Z" fill="#e27e28"/>
      <path id="Path_26914" data-name="Path 26914" d="M70,36h-.11a2,2,0,0,1-1.45-.75l-8-10a2,2,0,0,1,3.12-2.5L70.16,31,82.58,18.59a2,2,0,1,1,2.83,2.83l-14,14A2,2,0,0,1,70,36Z" fill="#e27e28"/>
    </g>
  </g>
</svg>
