<svg xmlns="http://www.w3.org/2000/svg" width="96" height="96" viewBox="0 0 96 96">
  <g id="travel_insurance" transform="translate(0.023)">
    <g id="ICONS" transform="translate(-0.023)">
      <g id="travel_insurance-2" data-name="travel_insurance">
        <rect id="Rectangle_8193" data-name="Rectangle 8193" width="95.975" height="96" transform="translate(0.023)" fill="none"/>
        <path id="Path_26915" data-name="Path 26915" d="M29.332,96h-.45A6,6,0,0,1,24.5,93.57L16,81.81a4.729,4.729,0,0,0-.95-1L2.459,71.61a5.956,5.956,0,0,1-.74-9.05,6.307,6.307,0,0,1,7-1.31l10.187,4.46L38.76,44.32a2.25,2.25,0,0,0,.61-1.87,2.29,2.29,0,0,0-1.09-1.66L5,23.12a6.271,6.271,0,0,1-1.26-9.91,5.358,5.358,0,0,1,5.049-1.43L57.325,22a2.369,2.369,0,0,0,2.189-.67L76.98,2.87C78.649,1,81.619,0,85.058,0s6.358,1,8.128,2.78,2.849,5,2.789,8.44c-.06,3.33-1.11,6.19-2.869,7.84L78.759,32.61A2.012,2.012,0,0,1,75.98,29.7L90.366,16.15c.94-.89,1.57-2.84,1.61-5,0-2.34-.59-4.52-1.61-5.54S87.3,4,85.058,4s-4.279.62-5.229,1.62L62.4,24.13A6.317,6.317,0,0,1,56.485,26L7.838,15.67a1.409,1.409,0,0,0-1.33.38,2.29,2.29,0,0,0,.41,3.6L40.249,37.31a6.291,6.291,0,0,1,1.44,9.74L20.915,69.47a2,2,0,0,1-2.269.47l-11.517-5a2.309,2.309,0,0,0-2.539.47A2,2,0,0,0,4,67a1.93,1.93,0,0,0,.81,1.41l12.537,9.25a8.679,8.679,0,0,1,1.8,1.79l8.578,11.76a2,2,0,0,0,1.47.79,1.909,1.909,0,0,0,1.51-.57,2.32,2.32,0,0,0,.5-2.56l-5-11.5a2,2,0,0,1,.48-2.26l10-9.32A2,2,0,0,1,39.4,68.72l-9,8.35,4.469,10.22a6.321,6.321,0,0,1-1.36,7A6,6,0,0,1,29.332,96Z" transform="translate(0.023)" fill="#e27e28"/>
        <path id="Path_26916" data-name="Path 26916" d="M72,96a2,2,0,0,1-.78-.16c-1-.4-23.22-10-23.22-29.69V49.42a2,2,0,0,1,1.36-1.89l22-7.43a2,2,0,0,1,1.28,0l22,7.43A2,2,0,0,1,96,49.42V66.14C96,85.8,73.73,95.43,72.78,95.83A2,2,0,0,1,72,96ZM52,50.86V66.14C52,81.27,68.22,90,72,91.79,75.78,90,92,81.24,92,66.14V50.86L72,44.11Z" transform="translate(-0.002)" fill="#e27e28"/>
        <path id="Path_26917" data-name="Path 26917" d="M70,76h-.11a2,2,0,0,1-1.45-.75l-8-10a2,2,0,1,1,3.12-2.5L70.17,71,82.58,58.58a2,2,0,1,1,2.83,2.82l-14,14A2,2,0,0,1,70,76Z" transform="translate(-0.002)" fill="#e27e28"/>
      </g>
    </g>
  </g>
</svg>
