<svg id="twitter" xmlns="http://www.w3.org/2000/svg" width="32" height="32" viewBox="0 0 32 32">
  <circle id="Ellipse_98" data-name="Ellipse 98" cx="16" cy="16" r="16" transform="translate(-0.001 0)" fill="#465a65"/>
  <g id="Group_3373" data-name="Group 3373" transform="translate(7.16 9.705)">
    <path id="Path_595" data-name="Path 595" d="M43.744,35.821a7.631,7.631,0,0,1-2.2.6,3.835,3.835,0,0,0,1.682-2.115,7.656,7.656,0,0,1-2.429.928,3.828,3.828,0,0,0-6.517,3.489,10.856,10.856,0,0,1-7.883-4,3.829,3.829,0,0,0,1.183,5.106,3.8,3.8,0,0,1-1.732-.479c0,.016,0,.033,0,.048a3.827,3.827,0,0,0,3.068,3.75,3.839,3.839,0,0,1-1.727.066,3.829,3.829,0,0,0,3.573,2.656A7.72,7.72,0,0,1,25.1,47.459,10.876,10.876,0,0,0,41.847,38.3c0-.166,0-.331-.011-.495a7.755,7.755,0,0,0,1.909-1.979Z" transform="translate(-25.103 -34.028)" fill="#f1f2f2"/>
  </g>
</svg>
