<svg xmlns="http://www.w3.org/2000/svg" width="96" height="87.998" viewBox="0 0 96 87.998">
  <g id="Group_18745" data-name="Group 18745" transform="translate(-7783 -10147)">
    <g id="beach-chair" transform="translate(7783 10145)">
      <path id="Path_34640" data-name="Path 34640" d="M74.582,42H2a2,2,0,1,1,0-4H74.582a9.936,9.936,0,0,0,8.944-5.528L92.21,15.1a2,2,0,0,1,3.58,1.788L87.106,34.26A13.925,13.925,0,0,1,74.582,42Z" transform="translate(0 35.998)" fill="#e27e28"/>
      <path id="Path_34641" data-name="Path 34641" d="M4,36a1.978,1.978,0,0,1-1.108-.336,2,2,0,0,1-.556-2.772l8-12a2,2,0,1,1,3.328,2.216l-8,12A2,2,0,0,1,4,36Z" transform="translate(6.001 54)" fill="#e27e28"/>
      <path id="Path_34642" data-name="Path 34642" d="M27,36a2,2,0,0,1-1.664-.892l-8-12a2,2,0,1,1,3.328-2.216l8,12a2,2,0,0,1-.556,2.772A1.978,1.978,0,0,1,27,36Z" transform="translate(50.999 53.998)" fill="#e27e28"/>
      <path id="Path_34643" data-name="Path 34643" d="M66,38H2a2,2,0,0,1-2-2,34,34,0,0,1,68,0A2,2,0,0,1,66,38ZM4.068,34H63.934A30,30,0,0,0,4.068,34Z" fill="#e27e28"/>
      <path id="Path_34644" data-name="Path 34644" d="M30,33a2,2,0,0,1-2-2V27a6.007,6.007,0,0,0-6-6H14a2,2,0,1,1,0-4h8A10.011,10.011,0,0,1,32,27v4A2,2,0,0,1,30,33Z" transform="translate(35.999 44.998)" fill="#e27e28"/>
      <path id="Path_34645" data-name="Path 34645" d="M10,54a2,2,0,0,1-2-2V12a2,2,0,0,1,4,0V52A2,2,0,0,1,10,54Z" transform="translate(23.999 23.999)" fill="#e27e28"/>
      <path id="Path_34646" data-name="Path 34646" d="M31,38a2,2,0,0,1-2-2C29,18.832,23.72,6,19,6S9,18.832,9,36a2,2,0,1,1-4,0C5,19.516,9.908,2,19,2S33,19.516,33,36A2,2,0,0,1,31,38Z" transform="translate(14.999)" fill="#e27e28"/>
    </g>
  </g>
</svg>
