<svg id="unfold_more_black_24dp" xmlns="http://www.w3.org/2000/svg" width="17.039" height="17.039" viewBox="0 0 17.039 17.039">
  <path id="Path_12380" data-name="Path 12380" d="M0,0H17.039V17.039H0Z" fill="none"/>
  <path id="Path_12381" data-name="Path 12381" d="M10.79,5.127l1.747,1.747a.708.708,0,1,0,1-1L11.287,3.615a.707.707,0,0,0-1,0L8.035,5.873a.708.708,0,0,0,1,1Zm0,8.761L9.043,12.142a.708.708,0,0,0-1,1L10.293,15.4a.707.707,0,0,0,1,0l2.251-2.251a.708.708,0,1,0-1-1Z" transform="translate(-2.27 -0.988)" fill="#e27e28"/>
</svg>
