<svg id="Layer_2" data-name="Layer 2" xmlns="http://www.w3.org/2000/svg" width="96" height="96" viewBox="0 0 96 96">
  <g id="ICONS">
    <g id="vehicle_health_checkup">
      <rect id="Rectangle_8160" data-name="Rectangle 8160" width="96" height="96" fill="none"/>
      <path id="Path_26844" data-name="Path 26844" d="M78,78.1H10a10,10,0,0,1-10-10v-4a14,14,0,0,1,14-14H55.4a2,2,0,0,1,0,4H14a10,10,0,0,0-10,10v4a6,6,0,0,0,6,6H78a6,6,0,0,0,6-6v-4a9.84,9.84,0,0,0-2.63-6.72,2,2,0,0,1,2.94-2.72A13.88,13.88,0,0,1,88,64.1v4A10,10,0,0,1,78,78.1Z" fill="#e27e28"/>
      <path id="Path_26845" data-name="Path 26845" d="M8,90.1a8,8,0,0,1-8-8v-14a2,2,0,0,1,4,0v14a4,4,0,0,0,8,0v-6a2,2,0,0,1,4,0v6a8,8,0,0,1-8,8Z" fill="#e27e28"/>
      <path id="Path_26846" data-name="Path 26846" d="M80,90.1a8,8,0,0,1-8-8v-6a2,2,0,0,1,4,0v6a4,4,0,0,0,8,0v-14a2,2,0,0,1,4,0v14A8,8,0,0,1,80,90.1Z" fill="#e27e28"/>
      <path id="Path_26847" data-name="Path 26847" d="M10,54.1a1.9,1.9,0,0,1-.77-.16,2,2,0,0,1-1.07-2.61l8-19.08a10,10,0,0,1,9.2-6.15H38.88a2,2,0,0,1,0,4H25.32a6,6,0,0,0-5.51,3.69l-8,19.08A2,2,0,0,1,10,54.1Z" fill="#e27e28"/>
      <path id="Path_26848" data-name="Path 26848" d="M26,66.1H14a2,2,0,1,1,0-4H26a2,2,0,0,1,0,4Z" fill="#e27e28"/>
      <path id="Path_26849" data-name="Path 26849" d="M74,66.1H62a2,2,0,0,1,0-4H74a2,2,0,0,1,0,4Z" fill="#e27e28"/>
      <path id="Path_26850" data-name="Path 26850" d="M70,53.9a2,2,0,0,1-1.2-.4C67.8,52.75,44,34.82,44,20.42a14.52,14.52,0,0,1,26-8.9,14.52,14.52,0,0,1,26,8.9c0,14.4-23.79,32.33-24.8,33.08A2,2,0,0,1,70,53.9ZM58.52,9.9A10.53,10.53,0,0,0,48,20.42c0,9.72,14.89,23.4,22,29,7.1-5.57,22-19.25,22-29a10.52,10.52,0,0,0-20.16-4.21,2.09,2.09,0,0,1-3.67,0A10.51,10.51,0,0,0,58.52,9.9Z" fill="#e27e28"/>
    </g>
  </g>
</svg>
