<svg xmlns="http://www.w3.org/2000/svg" width="576" height="576" viewBox="0 0 576 576">
  <g id="Group_18558" data-name="Group 18558" transform="translate(4736 -6266)">
    <g id="Rectangle_9376" data-name="Rectangle 9376" transform="translate(-4736 6266)" fill="#fff" stroke="#707070" stroke-width="1" opacity="0">
      <rect width="576" height="576" stroke="none"/>
      <rect x="0.5" y="0.5" width="575" height="575" fill="none"/>
    </g>
    <g id="Group_18557" data-name="Group 18557">
      <g id="Group_18556" data-name="Group 18556" transform="translate(-6275 6372)">
        <rect id="Rectangle_8272" data-name="Rectangle 8272" width="574.594" height="574.594" transform="translate(1539 -106)" fill="none"/>
        <g id="Video_upload-cuate" data-name="Video upload-cuate" transform="translate(1540.752 -106)">
          <g id="freepik--Shadow--inject-11" transform="translate(15.199 545.759)">
            <path id="Path_33774" data-name="Path 33774" d="M322.49,464.9c0,7.915-62.393,14.418-139.335,14.418S43.82,472.865,43.82,464.9,106.2,450.48,183.155,450.48,322.49,456.944,322.49,464.9Z" transform="translate(-43.82 -450.48)" fill="#ebebeb"/>
          </g>
          <g id="freepik--Floor--inject-11" transform="translate(0.637 524.588)">
            <path id="Path_33775" data-name="Path 33775" d="M32.78,435.09l71.626-.317,71.64-.119,143.266-.224,143.266.224,71.64.119,71.626.317-71.626.33-71.64.105-143.266.224-143.266-.224-71.64-.119Z" transform="translate(-32.78 -434.43)" fill="#263238"/>
          </g>
          <g id="freepik--Plant--inject-11" transform="translate(441.186 269.287)">
            <path id="Path_33776" data-name="Path 33776" d="M429.44,406.753a375.377,375.377,0,0,0-.541-39.85,507.228,507.228,0,0,0-12.492-81.19c-3.482-15.024-7.769-29.8-12.228-44.546-.145-.448-.857-.33-.725.132C417.265,293.325,428.6,347,427.817,401.068c-.211,15.13-1.965,30-3.4,45.034,0,.4.62.567.712.145C427.923,433.386,428.912,419.9,429.44,406.753Z" transform="translate(-355.057 -240.886)" fill="#00a0ad"/>
            <path id="Path_33777" data-name="Path 33777" d="M407.544,241.2s-20.934,53.12-16.238,65.611,14.325,15.143,14.325,15.143-12.808,18.283-3.852,35.431,28.822,16.33,30.141,35.774C431.934,393.159,433.042,311.877,407.544,241.2Z" transform="translate(-359.147 -240.786)" fill="#00a0ad"/>
            <path id="Path_33778" data-name="Path 33778" d="M426.295,356.93a.41.41,0,0,0,0-.277,486.032,486.032,0,0,0-20.3-106.846c0-.106-.2-.079-.171,0q6.226,23.308,10.988,46.867a23.084,23.084,0,0,0-9.986-5.566c-.066,0-.106.079,0,.105,3.865,1.675,7.585,3.614,10.315,6.9.607,3.073,1.214,6.147,1.781,9.234-4.683-5.276-11.16-7.822-17.649-10.276-.092,0-.145.106,0,.132,6.754,2.757,13.494,6.305,18.072,12.122q2.387,13.191,4.195,26.54a25.221,25.221,0,0,0-12.479-7.149.119.119,0,0,0-.079.224,26.3,26.3,0,0,1,12.663,8.1l.079.066q.607,4.67,1.174,9.366a32.422,32.422,0,0,0-8.745-5.276c-.079,0-.132.105,0,.132a30.336,30.336,0,0,1,8.759,5.8h.106c.356,2.981.7,5.949,1,8.93A42.553,42.553,0,0,0,408.263,343.4c-.132,0-.2.158-.066.211a46.312,46.312,0,0,1,17.491,13.455.4.4,0,0,0,.435.145c.448,4.564.857,9.141,1.187,13.732,0,.066.119.066.105,0C426.994,366.256,426.664,361.56,426.295,356.93Z" transform="translate(-355.776 -238.062)" fill="#263238"/>
            <path id="Path_33779" data-name="Path 33779" d="M410.53,278.027a26.131,26.131,0,0,0-12.571-3.957.079.079,0,1,0,0,.158,49.349,49.349,0,0,1,12.426,4.063.171.171,0,0,0,.145-.264Z" transform="translate(-356.83 -230.298)" fill="#263238"/>
            <path id="Path_33780" data-name="Path 33780" d="M411.706,320.482a26.6,26.6,0,0,0-9.445-3.232c-.119,0-.119.158,0,.185a35.619,35.619,0,0,1,9.339,3.271C411.719,320.772,411.825,320.561,411.706,320.482Z" transform="translate(-355.46 -216.52)" fill="#263238"/>
            <path id="Path_33781" data-name="Path 33781" d="M477.9,291.614a142.472,142.472,0,0,0-24.232,21.171,87.155,87.155,0,0,0-16.977,28.809A215.171,215.171,0,0,0,424.029,410.5a166.964,166.964,0,0,0,3.733,38.742.37.37,0,1,0,.725-.145,217.149,217.149,0,0,1,.383-67.722c3.588-21.976,9.233-45.878,23.2-63.738,7.611-9.722,17.148-17.372,26.461-25.274C479.035,291.944,478.4,291.258,477.9,291.614Z" transform="translate(-348.498 -224.732)" fill="#00a0ad"/>
            <path id="Path_33782" data-name="Path 33782" d="M426.36,394.921a130.825,130.825,0,0,1,17.649-22.57c10.474-10.46,19.285-17.9,20.644-24.825s-10.487-12.017-10.487-12.017,14.51,2.638,18.467-3.482,5.883-41.287,5.883-41.287-26.368,18.81-38.649,45.192S426.36,394.921,426.36,394.921Z" transform="translate(-347.742 -224.979)" fill="#00a0ad"/>
            <path id="Path_33783" data-name="Path 33783" d="M469.431,297.613c-11.08,10.9-22.24,22.5-28.769,36.8a140.348,140.348,0,0,0-5.87,15.2h0c-.343,1.042-.686,2.071-1,3.126a.655.655,0,0,0,0,.171,295.469,295.469,0,0,0-7.479,32.529c0,.066.092.105.105,0,1.134-5.5,2.388-11.041,3.786-16.581a.329.329,0,0,0,.158,0,22.884,22.884,0,0,1,6.912-1.754c.158,0,.145-.29,0-.277a25.771,25.771,0,0,0-6.846,1.24c1.319-4.986,2.638-9.959,4.234-14.866a74.223,74.223,0,0,1,15.631-2.045v-.079a58.913,58.913,0,0,0-15.367,1.319l.831-2.519a79.745,79.745,0,0,1,10.408-1.754c.066,0,0-.119,0-.119a50.942,50.942,0,0,0-10.2,1.24c1.438-4.248,2.994-8.429,4.709-12.5a76.628,76.628,0,0,1,4.973-9.656,61.173,61.173,0,0,1,8.442-1.5c.079,0,.066-.132,0-.145a22.807,22.807,0,0,0-7.914.778q2.071-3.364,4.406-6.6h0c5.91-1.319,11.872-2.519,17.953-1.385a.093.093,0,0,0,0-.185c-5.764-1.517-11.476-.633-17.148.488.62-.831,1.319-1.649,1.913-2.467a39.057,39.057,0,0,1,11.041-1.728.06.06,0,1,0,0-.119,28.559,28.559,0,0,0-10.3.91c4.894-6.068,10.289-11.779,15.618-17.412C469.853,297.508,469.655,297.35,469.431,297.613Z" transform="translate(-347.758 -222.83)" fill="#263238"/>
            <path id="Path_33784" data-name="Path 33784" d="M460.063,315.841a23.982,23.982,0,0,0-5.276-.185c-.211,0-.2.369,0,.369,1.741,0,3.469-.079,5.21,0a.106.106,0,1,0,.066-.185Z" transform="translate(-338.721 -217.05)" fill="#263238"/>
            <path id="Path_33785" data-name="Path 33785" d="M446.336,341.67a23.847,23.847,0,0,0-8.126,1.636v.119c2.638-.646,5.4-.9,8.112-1.319a.218.218,0,1,0,.013-.435Z" transform="translate(-343.961 -208.728)" fill="#263238"/>
            <path id="Path_33786" data-name="Path 33786" d="M440.914,332.73a16.79,16.79,0,0,0-3.443.3c-.119,0-.119.211,0,.211a17.753,17.753,0,0,0,3.456-.158.185.185,0,0,0-.013-.356Z" transform="translate(-344.225 -211.581)" fill="#263238"/>
            <path id="Path_33787" data-name="Path 33787" d="M367.933,319.926a120.045,120.045,0,0,1,24.5,11.542,73.448,73.448,0,0,1,20.406,19.391,181.363,181.363,0,0,1,26.157,52.829,140.228,140.228,0,0,1,5.936,32.212.305.305,0,0,1-.607.066,182.765,182.765,0,0,0-15.974-54.729c-7.915-16.95-18.072-35-33.5-46.168-8.4-6.107-17.847-10.1-27.266-14.339A.441.441,0,0,1,367.933,319.926Z" transform="translate(-366.575 -215.674)" fill="#00a0ad"/>
            <path id="Path_33788" data-name="Path 33788" d="M433.031,391.73a109.9,109.9,0,0,0-19.509-14.18c-10.882-6.055-19.786-10.038-22.424-15.315s5.7-12.162,5.7-12.162-11.12,5.461-15.724,1.451S366.76,319.47,366.76,319.47s25.683,9.128,41.723,27.7S433.031,391.73,433.031,391.73Z" transform="translate(-366.76 -215.811)" fill="#00a0ad"/>
            <path id="Path_33789" data-name="Path 33789" d="M428.933,384.459c-12.848-24.113-29.983-45.917-53.463-60.309h0a118.088,118.088,0,0,1,17.148,13.441,27.345,27.345,0,0,0-13.811,2.928.083.083,0,1,0,.079.145,38.084,38.084,0,0,1,14.193-2.4.329.329,0,0,0,.171,0c.831.792,1.649,1.583,2.467,2.4a43.254,43.254,0,0,0-7.374.976c-.066,0,0,.119,0,.105a37.718,37.718,0,0,1,7.8-.646,162.4,162.4,0,0,1,12.109,13.758,12.372,12.372,0,0,0-5.158.369.106.106,0,0,0,0,.2,27.4,27.4,0,0,1,5.5-.079c.712.9,1.411,1.781,2.111,2.638a49.689,49.689,0,0,0-15.526,1.583c-.079,0,0,.132,0,.119a62.632,62.632,0,0,1,16-1.042c.66.871,1.319,1.767,1.926,2.638a34,34,0,0,0-9.234,1.068c-.106,0-.079.211,0,.185a35.615,35.615,0,0,1,9.6-.752c2.77,3.812,5.408,7.7,7.915,11.634a8.721,8.721,0,0,0-4.076.251c-.066,0,0,.119,0,.106a18.2,18.2,0,0,1,4.406.211q3.43,5.276,6.6,10.777C428.59,385,429.091,384.775,428.933,384.459Z" transform="translate(-363.981 -214.318)" fill="#263238"/>
            <path id="Path_33790" data-name="Path 33790" d="M402.643,354.722a19.549,19.549,0,0,0-7.453.91v.106a58.293,58.293,0,0,1,7.426-.752C402.854,354.973,402.854,354.735,402.643,354.722Z" transform="translate(-357.688 -204.579)" fill="#263238"/>
            <path id="Path_33791" data-name="Path 33791" d="M384.713,332.45a12.574,12.574,0,0,0-3.443.2c-.132,0-.092.211,0,.2,1.134-.119,2.256-.079,3.377-.105C384.9,332.727,384.9,332.463,384.713,332.45Z" transform="translate(-362.157 -211.683)" fill="#263238"/>
            <path id="Path_33792" data-name="Path 33792" d="M456.131,453.079H398.17l8.257-60.533,2.111-15.526h37.211l2.111,15.526Z" transform="translate(-356.737 -197.448)" fill="#455a64"/>
            <path id="Path_33793" data-name="Path 33793" d="M445.863,392.546H404.43l2.111-15.526h37.211Z" transform="translate(-354.74 -197.448)" fill="#263238"/>
            <rect id="Rectangle_9348" data-name="Rectangle 9348" width="47.856" height="13.151" transform="translate(46.485 174.19)" fill="#455a64"/>
          </g>
          <g id="freepik--Device--inject-11" transform="translate(156.749 33.98)">
            <path id="Path_33794" data-name="Path 33794" d="M389.991,62.5H173.08a22.148,22.148,0,0,0-21.95,22.424V531.436a22.161,22.161,0,0,0,21.95,22.345H389.991a22.174,22.174,0,0,0,21.976-22.345V84.859A22.16,22.16,0,0,0,389.991,62.5Zm8.257,455.085c0,11.753-8.8,21.264-19.654,21.264H184.517c-10.882,0-19.681-9.511-19.681-21.264v-415.8c0-23.941,8.8-25.063,19.681-25.063H223.39c2.256,0,4.1,2.638,4.1,5.751V83.79c0,7.453,4.089,7.479,9.1,7.479h89.9c5.052,0,9.1,0,9.1-7.479V82.471c0-3.179,1.82-5.751,4.116-5.751h38.887c10.856,0,19.654,3.179,19.654,25.063Z" transform="translate(-151.129 -62.5)" fill="#37474f"/>
            <path id="Path_33795" data-name="Path 33795" d="M265.589,77.968H241.067a1.517,1.517,0,0,1-1.517-1.517h0A1.517,1.517,0,0,1,241.067,75h24.522a1.5,1.5,0,0,1,1.517,1.5h0a1.5,1.5,0,0,1-1.517,1.464Z" transform="translate(-122.915 -58.511)" fill="#263238"/>
            <path id="Path_33796" data-name="Path 33796" d="M394.932,98.343V514.172c0,11.753-8.8,21.264-19.654,21.264H181.214c-10.882,0-19.694-9.511-19.694-21.264V98.343c0-23.941,8.811-25.063,19.694-25.063h38.86c2.256,0,4.1,2.638,4.1,5.751V80.35c0,7.453,4.089,7.479,9.1,7.479h89.9c5.065,0,9.1,0,9.1-7.479V79.031c0-3.179,1.82-5.751,4.116-5.751h38.887C386.134,73.227,394.932,76.406,394.932,98.343Z" transform="translate(-147.813 -59.06)" fill="#fff"/>
            <path id="Path_33797" data-name="Path 33797" d="M394.948,98.343v51.985H161.47V98.343c0-23.941,8.8-25.063,19.681-25.063h38.887c2.256,0,4.1,2.638,4.1,5.751V80.35c0,7.453,4.076,7.479,9.089,7.479h89.9c5.052,0,9.115,0,9.115-7.479V79.031c0-3.179,1.82-5.751,4.116-5.751h38.86C386.137,73.227,394.948,76.406,394.948,98.343Z" transform="translate(-147.829 -59.06)" fill="#00a0ad"/>
            <path id="Path_33798" data-name="Path 33798" d="M181.1,117.447l-6.9-6.464,6.9-6.464,1.068,1.148-5.672,5.316,5.672,5.316Z" transform="translate(-143.767 -49.092)" fill="#fff"/>
            <path id="Path_33799" data-name="Path 33799" d="M325.408,106.689a1.319,1.319,0,1,1-1.319-1.319A1.319,1.319,0,0,1,325.408,106.689Z" transform="translate(-96.36 -48.821)" fill="#fff"/>
            <path id="Path_33800" data-name="Path 33800" d="M325.408,110.319A1.319,1.319,0,1,1,324.089,109,1.319,1.319,0,0,1,325.408,110.319Z" transform="translate(-96.36 -47.662)" fill="#fff"/>
            <path id="Path_33801" data-name="Path 33801" d="M325.408,114a1.319,1.319,0,1,1-1.319-1.319A1.319,1.319,0,0,1,325.408,114Z" transform="translate(-96.36 -46.488)" fill="#fff"/>
            <g id="freepik--u5Zjqx--inject-11" transform="translate(57.158 21.805)">
              <path id="Path_33802" data-name="Path 33802" d="M202.863,80.732l-.383.383-.211.211a5.1,5.1,0,0,0-7.242,0l-.2-.211c-.132-.119-.251-.251-.369-.369h0l.475-.422a5.526,5.526,0,0,1,1.095-.7,5.619,5.619,0,0,1,1.464-.488,1.765,1.765,0,0,0,.725-.106h1.134a5.276,5.276,0,0,1,1.319.317,5.029,5.029,0,0,1,.9.422,5.433,5.433,0,0,1,.871.607l.4.356Z" transform="translate(-194.46 -79.03)" fill="#fff"/>
              <path id="Path_33803" data-name="Path 33803" d="M195.934,82.105l-.594-.58a4.116,4.116,0,0,1,2.427-1.214,4.221,4.221,0,0,1,3.628,1.2l-.594.594a3.456,3.456,0,0,0-4.867,0Z" transform="translate(-194.179 -78.636)" fill="#fff"/>
              <path id="Path_33804" data-name="Path 33804" d="M199.887,82.289l-.594.594a1.741,1.741,0,0,0-1.24-.514,1.768,1.768,0,0,0-1.253.514l-.58-.594A2.638,2.638,0,0,1,199.887,82.289Z" transform="translate(-193.898 -78.227)" fill="#fff"/>
              <path id="Path_33805" data-name="Path 33805" d="M198.26,83.151a.541.541,0,1,1-.24-.538A.541.541,0,0,1,198.26,83.151Z" transform="translate(-193.59 -77.914)" fill="#fff"/>
            </g>
            <path id="Path_33806" data-name="Path 33806" d="M173.06,81.557a1.557,1.557,0,1,1,1.543,1.557A1.556,1.556,0,0,1,173.06,81.557Z" transform="translate(-144.131 -56.916)" fill="#fff"/>
            <path id="Path_33807" data-name="Path 33807" d="M176.75,81.557a1.556,1.556,0,1,1,1.556,1.557A1.556,1.556,0,0,1,176.75,81.557Z" transform="translate(-142.953 -56.916)" fill="#fff"/>
            <path id="Path_33808" data-name="Path 33808" d="M180.45,81.55a1.543,1.543,0,1,1,.447,1.1A1.543,1.543,0,0,1,180.45,81.55Z" transform="translate(-141.773 -56.91)" fill="#fff"/>
            <path id="Path_33809" data-name="Path 33809" d="M184.14,81.557a1.557,1.557,0,1,1,1.543,1.557A1.557,1.557,0,0,1,184.14,81.557Z" transform="translate(-140.595 -56.916)" fill="#fff"/>
            <path id="Path_33810" data-name="Path 33810" d="M187.83,81.557a1.557,1.557,0,1,1,1.543,1.557A1.557,1.557,0,0,1,187.83,81.557Z" transform="translate(-139.418 -56.916)" fill="#fff"/>
            <path id="Path_33811" data-name="Path 33811" d="M328.251,85.167H315.64V79.31h12.611Zm-11.951-.66h11.291V79.97H316.3Z" transform="translate(-98.635 -57.136)" fill="#fff"/>
            <rect id="Rectangle_9349" data-name="Rectangle 9349" width="8.112" height="3.852" transform="translate(218.06 23.176)" fill="#fff"/>
            <rect id="Rectangle_9350" data-name="Rectangle 9350" width="1.121" height="3.126" transform="translate(229.615 23.546)" fill="#fff"/>
            <path id="Path_33812" data-name="Path 33812" d="M192.293,406.377h-1.781v8.139H187.2v-4.142h-5.87v4.142h-3.311v-8.139H176.24l8.02-8.3Z" transform="translate(-143.116 44.579)" fill="#ebebeb"/>
            <rect id="Rectangle_9351" data-name="Rectangle 9351" width="19.351" height="2.77" transform="translate(208.378 442.659)" fill="#ebebeb"/>
            <rect id="Rectangle_9352" data-name="Rectangle 9352" width="19.351" height="2.77" transform="translate(208.378 449.492)" fill="#ebebeb"/>
            <rect id="Rectangle_9353" data-name="Rectangle 9353" width="19.351" height="2.77" transform="translate(208.378 456.338)" fill="#ebebeb"/>
            <path id="Path_33813" data-name="Path 33813" d="M256.831,403.7l-5.5,5.87-5.5-5.87.963-.91,4.538,4.828,4.538-4.828Z" transform="translate(-120.911 46.082)" fill="#ebebeb"/>
            <path id="Path_33814" data-name="Path 33814" d="M252.419,417.367a10,10,0,1,1,10-10A10,10,0,0,1,252.419,417.367Zm0-18.665a8.68,8.68,0,1,0,8.68,8.666A8.68,8.68,0,0,0,252.419,398.7Z" transform="translate(-121.999 44.353)" fill="#ebebeb"/>
            <path id="Path_33815" data-name="Path 33815" d="M321.428,305.448h-3.3v-1.319h1.979V302.15h1.319Z" transform="translate(-97.841 13.969)" fill="#00a0ad"/>
            <path id="Path_33816" data-name="Path 33816" d="M355.236,304.969h-5.144V303.65h5.144Zm-10.276,0h-5.131V303.65h5.131Zm-10.276,0h-5.131V303.65h5.131Zm-10.262,0H319.3V303.65h5.144Zm-10.276,0h-5.131V303.65h5.131Zm-10.276,0H298.74V303.65h5.131Zm-10.262,0h-5.144V303.65h5.144Zm-10.276,0H278.2V303.65h5.131Zm-10.276,0h-5.131V303.65h5.131Zm-10.263,0H257.65V303.65h5.144Zm-10.276,0h-5.131V303.65h5.131Zm-10.276,0h-5.131V303.65h5.131Zm-10.262,0h-5.144V303.65h5.144Zm-10.276,0h-5.131V303.65h5.118Zm-10.276,0H206.3V303.65h5.131Zm-10.262,0h-5.144V303.65h5.144Zm-10.276,0H185.76V303.65h5.131Z" transform="translate(-140.078 14.448)" fill="#00a0ad"/>
            <path id="Path_33817" data-name="Path 33817" d="M182.668,305.448h-3.3v-3.3h1.319v1.979h1.979Z" transform="translate(-142.117 13.969)" fill="#00a0ad"/>
            <path id="Path_33818" data-name="Path 33818" d="M180.689,330.015H179.37v-5.276h1.319Zm0-10.553H179.37v-5.276h1.319Zm0-10.487H179.37V303.7h1.319Zm0-10.553H179.37v-5.276h1.319Zm0-10.553H179.37v-5.276h1.319Zm0-10.487H179.37v-5.276h1.319Zm0-10.553H179.37v-5.276h1.319Zm0-10.553H179.37V251h1.319Zm0-10.553H179.37v-5.276h1.319Zm0-10.487H179.37v-5.276h1.319Zm0-10.553H179.37v-5.276h1.319Zm0-10.553H179.37v-5.276h1.319Zm0-10.487H179.37V198.37h1.319Z" transform="translate(-142.117 -19.146)" fill="#00a0ad"/>
            <path id="Path_33819" data-name="Path 33819" d="M180.689,195.528H179.37v-3.3h3.3v1.319h-1.979Z" transform="translate(-142.117 -21.105)" fill="#00a0ad"/>
            <path id="Path_33820" data-name="Path 33820" d="M355.236,193.549h-5.144V192.23h5.144Zm-10.276,0h-5.131V192.23h5.131Zm-10.276,0h-5.131V192.23h5.131Zm-10.262,0H319.3V192.23h5.144Zm-10.276,0h-5.131V192.23h5.131Zm-10.276,0H298.74V192.23h5.131Zm-10.262,0h-5.144V192.23h5.144Zm-10.276,0H278.2V192.23h5.131Zm-10.276,0h-5.131V192.23h5.131Zm-10.263,0H257.65V192.23h5.144Zm-10.276,0h-5.131V192.23h5.131Zm-10.276,0h-5.131V192.23h5.131Zm-10.262,0h-5.144V192.23h5.144Zm-10.276,0h-5.131V192.23h5.118Zm-10.276,0H206.3V192.23h5.131Zm-10.262,0h-5.144V192.23h5.144Zm-10.276,0H185.76V192.23h5.131Z" transform="translate(-140.078 -21.105)" fill="#00a0ad"/>
            <path id="Path_33821" data-name="Path 33821" d="M321.428,195.528h-1.319v-1.979H318.13V192.23h3.3Z" transform="translate(-97.841 -21.105)" fill="#00a0ad"/>
            <path id="Path_33822" data-name="Path 33822" d="M320.949,330.015H319.63v-5.276h1.319Zm0-10.553H319.63v-5.276h1.319Zm0-10.487H319.63V303.7h1.319Zm0-10.553H319.63v-5.276h1.319Zm0-10.553H319.63v-5.276h1.319Zm0-10.487H319.63v-5.276h1.319Zm0-10.553H319.63v-5.276h1.319Zm0-10.553H319.63V251h1.319Zm0-10.553H319.63v-5.276h1.319Zm0-10.487H319.63v-5.276h1.319Zm0-10.553H319.63v-5.276h1.319Zm0-10.553H319.63v-5.276h1.319Zm0-10.487H319.63V198.37h1.319Z" transform="translate(-97.362 -19.146)" fill="#00a0ad"/>
            <path id="Path_33823" data-name="Path 33823" d="M197.77,276.694A17.754,17.754,0,0,0,214.2,294.4H314.694a20.855,20.855,0,0,0,1.952-41.63,35.141,35.141,0,0,0-68.1-10.988,20.63,20.63,0,0,0-9.326-2.2A20.842,20.842,0,0,0,218.4,259.137a17.264,17.264,0,0,0-2.876-.237,17.755,17.755,0,0,0-17.755,17.794Z" transform="translate(-136.246 -12.639)" fill="#00a0ad"/>
            <rect id="Rectangle_9354" data-name="Rectangle 9354" width="18.137" height="23.15" transform="translate(121.345 258.66)" fill="#fff"/>
            <path id="Path_33824" data-name="Path 33824" d="M238.4,262.282h30.59L253.7,247.02Z" transform="translate(-123.281 -3.622)" fill="#fff"/>
            <path id="Path_33825" data-name="Path 33825" d="M218.484,115.227a3.654,3.654,0,0,1-3.654-3.667v-4.511a.686.686,0,0,1,.7-.7.7.7,0,0,1,.7.7v4.511a2.269,2.269,0,0,0,4.524,0v-4.511a.7.7,0,0,1,.7-.7.686.686,0,0,1,.7.7v4.511a3.667,3.667,0,0,1-3.667,3.667Z" transform="translate(-130.802 -48.508)" fill="#fff"/>
            <path id="Path_33826" data-name="Path 33826" d="M225.618,111.773h-1.57v2.757a.7.7,0,1,1-1.4,0v-7.479a.7.7,0,0,1,.686-.7h2.282a2.717,2.717,0,1,1,0,5.421Zm-1.57-1.4h1.57a1.319,1.319,0,1,0,0-2.638h-1.57Z" transform="translate(-128.307 -48.51)" fill="#fff"/>
            <path id="Path_33827" data-name="Path 33827" d="M228.25,114.528v-7.479a.7.7,0,0,1,.7-.7.712.712,0,0,1,.712.7V113.8H233.1a.712.712,0,0,1,0,1.411h-4.155a.7.7,0,0,1-.7-.686Z" transform="translate(-126.52 -48.508)" fill="#fff"/>
            <path id="Path_33828" data-name="Path 33828" d="M240.377,107.509a4.656,4.656,0,0,1,0,6.411,4.182,4.182,0,0,1-3.034,1.319,4.287,4.287,0,0,1-3.1-1.319,4.722,4.722,0,0,1,0-6.411,4.182,4.182,0,0,1,3.1-1.319,4.089,4.089,0,0,1,3.034,1.319Zm-.171,3.205a3.271,3.271,0,0,0-.857-2.216,2.7,2.7,0,0,0-4.05,0,3.239,3.239,0,0,0,0,4.419,2.7,2.7,0,0,0,4.05,0,3.245,3.245,0,0,0,.857-2.2Z" transform="translate(-125.008 -48.559)" fill="#fff"/>
            <path id="Path_33829" data-name="Path 33829" d="M245.736,113.118h-3.087l-.62,1.649a.725.725,0,0,1-.66.448.634.634,0,0,1-.237,0,.712.712,0,0,1-.422-.91l2.8-7.479a.712.712,0,0,1,.673-.435.686.686,0,0,1,.673.435l2.81,7.479a.726.726,0,0,1-.422.91.869.869,0,0,1-.884-.449Zm-.528-1.4L244.179,109l-1.029,2.717Z" transform="translate(-122.558 -48.495)" fill="#fff"/>
            <path id="Path_33830" data-name="Path 33830" d="M247.29,114.528v-7.479a.686.686,0,0,1,.7-.7h1.557a4.445,4.445,0,0,1,0,8.877h-1.491a.7.7,0,0,1-.765-.7Zm1.4-.712h.791a3.034,3.034,0,0,0,0-6.055h-.791Z" transform="translate(-120.445 -48.508)" fill="#fff"/>
            <path id="Path_33831" data-name="Path 33831" d="M260.084,115.069h-.092l-.066-.066h0a.4.4,0,0,0,0-.106l-3.113-7.4a.7.7,0,0,1,.383-.91.686.686,0,0,1,.9.369l2.48,5.87,2.467-5.87a.713.713,0,1,1,1.319.541l-3.126,7.4a.393.393,0,0,1,0,.106h0v.066h-.079l-.106.066h-.514l-.105-.079Z" transform="translate(-117.423 -48.456)" fill="#fff"/>
            <path id="Path_33832" data-name="Path 33832" d="M263.89,107.049a.686.686,0,0,1,.7-.7.7.7,0,0,1,.7.7v7.479a.7.7,0,0,1-.7.7.686.686,0,0,1-.7-.7Z" transform="translate(-115.148 -48.508)" fill="#fff"/>
            <path id="Path_33833" data-name="Path 33833" d="M266.75,114.528v-7.479a.686.686,0,0,1,.7-.7h1.5a4.445,4.445,0,0,1,0,8.877h-1.5A.7.7,0,0,1,266.75,114.528Zm1.411-.712h.791a3.034,3.034,0,0,0,0-6.055h-.791Z" transform="translate(-114.235 -48.508)" fill="#fff"/>
            <path id="Path_33834" data-name="Path 33834" d="M273.19,114.528v-7.479a.686.686,0,0,1,.7-.7h4.142a.7.7,0,0,1,.7.7.712.712,0,0,1-.7.712h-3.443v2.322h2.968a.7.7,0,0,1,0,1.4h-2.968V113.8h3.443a.712.712,0,0,1,0,1.411h-4.1a.7.7,0,0,1-.739-.686Z" transform="translate(-112.18 -48.508)" fill="#fff"/>
            <path id="Path_33835" data-name="Path 33835" d="M285.99,107.509a4.656,4.656,0,0,1,0,6.411,4.208,4.208,0,0,1-3.034,1.319,4.34,4.34,0,0,1-3.113-1.319,4.722,4.722,0,0,1,0-6.411,4.234,4.234,0,0,1,3.113-1.319A4.1,4.1,0,0,1,285.99,107.509Zm-.171,3.205a3.271,3.271,0,0,0-.857-2.216,2.722,2.722,0,0,0-4.063,0,3.219,3.219,0,0,0-.857,2.216,3.179,3.179,0,0,0,.857,2.2,2.717,2.717,0,0,0,4.063,0A3.245,3.245,0,0,0,285.819,110.715Z" transform="translate(-110.458 -48.559)" fill="#fff"/>
            <path id="Path_33836" data-name="Path 33836" d="M236.294,325.094a3.034,3.034,0,0,1-3.034-3.047V318.3a.567.567,0,0,1,.58-.58.58.58,0,0,1,.58.58v3.746a1.873,1.873,0,0,0,3.746,0V318.3a.58.58,0,0,1,.594-.58.567.567,0,0,1,.58.58v3.746A3.047,3.047,0,0,1,236.294,325.094Z" transform="translate(-124.922 18.937)" fill="#c7c7c7"/>
            <path id="Path_33837" data-name="Path 33837" d="M239.66,326v-4.023h0V319.89a.554.554,0,0,1,.554-.554.567.567,0,0,1,.58.435,2.638,2.638,0,1,1,1.438,4.815,2.388,2.388,0,0,1-1.411-.435v1.86a.594.594,0,0,1-.607.567.58.58,0,0,1-.554-.58Zm1.161-4.036a1.385,1.385,0,0,0,.409,1.055,1.357,1.357,0,0,0,1.992,0,1.557,1.557,0,0,0,.409-1.055,1.609,1.609,0,0,0-.409-1.055,1.357,1.357,0,0,0-1.992,0,1.438,1.438,0,0,0-.409,1.055Z" transform="translate(-122.879 19.445)" fill="#c7c7c7"/>
            <path id="Path_33838" data-name="Path 33838" d="M245.41,317.72a.58.58,0,0,1,.58.58v6.213a.58.58,0,1,1-1.161,0V318.3A.58.58,0,0,1,245.41,317.72Z" transform="translate(-121.23 18.937)" fill="#c7c7c7"/>
            <path id="Path_33839" data-name="Path 33839" d="M247.3,323.818a2.638,2.638,0,0,1-.725-1.86,2.77,2.77,0,0,1,.725-1.847,2.506,2.506,0,0,1,1.82-.791,2.362,2.362,0,0,1,1.754.791,2.694,2.694,0,0,1,0,3.707,2.361,2.361,0,0,1-1.754.791,2.506,2.506,0,0,1-1.82-.791Zm.422-1.86a1.767,1.767,0,0,0,.383,1.121,1.425,1.425,0,0,0,1.016.383,1.32,1.32,0,0,0,.963-.383,1.649,1.649,0,0,0,.409-1.121,1.583,1.583,0,0,0-.409-1.095,1.5,1.5,0,0,0-.963-.4,1.557,1.557,0,0,0-1.016.4A1.7,1.7,0,0,0,247.718,321.958Z" transform="translate(-120.675 19.448)" fill="#c7c7c7"/>
            <path id="Path_33840" data-name="Path 33840" d="M256.333,321.958v2.071a.554.554,0,0,1-1.095.106,2.493,2.493,0,0,1-1.411.448,2.467,2.467,0,0,1-1.781-.765,2.73,2.73,0,0,1,0-3.707,2.4,2.4,0,0,1,3.192-.33.551.551,0,0,1,1.095.105Zm-1.108,0a1.557,1.557,0,0,0-.409-1.082,1.327,1.327,0,0,0-1.965,0,1.675,1.675,0,0,0,0,2.163,1.319,1.319,0,0,0,.976.409,1.4,1.4,0,0,0,.989-.409,1.557,1.557,0,0,0,.409-1.082Z" transform="translate(-119.159 19.448)" fill="#c7c7c7"/>
            <path id="Path_33841" data-name="Path 33841" d="M261.557,324.53a.567.567,0,0,1-1.121.119A2.63,2.63,0,1,1,259,319.821a2.519,2.519,0,0,1,1.411.435v-1.979a.58.58,0,0,1,.58-.567.567.567,0,0,1,.567.567v4.168h0ZM259,320.981a1.319,1.319,0,0,0-.976.435,1.517,1.517,0,0,0,0,2.1,1.342,1.342,0,0,0,1.979,0,1.543,1.543,0,0,0,0-2.1A1.319,1.319,0,0,0,259,320.981Z" transform="translate(-117.551 18.934)" fill="#c7c7c7"/>
            <path id="Path_33842" data-name="Path 33842" d="M262.648,322.17a.8.8,0,0,1,.791.791.778.778,0,0,1-.791.778.765.765,0,0,1-.778-.778.791.791,0,0,1,.778-.791Z" transform="translate(-115.793 20.357)" fill="#c7c7c7"/>
            <path id="Path_33843" data-name="Path 33843" d="M264.488,322.17a.8.8,0,0,1,.791.791.778.778,0,0,1-.791.778.765.765,0,0,1-.778-.778.791.791,0,0,1,.778-.791Z" transform="translate(-115.205 20.357)" fill="#c7c7c7"/>
            <path id="Path_33844" data-name="Path 33844" d="M266.318,322.17a.8.8,0,0,1,.791.791.791.791,0,0,1-1.57,0A.8.8,0,0,1,266.318,322.17Z" transform="translate(-114.621 20.357)" fill="#c7c7c7"/>
            <rect id="Rectangle_9355" data-name="Rectangle 9355" width="163.844" height="10.342" transform="translate(48.491 351.708)" fill="#ebebeb"/>
            <rect id="Rectangle_9356" data-name="Rectangle 9356" width="53.001" height="6.701" transform="translate(50.483 353.542)" fill="#00a0ad"/>
            <path id="Path_33845" data-name="Path 33845" d="M200.071,330.52h-5.5l-5.171,6.688h5.5Z" transform="translate(-138.917 23.022)" opacity="0.1"/>
            <path id="Path_33846" data-name="Path 33846" d="M208.1,330.52h-5.487l-5.184,6.688h5.487Z" transform="translate(-136.355 23.022)" opacity="0.1"/>
            <path id="Path_33847" data-name="Path 33847" d="M216.141,330.52h-5.5l-5.171,6.688h5.487Z" transform="translate(-133.789 23.022)" opacity="0.1"/>
            <path id="Path_33848" data-name="Path 33848" d="M224.171,330.52h-5.5l-5.171,6.688h5.487Z" transform="translate(-131.227 23.022)" opacity="0.1"/>
            <path id="Path_33849" data-name="Path 33849" d="M232.2,330.52h-5.487l-5.184,6.688h5.487Z" transform="translate(-128.665 23.022)" opacity="0.1"/>
            <path id="Path_33850" data-name="Path 33850" d="M269.783,335.606v-.066l-.053.066Z" transform="translate(-113.284 24.624)" opacity="0.1"/>
          </g>
          <g id="freepik--wifi-icon--inject-11" transform="translate(368.636 137.752)">
            <g id="freepik--u5zjqx--inject-11-2" data-name="freepik--u5zjqx--inject-11">
              <path id="Path_33851" data-name="Path 33851" d="M382.265,155.759l-3.153,3.126-1.781,1.847a42.831,42.831,0,0,0-60.678,0c-.554-.58-1.121-1.187-1.7-1.768-1.029-1.055-2.058-2.084-3.1-3.126h-.092v-.079l.224-.185c1.319-1.187,2.638-2.4,3.957-3.535a46.922,46.922,0,0,1,9.234-5.857,46.365,46.365,0,0,1,12.2-4.1c2.018-.369,4.063-.567,6.094-.818.7-.079,5.2-.092,5.342-.092,1.385.106,2.77.171,4.155.317a47.488,47.488,0,0,1,11.2,2.638,50.019,50.019,0,0,1,7.572,3.535,49.041,49.041,0,0,1,7.229,5.065c1.121.976,2.216,1.992,3.324,2.994Z" transform="translate(-311.76 -141.17)" fill="#00a0ad"/>
              <path id="Path_33852" data-name="Path 33852" d="M324.206,167.207l-4.986-4.947a35.167,35.167,0,0,1,20.288-10.17c11.766-1.6,21.87,1.979,30.444,10.091l-5,4.973a28.769,28.769,0,0,0-40.707,0Z" transform="translate(-309.38 -137.804)" fill="#00a0ad"/>
              <path id="Path_33853" data-name="Path 33853" d="M357.558,168.769l-4.947,4.986a14.695,14.695,0,0,0-20.855,0l-4.947-4.947a21.607,21.607,0,0,1,30.748-.04Z" transform="translate(-306.958 -134.407)" fill="#00a0ad"/>
              <path id="Path_33854" data-name="Path 33854" d="M344.013,175.462a4.472,4.472,0,1,1-4.472-4.472A4.472,4.472,0,0,1,344.013,175.462Z" transform="translate(-304.322 -131.655)" fill="#00a0ad"/>
            </g>
          </g>
          <g id="freepik--Character--inject-11" transform="translate(0 75.236)">
            <path id="Path_33855" data-name="Path 33855" d="M136.687,395.05s-3.957,54.188-3.957,54.215c0,10.619.092,19.918.607,24.733a.146.146,0,0,0,0,.066,7.492,7.492,0,0,0,.765,3.284l.066.066c3.153,2.163,87.93,5.065,90.925,4.168s.673-9.484-2.533-12.228-35.167-18.362-35.167-18.362l3.377-54.162Z" transform="translate(-0.25 2.356)" fill="#f7a9a0"/>
            <path id="Path_33856" data-name="Path 33856" d="M225.145,473.391c-2.994.9-87.772-2.005-90.925-4.168l-.066-.066a7.479,7.479,0,0,1-.765-3.271.172.172,0,0,1,0-.079c-.514-4.815-.66-14.114-.607-24.72,0,0,.673-9.405,1.464-20.367l54.426,2.546L187.459,442.8s31.948,15.631,35.167,18.362S228.139,472.534,225.145,473.391Z" transform="translate(-0.237 10.547)" fill="#ebebeb"/>
            <path id="Path_33857" data-name="Path 33857" d="M225.654,472.378c-3.034.884-89.144-1.5-92.336-3.693-1.214-.831-1.491-29.706.237-44.335l55.454,2.176s-.079,14.879.594,15.222c5.448,2.783,30.629,15.724,33.531,18.217C226.367,462.735,228.7,471.481,225.654,472.378Z" transform="translate(-0.377 11.705)" fill="#00a0ad"/>
            <path id="Path_33858" data-name="Path 33858" d="M223.3,458.831c-14.418-.9-72.616-3.166-86.941-2.968-.106,0-.119.092,0,.092,14.273,1.214,72.55,3.008,86.928,3.113C223.592,459.068,223.6,458.844,223.3,458.831Z" transform="translate(0.881 21.757)" fill="#263238"/>
            <path id="Path_33859" data-name="Path 33859" d="M200.027,448.836a11.607,11.607,0,0,0-8.759,3.192,11.239,11.239,0,0,0-3.509,7.585c0,.079.158.092.171,0a13.389,13.389,0,0,1,12.1-10.553.112.112,0,0,0,0-.224Z" transform="translate(17.309 19.511)" fill="#263238"/>
            <path id="Path_33860" data-name="Path 33860" d="M182.3,438.368c-5.764-.3-12.545,1.477-16.3,6.068-.145.171.106.383.277.3a79.962,79.962,0,0,1,16.106-5.659.369.369,0,0,0-.079-.712Z" transform="translate(10.352 16.168)" fill="#263238"/>
            <path id="Path_33861" data-name="Path 33861" d="M185.634,439.808c-5.764-.3-12.545,1.491-16.3,6.068-.145.185.106.383.277.3A79.842,79.842,0,0,1,185.7,440.52a.358.358,0,0,0-.066-.712Z" transform="translate(11.414 16.627)" fill="#263238"/>
            <path id="Path_33862" data-name="Path 33862" d="M188.954,441.258c-5.778-.3-12.545,1.477-16.3,6.068-.145.171.106.383.277.3a79.576,79.576,0,0,1,16.093-5.659.358.358,0,1,0-.066-.712Z" transform="translate(12.474 17.09)" fill="#263238"/>
            <path id="Path_33863" data-name="Path 33863" d="M192.3,442.7c-5.778-.3-12.545,1.491-16.3,6.068-.158.185.106.383.277.3a79.566,79.566,0,0,1,16.093-5.659.358.358,0,0,0-.066-.712Z" transform="translate(13.538 17.549)" fill="#263238"/>
            <path id="Path_33864" data-name="Path 33864" d="M141.219,428.661c-6.477-.224-6.833,9.84-.343,10.065S147.814,428.885,141.219,428.661Z" transform="translate(0.851 13.08)" fill="#263238"/>
            <path id="Path_33865" data-name="Path 33865" d="M186.976,427.131c-2.823-2.533-6.6-.316-8.495,2.137a26.293,26.293,0,0,0-2.335,3.628,31.407,31.407,0,0,0-3.258,9.405,4.883,4.883,0,0,0-.092.752.185.185,0,0,0,0,.2,5.123,5.123,0,0,0-.106.594.158.158,0,0,0,.2.158.739.739,0,0,0,.554.581.567.567,0,0,0,.448,0c1.161-.739,2.388-1.477,3.6-2.2l.646-.4a31.4,31.4,0,0,0,8.073-6.358C188.11,433.291,189.653,429.519,186.976,427.131Zm-7.532,12.057c-.95.633-1.9,1.24-2.849,1.847s-1.807,1.174-2.638,1.807a2.031,2.031,0,0,0-.29.211l-.317.211.119-.317v-.066c.9-2.242,1.728-4.538,2.8-6.727.185-.435.409-.871.633-1.319a32.435,32.435,0,0,1,2.242-3.812c1.319-1.86,7.189-6.49,7.519-.185C186.831,434.267,181.858,437.5,179.444,439.188Z" transform="translate(12.5 12.235)" fill="#263238"/>
            <path id="Path_33866" data-name="Path 33866" d="M178.862,441.255c.079-.079.106-.171,0-.251a3.657,3.657,0,0,0-.33-.317l-.119-.119h0l-.567-.514a30.471,30.471,0,0,0-12.637-6.6c-3.008-.712-7.334,0-7.915,3.694s3.008,5.5,5.936,6.055a28.555,28.555,0,0,0,8.93,0c2.1-.264,4.195-.607,6.226-.844h0a.712.712,0,0,0,.475-1.108Zm-8.192.369c-2.9.277-8.8.9-10.856-1.9-3.707-5.118,3.733-5.276,5.936-4.63a32.333,32.333,0,0,1,4.168,1.543,79.732,79.732,0,0,1,7.783,4.116h0l.277.158a1.2,1.2,0,0,0-.3,0H176.8C174.773,441.163,172.755,441.427,170.671,441.625Z" transform="translate(7.568 14.533)" fill="#263238"/>
            <path id="Path_33867" data-name="Path 33867" d="M134.168,484.011l60.678,2.493s2.8-84.633,1.451-120.235c-1.464-38.676-18.072-153.74-18.072-153.74H128.1s12.808,115.512,13.085,154.2C141.37,402.6,134.168,484.011,134.168,484.011Z" transform="translate(-1.728 -55.884)" fill="#37474f"/>
            <path id="Path_33868" data-name="Path 33868" d="M168.322,212.53l-30.1,104.208c-3.562-49.294-10.17-104.208-10.17-104.208Z" transform="translate(-1.744 -55.884)" fill="#263238"/>
            <path id="Path_33869" data-name="Path 33869" d="M135.26,216.83l3.192,34.3,2.942,34.362c1.886,22.926,3.68,45.851,5.039,68.817.343,5.751.541,11.516.462,17.28s-.356,11.516-.646,17.254q-.9,17.254-2.216,34.441c-.871,11.463-4.076,45.232-4.076,45.232s2.322-33.835,3.074-45.3,1.5-22.952,2.031-34.428c.277-5.738.488-11.476.58-17.214s-.158-11.45-.5-17.148c-1.253-22.952-3.073-45.878-4.736-68.817Z" transform="translate(0.557 -54.512)" fill="#263238"/>
            <path id="Path_33870" data-name="Path 33870" d="M190.381,412.242c-9.234-.633-6.6-.58-15.829-1.108-4.525-.251-34.3-1.913-38.544-1.411-.092,0-.106.171,0,.185,4.195.9,33.966,2.045,38.5,2.216,9.234.343,6.6.145,15.829.383a.133.133,0,0,0,.04-.264Z" transform="translate(0.772 7.008)" fill="#263238"/>
            <path id="Path_33871" data-name="Path 33871" d="M72.155,371.76l-27.7,46.8c-4.775,9.471-8.8,17.861-10.474,22.425v.079a7.256,7.256,0,0,0-.778,3.271.105.105,0,0,0,0,.092c1.847,3.337,76.507,43.715,79.528,44.242s4.841-8.191,3.192-12.07-23.308-32.12-23.308-32.12l27.16-46.973Z" transform="translate(-32.012 -5.076)" fill="#f7a9a0"/>
            <path id="Path_33872" data-name="Path 33872" d="M112.782,481.583c-3.087-.528-77.681-40.892-79.541-44.242a.185.185,0,0,1,0-.092,7.387,7.387,0,0,1,.765-3.271.184.184,0,0,1,0-.079c1.688-4.538,5.7-12.927,10.474-22.424L54.861,393.89l47.593,26.527-9.788,16.95s21.633,28.228,23.3,32.107S115.856,482.124,112.782,481.583Z" transform="translate(-31.998 1.986)" fill="#ebebeb"/>
            <path id="Path_33873" data-name="Path 33873" d="M113.359,480.916c-3.126-.554-79.145-41.063-81.032-44.453C31.6,435.143,44.2,409.21,52.285,396.89l48.688,26.659s-6.7,13.27-6.252,13.877c3.641,4.92,20.419,27.7,21.91,31.249C118.279,472.606,116.472,481.457,113.359,480.916Z" transform="translate(-32.297 2.943)" fill="#00a0ad"/>
            <path id="Path_33874" data-name="Path 33874" d="M112.7,467.863c-12.492-7.229-63.593-35.193-76.507-41.393-.106,0-.145,0,0,.079,12.241,7.44,63.567,35,76.507,41.525C112.858,468.206,112.964,468.061,112.7,467.863Z" transform="translate(-31.084 12.382)" fill="#263238"/>
            <path id="Path_33875" data-name="Path 33875" d="M97.48,447.606a11.635,11.635,0,0,0-9.234-1.042,11.278,11.278,0,0,0-6.516,5.276c0,.079.092.158.145.079a13.389,13.389,0,0,1,15.552-4.089.115.115,0,1,0,.053-.224Z" transform="translate(-16.524 18.629)" fill="#263238"/>
            <path id="Path_33876" data-name="Path 33876" d="M85.789,430.263C80.764,427.427,73.917,426,68.5,428.429c-.211.092-.079.4.119.4A79.659,79.659,0,0,1,85.539,430.9a.356.356,0,0,0,.251-.633Z" transform="translate(-20.781 12.612)" fill="#263238"/>
            <path id="Path_33877" data-name="Path 33877" d="M88.128,433.044c-5.026-2.849-11.872-4.261-17.306-1.834-.211.092,0,.383.119.4a79.671,79.671,0,0,1,16.937,2.1.356.356,0,0,0,.251-.66Z" transform="translate(-20.033 13.498)" fill="#263238"/>
            <path id="Path_33878" data-name="Path 33878" d="M90.472,435.813c-5.039-2.836-11.872-4.261-17.306-1.834-.211.106-.079.4.119.4a80.458,80.458,0,0,1,16.924,2.111.369.369,0,0,0,.264-.673Z" transform="translate(-19.291 14.383)" fill="#263238"/>
            <path id="Path_33879" data-name="Path 33879" d="M92.8,438.593c-5.026-2.836-11.872-4.261-17.306-1.834-.2.092,0,.4.132.4a79.659,79.659,0,0,1,16.924,2.111.359.359,0,1,0,.251-.673Z" transform="translate(-18.542 15.27)" fill="#263238"/>
            <path id="Path_33880" data-name="Path 33880" d="M53.4,403.926c-5.7-3.087-10.553,5.764-4.8,8.851S59.108,407.012,53.4,403.926Z" transform="translate(-27.921 4.983)" fill="#263238"/>
            <path id="Path_33881" data-name="Path 33881" d="M96.228,422.211c-1.4-3.535-5.764-3.219-8.548-1.873a27.227,27.227,0,0,0-3.759,2.216,31.026,31.026,0,0,0-7.11,6.965,4.68,4.68,0,0,0-.422.62.224.224,0,0,0-.106.171,3.825,3.825,0,0,0-.277.435.145.145,0,0,0,.092.224.752.752,0,0,0,.251.765.514.514,0,0,0,.422.145c1.319-.145,2.8-.264,4.208-.369h.752a32.014,32.014,0,0,0,10.1-2.084C94.473,428.226,97.573,425.535,96.228,422.211Zm-12.083,7.374-3.364.4c-1.082.119-2.15.237-3.205.422a1.67,1.67,0,0,0-.356,0h-.383a2.148,2.148,0,0,0,.251-.237h0c1.807-1.609,3.562-3.3,5.5-4.775.356-.317.752-.607,1.148-.9a33.631,33.631,0,0,1,3.707-2.414c2.018-1.055,9.326-2.638,6.807,3.192C92.917,428.543,87.034,429.215,84.145,429.585Z" transform="translate(-18.358 10.124)" fill="#263238"/>
            <path id="Path_33882" data-name="Path 33882" d="M81.354,431.948c.106,0,.158-.105.132-.211l-.158-.435v-.158a.106.106,0,0,0,0-.066l-.277-.712A30.523,30.523,0,0,0,72.688,418.8c-2.374-1.979-6.6-3.311-8.746-.224s.251,6.266,2.638,8.06a28.641,28.641,0,0,0,8.007,3.957c1.992.7,3.957,1.319,5.949,2h0a.712.712,0,0,0,.818-.646Zm-7.506-3.324c-2.731-1.055-8.284-3.113-8.877-6.6-1.029-6.226,5.685-3.021,7.387-1.491a33.556,33.556,0,0,1,3.034,3.232,81.339,81.339,0,0,1,5.144,7.163h0a2.02,2.02,0,0,0,.185.277l-.29-.106a8.683,8.683,0,0,0-.8-.343C77.727,430.049,75.788,429.376,73.849,428.624Z" transform="translate(-22.467 9.278)" fill="#263238"/>
            <path id="Path_33883" data-name="Path 33883" d="M198.016,212.49h0c-.224,1.029-3.72,17.293-7.36,31.262-2.638,10.2-5.355,19.166-6.912,20.1-1.768,1.042-10.381,4.854-13.257,6.055,0,0-19.364,96.623-29.574,126.632-9.431,27.7-36.077,80.464-36.077,80.464L49.79,446.641s30.26-52.1,34.9-65.572c7.2-20.855,34.2-122.675,34.2-122.675s-.211-31.882,10.553-45.812Z" transform="translate(-26.716 -55.897)" fill="#37474f"/>
            <path id="Path_33884" data-name="Path 33884" d="M104.974,409.661c-8.086-4.524-5.672-3.285-13.837-7.769-3.957-2.163-30.181-16.383-34.3-17.742-.092,0-.171.105-.092.158,3.416,2.638,29.838,16.37,33.861,18.467,8.231,4.274,5.91,2.955,14.18,7.136a.156.156,0,0,0,.185-.251Z" transform="translate(-24.506 -1.122)" fill="#263238"/>
            <path id="Path_33885" data-name="Path 33885" d="M113.228,245.392c1.557-.4,3.205-.528,4.788-.778,1.319-.2,2.559-.422,3.812-.7a16.648,16.648,0,0,0,6.727-2.836c2.19-1.7,3.311-4.287,4.366-6.78.633-1.477,1.319-2.942,1.939-4.406.317-.7.633-1.411.963-2.111a26.54,26.54,0,0,0,1.2-2.559c0-.119.237,0,.185,0a16.37,16.37,0,0,0-.541,1.834c-.211.712-.409,1.425-.633,2.137-.4,1.319-.778,2.533-1.187,3.8a30.167,30.167,0,0,1-2.7,6.6c-2.335,3.72-6.516,5.276-10.7,5.751-1.187.145-2.4.237-3.6.3a26.38,26.38,0,0,1-4.564,0C113.056,245.774,112.977,245.458,113.228,245.392Z" transform="translate(-6.523 -51.851)" fill="#263238"/>
            <path id="Path_33886" data-name="Path 33886" d="M159.119,249.743A111.689,111.689,0,0,0,141.377,258c-.224.119-.079.475.158.369,5.989-2.572,12.083-5.026,17.9-7.915a.4.4,0,0,0-.317-.712Z" transform="translate(2.473 -44.013)" fill="#263238"/>
            <path id="Path_33887" data-name="Path 33887" d="M159.107,218.742c0-.211-.369-.251-.369,0,0,7.1-.409,13.336-1,19.971-.277,3.073-2.757,20.09-8.1,18.85-.884-.211-1.319-1.082-1.491-2.44a22.121,22.121,0,0,1,.712-5.21c.594-3.562,1.069-7.136,1.319-10.737a96.858,96.858,0,0,0-.211-20.129.171.171,0,1,0-.343,0,184.475,184.475,0,0,1-1.583,27.793c-.66,4.432-2.889,11.093,1.741,11.766s7.756-10.46,8.337-13.521a101.7,101.7,0,0,0,.989-26.342Z" transform="translate(4.278 -53.957)" fill="#263238"/>
            <path id="Path_33888" data-name="Path 33888" d="M149.5,248.555a27.006,27.006,0,0,0-1.2,3.522,8.1,8.1,0,0,0-.5,2.9c0,.185.277.2.369.079a9.842,9.842,0,0,0,1.24-2.823c.409-1.095.844-2.176,1.214-3.271a.6.6,0,0,0-1.121-.409Z" transform="translate(4.558 -44.514)" fill="#263238"/>
            <path id="Path_33889" data-name="Path 33889" d="M60.183,437.977c8.06-15.169,20.723-38.847,24.641-46.353a134.916,134.916,0,0,0,8.957-23.176q7.479-24.3,14.167-48.806t12.558-49.281c.989-4.116,2.058-8.244,2.849-12.413a38.029,38.029,0,0,0,0-12.7,40.891,40.891,0,0,1-.092-11.872,79.142,79.142,0,0,1,2.77-11.555c.62-1.992,1.319-3.957,1.979-5.949.079-.211.422-.119.356.105-2.44,7.994-4.933,16.067-4.419,24.522.251,4.063,1.319,8.06,1.319,12.149a58.922,58.922,0,0,1-2.058,12q-5.778,24.891-12.4,49.571T96.722,363.343c-2.4,7.914-4.643,15.987-8.06,23.546S72.345,417.663,63.679,432.41q-1.636,2.836-3.311,5.619C60.3,438.214,60.117,438.1,60.183,437.977Z" transform="translate(-23.404 -54.856)" fill="#263238"/>
            <path id="Path_33890" data-name="Path 33890" d="M143.811,156.943c17.28,9.484,46.722,27,58.673,28.387,9.234,1.082,52.618-27.7,65.7-38.966,3.957-3.443-18.533-28.176-23.11-24.891-12.624,9.1-46.788,30.524-48.318,30.8-5.646.989-28.268-5.276-48.384-9.1C125.937,138.858,135.434,152.352,143.811,156.943Z" transform="translate(0.303 -85.035)" fill="#f7a9a0"/>
            <path id="Path_33891" data-name="Path 33891" d="M175.891,171.6l13.666-25.34s-33.808-10.553-49.057-9.234-5.817,9.418,1.913,14.734S175.891,171.6,175.891,171.6Z" transform="translate(-0.37 -80.012)" fill="#c7c7c7"/>
            <path id="Path_33892" data-name="Path 33892" d="M175.891,171.6l13.666-25.34s-33.808-10.553-49.057-9.234-5.817,9.418,1.913,14.734S175.891,171.6,175.891,171.6Z" transform="translate(-0.37 -80.012)" fill="#00a0ad"/>
            <path id="Path_33893" data-name="Path 33893" d="M186.5,144.615l-.119.211c-.317-.145-.633-.277-.963-.4a15.138,15.138,0,0,0-1.464-.554l-1.491-.475c-.5-.145-1.016-.237-1.53-.356l-.765-.185-.778-.106a27.7,27.7,0,0,0-12.386.923,49.571,49.571,0,0,0-11.344,5.276c-2.81,1.688-5.5,3.535-8.192,5.4l-.409.277-.277.185-.514-.317c.106,0,.2-.132.3-.2l.409-.277c2.757-1.886,5.527-3.786,8.416-5.5a49.123,49.123,0,0,1,11.489-5.276,28.439,28.439,0,0,1,12.188-.871c3.5.963,6.028,1.715,7,2.018Zm-9.036,15.539c-3.72,1.2-7.321,2.638-10.935,4.129l-2.163.844.633.356,1.741-.686c3.614-1.451,7.2-2.955,10.882-4.168l.317-.106.33-.62Zm-30-5.8-.488-.33a15.168,15.168,0,0,0-4.208-2.045l-.937-.224,1.319.831a16.044,16.044,0,0,1,3.43,1.715l.488.33c.343.237.686.488,1.016.752s.633.5.937.778l1.794,1.068a27.831,27.831,0,0,0-2.454-2.2c-.3-.251-.594-.475-.9-.686Z" transform="translate(2.656 -78.366)" fill="#fff"/>
            <path id="Path_33894" data-name="Path 33894" d="M161.561,165.348c1.583-3.707,3.654-7.255,5.567-10.8s4.182-7.136,6.213-10.724c0-.106.237,0,.185.092-1.847,3.614-3.535,7.295-5.527,10.83a114.007,114.007,0,0,1-6.345,10.658S161.535,165.4,161.561,165.348Z" transform="translate(8.948 -77.822)" fill="#263238"/>
            <path id="Path_33895" data-name="Path 33895" d="M182.907,157.545l-7.018,13.033s-25.749-14.51-33.478-19.786c-4.709-3.245-10.051-7.532-10.051-10.671Z" transform="translate(-0.369 -78.989)" opacity="0.1"/>
            <path id="Path_33896" data-name="Path 33896" d="M103.918,246.639c.211.224,82.443-1.227,83.221-2.137,1.082-1.319-10.408-77.932-22.016-98.378-5.54-9.788-20.723-14.985-29.574.158C114.418,182.505,103.192,245.835,103.918,246.639Z" transform="translate(-9.455 -80.061)" fill="#00a0ad"/>
            <path id="Path_33897" data-name="Path 33897" d="M186.076,238.424h-2.744a10.6,10.6,0,0,1-1.583-.079l-1.57-.2a15.46,15.46,0,0,1-1.557-.3,27.483,27.483,0,0,1-3.06-.8c-.989-.369-1.979-.7-2.942-1.161s-1.886-.923-2.836-1.4a18.88,18.88,0,0,1-2.638-1.636c-.818-.594-1.741-1.187-2.638-1.794s-1.688-1.319-2.506-1.926-1.886-1.556-2.81-2.374a3.437,3.437,0,0,1-.33-.3c-2.124-1.86-4.168-3.825-6.213-5.791-3.034-2.9-6.041-5.857-9.339-8.442a34.9,34.9,0,0,0-5.21-3.443c-.369-.2-.752-.382-1.134-.541a3.957,3.957,0,0,0-.541-.237,15.538,15.538,0,0,0-4.208-1.134c-.514,0-1.029-.079-1.543-.092H129.1a15.487,15.487,0,0,0-1.57,0l-1.557.158-.778.092-.765.132-1.6.5c-1,.29-2.031.5-3.008.884-.435.145-.884.317-1.319.488a4.455,4.455,0,0,0-.58.237c-1.319.541-2.638,1.174-3.852,1.82-1.754.884-3.522,1.768-5.369,2.493l.079-.33c1.754-.712,3.443-1.583,5.144-2.453,1.174-.607,2.348-1.2,3.562-1.715l.554-.251c.541-.237,1.095-.448,1.649-.633.989-.4,2.018-.62,3.034-.923l1.557-.3.778-.145.791-.092,1.57-.185a10.6,10.6,0,0,0,1.583-.079h1.583a10.959,10.959,0,0,1,1.609.079,16.2,16.2,0,0,1,4.524,1.227l.514.251c.343.145.673.317,1,.488a35.5,35.5,0,0,1,5.276,3.535c3.311,2.638,6.292,5.619,9.3,8.548,2.1,2.045,4.195,4.076,6.371,6.015l.33.3c.844.752,1.7,1.491,2.572,2.2a50.124,50.124,0,0,0,5.065,3.733c.871.58,1.794,1.082,2.638,1.622a13.918,13.918,0,0,0,2.836,1.319c.976.343,1.939.765,2.928,1.121a30.149,30.149,0,0,0,3.034.791c.514.079,1.016.224,1.543.277l1.557.185a10.523,10.523,0,0,1,1.57.079h1.57a6.553,6.553,0,0,0,1.134-.066A2.639,2.639,0,0,1,186.076,238.424Zm-2.493-18.256-.211.119a54.085,54.085,0,0,1-10.671,4.577,41.565,41.565,0,0,1-11.463,1.688H158.85a41.84,41.84,0,0,1-9.115-1.464,48.446,48.446,0,0,1-5.514-1.873,58.18,58.18,0,0,1-5.276-2.467c-3.179-1.636-6.213-3.522-9.234-5.408l-.488-.3-.317-.2a92.99,92.99,0,0,0-10.183-5.751h-.132a2.869,2.869,0,0,0-.462-.2,28.426,28.426,0,0,0-7.572-2.229,3.4,3.4,0,0,0-.119.462,25.829,25.829,0,0,1,2.638.5,30.578,30.578,0,0,1,4.485,1.345l.435.185.528.224a92.326,92.326,0,0,1,10.21,5.593l.237.145.5.29c3.087,1.873,6.173,3.746,9.392,5.382,1.728.9,3.509,1.728,5.276,2.467a47.982,47.982,0,0,0,5.527,1.913,42.03,42.03,0,0,0,9.5,1.57h2.058a42.462,42.462,0,0,0,11.582-1.6,52.038,52.038,0,0,0,10.79-4.524h0Zm-4.947-27.345c-.9-.409-1.807-.725-2.731-1.055a30.767,30.767,0,0,0-3.06-.818c-.528-.092-1.029-.237-1.557-.29l-1.57-.2c-.528-.066-1.055,0-1.583-.092h-1.583a28.083,28.083,0,0,0-12.188,3.126,48.6,48.6,0,0,0-10.342,7.242c-2.519,2.216-4.894,4.59-7.242,6.938l-.369.369-1.464,1.464c-1.873,1.86-3.759,3.733-5.751,5.474a1.568,1.568,0,0,0-.237.2,40.3,40.3,0,0,1-3.39,2.638,24.362,24.362,0,0,1-5.461,2.968,15.9,15.9,0,0,1-6.081,1.016,24.877,24.877,0,0,1-6.16-.857l-.8-.251a2.563,2.563,0,0,1-.092.435l.765.251a26,26,0,0,0,6.279.936h2.4l.791-.132.791-.132a3.375,3.375,0,0,0,.778-.2l.765-.211c.264-.079.5-.185.752-.277a24.667,24.667,0,0,0,5.593-3.034,43.641,43.641,0,0,0,3.575-2.823l.224-.185,1.068-1.082c1.557-1.425,3.06-2.9,4.551-4.393l1.609-1.622.343-.356c2.308-2.322,4.617-4.643,7.057-6.807a50.121,50.121,0,0,1,10.2-7.268,27.872,27.872,0,0,1,12-3.192h1.57a10.426,10.426,0,0,1,1.57.079l1.557.185a9.031,9.031,0,0,1,1.543.277,30.107,30.107,0,0,1,3.034.778c.976.356,1.939.673,2.876,1.108ZM166.223,147.09c-2.783,1.675-5.448,3.5-8.112,5.276l-.409.277-1.715,1.174a76.87,76.87,0,0,1-10.737,6.477c-.673.317-1.319.594-2.058.857l-.422.158a20.681,20.681,0,0,1-3.443.91,16.145,16.145,0,0,1-6.16-.132,24.4,24.4,0,0,1-5.9-1.965c-.343-.171-.686-.356-1.016-.554,0,.132-.119.264-.171.4.317.2.646.383.976.554a24.876,24.876,0,0,0,6,2.071l.778.171.8.106.791.106h1.6l.8-.066h.8a5.329,5.329,0,0,0,.778-.132,22.039,22.039,0,0,0,3.957-1.055l.435-.172c.58-.224,1.161-.462,1.728-.725a49.2,49.2,0,0,0,5.553-3.034c1.794-1.108,3.548-2.282,5.276-3.482l1.886-1.319.409-.277c2.572-1.768,5.144-3.548,7.822-5.171Zm5.883,17.649c-.752.264-1.517.5-2.282.725l-.33.092c-.95.277-1.913.528-2.876.725a25.062,25.062,0,0,1-11.463,0,30.51,30.51,0,0,1-10.711-4.234,8.147,8.147,0,0,1-.7-.475l-.554-.369a81.7,81.7,0,0,0-8.31-5.844,28.439,28.439,0,0,0-5.421-2.322h-.171v.092l.224.066c.91.343,1.82.673,2.717,1.068a27.923,27.923,0,0,1,2.638,1.319,75.69,75.69,0,0,1,8.02,5.778l.541.383c.3.224.607.422.923.633a31.157,31.157,0,0,0,10.816,4.406,25.353,25.353,0,0,0,11.687,0c1.042-.224,2.084-.475,3.1-.778l.33-.092c.7-.211,1.4-.435,2.084-.673a1.031,1.031,0,0,1-.264-.5Zm1.636,6.252-2.1-3.047-1.411-1.992-.343-.488a93.727,93.727,0,0,0-5.817-7.624,34.2,34.2,0,0,0-4.524-4.432c-.29-.237-.58-.462-.884-.673l-.488-.33a15.168,15.168,0,0,0-4.208-2.045l-1.557-.383-1.57-.224c-.514-.066-1.042-.171-1.57-.211l-1.583-.119h-3.166a31.573,31.573,0,0,0-3.153.356,44.414,44.414,0,0,0-6.147,1.491c-1.9.58-3.812,1.121-5.764,1.53l-.106.211v.092h.211c1.952-.383,3.878-.923,5.791-1.477a44.654,44.654,0,0,1,6.107-1.451,31.111,31.111,0,0,1,3.113-.317h2.348l.791.066,1.557.119a10.8,10.8,0,0,1,1.557.224l1.543.237,1.5.369a16.106,16.106,0,0,1,3.957,1.886l.488.33c.343.237.686.488,1.016.752a34.086,34.086,0,0,1,4.5,4.34c2.071,2.361,3.957,4.894,5.791,7.453l.343.488,1.491,2.071,2.638,3.6a2.387,2.387,0,0,1-.356-.8Z" transform="translate(-8.47 -76.765)" fill="#fff"/>
            <path id="Path_33898" data-name="Path 33898" d="M149.8,156.176c-3.641.435-11.74-5.857-15.13-11.41-.224-.383.171-4.524.435-9.59.132-3.073.224-6.49.079-9.616l19.852,3.852a49.847,49.847,0,0,0-1.319,12.1,7.471,7.471,0,0,0,.185,1.319.858.858,0,0,1,0,.211C154.439,145.412,155.508,155.5,149.8,156.176Z" transform="translate(0.346 -83.635)" fill="#f7a9a0"/>
            <path id="Path_33899" data-name="Path 33899" d="M135,134.315c4.247,5.725,10.553,11.225,19.008,9.92a5.042,5.042,0,0,0-.2-1.227,1.459,1.459,0,0,1,0-.211,5.525,5.525,0,0,1-.2-1.319,50.2,50.2,0,0,1,1.319-12.109l-19.786-3.839C135.2,128.392,135.132,131.426,135,134.315Z" transform="translate(0.474 -83.644)" fill="#263238"/>
            <path id="Path_33900" data-name="Path 33900" d="M131.154,111.546c-1.781,7.07,2.876,26.989,8.046,31.223,7.492,6.147,19.272,6.2,24.364-2.638,4.947-8.627-1.583-34.481-7.308-38.254C147.814,96.205,133.792,101.125,131.154,111.546Z" transform="translate(-0.877 -91.953)" fill="#f7a9a0"/>
            <path id="Path_33901" data-name="Path 33901" d="M146.121,116.35s-.092.092-.066.145c.4,1.319.646,2.9-.435,3.667v.079C147.058,119.621,146.715,117.537,146.121,116.35Z" transform="translate(3.863 -86.574)" fill="#263238"/>
            <path id="Path_33902" data-name="Path 33902" d="M145.106,115.555c-2.176.422-1.174,4.762.844,4.366S146.94,115.2,145.106,115.555Z" transform="translate(3.308 -86.834)" fill="#263238"/>
            <path id="Path_33903" data-name="Path 33903" d="M152,114.74s.119,0,.119.092c.277,1.319.818,2.862,2.137,3.021v.079C152.686,118.064,152,116.072,152,114.74Z" transform="translate(5.898 -87.087)" fill="#263238"/>
            <path id="Path_33904" data-name="Path 33904" d="M152.846,113.487c2.111-.673,3.3,3.614,1.319,4.234S151.065,114.041,152.846,113.487Z" transform="translate(5.884 -87.51)" fill="#263238"/>
            <path id="Path_33905" data-name="Path 33905" d="M143.532,115.215a17.04,17.04,0,0,0,1.543-.989c.594-.383,1.095-.62,1.319-1.319a.976.976,0,0,0-.409-1.082,2.335,2.335,0,0,0-2.348.3,3.416,3.416,0,0,0-1.583,1.9,1,1,0,0,0,1.477,1.187Z" transform="translate(2.706 -88.077)" fill="#263238"/>
            <path id="Path_33906" data-name="Path 33906" d="M154.435,112.526h-1.82a2.928,2.928,0,0,1-1.86-.409.95.95,0,0,1-.211-1.121,2.348,2.348,0,0,1,2.163-.963,3.4,3.4,0,0,1,2.335.8,1,1,0,0,1-.607,1.688Z" transform="translate(5.402 -88.594)" fill="#263238"/>
            <path id="Path_33907" data-name="Path 33907" d="M147.3,126.035a2.018,2.018,0,0,0,1.319.528,3.64,3.64,0,0,0,1.319-.673h.079a1.886,1.886,0,0,1-1.543,1.134,1.477,1.477,0,0,1-1.319-.95A.51.51,0,0,1,147.3,126.035Z" transform="translate(4.351 -83.53)" fill="#263238"/>
            <path id="Path_33908" data-name="Path 33908" d="M147.631,126.577a4.643,4.643,0,0,0,3.522,1.319,6.053,6.053,0,0,0,1.662-.3,1.213,1.213,0,0,0,.3-.119l.29-.105a.369.369,0,0,0,.2-.369h0a.65.65,0,0,0,0-.145h0v-.119c-.211-1.042-.686-2.638-.686-2.638.422.092,2.546.514,2.4,0a71.313,71.313,0,0,0-5-13.4c-.079-.145-.29,0-.237.079,1.082,4.287,2.928,8.35,4.089,12.637a7.822,7.822,0,0,0-2.308-.145c-.145.079.95,2.968,1.016,3.443h0a6.516,6.516,0,0,1-5.078-.356C147.6,126.379,147.526,126.484,147.631,126.577Z" transform="translate(4.489 -88.398)" fill="#263238"/>
            <path id="Path_33909" data-name="Path 33909" d="M152.123,123.363a5.619,5.619,0,0,1-1.781,2.19,2.638,2.638,0,0,1-1.464.435c-1.134,0-1.4-1.016-1.4-1.9a5.988,5.988,0,0,1,.185-1.4A7.3,7.3,0,0,0,152.123,123.363Z" transform="translate(4.456 -84.551)" fill="#263238"/>
            <path id="Path_33910" data-name="Path 33910" d="M150.342,125.225a2.638,2.638,0,0,1-1.464.435c-1.134,0-1.4-1.016-1.4-1.9a2.638,2.638,0,0,1,2.862,1.464Z" transform="translate(4.456 -84.223)" fill="#ff99ba"/>
            <path id="Path_33911" data-name="Path 33911" d="M133.992,130.28c-.778-1.728-8.416-20.459-8.231-22.662.171-2,2.414-1.543,2.427-1.649s-.2-1.886.791-2.717a3.021,3.021,0,0,1,2.374-.317s0-1.913,1.134-2.638a2.374,2.374,0,0,1,2.361.145,3.139,3.139,0,0,1,1.517-2.506,2.058,2.058,0,0,1,2.388.514s.224-1.847,1.385-2.374,2.427.62,2.427.62.422-1.715,1.9-1.965a2.361,2.361,0,0,1,2.3,1.319s.633-1.688,2.018-1.939,2.124,1.4,2.124,1.4.33-1.622,1.649-1.728,1.913,1.688,1.913,1.688a1.319,1.319,0,0,1,1.7-1.187c2.48.4,5.4,12.584,6.688,17.4,0,0-1.53-3.548-2.546-3.482s-1.517,1.781-3.324,2.48c-2.572.989-7.479-1.451-11.028-.106s-5.514,5.461-5.936,11.252C139.479,128.368,135.8,134.383,133.992,130.28Z" transform="translate(-2.475 -93.777)" fill="#263238"/>
            <path id="Path_33912" data-name="Path 33912" d="M137.053,122.024s-4.986-6.173-7.822-4.353,1.227,11,4.775,12.043a3.509,3.509,0,0,0,4.577-2.216Z" transform="translate(-1.671 -86.259)" fill="#f7a9a0"/>
            <path id="Path_33913" data-name="Path 33913" d="M129.93,119.56v.092c2.493.818,3.957,2.981,4.986,5.276a1.952,1.952,0,0,0-2.955-.33.079.079,0,0,0,.079.119,2.19,2.19,0,0,1,2.44.594,10.408,10.408,0,0,1,1.319,1.847c.132.211.514,0,.409-.171h0C135.971,123.807,133.267,119.639,129.93,119.56Z" transform="translate(-1.144 -85.549)" fill="#263238"/>
            <path id="Path_33914" data-name="Path 33914" d="M155.632,140.86h-.066c.857,3.8,2.638,12.676-3.522,13.1a12.979,12.979,0,0,1-7-2.176,34.6,34.6,0,0,1-5.962-4.366,51.263,51.263,0,0,1-5.83-5.9c-.066-.092-.211,0-.132.132,1.807,2.111,3.39,4.366,5.408,6.318a30,30,0,0,0,6.437,4.854,13.058,13.058,0,0,0,7.426,2.031,4.933,4.933,0,0,0,4.353-4.458A21.765,21.765,0,0,0,155.632,140.86Z" transform="translate(-0.135 -78.753)" fill="#263238"/>
            <rect id="Rectangle_9357" data-name="Rectangle 9357" width="185.727" height="148.16" transform="translate(157.85 49.563) rotate(-5.33)" fill="#263238"/>
            <path id="Path_33915" data-name="Path 33915" d="M212.057,216.409,207.19,164.12l56.167,21.132Z" transform="translate(23.509 -71.331)" fill="#fff"/>
            <rect id="Rectangle_9358" data-name="Rectangle 9358" width="10.988" height="7.73" transform="translate(166.813 56.24) rotate(-5.33)" fill="#fff"/>
            <rect id="Rectangle_9359" data-name="Rectangle 9359" width="10.988" height="7.73" transform="translate(168.284 71.865) rotate(-5.33)" fill="#fff"/>
            <rect id="Rectangle_9360" data-name="Rectangle 9360" width="10.988" height="7.73" transform="translate(169.727 87.466) rotate(-5.33)" fill="#fff"/>
            <rect id="Rectangle_9361" data-name="Rectangle 9361" width="10.988" height="7.73" transform="translate(171.198 103.078) rotate(-5.33)" fill="#fff"/>
            <rect id="Rectangle_9362" data-name="Rectangle 9362" width="10.988" height="7.73" transform="translate(172.642 118.705) rotate(-5.33)" fill="#fff"/>
            <rect id="Rectangle_9363" data-name="Rectangle 9363" width="10.988" height="7.73" transform="translate(174.099 134.305) rotate(-5.33)" fill="#fff"/>
            <rect id="Rectangle_9364" data-name="Rectangle 9364" width="10.988" height="7.73" transform="translate(175.556 149.931) rotate(-5.33)" fill="#fff"/>
            <rect id="Rectangle_9365" data-name="Rectangle 9365" width="10.988" height="7.73" transform="translate(177.014 165.545) rotate(-5.33)" fill="#fff"/>
            <rect id="Rectangle_9366" data-name="Rectangle 9366" width="10.988" height="7.73" transform="translate(178.47 181.144) rotate(-5.33)" fill="#fff"/>
            <rect id="Rectangle_9367" data-name="Rectangle 9367" width="10.988" height="7.73" transform="translate(324.246 41.56) rotate(-5.33)" fill="#fff"/>
            <rect id="Rectangle_9368" data-name="Rectangle 9368" width="10.988" height="7.73" transform="translate(325.716 57.16) rotate(-5.33)" fill="#fff"/>
            <rect id="Rectangle_9369" data-name="Rectangle 9369" width="10.988" height="7.73" transform="translate(327.161 72.787) rotate(-5.33)" fill="#fff"/>
            <rect id="Rectangle_9370" data-name="Rectangle 9370" width="10.988" height="7.73" transform="translate(328.618 88.4) rotate(-5.33)" fill="#fff"/>
            <rect id="Rectangle_9371" data-name="Rectangle 9371" width="10.988" height="7.73" transform="translate(330.075 104.013) rotate(-5.33)" fill="#fff"/>
            <rect id="Rectangle_9372" data-name="Rectangle 9372" width="10.988" height="7.73" transform="translate(331.532 119.626) rotate(-5.33)" fill="#fff"/>
            <rect id="Rectangle_9373" data-name="Rectangle 9373" width="10.988" height="7.73" transform="translate(332.99 135.239) rotate(-5.33)" fill="#fff"/>
            <rect id="Rectangle_9374" data-name="Rectangle 9374" width="10.988" height="7.73" transform="translate(334.448 150.865) rotate(-5.33)" fill="#fff"/>
            <rect id="Rectangle_9375" data-name="Rectangle 9375" width="10.988" height="7.73" transform="translate(335.904 166.466) rotate(-5.33)" fill="#fff"/>
            <path id="Path_33916" data-name="Path 33916" d="M143.525,159.175c3.575,10.342,17.478,52.262,19.549,54.162,8.35,7.7,29.376,21.211,31.935,24.007,3.509,3.812-12.268,27.318-17.781,26.659-2.282-.264-30.339-18.771-39.124-27.846-7.018-7.321-10.671-54.083-10.882-75.874C127.036,141.618,136.613,139.125,143.525,159.175Z" transform="translate(-2.009 -77.374)" fill="#f7a9a0"/>
            <path id="Path_33917" data-name="Path 33917" d="M127.807,196.327,156.59,194.4s-9.1-34.2-18.309-46.432-11.054.079-11.463,9.458S127.807,196.327,127.807,196.327Z" transform="translate(-2.161 -78.119)" fill="#00a0ad"/>
            <path id="Path_33918" data-name="Path 33918" d="M156.09,190.569a27.321,27.321,0,0,0-7.268,2.453h-1.029a3.145,3.145,0,0,1,.29-.158A29.085,29.085,0,0,1,156,190.226C155.985,190.358,156.09,190.464,156.09,190.569Zm-11.753-33.716a52.9,52.9,0,0,1-5.369,2.928c-.673.317-1.319.594-2.058.857l-.422.158a20.688,20.688,0,0,1-3.443.91,16.146,16.146,0,0,1-6.16-.132h-.106v.528l.778.172.8.105.791.106h1.6l.8-.066h.8a5.332,5.332,0,0,0,.778-.132,22.045,22.045,0,0,0,3.957-1.055l.435-.172c.58-.224,1.161-.462,1.728-.725a47.985,47.985,0,0,0,5.369-2.928Zm3.575,8.653a29.681,29.681,0,0,1-9.748-4.023,8.163,8.163,0,0,1-.7-.475l-.554-.369a81.693,81.693,0,0,0-8.31-5.844c-.541-.3-1.095-.594-1.662-.857v.264a14.592,14.592,0,0,1,1.557.818,75.688,75.688,0,0,1,8.02,5.778l.541.383c.3.224.607.422.923.633a30.338,30.338,0,0,0,10.17,4.247,2.719,2.719,0,0,1-.277-.554Zm-7.743-16.686h-1.992a31.572,31.572,0,0,0-3.153.356,44.409,44.409,0,0,0-6.147,1.491l-1.728.514a2.784,2.784,0,0,0,0,.33l1.847-.528a44.64,44.64,0,0,1,6.107-1.451,31.1,31.1,0,0,1,3.113-.317h2.216Z" transform="translate(-2.149 -76.213)" fill="#fff"/>
            <path id="Path_33919" data-name="Path 33919" d="M128.136,178.884c3.957-.62,8.1-.765,12.122-1.029s8.257-.251,12.386-.435a.106.106,0,0,1,0,.211c-4.036.356-8.06.871-12.109,1.082a117.887,117.887,0,0,1-12.4.277S128.083,178.9,128.136,178.884Z" transform="translate(-1.724 -67.087)" fill="#263238"/>
            <path id="Path_33920" data-name="Path 33920" d="M125.927,166.376c.29,1.741.594,3.469.91,5.2,0-3.6,0-7.215.079-10.817,0-.092.158-.092.158,0,.383,5.013.607,10.051.778,15.064s.488,9.722.317,14.51l1.082.079a.145.145,0,0,1,0,.29l-1.319.171a.277.277,0,0,1-.317-.237c-.594-4.973-.62-10.091-.725-15.09V173.09a57.688,57.688,0,0,1-1.2-6.714.132.132,0,0,1,.237,0Z" transform="translate(-2.497 -72.426)" fill="#263238"/>
            <path id="Path_33921" data-name="Path 33921" d="M150.216,188.328l1.055-.158-.079.106c-.818-2.124-1.543-4.274-2.282-6.411s-1.4-4.327-2.058-6.5-1.319-4.353-1.86-6.6-1.161-4.393-1.622-6.6c.844,2.111,1.6,4.247,2.322,6.4s1.425,4.313,2.1,6.49,1.319,4.34,1.9,6.6,1.174,4.393,1.675,6.6v.106H150.19Z" transform="translate(3.145 -71.953)" fill="#263238"/>
            <path id="Path_33922" data-name="Path 33922" d="M145.3,164a16.673,16.673,0,0,1,.356,6.529A16.028,16.028,0,0,1,145.3,164Z" transform="translate(3.704 -71.369)" fill="#263238"/>
            <path id="Path_33923" data-name="Path 33923" d="M193.389,228.732c-1.319-1.741-.369-2.427,3.337-1.385s17.478,8.284,19.6,3.271-17.465-14.972-23.744-16.225-16.924-1.082-16.924-1.082C179.063,215.963,186.74,223.3,193.389,228.732Z" transform="translate(13.448 -55.637)" fill="#f7a9a0"/>
            <path id="Path_33924" data-name="Path 33924" d="M162.76,240.5c9.92,8.811,21.818,16.884,35.615,18.269a6.873,6.873,0,0,0,4.393-.937c6.173.726,8.376-1.965,8.376-1.965,5.949-1.082,7.822-4.155,7.822-4.155s5.026,0,5.276-3.535-7.756-6.16-13.468-9.761c-13.059-8.231-27.477-22.424-31-25.142Z" transform="translate(9.332 -55.648)" fill="#f7a9a0"/>
            <path id="Path_33925" data-name="Path 33925" d="M185.625,234.013a98.725,98.725,0,0,0,11.872,6.6A100.027,100.027,0,0,0,211.664,245a.119.119,0,1,1,0,.237,52.447,52.447,0,0,1-26.078-11.028C185.348,234.013,185.427,233.881,185.625,234.013Z" transform="translate(16.568 -49.046)" fill="#263238"/>
            <path id="Path_33926" data-name="Path 33926" d="M181,239.432c3.957,2.071,10.817,5.672,24.43,7.915v.079a47.118,47.118,0,0,1-24.509-7.849C180.666,239.471,180.745,239.3,181,239.432Z" transform="translate(15.077 -47.315)" fill="#263238"/>
            <path id="Path_33927" data-name="Path 33927" d="M178.578,242.388c6.78,3.285,11.476,4.485,19.219,6.121v.092c-8.983-.95-12.136-2.308-19.351-5.989C178.182,242.481,178.3,242.27,178.578,242.388Z" transform="translate(14.29 -46.368)" fill="#263238"/>
            <path id="Path_33928" data-name="Path 33928" d="M215.66,123.207c4.96-2.374,11.107-8.337,15.156-8.838a4.7,4.7,0,0,1,4.973,2.638s1.992-4.05,5.751-3.957c1.939.079,3.509,3.232,3.509,3.232a5.58,5.58,0,0,1,5.078-2.836c2.638.264,3.839,3.39,3.839,3.39s3.1-2.269,5.712-1.134c5.276,2.322,5.4,25.221-3.021,28.8C252.7,146.159,253,140.54,253,140.54s-2.335,7.914-7.057,8.086-3.957-7.11-3.957-7.11-2.348,7.69-7.255,7.347c-5.118-.369-3.06-7.479-3.06-7.479s-3.443,5.1-7.136,3.957c-6.107-1.873,1.53-11.542.3-16.568l-8.31-2.744Z" transform="translate(26.211 -87.627)" fill="#f7a9a0"/>
            <path id="Path_33929" data-name="Path 33929" d="M225.613,118.035c-4.894,1.834-10.962-4.208-15.895-3.113-6.6,1.477-.092,8.957,9.6,10.553h7.756Z" transform="translate(23.461 -87.072)" fill="#f7a9a0"/>
            <path id="Path_33930" data-name="Path 33930" d="M245.294,116.276c0-.079.106-.092.119,0a39.7,39.7,0,0,1-1.319,23.6c-.092.237-.528.185-.462-.092a81.161,81.161,0,0,0,1.662-23.506Z" transform="translate(35.135 -86.618)" fill="#263238"/>
            <path id="Path_33931" data-name="Path 33931" d="M238.8,115.428c0-.092.132-.106.158,0a37.158,37.158,0,0,1-3.034,25.656c-.145.277-.554.369-.409,0C237.984,135.61,239.435,122.8,238.8,115.428Z" transform="translate(32.538 -86.892)" fill="#263238"/>
            <path id="Path_33932" data-name="Path 33932" d="M227.455,140.873c3.865-7.769,4.867-16,4.67-24.614,0-.106.158-.106.185,0,1.24,4.181.791,9.682.079,13.93a22.873,22.873,0,0,1-4.67,10.843C227.626,141.137,227.362,141.005,227.455,140.873Z" transform="translate(29.969 -86.628)" fill="#263238"/>
          </g>
        </g>
      </g>
    </g>
  </g>
</svg>
