<svg id="warning-sign" xmlns="http://www.w3.org/2000/svg" width="48" height="48" viewBox="0 0 48 48">
  <g id="Group_16249" data-name="Group 16249">
    <path id="Path_14874" data-name="Path 14874" d="M43,48H5a5.007,5.007,0,0,1-5-5V5A5.007,5.007,0,0,1,5,0H43a5.007,5.007,0,0,1,5,5V43A5.007,5.007,0,0,1,43,48ZM5,2A3,3,0,0,0,2,5V43a3,3,0,0,0,3,3H43a3,3,0,0,0,3-3V5a3,3,0,0,0-3-3Z" fill="#f54b4b"/>
  </g>
  <g id="Group_16250" data-name="Group 16250" transform="translate(21 32)">
    <path id="Path_14875" data-name="Path 14875" d="M13.5,22a3,3,0,1,1,3-3A3,3,0,0,1,13.5,22Zm0-4a1,1,0,1,0,1,1A1,1,0,0,0,13.5,18Z" transform="translate(-10.5 -16)" fill="#f54b4b"/>
  </g>
  <g id="Group_16251" data-name="Group 16251" transform="translate(23 10)">
    <path id="Path_14876" data-name="Path 14876" d="M12.5,23a1,1,0,0,1-1-1V6a1,1,0,0,1,2,0V22A1,1,0,0,1,12.5,23Z" transform="translate(-11.5 -5)" fill="#f54b4b"/>
  </g>
</svg>
