<svg xmlns="http://www.w3.org/2000/svg" width="900" height="900" viewBox="0 0 900 900" fill="none"><mask id="mask0_1011_3537" style="mask-type:alpha" maskUnits="userSpaceOnUse" x="0" y="0" width="900" height="900"><rect width="900" height="900" rx="450" fill="#C4C4C4"></rect></mask><g mask="url(#mask0_1011_3537)"><rect x="3" y="3" width="894" height="894" rx="447" stroke="black" stroke-width="6"></rect><path d="M614.59 225.08C612.661 250.796 613.84 276.619 618.233 301.905C622.733 327.835 631.626 351.944 640.627 376.48C649.949 401.767 653.484 427.269 653.377 454.163C653.163 480.521 651.449 507.094 649.306 533.345C645.448 582.205 636.769 632.35 609.875 674.352C583.838 715.175 538.622 744.105 492.012 755.785C468.868 761.571 444.76 762.428 421.509 756.642C401.044 751.606 381.971 741.962 365.042 729.533C327.969 702.318 302.896 662.673 286.824 620.135C278.038 596.991 271.716 572.99 266.466 548.775C261.108 523.702 255.965 498.201 253.286 472.699C250.393 444.841 254.037 417.625 258.644 390.195C260.894 376.802 263.037 363.516 265.287 350.122C266.251 344.229 266.894 338.014 268.287 332.228C269.787 325.799 276.645 323.871 282.109 321.085C327.647 297.405 375.221 276.94 425.259 265.047C475.619 253.153 527.693 252.082 578.481 241.903C590.803 239.438 603.018 236.331 614.911 232.581C619.304 231.188 617.483 224.223 612.982 225.616C561.551 241.903 507.227 243.295 454.403 251.974C401.901 260.653 351.863 279.083 303.968 302.12C292.181 307.799 279.752 313.263 268.502 320.121C264.751 322.478 262.501 325.264 261.43 329.657C259.823 336.407 259.072 343.479 257.894 350.336C253.286 377.766 247.715 405.411 245.465 433.162C243.322 460.913 247.608 488.022 252.429 515.237C257.037 540.953 262.287 566.454 269.573 591.527C282.859 637.065 303.432 681.21 337.291 715.176C367.828 745.82 408.33 767.357 452.26 767.892C501.441 768.535 552.015 745.177 587.803 712.175C623.59 679.174 641.805 632.029 650.163 584.991C654.877 558.204 656.913 530.988 658.413 503.772C659.913 476.664 662.056 449.127 659.056 422.018C657.663 409.054 654.985 396.41 650.806 383.981C646.52 371.016 641.055 358.48 636.662 345.622C627.876 319.692 622.519 292.476 621.126 265.154C620.376 251.76 620.59 238.474 621.661 225.08C622.197 220.366 614.911 220.366 614.59 225.08Z" fill="black"></path><path d="M643.198 141.076C599.91 95.3242 540.658 65.4299 478.297 56.6438C415.616 47.8576 351.22 61.2512 296.36 92.6455C268.93 108.289 243.965 128.433 223.071 152.006C211.606 164.97 201.32 179.114 194.355 194.972C187.819 210.08 184.283 226.259 182.997 242.653C180.104 278.333 186.962 314.013 192.319 349.051C198.319 387.624 204.213 426.197 210.32 464.664C215.999 500.665 222.428 536.774 235.393 571.062C241.286 586.705 247.608 602.992 260.787 614.028C267.001 619.171 273.002 623.993 276.43 631.493C279.645 638.565 280.288 646.494 280.181 654.208C280.073 662.03 278.895 669.852 277.609 677.567C276.859 682.067 283.824 684.103 284.574 679.495C286.824 665.673 288.967 651.315 285.859 637.493C284.466 631.065 281.788 625.064 277.716 619.921C272.68 613.492 265.287 609.421 259.822 603.313C254.144 596.991 250.501 588.955 247.072 581.133C243.429 572.669 240.214 564.097 237.428 555.311C231.964 538.489 227.785 521.131 224.356 503.773C217.177 467.557 212.249 430.912 206.57 394.482C200.891 358.158 193.926 321.728 190.712 284.976C187.712 250.475 189.855 214.901 207.856 184.364C224.249 156.613 249.322 133.148 275.466 114.504C326.147 78.3948 388.507 58.5725 450.867 61.2512C513.228 63.9299 574.731 88.4668 621.447 129.933C627.233 135.076 632.698 140.434 638.055 146.112C641.269 149.648 646.413 144.505 643.198 141.076Z" fill="black"></path><path d="M268.502 672.638C281.788 684.21 293.253 697.711 302.361 712.819C306.861 720.212 310.718 727.926 314.04 735.963C317.469 744.32 319.719 753.106 322.826 761.678C325.719 769.821 329.576 777.322 335.577 783.536C341.363 789.537 348.327 794.358 355.078 799.18C370.935 810.645 385.829 823.503 401.794 834.86C430.831 855.326 465.976 869.576 501.335 857.576C533.158 846.861 558.98 820.931 578.696 794.68C601.518 764.25 617.697 725.891 608.483 687.425C607.411 682.924 600.447 684.853 601.518 689.353C609.554 722.462 596.804 755.678 578.267 783.001C560.266 809.466 535.193 836.146 505.085 848.575C470.583 862.719 436.189 849.861 407.152 829.717C392.365 819.431 378.65 807.645 364.185 796.93C357.113 791.68 349.72 786.965 343.291 780.965C336.434 774.536 332.255 766.821 329.255 758.035C323.362 740.784 317.897 724.176 308.254 708.533C298.932 693.211 287.253 679.388 273.645 667.602C270.109 664.495 264.966 669.531 268.502 672.638Z" fill="black"></path><path d="M600.232 685.603C620.911 699.961 631.519 723.748 646.198 743.356C653.484 753.106 661.949 761.785 672.128 768.428C683.057 775.607 695.486 780.429 707.915 784.072C734.702 791.894 762.668 795.858 789.991 802.073C818.278 808.502 846.351 815.895 873.673 825.538C904.961 836.467 935.069 850.504 962.714 868.719C966.571 871.29 970.214 864.969 966.357 862.504C917.604 830.574 861.887 811.93 805.527 798.323C777.99 791.679 749.917 786.965 722.38 780.429C696.129 774.214 671.914 764.249 654.663 742.713C637.626 721.497 626.804 695.353 603.768 679.388C600.017 676.71 596.374 683.031 600.232 685.603Z" fill="black"></path><path d="M296.789 708.533C276.002 717.533 265.716 738.855 252.429 755.785C245.25 764.892 236.893 772.929 225.857 777.107C212.142 782.25 197.248 782.786 183.319 786.751C169.068 790.822 155.675 797.573 142.495 804.216C129.53 810.645 116.458 816.752 102.958 822.002C75.635 832.717 47.6693 841.182 20.0251 850.825C-9.97632 861.326 -39.5492 873.433 -66.3362 890.684C-70.1935 893.256 -66.6576 899.47 -62.6932 896.899C-13.6194 865.183 43.9192 851.897 98.1361 831.538C111.53 826.503 124.816 820.931 137.674 814.609C151.067 808.073 164.139 800.894 178.176 795.965C192.105 791.037 206.891 790.072 221.142 786.108C232.928 782.893 243 777 251.465 768.107C267.966 750.642 277.395 724.605 300.646 714.64C304.718 712.926 301.075 706.711 296.789 708.533Z" fill="black"></path><path d="M641.698 147.934C653.056 156.184 664.628 164.649 673.628 175.471C683.807 187.685 687.45 201.722 688.629 217.366C691.201 251.01 694.201 284.869 695.272 318.513C695.808 335.55 694.308 351.836 690.772 368.551C687.45 384.088 684.022 399.517 682.093 415.375C678.129 447.948 678.879 480.843 682.307 513.416C683.272 522.63 684.557 531.738 685.843 540.845C687.129 549.953 688.308 559.489 686.057 568.49C684.236 575.776 680.057 583.49 672.985 586.812C666.342 589.919 657.449 588.741 653.163 582.419C650.591 578.562 644.27 582.205 646.948 586.062C653.699 596.027 667.628 598.277 677.914 592.384C690.343 585.205 694.737 569.99 694.522 556.596C694.415 547.382 692.594 538.274 691.415 529.166C690.129 519.844 689.165 510.523 688.308 501.094C686.808 483.093 686.165 464.985 686.808 446.877C687.45 428.126 689.486 409.482 693.129 391.052C696.665 373.48 701.273 356.229 702.237 338.229C703.201 319.37 701.38 300.405 700.094 281.654C698.808 262.903 697.522 244.153 696.237 225.402C694.951 206.865 693.129 189.4 681.664 174.078C671.807 160.898 658.413 151.041 645.127 141.398C641.591 138.933 637.948 145.255 641.698 147.934Z" fill="black"></path><path d="M663.771 472.057C669.878 486.843 671.914 502.594 669.985 518.452C669.449 523.059 676.628 523.059 677.271 518.452C679.307 502.058 677.057 485.45 670.842 470.128C669.021 465.842 662.056 467.664 663.771 472.057Z" fill="black"></path><path d="M221.464 464.985C239.357 492.522 242.465 525.845 243.751 557.882C243.965 562.49 251.144 562.597 251.037 557.882C249.751 524.666 246.429 489.951 227.785 461.342C225.214 457.485 218.892 461.128 221.464 464.985Z" fill="black"></path><path d="M288.431 366.731C296.895 363.623 303.646 357.087 312.003 353.337C320.468 349.587 329.683 347.337 338.897 346.694C357.22 345.408 375.328 350.123 390.436 360.623C394.293 363.302 397.936 356.98 394.079 354.409C378.435 343.694 359.47 338.551 340.505 339.408C331.397 339.837 322.182 341.658 313.718 344.872C309.432 346.48 305.253 348.408 301.289 350.766C296.36 353.659 291.967 357.73 286.609 359.766C282.216 361.373 284.038 368.445 288.431 366.731Z" fill="black"></path><path d="M498.548 333.836C510.656 325.264 525.228 323.871 539.693 323.764C547.3 323.764 555.336 323.335 562.087 327.193C569.051 331.157 575.266 336.729 581.588 341.658C585.231 344.444 588.874 338.229 585.231 335.443C578.266 330.086 571.301 323.443 563.373 319.692C556.086 316.264 547.622 316.585 539.8 316.585C524.263 316.692 508.084 318.407 495.012 327.621C491.155 330.3 494.691 336.515 498.548 333.836Z" fill="black"></path><path d="M531.979 390.624C537.55 385.052 543.336 379.266 550.73 376.266C557.373 373.588 564.659 372.837 571.731 372.623C578.588 372.409 586.303 371.873 592.946 373.802C599.482 375.73 605.161 379.802 611.804 381.838C616.304 383.124 618.233 376.159 613.733 374.873C606.018 372.623 599.482 367.48 591.553 366.087C584.053 364.801 575.695 365.123 568.195 365.551C560.694 365.98 553.194 367.266 546.336 370.373C538.729 373.802 532.729 379.695 526.836 385.588C523.514 388.803 528.657 393.946 531.979 390.624Z" fill="black"></path><path d="M418.402 419.769C411.651 430.483 405.651 441.734 400.722 453.52C396.651 463.164 391.4 474.2 392.15 484.915C392.9 494.558 399.651 500.558 408.865 502.165C413.258 502.916 417.759 502.808 422.259 503.558C428.045 504.523 431.259 507.309 434.367 512.023C439.295 519.523 444.867 526.381 454.939 523.809C466.618 520.916 471.226 507.63 482.583 504.63C488.369 503.13 494.798 503.773 500.691 503.88C506.477 503.987 513.549 505.166 519.121 503.237C529.086 499.808 532.407 486.308 532.086 477.093C531.764 463.806 525.121 452.127 519.335 440.663C512.37 426.948 506.906 412.59 502.727 397.696C501.441 393.196 494.477 395.125 495.762 399.625C498.655 410.018 502.191 420.197 506.477 430.055C511.085 440.77 517.192 450.734 521.371 461.556C525.014 471.093 527.05 482.986 521.264 492.094C517.406 498.094 510.87 496.701 504.656 496.594C499.084 496.487 493.298 496.165 487.726 496.487C477.869 497.13 471.44 501.63 464.582 508.487C461.154 512.023 457.296 516.095 452.153 516.845C446.367 517.702 443.581 512.773 440.903 508.702C436.617 502.166 432.009 497.772 424.08 496.38C416.901 495.094 405.33 497.022 400.936 489.843C395.365 480.95 403.079 466.378 406.508 457.913C411.437 445.913 417.652 434.341 424.616 423.305C427.081 419.447 420.866 415.804 418.402 419.769Z" fill="black"></path><path d="M472.94 440.448C482.048 449.77 487.941 461.771 489.548 474.736C490.084 479.343 497.37 479.343 496.834 474.736C495.013 459.735 488.691 446.234 478.191 435.305C474.869 431.984 469.726 437.127 472.94 440.448Z" fill="black"></path><path d="M359.149 581.027C372.65 580.169 381.007 569.669 390.543 561.311C397.508 555.204 404.687 552.097 414.009 551.882C423.438 551.668 432.76 552.847 442.189 551.989C461.047 550.275 479.262 545.025 498.334 546.953C516.442 548.775 533.693 555.525 548.372 566.133C552.123 568.812 555.766 562.597 552.016 559.918C537.658 549.739 521.05 542.989 503.692 540.417C483.976 537.524 465.654 542.025 446.153 544.382C428.902 546.418 408.866 540.525 393.222 550.168C381.972 557.133 373.293 572.883 359.042 573.848C354.434 574.169 354.434 581.348 359.149 581.027Z" fill="black"></path><path d="M355.827 583.598C383.364 582.205 409.723 591.312 437.045 593.134C450.975 594.098 465.011 592.491 478.94 590.991C492.548 589.598 506.156 587.669 519.335 583.598C523.728 582.205 521.907 575.24 517.406 576.633C504.227 580.812 490.619 582.633 477.012 584.026C463.082 585.419 449.153 586.919 435.224 585.741C408.651 583.598 382.828 575.026 356.041 576.419C351.22 576.633 351.22 583.919 355.827 583.598Z" fill="black"></path><path d="M396.544 606.742C421.509 623.886 454.832 624.957 483.977 622.493C511.728 620.135 541.408 609.528 554.051 582.634C555.98 578.455 549.765 574.812 547.837 578.99C535.622 604.813 506.585 613.814 480.012 615.528C453.118 617.242 423.224 616.278 400.187 600.527C396.329 597.849 392.794 604.17 396.544 606.742Z" fill="black"></path><path d="M534.228 581.776C538.193 582.848 541.729 581.026 544.086 577.919C546.765 574.383 547.943 571.061 552.122 569.025C556.301 566.99 552.658 560.668 548.479 562.811C545.8 564.204 543.443 566.025 541.622 568.49C540.55 569.99 538.407 575.562 536.157 574.919C531.657 573.633 529.728 580.597 534.228 581.776Z" fill="black"></path><path d="M445.51 747.749C447.332 735.748 455.261 725.462 467.047 721.926C478.94 718.283 491.798 721.819 501.977 728.355C505.942 730.927 509.585 724.605 505.62 722.14C493.405 714.319 477.547 710.568 463.511 715.497C450.225 720.105 440.581 731.998 438.438 745.927C437.795 750.427 444.76 752.356 445.51 747.749Z" fill="black"></path><path d="M379.185 500.665C365.47 515.13 351.112 530.774 347.791 551.239C347.041 555.74 354.005 557.775 354.755 553.168C357.863 533.988 371.256 519.416 384.221 505.809C387.543 502.38 382.4 497.237 379.185 500.665Z" fill="black"></path><path d="M546.765 502.058C568.195 521.666 579.445 549.739 601.518 568.811C605.054 571.812 610.197 566.776 606.661 563.668C584.589 544.596 573.338 516.523 551.908 496.915C548.372 493.808 543.337 498.951 546.765 502.058Z" fill="black"></path><path d="M604.089 199.793C562.623 156.291 513.335 120.29 459.332 94.0383C444.224 86.6451 428.688 80.109 412.937 74.323C408.544 72.7158 406.722 79.6804 411.008 81.2877C482.155 107.539 546.658 150.077 599.053 204.937C602.16 208.365 607.304 203.222 604.089 199.793Z" fill="black"></path><path d="M481.405 206.437C434.474 174.186 385.293 145.256 334.29 119.969C330.111 117.933 326.468 124.147 330.647 126.183C381.65 151.577 430.831 180.4 477.762 212.652C481.619 215.33 485.262 209.116 481.405 206.437Z" fill="black"></path><path d="M357.541 223.366C318.968 201.829 278.466 183.936 236.678 169.685C232.285 168.185 230.357 175.149 234.75 176.65C276.002 190.686 315.861 208.365 353.898 229.581C357.97 231.831 361.613 225.616 357.541 223.366Z" fill="black"></path><path d="M235.929 317.335C239.25 341.657 223.178 363.944 223.071 388.16C223.071 392.767 230.25 392.767 230.357 388.16C230.464 363.087 246.429 340.907 243 315.406C242.25 310.799 235.286 312.727 235.929 317.335Z" fill="black"></path><path d="M649.841 242.867C664.628 289.369 671.271 338.015 669.557 386.767C669.449 391.374 676.628 391.374 676.843 386.767C678.557 337.372 671.7 287.977 656.806 240.939C655.413 236.545 648.448 238.474 649.841 242.867Z" fill="black"></path><path d="M285.86 727.712C292.396 743.356 293.896 760.071 294.646 776.893C295.289 794.144 296.039 811.288 298.289 828.431C302.896 864.647 308.789 900.756 314.04 936.865C317.147 957.545 320.147 978.331 323.254 999.011C323.897 1003.62 330.862 1001.69 330.219 997.082C324.862 960.545 319.397 924.007 314.04 887.577C308.789 851.682 303.325 816.216 302.039 779.893C301.396 761.571 300.11 743.034 292.932 725.891C291.11 721.605 284.038 723.426 285.86 727.712Z" fill="black"></path><path d="M630.769 723.212C630.769 761.035 630.555 798.966 630.662 836.789C630.769 873.969 631.412 911.15 634.948 948.223C636.876 968.903 639.769 989.475 643.841 1009.94C644.698 1014.55 651.77 1012.62 650.806 1008.01C636.234 935.151 637.841 860.469 637.841 786.537C637.841 765.428 637.841 744.32 637.948 723.319C637.948 718.498 630.769 718.498 630.769 723.212Z" fill="black"></path><path d="M336.648 973.081C351.327 951.973 367.292 931.722 384.543 912.65C400.294 895.185 417.544 874.076 440.581 866.469C444.974 864.969 443.046 858.004 438.653 859.504C414.759 867.433 397.079 888.006 380.793 906.007C362.685 926.043 345.862 947.259 330.433 969.331C327.754 973.296 333.969 976.831 336.648 973.081Z" fill="black"></path><path d="M496.727 869.255C538.3 914.686 584.053 956.045 633.341 993.011C637.091 995.797 640.627 989.582 636.984 986.796C588.231 950.259 543.015 909.114 501.87 864.112C498.656 860.683 493.62 865.826 496.727 869.255Z" fill="black"></path><path d="M422.366 903.006C430.616 909.328 438.974 915.543 447.224 921.864C451.939 925.507 454.725 929.15 454.725 935.365C454.832 940.508 453.76 945.544 452.475 950.473C450.01 960.223 446.153 969.652 442.617 979.081C440.795 983.796 438.974 988.618 437.26 993.332C436.295 995.904 435.331 998.368 434.367 1000.94C433.938 1002.12 432.759 1007.26 431.795 1007.8C433.295 1008.01 434.688 1008.23 436.188 1008.33C436.402 1008.87 436.617 1009.4 436.831 1009.94C435.974 1011.12 435.009 1012.3 434.152 1013.48C434.259 1013.48 434.474 1013.37 434.581 1013.37C439.081 1012.19 437.152 1005.23 432.652 1006.4C432.545 1006.4 432.331 1006.51 432.224 1006.51C430.616 1006.94 429.652 1008.44 429.545 1010.05C429.438 1011.55 429.866 1012.62 430.938 1013.58C432.224 1014.65 433.831 1014.98 435.331 1014.12C439.188 1012.08 440.153 1005.76 441.545 1002.01C443.796 996.011 446.153 989.903 448.403 983.903C452.903 972.01 458.046 960.116 460.404 947.58C462.225 938.151 463.297 927.543 456.01 920.043C452.046 915.971 446.903 912.757 442.403 909.328C436.831 905.149 431.366 900.97 425.795 896.792C422.366 893.899 418.723 900.22 422.366 903.006Z" fill="black"></path><path d="M510.87 891.648C508.299 903.113 504.656 914.257 499.62 924.864C495.227 934.293 491.476 943.187 495.119 953.58C498.441 963.116 504.977 971.367 509.477 980.367C514.513 990.225 518.049 1000.73 519.764 1011.65C520.514 1016.26 527.478 1014.33 526.728 1009.73C525.228 1000.3 522.335 991.189 518.478 982.51C514.299 973.188 508.299 964.938 503.799 955.723C501.227 950.366 499.834 945.008 501.334 939.115C502.727 933.758 505.727 928.829 507.87 923.793C512.156 913.935 515.478 903.863 517.728 893.363C518.799 888.97 511.835 887.041 510.87 891.648Z" fill="black"></path><path d="M220.285 802.287C200.784 830.682 179.14 857.576 155.568 882.648C147.639 891.113 133.067 902.471 143.996 914.364C149.139 919.936 155.675 924.757 161.89 929.151C168.318 933.758 175.926 936.972 182.14 941.794C189.427 947.58 189.855 960.438 190.819 969.01C191.998 979.189 192.32 989.368 191.891 999.654C191.677 1004.26 198.963 1004.26 199.177 999.654C199.82 983.26 198.748 966.331 194.998 950.366C193.498 944.151 190.819 939.115 185.569 935.365C179.462 930.972 172.497 927.865 166.39 923.472C163.068 921.114 159.747 918.65 156.639 915.971C153.746 913.614 149.782 910.935 148.067 907.507C144.639 900.864 157.496 891.327 161.568 887.041C172.819 875.041 183.533 862.719 193.82 849.968C205.392 835.717 216.321 821.038 226.714 805.93C229.178 802.073 222.857 798.43 220.285 802.287Z" fill="black"></path><path d="M688.629 795.109C696.772 811.824 704.808 828.539 712.952 845.147C720.345 860.362 731.274 877.291 730.953 894.863C730.631 910.078 719.595 922.722 720.452 938.258C721.095 950.58 727.309 961.617 733.738 971.796C741.56 984.118 750.453 996.226 752.811 1010.9C753.561 1015.51 760.525 1013.58 759.775 1008.98C757.632 996.225 750.882 985.082 743.917 974.367C737.06 963.76 729.024 952.509 727.631 939.544C726.024 924.008 737.381 911.043 738.024 895.721C738.667 879.113 729.774 863.576 722.809 849.111C713.487 829.825 704.058 810.538 694.736 791.358C692.808 787.287 686.593 790.93 688.629 795.109Z" fill="black"></path><path d="M529.3 393.946C538.622 394.268 547.622 394.91 556.623 397.589C564.659 399.946 572.695 403.054 581.16 402.518C589.089 401.982 596.16 397.911 602.911 394.16C609.125 390.732 616.304 387.41 619.733 380.767C621.876 376.588 615.661 372.945 613.518 377.124C610.304 383.338 601.732 386.66 595.839 389.767C588.231 393.839 581.588 396.303 572.802 394.696C565.409 393.303 558.552 390.196 551.158 388.696C543.872 387.196 536.479 386.981 529.193 386.66C524.693 386.553 524.693 393.732 529.3 393.946Z" fill="black"></path><path d="M551.051 386.981C561.552 388.267 573.659 388.695 584.267 387.302C589.41 386.66 594.553 385.16 599.589 383.981C603.232 383.124 606.232 382.052 607.411 378.302C608.804 373.802 601.732 371.98 600.446 376.373C600.232 377.231 591.232 378.624 590.267 378.838C585.66 379.909 581.16 380.552 576.338 380.552C567.981 380.552 559.409 380.874 551.051 379.802C546.444 379.159 546.551 386.445 551.051 386.981Z" fill="black"></path><path d="M563.694 373.587C566.159 376.052 568.837 378.409 572.373 379.052C576.123 379.588 579.552 377.873 582.552 375.838C586.41 373.266 582.767 367.051 578.909 369.623C577.409 370.587 575.373 372.302 573.445 371.98C571.623 371.766 570.016 369.837 568.837 368.552C565.516 365.123 560.48 370.266 563.694 373.587Z" fill="black"></path><path d="M309.539 405.839C319.29 391.91 334.826 383.552 351.113 379.802C360.113 377.659 367.828 377.874 376.507 380.981C386.257 384.41 396.008 388.053 405.865 391.481C410.258 393.089 412.187 386.124 407.794 384.517C396.972 380.659 386.15 376.373 375.221 372.838C366.006 369.837 356.899 370.909 347.577 373.266C330.004 377.766 313.825 387.195 303.325 402.303C300.539 405.946 306.86 409.589 309.539 405.839Z" fill="black"></path><path d="M317.147 397.482C321.754 399.304 325.611 402.625 330.111 404.768C333.754 406.483 337.505 407.875 341.362 408.84C350.148 410.983 359.256 411.304 368.256 410.447C377.471 409.59 386.793 407.875 395.686 405.518C403.186 403.59 410.365 400.697 415.83 395.018C419.044 391.696 413.901 386.553 410.687 389.875C405.222 395.446 397.936 397.589 390.543 399.304C381.864 401.232 372.971 403.054 364.077 403.482C355.827 403.911 347.577 403.375 339.755 400.804C332.254 398.446 326.361 393.303 319.075 390.41C314.682 388.696 312.861 395.768 317.147 397.482Z" fill="black"></path><path d="M334.076 387.303C341.791 395.66 352.827 402.625 364.613 402.089C375.007 401.553 384.329 395.982 389.9 387.41C392.472 383.552 386.15 379.909 383.686 383.767C379.185 390.624 371.364 394.91 363.113 394.91C353.791 394.803 345.327 388.803 339.219 382.267C336.005 378.731 330.969 383.874 334.076 387.303Z" fill="black"></path><path d="M346.505 382.053C351.006 386.017 356.684 389.767 362.792 390.196C365.363 390.41 367.828 389.875 370.078 388.589C371.685 387.624 373.292 384.624 374.792 384.089C379.186 382.588 377.257 375.517 372.864 377.124C369.649 378.303 368.471 381.838 365.471 382.91C360.97 384.517 354.863 379.803 351.648 377.017C348.113 373.91 342.969 379.053 346.505 382.053Z" fill="black"></path><path d="M305.039 577.383C312.004 596.241 321.969 613.707 334.505 629.35C337.398 632.993 342.541 627.85 339.648 624.207C327.862 609.528 318.54 593.027 312.004 575.455C310.504 571.062 303.432 572.99 305.039 577.383Z" fill="black"></path></g></svg>