<svg xmlns="http://www.w3.org/2000/svg" width="900" height="900" viewBox="0 0 900 900" fill="none"><mask id="mask0_1010_4086" style="mask-type:alpha" maskUnits="userSpaceOnUse" x="0" y="0" width="900" height="900"><rect width="900" height="900" rx="450" fill="#C4C4C4"></rect></mask><g mask="url(#mask0_1010_4086)"><rect x="3" y="3" width="894" height="894" rx="447" stroke="black" stroke-width="6"></rect><path d="M538.378 64.9706C497.484 56.0983 455.162 49.1636 413.146 53.3448C392.444 55.3844 372.251 60.2795 353.079 68.234C333.703 76.3924 315.55 86.9984 297.398 97.5025C278.021 108.822 258.645 120.244 239.472 131.87C223.359 141.558 204.391 150.532 195.519 168.073C187.258 184.492 186.544 204.072 184.709 222.021C182.567 241.907 180.732 261.895 180.222 281.986C178.998 325.225 184.097 369.383 204.697 408.034C206.227 406.504 207.858 404.872 209.388 403.343C202.861 399.161 195.213 401.609 190.216 406.912C183.893 413.439 183.281 421.699 184.607 430.368C185.423 435.773 187.054 441.076 187.462 446.583C187.87 452.599 186.748 458.412 185.015 464.123C182.159 473.709 177.978 482.99 176.856 493.086C171.655 537.243 210.102 568.653 234.985 599.452C248.651 616.38 258.747 635.757 263.948 656.867C265.274 662.17 266.395 667.575 267.007 673.082C267.619 678.181 268.129 684.3 262.928 687.257C259.053 689.501 254.056 689.297 249.671 689.399C244.164 689.501 238.657 689.603 233.15 689.807C188.992 691.948 145.548 701.942 103.94 716.526C56.6209 733.046 11.5455 755.38 -32.3063 779.55C-36.1815 781.691 -32.7142 787.606 -28.8389 785.465C47.5447 743.346 129.741 705.512 217.649 697.659C228.255 696.741 238.963 696.333 249.569 696.129C257.115 696.027 265.987 695.62 270.883 688.991C276.288 681.852 273.738 671.45 272.31 663.394C270.373 653.094 267.415 643.099 263.336 633.411C255.483 614.647 243.756 598.636 230.396 583.441C216.119 567.328 200.822 551.725 191.236 532.246C186.035 521.64 182.771 509.913 183.179 497.981C183.587 486.151 188.89 475.443 192.051 464.225C195.213 453.007 193.989 443.217 191.847 431.999C190.726 426.186 189.706 419.558 193.071 414.255C195.825 409.971 201.026 406.096 205.921 409.258C208.98 411.195 212.142 407.422 210.612 404.566C192.765 371.219 187.054 333.486 186.85 296.059C186.748 277.193 187.972 258.326 189.706 239.562C191.44 221.205 192.255 201.829 196.946 183.88C199.292 174.6 203.371 166.135 210.306 159.405C217.343 152.674 226.113 147.881 234.373 142.884C252.526 131.972 270.679 121.162 288.831 110.454C324.218 89.8539 359.198 68.6419 400.194 61.9112C445.576 54.4666 492.079 61.9112 536.44 71.5993C540.826 72.5172 542.661 65.8884 538.378 64.9706Z" fill="black"></path><path d="M530.016 77.0042C569.279 97.6044 610.071 119.53 639.543 153.49C655.146 171.54 665.956 192.65 671.361 215.902C677.582 243.029 678.5 271.685 677.48 299.424C676.358 331.548 671.463 363.366 663.101 394.368C662.285 397.53 666.568 400.385 668.812 397.734C674.727 390.901 684.517 393.247 690.126 399.161C696.143 405.484 698.692 414.764 700.222 423.127C703.689 441.483 700.936 460.452 698.284 478.706C695.633 496.655 693.593 514.196 694.307 532.348C694.613 541.221 695.123 551.011 690.738 559.067C686.76 566.308 678.704 571.917 670.341 569.163C668.608 568.551 666.466 569.775 666.058 571.611C663.203 584.664 661.061 598.228 661.061 611.689C661.061 616.584 661.775 621.683 665.344 625.355C669.22 629.434 675.339 631.168 680.438 633.207C706.647 643.507 733.264 652.38 759.983 661.252C786.599 670.124 813.318 679.201 839.222 689.909C864.309 700.209 888.478 712.446 913.464 723.052C940.081 734.372 967.309 743.754 996.17 747.222C1000.56 747.732 1000.56 740.899 996.17 740.287C946.097 734.168 901.226 709.387 855.64 689.399C807.506 668.289 757.025 653.807 707.768 636.063C701.038 633.615 694.409 631.168 687.78 628.618C681.661 626.273 670.137 624.029 668.404 616.686C666.976 610.568 668.302 603.021 668.914 596.8C669.73 588.948 671.055 581.095 672.789 573.345C671.361 574.16 669.934 574.976 668.506 575.792C681.661 580.177 694.409 569.775 698.794 557.843C701.752 549.685 701.548 540.813 701.242 532.348C700.936 523.272 700.936 514.298 701.752 505.221C703.485 486.967 707.36 468.916 708.482 450.662C709.502 434.243 708.38 415.988 700.12 401.405C693.185 389.065 675.135 379.887 664.019 392.941C665.956 394.062 667.894 395.184 669.73 396.306C684.619 341.032 689.922 280.762 680.03 224.162C675.746 199.789 666.568 177.149 651.577 157.467C637.708 139.314 620.371 124.221 601.708 111.066C580.088 95.8707 556.837 83.3271 533.585 71.0894C529.608 68.9478 526.141 74.9646 530.016 77.0042Z" fill="black"></path><path d="M661.775 660.742C700.732 686.339 728.776 724.786 756.515 761.499C784.05 797.804 811.177 835.333 829.329 877.349C839.731 901.315 846.768 926.606 848.808 952.611C849.114 956.996 856.048 956.996 855.742 952.611C852.071 905.802 832.797 862.358 808.117 822.891C795.472 802.597 781.5 783.323 767.121 764.253C752.946 745.488 738.872 726.622 723.677 708.673C706.443 688.379 687.474 669.512 665.14 654.827C661.469 652.38 658.104 658.396 661.775 660.742Z" fill="black"></path><path d="M248.855 719.381C252.119 753.443 242.125 786.485 231.009 818.303C219.893 850.121 208.879 882.449 191.644 911.513C182.466 927.116 171.554 941.495 159.112 954.651C156.053 957.914 160.948 962.707 164.007 959.546C186.851 935.377 203.78 907.026 216.629 876.432C223.36 860.319 229.275 843.798 235.088 827.379C240.901 810.858 246.714 794.337 250.691 777.306C255.178 758.338 257.524 738.758 255.688 719.279C255.382 714.996 248.447 714.996 248.855 719.381Z" fill="black"></path><path d="M23.4771 867.151C39.794 888.363 50.502 913.144 54.6832 939.557C55.3971 943.942 62.0258 942.107 61.3119 937.721C57.0288 910.799 46.0148 885.303 29.392 863.683C26.8425 860.216 20.8256 863.581 23.4771 867.151Z" fill="black"></path><path d="M759.574 834.007C767.223 844.409 779.053 861.644 767.325 873.576C759.472 881.53 746.623 882.244 739.892 891.932C731.428 904.17 744.583 916.51 751.416 926.096C761.308 939.863 771.2 953.631 781.092 967.5C783.642 971.069 789.659 967.602 787.007 964.033C777.115 950.265 767.223 936.498 757.331 922.628C754.985 919.365 752.538 916 750.192 912.736C748.152 909.881 745.399 906.821 744.175 903.456C741.626 896.114 750.09 891.116 755.495 888.465C765.489 883.468 775.891 878.981 778.339 866.845C780.99 853.18 773.138 841.248 765.489 830.744C762.94 826.971 757.025 830.438 759.574 834.007Z" fill="black"></path><path d="M303.414 703.981C331.867 763.538 326.36 833.191 325.238 897.337C324.83 917.733 324.422 938.231 323.912 958.627C323.81 963.013 330.643 963.013 330.847 958.627C331.765 922.22 332.479 885.813 332.887 849.406C333.193 816.772 332.683 783.934 326.258 751.81C322.689 734.066 317.182 716.831 309.431 700.514C307.493 696.537 301.579 700.004 303.414 703.981Z" fill="black"></path><path d="M330.643 784.751C345.941 811.266 361.34 837.883 380.002 862.256C389.282 874.29 399.277 885.814 410.392 896.216C420.692 905.904 432.012 915.388 445.678 919.875C458.935 924.26 471.887 921.507 481.575 911.309C493.303 899.071 503.399 884.692 514.005 871.536C534.605 846.041 555.613 820.852 574.989 794.541C595.895 766.19 614.456 736.004 626.694 702.86C628.223 698.679 621.595 696.945 620.065 701.025C598.955 758.134 558.876 805.249 521.042 852.058C510.639 865.01 500.135 877.859 489.733 890.811C480.963 901.621 472.397 916.102 456.59 915.184C442.108 914.368 429.361 904.17 419.061 894.992C408.353 885.406 398.665 874.902 389.69 863.684C369.294 838.189 352.875 809.736 336.66 781.487C334.315 777.51 328.4 780.977 330.643 784.751Z" fill="black"></path><path d="M619.861 717.137C643.826 778.835 601.81 840.84 591.306 900.6C588.247 917.733 587.737 935.07 590.898 952.305C591.714 956.69 598.343 954.854 597.527 950.469C591.408 918.039 600.587 885.609 610.683 854.913C620.473 825.441 631.487 796.07 633.424 764.762C634.444 747.935 632.506 731.006 626.388 715.301C624.858 711.222 618.229 712.956 619.861 717.137Z" fill="black"></path><path d="M669.832 452.191C655.554 392.533 636.892 333.996 614.15 277.09C604.156 252.207 593.856 226.508 575.805 206.112C559.692 187.857 535.829 174.09 510.946 175.926C497.484 176.945 485.043 182.35 472.805 187.755C459.037 193.874 445.27 198.565 430.381 200.809C402.336 204.888 373.884 202.543 345.839 206.622C321.567 210.089 297.398 218.757 280.673 237.42C265.376 254.451 258.033 276.784 254.464 299.016C250.283 324.613 250.283 350.823 249.467 376.726C248.447 408.544 247.223 440.464 246.51 472.282C245.796 502.876 245.796 533.572 248.243 564.166C250.487 591.803 253.852 620.562 263.234 646.771C271.189 669.104 284.344 688.685 300.049 706.327C308.514 715.914 316.774 725.092 328.706 730.089C339.516 734.678 351.244 736.412 362.768 738.349C417.531 747.935 469.541 779.651 526.753 771.493C580.7 763.844 617.21 719.075 637.096 671.45C660.143 616.278 670.75 554.682 672.279 495.125C672.687 480.236 672.381 465.449 671.565 450.56C671.361 446.175 664.427 446.175 664.631 450.56C667.996 508.995 661.775 567.838 645.866 624.233C631.691 674.305 608.949 727.539 560.712 753.341C509.416 780.671 452.307 756.808 401.52 741.103C389.079 737.228 376.637 733.862 363.787 731.619C352.672 729.681 341.148 728.151 330.746 723.562C319.018 718.463 310.757 708.265 302.599 698.883C294.95 690.01 287.914 680.628 281.897 670.532C269.353 649.32 263.54 625.967 259.563 601.899C254.77 572.631 253.24 542.954 252.934 513.38C252.628 483.907 253.75 454.435 254.77 424.963C255.688 396 256.3 366.935 257.625 337.973C258.645 315.231 260.787 291.98 268.843 270.462C277.308 247.924 293.523 230.179 316.06 221.205C340.128 211.619 366.439 211.109 391.934 210.395C405.702 209.987 419.469 209.375 433.134 207.336C446.494 205.296 459.037 201.319 471.479 195.914C483.921 190.509 496.464 184.186 510.232 182.962C522.775 181.84 535.319 185.206 546.333 191.121C569.687 203.766 584.27 226.61 595.284 249.964C607.317 275.765 617.21 302.79 626.694 329.713C636.28 357.145 645.05 384.884 652.699 412.827C656.472 426.492 660.042 440.26 663.305 454.129C664.223 458.412 670.852 456.577 669.832 452.191Z" fill="black"></path><path d="M511.252 396.204C517.269 389.167 523.489 382.538 532.362 379.275C541.03 376.113 550.616 375.502 559.693 374.89C578.457 373.666 598.547 375.298 613.13 388.453C616.394 391.411 621.289 386.515 618.025 383.558C602.014 369.179 580.395 366.629 559.693 368.057C549.698 368.669 539.194 369.383 529.71 372.952C519.92 376.623 513.087 383.558 506.357 391.309C503.501 394.674 508.396 399.467 511.252 396.204Z" fill="black"></path><path d="M298.927 415.172C327.89 393.246 366.948 387.841 400.704 400.997C404.783 402.629 406.619 396 402.54 394.368C367.254 380.601 325.646 386.312 295.46 409.257C291.992 411.909 295.358 417.824 298.927 415.172Z" fill="black"></path><path d="M323.097 442.809C336.252 431.999 352.977 425.676 370.11 425.472C378.778 425.37 386.631 426.696 393.157 432.815C398.46 437.812 402.744 443.523 408.454 447.908C411.922 450.559 415.389 444.645 411.922 441.993C405.293 436.894 400.704 429.551 393.973 424.554C386.631 419.149 377.35 418.232 368.376 418.538C349.917 419.149 332.377 426.186 318.201 437.914C314.836 440.769 319.731 445.664 323.097 442.809Z" fill="black"></path><path d="M317.997 444.033C346.756 452.09 376.84 454.333 406.517 450.764C410.902 450.254 410.902 443.319 406.517 443.829C377.452 447.399 348.082 445.257 319.833 437.404C315.55 436.181 313.714 442.809 317.997 444.033Z" fill="black"></path><path d="M510.741 440.974C517.268 435.773 521.755 428.838 527.262 422.617C529.913 419.66 532.871 416.702 536.338 414.765C541.233 412.011 546.842 411.705 552.349 411.501C572.133 410.685 592.835 412.215 609.458 423.943C613.13 426.492 616.495 420.476 612.926 418.028C594.875 405.382 572.031 403.649 550.615 404.771C540.621 405.28 532.361 407.728 525.12 414.765C518.186 421.495 513.29 430.062 505.744 436.181C502.48 438.934 507.376 443.727 510.741 440.974Z" fill="black"></path><path d="M515.127 438.322C532.158 443.625 550.004 446.277 567.851 445.767C583.862 445.359 598.343 441.993 610.785 431.489C614.15 428.634 609.255 423.739 605.89 426.594C593.856 436.69 579.171 438.832 563.976 438.934C547.965 439.036 532.158 436.384 516.861 431.591C512.781 430.368 510.946 436.996 515.127 438.322Z" fill="black"></path><path d="M530.015 422.719C538.276 427.308 547.556 434.039 557.55 432.407C566.014 430.98 572.847 424.147 574.479 415.784C575.397 411.501 568.768 409.564 567.85 413.949C566.524 420.578 560.915 425.983 553.879 425.779C546.74 425.575 539.601 420.17 533.483 416.804C529.607 414.663 526.038 420.578 530.015 422.719Z" fill="black"></path><path d="M544.395 418.334C550.31 418.742 557.245 422.821 561.936 416.804C564.587 413.337 559.794 408.442 557.041 411.909C555.613 413.643 553.676 413.439 551.636 412.929C549.188 412.317 546.843 411.603 544.395 411.501C540.01 411.093 540.01 418.028 544.395 418.334Z" fill="black"></path><path d="M346.655 428.838C350.224 437.812 357.771 444.849 367.561 446.582C371.232 447.296 375.515 447.5 377.963 444.237C381.43 439.75 382.96 432.611 385.101 427.41C386.733 423.331 380.104 421.495 378.473 425.574C377.147 428.736 375.923 431.999 374.597 435.161C373.985 436.588 373.068 439.546 371.436 440.158C370.416 440.464 367.561 439.648 366.541 439.24C360.524 437.404 355.629 432.815 353.385 427.002C351.652 422.923 345.023 424.656 346.655 428.838Z" fill="black"></path><path d="M361.136 424.249C358.484 428.736 362.359 434.345 367.255 434.651C372.252 434.855 375.719 430.265 376.433 425.676C376.637 423.841 376.025 422.005 373.985 421.393C372.354 420.985 370.008 421.903 369.702 423.841C369.498 425.268 369.192 426.9 367.764 427.716C367.255 428.022 367.56 427.716 367.153 427.512C366.541 427.308 367.356 427.206 366.949 427.716C369.396 423.841 363.379 420.373 361.136 424.249Z" fill="black"></path><path d="M429.361 431.489C433.236 433.223 435.582 436.69 435.276 441.075C434.97 445.461 441.905 445.461 442.211 441.075C442.619 434.651 438.845 428.226 432.93 425.574C428.749 423.739 425.282 429.756 429.361 431.489Z" fill="black"></path><path d="M409.984 524.088C398.46 541.424 385.917 558.047 372.353 573.854C366.03 581.197 359.096 587.927 352.977 595.372C346.756 602.919 347.776 611.383 347.98 620.561C348.082 624.947 354.914 625.049 354.914 620.561C354.812 615.768 353.997 610.669 355.118 605.978C356.342 600.981 360.319 597.616 363.685 594.046C370.008 587.214 376.228 580.279 382.143 573.14C394.279 558.659 405.599 543.464 416.103 527.657C418.346 523.884 412.432 520.416 409.984 524.088Z" fill="black"></path><path d="M538.888 528.677C556.53 547.237 578.66 566.104 586.207 591.497C587.431 595.78 594.161 593.945 592.836 589.661C584.881 562.942 562.241 543.362 543.681 523.782C540.723 520.62 535.828 525.515 538.888 528.677Z" fill="black"></path><path d="M419.57 569.367C430.38 567.736 441.496 570.285 450.471 576.302C458.119 581.503 463.524 592.007 474.028 590.783C483.308 589.662 489.019 580.789 494.832 574.466C502.379 566.308 511.251 559.679 522.367 557.742C526.752 556.926 524.917 550.297 520.531 551.113C510.741 552.847 502.277 557.946 495.036 564.574C491.365 567.94 488.102 571.815 484.838 575.588C481.473 579.464 476.476 585.174 470.765 583.951C465.768 582.829 462.198 576.914 458.425 573.753C454.754 570.693 450.777 568.246 446.391 566.308C437.315 562.331 427.525 561.209 417.735 562.739C413.35 563.453 415.185 570.081 419.57 569.367Z" fill="black"></path><path d="M462.708 444.135C469.337 476.667 470.867 510.014 467.501 543.056C467.093 547.441 473.926 547.441 474.436 543.056C477.903 509.403 476.17 475.443 469.439 442.299C468.521 437.914 461.892 439.75 462.708 444.135Z" fill="black"></path><path d="M378.472 618.114C392.953 614.341 407.842 612.199 422.834 611.995C437.621 611.791 451.796 614.647 466.481 615.565C481.268 616.482 494.73 609.956 509.313 608.834C524.406 607.712 539.398 610.873 554.083 614.035C553.777 611.893 553.573 609.854 553.267 607.712C541.947 614.545 529.301 618.318 516.146 618.828C511.761 619.032 511.659 625.865 516.146 625.763C530.627 625.151 544.395 621.072 556.734 613.627C559.182 612.199 558.876 608.018 555.918 607.304C541.335 604.143 526.344 600.981 511.251 601.695C496.056 602.511 481.88 609.446 466.583 608.528C458.935 608.12 451.49 606.59 443.944 605.774C436.295 605.061 428.646 604.755 421.1 604.959C406.109 605.366 391.321 607.508 376.84 611.281C372.353 612.505 374.189 619.236 378.472 618.114Z" fill="black"></path><path d="M397.542 633.207C403.457 639.02 409.372 644.833 415.389 650.544C420.59 655.643 425.893 660.946 432.522 664.107C445.983 670.532 463.626 669.818 478.209 669.104C506.356 667.676 531.749 654.113 546.536 629.74C548.882 625.966 542.865 622.499 540.621 626.272C526.752 649.218 502.787 661.354 476.374 662.373C463.116 662.883 446.595 663.801 434.561 657.376C428.545 654.215 423.853 649.014 419.06 644.323C413.553 639.02 408.046 633.615 402.641 628.312C399.174 625.252 394.279 630.045 397.542 633.207Z" fill="black"></path><path d="M401.826 633.717C417.633 635.553 433.542 637.389 449.349 639.224C457.1 640.142 464.85 641.06 472.601 641.876C479.535 642.692 486.368 643.405 493.303 641.672C497.586 640.652 495.75 634.023 491.467 635.043C484.532 636.675 477.496 635.553 470.561 634.737C462.81 633.819 455.06 632.901 447.309 632.086C432.114 630.352 416.919 628.618 401.826 626.885C397.441 626.375 397.543 633.207 401.826 633.717Z" fill="black"></path><path d="M444.046 684.707C464.442 691.54 486.368 690.418 506.152 682.056C510.232 680.322 506.764 674.407 502.685 676.141C484.634 683.789 464.442 684.299 445.882 678.079C441.599 676.651 439.865 683.382 444.046 684.707Z" fill="black"></path><path d="M354.405 191.427C323.199 173.478 289.545 154.816 252.221 158.181C247.835 158.589 247.835 165.422 252.221 165.116C288.322 161.954 320.65 180.107 350.938 197.444C354.813 199.585 358.281 193.67 354.405 191.427Z" fill="black"></path><path d="M382.858 181.637C376.433 166.441 363.277 155.835 350.53 145.943C335.64 134.419 319.833 124.017 303.517 114.737C299.641 112.596 296.174 118.51 300.049 120.652C315.346 129.32 330.032 138.907 344.105 149.513C356.954 159.303 370.416 169.705 376.943 185.002C378.676 189.183 384.591 185.716 382.858 181.637Z" fill="black"></path><path d="M434.765 170.113C420.59 145.229 401.418 123.609 378.472 106.477C374.903 103.825 371.435 109.842 375.005 112.391C397.033 128.81 415.287 149.716 428.749 173.478C430.992 177.455 436.907 173.988 434.765 170.113Z" fill="black"></path><path d="M544.395 167.257C561.732 150.124 585.901 143.598 608.847 137.581C613.13 136.459 611.294 129.83 607.011 130.952C582.842 137.275 557.754 144.413 539.602 162.362C536.339 165.422 541.234 170.317 544.395 167.257Z" fill="black"></path><path d="M601.708 204.378C623.226 235.686 638.727 270.564 647.599 307.481C648.619 311.764 655.248 309.928 654.228 305.645C645.254 268.218 629.447 232.627 607.623 200.911C605.175 197.239 599.158 200.707 601.708 204.378Z" fill="black"></path><path d="M629.549 201.727C638.625 201.319 643.826 211.109 647.191 218.146C651.373 226.712 654.024 236.094 655.35 245.578C655.962 249.862 662.794 249.964 662.285 245.578C660.653 233.647 657.287 222.123 651.577 211.517C647.089 203.052 640.053 194.384 629.651 194.894C625.164 194.996 625.164 201.829 629.549 201.727Z" fill="black"></path><path d="M517.676 135.541C502.175 111.372 482.9 89.8536 460.567 71.7011C457.201 68.9476 452.204 73.7407 455.671 76.5961C477.597 94.3408 496.464 115.247 511.659 139.008C514.106 142.68 520.123 139.212 517.676 135.541Z" fill="black"></path><path d="M473.213 136.153C449.145 115.247 424.568 95.0548 399.379 75.4745C395.911 72.823 391.016 77.6161 394.484 80.3696C419.571 99.9499 444.25 120.244 468.318 141.048C471.683 143.904 476.578 139.11 473.213 136.153Z" fill="black"></path><path d="M237.025 247.414C222.645 279.028 214.691 313.09 213.875 347.865C213.773 352.25 220.606 352.25 220.81 347.865C221.626 314.415 229.172 281.374 243.042 250.881C244.877 246.802 238.86 243.335 237.025 247.414Z" fill="black"></path><path d="M227.336 430.776C218.158 436.589 209.184 443.421 205.003 453.823C200.516 465.041 205.411 476.055 208.674 486.865C212.243 498.695 215.201 510.933 219.688 522.456C221.422 526.944 223.767 531.329 227.438 534.592C230.498 537.244 237.127 538.977 238.452 543.057C239.778 547.238 246.407 545.504 245.081 541.221C242.634 533.164 232.843 532.145 228.662 525.21C223.155 516.236 221.218 504.406 218.158 494.412C216.526 489.109 214.895 483.704 213.263 478.401C211.631 473.098 209.388 467.693 209.898 462.084C210.918 450.254 221.524 442.504 230.702 436.691C234.577 434.345 231.11 428.43 227.336 430.776Z" fill="black"></path><path d="M667.384 439.75C670.341 440.259 675.848 438.628 678.092 440.463C680.335 442.299 682.273 447.806 683.293 450.56C686.454 458.922 683.089 466.061 681.967 474.423C680.845 482.276 680.437 489.72 676.868 497.063C673.707 503.59 669.117 508.994 663.407 513.482C659.939 516.235 664.834 521.028 668.302 518.377C675.236 512.87 680.641 505.833 684.109 497.675C687.882 488.7 687.576 479.318 689.718 470.038C692.063 460.452 692.063 452.803 687.678 443.829C686.046 440.565 684.211 435.874 680.947 433.835C677.072 431.387 673.197 433.835 669.118 433.121C664.936 432.305 662.999 438.934 667.384 439.75Z" fill="black"></path></g></svg>