<svg xmlns="http://www.w3.org/2000/svg" width="900" height="900" viewBox="0 0 900 900" fill="none"><mask id="mask0_1011_3273" style="mask-type:alpha" maskUnits="userSpaceOnUse" x="0" y="0" width="900" height="900"><rect width="900" height="900" rx="450" fill="#C4C4C4"></rect></mask><g mask="url(#mask0_1011_3273)"><rect x="3" y="3" width="894" height="894" rx="447" stroke="black" stroke-width="6"></rect><path d="M614.762 74.9178C564.612 60.8313 512.616 52.0169 460.46 53.0878C413.279 54.0763 366.098 63.3026 323.249 83.897C286.178 101.691 252.317 127.392 226.56 160.179C213.721 176.489 202.969 194.448 194.945 213.806C185.477 236.707 180.101 261.174 177.533 285.887C174.805 311.918 174.965 338.361 176.731 364.475C178.335 387.376 181.786 410.771 191.896 431.448C194.464 436.638 197.433 441.58 200.803 446.276C201.846 444.876 202.809 443.558 203.852 442.157C189.649 436.308 172.558 445.04 168.626 460.198C163.571 479.886 178.656 499.41 185.958 516.379C194.624 536.562 199.92 558.227 201.926 580.14C203.37 596.45 204.012 617.704 218.536 628.083C229.769 636.074 249.107 635.909 254.403 620.752C252.879 621.164 251.354 621.576 249.91 621.987C263.952 634.921 267.242 654.691 267.884 673.226C268.526 692.255 268.606 712.85 263.47 731.302C260.822 740.858 256.409 749.837 249.348 756.757C241.806 764.171 232.177 768.867 222.628 772.903C202.648 781.47 182.829 790.202 163.651 800.747C141.505 812.856 84.6807 860.5 73.1801 880C70.3717 882.059 73.0999 886.92 75.9083 884.778C87.6807 866 141.746 819.199 162.528 807.666C183.07 796.216 204.333 786.825 225.918 777.516C235.306 773.397 244.614 768.784 252.237 761.617C259.218 755.11 264.112 746.625 267.242 737.563C273.821 718.616 273.741 696.951 273.42 677.016C273.019 656.009 269.89 632.944 253.761 618.198C252.157 616.715 249.91 617.374 249.268 619.434C245.095 631.378 228.325 629.154 220.462 622.729C208.185 612.596 208.586 592.249 207.142 577.668C205.376 559.792 201.445 542.164 195.266 525.276C192.217 516.956 188.686 508.883 184.755 501.057C180.662 493.066 176.249 484.993 174.163 476.179C171.996 467.035 173.2 456.985 180.743 450.889C186.921 445.946 195.186 444.628 202.407 447.594C204.494 448.5 206.821 445.37 205.457 443.475C191.816 424.693 185.958 401.792 183.39 378.809C180.662 354.425 180.181 329.382 181.465 304.834C182.829 279.132 186.761 253.512 194.945 229.129C201.605 209.523 211.154 190.988 222.949 174.183C246.299 140.738 278.235 114.13 313.621 95.018C353.981 73.1879 398.835 62.0669 444.091 59.2661C494.883 56.1357 545.836 62.9731 595.183 75.4121C601.282 76.9773 607.3 78.5424 613.318 80.2724C616.688 81.2609 618.132 75.9063 614.762 74.9178Z" fill="black"></path><path d="M618.801 82.3809C631.951 131.124 676.661 160.435 703.208 201.027C734.768 249.193 741.179 309.627 732.549 365.616C727.289 399.703 716.851 432.802 704.194 464.913C703.537 466.559 705.18 468.535 706.906 468.453C714.139 468.124 719.974 472.981 723.098 479.239C726.96 486.979 725.81 496.035 723.591 504.104C718.906 521.395 711.756 538.274 705.674 555.152C702.55 563.88 699.427 572.69 696.304 581.418C693.51 589.322 690.962 597.391 687.592 605.048C685.044 610.811 681.757 616.904 676.25 620.362C670.826 623.738 663.675 622.668 660.47 629.255C658.991 632.219 658.58 635.759 657.922 638.97C656.936 643.663 655.868 648.357 654.881 653.132C652.991 662.024 651.018 670.916 649.128 679.809C647.484 687.713 645.676 695.782 646.251 703.851C646.745 711.343 649.128 718.424 652.416 725.176C655.95 732.257 660.388 738.926 664.908 745.43C668.607 750.864 672.881 756.299 678.88 759.263C686.113 762.721 694.167 761.156 701.893 762.144C710.358 763.215 718.331 766.591 725.81 770.707C742.823 780.011 758.767 791.868 774.63 802.983C791.314 814.757 807.669 826.86 823.778 839.375C826.573 841.516 830.518 837.646 827.723 835.423C799.286 813.275 770.027 792.115 739.782 772.601C726.467 764.038 712.331 756.546 696.14 756.216C691.619 756.134 686.935 756.381 682.661 754.817C678.962 753.417 676.086 750.782 673.538 747.818C668.36 741.643 663.84 734.397 659.895 727.481C655.785 720.236 652.416 712.414 651.84 704.015C651.183 694.794 653.566 685.655 655.539 676.68C657.429 667.788 659.319 658.895 661.292 650.003C662.196 645.804 663.1 641.605 664.004 637.406C664.333 635.841 664.579 634.03 665.155 632.548C666.305 629.831 668.278 629.09 670.99 628.431C683.976 625.138 690.14 614.352 694.578 602.578C701.153 585.452 706.989 567.997 713.153 550.624C716.769 540.579 720.303 530.534 723.919 520.489C727.043 511.597 730.577 502.622 730.988 493.154C731.727 479.074 722.687 462.36 706.742 463.101C707.646 464.254 708.55 465.407 709.454 466.642C731.481 410.9 746.932 350.548 739.782 290.196C736.494 262.861 728.851 235.855 715.701 211.566C703.537 189.006 686.113 170.315 669.1 151.461C650.361 130.712 631.54 108.811 624.061 81.2282C623.157 77.4408 617.814 78.9228 618.801 82.3809Z" fill="black"></path><path d="M613.711 274.473C592.052 311.232 542.175 315.58 504.271 307.953C454.318 297.886 405.051 268.677 352.657 279.354C341.37 281.642 330.387 285.989 321.083 292.929C312.084 299.64 305.373 308.639 300.415 318.63C290.12 339.679 286.535 363.245 274.333 383.531C268.079 393.98 260.681 403.894 255.648 415.105C250.462 426.621 248.86 438.595 250.538 451.102C252.369 464.677 257.021 477.642 260.148 490.912C263.122 503.42 264.952 516.232 266.249 529.045C270.901 577.625 266.63 628.875 284.934 675.092C301.864 718.029 338.777 748.992 382.4 762.949C432.658 778.964 487.645 770.728 535.235 750.06C558.419 739.993 579.087 726.342 593.043 704.759C599.755 694.31 604.864 683.023 609.669 671.583C614.931 658.924 619.965 646.187 624.846 633.375C644.522 582.049 661.224 528.435 661.682 472.99C661.91 446.45 658.478 419.605 650.013 394.437C641.7 369.575 626.829 347.382 619.583 322.138C616.075 309.936 614.931 297.352 618.134 284.997C618.973 281.794 614.016 280.421 613.177 283.625C606.847 307.953 616.304 331.671 626.524 353.483C632.015 365.152 637.963 376.668 642.539 388.794C647.191 401.072 650.623 413.885 652.911 426.85C662.444 480.54 652.454 535.451 636.057 586.777C627.668 612.86 617.677 638.408 607.381 663.804C598.077 686.836 587.4 710.021 567.418 725.884C547.132 742.052 520.897 751.814 496.035 758.449C470.257 765.313 443.336 768.058 416.795 765.084C371.57 759.974 327.108 736.485 302.093 697.666C275.248 655.949 275.858 604.394 273.341 556.576C272.045 532.324 270.062 507.919 263.808 484.354C260.3 470.931 255.495 457.508 255.038 443.476C254.58 430.511 258.775 418.918 265.181 407.86C271.206 397.412 278.527 387.726 283.866 376.896C288.899 366.753 292.255 356 295.687 345.247C299.195 334.569 302.78 323.816 308.652 314.131C314.829 303.987 323.524 296.132 334.124 290.87C356.775 279.659 383.697 280.955 407.872 285.913C433.65 291.251 458.283 300.937 483.527 308.106C521.049 318.706 567.418 322.443 600.288 297.2C607.457 291.709 613.482 284.921 618.058 277.066C619.812 274.244 615.389 271.651 613.711 274.473Z" fill="black"></path><path d="M257.398 746.652C260.71 768.701 263.325 790.925 267.421 812.887C269.948 826.308 274.742 838.248 281.539 850.014C288.163 861.692 295.571 873.022 299.057 886.182C300.016 889.842 305.681 888.273 304.722 884.613C301.41 872.237 294.787 861.256 288.424 850.188C281.191 837.812 275.787 825.524 273.086 811.318C268.99 789.443 266.375 767.132 263.063 745.083C262.453 741.422 256.788 742.991 257.398 746.652Z" fill="black"></path><path d="M650.54 741.51C639.297 800.076 605.656 851.147 566.264 894.897C563.736 897.686 567.92 901.869 570.447 899.08C610.45 854.633 644.788 802.69 656.204 743.166C656.989 739.418 651.324 737.762 650.54 741.51Z" fill="black"></path><path d="M654.2 772.884C655.246 790.751 653.154 808.007 649.494 825.437C646.008 841.996 643.48 858.555 642.435 875.462C642.173 879.21 648.1 879.21 648.361 875.462C649.494 858.032 652.37 840.95 655.943 823.781C659.429 806.961 661.172 790.14 660.214 772.884C659.865 769.137 654.026 769.137 654.2 772.884Z" fill="black"></path><path d="M256.265 776.022C251.908 808.443 250.252 841.212 251.21 873.894C251.298 877.641 257.224 877.728 257.137 873.894C256.178 841.212 257.834 808.443 262.192 776.022C262.627 772.275 256.788 772.275 256.265 776.022Z" fill="black"></path><path d="M725.229 826.744C745.709 837.464 753.466 861.692 770.286 876.508C773.162 879.035 777.258 874.852 774.469 872.325C757.213 857.16 749.37 832.758 728.192 821.689C724.88 819.946 721.917 825.001 725.229 826.744Z" fill="black"></path><path d="M298.356 422.96C304.457 414.724 310.253 404.047 319.1 398.479C326.65 393.675 335.878 392.759 344.649 393.141C354.639 393.522 364.63 395.429 374.392 397.412C385.45 399.623 396.356 402.292 407.109 405.496C410.313 406.411 411.685 401.454 408.482 400.538C396.737 397.106 384.84 394.208 372.867 391.92C362.418 389.938 351.741 387.878 341.14 387.955C332.065 388.031 322.608 389.709 315.134 394.971C306.287 401.225 300.339 411.749 293.933 420.367C291.95 423.036 296.449 425.553 298.356 422.96Z" fill="black"></path><path d="M497.636 409.538C504.957 405.267 510.143 398.556 518.151 395.276C526.54 391.844 535.768 391.234 544.767 392.149C563.071 394.056 581.451 400.996 597.924 409.08C600.898 410.529 603.491 406.106 600.517 404.657C583.205 396.115 564.139 389.023 544.767 386.963C535.692 386.048 526.235 386.658 517.693 389.861C513.651 391.387 509.838 393.446 506.406 396.039C502.593 399.013 499.313 402.521 495.043 404.962C492.221 406.716 494.814 411.216 497.636 409.538Z" fill="black"></path><path d="M305.524 447.136C313.608 445.458 321.311 442.408 328.251 437.908C331.836 435.544 335.115 432.646 339.233 431.273C343.428 429.9 348.004 429.824 352.427 429.595C369.892 428.604 389.339 428.299 403.525 440.196C406.041 442.331 409.702 438.671 407.185 436.535C392.619 424.333 373.476 423.342 355.325 424.257C346.402 424.714 338.013 424.867 330.463 430.129C322.226 435.773 314.142 440.196 304.228 442.179C300.872 442.865 302.245 447.823 305.524 447.136Z" fill="black"></path><path d="M323.752 442.484C338.7 446.679 354.105 449.119 369.587 449.653C377.213 449.882 384.84 449.729 392.466 449.043C397.652 448.585 404.364 448.433 407.033 443.17C408.558 440.196 404.059 437.603 402.61 440.577C401.237 443.247 397.957 443.399 395.288 443.628C391.932 444.009 388.653 444.238 385.297 444.391C378.586 444.696 371.951 444.696 365.24 444.314C351.588 443.552 338.166 441.187 325.048 437.527C321.921 436.612 320.549 441.569 323.752 442.484Z" fill="black"></path><path d="M497.941 442.027C504.957 437.679 511.974 433.256 519.142 428.985C525.777 425.019 532.946 421.435 540.954 422.121C549.114 422.808 556.817 427.155 564.139 430.511C572.146 434.171 580.231 437.832 588.238 441.569C591.213 442.942 593.882 438.518 590.831 437.146C582.137 433.18 573.367 429.138 564.673 425.172C557.122 421.74 549.343 417.698 540.954 417.012C533.251 416.402 526.006 419.3 519.371 422.96C511.211 427.536 503.356 432.722 495.348 437.603C492.526 439.281 495.119 443.781 497.941 442.027Z" fill="black"></path><path d="M504.194 440.349C518.151 445.23 532.717 448.281 547.513 449.196C559.715 449.959 575.426 451.179 585.95 443.705C588.619 441.798 586.026 437.299 583.357 439.282C578.4 442.866 572.604 443.858 566.579 444.239C559.715 444.62 552.851 444.544 546.064 444.01C532.184 442.942 518.608 439.968 505.491 435.392C502.364 434.248 501.068 439.282 504.194 440.349Z" fill="black"></path><path d="M345.717 431.35C350.445 439.205 359.368 445.23 368.749 444.772C377.214 444.391 384.23 438.443 385.222 429.977C385.603 426.698 380.417 426.698 380.036 429.977C379.273 436.765 372.257 440.273 366.003 439.51C359.368 438.748 353.496 434.4 350.064 428.757C348.462 425.935 343.962 428.528 345.717 431.35Z" fill="black"></path><path d="M358.833 430.129C360.282 431.273 361.121 432.875 362.494 434.095C363.867 435.315 365.773 436.078 367.604 436.154C371.493 436.23 374.849 433.485 375.612 429.671C376.222 426.468 371.264 425.019 370.654 428.299C370.273 430.434 368.29 431.807 366.231 430.51C364.706 429.519 363.943 427.612 362.57 426.545C359.901 424.485 356.24 428.146 358.833 430.129Z" fill="black"></path><path d="M519.524 426.24C520.439 435.773 527.455 442.865 536.989 443.857C541.488 444.315 547.284 444.696 550.869 441.493C554.987 437.832 557.275 431.655 559.334 426.697C560.631 423.647 555.597 422.274 554.377 425.325C552.852 428.909 551.174 432.57 548.962 435.849C546.445 439.51 542.175 439.129 538.209 438.823C531.192 438.29 525.32 433.485 524.634 426.24C524.329 423.037 519.219 422.96 519.524 426.24Z" fill="black"></path><path d="M528.981 423.113C530.277 428.223 531.955 435.011 538.59 434.629C544.386 434.324 547.132 428.147 548.733 423.418C549.801 420.291 544.844 418.919 543.776 422.046C542.937 424.41 541.565 428.757 538.743 429.367C535.082 430.13 534.548 424.105 533.938 421.741C533.175 418.537 528.218 419.834 528.981 423.113Z" fill="black"></path><path d="M525.024 530.493C536.845 551.771 547.294 573.888 556.064 596.615C557.208 599.666 562.242 598.369 561.021 595.242C552.098 572.058 541.574 549.56 529.524 527.824C527.846 525.002 523.423 527.595 525.024 530.493Z" fill="black"></path><path d="M379.867 552.885C368.046 574.163 357.597 596.28 348.827 619.007C347.683 622.057 342.65 620.761 343.87 617.634C352.793 594.449 363.317 571.951 375.367 550.216C377.045 547.394 381.468 549.987 379.867 552.885Z" fill="black"></path><path d="M470.187 434.234C471.483 440.564 472.093 447.047 471.941 453.529C471.788 459.478 470.721 465.198 469.958 471.147C469.272 476.409 469.805 481.213 472.17 486.018C474.991 491.814 476.898 496.695 476.288 503.254C475.983 506.533 481.169 506.533 481.474 503.254C481.931 497.915 481.169 492.729 478.957 487.848C477.661 485.027 475.83 482.357 475.22 479.307C474.534 475.951 474.991 472.443 475.525 469.164C477.432 456.961 477.661 445.14 475.296 432.938C474.534 429.582 469.577 430.955 470.187 434.234Z" fill="black"></path><path d="M382.857 647.484C391.322 655.263 401.694 660.754 413.058 662.889C426.099 665.406 439.827 664.567 453.097 664.643C466.519 664.719 480.323 665.787 493.67 664.338C504.423 663.118 514.795 659.152 521.201 650.077C523.108 647.331 518.684 644.814 516.778 647.484C510.295 656.712 498.703 659.152 488.102 659.61C475.976 660.144 463.774 659.61 451.571 659.533C439.522 659.457 427.09 660.22 415.193 658.084C404.44 656.178 394.602 651.297 386.518 643.899C384.001 641.611 380.416 645.196 382.857 647.484Z" fill="black"></path><path d="M415.492 683.844C439.197 686.197 463.076 685.412 486.607 681.665C486.085 679.748 485.562 677.917 485.039 676C480.071 677.83 474.929 677.743 469.7 677.743C464.297 677.743 458.98 677.743 453.577 677.743C442.509 677.743 431.528 677.656 420.459 677.656C417.845 677.656 416.712 680.793 418.368 682.711C424.381 689.334 436.669 687.94 444.775 688.201C456.714 688.55 468.654 688.288 480.594 687.417C484.341 687.155 484.341 681.229 480.594 681.491C470.397 682.275 460.113 682.536 449.917 682.449C445.123 682.362 440.243 682.188 435.449 681.926C431.179 681.665 425.688 682.013 422.551 678.527C421.854 680.183 421.156 681.839 420.459 683.582C432.05 683.582 443.642 683.669 455.233 683.669C465.342 683.669 476.934 685.325 486.52 681.752C490.094 680.445 488.699 675.477 484.952 676.087C461.943 679.748 438.587 680.445 415.404 678.092C411.744 677.569 411.744 683.408 415.492 683.844Z" fill="black"></path><path d="M346.861 635.739C344.954 660.22 343.276 686.15 354.106 708.953C359.292 719.859 367.147 729.239 375.155 738.086C384.383 748.306 393.84 758.449 403.144 768.592C405.356 771.032 409.017 767.372 406.805 764.931C397.882 755.246 388.959 745.636 380.112 735.874C372.181 727.18 364.402 718.105 359.14 707.504C348.081 685.387 350.14 659.533 352.047 635.662C352.276 632.459 347.09 632.459 346.861 635.739Z" fill="black"></path><path d="M557.122 615.834C565.282 652.594 571.078 692.175 556.435 728.096C555.215 731.146 560.172 732.519 561.393 729.469C576.34 692.709 570.392 651.984 562.079 614.461C561.393 611.258 556.435 612.631 557.122 615.834Z" fill="black"></path><path d="M366.841 671.278C371.875 674.634 374.926 679.82 377.747 685.082C380.722 690.726 383.62 696.446 386.823 702.013C393.305 713.529 400.398 724.664 407.948 735.493C409.855 738.163 414.278 735.646 412.372 732.9C404.287 721.308 396.737 709.335 389.873 696.98C384.077 686.608 379.73 673.719 369.511 666.855C366.689 664.948 364.172 669.448 366.841 671.278Z" fill="black"></path><path d="M410.618 692.861C427.32 707.352 437.158 727.714 452.258 743.73C454.546 746.17 458.207 742.51 455.919 740.069C440.819 724.054 431.057 703.691 414.279 689.201C411.762 687.065 408.101 690.726 410.618 692.861Z" fill="black"></path><path d="M503.737 704.607C505.491 715.055 506.025 725.579 505.415 736.104C505.186 739.383 510.372 739.383 510.601 736.104C511.288 725.122 510.601 714.14 508.771 703.234C508.161 699.955 503.204 701.327 503.737 704.607Z" fill="black"></path><path d="M533.099 686.303C535.845 688.743 534.853 695.378 534.93 698.734C535.006 703.386 535.006 708.038 534.853 712.614C534.777 715.893 539.887 715.893 540.039 712.614C540.192 706.513 540.192 700.412 539.963 694.31C539.811 690.268 540.039 685.54 536.76 682.642C534.243 680.507 530.583 684.091 533.099 686.303Z" fill="black"></path><path d="M596.169 248.314C587.628 263.72 570.01 270.355 553.385 272.719C532.946 275.617 511.82 273.1 491.839 268.829C471.4 264.482 451.495 258.152 431.514 252.127C411.761 246.255 391.017 239.315 370.197 238.4C350.978 237.561 329.7 245.264 322.76 264.864C321.692 267.991 326.65 269.363 327.717 266.236C334.657 246.636 357.689 242.06 375.917 244.043C397.042 246.331 417.862 253.424 438.072 259.525C475.747 270.889 515.634 283.549 555.444 277.524C573.137 274.854 591.441 267.152 600.516 250.831C602.27 248.009 597.771 245.416 596.169 248.314Z" fill="black"></path><path d="M634.759 287.362C650.089 302.31 658.096 322.52 664.274 342.577C671.443 365.838 677.391 389.557 682.425 413.351C683.111 416.554 688.068 415.182 687.382 411.978C682.196 387.345 676.095 362.788 668.468 338.84C662.138 318.707 653.673 298.725 638.344 283.701C635.98 281.413 632.395 284.998 634.759 287.362Z" fill="black"></path><path d="M658.325 241.374C673.73 265.702 687.153 291.251 698.516 317.639C699.813 320.689 704.236 318.02 702.94 315.046C691.5 288.582 678.077 263.109 662.748 238.781C660.994 235.959 656.571 238.552 658.325 241.374Z" fill="black"></path><path d="M560.631 215.291C540.955 217.884 521.965 212.241 503.661 205.53C485.51 198.818 467.664 191.649 448.827 187.226C412.677 178.761 374.926 177.769 338.319 184.023C317.346 187.607 296.984 193.709 277.46 202.021C274.409 203.318 277.078 207.741 280.053 206.445C314.601 191.726 352.199 184.557 389.722 185.091C408.711 185.319 427.625 187.607 446.157 191.802C464.385 195.996 481.621 202.632 499.085 209.19C518.762 216.588 539.429 223.147 560.707 220.325C563.91 220.02 563.91 214.834 560.631 215.291Z" fill="black"></path><path d="M545.835 150.085C498.17 133.612 447.987 124.689 397.576 123.697C383.086 123.392 368.52 123.85 354.106 124.841C350.826 125.07 350.826 130.256 354.106 130.027C404.211 126.443 454.775 130.714 503.508 142.916C517.388 146.348 531.04 150.466 544.539 155.119C547.666 156.186 548.962 151.229 545.835 150.085Z" fill="black"></path><path d="M275.095 303.987C251.453 340.213 231.09 378.422 214.083 418.156C212.787 421.206 217.21 423.799 218.506 420.749C235.513 381.015 255.876 342.806 279.518 306.58C281.349 303.835 276.925 301.242 275.095 303.987Z" fill="black"></path><path d="M217.897 298.267C209.508 332.739 203.94 367.897 201.271 403.36C201.042 406.64 206.152 406.64 206.457 403.36C209.126 368.431 214.617 333.731 222.93 299.64C223.617 296.437 218.66 295.064 217.897 298.267Z" fill="black"></path><path d="M234.979 485.803C245.198 506.089 251.757 528.13 254.426 550.704C254.808 553.983 259.994 553.983 259.612 550.704C256.867 527.138 250.079 504.411 239.478 483.21C237.953 480.235 233.53 482.828 234.979 485.803Z" fill="black"></path><path d="M223.159 486.946C224.837 494.802 223.845 502.809 223.921 510.741C223.998 518.139 225.294 525.46 227.43 532.553C231.777 546.814 239.327 559.856 246.877 572.592C248.555 575.414 252.978 572.82 251.301 569.999C243.827 557.262 236.124 544.221 232.006 529.883C229.946 522.715 228.955 515.393 229.031 507.919C229.107 500.445 229.641 492.971 228.04 485.574C227.43 482.37 222.472 483.743 223.159 486.946Z" fill="black"></path><path d="M680.213 484.658C684.179 500.14 688.602 517.833 682.196 533.315C678.993 541.018 673.044 547.043 667.096 552.763C660.232 559.398 653.368 565.957 646.504 572.515C644.14 574.803 647.724 578.464 650.165 576.176C657.639 569.007 665.189 561.838 672.663 554.593C678.688 548.721 684.255 542.391 687.382 534.459C693.864 518.062 689.441 499.682 685.247 483.286C684.331 480.082 679.374 481.455 680.213 484.658Z" fill="black"></path><path d="M371.571 634.061C382.782 631.545 393.23 626.74 403.831 622.317C409.017 620.181 414.203 618.122 419.618 616.597C422.058 615.91 424.575 615.3 427.092 614.766C428.159 614.538 430.676 613.699 431.667 614.08C432.583 614.461 433.345 616.368 433.955 617.131C436.625 620.868 440.133 624.528 445.09 624.376C450.429 624.223 455.92 619.037 460.19 616.215C462.555 614.614 465.071 612.555 467.664 611.335C470.639 609.962 474.223 611.868 477.274 612.784C482.917 614.538 488.561 616.368 494.128 618.351C507.17 622.927 519.906 628.418 531.651 635.739C534.472 637.493 537.065 633.07 534.244 631.316C523.872 624.833 512.737 619.8 501.297 615.529C495.577 613.394 489.705 611.411 483.909 609.504C481.087 608.589 478.265 607.674 475.443 606.835C473.079 606.072 470.639 604.928 468.122 605.538C465.682 606.072 463.47 607.979 461.334 609.352C458.436 611.258 455.538 613.165 452.64 614.995C449.895 616.826 446.692 619.8 443.183 618.808C439.904 617.817 438.302 613.851 436.243 611.411C433.193 607.674 428.693 609.123 424.499 610.038C418.855 611.182 413.288 613.089 407.949 615.148C395.442 619.952 383.468 626.054 370.274 629.028C366.919 629.791 368.291 634.824 371.571 634.061Z" fill="black"></path><path d="M371.799 635.663C385.298 635.205 398.492 632.231 411.915 631.468C418.931 631.087 425.795 631.545 432.659 632.765C438.836 633.909 444.937 635.205 451.191 635.51C464.614 636.12 477.96 634.138 491.382 634.29C505.186 634.443 518.99 635.739 532.718 637.036C535.997 637.341 535.997 632.231 532.718 631.85C518.99 630.553 505.186 629.257 491.382 629.104C477.96 628.952 464.614 630.934 451.191 630.324C444.403 630.019 437.845 628.418 431.133 627.274C424.727 626.206 418.321 625.901 411.838 626.282C398.416 627.045 385.146 630.019 371.723 630.477C368.444 630.629 368.444 635.815 371.799 635.663Z" fill="black"></path><path d="M387.967 539.416C391.932 550.246 399.101 564.812 413.134 562.372C419.311 561.304 423.353 553.754 429.607 554.135C435.937 554.517 440.818 561.152 446.233 563.821C451.648 566.49 458.13 566.871 463.85 565.041C466.519 564.202 468.883 562.906 471.095 561.228C472.315 560.313 473.764 558.787 475.29 558.406C477.501 557.948 480.094 559.626 482.154 560.236C493.746 563.821 509.228 563.897 515.176 551.39C521.659 537.815 516.625 520.045 509.761 507.69C508.16 504.792 503.736 507.385 505.338 510.283C511.134 520.655 515.329 534.764 511.592 546.585C506.94 561.228 490.466 557.338 479.332 553.83C473.536 552 470.714 555.813 466.138 558.482C460.799 561.609 453.936 561.914 448.368 559.092C439.75 554.745 432.276 544.526 421.828 551.313C419.388 552.915 417.405 555.127 414.812 556.423C411.532 558.025 407.795 557.491 404.592 555.737C398.033 552.152 395.288 544.526 392.924 537.967C391.78 534.916 386.823 536.289 387.967 539.416Z" fill="black"></path><path d="M483.984 523.935C485.891 516.004 490.39 509.064 496.949 504.183C499.618 502.276 497.025 497.776 494.356 499.759C486.653 505.403 481.315 513.258 479.027 522.562C478.264 525.765 483.221 527.138 483.984 523.935Z" fill="black"></path><path d="M417.828 499.141C422.099 512.487 417.752 526.749 421.413 540.248C422.252 543.451 427.209 542.078 426.37 538.875C422.709 525.376 427.057 511.191 422.786 497.768C421.794 494.642 416.761 496.014 417.828 499.141Z" fill="black"></path><path d="M422.438 457.828C418.853 469.573 416.718 482.385 405.507 489.325C396.889 494.664 386.441 498.248 381.941 508.086C380.568 511.061 384.992 513.73 386.365 510.679C391.245 500.002 404.134 497.486 412.6 490.546C421.828 482.995 424.039 469.954 427.395 459.124C428.386 455.998 423.429 454.625 422.438 457.828Z" fill="black"></path><path d="M625.76 497.166C622.481 509.902 617.981 522.105 612.109 533.849C610.66 536.824 615.083 539.417 616.532 536.442C622.557 524.316 627.286 511.656 630.641 498.463C631.48 495.259 626.523 493.887 625.76 497.166Z" fill="black"></path><path d="M523.516 486.484C534.637 492.909 543.122 503.947 556.796 504.689C560.338 504.854 560.338 499.334 556.796 499.087C544.604 498.428 536.284 487.39 526.317 481.624C523.187 479.894 520.386 484.672 523.516 486.484Z" fill="black"></path></g></svg>