<svg xmlns="http://www.w3.org/2000/svg" width="900" height="900" viewBox="0 0 900 900" fill="none"><mask id="mask0_1010_3944" style="mask-type:alpha" maskUnits="userSpaceOnUse" x="0" y="0" width="900" height="900"><rect width="900" height="900" rx="450" fill="#C4C4C4"></rect></mask><g mask="url(#mask0_1010_3944)"><rect x="3" y="3" width="894" height="894" rx="447" stroke="black" stroke-width="6"></rect><path d="M593.13 177.392C579.62 158.523 576.047 135.076 564.882 114.978C553.828 95.1041 534.401 82.3757 513.745 74.1134C491.079 64.9578 466.516 61.6083 442.175 59.7102C417.612 57.7004 390.703 54.1275 366.586 61.1616C343.028 67.9725 323.6 83.9388 301.716 94.5458C281.619 104.26 259.958 112.075 245.89 130.386C230.817 149.814 223.783 175.829 218.312 199.276C212.506 224.286 209.491 249.855 208.151 275.423C206.588 305.011 207.146 334.823 208.04 364.41C209.044 394.222 208.933 424.926 217.753 453.733C219.651 452.281 221.438 450.941 223.336 449.49C216.86 445.47 208.933 446.364 202.792 450.606C196.316 455.073 193.078 462.665 191.738 470.146C187.942 490.243 190.063 511.68 193.078 531.666C196.093 552.21 200.224 572.755 205.36 592.852C209.938 610.828 216.525 628.246 228.249 642.872C231.263 646.669 236.623 641.309 233.608 637.513C223.559 625.008 217.753 609.823 213.51 594.527C209.044 578.114 205.918 561.366 202.792 544.618C199.442 526.53 196.986 508.331 197.433 489.908C197.656 481.869 197.767 473.049 200.67 465.345C203.462 458.087 211.501 451.053 219.428 455.966C222.219 457.641 225.904 454.849 225.011 451.723C217.418 427.048 216.86 401.368 215.967 375.799C215.074 350.677 214.292 325.444 214.739 300.21C215.632 250.971 220.321 198.383 241.089 153.052C245.778 142.78 251.919 133.178 260.516 125.697C268.89 118.44 278.939 113.415 288.988 108.726C299.036 104.036 309.085 99.5702 318.687 93.9875C328.624 88.2933 338.338 82.0407 348.499 76.6814C359.887 70.7638 371.834 66.521 384.674 65.4044C397.403 64.2879 410.243 65.1811 422.971 65.9627C446.083 67.3025 469.419 69.089 491.972 74.8949C516.536 81.3708 542.774 93.3176 556.508 115.76C569.124 136.416 572.362 161.314 586.542 181.188C589.445 185.096 595.921 181.3 593.13 177.392Z" fill="black"></path><path d="M228.472 635.168C253.259 683.737 254.934 741.238 284.745 787.574C287.313 791.594 293.9 787.909 291.221 783.778C261.409 737.442 259.735 679.941 234.948 631.372C232.826 627.017 226.351 630.814 228.472 635.168Z" fill="black"></path><path d="M587.324 189.897C605.523 187.441 623.5 195.034 636.898 206.98C651.301 219.709 660.122 237.127 665.258 255.438C670.729 274.865 672.403 295.074 673.297 315.172C674.19 336.274 673.632 357.488 671.622 378.591C669.277 402.819 664.923 426.825 658.782 450.383C658.223 452.505 659.452 454.291 661.461 455.073C678.433 461.995 677.428 483.879 675.53 498.841C673.073 517.375 669.724 535.686 665.593 553.885C661.573 571.75 656.772 589.391 651.189 606.921C648.398 615.518 645.942 624.562 642.257 632.824C639.689 638.518 634.553 647.562 627.072 644.659C622.606 642.873 620.597 650.13 625.063 651.917C642.592 658.839 650.519 632.489 654.539 620.877C661.796 599.551 667.937 577.779 672.85 555.895C677.651 534.569 682.229 512.574 683.904 490.802C685.243 473.719 680.666 454.961 663.36 447.927C664.253 449.49 665.146 451.053 666.039 452.616C677.651 407.955 682.787 361.619 680.889 315.395C679.214 275.423 673.743 229.199 641.699 201.286C626.068 187.664 606.193 180.072 585.426 182.863C580.513 183.31 582.523 190.567 587.324 189.897Z" fill="black"></path><path d="M356.761 659.508C382.218 656.605 394.946 689.878 420.403 689.543C432.908 689.431 442.734 680.499 452.113 673.242C464.059 664.086 476.006 654.931 487.953 645.663C491.749 642.76 487.953 636.173 484.157 639.188C473.103 647.673 461.938 656.159 450.884 664.644C441.282 672.013 429.782 683.849 416.495 681.616C404.548 679.606 395.616 669.78 386.461 662.746C377.863 656.047 367.815 650.576 356.538 651.804C351.96 652.474 351.96 660.067 356.761 659.508Z" fill="black"></path><path d="M355.645 646.78C361.45 635.839 368.596 625.12 379.092 618.086C384.339 614.513 390.369 611.945 396.733 611.163C403.655 610.27 410.131 612.056 416.942 613.173C422.301 614.066 427.437 614.178 432.685 612.95C438.826 611.498 444.967 608.484 450.884 612.391C456.02 615.853 460.151 621.212 464.506 625.678C469.642 630.926 474.778 636.285 479.914 641.533C483.264 644.994 488.623 639.746 485.273 636.173C479.356 630.033 473.438 624.003 467.632 617.862C463.278 613.396 459.035 607.925 453.452 604.911C447.87 601.896 442.175 602.454 436.258 604.017C432.908 604.911 429.67 606.027 426.321 606.251C421.855 606.474 417.5 605.469 413.146 604.576C399.747 602.008 387.131 603.794 375.63 611.498C364.018 619.202 355.979 630.702 349.504 642.873C346.824 647.227 353.3 651.023 355.645 646.78Z" fill="black"></path><path d="M350.285 648.678C369.155 651.916 386.126 642.426 404.66 641.309C409.461 641.086 409.461 633.493 404.66 633.717C387.131 634.722 369.936 644.324 352.295 641.309C347.494 640.528 345.484 647.785 350.285 648.678Z" fill="black"></path><path d="M455.015 641.197C464.617 642.314 473.996 644.659 483.152 647.897C487.729 649.571 489.739 642.314 485.161 640.639C475.336 637.066 465.399 634.833 455.015 633.605C450.214 633.047 450.326 640.639 455.015 641.197Z" fill="black"></path><path d="M279.385 427.606C286.978 423.698 291.779 417.11 296.915 410.634C302.944 403.042 309.755 398.018 319.245 395.561C336.105 391.207 359.217 390.537 373.062 402.819C376.635 406.057 381.994 400.697 378.421 397.459C363.46 384.061 341.353 383.838 322.483 387.187C312.77 388.862 303.391 392.658 296.357 399.916C289.434 407.062 284.745 416.44 275.589 421.13C271.235 423.363 275.031 429.839 279.385 427.606Z" fill="black"></path><path d="M295.464 416.329C309.756 421.241 324.829 421.241 339.79 419.232C347.271 418.227 354.64 416.775 362.009 415.212C368.485 413.872 374.514 412.421 379.427 407.843C383 404.494 377.64 399.246 374.068 402.484C369.378 406.838 362.121 407.508 355.98 408.736C349.392 410.076 342.916 411.304 336.217 412.086C323.154 413.649 309.979 413.426 297.362 409.071C292.896 407.508 290.886 414.766 295.464 416.329Z" fill="black"></path><path d="M286.419 404.27C293.565 400.474 298.701 394.445 304.842 389.309C311.429 383.726 319.58 380.153 328.066 378.479C345.818 375.017 363.46 380.6 377.974 390.872C381.994 393.663 385.679 387.188 381.771 384.396C366.698 373.678 348.163 367.983 329.74 370.663C320.808 371.891 312.099 375.129 304.619 380.153C296.803 385.513 290.997 393.328 282.511 397.795C278.38 400.028 282.176 406.615 286.419 404.27Z" fill="black"></path><path d="M489.852 401.814C503.808 397.683 516.76 397.013 530.158 403.489C542.328 409.295 552.265 418.674 561.979 427.941C565.552 431.291 570.8 425.931 567.339 422.582C556.285 412.198 545.008 401.591 530.94 395.562C516.648 389.421 502.692 390.202 487.953 394.557C483.264 395.897 485.274 403.154 489.852 401.814Z" fill="black"></path><path d="M468.414 409.854C496.215 421.912 526.027 428.388 556.396 428.611C561.197 428.611 561.197 421.131 556.396 421.019C527.478 420.796 498.895 414.878 472.322 403.378C467.856 401.48 464.059 407.956 468.414 409.854Z" fill="black"></path><path d="M468.749 412.086C473.774 411.081 477.793 408.29 482.147 405.834C487.953 402.484 494.429 400.474 501.017 399.581C505.706 399.023 505.818 391.431 501.017 391.989C494.988 392.77 489.293 394.11 483.711 396.567C478.016 399.135 472.992 403.489 466.739 404.717C462.05 405.834 464.06 413.091 468.749 412.086Z" fill="black"></path><path d="M466.069 401.144C480.249 395.227 495.992 385.848 511.847 386.741C527.701 387.634 541.546 396.902 554.498 405.275C558.517 407.955 562.314 401.368 558.294 398.8C544.672 389.867 530.381 380.935 513.856 379.372C496.327 377.697 479.802 387.299 464.171 393.887C459.593 395.673 461.491 403.042 466.069 401.144Z" fill="black"></path><path d="M384.451 416.776C378.645 444.577 353.747 460.432 331.305 474.277C327.173 476.845 330.97 483.321 335.101 480.753C359.218 465.903 385.568 448.373 391.709 418.674C392.714 414.096 385.456 412.086 384.451 416.776Z" fill="black"></path><path d="M391.15 546.293C377.863 546.851 366.698 536.467 367.815 522.846C368.819 511.234 379.091 504.646 387.354 498.059C396.063 491.136 401.98 483.432 404.772 472.49C408.344 458.757 410.019 444.354 412.587 430.509C413.481 425.819 406.223 423.698 405.33 428.499C403.767 437.208 402.204 445.917 400.64 454.514C399.412 461.66 398.519 469.141 395.839 476.063C390.927 488.903 377.863 494.263 368.931 503.753C360.892 512.462 357.766 524.632 362.344 535.797C367.033 547.409 378.868 554.332 391.15 553.885C395.951 553.662 395.951 546.069 391.15 546.293Z" fill="black"></path><path d="M445.301 429.504C445.301 440.446 445.525 451.835 448.651 462.442C452.112 473.942 460.486 481.199 466.292 491.36C469.307 496.831 471.428 502.637 473.326 508.554C475.336 514.584 478.127 521.171 475.336 527.424C470.312 538.7 456.132 543.948 444.631 542.162C439.942 541.38 437.821 548.638 442.622 549.419C454.345 551.206 466.18 548.191 475.113 540.152C479.355 536.356 482.705 531.22 483.822 525.525C485.05 519.05 482.593 512.685 480.695 506.545C478.574 500.069 476.229 493.481 472.88 487.564C469.418 481.311 464.059 476.287 460.375 470.257C453.005 458.199 453.005 443.237 453.005 429.504C452.782 424.703 445.19 424.591 445.301 429.504Z" fill="black"></path><path d="M434.248 538.142C434.136 528.987 442.957 524.297 449.991 520.501C454.234 518.157 450.438 511.681 446.195 514.025C436.704 519.161 426.544 526.084 426.767 538.142C426.767 542.943 434.36 543.055 434.248 538.142Z" fill="black"></path><path d="M418.84 540.71C417.277 534.904 415.044 527.424 410.355 523.404C405.442 519.161 397.18 517.375 391.151 515.03C386.684 513.244 384.675 520.501 389.141 522.288C393.83 524.074 399.301 525.525 403.656 528.093C408.457 530.885 410.132 537.696 411.583 542.72C412.811 547.298 420.069 545.4 418.84 540.71Z" fill="black"></path><path d="M312.882 499.734C297.809 514.583 280.837 526.977 262.191 536.802C257.948 539.035 261.745 545.623 265.987 543.278C285.192 533.118 302.721 520.278 318.241 504.981C321.591 501.632 316.231 496.272 312.882 499.734Z" fill="black"></path><path d="M511.177 487.34C521.673 494.933 531.945 502.972 541.658 511.569C550.591 519.385 559.188 528.205 563.766 539.37C565.552 543.837 572.921 541.827 571.023 537.361C566.11 525.414 557.848 516.035 548.358 507.438C537.751 497.947 526.474 489.238 514.973 480.864C511.066 477.961 507.269 484.549 511.177 487.34Z" fill="black"></path><path d="M306.182 597.988C317.012 594.192 324.382 583.473 330.969 574.541C338.561 564.269 345.596 553.439 355.868 545.735C359.664 542.832 355.979 536.356 352.071 539.259C343.028 546.069 336.105 554.667 329.518 563.822C323.042 572.755 315.226 586.823 304.172 590.731C299.706 592.405 301.604 599.663 306.182 597.988Z" fill="black"></path><path d="M270.342 776.744C276.148 796.506 276.26 817.051 275.925 837.595C275.59 857.915 275.59 878.236 276.371 898.557C278.046 939.869 282.4 981.18 289.435 1021.93C290.216 1026.73 297.474 1024.72 296.692 1019.92C289.546 978.389 285.303 936.296 283.74 894.203C283.07 873.993 283.182 853.673 283.517 833.464C283.74 813.701 283.182 793.827 277.599 774.846C276.26 770.045 269.002 772.055 270.342 776.744Z" fill="black"></path><path d="M612.446 773.06C621.49 858.921 594.246 942.66 584.756 1027.29C584.198 1032.09 591.79 1032.09 592.348 1027.29C601.839 942.66 629.082 859.032 620.038 773.06C619.48 768.37 611.999 768.258 612.446 773.06Z" fill="black"></path><path d="M567.785 200.058C548.804 216.805 520.333 208.655 501.017 197.043C477.905 183.198 458.142 164.44 431.346 157.853C379.427 145.013 328.067 170.581 292.338 207.203C274.362 225.626 257.056 247.398 249.352 272.297C245.22 285.695 244.327 299.875 243.881 313.832C243.434 328.235 242.764 342.526 241.871 356.93C238.186 414.319 231.375 471.709 234.39 529.321C235.842 557.123 239.638 585.036 247.342 611.833C255.157 639.076 267.328 664.756 280.838 689.655C287.202 701.378 293.678 713.214 302.275 723.597C310.426 733.423 320.586 741.35 331.751 747.491C355.422 760.666 383.112 768.928 409.685 773.283C438.156 777.972 466.293 776.409 494.094 768.482C508.274 764.462 522.119 759.326 535.964 754.078C547.576 749.724 559.635 745.146 568.455 736.102C576.717 727.617 581.407 716.451 585.315 705.398C590.116 691.665 594.247 677.708 597.931 663.751C605.524 635.28 611.218 606.25 615.461 576.997C619.592 548.079 622.383 519.049 624.058 489.908C625.733 460.543 625.621 431.737 617.359 403.266C613.34 389.532 608.427 376.022 605.301 362.066C601.951 346.993 601.728 331.584 602.286 316.176C603.179 289.38 606.082 262.136 598.378 236.01C595.028 224.733 589.669 214.349 581.965 205.305C578.839 201.621 573.479 206.98 576.606 210.665C593.13 230.092 596.368 256.777 596.145 281.452C595.81 309.812 592.014 338.06 598.49 366.085C601.616 379.372 606.305 392.212 610.102 405.275C614.121 419.12 616.577 433.077 617.247 447.48C618.699 475.951 615.908 504.869 613.228 533.118C607.757 589.726 597.262 646.222 579.174 700.15C575.266 711.65 570.911 723.597 561.868 732.083C552.154 741.35 538.309 745.37 526.027 749.836C498.672 759.996 470.982 768.817 441.506 768.705C413.593 768.482 386.015 761.782 359.888 752.069C348.053 747.714 336.441 742.467 325.945 735.321C314.78 727.728 306.183 717.791 298.925 706.514C269.114 659.509 249.017 607.143 243.322 551.652C237.74 496.831 242.876 441.674 247.007 386.964C249.128 359.163 249.91 331.473 251.585 303.671C252.478 289.603 254.823 275.87 260.74 262.918C266.211 250.971 273.804 240.141 282.066 229.98C314.11 190.567 360.223 158.299 413.146 162.765C426.768 163.882 440.054 167.79 452.113 174.266C463.39 180.295 473.55 188.111 484.046 195.368C502.357 208.096 523.124 219.262 546.236 216.917C556.173 215.912 565.217 212.228 572.81 205.528C576.829 202.179 571.47 196.82 567.785 200.058Z" fill="black"></path><path d="M501.798 396.678C498.337 406.28 504.925 415.547 514.304 418.004C518.546 419.12 524.464 419.232 528.148 416.664C532.168 413.873 532.95 408.067 534.178 403.712C535.518 399.023 528.26 397.013 526.92 401.703C526.25 403.824 525.915 406.28 525.022 408.29C523.347 411.64 519.775 411.64 516.313 410.858C510.731 409.407 507.046 404.494 509.056 398.8C510.731 394.11 503.362 392.212 501.798 396.678Z" fill="black"></path><path d="M510.842 398.912C511.289 401.926 513.969 406.169 516.983 407.174C520.779 408.402 524.352 404.941 527.144 402.82C528.707 401.591 529.6 399.582 528.483 397.684C527.59 396.12 524.91 395.115 523.347 396.344C522.901 396.679 518.323 399.582 518.323 399.805C519.774 400.475 520.221 400.475 519.44 399.693C519.216 399.47 518.993 399.135 518.881 398.912C518.435 398.242 518.211 397.683 518.1 396.902C517.765 394.892 515.308 393.776 513.41 394.222C511.401 394.781 510.507 396.902 510.842 398.912Z" fill="black"></path><path d="M311.542 397.013C314.333 401.368 317.348 405.945 321.591 409.072C326.615 412.645 332.644 413.426 338.673 413.315C343.809 413.203 348.611 412.868 352.072 408.625C355.868 403.936 358.213 397.572 360.446 391.989C362.232 387.523 354.975 385.513 353.188 389.979C351.625 393.999 349.95 398.353 347.494 401.926C344.703 406.057 341.353 405.834 336.775 405.834C327.397 405.722 322.819 400.698 318.129 393.329C315.45 389.198 308.862 392.994 311.542 397.013Z" fill="black"></path><path d="M327.843 397.46C331.305 400.586 335.101 403.489 340.013 402.931C345.038 402.372 347.494 398.241 349.169 393.887C350.955 389.421 343.698 387.411 341.912 391.877C341.242 393.552 340.46 395.673 338.339 395.45C336.329 395.227 334.542 393.329 333.203 392.1C329.63 388.862 324.27 394.11 327.843 397.46Z" fill="black"></path><path d="M613.116 748.496C632.432 768.035 639.913 795.613 657.442 816.604C674.19 836.702 697.414 849.877 720.973 860.372C747.993 872.43 775.794 882.702 803.149 894.091C834.188 907.043 865.116 920.441 895.709 934.398C929.317 949.582 962.589 965.325 995.75 981.627C1000.1 983.748 1003.9 977.272 999.546 975.151C941.152 946.456 881.976 919.325 822.018 893.979C793.77 882.033 765.187 870.867 736.939 859.144C712.375 848.983 687.477 837.036 668.607 817.721C647.393 795.948 639.801 764.797 618.475 743.137C615.014 739.675 609.655 745.035 613.116 748.496Z" fill="black"></path><path d="M264.536 760.889C255.715 768.593 249.239 778.307 245.443 789.361C243.21 795.837 241.535 800.749 235.506 804.657C229.812 808.23 223.559 811.021 217.53 814.036C191.515 827.211 165.5 840.386 139.596 853.561C127.203 859.814 114.921 866.289 102.193 871.872C89.1294 877.678 75.5078 882.033 61.8862 885.94C34.7545 893.868 7.73459 901.46 -19.0621 910.392C-48.8734 920.329 -78.3497 931.16 -107.491 942.883C-111.957 944.67 -109.947 951.927 -105.481 950.141C-52.4462 928.703 1.70532 910.839 56.7501 895.208C70.4834 891.3 84.1051 887.28 97.3917 881.921C110.12 876.785 122.29 870.644 134.572 864.391C160.922 851.105 187.161 837.706 213.511 824.42C220.656 820.847 227.802 817.274 234.836 813.589C239.972 810.91 245.108 807.783 248.346 802.759C252.031 797.065 252.924 789.807 256.05 783.778C259.512 776.967 264.313 771.161 270.119 766.137C273.468 763.122 268.109 757.763 264.536 760.889Z" fill="black"></path><path d="M186.491 840.497C171.529 878.459 133.009 901.683 121.062 941.32C120.392 943.441 121.844 945.228 123.742 946.009C130.553 948.912 137.252 951.927 143.839 955.165C146.966 956.728 150.092 958.291 153.107 959.966C156.68 961.864 161.481 963.316 161.034 968.34C160.811 970.796 157.461 974.704 156.233 976.937C154.558 979.952 152.883 982.855 151.097 985.758C147.636 991.564 144.063 997.37 140.378 1003.18C125.528 1026.51 109.115 1048.73 91.251 1069.72C88.1247 1073.41 93.4841 1078.76 96.6103 1075.08C117.489 1050.4 136.582 1024.17 153.33 996.588C157.573 989.666 161.704 982.52 165.723 975.374C168.403 970.573 171.083 964.99 167.063 960.078C162.82 954.942 154.335 952.039 148.529 949.136C141.048 945.339 133.456 941.99 125.752 938.752C126.645 940.315 127.538 941.878 128.431 943.441C140.267 904.028 178.898 880.469 193.86 842.619C195.535 837.929 188.277 836.031 186.491 840.497Z" fill="black"></path><path d="M286.197 788.467C298.478 804.434 310.314 820.735 321.591 837.371C327.173 845.522 332.533 853.784 337.892 862.158C342.581 869.527 347.271 877.231 353.523 883.26C366.14 895.431 384.563 900.678 400.976 905.479C419.063 910.839 439.161 916.31 458.142 915.863C476.118 915.416 490.186 905.479 502.691 893.421C516.536 880.134 529.265 865.731 541.658 850.993C564.994 823.303 588.887 794.943 605.077 762.34C614.344 743.583 620.262 724.044 623.165 703.276C626.179 681.057 627.407 658.615 629.194 636.396C629.641 631.595 622.048 631.595 621.602 636.396C618.587 673.018 618.364 711.092 604.407 745.593C591.567 777.19 570.241 804.657 548.692 830.784C537.192 844.74 525.469 858.697 513.187 871.872C501.575 884.265 488.958 899.115 472.768 905.368C455.462 912.067 434.36 906.038 417.054 901.795C400.082 897.664 381.213 892.974 366.252 883.484C357.878 878.236 352.183 870.42 346.936 862.158C341.353 853.337 335.659 844.629 329.853 835.92C318.018 818.39 305.624 801.196 292.673 784.336C289.77 780.875 283.294 784.559 286.197 788.467Z" fill="black"></path><path d="M378.757 822.745C402.762 814.147 427.103 806.89 452.001 801.196C456.69 800.079 454.681 792.822 449.991 793.938C425.204 799.632 400.752 806.89 376.747 815.487C372.169 817.05 374.179 824.308 378.757 822.745Z" fill="black"></path><path d="M535.852 170.917C511.735 131.169 472.434 104.93 434.36 80.0316C430.341 77.3519 426.544 83.9394 430.564 86.5075C467.521 110.736 505.929 136.081 529.377 174.713C531.833 178.844 538.42 175.048 535.852 170.917Z" fill="black"></path><path d="M437.151 136.416C420.961 123.91 404.771 111.405 388.582 98.7886C384.785 95.8856 379.426 101.133 383.222 104.148C399.412 116.653 415.602 129.158 431.791 141.775C435.699 144.678 441.058 139.43 437.151 136.416Z" fill="black"></path><path d="M286.532 183.98C281.731 178.174 276.483 173.038 270.677 168.349C266.993 165.334 261.522 170.582 265.318 173.708C271.124 178.397 276.483 183.645 281.173 189.339C284.299 193.024 289.658 187.664 286.532 183.98Z" fill="black"></path><path d="M620.038 349.338C643.708 384.508 650.073 427.16 656.102 468.136C656.772 472.937 664.029 470.927 663.359 466.126C657.33 424.368 650.631 381.159 626.625 345.43C623.946 341.522 617.358 345.318 620.038 349.338Z" fill="black"></path><path d="M633.325 282.793C649.291 307.468 658.447 335.828 659.787 365.192C660.01 369.993 667.491 369.993 667.379 365.192C665.928 334.488 656.549 304.788 639.913 278.996C637.233 274.865 630.757 278.662 633.325 282.793Z" fill="black"></path><path d="M477.011 355.367C495.657 346.881 515.643 341.522 534.959 351.348C552.042 360.056 568.678 370.998 582.746 384.173C586.319 387.523 591.567 382.164 588.106 378.814C572.586 364.299 553.493 350.901 533.842 342.527C513.633 333.818 492.307 340.182 473.215 348.891C468.749 350.901 472.657 357.377 477.011 355.367Z" fill="black"></path><path d="M276.26 365.639C289.323 353.134 305.178 342.862 323.265 339.959C340.013 337.279 357.878 341.633 370.159 353.58C373.621 356.93 378.98 351.682 375.519 348.221C362.009 335.046 342.805 329.91 324.27 332.255C303.726 334.823 285.638 346.211 270.9 360.279C267.439 363.629 272.798 368.988 276.26 365.639Z" fill="black"></path><path d="M269.56 370.998C274.361 357.265 282.288 345.206 293.007 335.381C296.58 332.143 291.221 326.784 287.648 330.021C276.036 340.74 267.439 354.027 262.191 368.988C260.628 373.678 267.997 375.576 269.56 370.998Z" fill="black"></path></g></svg>