<svg xmlns="http://www.w3.org/2000/svg" width="900" height="900" viewBox="0 0 900 900" fill="none"><mask id="mask0_1010_3945" style="mask-type:alpha" maskUnits="userSpaceOnUse" x="0" y="0" width="900" height="900"><rect width="900" height="900" rx="450" fill="#C4C4C4"></rect></mask><g mask="url(#mask0_1010_3945)"><rect x="3" y="3" width="894" height="894" rx="447" stroke="black" stroke-width="6"></rect><path d="M678.148 521.154C670.199 496.391 664.259 470.989 660.696 445.313C658.868 431.881 657.68 418.266 657.041 404.742C656.584 393.595 657.772 381.624 654.756 370.751C651.741 359.694 643.334 353.298 633.923 347.724C623.872 341.694 613.363 336.303 602.673 331.551C581.382 322.139 559.087 315.286 536.152 311.175C513.308 307.063 489.916 305.509 466.707 306.88C455.194 307.52 443.863 309.256 432.441 310.718C421.659 312.088 410.055 313.185 399.547 309.438C394.978 307.794 391.231 303.956 386.571 302.677C382.003 301.397 378.348 304.139 376.429 308.068C373.87 313.276 372.317 319.307 370.398 324.789C368.022 331.551 365.647 338.404 363.271 345.166C358.885 357.684 354.499 370.111 350.204 382.63C348.011 388.843 345.818 395.148 343.625 401.361C341.615 407.209 339.787 413.331 336.224 418.448C332.934 423.2 328.091 425.667 323.249 428.5C318.863 431.15 314.842 434.165 311.37 438.003C305.065 445.039 300.77 453.628 298.121 462.674C291.724 484.604 295.197 507.082 297.024 529.377C298.121 542.353 298.395 555.419 295.653 568.212C293.004 580.547 288.709 592.335 287.247 604.853C284.688 626.326 288.983 647.982 297.664 667.627C315.939 709.294 353.128 738.26 393.79 756.444C414.989 765.855 437.284 773.348 460.037 778.1C483.063 782.851 507.186 784.587 530.304 779.47C573.159 769.876 603.952 735.427 621.587 696.776C632.004 674.024 638.583 649.718 644.248 625.412C650.279 599.462 655.944 573.329 661.792 547.287C664.716 534.312 667.549 521.428 670.473 508.453C671.295 504.615 665.356 502.97 664.533 506.808C658.868 532.119 653.203 557.429 647.538 582.649C642.146 606.772 637.212 631.078 630.268 654.835C618.298 696.045 598.012 738.26 559.818 761.104C518.973 785.501 468.9 776.638 426.137 762.383C385.201 748.768 344.265 727.112 318.406 691.385C305.887 674.115 297.024 654.104 293.826 632.996C292.181 622.031 292.181 610.701 294.191 599.827C296.293 587.949 300.679 576.618 302.598 564.648C306.527 540.342 300.588 516.219 300.496 491.914C300.405 473.456 304.334 452.714 318.406 439.647C325.716 432.794 335.767 430.053 341.524 421.555C347.92 412.235 350.661 399.899 354.316 389.391C362.814 364.994 371.403 340.597 379.901 316.2C380.632 314.099 381.637 308.342 384.927 308.616C386.937 308.799 389.678 311.54 391.323 312.454C395.617 314.921 400.46 316.474 405.303 317.297C415.263 318.941 425.406 317.845 435.365 316.474C457.57 313.459 479.408 311.631 501.795 313.093C547.117 316.017 591.708 329.724 630.633 353.024C635.293 355.765 640.045 358.689 643.7 362.801C647.995 367.735 649.456 374.04 650.005 380.345C650.918 391.858 650.553 403.554 651.284 415.068C652.929 439.556 656.584 463.862 662.158 487.711C664.899 499.498 668.188 511.194 671.935 522.707C673.397 526.545 679.336 524.9 678.148 521.154Z" fill="black"></path><path d="M579.098 756.078C586.956 762.657 591.342 772.069 597.83 779.927C604.044 787.42 612.359 792.537 621.131 796.374C631.182 800.852 641.873 804.05 652.289 807.613C663.62 811.451 674.95 815.38 686.189 819.401C732.516 835.574 778.569 852.387 824.531 869.657C850.299 879.343 875.975 889.211 901.56 899.354C905.215 900.816 906.86 894.876 903.205 893.414C858.34 875.779 813.383 858.783 768.153 842.244C723.379 825.888 678.148 810.811 633.375 794.73C622.775 790.892 612.085 786.232 604.226 777.917C596.642 769.784 592.256 759.185 583.576 751.875C580.469 749.134 576.083 753.52 579.098 756.078Z" fill="black"></path><path d="M584.398 778.83C590.063 788.882 591.251 800.852 592.347 812.182C593.444 824.061 593.809 835.94 593.353 847.818C592.439 871.941 588.236 895.79 581.108 918.908C579.92 922.746 585.86 924.299 587.048 920.553C594.54 896.43 598.835 871.393 599.566 846.174C599.931 833.747 599.475 821.228 598.104 808.801C596.916 797.471 595.363 785.866 589.698 775.724C587.779 772.251 582.388 775.358 584.398 778.83Z" fill="black"></path><path d="M574.987 788.059C563.565 813.187 546.752 835.117 527.929 855.22C518.608 865.18 508.831 874.683 498.963 884.003C493.937 888.663 489.003 893.506 483.886 897.983C477.673 903.557 471.459 906.846 463.601 902.095C451.722 894.694 440.574 885.739 429.701 877.15C418.644 868.469 407.954 859.514 397.446 850.103C376.886 831.828 357.423 812.274 339.148 791.623C318.132 767.865 298.852 742.646 281.308 716.239C279.115 712.949 273.815 716.056 276.008 719.345C308.355 768.048 346.733 812.73 390.136 851.839C411.7 871.302 434.544 889.668 458.484 906.024C464.058 909.862 470.088 912.146 476.759 909.77C482.79 907.669 487.45 903.009 492.018 898.714C502.527 888.937 513.035 879.069 523.177 868.926C545.93 845.991 566.763 820.68 580.286 791.166C581.931 787.602 576.54 784.404 574.987 788.059Z" fill="black"></path><path d="M284.689 815.106C293.552 819.583 299.4 829.178 304.974 837.127C310.456 844.986 315.665 853.118 321.147 861.068C331.473 876.053 343.077 890.308 358.794 899.902C362.175 902.004 365.281 896.612 361.9 894.602C345.453 884.551 333.94 869.017 323.34 853.301C318.132 845.534 313.015 837.676 307.532 830C302.05 822.416 296.385 814.101 287.887 809.715C284.323 807.979 281.216 813.279 284.689 815.106Z" fill="black"></path><path d="M275.369 728.117C279.024 760.19 282.77 792.171 286.425 824.244C288.253 840.143 290.08 855.951 291.908 871.85C293.461 885.739 294.74 899.811 301.136 912.512C302.964 916.075 308.264 912.968 306.436 909.405C299.766 896.247 299.035 880.896 297.39 866.55C295.654 851.291 293.918 836.031 292.09 820.771C288.527 789.887 284.963 759.093 281.491 728.209C281.125 724.28 274.912 724.188 275.369 728.117Z" fill="black"></path><path d="M-1.49698 876.875C9.65074 869.748 20.8898 862.529 32.8599 856.773C44.9214 850.925 57.5311 847.544 70.6891 845.26C83.5729 842.975 96.5481 841.148 109.066 837.401C120.945 833.838 132.55 828.995 143.515 822.964C154.937 816.659 165.719 809.167 176.684 802.131C187.283 795.278 198.431 789.43 209.487 783.308C220.452 777.368 230.778 770.606 239.915 762.109C249.235 753.428 257.459 743.651 265.774 734.057C283.044 714.137 299.674 693.121 308.172 667.81C309.451 664.064 303.512 662.419 302.233 666.165C294.557 689.192 279.663 708.563 264.038 726.747C256.18 735.884 248.23 745.204 239.732 753.702C230.595 762.84 220.452 770.15 209.213 776.454C198.705 782.302 188.106 787.694 177.872 794.09C166.815 801.034 156.124 808.618 144.885 815.197C134.012 821.502 122.59 826.711 110.711 830.548C98.2842 834.569 85.4004 836.67 72.5166 838.863C58.719 841.239 45.561 844.437 32.7686 850.194C19.702 856.133 7.54912 863.9 -4.51235 871.667C-7.89322 873.677 -4.87785 879.068 -1.49698 876.875Z" fill="black"></path><path d="M578.915 111.429C564.204 63.4575 504.811 50.9392 461.042 54.5942C434.086 56.8785 407.771 64.6454 383.922 77.5292C372.134 83.8341 361.078 91.5096 350.935 100.099C339.239 110.059 329.188 121.937 316.853 131.075C305.431 139.573 292.364 145.512 281.399 154.65C272.262 162.234 264.769 171.919 259.195 182.336C247.408 204.266 243.022 229.394 241.194 253.882C240.098 268.868 240.463 284.036 238.453 298.93C236.352 313.733 230.595 327.256 225.112 341.054C220.178 353.572 215.244 367.004 216.432 380.619C217.528 393.138 223.833 403.372 232.24 412.418C240.92 421.738 250.697 429.87 256.911 441.201C262.942 452.166 265.774 464.501 267.602 476.746C271.165 501.051 270.434 526.545 279.572 549.663C281.765 555.236 284.506 560.536 287.887 565.47C290.08 568.76 295.471 565.653 293.187 562.364C266.14 522.616 286.059 467.608 256.18 428.957C248.778 419.454 239.093 411.961 231.691 402.458C223.102 391.493 220.818 378.518 223.65 364.994C226.483 351.654 232.514 339.318 237.265 326.708C242.291 313.367 244.849 299.753 245.763 285.498C247.408 259.548 247.499 233.871 254.992 208.743C262.211 184.529 275.551 164.427 297.116 150.812C308.994 143.319 320.782 136.466 331.199 126.963C341.798 117.46 351.392 107.043 362.814 98.454C383.83 82.4635 408.41 71.133 434.086 65.0109C458.575 59.2543 484.982 57.8836 509.562 63.4575C531.218 68.3917 553.605 79.0826 566.032 98.1799C569.047 102.749 571.331 107.774 572.885 112.983C574.164 116.82 580.103 115.267 578.915 111.429Z" fill="black"></path><path d="M263.946 426.49C260.383 434.256 247.499 424.845 241.925 424.297C234.615 423.657 228.036 428.408 224.564 434.531C219.904 442.754 221.183 452.531 222.736 461.395C224.655 471.629 226.848 481.863 229.224 492.097C233.975 512.747 239.641 533.215 246.037 553.5C249.235 563.46 252.707 573.329 256.088 583.197C259.743 593.888 261.662 604.122 262.119 615.453C263.033 635.464 269.794 653.647 285.511 666.805C288.526 669.364 292.912 664.978 289.897 662.419C275.825 650.54 269.155 634.458 268.424 616.275C267.967 606.315 266.962 596.903 264.038 587.309C261.114 577.898 257.641 568.669 254.535 559.348C248.23 540.251 242.747 520.971 237.905 501.508C235.437 491.64 233.244 481.68 231.143 471.72C229.133 462.126 225.569 450.887 228.493 441.201C229.864 436.724 233.153 432.338 237.722 430.876C242.473 429.414 246.859 432.155 251.063 433.891C257.185 436.358 266.048 436.724 269.337 429.596C270.891 426.033 265.591 422.835 263.946 426.49Z" fill="black"></path><path d="M577.271 117.643C633.283 142.771 667.366 196.316 694.687 248.765C702.089 262.928 709.581 277.092 716.069 291.62C722.556 306.057 727.856 321.591 727.399 337.673C726.851 353.664 719.633 368.192 713.419 382.629C707.845 395.605 703.825 408.854 700.809 422.56C694.23 452.714 690.941 485.061 672.209 510.737C670.473 513.204 673.397 515.671 675.681 515.306C698.616 511.559 681.438 575.613 678.605 585.755C675.224 598 671.021 610.153 665.63 621.666C663.528 626.235 660.787 631.443 656.127 633.91C652.289 635.92 645.619 635.737 643.791 630.986C642.329 627.331 636.39 628.884 637.852 632.631C642.421 644.509 657.68 642.773 664.899 634.55C669.65 629.067 672.3 622.031 675.042 615.361C678.331 607.32 681.164 599.005 683.631 590.69C688.565 573.968 691.763 556.698 693.317 539.337C693.956 531.753 694.504 523.255 690.027 516.585C686.372 511.194 680.524 508.27 674.036 509.366C675.224 510.92 676.321 512.382 677.509 513.935C694.504 490.726 699.073 461.943 704.647 434.348C707.48 420.184 710.678 405.93 715.978 392.407C721.734 377.787 729.684 363.806 732.425 348.181C738.182 316.109 720.546 285.864 706.566 258.451C691.672 229.211 676.047 200.154 655.762 174.204C635.568 148.345 610.531 125.775 580.377 112.252C576.814 110.698 573.707 115.998 577.271 117.643Z" fill="black"></path><path d="M669.285 538.058C671.113 555.419 668.646 572.689 661.975 588.863C660.422 592.517 666.453 594.162 667.915 590.507C674.768 573.968 677.418 555.968 675.499 538.058C675.042 534.129 668.92 534.129 669.285 538.058Z" fill="black"></path><path d="M258.008 492.827C250.515 524.991 267.602 554.688 275.917 584.75C277.014 588.588 282.953 586.943 281.857 583.106C273.907 554.323 256.82 525.174 263.947 494.472C264.861 490.634 258.922 488.898 258.008 492.827Z" fill="black"></path><path d="M400.278 268.777C426.777 229.303 470.454 202.347 517.603 196.499C521.532 196.042 521.532 189.829 517.603 190.286C468.078 196.408 422.756 224.186 394.978 265.579C392.785 268.959 398.085 272.066 400.278 268.777Z" fill="black"></path><path d="M542.457 200.793C541.36 211.119 535.421 219.799 528.751 227.383C522.263 234.602 515.136 241.364 507.826 247.76C492.84 260.827 475.296 272.157 455.011 273.802C451.082 274.076 451.082 280.289 455.011 280.015C477.033 278.279 495.856 266.401 512.212 252.237C527.654 238.805 546.386 222.541 548.762 200.885C549.127 196.864 542.914 196.864 542.457 200.793Z" fill="black"></path><path d="M568.042 242.643C606.328 261.01 629.72 298.382 661.519 325.155C664.534 327.713 668.92 323.327 665.905 320.769C633.741 293.722 609.983 255.893 571.24 237.344C567.585 235.608 564.479 240.999 568.042 242.643Z" fill="black"></path><path d="M688.931 466.512C691.215 456.826 690.941 447.049 690.575 437.18C690.21 426.855 690.393 416.621 691.215 406.296C692.86 385.371 697.246 364.812 703.916 344.983C705.195 341.237 699.256 339.592 697.977 343.338C691.489 362.619 687.286 382.63 685.367 402.915C684.453 412.875 684.088 422.926 684.362 432.977C684.636 443.668 685.55 454.45 683.083 464.958C681.986 468.705 687.926 470.349 688.931 466.512Z" fill="black"></path><path d="M299.674 415.982C306.801 395.057 308.081 372.67 314.386 351.471C320.599 330.82 330.011 311.357 341.981 293.448C344.174 290.159 338.874 287.052 336.681 290.341C324.711 308.251 315.299 327.714 308.903 348.273C302.233 369.929 300.953 392.864 293.643 414.337C292.456 418.083 298.395 419.728 299.674 415.982Z" fill="black"></path><path d="M270.343 356.496C276.556 316.383 288.801 273.071 323.98 248.766C327.178 246.481 324.163 241.181 320.873 243.466C284.232 268.777 270.891 313.002 264.404 354.852C263.764 358.689 269.703 360.426 270.343 356.496Z" fill="black"></path><path d="M459.032 164.061C455.743 151.269 450.443 139.116 443.316 127.968C441.214 124.587 435.823 127.694 438.016 131.075C444.869 141.766 449.895 153.37 453.093 165.706C454.098 169.544 460.037 167.899 459.032 164.061Z" fill="black"></path><path d="M378.256 223.455C377.343 197.23 369.576 171.645 355.687 149.35C353.585 145.969 348.285 149.076 350.387 152.457C363.636 173.838 371.129 198.235 372.043 223.455C372.226 227.384 378.348 227.384 378.256 223.455Z" fill="black"></path><path d="M584.672 193.666C580.377 176.945 581.382 159.675 587.413 143.502C588.784 139.755 582.844 138.202 581.474 141.857C575.077 159.035 574.164 177.584 578.732 195.311C579.646 199.149 585.586 197.596 584.672 193.666Z" fill="black"></path><path d="M357.331 447.597C389.404 431.515 429.335 435.079 458.301 456.095C461.499 458.471 464.605 453.079 461.407 450.795C430.614 428.408 388.216 425.302 354.225 442.297C350.661 444.033 353.768 449.333 357.331 447.597Z" fill="black"></path><path d="M560.001 462.034C575.626 455.729 592.987 452.166 609.617 456.186C623.78 459.567 636.39 468.156 643.152 481.223C644.979 484.786 650.279 481.588 648.452 478.116C641.142 464.136 627.618 454.541 612.541 450.612C594.449 445.861 575.352 449.242 558.265 456.186C554.701 457.557 556.346 463.496 560.001 462.034Z" fill="black"></path><path d="M386.023 475.009C395.252 465.14 409.506 461.486 422.573 464.135C436.371 466.968 447.792 475.923 456.382 486.796C458.849 489.903 463.143 485.517 460.768 482.41C451.082 470.075 437.376 460.115 421.568 457.648C407.131 455.455 391.78 459.749 381.637 470.532C378.987 473.547 383.373 477.933 386.023 475.009Z" fill="black"></path><path d="M383.282 478.299C404.573 493.833 432.168 499.041 457.661 492.645C461.499 491.64 459.854 485.7 456.017 486.705C431.985 492.736 406.4 487.619 386.389 472.999C383.191 470.623 380.084 476.015 383.282 478.299Z" fill="black"></path><path d="M549.858 504.98C560.366 495.295 574.895 483.142 589.972 482.594C598.287 482.228 603.586 486.34 609.617 491.457C616.013 496.939 622.501 502.513 628.897 507.996C631.913 510.554 636.299 506.26 633.283 503.61C625.79 497.122 618.206 490.634 610.622 484.238C604.592 479.121 598.013 476.106 589.972 476.38C573.159 477.02 557.351 489.629 545.472 500.594C542.548 503.336 546.934 507.722 549.858 504.98Z" fill="black"></path><path d="M549.767 505.163C563.016 515.58 576.266 524.626 593.627 525.448C608.247 526.088 627.527 526.362 634.106 510.463C635.659 506.808 629.628 505.163 628.166 508.818C622.684 521.976 601.85 520.148 590.337 519.052C576.266 517.681 564.935 509.183 554.061 500.777C551.046 498.31 546.66 502.696 549.767 505.163Z" fill="black"></path><path d="M573.615 489.446C579.737 496.939 583.667 506.716 593.626 509.823C603.952 513.021 610.622 504.249 617.475 497.944C620.399 495.203 616.013 490.908 613.089 493.558C607.15 499.132 601.302 507.721 592.439 502.513C585.951 498.675 582.661 490.726 578.001 485.06C575.443 481.954 571.148 486.34 573.615 489.446Z" fill="black"></path><path d="M589.149 484.147C587.687 489.812 587.139 496.117 590.885 501.051C593.809 504.98 598.926 506.808 603.495 504.706C608.338 502.513 609.252 497.762 608.429 492.919C607.516 487.162 604.135 482.502 598.104 481.954C594.175 481.588 594.175 487.71 598.104 488.167C602.49 488.624 605.231 499.406 599.475 499.498C592.804 499.589 594.083 489.629 595.089 485.791C596.094 481.954 590.154 480.309 589.149 484.147Z" fill="black"></path><path d="M405.761 466.329C408.959 472.542 412.979 478.573 419.741 481.314C427.416 484.329 436.645 483.233 444.595 481.954C448.524 481.314 446.879 475.375 442.95 476.014C436.645 477.019 429.061 478.025 422.848 475.923C416.908 474.004 413.802 468.43 411.06 463.222C409.233 459.658 403.933 462.765 405.761 466.329Z" fill="black"></path><path d="M420.745 464.958C420.197 469.983 421.02 476.197 426.685 477.75C431.893 479.212 435.274 474.369 436.827 470.166C438.198 466.42 432.259 464.867 430.888 468.521C430.523 469.527 429.517 472.268 428.055 471.628C425.954 470.715 426.685 466.511 426.868 464.867C427.05 463.222 425.314 461.76 423.761 461.76C422.025 461.943 420.928 463.313 420.745 464.958Z" fill="black"></path><path d="M461.498 549.663C444.411 550.85 434.451 570.679 445.782 584.385C456.107 596.812 474.474 593.248 487.083 601.564C494.576 606.498 499.145 613.442 509.105 612.163C518.699 610.884 525.918 602.934 535.512 601.746C538.07 601.381 540.446 601.655 542.639 603.025C544.284 604.031 545.655 605.401 547.482 605.949C550.589 606.955 553.604 605.858 555.706 603.391C557.625 601.107 558.447 598.091 558.812 595.167C559.544 589.959 559.909 584.568 559.543 579.359C559.178 574.06 557.807 569.034 555.158 564.283C552.508 559.44 548.853 555.236 546.568 550.211C541.634 539.703 543.553 527.276 540.72 516.219C539.715 512.382 533.776 514.026 534.781 517.864C536.791 525.905 536.517 534.22 537.888 542.444C539.167 550.302 542.913 556.424 547.117 563.003C552.234 570.77 553.878 578.354 553.33 587.583C553.147 590.964 553.239 595.076 551.685 598.183C549.766 602.112 545.38 597.086 542.548 596.172C536.06 594.071 529.116 596.538 523.359 599.462C516.14 603.117 507.734 609.33 499.784 604.031C493.936 600.193 489.825 595.35 483.063 592.791C477.215 590.599 470.91 589.685 464.879 588.04C457.752 586.213 450.077 583.106 447.701 575.43C444.685 565.836 451.539 556.424 461.407 555.693C465.428 555.602 465.427 549.388 461.498 549.663Z" fill="black"></path><path d="M485.257 499.68C491.013 503.975 488.272 517.133 487.541 523.072C486.445 531.936 484.16 540.616 481.053 549.023C479.683 552.769 485.622 554.322 486.993 550.667C490.922 540.068 493.389 528.92 494.303 517.59C494.942 509.457 495.673 499.863 488.455 494.381C485.165 492.005 482.15 497.396 485.257 499.68Z" fill="black"></path><path d="M478.86 566.293C484.16 570.587 488.454 575.704 491.652 581.735C493.48 585.207 498.871 582.101 496.952 578.628C493.571 572.232 488.911 566.567 483.246 561.998C480.231 559.531 475.753 563.826 478.86 566.293Z" fill="black"></path><path d="M412.339 640.398C424.492 636.743 437.01 634.916 449.62 635.281C462.504 635.555 474.748 639.302 487.54 640.398C500.15 641.495 512.851 639.667 525.369 641.677C537.34 643.596 547.939 649.627 556.894 657.668C559.818 660.318 564.204 655.932 561.28 653.282C552.599 645.607 542.457 639.302 531.126 636.56C517.968 633.362 504.262 635.098 490.921 634.459C477.306 633.728 464.148 629.616 450.442 629.159C437.01 628.794 423.487 630.621 410.603 634.55C406.948 635.647 408.501 641.586 412.339 640.398Z" fill="black"></path><path d="M421.234 647.168C437.316 648.447 452.027 655.392 467.378 659.687C483.46 664.255 499.907 663.707 516.446 663.89C520.832 663.981 525.218 663.981 529.604 664.073C531.614 664.073 533.716 664.164 535.726 664.164C536.457 664.164 537.645 664.438 538.376 664.164C539.747 664.255 539.564 664.073 537.736 663.616C537.554 663.981 537.28 664.438 537.097 664.804C535.818 665.809 534.812 667.819 533.625 669.007C532.254 670.286 530.792 671.383 529.239 672.479C525.675 674.855 521.746 676.774 517.725 678.236C502.649 683.718 484.374 683.809 470.119 676.134C461.895 671.748 454.403 665.991 446.636 660.783C438.138 655.026 429.64 649.27 421.234 643.513C417.944 641.32 414.837 646.62 418.127 648.813C426.625 654.57 435.123 660.326 443.529 666.083C451.661 671.565 459.611 677.779 468.383 682.165C483.825 689.84 503.288 689.932 519.37 684.084C526.68 681.434 534.173 677.596 539.473 671.839C542.671 668.276 548.153 659.595 540.295 658.042C536.183 657.219 531.249 657.859 527.046 657.859C521.746 657.768 516.538 657.768 511.238 657.676C501.095 657.585 490.77 657.95 480.719 656.397C460.342 653.199 441.976 642.599 421.234 640.955C417.305 640.681 417.305 646.803 421.234 647.168Z" fill="black"></path><path d="M571.24 616.457C579.372 630.072 587.413 647.251 578.093 662.328C575.991 665.708 581.382 668.815 583.393 665.434C593.901 648.347 585.86 628.884 576.539 613.351C574.529 609.97 569.138 612.985 571.24 616.457Z" fill="black"></path><path d="M430.065 586.944C426.867 592.152 422.573 597.178 418.095 601.289C413.618 605.401 407.405 607.229 402.013 609.879C393.241 614.356 382.002 619.839 380.632 630.712C380.175 634.641 386.297 634.641 386.845 630.712C387.576 625.047 393.698 621.666 398.176 619.016C403.11 616.092 408.318 613.716 413.527 611.341C422.756 607.137 430.157 598.548 435.457 590.05C437.467 586.669 432.167 583.563 430.065 586.944Z" fill="black"></path><path d="M501.156 345.257C495.216 330.729 486.627 317.753 475.479 306.697C472.647 303.864 468.261 308.25 471.093 311.083C481.419 321.317 489.643 333.47 495.125 346.902C496.678 350.557 502.618 349.003 501.156 345.257Z" fill="black"></path><path d="M524.091 316.84C531.949 319.764 537.797 326.069 543.919 331.643C550.224 337.399 556.986 342.151 565.392 343.978C574.073 345.806 583.758 345.897 592.53 344.983C600.114 344.161 606.785 341.785 611.536 335.572C613.912 332.465 608.612 329.358 606.237 332.465C601.576 338.496 593.079 339.044 586.043 339.135C577.088 339.318 567.22 339.501 559.087 335.298C546.66 328.901 539.259 315.926 525.827 310.992C521.989 309.53 520.344 315.469 524.091 316.84Z" fill="black"></path></g></svg>