<svg xmlns="http://www.w3.org/2000/svg" width="900" height="900" viewBox="0 0 900 900" fill="none"><mask id="mask0_1011_4187" style="mask-type:alpha" maskUnits="userSpaceOnUse" x="0" y="0" width="900" height="900"><rect width="900" height="900" rx="450" fill="#C4C4C4"></rect></mask><g mask="url(#mask0_1011_4187)"><rect x="3" y="3" width="894" height="894" rx="447" stroke="black" stroke-width="6"></rect><path d="M597.433 186.965C607.24 200.225 609.594 218.741 601.905 233.648C594.844 247.457 579.701 257.892 563.931 257.814C560.086 257.814 555.85 257.029 552.868 254.44C549.573 251.537 548.71 246.986 547.533 242.985C545.493 235.688 542.119 229.255 536.863 223.763C525.486 211.758 509.323 206.502 493.318 204.383C475.508 201.951 456.991 201.245 439.103 201.48C421.528 201.637 403.639 203.677 387.32 210.503C371 217.25 357.27 228.627 344.873 240.945C332.947 252.714 322.12 265.66 312.47 279.312C290.736 309.989 275.123 344.903 266.571 381.544C265.786 384.839 270.886 386.251 271.671 382.956C279.517 349.219 293.404 317.129 312.627 288.334C322.199 274.055 333.026 260.638 344.952 248.32C357.505 235.374 371.314 223.056 388.026 215.838C405.365 208.306 424.588 206.658 443.261 206.737C452.519 206.815 461.856 207.286 471.114 207.835C480.921 208.385 490.807 208.934 500.458 210.895C516.542 214.191 533.567 222.507 540.472 238.356C543.453 245.182 543.532 253.42 549.573 258.52C555.144 263.227 562.911 263.62 569.815 262.6C586.213 260.168 601.042 248.869 607.633 233.727C614.694 217.643 612.34 198.342 601.905 184.298C600.022 181.63 595.393 184.219 597.433 186.965Z" fill="black"></path><path d="M291.522 414.261C288.932 449.803 315.452 478.911 317.178 513.669C318.198 534.068 309.724 553.448 307.527 573.455C305.487 591.892 307.37 610.723 312.078 628.611C316.864 646.735 324.553 664.153 334.282 680.159C343.775 695.851 355.152 711.072 369.353 722.919C399.717 748.261 440.515 750.144 478.254 751.478C498.967 752.184 519.837 752.263 540.472 750.38C556.949 748.889 573.739 745.751 588.332 737.669C602.847 729.667 612.419 716.956 618.931 701.971C625.757 686.436 629.994 668.939 641.135 655.68C647.098 648.618 654.787 643.205 660.436 635.673C666.399 627.67 670.479 618.176 674.637 609.153C683.189 590.716 690.565 571.65 694.723 551.643C702.176 515.395 697.077 478.598 687.191 443.291C676.991 407.121 662.398 372.442 651.57 336.508C646.157 318.463 641.684 300.103 639.409 281.351C637.134 261.972 636.977 242.357 633.289 223.135C631.485 213.877 628.817 204.854 624.816 196.302C623.403 193.242 618.853 195.909 620.265 198.969C628.582 216.936 630.386 236.787 631.877 256.244C633.289 274.761 635.172 292.963 639.331 311.087C647.412 346.472 660.985 380.288 672.597 414.575C683.974 448.155 693.86 482.991 693.075 518.769C692.683 538.226 688.76 557.292 682.483 575.73C679.266 585.302 675.422 594.639 671.185 603.818C667.027 612.841 663.025 622.335 657.376 630.651C652.041 638.497 644.195 643.911 638.075 650.972C632.74 657.092 628.739 664.153 625.443 671.528C618.853 686.279 614.695 702.441 605.279 715.779C584.566 744.888 542.904 745.986 510.736 746.457C489.866 746.771 468.918 746.143 448.126 744.417C429.296 742.926 410.073 739.945 392.891 731.785C376.1 723.782 362.605 710.758 351.464 696.086C340.323 681.336 330.908 665.173 324.082 647.991C317.256 630.887 312.862 612.841 312.078 594.403C311.686 584.91 312.156 575.416 313.804 566.079C315.452 556.586 318.119 547.328 320.081 537.913C321.964 528.654 323.141 519.239 322.199 509.824C321.414 501.743 319.375 493.819 316.707 486.13C311.215 470.046 303.369 454.746 299.132 438.27C297.092 430.345 296.151 422.264 296.778 414.026C297.092 410.887 291.757 410.887 291.522 414.261Z" fill="black"></path><path d="M650.237 135.967C629.053 121.295 608.026 106.388 586.685 91.9512C566.442 78.2993 545.494 67.8643 521.642 62.2937C497.791 56.7231 472.998 54.4478 448.675 52.2509C423.804 50.0541 398.618 50.0541 374.688 58.0569C334.517 71.5518 297.955 99.7187 271.358 132.358C243.74 166.33 226.008 207.521 222.007 251.223C219.889 274.133 221.536 297.357 227.107 319.639C229.853 330.781 233.776 341.451 238.326 351.965C243.112 363.027 248.448 374.247 250.252 386.33C251.194 392.606 250.88 398.805 249.075 404.846C248.134 408.141 253.234 409.554 254.175 406.258C260.766 383.505 247.742 362.086 239.66 341.608C231.187 320.267 226.871 297.357 226.401 274.447C225.538 230.353 239.189 187.044 264.061 150.796C287.756 116.274 321.179 87.8713 359.075 70.0611C381.593 59.4691 405.13 55.4677 429.924 56.3308C442.477 56.7231 454.952 58.1353 467.427 59.4691C479.51 60.8029 491.592 62.1368 503.518 64.0982C516.542 66.2951 529.567 69.1981 541.963 73.7487C554.752 78.4562 566.678 85.1253 578.054 92.5004C601.592 107.878 624.424 124.433 647.569 140.517C650.394 142.557 653.061 137.928 650.237 135.967Z" fill="black"></path><path d="M639.644 133.692C665.849 151.816 686.013 178.256 697.233 207.992C702.803 222.743 706.256 238.434 707.119 254.205C708.139 273.113 705.157 291.865 702.96 310.617C700.371 332.821 699.273 355.182 699.587 377.464C699.665 380.838 704.922 380.916 704.922 377.464C704.608 356.672 705.55 335.802 707.746 315.167C709.865 295.71 713.317 276.252 712.532 256.558C711.277 224.39 699.9 192.771 680.913 166.801C670.243 152.129 657.219 139.341 642.233 129.062C639.487 127.179 636.819 131.809 639.644 133.692Z" fill="black"></path><path d="M662.24 356.672C666.006 361.536 668.125 367.107 670.165 372.834C672.518 379.346 674.872 385.937 677.226 392.449C681.855 405.316 686.406 418.105 691.035 430.973C692.212 434.189 697.312 432.777 696.135 429.56C691.349 416.222 686.563 402.884 681.777 389.625C679.423 383.112 677.148 376.679 674.794 370.167C672.754 364.439 670.479 358.869 666.791 354.004C664.751 351.337 660.2 353.926 662.24 356.672Z" fill="black"></path><path d="M276.3 427.364C277.006 439.054 277.712 450.666 278.418 462.357C278.968 471.458 277.712 483.384 283.283 491.151C285.244 493.897 289.873 491.23 287.834 488.484C285.009 484.561 284.695 480.01 284.46 475.303C284.146 469.967 283.832 464.632 283.518 459.375C282.891 448.705 282.263 438.113 281.557 427.443C281.4 423.912 276.065 423.912 276.3 427.364Z" fill="black"></path><path d="M258.177 427.834C251.978 422.42 244.917 418.184 237.15 415.673C234.404 414.731 231.03 413.476 228.127 414.731C224.988 416.065 224.518 419.439 224.361 422.499C223.419 441.407 226.715 460.63 233.384 478.283C239.739 495.23 248.918 511.314 252.92 529.125C256.843 546.621 255.509 564.824 260.373 582.163C262.649 590.166 266.258 599.659 273.633 604.288C279.596 608.055 287.913 607.113 291.836 600.915C293.64 598.012 289.09 595.344 287.285 598.247C282.734 605.387 274.104 598.875 271.044 594.01C267.199 587.891 265.16 580.672 263.826 573.611C261.08 559.096 261.393 544.189 258.412 529.752C255.509 515.316 249.075 501.978 243.269 488.64C236.914 474.046 232.05 458.982 230.324 443.055C229.853 438.661 229.618 434.268 229.539 429.874C229.539 427.677 229.539 425.48 229.618 423.283C229.774 420.694 229.696 419.203 232.599 419.91C240.68 421.871 248.212 426.186 254.411 431.6C257 433.875 260.766 430.109 258.177 427.834Z" fill="black"></path><path d="M711.67 329.917C722.105 331.879 734.031 334.311 741.877 342.157C752.155 352.357 747.996 367.342 742.269 378.719C739.209 384.76 735.757 390.566 733.089 396.765C730.422 403.12 729.166 409.71 728.852 416.615C728.382 430.816 728.852 444.703 723.282 458.198C717.868 471.379 706.962 482.363 692.604 484.874C689.231 485.423 690.643 490.523 694.017 489.974C706.727 487.777 717.319 479.225 723.988 468.476C731.834 455.766 733.952 440.466 734.031 425.794C734.109 417.321 734.031 409.161 737.012 401.08C739.758 393.548 744.23 386.8 747.683 379.582C753.489 367.578 756.784 352.749 747.996 341.294C739.837 330.702 725.479 327.328 713.004 324.896C709.708 324.19 708.296 329.29 711.67 329.917Z" fill="black"></path><path d="M504.93 350.945C525.172 352.043 544.16 344.668 563.853 341.529C580.094 338.94 598.767 339.646 611.556 351.18C614.067 353.455 617.833 349.689 615.322 347.414C583.938 319.09 540.472 347.571 504.93 345.609C501.478 345.452 501.478 350.788 504.93 350.945Z" fill="black"></path><path d="M311.921 389.389C322.199 372.364 338.911 361.458 358.761 359.418C378.689 357.378 400.501 359.653 417.527 370.873C420.351 372.756 423.019 368.205 420.194 366.322C401.756 354.161 377.512 351.65 355.936 354.475C335.38 357.143 318.04 369.068 307.37 386.722C305.644 389.625 310.194 392.292 311.921 389.389Z" fill="black"></path><path d="M325.808 424.618C338.675 411.986 353.347 399.903 371.079 395.196C387.006 390.959 405.365 393.548 417.291 405.631C419.723 408.063 423.411 404.297 421.057 401.865C408.347 388.997 389.124 385.702 371.942 389.547C352.327 393.862 336.007 407.122 322.042 420.852C319.609 423.284 323.375 426.972 325.808 424.618Z" fill="black"></path><path d="M324.866 424.382C343.069 431.365 362.919 434.033 382.298 431.993C391.635 431.051 401.05 429.168 409.916 425.873C417.134 423.205 423.568 418.184 422.391 409.71C421.92 406.337 416.82 407.749 417.291 411.123C418.468 419.675 404.581 422.185 398.696 423.676C390.615 425.716 382.298 426.893 373.982 427.207C357.662 427.756 341.5 425.01 326.279 419.204C323.062 418.027 321.728 423.127 324.866 424.382Z" fill="black"></path><path d="M366.136 396.922C356.015 397.314 354.446 408.691 355.23 416.694C355.701 421.323 358.055 423.912 362.135 425.795C366.293 427.678 372.099 431.365 376.807 430.895C381.122 430.424 382.926 426.344 384.339 422.735C386.143 418.106 387.32 412.692 386.849 407.671C386.065 398.177 376.885 396.765 369.118 397.706C365.744 398.099 365.744 403.434 369.118 403.042C373.276 402.571 380.337 401.708 381.514 407.122C382.142 410.025 381.436 413.398 380.808 416.223C380.337 418.42 379.631 422.578 377.983 424.147C375.002 426.893 370.687 423.676 367.705 422.421C364.881 421.166 361.585 420.46 360.644 417.086C359.389 412.614 360.095 402.492 366.215 402.179C369.51 402.1 369.51 396.765 366.136 396.922Z" fill="black"></path><path d="M321.257 411.75C336.007 399.275 352.954 386.094 373.275 386.33C376.649 386.408 376.649 381.073 373.275 380.994C351.464 380.681 333.418 394.568 317.491 407.984C314.902 410.181 318.668 413.947 321.257 411.75Z" fill="black"></path><path d="M509.951 407.906C524.388 396.373 539.923 384.133 558.517 380.759C576.406 377.464 594.687 384.682 606.142 398.57C608.339 401.237 612.027 397.471 609.908 394.803C597.825 380.132 578.525 372.6 559.616 375.189C538.981 378.092 521.955 391.508 506.185 404.062C503.596 406.337 507.362 410.025 509.951 407.906Z" fill="black"></path><path d="M519.367 403.669C533.803 405.788 548.239 407.2 562.833 407.749C575.7 408.22 589.274 408.691 600.886 402.336C603.867 400.688 601.199 396.137 598.218 397.785C587.077 403.905 573.582 402.963 561.342 402.414C547.769 401.865 534.274 400.609 520.779 398.57C517.484 398.099 515.993 403.199 519.367 403.669Z" fill="black"></path><path d="M559.38 377.464C552.711 379.269 545.179 381.936 543.139 389.39C541.021 397 547.141 401.237 553.261 403.826C560.087 406.729 567.776 411.123 574.131 404.846C580.251 398.727 578.524 389.861 576.406 382.407C575.465 379.112 570.365 380.524 571.306 383.819C572.718 388.762 574.601 394.804 571.699 399.511C568.168 405.317 562.362 401.943 557.497 399.903C553.104 398.099 545.807 395.667 548.867 389.468C551.064 385.075 556.556 383.819 560.871 382.642C564.088 381.701 562.676 376.601 559.38 377.464Z" fill="black"></path><path d="M534.195 370.873C547.376 369.226 560.636 368.363 573.896 368.284C579.937 368.284 586.135 368.441 591.627 371.266C596.492 373.776 600.022 377.778 602.376 382.642C603.867 385.702 608.418 383.035 606.927 379.975C601.67 368.99 591.157 363.655 579.309 363.027C564.324 362.243 548.946 363.655 534.117 365.46C530.9 366.009 530.822 371.266 534.195 370.873Z" fill="black"></path><path d="M457.07 384.996C457.305 404.14 456.442 423.284 454.559 442.349C454.245 445.723 459.502 445.723 459.894 442.349C461.856 423.284 462.64 404.14 462.405 384.996C462.326 381.622 457.07 381.622 457.07 384.996Z" fill="black"></path><path d="M432.042 417.243C432.355 427.364 432.669 437.485 432.905 447.685C433.14 455.688 435.651 467.927 427.648 473.027C424.588 474.989 421.293 476.244 418.547 478.676C416.036 480.873 414.153 483.619 412.819 486.679C409.995 493.034 410.073 499.938 412.819 506.294C414.153 509.432 418.703 506.686 417.37 503.626C414.467 496.957 416.114 488.719 421.136 483.541C426.157 478.284 433.768 477.578 436.828 470.202C439.731 463.141 438.397 454.432 438.161 446.979C437.847 437.093 437.612 427.207 437.298 417.321C437.22 413.869 431.963 413.79 432.042 417.243Z" fill="black"></path><path d="M444.595 530.224C456.756 531.715 478.176 538.07 483.981 522.614C485.158 519.397 480.059 518.063 478.882 521.201C476.528 527.478 468.839 527.713 463.19 527.243C456.992 526.693 450.715 525.752 444.517 524.967C441.221 524.497 441.3 529.832 444.595 530.224Z" fill="black"></path><path d="M500.222 431.13C502.576 438.897 504.851 446.743 507.205 454.51C509.088 460.866 510.814 467.535 514.345 473.262C518.032 479.225 524.466 483.07 527.212 489.739C529.801 496.094 529.566 503.234 529.487 509.903C529.409 513.276 534.744 513.276 534.823 509.903C534.901 503.312 534.98 496.408 532.94 490.052C530.821 483.226 526.114 479.303 521.563 474.125C516.777 468.633 514.816 461.493 512.776 454.589C510.265 446.272 507.833 438.034 505.322 429.717C504.381 426.422 499.202 427.834 500.222 431.13Z" fill="black"></path><path d="M474.645 510.452C479.352 500.958 486.727 493.583 496.221 488.954C499.281 487.463 496.613 482.913 493.553 484.403C483.353 489.425 475.115 497.584 470.015 507.784C468.525 510.844 473.075 513.512 474.645 510.452Z" fill="black"></path><path d="M389.83 595.815C409.524 614.646 430.943 632.22 458.561 637.085C483.981 641.557 510.422 635.751 531.449 620.609C542.276 612.763 551.378 602.955 558.204 591.5C559.93 588.597 555.379 585.93 553.653 588.833C541.963 608.29 523.132 623.198 501.321 629.631C476.214 637.006 449.146 632.927 426.942 619.353C414.624 611.821 403.953 602.014 393.596 592.128C391.086 589.696 387.32 593.462 389.83 595.815Z" fill="black"></path><path d="M391.949 533.441C387.947 545.053 382.848 556.194 376.649 566.786C374.923 569.767 379.474 572.435 381.2 569.454C387.634 558.469 392.89 546.857 397.049 534.775C398.147 531.558 393.047 530.224 391.949 533.441Z" fill="black"></path><path d="M592.255 569.296C594.138 553.212 587.547 536.814 575.072 526.379C572.483 524.182 568.717 527.949 571.306 530.145C582.84 539.717 588.646 554.389 586.92 569.296C586.606 572.67 591.863 572.592 592.255 569.296Z" fill="black"></path><path d="M332.04 733.234C351.707 754.165 371.375 775.096 390.948 796.138C399.658 805.502 408.368 814.976 414.362 827.094C420.637 839.653 424.196 853.644 427.754 867.414C428.878 871.931 435.059 870.058 433.842 865.431C430.377 851.881 426.818 838.22 421.011 825.772C415.205 813.213 406.682 803.078 397.785 793.383C377.462 771.461 356.858 749.758 336.442 727.946C333.445 724.861 328.949 730.039 332.04 733.234Z" fill="black"></path><path d="M671.601 648.673C645.228 671.547 642.247 713.114 644.686 749.293C647.757 794.05 652.273 838.807 656.156 883.454C656.518 888.182 662.659 888.182 662.298 883.454C658.685 841.446 654.802 799.549 651.46 757.541C648.57 722.242 648.118 678.145 674.672 655.052C677.833 652.302 674.762 645.924 671.601 648.673Z" fill="black"></path><path d="M679.087 768.127C688.904 777.606 694.701 791.053 702.275 802.737C709.848 814.531 718.45 825.443 727.706 835.473C746.406 855.754 767.443 872.618 788.387 889.371C791.753 892.017 794.932 885.624 791.566 882.978C770.622 866.225 749.585 849.361 731.072 828.97C721.909 818.939 713.307 808.027 705.921 796.013C698.909 784.55 693.112 771.875 683.668 762.836C680.396 759.971 675.908 765.151 679.087 768.127Z" fill="black"></path><path d="M302.484 741.525C329.475 794.017 349.512 852.11 383.823 898.782C386.476 902.406 390.776 897.135 388.215 893.511C354.362 847.278 334.599 789.624 307.882 737.681C305.686 733.728 300.38 737.462 302.484 741.525Z" fill="black"></path><path d="M278.108 723.884C245.603 795.621 181.341 835.087 118.199 860.707C98.397 868.775 78.3149 875.752 58.2328 882.73C54.3098 884.038 55.9911 891.233 59.9141 889.816C127.913 866.049 199.555 840.429 250.647 779.704C263.724 764.222 274.932 746.779 283.619 727.482C285.487 723.339 279.976 719.632 278.108 723.884Z" fill="black"></path><path d="M267.068 807.581C266.664 834.231 268.077 860.88 271.107 887.419C271.612 892.194 278.478 892.194 277.973 887.419C274.944 860.88 273.631 834.231 273.934 807.581C273.934 802.806 267.169 802.806 267.068 807.581Z" fill="black"></path><path d="M370.922 398.962C364.959 399.04 364.41 408.141 365.037 412.457C365.744 417.713 370.216 421.322 375.237 418.262C379.945 415.438 383.475 409.554 381.749 403.983C381.122 401.865 379.395 399.354 377.12 398.883C374.296 398.334 371.314 401.472 369.196 402.963C366.45 404.924 369.117 409.475 371.863 407.514C373.119 406.651 374.453 405.709 375.708 404.846C376.806 404.061 376.963 403.983 376.179 404.454C376.336 404.768 376.492 405.081 376.649 405.317C376.806 408.22 376.492 410.024 374.217 412.221C367.47 418.812 371.079 404.061 370.922 404.061C374.374 404.218 374.374 398.962 370.922 398.962Z" fill="black"></path><path d="M407.876 186.887C380.886 168.135 354.602 148.207 329.26 127.258C326.671 125.14 322.905 128.827 325.494 131.024C351.228 152.208 377.826 172.372 405.208 191.438C407.954 193.399 410.622 188.77 407.876 186.887Z" fill="black"></path><path d="M442.477 188.77C427.883 158.877 408.426 131.495 384.966 107.879C382.534 105.446 378.846 109.212 381.2 111.645C404.346 134.947 423.49 161.937 437.926 191.516C439.417 194.497 443.967 191.83 442.477 188.77Z" fill="black"></path><path d="M481.628 167.742C456.599 134.868 426.706 106.073 392.969 82.3003C390.145 80.3388 387.555 84.8895 390.301 86.8509C423.254 110.075 452.52 138.32 476.999 170.41C479.039 173.077 483.668 170.41 481.628 167.742Z" fill="black"></path><path d="M536.47 174.961C512.305 140.517 482.647 110.389 448.675 85.5957C445.928 83.5558 443.261 88.1849 446.007 90.1463C479.195 114.39 508.303 143.969 531.841 177.628C533.803 180.374 538.432 177.707 536.47 174.961Z" fill="black"></path><path d="M648.196 229.02C665.693 259.226 679.109 291.63 688.053 325.367C688.916 328.663 694.016 327.25 693.153 323.955C684.052 289.825 670.479 256.951 652.747 226.352C651.021 223.37 646.47 226.038 648.196 229.02Z" fill="black"></path><path d="M668.91 205.089C676.913 220.31 683.425 236.238 688.446 252.714C689.466 255.931 694.566 254.597 693.546 251.302C688.368 234.355 681.699 218.035 673.46 202.343C671.891 199.362 667.341 202.029 668.91 205.089Z" fill="black"></path><path d="M449.281 603.624C429.823 593.817 413.447 601.074 392.42 595.346C392.655 596.994 392.812 598.563 393.047 600.211C413.447 591.423 429.845 572.829 453.225 572.279C466.328 571.965 479.195 575.496 492.298 575.104C505.244 574.633 517.326 572.593 530.115 575.967C543.846 579.498 556.321 586.559 568.56 593.542C571.542 595.189 574.209 590.639 571.228 588.991C560.165 582.714 548.945 576.438 536.784 572.436C524.152 568.278 512.07 568.356 498.967 569.455C484.923 570.553 471.585 567.65 457.619 567.101C445.458 566.63 434.552 569.926 424.039 575.888C412.662 582.322 402.384 590.56 390.38 595.739C388.183 596.68 388.967 600.054 391.007 600.603C411.642 606.174 427.547 598.681 446.613 608.332C449.594 609.665 452.34 605.115 449.281 603.624Z" fill="black"></path><path d="M446.164 608.055C486.335 610.958 526.898 601.935 562.048 582.242C565.03 580.594 562.362 575.965 559.381 577.691C525.016 596.914 485.472 605.623 446.164 602.798C442.79 602.484 442.79 607.82 446.164 608.055Z" fill="black"></path><path d="M558.36 380.053C554.359 383.662 555.614 390.566 560.165 393.077C564.558 395.431 572.561 393.705 574.601 388.919C576.72 384.054 572.875 378.641 567.775 378.248C564.794 378.013 563.303 379.582 562.283 382.171C561.263 384.525 560.714 387.271 562.597 389.311C564.951 391.743 568.717 388.056 566.363 385.545C566.755 386.016 567.304 383.74 567.383 383.662C567.775 383.348 568.246 383.584 568.717 383.897C569.344 384.29 569.972 384.996 569.972 385.859C570.051 387.271 568.795 387.742 567.697 388.134C566.284 388.683 564.323 389.154 562.832 388.448C561.106 387.585 560.635 385.074 562.126 383.74C564.637 381.465 560.871 377.778 558.36 380.053Z" fill="black"></path><path d="M325.729 577.77C331.535 579.574 334.517 585.93 337.498 590.716C341.186 596.6 344.952 602.484 348.639 608.369C356.171 620.373 363.782 632.299 371.314 644.303C373.119 647.206 377.748 644.538 375.865 641.635C367.47 628.376 359.074 615.038 350.679 601.778C346.678 595.423 342.755 588.989 338.597 582.713C335.694 578.241 332.241 574.239 326.985 572.591C323.846 571.65 322.434 576.75 325.729 577.77Z" fill="black"></path></g></svg>