<svg xmlns="http://www.w3.org/2000/svg" width="900" height="900" viewBox="0 0 900 900" fill="none"><mask id="mask0_1011_3414" style="mask-type:alpha" maskUnits="userSpaceOnUse" x="0" y="0" width="900" height="900"><rect width="900" height="900" rx="450" fill="#C4C4C4"></rect></mask><g mask="url(#mask0_1011_3414)"><rect x="3" y="3" width="894" height="894" rx="447" stroke="black" stroke-width="6"></rect><path d="M617.46 101.747C599.736 103.124 581.936 101.452 564.587 96.6325C546.938 91.715 530.491 83.1586 514.194 73.2252C498.497 63.6853 482.876 54.6371 465.827 50.2113C449.455 45.8839 432.557 44.9987 415.959 47.0641C348.967 55.0305 291.739 106.664 242.246 162.724C229.404 177.28 217.537 192.819 207.774 211.112C198.311 228.913 190.726 248.288 183.516 267.86C168.57 308.774 153.325 349.097 134.924 387.552C125.687 406.829 115.998 425.712 105.709 444.103C96.5468 460.528 87.3091 477.837 87.0087 498.983C86.7083 520.324 94.2186 541.175 102.33 559.173C110.291 576.876 120.204 593.104 131.244 607.758C142.209 622.215 154.601 634.214 166.392 647.393C178.033 660.375 188.548 675.422 192.002 695.486C199.363 738.662 176.982 777.51 154.151 804.949C148.067 812.227 141.834 819.21 135.525 826.095C133.047 828.849 136.652 833.569 139.13 830.815C162.863 804.654 188.247 776.035 196.058 734.924C199.663 716.041 199.212 695.781 192.678 678.078C186.37 660.965 175.179 648.081 164.064 636.378C152.048 623.69 140.182 610.905 129.667 596.054C118.852 580.711 109.464 563.795 102.179 545.207C94.3688 525.242 88.5859 502.425 94.8945 480.296C97.7484 470.363 102.405 461.413 107.136 452.856C112.168 443.71 117.2 434.662 122.082 425.318C141.834 387.65 159.408 348.114 174.804 307.102C189.299 268.45 201.691 227.241 223.996 194.786C235.337 178.361 248.555 164.002 261.623 150.037C274.54 136.169 287.834 122.99 301.803 110.992C329.591 86.9942 359.932 67.5209 392.677 58.3743C426.173 49.0311 461.096 50.9981 493.015 68.111C509.462 76.9625 525.083 88.0761 541.906 95.4523C558.054 102.534 574.877 106.763 591.85 108.336C600.336 109.123 608.898 109.123 617.385 108.435C620.689 108.139 620.689 101.452 617.46 101.747Z" fill="black"></path><path d="M616.634 109.123C649.003 152.495 681.297 195.966 713.441 239.535C729.213 260.877 744.984 282.219 760.606 303.758C775.176 323.821 788.244 344.868 796.58 370.537C805.442 397.78 809.047 427.58 807.245 456.987C807.019 461.216 812.051 461.216 812.352 456.987C814.004 430.531 811.3 403.78 804.466 378.799C797.632 353.818 786.817 331.886 773.448 312.117C758.052 289.398 741.455 267.86 725.307 246.026C709.085 223.996 692.788 201.965 676.491 179.935C657.79 154.659 639.014 129.481 620.239 104.304C617.986 101.353 614.381 106.074 616.634 109.123Z" fill="black"></path><path d="M573.299 187.705C529.965 184.754 486.255 193.901 445.7 214.259C425.647 224.291 406.346 236.978 388.321 252.222C369.32 268.253 351.746 286.645 337.927 310.15C323.508 334.64 312.167 362.079 300.151 388.634C293.767 402.698 287.383 416.86 280.999 431.023C275.517 443.12 270.109 455.807 268.307 469.871C266.354 485.41 268.682 501.146 270.56 516.489C272.588 532.815 274.766 549.141 277.169 565.369C281.225 593.005 285.731 621.92 298.799 644.934C311.04 666.473 328.84 680.93 346.639 693.421C367.217 707.878 388.171 721.844 409.65 733.842C452.459 757.742 499.624 773.674 546.263 762.856C587.644 753.217 623.318 720.86 651.181 680.733C665.826 659.686 679.42 636.279 687.906 609.921C696.919 581.892 698.871 551.206 699.247 521.013C699.698 489.246 699.247 457.085 694.816 425.712C690.986 398.862 683.851 372.996 674.388 348.605C655.312 299.529 627.599 257.14 598.985 217.21C591.925 207.375 584.79 197.638 577.58 187.901C575.327 184.853 571.722 189.475 573.975 192.622C602.514 231.274 631.129 270.417 653.735 315.461C664.7 337.393 674.238 360.604 681.147 385.29C688.808 412.926 692.488 441.743 693.689 470.953C694.891 500.851 695.116 531.733 692.187 561.435C689.258 591.235 680.997 618.183 667.929 642.77C644.948 685.848 613.329 724.696 575.853 744.661C533.495 767.281 486.33 761.577 443.672 743.579C421.592 734.236 400.413 721.745 379.684 708.271C361.059 696.076 341.682 684.176 324.709 668.243C316.298 660.375 308.487 651.228 302.404 640.213C296.32 629.198 292.19 616.609 289.11 603.627C282.351 574.81 279.047 544.322 275.367 514.62C273.414 498.884 270.86 482.361 273.865 466.527C276.568 452.168 282.802 439.579 288.51 426.99C300.601 400.337 312.392 373.488 324.784 347.032C336.5 321.952 349.643 298.644 367.142 280.055C383.665 262.451 402.14 247.501 421.291 235.208C458.993 210.817 500.6 196.655 542.658 194.097C552.872 193.409 563.086 193.507 573.224 194.196C576.604 194.589 576.604 188 573.299 187.705Z" fill="black"></path><path d="M693.689 503.211C696.918 518.357 700.148 533.404 703.377 548.55C705.255 557.402 706.832 573.236 715.168 576.088C723.805 579.137 727.635 565.86 729.889 557.599C733.569 544.125 736.122 530.159 737.624 515.996C739.051 502.129 739.427 488.065 738.6 474.001C738.225 467.412 737.849 460.527 736.047 454.331C734.395 448.725 731.541 444.299 728.537 439.874C721.177 429.153 718.398 417.056 715.319 403.484C712.239 389.715 708.71 376.044 704.804 362.669C696.092 332.672 685.353 303.757 672.885 276.219C671.233 272.58 666.802 275.924 668.53 279.563C678.668 301.987 687.681 325.296 695.341 349.392C699.096 361.292 702.551 373.389 705.705 385.584C708.71 397.386 710.963 409.483 714.192 421.187C715.544 426.105 717.121 430.825 719.224 435.251C721.552 439.972 724.631 443.808 727.335 448.135C734.019 458.56 733.794 473.608 733.944 486.59C734.169 511.767 731.09 538.519 723.279 561.729C721.477 567.138 717.421 573.531 713.516 566.548C710.587 561.238 709.761 553.763 708.409 547.665C705.105 532.224 701.8 516.783 698.496 501.441C697.745 497.31 692.863 499.08 693.689 503.211Z" fill="black"></path><path d="M287.834 585.924C281.751 588.186 276.343 592.612 270.26 594.776C263.125 597.431 258.469 593.497 255.014 585.334C248.029 568.91 242.472 551.108 237.74 533.307C235.412 524.75 233.309 515.997 231.507 507.244C229.479 497.606 227.526 487.869 227.526 477.837C227.526 459.053 234.06 441.546 240.219 425.023C241.646 421.188 237.29 417.844 235.863 421.68C230.606 435.744 225.273 450.201 223.321 465.74C221.293 482.066 224.147 497.704 227.601 513.342C231.056 529.078 235.337 544.519 240.219 559.566C242.772 567.336 245.476 575.106 248.405 582.679C250.583 588.481 252.836 594.677 256.967 598.611C267.181 608.446 279.272 595.956 289.261 592.219C292.34 591.137 290.988 584.744 287.834 585.924Z" fill="black"></path><path d="M250.583 491.606C261.848 462.2 266.129 429.547 274.24 398.567C282.502 366.898 293.542 336.508 306.91 307.987C308.637 304.348 304.206 301.004 302.554 304.643C289.411 332.673 278.596 362.374 270.26 393.355C261.848 424.728 257.718 458.266 246.227 488.164C244.725 492.098 249.156 495.442 250.583 491.606Z" fill="black"></path><path d="M196.434 537.732C199.588 505.08 202.742 472.427 207.849 440.169C212.355 411.45 217.688 381.552 228.127 355.489C233.534 341.917 240.669 329.426 250.207 320.28C252.836 317.821 250.282 312.019 247.654 314.576C230.53 331 220.842 356.276 214.233 382.142C205.972 414.204 201.09 447.643 197.26 480.984C195.082 499.867 193.204 518.849 191.402 537.732C190.951 541.961 196.058 541.961 196.434 537.732Z" fill="black"></path><path d="M136.651 529.668C136.952 500.557 137.327 469.97 148.743 443.907C154.225 431.318 161.51 420.303 168.345 408.895C175.104 397.486 181.488 385.684 187.346 373.39C199.287 348.508 208.825 322.051 217.462 295.005C226.249 267.369 235.412 240.126 249.906 216.62C265.152 191.934 283.853 171.379 302.779 151.709C305.332 149.054 301.727 144.431 299.174 146.988C281.9 164.888 264.927 183.476 250.432 205.408C235.562 227.931 225.273 253.502 216.486 280.843C207.473 308.774 198.386 336.411 186.52 362.473C180.511 375.652 173.977 388.438 166.843 400.633C160.159 412.238 152.723 423.155 146.715 435.449C132.896 463.676 131.92 497.016 131.619 529.57C131.544 533.897 136.651 533.897 136.651 529.668Z" fill="black"></path><path d="M200.714 620.838C222.945 677.193 237.064 743.579 219.866 805.441C215.434 821.472 208.825 836.422 200.189 849.305C198.086 852.551 201.616 857.272 203.794 854.026C237.289 803.868 238.116 732.367 222.87 671.98C218.138 653.195 211.98 635.099 205.07 617.494C203.568 613.659 199.212 617.101 200.714 620.838Z" fill="black"></path><path d="M251.409 677.882C258.093 745.055 281.375 822.751 250.207 885.499C248.404 889.138 252.836 892.383 254.563 888.842C286.407 824.718 263.275 746.53 256.44 677.882C256.065 673.751 250.958 673.653 251.409 677.882Z" fill="black"></path><path d="M291.739 725.483C308.187 786.263 319.377 857.764 291.514 916.085C289.786 919.724 294.142 923.068 295.87 919.429C324.409 859.632 313.519 786.165 296.621 723.713C295.569 719.68 290.688 721.451 291.739 725.483Z" fill="black"></path><path d="M625.946 704.633C629.927 776.625 616.108 849.306 586.668 910.381C584.94 914.02 589.296 917.364 591.024 913.725C614.155 865.73 627.899 810.457 631.053 753.906C631.955 737.482 631.955 721.057 631.053 704.731C630.828 700.305 625.721 700.305 625.946 704.633Z" fill="black"></path><path d="M337.927 693.126C356.853 747.415 354.525 812.72 331.994 864.648C330.417 868.386 334.773 871.73 336.35 867.992C359.782 813.9 361.96 746.333 342.283 689.782C341.006 685.946 336.575 689.29 337.927 693.126Z" fill="black"></path><path d="M560.607 773.674C558.955 792.164 553.472 809.572 544.986 824.423C543.033 827.865 547.464 831.111 549.342 827.767C558.429 811.933 563.911 793.344 565.639 773.576C566.089 769.445 560.982 769.445 560.607 773.674Z" fill="black"></path><path d="M706.908 617.888C696.093 643.557 685.053 669.718 679.045 698.24C673.036 726.86 674.313 756.266 673.187 785.673C672.511 802.786 670.783 819.702 665.902 835.635C664.7 839.569 669.582 841.339 670.783 837.405C681.448 802.393 677.092 764.233 679.946 727.647C682.95 688.995 697.144 654.769 711.189 621.33C712.841 617.494 708.485 614.151 706.908 617.888Z" fill="black"></path><path d="M736.348 627.231C729.589 663.621 725.007 700.699 722.829 737.974C721.703 756.562 721.252 775.248 721.327 793.935C721.403 812.523 721.703 831.308 717.948 849.503C717.122 853.633 722.003 855.404 722.829 851.273C726.434 833.767 726.509 815.67 726.434 797.672C726.359 778.986 726.735 760.397 727.711 741.809C729.814 703.748 734.32 666.08 741.23 629.002C742.056 624.871 737.174 623.101 736.348 627.231Z" fill="black"></path><path d="M778.405 591.727C775.702 627.92 772.998 664.113 770.219 700.404C768.942 717.713 767.816 735.023 766.239 752.234C764.737 768.659 762.183 784.985 755.95 799.541C754.297 803.278 758.728 806.622 760.306 802.885C766.389 788.919 769.168 773.281 770.82 757.447C772.622 739.842 773.674 722.041 775.026 704.338C777.805 666.866 780.658 629.297 783.437 591.825C783.738 587.498 778.706 587.498 778.405 591.727Z" fill="black"></path><path d="M728.913 352.441C752.345 411.058 761.357 478.919 754.222 544.42C753.772 548.551 758.653 550.42 759.104 546.191C766.389 478.821 757.377 409.386 733.269 349.097C731.766 345.261 727.335 348.605 728.913 352.441Z" fill="black"></path><path d="M589.372 159.871C538.227 149.643 485.805 151.807 435.261 166.363C420.691 170.592 406.346 175.804 392.227 182C389.148 183.377 390.499 189.77 393.579 188.393C442.02 167.149 493.24 157.609 544.235 160.56C558.88 161.445 573.525 163.314 588.02 166.166C591.174 166.953 592.526 160.56 589.372 159.871Z" fill="black"></path><path d="M585.091 168.919C602.214 175.902 615.057 193.31 626.397 210.718C639.014 229.995 650.054 250.943 661.095 271.892C662.972 275.432 667.328 272.088 665.451 268.548C653.96 246.714 642.394 224.782 629.101 204.62C617.385 186.819 604.016 169.608 586.442 162.527C583.363 161.248 582.011 167.641 585.091 168.919Z" fill="black"></path><path d="M324.784 210.817C358.881 173.739 399.737 147.676 443.071 134.989C455.388 131.448 467.855 128.891 480.397 127.612C483.627 127.219 483.627 120.63 480.397 120.925C435.11 125.842 390.95 145.02 352.347 176.591C341.457 185.541 331.093 195.376 321.254 206.096C318.701 208.85 322.306 213.57 324.784 210.817Z" fill="black"></path><path d="M693.163 260.876C714.793 276.317 733.268 298.446 746.862 325.492C748.664 329.033 753.02 325.689 751.218 322.148C737.173 294.217 718.097 271.203 695.642 255.172C692.863 253.107 690.234 258.811 693.163 260.876Z" fill="black"></path><path d="M250.432 512.358C250.507 520.816 249.906 529.766 250.733 538.126C251.333 544.027 254.037 548.551 258.693 549.141C261.923 549.534 261.923 542.945 258.693 542.453C254.413 541.961 255.539 531.045 255.539 527.406C255.539 522.39 255.464 517.276 255.464 512.26C255.464 508.129 250.432 508.129 250.432 512.358Z" fill="black"></path><path d="M713.066 490.033C718.774 494.655 721.102 503.802 718.924 512.161C717.873 516.194 722.754 517.964 723.806 513.932C726.735 502.818 723.205 490.524 715.62 484.328C712.841 481.968 710.287 487.77 713.066 490.033Z" fill="black"></path><path d="M309.689 410.074C318.851 401.616 327.864 392.666 337.251 384.601C346.94 376.242 356.853 372.111 368.494 371.914C391.326 371.422 414.457 375.652 436.763 381.749C439.917 382.634 441.344 376.242 438.115 375.356C415.058 369.062 390.725 364.341 367.142 365.325C355.952 365.817 345.963 369.652 336.425 377.422C326.362 385.683 316.824 395.322 307.135 404.271C304.507 406.828 306.985 412.631 309.689 410.074Z" fill="black"></path><path d="M538.827 382.142C558.054 373.881 577.956 367.882 598.083 364.734C607.847 363.161 617.76 362.177 627.599 361.98C636.686 361.784 647.426 363.259 652.007 375.159C653.509 378.995 657.865 375.651 656.363 371.816C652.233 361.292 643.671 356.768 635.034 355.686C624.294 354.309 612.954 355.981 602.214 357.456C580.209 360.505 558.429 366.603 537.4 375.75C534.396 377.028 535.748 383.421 538.827 382.142Z" fill="black"></path><path d="M334.548 443.611C338.753 434.76 343.71 426.105 351.295 422.073C359.181 417.942 368.194 417.745 376.53 416.86C393.729 414.991 411.303 414.303 427.9 421.483C430.98 422.859 432.331 416.368 429.252 415.09C410.852 407.222 391.4 408.5 372.324 410.664C363.838 411.648 354.975 412.238 347.24 417.155C339.655 421.974 334.472 431.023 330.116 440.267C328.464 443.906 332.82 447.25 334.548 443.611Z" fill="black"></path><path d="M337.627 445.479C355.952 447.348 374.277 449.315 392.602 448.725C400.188 448.43 408.299 448.331 415.358 444.004C422.193 439.677 427.074 431.809 431.656 424.137C433.608 420.793 430.078 416.073 428.051 419.417C423.77 426.596 419.264 434.366 412.73 438.3C405.294 442.824 396.132 442.135 388.171 442.234C371.273 442.43 354.375 440.66 337.552 438.89C334.397 438.496 334.397 445.184 337.627 445.479Z" fill="black"></path><path d="M538.001 432.301C545.661 428.072 550.994 419.614 558.354 414.598C566.54 408.992 576.003 407.222 585.165 406.632C603.265 405.55 623.693 409.976 635.034 430.433C636.911 433.875 641.342 430.531 639.39 427.089C627.824 406.238 608.147 399.551 589.296 399.846C579.758 399.944 569.92 401.223 560.982 405.845C556.702 408.009 552.721 410.959 549.116 414.598C545.136 418.631 541.456 423.351 536.724 425.908C533.645 427.58 534.922 433.973 538.001 432.301Z" fill="black"></path><path d="M544.986 426.4C556.552 437.809 571.272 440.267 585.391 440.759C602.139 441.349 619.263 441.349 635.71 437.12C638.94 436.333 637.588 429.941 634.358 430.727C618.737 434.76 602.44 434.563 586.593 434.17C572.924 433.776 558.805 431.809 547.539 420.696C544.986 418.139 542.432 423.941 544.986 426.4Z" fill="black"></path><path d="M361.66 423.056C363.763 429.252 367.743 433.58 372.099 437.022C376.605 440.563 381.862 444.005 387.27 443.415C398.16 442.333 400.488 426.302 402.816 415.188C403.717 411.058 398.836 409.287 397.934 413.418C396.132 421.679 394.63 436.924 386.068 436.825C378.708 436.727 369.02 428.367 366.091 419.614C364.739 415.778 360.308 419.221 361.66 423.056Z" fill="black"></path><path d="M373 419.615C375.403 424.139 378.633 428.958 383.289 428.073C387.57 427.286 389.297 421.975 390.048 417.057C390.724 412.927 385.843 411.058 385.167 415.287C384.866 417.353 384.491 420.992 382.613 421.483C380.285 421.975 378.482 418.336 377.356 416.271C375.478 412.828 371.122 416.074 373 419.615Z" fill="black"></path><path d="M564.212 413.319C568.042 417.45 569.094 424.433 573.149 428.269C577.58 432.498 584.339 432.399 589.672 432.596C593.953 432.793 600.787 434.17 604.242 429.842C607.922 425.22 607.621 414.893 607.396 408.992C607.246 404.763 602.214 404.665 602.289 408.992C602.439 413.811 603.19 424.236 598.909 425.81C597.032 426.498 594.328 426.007 592.451 426.007C590.122 426.007 587.869 425.81 585.541 425.613C580.885 425.121 576.529 424.826 573.825 419.22C571.948 415.483 570.596 411.451 567.817 408.5C565.263 405.943 561.658 410.664 564.212 413.319Z" fill="black"></path><path d="M575.928 410.861C579.984 414.598 584.79 420.794 590.198 419.319C595.004 418.04 597.783 412.828 599.435 407.123C600.562 403.091 595.68 401.419 594.554 405.353C593.202 409.877 590.423 414.5 586.367 412.041C583.589 410.369 581.035 407.32 578.557 405.058C575.778 402.698 573.224 408.5 575.928 410.861Z" fill="black"></path><path d="M433.233 517.374C428.276 525.242 420.991 528.98 414.307 533.897C407.323 539.011 402.366 546.388 396.808 553.764C391.776 560.452 383.891 563.992 380.736 572.844C377.657 581.302 378.633 591.235 379.76 600.185C380.286 604.414 385.167 602.644 384.642 598.415C383.59 589.957 382.388 578.745 387.27 571.86C389.673 568.516 393.053 566.648 395.757 563.894C398.686 560.943 401.164 557.403 403.643 553.862C408.599 546.879 413.781 541.569 420.24 537.143C426.249 533.012 432.332 528.98 436.763 521.997C438.866 518.85 435.261 514.129 433.233 517.374Z" fill="black"></path><path d="M544.084 506.162C552.721 511.768 561.433 517.374 570.07 523.078C572.023 524.357 575.252 525.734 573.675 529.373C572.774 531.438 571.121 532.717 569.619 533.799C565.564 536.552 560.982 537.437 556.476 537.241C547.389 536.946 538.752 532.52 529.89 530.553C526.435 529.766 522.455 528.684 519.3 531.438C516.446 533.897 515.32 538.323 512.091 540.388C504.881 545.109 496.094 542.06 488.658 539.995C480.172 537.634 472.361 536.552 463.724 538.618C456.439 540.388 445.249 544.027 440.593 533.503C436.537 524.455 445.85 517.768 450.206 512.948C465.377 496.426 460.645 468.888 465.076 446.66C465.902 442.53 461.021 440.759 460.194 444.89C457.566 458.069 458.317 471.74 456.289 485.115C455.388 490.721 454.036 496.229 451.708 501.048C449.229 505.965 445.7 509.211 442.245 512.85C436.913 518.456 432.331 526.717 435.861 535.766C439.391 544.912 447.803 548.059 455.087 547.174C460.119 546.584 464.926 544.617 469.958 543.929C475.666 543.142 481.223 544.519 486.781 546.092C495.042 548.354 503.979 551.305 512.316 547.371C515.62 545.797 518.249 543.338 520.427 539.7C522.83 535.667 525.083 535.962 528.688 536.749C531.467 537.339 534.171 538.224 536.95 539.109C546.112 542.06 555.575 545.306 565.038 542.748C571.121 541.076 584.865 531.635 577.73 521.308C576.379 519.341 574.501 518.259 572.774 517.177C569.77 515.21 566.69 513.243 563.686 511.276C558.053 507.637 552.421 503.998 546.788 500.261C543.784 498.589 541.23 504.294 544.084 506.162Z" fill="black"></path><path d="M508.26 439.775C510.513 452.266 513.593 464.363 517.573 476.066C519.601 482.066 521.854 487.77 524.257 493.474C526.736 499.277 529.139 505.08 528.688 511.964C528.388 516.193 533.495 516.193 533.795 511.964C534.621 499.474 527.637 488.36 523.732 477.64C519.15 464.953 515.696 451.675 513.217 438.005C512.466 433.874 507.509 435.546 508.26 439.775Z" fill="black"></path><path d="M413.43 618.325C421.149 628.585 429.219 638.165 441.218 643.941C452.305 649.241 464.725 651.415 477.005 651.89C492.303 652.502 507.53 650.396 522.757 649.512C530.125 649.105 537.563 649.512 544.861 648.765C551.387 648.085 557.281 645.639 562.895 642.378C568.719 638.981 575.385 635.312 579.666 630.148C584.087 624.712 585.139 617.85 585.981 611.191C586.332 608.27 581.631 608.27 581.21 611.191C580.438 617.035 579.596 623.421 575.385 627.974C571.526 632.186 565.912 635.244 561 638.165C555.387 641.495 549.562 643.941 542.896 644.416C536.23 644.892 529.423 644.62 522.757 645.028C497.987 646.455 471.953 651.075 448.025 641.97C434.552 636.807 425.71 627.226 417.43 616.083C415.746 613.637 411.676 615.947 413.43 618.325Z" fill="black"></path><path d="M417.891 609.696C429.102 607.179 439.55 602.374 450.151 597.951C455.337 595.816 460.523 593.756 465.937 592.231C468.378 591.545 470.895 590.935 473.411 590.401C474.479 590.172 476.996 589.333 477.987 589.714C478.902 590.096 479.665 592.002 480.275 592.765C482.944 596.502 486.453 600.163 491.41 600.01C496.748 599.858 502.239 594.672 506.51 591.85C508.875 590.248 511.391 588.189 513.984 586.969C516.959 585.596 520.543 587.503 523.594 588.418C529.237 590.172 534.881 592.002 540.448 593.985C553.489 598.561 566.226 604.052 577.97 611.374C580.792 613.128 583.385 608.704 580.563 606.95C570.191 600.468 559.057 595.434 547.617 591.163C541.897 589.028 536.025 587.045 530.229 585.138C527.407 584.223 524.585 583.308 521.763 582.469C519.399 581.707 516.959 580.563 514.442 581.173C512.001 581.707 509.79 583.613 507.654 584.986C504.756 586.893 501.858 588.799 498.96 590.63C496.215 592.46 493.011 595.434 489.503 594.443C486.224 593.451 484.622 589.486 482.563 587.045C479.513 583.308 475.013 584.757 470.818 585.672C465.175 586.816 459.607 588.723 454.269 590.782C441.762 595.587 429.788 601.688 416.594 604.662C413.238 605.425 414.611 610.458 417.891 609.696Z" fill="black"></path><path d="M421.526 620.538C435.025 620.08 448.219 617.106 461.642 616.343C468.658 615.962 475.522 616.42 482.386 617.64C488.563 618.784 494.664 620.08 500.918 620.385C514.341 620.995 527.687 619.013 541.109 619.165C554.913 619.318 568.717 620.614 582.445 621.911C585.724 622.216 585.724 617.106 582.445 616.725C568.717 615.428 554.913 614.132 541.109 613.979C527.687 613.827 514.341 615.809 500.918 615.199C494.13 614.894 487.572 613.293 480.86 612.149C474.454 611.081 468.048 610.776 461.565 611.157C448.143 611.92 434.873 614.894 421.45 615.352C418.171 615.504 418.171 620.69 421.526 620.538Z" fill="black"></path><path d="M673.637 581.4C666.276 588.776 658.992 596.054 651.631 603.43C644.797 610.216 637.512 616.609 631.128 624.182C625.27 631.066 624.144 639.426 622.717 649.064C621.14 660.178 617.985 670.701 613.479 680.34C611.752 683.979 616.183 687.323 617.835 683.684C621.741 675.324 624.745 666.177 626.547 656.736C628.5 646.704 628.274 636.279 634.658 628.903C640.892 621.526 648.102 615.33 654.786 608.643C661.921 601.561 669.055 594.382 676.19 587.301C678.744 584.547 676.19 578.744 673.637 581.4Z" fill="black"></path></g></svg>